<svg id="card02-job" xmlns="http://www.w3.org/2000/svg" width="18.386" height="18.386" viewBox="0 0 18.386 18.386">
  <g id="invisible_box" data-name="invisible box" transform="translate(0)">
    <rect id="長方形_233" data-name="長方形 233" width="18.386" height="18.386" fill="none"/>
  </g>
  <g id="Q3_icons" data-name="Q3 icons" transform="translate(0.989 1.722)">
    <path id="パス_13013" data-name="パス 13013" d="M17.384,6.93H13.355v-2.2A.733.733,0,0,0,12.622,4H7.494a.733.733,0,0,0-.733.733v2.2H2.733A.733.733,0,0,0,2,7.663V17.919a.733.733,0,0,0,.733.733H17.384a.733.733,0,0,0,.733-.733V7.663A.733.733,0,0,0,17.384,6.93ZM8.227,5.465H11.89V6.93H8.227ZM16.651,8.4V10.74a13.846,13.846,0,0,1-6.593,1.722A13.846,13.846,0,0,1,3.465,10.74V8.4ZM3.465,17.186v-4.8a14.615,14.615,0,0,0,5.861,1.5v1.282h1.465V13.89a14.615,14.615,0,0,0,5.861-1.5v4.8Z" transform="translate(-2 -4)" fill="#42484d"/>
  </g>
</svg>
