<svg id="card02-type" xmlns="http://www.w3.org/2000/svg" width="18.386" height="18.386" viewBox="0 0 18.386 18.386">
  <g id="invisible_box" data-name="invisible box">
    <rect id="長方形_235" data-name="長方形 235" width="18.386" height="18.386" fill="none"/>
  </g>
  <g id="Layer_6" data-name="Layer 6" transform="translate(1.021 1.021)">
    <g id="グループ_212" data-name="グループ 212" transform="translate(4.546 5.811)">
      <path id="パス_13024" data-name="パス 13024" d="M13,14.708v1.416a.708.708,0,0,0,1.416,0V14.708a.708.708,0,1,0-1.416,0Z" transform="translate(-13 -14)" fill="#42484d"/>
      <path id="パス_13025" data-name="パス 13025" d="M31.708,16.833a.708.708,0,0,0,.708-.708V14.708a.708.708,0,0,0-1.416,0v1.416A.708.708,0,0,0,31.708,16.833Z" transform="translate(-24.626 -14)" fill="#42484d"/>
      <path id="パス_13026" data-name="パス 13026" d="M19.708,18.6a2.125,2.125,0,0,0,2.125-2.125v-1.77a.708.708,0,1,0-1.416,0v1.77a.708.708,0,0,1-.708.708.708.708,0,0,0,0,1.416Z" transform="translate(-16.875 -14)" fill="#42484d"/>
      <path id="パス_13027" data-name="パス 13027" d="M20.8,29.049a.708.708,0,0,0-1.062-.921,3.045,3.045,0,0,1-2.3,1.169,3.045,3.045,0,0,1-2.3-1.169.708.708,0,1,0-1.062.921,4.426,4.426,0,0,0,3.364,1.664A4.426,4.426,0,0,0,20.8,29.049Z" transform="translate(-13.542 -22.923)" fill="#42484d"/>
    </g>
    <path id="楕円形_94" data-name="楕円形 94" d="M8.648,1.384a7.264,7.264,0,1,0,7.264,7.264A7.272,7.272,0,0,0,8.648,1.384M8.648,0A8.648,8.648,0,1,1,0,8.648,8.648,8.648,0,0,1,8.648,0Z" fill="#42484d"/>
  </g>
</svg>
