<svg xmlns="http://www.w3.org/2000/svg" width="18" height="18" viewBox="0 0 14.34 13.69">
  <path id="Path_6139" data-name="Path 6139" d="M125.638,239.371l-4.965-.743-2.206-4.485-2.241,4.509-4.927.718,3.579,3.534-.841,4.927,4.413-2.328a.039.039,0,0,1,.017,0l4.436,2.333-.827-4.973Zm-3.451,7.476-3.443-1.816a.5.5,0,0,0-.277-.069c0-1.368.012-7.591.005-9.589l1.72,3.5a.6.6,0,0,0,.441.315l3.851.562-2.785,2.726a.59.59,0,0,0-.175.524Z" transform="translate(-111.298 -234.143)" fill="#f90" opacity="0.97"/>
</svg>
