<?xml version="1.0" encoding="utf-8"?>
<!-- Generator: Adobe Illustrator 24.1.3, SVG Export Plug-In . SVG Version: 6.00 Build 0)  -->
<svg version="1.1" id="レイヤー_1" xmlns="http://www.w3.org/2000/svg" xmlns:xlink="http://www.w3.org/1999/xlink" x="0px"
	 y="0px" viewBox="0 0 547.5 195.5" style="enable-background:new 0 0 547.5 195.5;" xml:space="preserve">
<style type="text/css">
	.st0{enable-background:new    ;}
	.st1{fill:#2B2F2F;}
	.st2{font-family:'NotoSerifJP-Medium-83pv-RKSJ-H';}
	.st3{font-size:51px;}
	.st4{letter-spacing:3;}
	.st5{letter-spacing:7;}
	.st6{font-family:'HiraMinProN-W3-83pv-RKSJ-H';}
	.st7{font-size:34px;}
	.st8{fill:none;stroke:#2B2F2F;stroke-width:0.5;stroke-miterlimit:10;}
	.st9{fill:none;}
	.st10{fill:#FE8FB0;}
	.st11{filter:url(#パス_43849);}
	.st12{filter:url(#パス_43850);}
	.st13{filter:url(#パス_43851);}
	.st14{filter:url(#パス_43852);}
	.st15{filter:url(#パス_43853);}
	.st16{font-family:'KozGoPr6N-Regular-83pv-RKSJ-H';}
	.st17{font-size:18px;}
	.st18{letter-spacing:1;}
	.st19{font-family:'NotoSansArmenian-Medium';}
	.st20{fill:#FFADC6;}
</style>
<filter  filterUnits="userSpaceOnUse" height="58.67" id="パス_43853" width="40.329" x="507.143" y="117.664">
	<feOffset  dx="4" dy="3" input="SourceAlpha"></feOffset>
	<feGaussianBlur  result="blur-5" stdDeviation="0.5"></feGaussianBlur>
	<feFlood  flood-color="#5e7e7b" flood-opacity="0.624"></feFlood>
	<feComposite  in2="blur-5" operator="in"></feComposite>
	<feComposite  in="SourceGraphic" operator="over"></feComposite>
</filter>
<filter  filterUnits="userSpaceOnUse" height="58.669" id="パス_43852" width="40.329" x="474.605" y="123.73">
	<feOffset  dx="4" dy="3" input="SourceAlpha"></feOffset>
	<feGaussianBlur  result="blur-4" stdDeviation="0.5"></feGaussianBlur>
	<feFlood  flood-color="#5e7e7b" flood-opacity="0.624"></feFlood>
	<feComposite  in2="blur-4" operator="in"></feComposite>
	<feComposite  in="SourceGraphic" operator="over"></feComposite>
</filter>
<filter  filterUnits="userSpaceOnUse" height="55.893" id="パス_43851" width="40.726" x="439.901" y="129.975">
	<feOffset  dx="4" dy="3" input="SourceAlpha"></feOffset>
	<feGaussianBlur  result="blur-3" stdDeviation="0.5"></feGaussianBlur>
	<feFlood  flood-color="#5e7e7b" flood-opacity="0.624"></feFlood>
	<feComposite  in2="blur-3" operator="in"></feComposite>
	<feComposite  in="SourceGraphic" operator="over"></feComposite>
</filter>
<filter  filterUnits="userSpaceOnUse" height="58.669" id="パス_43850" width="40.33" x="404.452" y="136.807">
	<feOffset  dx="4" dy="3" input="SourceAlpha"></feOffset>
	<feGaussianBlur  result="blur-2" stdDeviation="0.5"></feGaussianBlur>
	<feFlood  flood-color="#5e7e7b" flood-opacity="0.624"></feFlood>
	<feComposite  in2="blur-2" operator="in"></feComposite>
	<feComposite  in="SourceGraphic" operator="over"></feComposite>
</filter>
<filter  filterUnits="userSpaceOnUse" height="24.014" id="パス_43849" width="15.431" x="393.658" y="138.464">
	<feOffset  dx="4" dy="3" input="SourceAlpha"></feOffset>
	<feGaussianBlur  result="blur" stdDeviation="0.5"></feGaussianBlur>
	<feFlood  flood-color="#5e7e7b" flood-opacity="0.624"></feFlood>
	<feComposite  in2="blur" operator="in"></feComposite>
	<feComposite  in="SourceGraphic" operator="over"></feComposite>
</filter>
<g id="mv-ttl" transform="translate(-403.108 -143.116)">
	<g id="グループ_778" transform="translate(-4.734 -38.515)">
		<g id="グループ_770" transform="translate(392.366 173.901)">
			<text transform="matrix(1 0 0 1 217.387 59.551)" class="st0"><tspan x="0" y="0" class="st1 st2 st3 st4">セ</tspan><tspan x="54.1" y="0" class="st1 st2 st3 st5">ラピスト</tspan></text>
			<text transform="matrix(1 0 0 1 476.595 60.551)" class="st1 st6 st7">の</text>
			<text transform="matrix(1 0 0 1 476.595 60.551)" class="st8 st6 st7">の</text>
			<path id="パス_43862" class="st9" d="M252.8,101.9L252.8,101.9l0,0.1C252.8,102,252.8,101.9,252.8,101.9z"/>
			<path id="パス_43863" class="st9" d="M252.3,100.1L252.3,100.1c0,0.1,0,0.1,0,0.2C252.4,100.2,252.4,100.2,252.3,100.1z"/>
			<g id="グループ_774" transform="translate(10.544 7.729)">
				<path id="パス_43856" class="st1" d="M117.5,53.1h43.3c0.9,0,2.3-0.7,2.3-1.7c0-0.5-0.2-0.9-0.5-1.3c-0.1-0.1-0.2-0.2-0.2-0.4
					l-1.8-1.7c-4.2-3.8-6.5-5.9-10.2-9.1c-1.1-1-2.6-1.5-4.1-1.3c-1.5,0.1-2.8,0.9-3.7,2.1c-1.1,1.5-2.1,2.8-3.3,4.4
					c-0.7,0.9-1.5,2-2.4,3.2h-42c2.4-6,4.4-12.2,6.1-18.5h66.5c0.7,0,2.5,0,2.5-1.7c-0.1-0.6-0.3-1.2-0.6-1.7l-3.3-3
					c-3.6-3.2-5.9-5.3-9.4-8.4c-2.2-2-5.6-1.8-7.6,0.5c0,0.1-0.1,0.1-0.1,0.2c-1.9,2.3-3.3,4.2-5.7,7.5l-0.7,0.9h-40.1
					c0.7-3.2,1.4-6.1,2.6-11.5c6.6-1.9,8.1-2.6,8.1-4.9c0-2.6-0.7-2.8-19.6-6.3L91.3,0l0,0.9C91,8.3,90,15.7,88.4,23H52.1
					c-6.9,0-9.6-0.2-14.5-1.2c-0.7-0.1-1.4,0.1-1.9,0.5c-0.5,0.5-0.8,1.3-0.7,2.1l0.6,3.4c0.2,1.1,1.2,1.9,2.3,1.8
					c4-0.5,8-0.7,12.1-0.8h37c-1.4,6.3-3.3,12.5-5.5,18.5H56c-6.1,0-8.8-0.1-12.7-0.9c-0.7-0.1-1.3,0.1-1.8,0.6
					c-0.5,0.5-0.8,1.3-0.7,2l0.5,2.8c0.2,1.1,1.2,1.9,2.3,1.8c3.3-0.4,6.7-0.6,10-0.6h25.6c-2.8,6.8-6,13.3-9.8,19.6H41.2
					c-8.2,0-10.5-0.2-14.9-1.1c-0.7-0.1-1.3,0.1-1.8,0.5c-0.5,0.5-0.8,1.3-0.7,2l0.5,3.1c0.1,0.6,0.4,1.1,0.9,1.5
					c0.4,0.3,1,0.5,1.5,0.4c3.8-0.6,7.7-0.8,11.6-0.7h27.5c-12,18-40.4,46.2-60,61.8c-0.9,0.7-1.2,2-0.6,3.1
					c0.3,0.5,0.8,0.9,1.3,1.1c0.2,0.1,0.4,0.1,0.6,0.1c0.4,0,0.7-0.1,1-0.3c18.3-9.6,36.6-27.1,48.7-40.1
					c11.9-12.8,20.4-23.8,21.9-25.8h100.2c1.3,0,2.3-0.7,2.3-1.7c-0.1-0.7-0.4-1.3-0.8-1.9l-2.2-2.2c-4.1-3.9-6.3-6-10.1-9.4
					c-1.1-1-2.6-1.4-4.1-1.3c-1.5,0.1-2.8,0.9-3.7,2.1c-1.1,1.4-2.1,2.7-3.2,4.2c-1,1.2-2,2.6-3.4,4.4H82.6c3.7-6.3,7-12.9,9.8-19.6
					L117.5,53.1L117.5,53.1z"/>
				<path id="パス_43857" class="st1" d="M136.6,112.6c-0.1-0.8-0.5-1.5-1.1-2c-3.3-3.2-4.8-4.5-7.5-6.9l-0.9-0.8
					c-0.9-0.8-2.3-0.7-3.1,0.2c0,0.1-0.1,0.1-0.1,0.2l-2.3,3H84l-0.7-0.5c-1.9-1.2-3.7-2.4-5.6-3.6c-0.8-0.6-1.7-1-2.6-1.4
					c-1.5-0.7-3.3,0-3.9,1.5c0,0.1-0.1,0.2-0.1,0.3c-0.3,0.7-0.3,1.5-0.2,2.2c0,0.2,0.1,0.5,0.1,0.7c0.3,13,0.3,13,0.3,19.7
					c0,10.2-0.2,22.1-0.8,49.2c-0.2,1.3,0.8,2.4,2,2.6c0.2,0,0.4,0,0.6,0c2.7,0,5.5-0.3,8.2-0.9c1.4-0.5,1.8-1.6,2-3.2v-4.7h39.1
					v5.8c-0.1,1.4,1,2.7,2.5,2.7c2.8,0,7.5-0.3,9-0.9c1.3-0.5,1.8-1.2,1.8-2.9c-0.8-13.6-1.3-34.3-1.3-56.8
					C136.1,114.2,136.6,113.7,136.6,112.6z M83.3,132.8V112h39.1v20.8H83.3z M122.4,138.5v24H83.3v-24L122.4,138.5z"/>
				<path id="パス_43858" class="st10" d="M110.6,58.3c0,0,1.5-5.7,6,0c0,0,6.9,19.1,25.9,35.9c0,0,19.3,19.5,47.9,24.9l0.7,0.2
					l-0.3,5.4c0,0-7.7,0.2-10.9,4.9c-1.8,2.3-3.4,4.8-4.8,7.3c-15-8.4-28.1-19.8-38.7-33.5C136.4,103.4,118.5,83.8,110.6,58.3z"/>
			</g>
			<g id="グループ_776" transform="translate(209.985 74.671)">
				<g id="グループ_775" transform="translate(172.162 3.109)">
					<path id="パス_43860" class="st1" d="M10.7,9.2c1.6,0.4,2.5,0.9,2.5,1.3c0,0.4-0.5,0.7-1.5,0.7c-0.5,0-0.9,0.3-1.3,0.6
						c-0.6,2.1-1.1,3.9-1.6,5.4h5.8V6.9c0-2.6-0.1-4.9-0.3-6.9c1.3,0.1,3,0.3,5.1,0.6c1.3,0.3,2.1,0.5,2.1,0.8
						c0,0.7-0.5,1.2-1.6,1.5c-0.8,0.2-1.2,0.6-1.2,1.2v13.2h4.1c0.6-0.4,1.1-0.9,1.6-1.5c0.7-0.8,1.3-1.3,1.6-1.3s1.3,0.7,2.8,2.2
						c0.6,0.5,1,1,1.4,1.6c0,0.7-0.3,1-0.8,1H18.6v15.9c3.9-1,7.6-2.2,11.3-3.5l0.3,0.5c-3.8,2.2-7.6,4.1-11.6,5.9v21.7
						c0,1.9,0.1,4.2,0.3,6.6c0,0.4-0.3,0.7-0.9,1c-0.8,0.2-1.6,0.3-2.5,0.4c-0.7,0.1-1.3-0.4-1.3-1.1c0,0,0-0.1,0-0.1
						c0.1-2.5,0.3-4.7,0.3-6.8V39.8c-2.7,1-5.3,2-8,2.8c-1.5,0.3-2.2,0.7-2.2,1.3c-0.1,0.3-0.1,0.7-0.1,1c-0.3,0.7-0.6,1-0.7,1
						c-0.5,0-1-0.7-1.6-2.2L0,39.3c4.9-0.7,9.8-1.8,14.5-3V19.4H8c-0.4,1.2-0.8,2.2-1.2,3c-1.5,3.4-3.4,6.7-5.7,9.7l-0.8-1
						c1-2.4,2.1-5.7,3.4-10.1c1.1-4.3,1.9-8.7,2.5-13.1C7.6,8.4,9.1,8.8,10.7,9.2z M38.6,11.2h5.2V3.9c0-1.2-0.1-2.4-0.3-3.7
						C44.9,0.4,46.7,0.7,49,1c1.5,0.2,2.2,0.5,2.2,0.8c0,0.6-0.6,1.1-1.8,1.6c-0.8,0.3-1.2,0.7-1.2,1.3v6.6h8.3c0.3-0.3,1-1,1.9-2.1
						c0.9-1,1.4-1.6,1.7-1.6c0.6,0,1.5,0.7,2.8,2.2c1.3,1.4,1.9,2.2,1.9,2.5c0,0.7-0.4,1-1,1H48.2v11.9H59l2-2.2
						c0.9-1,1.5-1.6,1.8-1.6c0.7,0,1.7,0.7,3.1,2.2c0.8,0.8,1.5,1.7,2,2.7c0,0.7-0.4,1-1,1H35.3c-2.6-0.1-5.2,0.1-7.8,0.5l-1.3-3.2
						c3,0.5,6.1,0.7,9.2,0.7h8.6V13.3h-5.2c-2.6-0.1-5.2,0.1-7.8,0.4l-1.3-3.2C32.5,11,35.5,11.3,38.6,11.2L38.6,11.2z M36.2,38
						h15.4v-5.3c0-0.7-0.1-1.9-0.2-3.9l5.3,0.6c1.4,0.2,2.2,0.5,2.2,0.9c0,0.6-0.6,1-1.6,1.3c-0.8,0.3-1.2,0.7-1.2,1.3V38h2.8
						c0.7-0.7,1.3-1.4,1.9-2.2c0.9-1,1.4-1.5,1.7-1.5c0.6,0,1.6,0.7,2.8,2.1c1.3,1.4,1.9,2.2,1.9,2.5c0,0.7-0.3,1-0.9,1H56v21.7
						c0.2,1.8-0.7,3.6-2.2,4.6c-1.3,0.8-2.8,1.3-4.4,1.5c-1,0-1.7-0.7-1.9-1.9c-0.3-1.2-3.5-2.5-9.5-3.7l0.4-1.5
						c6.1,0.7,10,1.2,11.8,1.2c0.9,0,1.3-0.5,1.3-1.5V40H36.2c-2.6-0.1-5.2,0.1-7.8,0.5l-1.4-3.2C30.1,37.9,33.2,38.1,36.2,38
						L36.2,38z M39,47.8c1.4,1.4,2.2,3.2,2.4,5.1c0,0.7-0.2,1.4-0.7,2c-0.3,0.5-0.8,0.9-1.4,1c-1.1,0-1.9-0.7-2.4-2.4
						c-1.1-3.9-3.1-7.6-5.7-10.7l0.7-0.7C34.5,43.6,37,45.5,39,47.8L39,47.8z"/>
					<path id="パス_43861" class="st1" d="M92.9,1.2c1.5,0.4,2.3,0.9,2.3,1.3c0,0.4-0.4,0.7-1.3,0.7c-0.5,0.1-0.9,0.3-1.3,0.6
						c-0.9,1.8-2,3.5-3.1,5.1h19.8c-0.4-0.5-0.7-1.1-0.8-1.7c-0.8-2.4-2.3-4.5-4.2-6.1l0.7-0.7c2.4,0.7,4.6,1.7,6.6,3.1
						c1.1,0.7,1.8,1.8,1.9,3.1c0,0.8-0.2,1.6-0.5,2.3l-0.1,0.1h17.1c0.7-0.5,1.3-1.1,1.9-1.8c0.9-1,1.5-1.5,1.9-1.5s1.4,0.8,3.2,2.4
						c1,1,1.6,1.7,1.6,1.9c0,0.7-0.3,1-0.9,1h-25.3v7h14c0.3-0.3,1-0.9,2-1.9c0.9-1,1.5-1.6,1.9-1.6s1.5,0.9,3.4,2.5
						c1.1,1.1,1.7,1.8,1.7,2c0.1,0.5-0.3,0.9-0.8,1c-0.1,0-0.1,0-0.2,0h-22V26h14.3c0.3-0.2,1-0.9,2-1.9c0.9-1,1.5-1.5,1.9-1.5
						s1.5,0.9,3.4,2.5c1.1,1,1.7,1.7,1.7,1.9c0,0.7-0.4,1-1,1h-22.3v7H130c0.3-0.3,1-1,2.1-2.2c1-1,1.6-1.6,2-1.6
						c0.4,0,1.6,0.9,3.6,2.7c1.2,1.1,1.8,1.8,1.8,2.1c0.1,0.5-0.3,1-0.8,1c-0.1,0-0.2,0-0.3,0H88.1V40c0,0.5-0.4,0.9-0.8,1
						c-0.6,0.3-1.3,0.4-2,0.4c-0.9,0-1.3-0.4-1.3-1.1c0.1-1.8,0.3-3.7,0.3-5.7V14.9c-2.7,2.6-5.6,4.9-8.7,6.9l-0.7-1
						c2.9-2.7,5.5-5.7,7.7-9c2.5-3.6,4.6-7.6,6.1-11.8C90.3,0.5,91.7,0.9,92.9,1.2z M86.9,45.2h20v-0.6c0-2.5-0.1-4.8-0.3-6.8l5,0.5
						c1.3,0.3,2.1,0.6,2.1,0.9c0,0.7-0.5,1.2-1.6,1.5c-0.8,0.2-1.2,0.6-1.2,1.1v3.4h20.9l2-2.2c0.9-1,1.5-1.6,1.7-1.6
						c0.7,0,1.7,0.7,3.1,2.2c1.3,1.5,2.1,2.4,2.1,2.7c0.1,0.5-0.3,1-0.8,1c-0.1,0-0.2,0-0.3,0h-26.8c4,3,8.4,5.2,13.2,6.7
						c5.1,1.7,10.4,2.9,15.8,3.6l-0.3,1c-1.6,0.3-2.9,1.3-3.7,2.8c-0.4,1-0.8,1.6-1.2,1.6c-1,0-3.4-0.8-7.1-2.4
						c-3.8-1.5-7.5-3.4-10.8-5.8c-3-1.9-5.6-4.3-7.8-7v12.1c0,1.9,0.1,4.2,0.3,6.6c0,0.4-0.3,0.7-0.8,1c-0.8,0.2-1.7,0.3-2.5,0.4
						c-0.7,0-1.2-0.5-1.3-1.1c0,0,0,0,0-0.1c0.2-2.5,0.3-4.7,0.3-6.8v-10c-3.6,3.2-7.7,5.9-12,8c-5.6,2.7-11.4,4.8-17.4,6.2
						l-0.9-0.8c5.5-2,10.7-4.4,15.8-7.2c4-2.4,7.6-5.3,10.9-8.6H86.9c-2.6-0.1-5.2,0.1-7.8,0.4l-1.4-3.1
						C80.8,45.1,83.8,45.3,86.9,45.2L86.9,45.2z M108.3,10.9H88.1v7h20.2V10.9z M108.3,19.9H88.1V26h20.2V19.9z M108.3,28.1H88.1v7
						h20.2V28.1z"/>
				</g>
				<g id="グループ_769" transform="translate(0 2.513)">
					<path id="パス_43864" class="st10" d="M78.1,65c-5.4-2.8-10.3-6.3-14.6-10.6l0,0C55.8,47.1,49.6,33.3,45,13.4
						C43.2,6.9,39.6,2.5,34.3,0.2L33.9,0l-5,5.3h1.2c1.6,0,3.6,1,6,3c1.5,1.7,2.8,3.5,3.9,5.5l0,0c1.5,2.9,2.6,6,3.3,9.2l0.4,1.5v0
						c0,0.1,0,0.1,0,0.2l0.5-0.1l0,0L43.8,25c0.1,0.4,0.2,0.7,0.2,1.1c3.3,16.4,9.5,29.4,18.1,38.5c3.7,4.4,6.8,6.6,9.5,7
						c1.2,0,2-0.9,2.3-2.8c0.7-1,1.9-1.6,3.2-1.5h0.3l1-2.1L78.1,65z"/>
					<path id="パス_43865" class="st1" d="M37,16.5c-0.5,0-0.9,1.4-1.2,2.2c-0.3,0.9-0.6,1.8-1,2.7c-0.7,1.8-1.4,3.6-2.1,5.4
						c-1.5,3.6-3.1,7.1-5,10.5c-3.8,7-8.2,13.5-13.2,19.6C10.1,62.4,5.2,67.4,0,72.1l1.3,1.3c6.9-5.4,13.3-11.5,19-18.3
						c2.9-3.1,5.6-6.4,8-9.9c2.4-3.4,4.6-6.9,6.6-10.5c1.2-2,2.3-4,3.4-6.1c0.9-1.6,2.1-3.3,1.6-5.2c-0.2-0.7-0.4-1.3-0.6-2
						c-0.4-1.4-0.9-2.7-1.5-4C37.5,16.8,37.3,16.5,37,16.5z"/>
				</g>
				<g id="グループ_777" transform="translate(85.78)">
					<path id="パス_43859" class="st1" d="M56.5,31.2H24.2V53c1.6-0.3,3.1-0.7,4.6-1.1l0.4,0.9c-1.6,0.8-3.4,1.6-5,2.3v13
						c0,1.6,0,3.7,0.2,6c0,0.4-0.3,0.7-0.9,1.1c-0.8,0.2-1.6,0.4-2.4,0.4c-0.9,0-1.3-0.4-1.3-1.2c0.2-2.1,0.3-4.1,0.2-6.2V56.7
						c-4.4,1.7-8.8,3.1-13.4,4.3c-1.5,0.2-2.1,0.6-2.1,1.1c-0.1,0.4-0.2,0.8-0.2,1.1c-0.3,0.7-0.6,1-0.7,1c-0.5,0-1.1-0.7-1.6-2.3
						l-2-4.8c2.3-0.2,4.4-0.6,6.6-0.9V8.9C5.4,9,4.4,9.1,3.8,9.3L2.3,5.8C5.6,6.3,9,6.6,12.4,6.5h11.5l1.8-1.8
						c0.8-0.9,1.3-1.4,1.6-1.4c0.6,0,1.5,0.7,2.7,2c0.7,0.7,1.3,1.5,1.8,2.4c0,0.7-0.3,1.1-0.9,1.1h-6.6V29h18.5
						c1.8-4.6,3.2-9.4,4.1-14.3c1.1,0.4,2.3,0.8,3.5,1c2.1,0.7,3.2,1.1,3.2,1.6c0,0.3-0.4,0.6-1.1,0.7c-0.6,0-1.1,0.3-1.4,0.8
						c-1.7,3.6-3.9,7-6.3,10.1h21.6c0.7-0.6,1.4-1.3,2-2c1-1,1.7-1.6,2.1-1.6s1.6,0.9,3.5,2.6c1.1,1.1,1.7,1.8,1.7,2.1
						c0,0.8-0.3,1.1-1,1.1L56.5,31.2L56.5,31.2z M62.9,52.1l0.5-1.1c2-5.2,3.5-10.6,4.4-16.1l4.8,2.2c1.6,0.8,2.5,1.5,2.5,2
						s-0.7,0.7-2,0.7c-0.9,0-1.5,0.2-1.6,0.7C70,45.7,68,50.8,65.6,55.8L64.3,58l-2.7,4.1c-1,1.4-2.1,2.7-3.2,3.9
						c-3,3.2-6.5,5.9-10.4,7.9l-0.9-1.3c3.8-3,7.3-6.4,10.2-10.3c1-1.4,2-3,2.9-4.5L62.9,52.1z M20,21.6V8.7h-9.3v12.9L20,21.6z
						 M20,36.9V23.8h-9.3v13.1L20,36.9z M20,54V39.2h-9.3v16.5L20,54z M38.3,10.7h9.4L49.4,9c0.8-0.7,1.3-1.1,1.5-1.1
						c0.5,0,1.4,0.7,2.5,1.8c0.7,0.6,1.2,1.4,1.6,2.2c0,0.7-0.3,1.1-0.8,1.1h-16c-2.9-0.1-5.7,0.1-8.5,0.6l-1.6-3.5
						C31.5,10.5,34.9,10.8,38.3,10.7L38.3,10.7z M35.1,38.5h9.8l1.7-1.9c0.5-0.5,0.9-0.8,1.2-0.8c1,0.3,1.9,0.8,2.6,1.5
						c1.1,1.1,1.8,1.8,1.8,2.1c0,0.5-0.3,0.9-1,1.3c-0.4,0.3-0.7,0.8-0.7,1.4v20.5c0,1.6,0.1,3.2,0.3,4.8c0,0.4-0.3,0.7-0.9,1
						c-0.9,0.2-1.7,0.4-2.6,0.4c-0.7,0-1-0.4-1-1.2v-1.8H35.1v5.7c0,0.3-0.3,0.7-0.8,0.8c-0.7,0.2-1.5,0.4-2.3,0.4
						c-1,0-1.4-0.4-1.4-1.2c0.2-1.4,0.3-2.7,0.3-4.1V42c0-1.8-0.2-3.7-0.3-5.6C32.1,37,33.6,37.7,35.1,38.5L35.1,38.5z M37.6,20.4
						c0.9,1.3,1.5,2.9,1.6,4.5c0,0.7-0.3,1.4-0.7,2c-0.4,0.5-1,0.9-1.6,1c-1.1,0-2-0.7-2.4-2.4C34.1,22.2,33.2,19,32,16l0.7-0.7
						C34.7,16.7,36.3,18.4,37.6,20.4L37.6,20.4z M46.3,50.3v-9.6H35.1v9.6H46.3z M46.3,63.5V52.6H35.1v10.8L46.3,63.5z M42.5,3.6
						c0.9,0.6,1.5,1.6,1.6,2.7c0,0.8-0.2,1.6-0.7,2.3c-0.3,0.5-0.9,0.9-1.6,1c-1.2,0-2.1-0.8-2.6-2.6c-0.5-2-1.5-3.9-2.8-5.6
						l0.7-0.7C39.1,1.3,40.9,2.3,42.5,3.6L42.5,3.6z M70.6,13.3c1.3,1.8,2,3.9,2.1,6.1c0,0.8-0.3,1.6-0.7,2.3
						c-0.3,0.5-0.9,0.9-1.5,1c-1.3,0-2.2-0.8-2.7-2.6c-0.8-4.5-2.3-8.7-4.7-12.6l0.7-0.7C66.5,8.5,68.7,10.7,70.6,13.3L70.6,13.3z"
						/>
					<path id="パス_43866" class="st10" d="M75.1,70.3L75,70.2c-0.5-0.4-0.7-1-0.6-1.7c0-0.6,0.1-1.1,0.2-1.7
						c0-0.2,0.1-0.5,0.1-0.7c0.1-0.7,0.2-1.7,0.4-2.8c0.7-5.1,0.7-5.8,0.5-6.2c-0.2-0.5-0.9-0.6-1.3-0.7l-0.2,0c-0.1,0-0.3,0-0.4,0
						l-0.2,0.2l-0.1,0.2c-0.4,1.2-0.8,2.3-1.1,3.5c-0.5,1.8-2,6.2-2.6,6.9l0,0c-0.3-0.3-1.2-1.5-3.3-7c-0.3-0.7-0.5-1.3-0.6-2
						l-1.4-5.9c-0.5-2.6-0.9-5.2-1.2-8.2c-0.3-2.4-0.6-6.5-0.8-12.7l-0.1-2.2c-0.2-6.4-0.2-14.5-0.2-24.3c0-0.3,0.1-0.6,0.9-0.9
						c1.2-0.4,1.7-1,1.7-1.7c0-1.1-1.6-1.4-3.1-1.5L55.6,0l0.1,0.7c0.3,2.1,0.5,4.1,0.5,6.2c0,7.2,0,15.5,0.4,22.4l0.1,2.2
						c0.2,5.5,0.6,10.1,1.2,13.8c0.3,2.8,0.8,5.6,1.4,8.3c0.6,3.1,1.5,6.1,2.7,9c1.2,3.5,3,6.8,5.2,9.7c1.9,2.5,3.5,3.7,5,3.7
						c2.4,0,3.8-1.2,4-3.5C76,71.8,75.6,71,75.1,70.3z"/>
				</g>
			</g>
		</g>
		<g id="グループ_773" transform="translate(800.501 299.294)">
			<g id="グループ_771" transform="translate(1 0)">
				<g transform="matrix(1, 0, 0, 1, -393.66, -117.66)" class="st11">
					<path id="パス_43849-2_1_" class="st10" d="M397.5,156.2c-0.4,1-1.4,1.7-2.5,1.7c-0.7,0-1.3-0.6-1.3-1.3c0-0.2,0-0.3,0.1-0.5
						c1-4.1,3.9-12.8,6.1-16.3c1.2-2,2.5-1.7,3.3-0.4c0.8,1.4,0.5,3.5-0.2,5.1C401.3,148.6,399.5,152.5,397.5,156.2z"/>
				</g>
				<g transform="matrix(1, 0, 0, 1, -393.66, -117.66)" class="st12">
					<path id="パス_43850-2_1_" class="st10" d="M438.5,152c-1.7,6-9.8,18.8-21.7,29.2c2.1-0.9,4.2-1.6,6.5-2.1
						c4.2-0.8,6.9,0.2,8.3,2.6c0.6,0.9,0.6,1.6-1.2,2c-4.2,0.8-13.8,4.3-17.9,6.4c-2.2,1.1-3.5,1-4.7,0.2c-1.1-0.8-2-1.9-2.6-3
						c-0.9-1.4-0.8-2.3,0.8-3.8c15.7-13.7,28.6-32.5,27.2-40.1c-0.4-2.2-1.9-2.9-2.8-2.7c-3,0.6-6.4,7.2-7.8,10.6
						c-1.8,4.2-3.4,6.3-7.3,6.8c-1.7,0.2-1.9-0.1-1.7-1.5c0.6-3.8,3.7-12.9,9.4-17.3c1.4-1.2,3.2-1.9,5-2.3c2.5-0.5,5.1,0,7.2,1.4
						c2.2,1.3,3.7,3.5,4.2,6.1C439.5,147,439.3,149.6,438.5,152z"/>
				</g>
				<g transform="matrix(1, 0, 0, 1, -393.66, -117.66)" class="st13">
					<path id="パス_43851-2_1_" class="st10" d="M459.9,130.3c2.4-0.4,4.1-0.5,6.2,0.8c4.1,1.5,7.6,5.6,8.6,10.9
						c0.9,5.8,0.5,11.8-1.1,17.5c-2.9,10.5-8.8,20.1-17.3,21.7c-1.7,0.4-3.4,0.4-5,0c-5.6-1.4-9.8-5.9-10.8-11.5
						c-2.8-15.2,7.5-32.1,14.8-37.5C456.6,131.2,458.2,130.6,459.9,130.3z M466.4,158.6c1.9-7.2,2.2-13.6,1.4-18
						c-0.7-3.8-2.1-6.2-3.7-6.4c-3.4-0.6-10.6,6.6-14.9,18.5c-2.3,6.6-2.8,12.9-1.9,17.7c0.8,4.1,2.5,6.8,4.5,7.3
						C456.4,177.9,463.2,170.4,466.4,158.6L466.4,158.6z"/>
				</g>
				<g transform="matrix(1, 0, 0, 1, -393.66, -117.66)" class="st14">
					<path id="パス_43852-2_1_" class="st10" d="M508.6,138.9c-1.7,6-9.8,18.8-21.7,29.2c2.1-0.9,4.2-1.6,6.5-2.1
						c4.2-0.8,6.9,0.2,8.3,2.6c0.6,0.9,0.6,1.6-1.2,2c-4.2,0.8-13.8,4.3-17.9,6.4c-2.2,1.1-3.5,1-4.7,0.2c-1.1-0.8-2-1.9-2.6-3
						c-0.9-1.4-0.8-2.3,0.8-3.8c15.7-13.7,28.6-32.5,27.1-40.1c-0.4-2.2-1.9-2.9-2.8-2.7c-3,0.6-6.4,7.2-7.8,10.6
						c-1.8,4.2-3.4,6.3-7.3,6.8c-1.7,0.2-1.9-0.1-1.7-1.5c0.6-3.8,3.7-12.9,9.4-17.3c1.4-1.2,3.2-1.9,5-2.3c2.5-0.5,5.1,0,7.2,1.4
						c2.2,1.3,3.7,3.5,4.2,6.1C509.6,133.9,509.4,136.5,508.6,138.9z"/>
				</g>
				<g transform="matrix(1, 0, 0, 1, -393.66, -117.66)" class="st15">
					<path id="パス_43853-2_1_" class="st10" d="M541.2,132.9c-1.7,6-9.8,18.8-21.7,29.2c2.1-0.9,4.2-1.6,6.5-2.1
						c4.2-0.8,6.9,0.2,8.3,2.6c0.6,0.9,0.6,1.6-1.2,2c-4.2,0.8-13.8,4.3-17.9,6.4c-2.2,1.1-3.5,1-4.7,0.2c-1.1-0.8-2-1.9-2.6-3
						c-0.9-1.4-0.8-2.3,0.8-3.8c15.7-13.7,28.6-32.5,27.1-40.1c-0.4-2.2-1.9-2.9-2.8-2.7c-3,0.6-6.4,7.2-7.8,10.6
						c-1.8,4.2-3.4,6.3-7.3,6.8c-1.7,0.2-1.9-0.1-1.7-1.5c0.6-3.8,3.7-12.9,9.4-17.3c1.4-1.2,3.2-1.9,5-2.3c2.5-0.5,5.1,0,7.2,1.4
						c2.2,1.3,3.7,3.5,4.2,6.1C542.2,127.9,542,130.5,541.2,132.9z"/>
				</g>
			</g>
		</g>
		<text transform="matrix(1 0 0 1 611.858 356.95)" class="st0"><tspan x="0" y="0" class="st1 st16 st17 st18">#2022年</tspan><tspan x="78.1" y="0" class="st1 st19 st17 st18"> </tspan><tspan x="84.6" y="0" class="st1 st16 st17 st18">#求人特集</tspan></text>
	</g>
	<path id="パス_43868" class="st20" d="M464.7,211.5l-0.5-4.6c0,0,12.1-4.2,17.3,6.1c5.3,10.3-4.8,14.6-4.8,14.6
		c-2.7,1-5.6,1-8.3,0.1c-3-1.1-5.6-3-7.4-5.6c-0.9-1.4-1.5-3.1-1.8-4.7c-0.1-1.9,0.1-3.7,0.7-5.5L464.7,211.5z"/>
</g>
</svg>
