<svg xmlns="http://www.w3.org/2000/svg" xmlns:xlink="http://www.w3.org/1999/xlink" width="547.472" height="195.476" viewBox="0 0 547.472 195.476">
  <defs>
    <filter id="パス_43849" x="393.658" y="138.464" width="15.431" height="24.014" filterUnits="userSpaceOnUse">
      <feOffset dx="4" dy="3" input="SourceAlpha"/>
      <feGaussianBlur stdDeviation="0.5" result="blur"/>
      <feFlood flood-color="#5e7e7b" flood-opacity="0.624"/>
      <feComposite operator="in" in2="blur"/>
      <feComposite in="SourceGraphic"/>
    </filter>
    <filter id="パス_43850" x="404.452" y="136.807" width="40.33" height="58.669" filterUnits="userSpaceOnUse">
      <feOffset dx="4" dy="3" input="SourceAlpha"/>
      <feGaussianBlur stdDeviation="0.5" result="blur-2"/>
      <feFlood flood-color="#5e7e7b" flood-opacity="0.624"/>
      <feComposite operator="in" in2="blur-2"/>
      <feComposite in="SourceGraphic"/>
    </filter>
    <filter id="パス_43851" x="439.901" y="129.975" width="40.726" height="55.893" filterUnits="userSpaceOnUse">
      <feOffset dx="4" dy="3" input="SourceAlpha"/>
      <feGaussianBlur stdDeviation="0.5" result="blur-3"/>
      <feFlood flood-color="#5e7e7b" flood-opacity="0.624"/>
      <feComposite operator="in" in2="blur-3"/>
      <feComposite in="SourceGraphic"/>
    </filter>
    <filter id="パス_43852" x="474.605" y="123.73" width="40.329" height="58.669" filterUnits="userSpaceOnUse">
      <feOffset dx="4" dy="3" input="SourceAlpha"/>
      <feGaussianBlur stdDeviation="0.5" result="blur-4"/>
      <feFlood flood-color="#5e7e7b" flood-opacity="0.624"/>
      <feComposite operator="in" in2="blur-4"/>
      <feComposite in="SourceGraphic"/>
    </filter>
    <filter id="パス_43853" x="507.143" y="117.664" width="40.329" height="58.67" filterUnits="userSpaceOnUse">
      <feOffset dx="4" dy="3" input="SourceAlpha"/>
      <feGaussianBlur stdDeviation="0.5" result="blur-5"/>
      <feFlood flood-color="#5e7e7b" flood-opacity="0.624"/>
      <feComposite operator="in" in2="blur-5"/>
      <feComposite in="SourceGraphic"/>
    </filter>
  </defs>
  <g id="mv-ttl" transform="translate(-403.108 -143.116)">
    <g id="グループ_778" data-name="グループ 778" transform="translate(-4.734 -38.515)">
      <g id="グループ_770" data-name="グループ 770" transform="translate(392.366 173.901)">
        <text id="理学療法士" transform="translate(217.387 59.551)" fill="#2b2f2f" stroke="#2b2f2f" stroke-miterlimit="10" stroke-width="0.5" font-size="51" font-family="HiraMinProN-W3, Hiragino Mincho ProN" letter-spacing="0.02em"><tspan x="0" y="0">理学療法士</tspan></text>
        <text id="の" transform="translate(476.595 60.551)" fill="#2b2f2f" stroke="#2b2f2f" stroke-miterlimit="10" stroke-width="0.5" font-size="34" font-family="HiraMinProN-W3, Hiragino Mincho ProN"><tspan x="0" y="0">の</tspan></text>
        <path id="パス_43862" data-name="パス 43862" d="M533.206,236.065l-.014-.06.042.191C533.225,236.153,533.216,236.11,533.206,236.065Z" transform="translate(-280.455 -134.161)" fill="none"/>
        <path id="パス_43863" data-name="パス 43863" d="M532.911,234.756l-.007.015c.015.06.031.116.046.177C532.939,234.886,532.921,234.82,532.911,234.756Z" transform="translate(-280.569 -134.655)" fill="none"/>
        <g id="グループ_774" data-name="グループ 774" transform="translate(10.544 7.729)">
          <path id="パス_43856" data-name="パス 43856" d="M490.537,210.167h43.336c.9,0,2.3-.729,2.3-1.695a2.363,2.363,0,0,0-.547-1.319c-.077-.115-.161-.24-.244-.376l-1.841-1.7c-4.211-3.78-6.528-5.862-10.2-9.082a5.412,5.412,0,0,0-4.085-1.309,5.313,5.313,0,0,0-3.735,2.078c-1.147,1.5-2.114,2.788-3.3,4.366-.707.942-1.493,1.99-2.443,3.247H467.761a151.66,151.66,0,0,0,6.064-18.538h66.485c.738,0,2.468,0,2.468-1.695a3.949,3.949,0,0,0-.622-1.693l-3.315-3.035c-3.575-3.229-5.877-5.308-9.362-8.384a5.392,5.392,0,0,0-7.744.637c-1.905,2.347-3.258,4.176-5.717,7.494l-.659.89H475.214c.744-3.238,1.391-6.074,2.567-11.511,6.637-1.946,8.077-2.62,8.077-4.851,0-2.636-.738-2.773-19.641-6.292l-1.845-.343-.05.877a121.613,121.613,0,0,1-2.9,22.12h-36.3c-6.905,0-9.642-.156-14.471-1.2a2.033,2.033,0,0,0-1.861.539,2.289,2.289,0,0,0-.659,2.051l.583,3.352a2.162,2.162,0,0,0,2.31,1.816,111.35,111.35,0,0,1,12.066-.777h36.967a149.161,149.161,0,0,1-5.5,18.538H429.016c-6.115,0-8.8-.127-12.681-.88a2.042,2.042,0,0,0-1.828.557,2.291,2.291,0,0,0-.655,2.018l.459,2.83a2.151,2.151,0,0,0,2.325,1.844,72.322,72.322,0,0,1,10.007-.581h25.6a147.9,147.9,0,0,1-9.778,19.642H414.277c-8.25,0-10.476-.156-14.883-1.055a2.035,2.035,0,0,0-1.829.536,2.3,2.3,0,0,0-.674,2.015l.479,3.122a2.266,2.266,0,0,0,.891,1.487,2.008,2.008,0,0,0,1.52.365A63.991,63.991,0,0,1,411.4,235.6h27.538c-11.955,18-40.364,46.207-60.049,61.812a2.483,2.483,0,0,0-.628,3.064,2.237,2.237,0,0,0,1.327,1.116,2.156,2.156,0,0,0,.65.1,2.206,2.206,0,0,0,1.034-.259c18.311-9.644,36.615-27.119,48.747-40.081,11.948-12.769,20.419-23.787,21.913-25.753H552.165c1.333,0,2.3-.715,2.3-1.7a4.046,4.046,0,0,0-.792-1.879l-2.247-2.176c-4.082-3.892-6.331-6.037-10.136-9.37a5.418,5.418,0,0,0-4.068-1.309,5.333,5.333,0,0,0-3.738,2.056c-1.116,1.441-2.088,2.709-3.216,4.18-.954,1.246-2.021,2.639-3.384,4.407H455.6a170.667,170.667,0,0,0,9.841-19.642h25.1Z" transform="translate(-373.048 -157.059)" fill="#2b2f2f"/>
          <path id="パス_43857" data-name="パス 43857" d="M488.963,237.911a3.239,3.239,0,0,0-1.056-2.018c-3.3-3.188-4.787-4.5-7.484-6.874l-.853-.754a2.228,2.228,0,0,0-3.279.341l-2.319,3H436.386l-.716-.465c-1.864-1.211-3.726-2.422-5.6-3.6a12.367,12.367,0,0,0-2.648-1.354,2.975,2.975,0,0,0-4.027,1.765,3.723,3.723,0,0,0-.155,2.178,5.257,5.257,0,0,1,.079.7c.324,12.955.324,12.955.324,19.695,0,10.151-.2,22.1-.809,49.2A2.328,2.328,0,0,0,425.5,302.3a39,39,0,0,0,8.165-.929c1.379-.5,1.775-1.622,1.954-3.241v-4.712h39.1v5.777a2.64,2.64,0,0,0,2.488,2.748c2.811-.009,7.482-.306,9-.929,1.338-.489,1.79-1.218,1.788-2.937-.818-13.645-1.289-34.33-1.293-56.8C488.475,239.49,488.963,238.957,488.963,237.911Zm-53.346,20.166V237.286h39.1v20.791Zm39.1,5.677V287.74h-39.1V263.753Z" transform="translate(-352.366 -125.284)" fill="#2b2f2f"/>
          <path id="パス_43858" data-name="パス 43858" d="M451.375,194.4s1.5-5.728,5.957,0c0,0,6.872,19.069,25.938,35.947,0,0,19.27,19.535,47.87,24.9l.693.172-.259,5.356s-7.718.218-10.91,4.883a68.549,68.549,0,0,0-4.806,7.3,127.982,127.982,0,0,1-38.652-33.462S459.3,219.946,451.375,194.4Z" transform="translate(-340.818 -136.118)" fill="#fe8fb0"/>
        </g>
        <g id="グループ_776" data-name="グループ 776" transform="translate(209.985 74.671)">
          <g id="グループ_775" data-name="グループ 775" transform="translate(172.162 3.109)">
            <path id="パス_43860" data-name="パス 43860" d="M636.58,230.966q2.46.67,2.459,1.341c0,.448-.522.671-1.49.745a1.958,1.958,0,0,0-1.267.6c-.6,2.088-1.118,3.877-1.64,5.441h5.814V228.655c0-2.608-.149-4.919-.3-6.856,1.341.149,2.981.3,5.069.6,1.341.3,2.086.522,2.086.821,0,.67-.522,1.192-1.565,1.49-.821.223-1.193.6-1.193,1.192V239.09h4.1a10.438,10.438,0,0,0,1.64-1.49c.744-.819,1.341-1.267,1.638-1.267s1.267.745,2.833,2.162a6.991,6.991,0,0,1,1.416,1.64c0,.745-.3,1.044-.821,1.044H644.555v15.876c3.876-1.044,7.6-2.162,11.329-3.5l.3.521a121.419,121.419,0,0,1-11.628,5.889v21.689c0,1.938.075,4.174.3,6.559,0,.447-.3.745-.895,1.044a10.409,10.409,0,0,1-2.46.373,1.218,1.218,0,0,1-1.341-1.193c.149-2.459.3-4.7.3-6.783V261.6c-2.683,1.044-5.292,2.012-7.976,2.833q-2.236.448-2.236,1.341a3.857,3.857,0,0,0-.149,1.044c-.3.671-.6.969-.745.969-.522,0-1.044-.67-1.64-2.16l-1.789-4.547c4.919-.747,9.765-1.789,14.535-2.982V241.178H633.9c-.448,1.192-.821,2.16-1.193,2.981a46.153,46.153,0,0,1-5.665,9.689l-.819-1.044q1.453-3.578,3.354-10.062a117.831,117.831,0,0,0,2.534-13.118A36.14,36.14,0,0,0,636.58,230.966Zm27.949,2.012h5.218v-7.23a30.4,30.4,0,0,0-.3-3.652c1.415.149,3.2.373,5.44.671,1.49.223,2.236.522,2.236.819q0,.9-1.788,1.566c-.821.3-1.193.671-1.193,1.267v6.559h8.273c.3-.3.97-.969,1.938-2.088.895-1.042,1.415-1.564,1.714-1.564.6,0,1.49.745,2.833,2.162,1.267,1.417,1.937,2.236,1.937,2.534,0,.745-.371,1.042-.969,1.042H674.145V246.99h10.733l2.011-2.236c.895-1.042,1.492-1.64,1.789-1.64.671,0,1.715.747,3.056,2.162a11.613,11.613,0,0,1,2.012,2.684c0,.745-.373,1.044-.968,1.044h-31.6a44.121,44.121,0,0,0-7.826.521l-1.341-3.2a46.968,46.968,0,0,0,9.168.67h8.572V235.065h-5.218a46,46,0,0,0-7.825.448l-1.342-3.206A46.834,46.834,0,0,0,664.529,232.979Zm-2.384,26.833h15.428v-5.292c0-.671-.075-1.938-.225-3.877l5.293.6c1.415.223,2.16.522,2.16.895,0,.6-.6.968-1.638,1.267-.821.3-1.193.745-1.193,1.267v5.143h2.758a26.844,26.844,0,0,0,1.937-2.162c.895-.97,1.417-1.49,1.715-1.49.6,0,1.564.745,2.832,2.086,1.267,1.417,1.938,2.236,1.938,2.534,0,.745-.3,1.044-.895,1.044H681.971v21.689a5.083,5.083,0,0,1-2.162,4.622,10.138,10.138,0,0,1-4.4,1.49c-1.044,0-1.715-.671-1.863-1.863-.3-1.193-3.5-2.46-9.466-3.652l.373-1.492c6.113.745,9.988,1.193,11.776,1.193.895,0,1.343-.522,1.343-1.49v-20.5H662.146a43.564,43.564,0,0,0-7.752.522l-1.417-3.206A46.856,46.856,0,0,0,662.146,259.811Zm2.758,9.763a8.068,8.068,0,0,1,2.384,5.143,3.273,3.273,0,0,1-.67,2.012,1.834,1.834,0,0,1-1.416.969c-1.118,0-1.937-.744-2.385-2.385a27.628,27.628,0,0,0-5.738-10.658l.67-.671A25.332,25.332,0,0,1,664.9,269.575Z" transform="translate(-625.921 -221.799)" fill="#2b2f2f"/>
            <path id="パス_43861" data-name="パス 43861" d="M697.579,222.991c1.492.448,2.311.895,2.311,1.267,0,.448-.447.671-1.341.745a3.2,3.2,0,0,0-1.267.6,43.046,43.046,0,0,1-3.13,5.067h19.825a3.673,3.673,0,0,1-.819-1.714,14.481,14.481,0,0,0-4.174-6.113l.67-.745a23.041,23.041,0,0,1,6.634,3.13,4.085,4.085,0,0,1,1.938,3.056,5.285,5.285,0,0,1-.522,2.311l-.075.074h17.143a16.375,16.375,0,0,0,1.863-1.789c.895-.969,1.492-1.49,1.863-1.49s1.417.821,3.206,2.385c1.042,1.044,1.564,1.715,1.564,1.938,0,.67-.3.969-.893.969H717.109v7.006H731.12c.3-.3.969-.893,2.013-1.937.895-1.044,1.49-1.566,1.863-1.566s1.492.895,3.355,2.534c1.118,1.118,1.714,1.789,1.714,2.012a.867.867,0,0,1-.97.97H717.109v6.111h14.31c.3-.223.969-.895,2.012-1.938.893-.969,1.491-1.49,1.863-1.49s1.49.895,3.354,2.534c1.118,1.044,1.715,1.715,1.715,1.938,0,.745-.374,1.044-.97,1.044H717.109V256.9H734.7c.3-.3,1.042-.969,2.086-2.162.969-1.044,1.64-1.64,2.012-1.64q.672,0,3.578,2.684c1.192,1.118,1.788,1.788,1.788,2.086a.912.912,0,0,1-1.043,1.044H692.809v2.907a1.016,1.016,0,0,1-.819.969,4.8,4.8,0,0,1-2.012.373c-.895,0-1.267-.373-1.267-1.118.149-1.789.3-3.726.3-5.665V236.705a54.051,54.051,0,0,1-8.721,6.932l-.745-1.042a53.065,53.065,0,0,0,7.677-9.02,50.849,50.849,0,0,0,6.111-11.776C694.972,222.321,696.387,222.694,697.579,222.991Zm-5.962,44.05h19.975v-.6c0-2.534-.148-4.845-.3-6.782l4.995.522c1.341.3,2.086.6,2.086.895,0,.67-.522,1.192-1.564,1.49-.819.223-1.193.6-1.193,1.118v3.354h20.871l2.011-2.162c.895-1.042,1.49-1.638,1.715-1.638.671,0,1.714.744,3.055,2.16,1.343,1.492,2.088,2.385,2.088,2.684a.913.913,0,0,1-1.044,1.044H717.48a44.191,44.191,0,0,0,13.192,6.707,76.571,76.571,0,0,0,15.8,3.578l-.3.969a5.127,5.127,0,0,0-3.652,2.758c-.447,1.044-.819,1.566-1.192,1.566-.968,0-3.355-.821-7.081-2.385a48.691,48.691,0,0,1-10.807-5.814,33.307,33.307,0,0,1-7.826-7.006v12.148c0,1.938.075,4.174.3,6.559,0,.447-.3.745-.819,1.044a11.6,11.6,0,0,1-2.534.373,1.2,1.2,0,0,1-1.269-1.193c.151-2.459.3-4.7.3-6.783v-9.987a55.142,55.142,0,0,1-12,7.974,85.735,85.735,0,0,1-17.442,6.187l-.895-.821a108.1,108.1,0,0,0,15.8-7.229,58.518,58.518,0,0,0,10.881-8.646H691.617a45.639,45.639,0,0,0-7.752.447l-1.415-3.13A48.04,48.04,0,0,0,691.617,267.04Zm21.391-34.36h-20.2v7.006h20.2Zm0,9.02h-20.2v6.111h20.2Zm0,8.2h-20.2V256.9h20.2Z" transform="translate(-604.71 -221.799)" fill="#2b2f2f"/>
          </g>
          <g id="グループ_769" data-name="グループ 769" transform="translate(0 2.513)">
            <path id="パス_43864" data-name="パス 43864" d="M572.436,283.321a59.606,59.606,0,0,1-14.621-10.557l-.013-.011c-7.627-7.3-13.836-21.111-18.461-41.066-1.823-6.463-5.423-10.9-10.7-13.2l-.339-.147-5.017,5.33H524.5c1.605,0,3.56.978,5.963,2.982a33.552,33.552,0,0,1,3.933,5.466l.018.036a44.231,44.231,0,0,1,3.34,9.243l.357,1.548,0-.007c.017.073.034.147.049.222l.515-.1h0l-.484.243c.08.373.159.749.236,1.144,3.348,16.413,9.452,29.385,18.123,38.532,3.672,4.354,6.756,6.639,9.5,6.988,1.224,0,2-.936,2.3-2.783a3.615,3.615,0,0,1,3.189-1.479h.332l1.009-2.144Z" transform="translate(-494.359 -218.335)" fill="#fe8fb0"/>
            <path id="パス_43865" data-name="パス 43865" d="M539.591,230.182c-.533.027-.9,1.428-1.168,2.187q-.482,1.369-.985,2.733-1.007,2.717-2.111,5.4a114.27,114.27,0,0,1-4.953,10.5,121.613,121.613,0,0,1-13.224,19.631A134.167,134.167,0,0,1,502.558,285.7l1.312,1.312a128.535,128.535,0,0,0,19.012-18.275,82.469,82.469,0,0,0,8-9.875c2.375-3.381,4.57-6.887,6.646-10.46q1.742-3,3.376-6.058c.876-1.637,2.113-3.285,1.584-5.217q-.274-1.007-.587-2.005a37.872,37.872,0,0,0-1.518-4.043C540.082,230.415,539.821,230.17,539.591,230.182Z" transform="translate(-502.558 -213.649)" fill="#2b2f2f"/>
          </g>
          <g id="グループ_777" data-name="グループ 777" transform="translate(85.78)">
            <path id="パス_43859" data-name="パス 43859" d="M618.028,247.531H585.739v21.8c1.557-.327,3.115-.737,4.59-1.147l.409.9c-1.637.821-3.359,1.64-5,2.294v13.03c0,1.638,0,3.688.165,5.983,0,.409-.328.737-.9,1.065a9.645,9.645,0,0,1-2.375.41c-.9,0-1.312-.41-1.312-1.23a59.925,59.925,0,0,0,.246-6.228V273.1a134.678,134.678,0,0,1-13.358,4.343c-1.475.246-2.13.574-2.13,1.065a4.258,4.258,0,0,0-.165,1.147q-.49.984-.737.984c-.491,0-1.065-.738-1.64-2.294l-1.966-4.753c2.294-.246,4.425-.574,6.556-.9V225.241c-1.148.163-2.131.246-2.786.409l-1.477-3.524a51.491,51.491,0,0,0,10.08.738h11.473l1.8-1.8c.819-.9,1.31-1.393,1.557-1.393q.86,0,2.7,1.966a9.393,9.393,0,0,1,1.8,2.377c0,.737-.328,1.065-.9,1.065h-6.639v20.241H604.26a82.37,82.37,0,0,0,4.1-14.258,21.523,21.523,0,0,0,3.525.982c2.13.656,3.195,1.149,3.195,1.64,0,.328-.409.574-1.146.738a1.844,1.844,0,0,0-1.393.818,56.687,56.687,0,0,1-6.311,10.08h21.552a16.275,16.275,0,0,0,1.968-2.049c.984-.982,1.721-1.557,2.131-1.557s1.556.9,3.524,2.622c1.147,1.149,1.721,1.8,1.721,2.05,0,.819-.328,1.147-.984,1.147h-18.11Zm6.474,20.9.491-1.146a86.732,86.732,0,0,0,4.425-16.063l4.834,2.212c1.64.821,2.541,1.477,2.541,1.968s-.738.737-2.049.737c-.9,0-1.476.246-1.64.656a104.182,104.182,0,0,1-5.9,15.325l-1.31,2.212-2.7,4.1a41.382,41.382,0,0,1-3.2,3.934,36.321,36.321,0,0,1-10.408,7.867l-.9-1.31a52.941,52.941,0,0,0,10.163-10.326,47.3,47.3,0,0,0,2.868-4.508Zm-42.942-30.485V225.076H572.3v12.866Zm0,15.325V240.156H572.3v13.111Zm0,17.045V255.561H572.3v16.472Zm18.275-43.268h9.423l1.722-1.721c.819-.738,1.31-1.149,1.475-1.149.491,0,1.393.656,2.54,1.8a8.008,8.008,0,0,1,1.638,2.213c0,.737-.328,1.065-.819,1.065H599.836a47.951,47.951,0,0,0-8.524.574l-1.556-3.524A51.6,51.6,0,0,0,599.836,227.044Zm-3.2,27.863h9.754l1.719-1.885c.493-.491.9-.819,1.229-.819a6.622,6.622,0,0,1,2.622,1.475c1.149,1.065,1.8,1.8,1.8,2.13,0,.493-.326.9-.982,1.312a1.964,1.964,0,0,0-.738,1.393V279a39.471,39.471,0,0,0,.328,4.752c0,.41-.328.738-.9.984a11.453,11.453,0,0,1-2.622.41q-.984,0-.984-1.23v-1.8H596.638v5.655c0,.328-.326.656-.819.819a9.061,9.061,0,0,1-2.294.409c-.984,0-1.393-.409-1.393-1.228a33.313,33.313,0,0,0,.328-4.1V258.348c0-1.8-.165-3.687-.328-5.573A43.9,43.9,0,0,1,596.638,254.907Zm2.541-18.193a8.3,8.3,0,0,1,1.557,4.506,3.75,3.75,0,0,1-.656,1.968,2.386,2.386,0,0,1-1.64.982c-1.147,0-1.966-.737-2.375-2.377a40.074,40.074,0,0,0-2.459-9.424l.738-.655A18.192,18.192,0,0,1,599.18,236.714Zm8.686,29.992v-9.588H596.638v9.588Zm0,13.113V269H596.638v10.817Zm-3.769-59.9a4.087,4.087,0,0,1,1.64,2.7,4.647,4.647,0,0,1-.656,2.294,2.106,2.106,0,0,1-1.557.982c-1.229,0-2.13-.819-2.622-2.622a15.491,15.491,0,0,0-2.787-5.573l.656-.737A18.036,18.036,0,0,1,604.1,219.914Zm28.027,9.752a11.11,11.11,0,0,1,2.13,6.064,4.018,4.018,0,0,1-.737,2.294,1.984,1.984,0,0,1-1.475.984c-1.31,0-2.212-.821-2.7-2.622a36.248,36.248,0,0,0-4.671-12.62l.738-.738A25.788,25.788,0,0,1,632.124,229.666Z" transform="translate(-561.565 -216.364)" fill="#2b2f2f"/>
            <path id="パス_43866" data-name="パス 43866" d="M620.912,286.861l-.1-.116a1.989,1.989,0,0,1-.636-1.651,13.136,13.136,0,0,1,.153-1.7c.032-.247.064-.493.092-.735.074-.681.209-1.715.356-2.834.663-5.06.708-5.821.53-6.157-.247-.475-.867-.585-1.32-.666l-.186-.035a.646.646,0,0,0-.445.039l-.244.174-.067.207q-.58,1.735-1.1,3.485c-.523,1.757-2.028,6.226-2.629,6.863l-.034.034c-.3-.271-1.248-1.5-3.263-7a10.428,10.428,0,0,1-.628-2.044L610,268.85c-.5-2.575-.9-5.242-1.223-8.154-.272-2.378-.636-6.5-.818-12.662l-.081-2.208c-.163-6.357-.246-14.54-.246-24.325,0-.265.07-.575.886-.9,1.151-.421,1.736-1,1.736-1.722,0-1.065-1.564-1.358-3.072-1.5l-5.807-.843.138.721a34.2,34.2,0,0,1,.482,6.212c0,7.223.049,15.533.41,22.392l.081,2.216c.236,5.464.624,10.114,1.15,13.8a76.7,76.7,0,0,0,1.377,8.288,49.717,49.717,0,0,0,2.668,8.964,36.057,36.057,0,0,0,5.235,9.722c1.884,2.511,3.522,3.732,5.009,3.732,2.4,0,3.776-1.185,3.965-3.472A4.786,4.786,0,0,0,620.912,286.861Z" transform="translate(-545.815 -216.534)" fill="#fe8fb0"/>
          </g>
        </g>
      </g>
      <g id="グループ_773" data-name="グループ 773" transform="translate(800.501 299.294)">
        <g id="グループ_771" data-name="グループ 771" transform="translate(1 0)">
          <g transform="matrix(1, 0, 0, 1, -393.66, -117.66)" filter="url(#パス_43849)">
            <path id="パス_43849-2" data-name="パス 43849" d="M344.82,165.335a2.752,2.752,0,0,1-2.541,1.746,1.293,1.293,0,0,1-1.2-1.765c.99-4.085,3.9-12.824,6.107-16.34,1.222-1.979,2.476-1.656,3.273-.372.825,1.438.491,3.49-.159,5.124A125.734,125.734,0,0,1,344.82,165.335Z" transform="translate(52.64 -9.1)" fill="#fe8fb0"/>
          </g>
          <g transform="matrix(1, 0, 0, 1, -393.66, -117.66)" filter="url(#パス_43850)">
            <path id="パス_43850-2" data-name="パス 43850" d="M384.176,161.367c-1.674,5.963-9.792,18.778-21.7,29.195a38.565,38.565,0,0,1,6.458-2.078c4.153-.775,6.872.151,8.283,2.594.57.928.623,1.635-1.223,1.979-4.23.788-13.76,4.316-17.9,6.441-2.178,1.123-3.466,1.044-4.743.168a10.719,10.719,0,0,1-2.632-3.011c-.9-1.424-.751-2.326.8-3.81,15.665-13.745,28.555-32.543,27.151-40.081-.415-2.229-1.9-2.909-2.819-2.737-3,.559-6.385,7.159-7.811,10.609-1.759,4.226-3.443,6.292-7.332,6.778-1.706.238-1.932-.117-1.714-1.511.557-3.844,3.713-12.948,9.433-17.277a11.172,11.172,0,0,1,4.987-2.284,9.387,9.387,0,0,1,7.193,1.445,8.874,8.874,0,0,1,4.157,6.07A15.4,15.4,0,0,1,384.176,161.367Z" transform="translate(54.29 -9.36)" fill="#fe8fb0"/>
          </g>
          <g transform="matrix(1, 0, 0, 1, -393.66, -117.66)" filter="url(#パス_43851)">
            <path id="パス_43851-2" data-name="パス 43851" d="M400.2,140.666c2.383-.445,4.119-.53,6.189.756,4.094,1.465,7.568,5.592,8.558,10.9a40.686,40.686,0,0,1-1.119,17.48c-2.9,10.489-8.826,20.111-17.287,21.688a11.319,11.319,0,0,1-5.018-.02A14.583,14.583,0,0,1,380.7,179.957c-2.838-15.23,7.466-32.113,14.825-37.465A14.077,14.077,0,0,1,400.2,140.666Zm6.55,28.307c1.919-7.2,2.25-13.552,1.418-18.014-.7-3.768-2.114-6.212-3.738-6.386-3.369-.565-10.553,6.583-14.866,18.451-2.28,6.553-2.764,12.931-1.874,17.7.761,4.077,2.536,6.77,4.54,7.272C396.748,188.346,403.538,180.793,406.747,168.973Z" transform="translate(59.68 -10.4)" fill="#fe8fb0"/>
          </g>
          <g transform="matrix(1, 0, 0, 1, -393.66, -117.66)" filter="url(#パス_43852)">
            <path id="パス_43852-2" data-name="パス 43852" d="M443.648,150.28c-1.674,5.964-9.792,18.778-21.7,29.2a38.57,38.57,0,0,1,6.457-2.08c4.155-.775,6.872.152,8.284,2.594.57.928.623,1.636-1.223,1.979-4.231.789-13.76,4.316-17.9,6.442-2.179,1.123-3.467,1.044-4.744.168a10.715,10.715,0,0,1-2.63-3.012c-.9-1.424-.753-2.326.8-3.811,15.664-13.743,28.555-32.541,27.149-40.08-.415-2.231-1.894-2.909-2.818-2.737-3,.559-6.386,7.158-7.812,10.608-1.759,4.228-3.442,6.292-7.331,6.779-1.707.238-1.932-.118-1.714-1.511.556-3.844,3.713-12.948,9.433-17.279a11.171,11.171,0,0,1,4.987-2.283,9.383,9.383,0,0,1,7.193,1.445,8.873,8.873,0,0,1,4.156,6.069A15.4,15.4,0,0,1,443.648,150.28Z" transform="translate(64.97 -11.35)" fill="#fe8fb0"/>
          </g>
          <g transform="matrix(1, 0, 0, 1, -393.66, -117.66)" filter="url(#パス_43853)">
            <path id="パス_43853-2" data-name="パス 43853" d="M471.232,145.138c-1.674,5.963-9.792,18.779-21.7,29.2a38.428,38.428,0,0,1,6.457-2.08c4.153-.774,6.872.151,8.284,2.594.57.928.623,1.635-1.223,1.979-4.231.789-13.76,4.316-17.9,6.441-2.179,1.124-3.467,1.045-4.744.169a10.733,10.733,0,0,1-2.631-3.011c-.9-1.424-.753-2.327.8-3.811,15.664-13.743,28.555-32.543,27.149-40.08-.415-2.231-1.9-2.909-2.818-2.738-3,.56-6.386,7.16-7.812,10.609-1.758,4.228-3.442,6.293-7.332,6.779-1.706.238-1.931-.118-1.713-1.512.556-3.843,3.713-12.948,9.433-17.277a11.167,11.167,0,0,1,4.987-2.284,9.389,9.389,0,0,1,7.193,1.446,8.873,8.873,0,0,1,4.156,6.07A15.393,15.393,0,0,1,471.232,145.138Z" transform="translate(69.92 -12.27)" fill="#fe8fb0"/>
          </g>
        </g>
      </g>
      <text id="_2022年_求人特集" data-name="#2022年 #求人特集" transform="translate(787.268 356.95)" fill="#2b2f2f" font-size="18" font-family="NotoSansCJKjp-Medium, Noto Sans CJK JP" font-weight="500" letter-spacing="0.1em"><tspan x="-175.41" y="0">#2022年 #求人特集</tspan></text>
    </g>
    <path id="パス_43868" data-name="パス 43868" d="M4.687,6.776,3.264,2.342S14.2-4.255,21.489,4.7,19.82,20.034,19.82,20.034a12.416,12.416,0,0,1-8.146,1.8,15.29,15.29,0,0,1-8.41-3.961A11.7,11.7,0,0,1,.548,13.6,15.674,15.674,0,0,1,.06,8.086Z" transform="matrix(0.978, 0.208, -0.208, 0.978, 461.479, 203.871)" fill="#ffadc6"/>
  </g>
</svg>
