<svg xmlns="http://www.w3.org/2000/svg" width="18" height="18" viewBox="0 0 16.483 15.738">
  <path id="パス_6096" data-name="パス 6096" d="M827.009,142.23a.334.334,0,0,1,.163.04l4.272,2.253-.818-4.774a.348.348,0,0,1,.1-.308l3.453-3.381-4.773-.7a.354.354,0,0,1-.262-.187l-2.137-4.343-2.135,4.343a.343.343,0,0,1-.259.188l-4.774.7,3.455,3.381a.347.347,0,0,1,.1.308l-.815,4.774,4.27-2.253a.333.333,0,0,1,.159-.04" transform="translate(-818.769 -129.701)" fill="#f90" stroke="#f90" stroke-width="1"/>
</svg>
