<svg xmlns="http://www.w3.org/2000/svg" xmlns:xlink="http://www.w3.org/1999/xlink" width="165.399" height="150.585" viewBox="0 0 165.399 150.585">
  <defs>
    <clipPath id="clip-path">
      <rect id="長方形_315" data-name="長方形 315" width="120.119" height="138.524" fill="none"/>
    </clipPath>
  </defs>
  <g id="attention_illust" transform="translate(-4320.843 -1407.4)">
    <g id="グループ_662" data-name="グループ 662" transform="translate(4334.622 1419.461)">
      <g id="グループ_619" data-name="グループ 619" clip-path="url(#clip-path)">
        <path id="パス_603" data-name="パス 603" d="M267.786,11.363c-1.195-1.346-2.788-2.376-4.535-1.944.161-2.818-2.852-3.123-5.665-3.356a28.328,28.328,0,0,0-7.941.764c-2.774.52-6.29-.3-8.207-2.376-.385,1.339-.069,4.116.944,5.073-3.253.236-6.037,2.383-8.349,4.683a24.629,24.629,0,0,1-6.417,5.146c1.512,1.3,2.922,1.629,3.7,3.184a7.348,7.348,0,0,1,.212,2.962l2.139,11.348a1.163,1.163,0,0,0,1.512-.648c1.949-4.087,9.935-13.606,9.935-13.606h15.334l3.671,2.16a33.875,33.875,0,0,0,4.1,9.719l1.092,1.82c1.1-6.088,3.664-11.32,2.364-17.369a26.483,26.483,0,0,0-3.887-7.559" transform="translate(-185.656 -3.631)" fill="#7f7f7f"/>
        <rect id="長方形_314" data-name="長方形 314" width="26.78" height="22.677" transform="translate(52.746 47.502)" fill="#fff"/>
        <path id="パス_604" data-name="パス 604" d="M282.051,277.205h26.78a.935.935,0,0,0,.922-.922V253.607a.935.935,0,0,0-.922-.922h-26.78a.935.935,0,0,0-.922.922v22.677a.922.922,0,0,0,1.843,0V253.607l-.922.922h26.78l-.922-.922v22.677l.922-.922h-26.78a.922.922,0,0,0,0,1.843" transform="translate(-229.305 -206.105)" fill="#323232"/>
        <path id="パス_605" data-name="パス 605" d="M278.126,334c-10.8,0-14.9-7.775-14.9-7.775l-3.456,4.32,14.254,65.871,11.23.648,12.526-63.5-4.535-7.343S288.924,334,278.126,334" transform="translate(-211.882 -266.085)" fill="#fff"/>
        <path id="パス_606" data-name="パス 606" d="M277.5,100.458v0a2.337,2.337,0,0,0-.343.026L275.049,95.6s-2.878-9.523-7.545-11.175c-3.025.972-5.2,1.888-5.2,1.888l-3.888-1.3-1.728.432-8.639,1.08a23.178,23.178,0,0,0-3.24,3.455c-1.4,1.851-.713,9.721-3.024,9.935l-2.729-.029a1.9,1.9,0,0,0-.335.03c-1.646.289-2.08,2.035-2.335,3.454-.6,3.335.787,8.476,4.437,8.958l.814-.1c.585,4.579,1.007,8.421,3.5,12.079a20.061,20.061,0,0,0,4.183,4.378c4.376,3.475,10.762,3.868,15.8,1.615a13.425,13.425,0,0,0,5.121-3.943c2.693-3.369,3.92-8.01,4.79-13.235l.866-.6c2.872.54,5.451-5.27,4.848-8.619-.27-1.5-1.473-3.464-3.248-3.441M254.254,118.52h8.092c-.916,5.432-6.963,5.648-8.092,0" transform="translate(-192.703 -68.858)" fill="#fff"/>
        <path id="パス_607" data-name="パス 607" d="M193.688,360.323a113.446,113.446,0,0,0-11.6-6.075c-3.458-1.564-12.136-3.617-15.594-5.181l-1.4,0-2.957,9.818L146.621,410.4l-.713.209-1.434-4.9-4.982-17.027-6.06-20.714-2.874-9.825-2.654-9.075-1.646.026q-1.727.862-3.481,1.665l.1.209-.1-.209a116.576,116.576,0,0,1-15.634,5.842,21.98,21.98,0,0,0-5.966,2.646c-2.6,1.434-2.009,4.238-2.765,7.111l3.779,54.408,97.277.645-.495-52.481c-.361-2.76-2.9-7.177-5.285-8.611m-71.111-7.1.337-2.157Z" transform="translate(-80.27 -284.719)" fill="#ddd"/>
        <path id="パス_608" data-name="パス 608" d="M259.4,222.34c.554,4.034.834,8.191,2.623,11.917a18.427,18.427,0,0,0,8.043,8.256c6.85,3.4,15.846,1.492,20.335-4.788,2.652-3.711,3.651-8.393,4.4-12.808.2-1.16-1.581-1.659-1.778-.49-.618,3.669-1.382,7.459-3.2,10.749a13.4,13.4,0,0,1-8.02,6.5,15.24,15.24,0,0,1-10.018-.4,16.441,16.441,0,0,1-7.839-7.3c-1.989-3.7-2.208-8.048-2.768-12.127-.161-1.17-1.937-.672-1.778.49" transform="translate(-211.574 -180.409)" fill="#323232"/>
        <path id="パス_609" data-name="パス 609" d="M343.308,195.173a52.456,52.456,0,0,1-2.836,5.773.938.938,0,0,0,.331,1.261c.946.6,1.829,1.285,2.775,1.881,1.007.634,1.933-.96.93-1.592-.946-.6-1.829-1.285-2.775-1.881l.331,1.261A52.462,52.462,0,0,0,344.9,196.1c.481-1.074-1.107-2.012-1.592-.93" transform="translate(-277.607 -158.803)" fill="#323232"/>
        <path id="パス_610" data-name="パス 610" d="M235.125,163.417c-3.422-.148-4.279,3.931-4,6.588.338,3.268,2.093,6.822,5.686,7.249,1.176.14,1.166-1.7,0-1.843-2.466-.293-3.6-3.28-3.843-5.405-.176-1.569-.062-4.841,2.161-4.745,1.186.051,1.184-1.792,0-1.843" transform="translate(-188.477 -133.289)" fill="#323232"/>
        <path id="パス_611" data-name="パス 611" d="M446.618,167.34v0l-.922.922c2.275-.049,2.146,3.611,1.865,5.184-.378,2.117-1.581,5.37-4.211,5.28-1.186-.041-1.185,1.8,0,1.843,3.647.125,5.572-3.89,6.043-6.964.414-2.7-.009-7.265-3.7-7.186a.937.937,0,0,0-.922.922v0a.922.922,0,0,0,1.843,0" transform="translate(-360.897 -135.738)" fill="#323232"/>
        <path id="パス_612" data-name="パス 612" d="M280.7,329.355c-5.128-1.4-9.9-3.819-13.314-7.994a.927.927,0,0,0-1.448.187l-1.495,2.964c-.533,1.057,1.057,1.991,1.592.931l1.495-2.964-1.448.187c3.595,4.4,8.723,7,14.127,8.468a.922.922,0,0,0,.49-1.778" transform="translate(-215.604 -261.901)" fill="#323232"/>
        <path id="パス_613" data-name="パス 613" d="M280.643,371.9l7.077,5.052a.929.929,0,0,0,1.261-.331l5.24-9.479c.574-1.039-1.017-1.97-1.592-.93l-5.239,9.479,1.261-.331-7.077-5.052c-.967-.69-1.889.908-.93,1.592" transform="translate(-228.579 -298.33)" fill="#323232"/>
        <path id="パス_614" data-name="パス 614" d="M253.392,345.387q2.414,8.254,4.829,16.507c1.541,5.267,3.253,10.483,4.9,15.716l2.506,7.943c.356,1.127,2.136.646,1.778-.49l-5.556-17.609c-1.413-4.478-2.714-8.987-4.032-13.493L255.17,344.9a.923.923,0,0,0-1.778.49" transform="translate(-206.647 -280.79)" fill="#323232"/>
        <path id="パス_615" data-name="パス 615" d="M215.418,355.634l-2.176,13.929-.318,2.036c-.181,1.16,1.595,1.661,1.778.49l2.176-13.929.318-2.036c.181-1.16-1.595-1.661-1.778-.49" transform="translate(-173.662 -289.531)" fill="#323232"/>
        <path id="パス_616" data-name="パス 616" d="M215.835,454.8a44.957,44.957,0,0,1-9.073,2.753.93.93,0,0,0-.551,1.354l6.705,11.844L223.6,489.618l2.448,4.324a.922.922,0,0,0,1.592-.93l-6.705-11.844L210.251,462.3l-2.448-4.324-.551,1.354a47.025,47.025,0,0,0,9.513-2.939c1.083-.477.146-2.066-.93-1.592" transform="translate(-168.104 -370.886)" fill="#323232"/>
        <path id="パス_617" data-name="パス 617" d="M363.018,331.132a27.02,27.02,0,0,0,14.125-8.468l-1.448-.187,1.695,2.76c.62,1.009,2.215.084,1.592-.93l-1.7-2.76a.93.93,0,0,0-1.447-.187,25.329,25.329,0,0,1-13.312,7.994c-1.153.279-.665,2.057.49,1.778" transform="translate(-295.162 -261.9)" fill="#323232"/>
        <path id="パス_618" data-name="パス 618" d="M373.712,370.867l-6.237,4.49,1.261.331q-2.62-4.739-5.237-9.479c-.574-1.039-2.166-.11-1.592.931q2.618,4.74,5.237,9.479a.927.927,0,0,0,1.261.331l6.237-4.49c.954-.687.035-2.287-.93-1.592" transform="translate(-295.092 -298.33)" fill="#323232"/>
        <path id="パス_619" data-name="パス 619" d="M403.984,344.9c-1.257,4.175-2.53,8.344-3.743,12.532l-6.026,20.807-1.79,6.179a.923.923,0,0,0,1.778.49l4.557-15.734c1.385-4.783,2.725-9.583,4.161-14.351l2.841-9.434a.923.923,0,0,0-1.778-.49" transform="translate(-320.052 -280.797)" fill="#323232"/>
        <path id="パス_620" data-name="パス 620" d="M328.61,433.2a209.026,209.026,0,0,0-4.229,23.94l5.983,21.217,7.3-21.988c-.944-8.053-2.771-15.28-4.644-23.169Z" transform="translate(-264.584 -353.341)" fill="#35cae9"/>
        <path id="パス_621" data-name="パス 621" d="M323.636,428.875q-2.017,8.53-3.328,17.2-.311,2.068-.581,4.141a11.72,11.72,0,0,0-.315,3.1,12.756,12.756,0,0,0,.384,1.363l4.259,15.1,1.334,4.732a.93.93,0,0,0,1.778,0l4.023-12.127,2.524-7.608c.218-.658.455-1.314.656-1.977a2.349,2.349,0,0,0,.108-.4,8.513,8.513,0,0,0-.222-2.009q-.149-1.106-.318-2.208c-1.005-6.514-2.6-12.913-4.12-19.32a.935.935,0,0,0-.889-.677h-4.406a.922.922,0,0,0,0,1.843h4.406l-.889-.677c1.335,5.619,2.727,11.229,3.724,16.92q.361,2.062.65,4.136a6.575,6.575,0,0,1,.222,1.768,12.908,12.908,0,0,1-.575,1.734l-5.13,15.462-1.542,4.647h1.778l-3.29-11.668-2.071-7.343a16.342,16.342,0,0,1-.546-1.936,2.77,2.77,0,0,1-.076-.268,13.677,13.677,0,0,1,.293-1.887q.165-1.3.349-2.591,1.354-9.564,3.586-18.974c.273-1.154-1.5-1.646-1.778-.49" transform="translate(-260.499 -349.263)" fill="#323232"/>
        <path id="パス_622" data-name="パス 622" d="M482.314,356.125l2.176,13.929.318,2.036c.182,1.169,1.959.672,1.777-.49l-2.176-13.928-.318-2.036c-.183-1.169-1.959-.672-1.778.49" transform="translate(-393.393 -289.532)" fill="#323232"/>
        <path id="パス_623" data-name="パス 623" d="M417.492,456.386A46.949,46.949,0,0,0,427,459.326l-.551-1.354-5.835,11.544-9.257,18.312-2.14,4.233c-.534,1.056,1.056,1.991,1.592.931l5.835-11.544,9.257-18.312,2.14-4.233a.933.933,0,0,0-.551-1.354,44.867,44.867,0,0,1-9.073-2.754c-1.075-.475-2.014,1.113-.93,1.592" transform="translate(-333.697 -370.885)" fill="#323232"/>
        <path id="パス_624" data-name="パス 624" d="M341.985,269.4h-8.092c1.13,5.648,7.177,5.432,8.092,0" transform="translate(-272.343 -219.738)" fill="#fff"/>
        <path id="パス_625" data-name="パス 625" d="M337.949,264.4h-8.092a.934.934,0,0,0-.889,1.167c.527,2.441,2.277,4.87,5.015,4.831,2.679-.038,4.4-2.4,4.855-4.831.215-1.16-1.562-1.657-1.777-.49-.3,1.6-1.221,3.432-3.077,3.478-1.906.048-2.891-1.876-3.238-3.478l-.889,1.167h8.092a.922.922,0,0,0,0-1.843" transform="translate(-268.306 -215.66)" fill="#323232"/>
        <path id="パス_626" data-name="パス 626" d="M122.254,344.388a115.835,115.835,0,0,1-18.062,7.166A32.618,32.618,0,0,0,97.6,354.3a6.423,6.423,0,0,0-3.248,4.662,20.912,20.912,0,0,0-.106,6.144c.31,3.052.646,6.1.878,9.156.507,6.677.76,13.37,1.055,20.06.331,7.522.721,15.046,1.572,22.53a.945.945,0,0,0,.922.922l9.717.064,23.144.154,28.169.187,24.268.161c3.92.026,7.873.205,11.792.078.055,0,.11,0,.165,0a.934.934,0,0,0,.922-.922q-.044-4.665-.088-9.331-.094-9.969-.188-19.939-.085-9.057-.171-18.113l-.043-4.582c-.027-2.824-1.722-5.7-3.45-7.827-1.791-2.207-4.509-3.43-6.965-4.748-2.315-1.242-4.672-2.433-7.079-3.488-4.119-1.8-8.6-2.741-12.86-4.156-.872-.29-1.748-.586-2.589-.96-1.075-.478-2.013,1.11-.931,1.592,4.052,1.8,8.476,2.739,12.681,4.114a71.185,71.185,0,0,1,13.737,6.678,12.068,12.068,0,0,1,4.733,5.6,8.206,8.206,0,0,1,.876,2.9c.039,1.275.024,2.555.036,3.831q.081,8.621.162,17.241.094,9.992.188,19.983l.069,7.344a27.088,27.088,0,0,0,.035,3.689,1.228,1.228,0,0,1,0,.165l.922-.922-9.717-.065-23.143-.154-28.169-.187-24.268-.161-8.017-.053a28.232,28.232,0,0,0-3.775-.025,1.236,1.236,0,0,1-.165,0l.922.922c-1.472-12.948-1.549-25.992-2.376-38.985-.206-3.243-.46-6.483-.8-9.716a52.671,52.671,0,0,1-.5-6.474c.035-1.755.245-4.038,1.713-5.237a15.945,15.945,0,0,1,2.89-1.632,18.449,18.449,0,0,1,3.005-1.138,125.118,125.118,0,0,0,19.654-7.694c1.062-.528.13-2.119-.93-1.592" transform="translate(-76.731 -280.806)" fill="#323232"/>
        <path id="パス_627" data-name="パス 627" d="M337.711,372.714l-2.376,6.263,1.728,4.967h4.967l1.512-4.32L341.6,372.5Z" transform="translate(-273.519 -303.831)" fill="#35cae9"/>
        <path id="パス_628" data-name="パス 628" d="M332.889,368.387c-.768,2.023-1.7,4.045-2.32,6.117-.236.791.342,1.78.6,2.518l1.073,3.085a.952.952,0,0,0,.889.677H338.1a.949.949,0,0,0,.889-.677l1.1-3.149a3.245,3.245,0,0,0,.257-2.222l-1.79-6.565a.934.934,0,0,0-.889-.677l-3.888.216c-1.179.066-1.187,1.909,0,1.843l3.888-.216-.889-.677,1.748,6.408a5.205,5.205,0,0,0,.143.526c.177.453-.229-.235.05-.288a5.308,5.308,0,0,0-.407,1.162l-1.1,3.149.889-.677H333.13l.889.677-1.014-2.915c-.2-.564-.366-1.147-.592-1.7a2.272,2.272,0,0,0-.119-.344c.358.041-.192.768.089.239a29.476,29.476,0,0,0,1.289-3.4l.994-2.621c.421-1.11-1.36-1.59-1.777-.49" transform="translate(-269.586 -299.749)" fill="#323232"/>
        <path id="パス_629" data-name="パス 629" d="M293.224,179.688a3.792,3.792,0,0,1-3.8,3.736,3.874,3.874,0,0,1-4.025-3.588.922.922,0,0,0-1.843,0,5.74,5.74,0,0,0,5.869,5.432,5.669,5.669,0,0,0,5.646-5.579.922.922,0,0,0-1.843,0" transform="translate(-231.282 -145.838)" fill="#323232"/>
        <path id="パス_630" data-name="パス 630" d="M375.991,179.131a3.838,3.838,0,1,1-7.677,0,.922.922,0,0,0-1.843,0,5.682,5.682,0,1,0,11.364,0,.922.922,0,0,0-1.843,0" transform="translate(-298.914 -145.384)" fill="#323232"/>
        <path id="パス_631" data-name="パス 631" d="M338.9,178.927a18.093,18.093,0,0,1,4.865.032c1.173.152,1.162-1.693,0-1.843a19.759,19.759,0,0,0-5.355.033c-1.17.161-.672,1.937.49,1.778" transform="translate(-275.478 -144.331)" fill="#323232"/>
        <path id="パス_632" data-name="パス 632" d="M263.341,175.048l3.707.855c1.155.266,1.647-1.51.49-1.778l-3.707-.855c-1.155-.266-1.647,1.51-.49,1.778" transform="translate(-214.258 -141.307)" fill="#323232"/>
        <path id="パス_633" data-name="パス 633" d="M420.922,175.019l2.566-.855c1.12-.373.64-2.154-.49-1.778l-2.566.855c-1.12.373-.64,2.154.49,1.778" transform="translate(-342.409 -140.566)" fill="#323232"/>
        <path id="パス_634" data-name="パス 634" d="M428.5,53.392a47.619,47.619,0,0,0,1.476-9.839,24.606,24.606,0,0,0-.808-6.58,20.274,20.274,0,0,0-2.507-6.369,7.493,7.493,0,0,0-5.53-3.648c-1.178-.125-1.169,1.719,0,1.843,4,.426,5.518,5.524,6.288,8.788a22.466,22.466,0,0,1,.713,5.965,41.146,41.146,0,0,1-.689,5.908c-.208,1.152-.438,2.3-.721,3.441a.923.923,0,0,0,1.778.49" transform="translate(-342.78 -21.983)" fill="#323232"/>
        <path id="パス_635" data-name="パス 635" d="M249.317,24.424a9.284,9.284,0,0,0-8.262,3.331c-.962,1.122-1.739,2.379-2.59,3.583a4.994,4.994,0,0,1-2.812,2.372c-1.162.236-.67,2.013.49,1.777,2.513-.51,3.858-3.179,5.2-5.095,1.679-2.4,4.327-4.672,7.485-4.192,1.16.176,1.661-1.6.49-1.778" transform="translate(-191.671 -19.848)" fill="#323232"/>
        <path id="パス_636" data-name="パス 636" d="M234.808,93.263c.561.011.575.256.687.816a35.313,35.313,0,0,1,.387,3.617q.344,3.69.6,7.388c.081,1.177,1.925,1.186,1.843,0q-.324-4.726-.793-9.44c-.189-1.915-.316-4.175-2.72-4.224a.922.922,0,0,0,0,1.843" transform="translate(-190.797 -74.567)" fill="#323232"/>
        <path id="パス_637" data-name="パス 637" d="M313.477,62.081a12.381,12.381,0,0,1-8.458,3.227.922.922,0,0,0,0,1.843,14.314,14.314,0,0,0,9.762-3.766c.878-.8-.428-2.1-1.3-1.3" transform="translate(-248.065 -50.433)" fill="#323232"/>
        <path id="パス_638" data-name="パス 638" d="M270.8,92.791a16,16,0,0,1-2.884,2.5,11.375,11.375,0,0,1-1.012.6c-.112.058-.553.308-.224.119-.866.5-.825,1.538-1,2.455l-1.375,7.046c-.226,1.159,1.55,1.655,1.777.49l1.728-8.855-.644.644a14.674,14.674,0,0,0,4.942-3.693c.81-.866-.491-2.172-1.3-1.3" transform="translate(-215.561 -75.452)" fill="#323232"/>
        <path id="パス_639" data-name="パス 639" d="M323.92,4.787a6.749,6.749,0,0,0-3.392-3.45C318.67.36,316.6.709,314.582.889c-1.759.157-3.49.536-5.254.648-1.709.108-3.6.041-4.866-1.26-.83-.851-2.132.453-1.3,1.3,2.5,2.565,6.474,1.844,9.645,1.381.759-.111,1.516-.213,2.282-.265a14.321,14.321,0,0,1,3.584-.131,5.269,5.269,0,0,1,3.474,2.711c.378,1.118,2.159.638,1.778-.49" transform="translate(-247.057 0)" fill="#323232"/>
        <path id="パス_640" data-name="パス 640" d="M351.525,68.217a9.923,9.923,0,0,1-6.051,2.641c-1.176.085-1.185,1.929,0,1.843a11.952,11.952,0,0,0,7.355-3.181c.872-.808-.434-2.11-1.3-1.3" transform="translate(-281.066 -55.435)" fill="#323232"/>
        <path id="パス_641" data-name="パス 641" d="M383.068,77.086a14.683,14.683,0,0,1-6.47,2.6c-1.169.171-.672,1.948.49,1.777A15.854,15.854,0,0,0,384,78.678c.958-.683.039-2.282-.93-1.592" transform="translate(-306.63 -62.738)" fill="#323232"/>
        <path id="パス_642" data-name="パス 642" d="M418.913,99.924a58.715,58.715,0,0,1,4.226,9.5c.428,1.093,2.211.617,1.778-.49a61.511,61.511,0,0,0-4.412-9.939c-.618-1.011-2.213-.086-1.592.93" transform="translate(-341.575 -80.389)" fill="#323232"/>
        <path id="パス_643" data-name="パス 643" d="M311.9,147.676l2.1.968a.949.949,0,0,0,1.261-.331.929.929,0,0,0-.331-1.261l-2.1-.968a.949.949,0,0,0-1.261.331.929.929,0,0,0,.331,1.261" transform="translate(-254.037 -119.066)" fill="#323232"/>
        <path id="パス_645" data-name="パス 645" d="M583.773,485.155c-.773,14.139-1.919,28.261-3.063,42.374q-.156,1.929-.315,3.859c-.1,1.182,1.746,1.176,1.843,0q1.416-17.052,2.614-34.122c.279-4.035.544-8.072.765-12.111.065-1.185-1.779-1.182-1.843,0" transform="translate(-473.4 -394.997)" fill="#323232"/>
        <path id="パス_646" data-name="パス 646" d="M313.564,176.087a1.014,1.014,0,0,0,0,2.028,1.014,1.014,0,0,0,0-2.028" transform="translate(-254.963 -143.627)" fill="#323232"/>
        <path id="パス_647" data-name="パス 647" d="M393.564,176.087a1.014,1.014,0,0,0,0,2.028,1.014,1.014,0,0,0,0-2.028" transform="translate(-320.215 -143.627)" fill="#323232"/>
        <path id="パス_648" data-name="パス 648" d="M99.954,317.522c-1.836-.716-2.558.5-4.339-.312-.717-.328-1.269-.876-2.009-1.168-1.561-.616-2.289.558-3.587.5-1.184-.057-1.47-1.082-2.4-1.5-1.273-.571-1.9,0-3.157.412-4.028,1.31-3.34,10.681-3.066,16.058.184,3.6-2.406,10.049-2.406,10.049l17.321,3.786a39.212,39.212,0,0,1,1.608-6.617,16.008,16.008,0,0,1,2.349-3.551,7.347,7.347,0,0,0,1.2-3.321c-.065,0-.13,0-.2,0,0-.672.351-2.758.548-4.224.034-.469.074-.912.132-1.313a12.645,12.645,0,0,1-.132,1.313c-.093,1.305-.134,2.817-.351,4.221,5.239-.135,4.614-7.549,4.374-9.575-.343-2.9-4.11-4.067-5.888-4.76" transform="translate(-64.432 -256.769)" fill="#fff"/>
        <path id="パス_649" data-name="パス 649" d="M200.033,388.645c.217-1.4.258-2.916.351-4.221-.2,1.466-.545,3.551-.548,4.224.067,0,.132,0,.2,0" transform="translate(-162.998 -313.559)" fill="#fff"/>
        <path id="パス_650" data-name="パス 650" d="M99.8,316.565c-1.836-.716-2.409,1.458-4.19.644-.717-.328-1.269-.876-2.009-1.168-1.561-.616-2.289.558-3.587.5-1.184-.057-1.47-1.082-2.4-1.5-1.273-.571-1.9,0-3.157.412-4.028,1.31-3.34,10.681-3.066,16.058.184,3.6-2.406,10.049-2.406,10.049l16.534,3.385s1.091-3.062,1.749-4.665a22.761,22.761,0,0,1,2.138-4.665c1.644-2.158,2.357-9.329,2.721-11.857,0,.935-1.162,7.812-1.166,8.747,1.555.389,5.241-3.171,6.026-4.471,1.548-2.564-1.656-6.553-1.944-7.775-.778-3.3-3.47-3-5.248-3.693" transform="translate(-64.431 -256.769)" fill="#fff"/>
        <path id="パス_651" data-name="パス 651" d="M95.918,311.659a2.892,2.892,0,0,0-2.217.123c-.472.218-1,.724-1.551.666-.841-.088-1.622-1.023-2.43-1.312a3.532,3.532,0,0,0-2.583.121c-.743.293-1.319.52-1.969-.076a4.114,4.114,0,0,0-2.285-1.28,5.382,5.382,0,0,0-2.643.594,4.732,4.732,0,0,0-1.652.933c-2.083,1.908-2.309,5.413-2.425,8.037-.075,1.713-.035,3.428.039,5.14a28.228,28.228,0,0,1,.073,4.548,32.975,32.975,0,0,1-2.3,8.145.926.926,0,0,0,.644,1.134l14.468,2.962,2.066.423a.95.95,0,0,0,1.134-.644c.558-1.564,1.131-3.124,1.749-4.665.448-1.116.826-2.266,1.373-3.339.392-.767.935-1.423,1.281-2.214,1.487-3.4,1.688-7.333,2.205-10.97l-1.811-.245c-.067,2.934-1.1,5.813-1.166,8.747a.929.929,0,0,0,.677.889c1.611.3,3.131-.945,4.285-1.912,1.181-.989,2.647-2.256,3.136-3.773.593-1.838-.252-3.824-1.074-5.448-.343-.678-.8-1.337-1.069-2.047a7.632,7.632,0,0,0-1.1-2.363c-1.254-1.513-3.146-1.544-4.855-2.175-1.115-.411-1.6,1.369-.49,1.778,1.477.545,3.425.481,4.255,2.061.363.691.5,1.476.871,2.179.434.833.915,1.645,1.273,2.516A4.7,4.7,0,0,1,102.3,323a4.253,4.253,0,0,1-1.206,1.736,16.029,16.029,0,0,1-2.114,1.895c-.427.313-1.337,1.066-1.892.964l.677.889c.068-2.934,1.1-5.813,1.166-8.747.023-1.01-1.661-1.292-1.81-.245-.254,1.785-.459,3.575-.757,5.354a21,21,0,0,1-1.406,5.5c-.4.837-.992,1.554-1.382,2.4-.491,1.068-.877,2.18-1.315,3.27-.618,1.542-1.191,3.1-1.749,4.665l1.134-.644-14.468-2.962-2.066-.423.644,1.134a40.565,40.565,0,0,0,2-6.432c.653-3.009.276-5.951.226-9-.045-2.747-.175-6.086,1.146-8.593a4.064,4.064,0,0,1,2.792-1.945c.963-.3,1.437.219,2.1.808a2.944,2.944,0,0,0,2.106.81c.892-.033,1.675-.718,2.55-.671,1.021.055,1.819,1.1,2.78,1.4a2.8,2.8,0,0,0,2.118-.214c.661-.323,1.086-.774,1.855-.516,1.127.378,1.611-1.4.49-1.778" transform="translate(-60.3 -252.751)" fill="#323232"/>
        <path id="パス_652" data-name="パス 652" d="M199.9,372.145c-.74.586-1.464,1.191-2.187,1.8a.929.929,0,0,0,0,1.3.941.941,0,0,0,1.3,0c.723-.606,1.447-1.212,2.187-1.8a.927.927,0,0,0,0-1.3.944.944,0,0,0-1.3,0" transform="translate(-161.047 -303.33)" fill="#323232"/>
        <path id="パス_653" data-name="パス 653" d="M22.945,446.544q-.784-.455-1.544-.951c-.5,1.839-1.09,3.664-1.619,5.489q-1.211,4.183-2.415,8.369c-1.613,5.6-3.291,11.174-4.886,16.774a56.285,56.285,0,0,0-2.408,11.764c-.171,2.8.22,5.654,1.867,7.746,2.385,3.03,6.695,4.407,10.323,4.309,3.277-.089,5.752-2.073,7.363-5.3A47.086,47.086,0,0,0,32.6,485.3q1.4-5.461,2.763-10.93,3-11.943,5.9-23.91a31.079,31.079,0,0,1-18.317-3.914" transform="translate(-8.186 -363.451)" fill="#ddd"/>
        <path id="パス_654" data-name="パス 654" d="M30.779,437.417a29.545,29.545,0,0,1-17.638-5.45.928.928,0,0,0-1.354.551c-1.08,4.508-2.578,8.954-3.863,13.41-1.4,4.848-2.79,9.7-4.221,14.536A93.835,93.835,0,0,0,.223,474.9c-.411,3.163-.374,6.521,1.134,9.413,1.894,3.633,5.9,5.526,9.774,6.219s7.643-.173,10.173-3.335c2.367-2.959,3.366-6.721,4.3-10.322q1.273-4.927,2.509-9.865,3.258-12.932,6.41-25.891.34-1.4.676-2.808c.124-.517-.265-1.246-.889-1.167-1.172.149-2.346.242-3.527.275a.922.922,0,0,0,0,1.843c1.181-.034,2.354-.126,3.527-.275l-.889-1.167c-1.964,8.206-4,16.394-6.051,24.579q-1.359,5.422-2.737,10.84a66.828,66.828,0,0,1-2.636,9.081c-1.305,3.157-3.464,6.125-7.089,6.566a14.183,14.183,0,0,1-6.825-1.133,10.353,10.353,0,0,1-4.242-2.993c-1.913-2.372-2.164-5.544-1.921-8.468a64.5,64.5,0,0,1,2.747-12.56c1.553-5.326,3.119-10.648,4.656-15.979q1.178-4.087,2.359-8.173c.632-2.183,1.358-4.359,1.888-6.57l-1.354.551a31.233,31.233,0,0,0,18.568,5.7.922.922,0,0,0,0-1.843" transform="translate(0 -352.229)" fill="#323232"/>
      </g>
    </g>
    <g id="グループ_663" data-name="グループ 663" transform="translate(4320.843 1407.4)">
      <path id="パス_844" data-name="パス 844" d="M809.867,37.578V68.273a1.159,1.159,0,0,1-1.143,1.143H787.795v2.413h24.632V37.578Z" transform="translate(-780.664 -30.595)" fill="#fff"/>
      <path id="パス_845" data-name="パス 845" d="M799.7,59.493V25.242H775.073V59.493Zm-17-21.813c1.427-.835,3.1-.656,4.685-.656s3.257-.179,4.685.656c1.9,1.112,2.38,3.019,2.38,5.067a1.143,1.143,0,0,1-2.285,0c0-1.792-.526-3.238-2.562-3.438-.725-.071-1.487,0-2.218,0a21.073,21.073,0,0,0-2.258,0c-2.014.222-2.522,1.672-2.522,3.438a1.143,1.143,0,0,1-2.285,0c0-2.048.482-3.955,2.381-5.067m11.027,16.806H781.047a1.143,1.143,0,0,1,0-2.285h12.684a1.143,1.143,0,0,1,0,2.285m0-4.189H781.047a1.143,1.143,0,0,1,0-2.285h12.684a1.143,1.143,0,0,1,0,2.285M791.023,32.78a3.625,3.625,0,0,1-7.236.337,1.743,1.743,0,0,1,0-.677,3.625,3.625,0,0,1,7.235.34" transform="translate(-772.788 -22.957)" fill="#fff"/>
      <path id="パス_846" data-name="パス 846" d="M803.868,42.914a1.35,1.35,0,0,0,2.7,0,1.35,1.35,0,0,0-2.7,0" transform="translate(-790.616 -33.092)" fill="#fff"/>
      <path id="パス_847" data-name="パス 847" d="M769.415,57.732l.022.021a1.054,1.054,0,0,0,.778.31h3.7v3.556a1.055,1.055,0,0,0,.3.773c.012.014.025.026.037.039l.022.021a1.054,1.054,0,0,0,.778.31h26.917a1.159,1.159,0,0,0,1.143-1.143V25.083a1.159,1.159,0,0,0-1.143-1.143h-3.7V20.385a1.159,1.159,0,0,0-1.143-1.143H770.216a1.159,1.159,0,0,0-1.143,1.143V56.92a1.054,1.054,0,0,0,.305.773c.011.014.024.026.037.039m1.943-36.2H795.99V55.778H771.358V21.527Zm29.478,38.949H776.2V58.063h20.929a1.159,1.159,0,0,0,1.143-1.143V26.225h2.56V60.476Z" transform="translate(-769.073 -19.242)" fill="#323232"/>
      <path id="パス_848" data-name="パス 848" d="M801.648,85.027H788.963a1.143,1.143,0,0,0,0,2.285h12.685a1.143,1.143,0,0,0,0-2.285" transform="translate(-780.704 -59.972)" fill="#323232"/>
      <path id="パス_849" data-name="パス 849" d="M801.648,96.026H788.963a1.143,1.143,0,0,0,0,2.285h12.685a1.143,1.143,0,0,0,0-2.285" transform="translate(-780.704 -66.782)" fill="#323232"/>
      <path id="パス_850" data-name="パス 850" d="M797.9,38.791a1.158,1.158,0,0,0-.034.34,1.177,1.177,0,0,0,.033.337,3.633,3.633,0,1,0,0-.677m2.251.34a1.35,1.35,0,0,1,2.7,0,1.35,1.35,0,0,1-2.7,0" transform="translate(-786.899 -29.309)" fill="#35cae9"/>
      <path id="パス_851" data-name="パス 851" d="M791.144,61.873c0-1.766.508-3.216,2.522-3.438a21.073,21.073,0,0,1,2.258,0c.731,0,1.493-.071,2.219,0,2.036.2,2.562,1.646,2.562,3.438a1.143,1.143,0,0,0,2.285,0c0-2.048-.482-3.955-2.381-5.066-1.427-.836-3.1-.657-4.685-.657s-3.257-.179-4.685.657c-1.9,1.111-2.381,3.018-2.381,5.066a1.143,1.143,0,0,0,2.285,0" transform="translate(-781.323 -42.083)" fill="#35cae9"/>
    </g>
    <g id="グループ_664" data-name="グループ 664" transform="translate(4443.03 1417.524)">
      <path id="パス_867" data-name="パス 867" d="M252.394,85.167c-2.087,1.841-4.038,3.9-6.052,5.8l-3.765,3.54c-.794.747-2.386,1.786-1.359,3.045.561.561,1.145,1.4,1.916,1.656.885.291,1.186-.11,1.745-.576,1.181-.985,2.261-2.126,3.381-3.179l7.563-7.112a17.345,17.345,0,0,1-2.293-1.862,17.042,17.042,0,0,1-1.136-1.308" transform="translate(-238.648 -58.159)" fill="#fff"/>
      <path id="パス_868" data-name="パス 868" d="M235.967,96.147a1.224,1.224,0,0,0,.185.184c1.559,1.554,3.376,3.227,5.683,1.774a20.852,20.852,0,0,0,2.86-2.6l9.549-8.98a17.163,17.163,0,0,1-2.057-1.2l-7.563,7.111c-1.119,1.053-2.2,2.194-3.381,3.179-.559.466-.86.868-1.745.576-.771-.254-1.355-1.095-1.916-1.656-1.027-1.259.565-2.3,1.359-3.045l3.765-3.54c2.014-1.894,3.964-3.955,6.052-5.8a17.124,17.124,0,0,1-1.271-1.856c-.181.18-.358.356-.533.521l-5.041,4.741-5.222,4.911c-1.655,1.556-2.318,3.473-.922,5.415a1.192,1.192,0,0,0,.2.265" transform="translate(-235.011 -55.143)" fill="#323232"/>
      <path id="パス_869" data-name="パス 869" d="M303.923,44.916a1.443,1.443,0,0,0-2.885,0,1.443,1.443,0,0,0,2.885,0" transform="translate(-275.891 -32.376)" fill="#fff"/>
      <path id="パス_870" data-name="パス 870" d="M271.537,44.649a14.312,14.312,0,1,0,11.407-24.375,14.308,14.308,0,0,0-11.407,24.375m9.942-9.713c1.636,0,3.365-.187,4.838.675,1.957,1.146,2.449,3.11,2.449,5.219a1.143,1.143,0,0,1-2.285,0c0-1.883-.564-3.4-2.7-3.609-.753-.073-1.543,0-2.3,0s-1.575-.073-2.343,0c-2.117.2-2.659,1.771-2.659,3.609a1.143,1.143,0,0,1-2.285,0c0-2.109.492-4.074,2.449-5.219,1.473-.862,3.2-.675,4.838-.675M277.9,30.489a1.179,1.179,0,0,1,.034-.34,3.725,3.725,0,1,1,0,.677,1.17,1.17,0,0,1-.033-.337m-1.916-7.9c1.3-.684,2.456,1.289,1.153,1.973a10.553,10.553,0,0,0-4.39,4.275c-.716,1.286-2.689.133-1.973-1.154a12.723,12.723,0,0,1,5.21-5.095" transform="translate(-255.038 -17.948)" fill="#fff"/>
      <path id="パス_871" data-name="パス 871" d="M265.122,41.261a17.115,17.115,0,0,0,1.136,1.309,17.382,17.382,0,0,0,2.294,1.862,17.163,17.163,0,0,0,2.057,1.2A16.57,16.57,0,1,0,281.881,14.7a16.791,16.791,0,0,0-17.556,6.723,16.619,16.619,0,0,0-.474,17.984,17.164,17.164,0,0,0,1.271,1.855m-.15-16.387a14.316,14.316,0,1,1,21.058,17.8,14.319,14.319,0,0,1-21.058-17.8" transform="translate(-251.375 -14.254)" fill="#35cae9"/>
      <path id="パス_872" data-name="パス 872" d="M298.763,44.856a3.725,3.725,0,1,0-3.694-4.068,1.724,1.724,0,0,0,0,.677,3.763,3.763,0,0,0,3.695,3.391m1.442-3.728a1.443,1.443,0,0,1-2.885,0,1.443,1.443,0,0,1,2.885,0" transform="translate(-272.174 -28.587)" fill="#323232"/>
      <path id="パス_873" data-name="パス 873" d="M285.3,64.721a1.143,1.143,0,0,0,2.285,0c0-1.838.542-3.408,2.659-3.609.768-.073,1.57,0,2.343,0s1.549-.073,2.3,0c2.136.208,2.7,1.726,2.7,3.609a1.143,1.143,0,0,0,2.285,0c0-2.109-.492-4.074-2.449-5.219-1.473-.862-3.2-.675-4.838-.675s-3.365-.187-4.838.675c-1.957,1.146-2.449,3.11-2.449,5.219" transform="translate(-266.147 -41.84)" fill="#323232"/>
      <path id="パス_874" data-name="パス 874" d="M276.076,31.315c-.716,1.286,1.257,2.44,1.973,1.153a10.554,10.554,0,0,1,4.39-4.275c1.3-.684.149-2.657-1.153-1.973a12.721,12.721,0,0,0-5.21,5.095" transform="translate(-260.341 -21.575)" fill="#35cae9"/>
    </g>
  </g>
</svg>
