<svg xmlns="http://www.w3.org/2000/svg" xmlns:xlink="http://www.w3.org/1999/xlink" width="109.903" height="120.881" viewBox="0 0 109.903 120.881">
  <defs>
    <clipPath id="clip-path">
      <rect id="長方形_345" data-name="長方形 345" width="74.446" height="100.596" fill="none"/>
    </clipPath>
  </defs>
  <g id="charge_illust" transform="translate(4 -19.328)">
    <circle id="楕円形_35" data-name="楕円形 35" cx="54.952" cy="54.952" r="54.952" transform="translate(-4 30.306)" fill="#e7f8ff"/>
    <g id="グループ_682" data-name="グループ 682" transform="translate(24.624 19.328)">
      <g id="グループ_635" data-name="グループ 635" clip-path="url(#clip-path)">
        <path id="パス_1055" data-name="パス 1055" d="M13.742,86.978a1.006,1.006,0,0,1-1.027,1.063h-4.7a6.811,6.811,0,0,0-1.8.06,1.7,1.7,0,0,0-1.187,1.648c-.008.426,0,.854,0,1.28v54.59a2.474,2.474,0,0,0,.38,1.718c.532.654,1.25.6,1.991.6H51.437c.142,0,.284,0,.425,0a1.673,1.673,0,0,0,1.626-1.676c.008-.322,0-.646,0-.968V93.269c0-1.218.1-2.486,0-3.7a1.679,1.679,0,0,0-1.724-1.527c-.74-.005-1.479,0-2.219,0H44.818a1,1,0,0,1-1.027-1.063,1.224,1.224,0,0,1,.056-.357h-.665v6.054a1.078,1.078,0,0,1-1.063,1.063H16.038a1.078,1.078,0,0,1-1.063-1.063V86.029H13.2a1.044,1.044,0,0,1,.539.949M25.381,102.57H41.918a1.063,1.063,0,0,1,0,2.125H25.381a1.063,1.063,0,0,1,0-2.125m0,9.655H41.918a1.063,1.063,0,0,1,0,2.125H25.381a1.063,1.063,0,0,1,0-2.125m0,9.655H41.918a1.063,1.063,0,0,1,0,2.125H25.381a1.063,1.063,0,0,1,0-2.125m0,9.655H41.918a1.063,1.063,0,0,1,0,2.125H25.381a1.063,1.063,0,0,1,0-2.125m-10.05-28.571a1.072,1.072,0,0,1,1.5,0l.635.678L20.42,100.7a1.063,1.063,0,0,1,1.5,1.5l-.466.465L18.2,105.919a1.077,1.077,0,0,1-1.5,0l-1.361-1.453a1.085,1.085,0,0,1,0-1.5m0,9.671a1.072,1.072,0,0,1,1.5,0l.635.678,2.951-2.943a1.063,1.063,0,0,1,1.5,1.5l-.466.465L18.2,115.59a1.077,1.077,0,0,1-1.5,0l-1.361-1.452a1.085,1.085,0,0,1,0-1.5m0,9.671a1.072,1.072,0,0,1,1.5,0l.635.678,2.951-2.943a1.063,1.063,0,1,1,1.5,1.5l-.466.465L18.2,125.261a1.077,1.077,0,0,1-1.5,0l-1.361-1.453a1.085,1.085,0,0,1,0-1.5m0,9.671a1.072,1.072,0,0,1,1.5,0l.635.678,2.951-2.943a1.063,1.063,0,1,1,1.5,1.5l-.466.465L18.2,134.932a1.077,1.077,0,0,1-1.5,0l-1.361-1.453a1.085,1.085,0,0,1,0-1.5m8.694,10.83h24.6V92.415h-3.81a1.063,1.063,0,0,1,0-2.125H49.69a1.078,1.078,0,0,1,1.063,1.063c0,.06,0,.119,0,.178.06,3.508,0,7.023,0,10.533v41.806a1.078,1.078,0,0,1-1.063,1.063h-.071c-1.657.065-3.33,0-4.987,0H8.772a1.078,1.078,0,0,1-1.063-1.063c0-.03,0-.061,0-.091-.076-2.127,0-4.271,0-6.4V91.352a1.078,1.078,0,0,1,1.063-1.063h3.8a1.063,1.063,0,0,1,0,2.125H9.855c-.007.358-.021.717-.021,1.068v49.311c.207.006.413.012.615.012H24.026Z" transform="translate(-2.886 -49.461)" fill="#fff"/>
        <path id="パス_1056" data-name="パス 1056" d="M52.727,133.136V90.193a4.691,4.691,0,0,0-.585-2.672,3.847,3.847,0,0,0-3.283-1.766c-.768,0-1.537,0-2.3,0H41.931a1.063,1.063,0,0,0,0,2.125h4.724c.74,0,1.479,0,2.219,0A1.679,1.679,0,0,1,50.6,89.407c.108,1.215,0,2.484,0,3.7v52.019c0,.323.008.646,0,.968a1.673,1.673,0,0,1-1.626,1.676c-.142,0-.284,0-.425,0H4.509c-.741,0-1.459.059-1.991-.6a2.474,2.474,0,0,1-.38-1.718V90.869c0-.426-.008-.854,0-1.28A1.7,1.7,0,0,1,3.325,87.94a6.811,6.811,0,0,1,1.8-.06h4.7a1.063,1.063,0,0,0,0-2.125H4.823a6.441,6.441,0,0,0-2.329.227A3.872,3.872,0,0,0,.012,89.56c-.028,1.313,0,2.629,0,3.942v52.1a4.231,4.231,0,0,0,1.2,3.278,4.39,4.39,0,0,0,3.2,1.019h44.3a3.85,3.85,0,0,0,3.985-3.359,33.238,33.238,0,0,0,.035-4.022Z" transform="translate(0 -49.301)" fill="#323232"/>
        <path id="パス_1057" data-name="パス 1057" d="M53.281,96.051H48.409a1.063,1.063,0,0,0,0,2.125h3.81v50.391H14.04c-.2,0-.408-.006-.615-.012V99.244c0-.351.015-.709.022-1.068h2.715a1.063,1.063,0,0,0,0-2.125h-3.8A1.078,1.078,0,0,0,11.3,97.114v46.027c0,2.128-.076,4.271,0,6.4,0,.03,0,.061,0,.091a1.078,1.078,0,0,0,1.063,1.063H48.223c1.658,0,3.33.065,4.987,0h.071a1.078,1.078,0,0,0,1.063-1.063V107.824c0-3.509.06-7.024,0-10.533,0-.059,0-.119,0-.178a1.078,1.078,0,0,0-1.063-1.063" transform="translate(-6.477 -55.223)" fill="#323232"/>
        <path id="パス_1058" data-name="パス 1058" d="M49.645,83.924H57.4V78.415H49.833a1.076,1.076,0,0,1-1.025-1.345,4.393,4.393,0,0,0-.9-3.554,3.867,3.867,0,0,0-4.282-.363,3.651,3.651,0,0,0-1.591,3.917,1.076,1.076,0,0,1-1.024,1.345H33.442v5.508h16.2Z" transform="translate(-19.227 -41.773)" fill="#35cae9"/>
        <path id="パス_1059" data-name="パス 1059" d="M29.5,83.154H55.585a1.078,1.078,0,0,0,1.063-1.063V74.458a.98.98,0,0,0-.284-.719c-.011-.013-.023-.024-.034-.036l-.021-.02a.98.98,0,0,0-.724-.288H48.131A6.681,6.681,0,0,0,46.7,69.319a5.036,5.036,0,0,0-2.385-1.42,5.613,5.613,0,0,0-2.386-.238A5.7,5.7,0,0,0,36.966,73.4H29.5a1.078,1.078,0,0,0-1.063,1.063v7.634A1.078,1.078,0,0,0,29.5,83.154m1.063-7.634h7.564a1.076,1.076,0,0,0,1.024-1.345,3.653,3.653,0,0,1,1.591-3.917,3.867,3.867,0,0,1,4.282.363,4.393,4.393,0,0,1,.9,3.554,1.076,1.076,0,0,0,1.025,1.345h7.564v5.508H30.567Z" transform="translate(-16.352 -38.879)" fill="#323232"/>
        <path id="パス_1060" data-name="パス 1060" d="M66.019,127.068H68.07a1.063,1.063,0,0,0,0-2.125H51.533a1.063,1.063,0,0,0,0,2.125Z" transform="translate(-29.038 -71.834)" fill="#323232"/>
        <path id="パス_1061" data-name="パス 1061" d="M51.533,149.782H68.07a1.063,1.063,0,0,0,0-2.125H51.533a1.063,1.063,0,0,0,0,2.125" transform="translate(-29.038 -84.893)" fill="#323232"/>
        <path id="パス_1062" data-name="パス 1062" d="M51.533,172.5H68.07a1.063,1.063,0,0,0,0-2.125H51.533a1.063,1.063,0,0,0,0,2.125" transform="translate(-29.038 -97.952)" fill="#323232"/>
        <path id="パス_1063" data-name="パス 1063" d="M51.533,195.21H68.07a1.063,1.063,0,0,0,0-2.125H51.533a1.063,1.063,0,0,0,0,2.125" transform="translate(-29.038 -111.011)" fill="#323232"/>
        <path id="パス_1064" data-name="パス 1064" d="M30.231,125.352a1.077,1.077,0,0,0,1.5,0l3.261-3.253.466-.465a1.063,1.063,0,1,0-1.5-1.5l-2.95,2.942-.635-.678a1.071,1.071,0,0,0-1.5,0,1.085,1.085,0,0,0,0,1.5l1.361,1.453" transform="translate(-16.425 -68.893)" fill="#35cae9"/>
        <path id="パス_1065" data-name="パス 1065" d="M28.869,146.649,30.23,148.1a1.077,1.077,0,0,0,1.5,0l3.261-3.253.466-.465a1.063,1.063,0,1,0-1.5-1.5l-2.951,2.943-.635-.678a1.073,1.073,0,0,0-1.5,0,1.085,1.085,0,0,0,0,1.5" transform="translate(-16.424 -81.973)" fill="#35cae9"/>
        <path id="パス_1066" data-name="パス 1066" d="M28.869,169.4l1.361,1.453a1.077,1.077,0,0,0,1.5,0l3.261-3.253.466-.465a1.062,1.062,0,0,0-1.5-1.5l-2.951,2.942-.635-.678a1.072,1.072,0,0,0-1.5,0,1.085,1.085,0,0,0,0,1.5" transform="translate(-16.424 -95.054)" fill="#35cae9"/>
        <path id="パス_1067" data-name="パス 1067" d="M28.869,192.152,30.23,193.6a1.077,1.077,0,0,0,1.5,0l3.261-3.252.466-.465a1.063,1.063,0,1,0-1.5-1.5l-2.951,2.943-.635-.678a1.072,1.072,0,0,0-1.5,0,1.085,1.085,0,0,0,0,1.5" transform="translate(-16.424 -108.134)" fill="#35cae9"/>
        <path id="パス_1068" data-name="パス 1068" d="M128.117,7.7,114.112,18.669l-8.041,6.295,2.459,2.955,2.3-1.806,13.983-10.985,8.044-6.319-2.453-2.9L128.117,7.7" transform="translate(-60.984 -3.4)" fill="#35cae9"/>
        <path id="パス_1069" data-name="パス 1069" d="M123.145.3a1.088,1.088,0,0,0-1.5,0l-8.8,6.888L98.84,18.156l-3,2.346c-.019.011-.039.022-.057.035a.949.949,0,0,0-.2.178.768.768,0,0,0-.2.333l-2.079,3.845-1.12,2.1-.163.306c-.018.034-.03.07-.045.1a.984.984,0,0,0-.062.715,1.084,1.084,0,0,0,.488.635,1.124,1.124,0,0,0,.2.081,1.108,1.108,0,0,0,.623.026l2.433-.583L96,28.2l4.5-1.187a1.065,1.065,0,0,0,.119-.049l.015-.006a.988.988,0,0,0,.367-.242l8.778-6.895L123.754,8.832l3.208-2.52a1.08,1.08,0,0,0,0-1.5L123.145.3M96.086,25.974l-.581-.679,1.085-2.007,1.742,2.093-2.246.593M116.65,11.728,102.667,22.713l-2.3,1.806-2.459-2.955,8.041-6.295L119.954,4.3l2.287-1.791,2.453,2.9-8.044,6.319" transform="translate(-52.822 0)" fill="#323232"/>
        <path id="パス_1070" data-name="パス 1070" d="M100.414,56.793l.581.679,2.246-.593L101.5,54.786l-1.085,2.007" transform="translate(-57.732 -31.498)" fill="#fff"/>
      </g>
    </g>
  </g>
</svg>
