<svg xmlns="http://www.w3.org/2000/svg" width="281.003" height="28.435" viewBox="0 0 281.003 28.435">
  <g id="logo_wh" transform="translate(-10.926 -10.317)">
    <path id="パス_514" data-name="パス 514" d="M161.7,32.722a.805.805,0,0,0,.894-.89V23.648a.789.789,0,0,0-.894-.89H150.853a1.236,1.236,0,0,1-1.4-1.357,1.225,1.225,0,0,1,1.4-1.357h11.866c2,0,2.85.763,2.85,2.841v9.794c0,2.077-.851,2.841-2.85,2.841H150.641a1.242,1.242,0,0,1-1.4-1.357,1.225,1.225,0,0,1,1.4-1.357H161.7Z" transform="translate(22.888 1.61)" fill="#fff"/>
    <path id="パス_515" data-name="パス 515" d="M170.052,24.216c-.638-.382-1.021-.678-1.021-1.272a1.438,1.438,0,0,1,1.318-1.441c.425,0,.936.17,2.509,1.187,1.7,1.145,3.1,2.077,4.126,2.841a32.221,32.221,0,0,0,2.466-5.809c.213-.636.469-1.06,1.276-1.06.6,0,1.658.3,1.658,1.272,0,.89-1.787,4.876-3.275,7.292a40.66,40.66,0,0,1,3.572,3.053c1.021.975,1.234,1.314,1.234,1.823a1.671,1.671,0,0,1-1.617,1.611,2.059,2.059,0,0,1-1.4-.721c-2.084-2.12-2.382-2.459-3.445-3.392a28.66,28.66,0,0,1-5.783,5.639c-1.745,1.272-2.85,1.823-3.573,1.823a1.568,1.568,0,0,1-1.488-1.526c0-.636.383-.806,1.361-1.314a20.228,20.228,0,0,0,7.443-6.275A48.185,48.185,0,0,0,170.052,24.216Z" transform="translate(25.762 1.381)" fill="#fff"/>
    <path id="パス_516" data-name="パス 516" d="M186.067,27.977a1.295,1.295,0,1,1,0-2.586h15.905a1.295,1.295,0,1,1,0,2.586h-6c-.085,1.866-.34,5.724-4,7.929a10.82,10.82,0,0,1-4.38,1.526c-1.021,0-1.319-1.06-1.319-1.526,0-.848.469-.975,1.787-1.314,2.85-.806,4.805-2.035,5.019-6.614Zm12.461-8.268a1.16,1.16,0,0,1,1.318,1.272,1.159,1.159,0,0,1-1.318,1.314H187.684a1.16,1.16,0,0,1-1.319-1.272,1.16,1.16,0,0,1,1.319-1.314Zm1.318-.763a1.237,1.237,0,0,1-.085-.424c0-.509.552-.594.766-.594.425,0,.6.339.893,1.145a7.727,7.727,0,0,1,.467,1.611c0,.678-.723.678-.765.678a.675.675,0,0,1-.639-.424c-.042-.17-.3-.933-.34-1.06A6.054,6.054,0,0,0,199.847,18.946Zm2.424-.254a1.283,1.283,0,0,1-.085-.339c0-.466.51-.636.766-.636.467,0,.552.254.893.975a7.25,7.25,0,0,1,.51,1.738c0,.594-.639.678-.766.678-.467,0-.51-.17-.978-1.484C202.568,19.5,202.356,18.988,202.271,18.691Z" transform="translate(28.757 1.224)" fill="#fff"/>
    <path id="パス_517" data-name="パス 517" d="M212.356,35.63c0,.678-.3,1.272-1.361,1.272-.851,0-1.361-.339-1.361-1.272V28.592a31.117,31.117,0,0,1-4,1.611,8.7,8.7,0,0,1-1.956.466,1.347,1.347,0,0,1-1.276-1.442c0-.848.34-.933,1.7-1.314a26.627,26.627,0,0,0,9.1-4.537l1.744-1.484a1.506,1.506,0,0,1,.978-.466,1.481,1.481,0,0,1,1.446,1.4c0,.424-.17.678-.6,1.1a24.326,24.326,0,0,1-4.466,3.222v8.48Z" transform="translate(31.686 1.838)" fill="#fff"/>
    <path id="パス_518" data-name="パス 518" d="M219.066,24.913a1.231,1.231,0,0,1-1.445-1.314c0-1.314,1.02-1.314,1.445-1.314h5.019c0-.678,0-1.823.043-2.5.042-.594.212-1.23,1.36-1.23,1.488,0,1.488.848,1.488,1.653,0,.085,0,1.145-.042,2.12h5.146c2.594,0,2.637,1.653,2.637,3.561,0,.763-.17,6.784-.894,8.734-.808,2.289-2.466,2.459-4.508,2.459-2.339,0-3.359-.127-3.359-1.569a1.178,1.178,0,0,1,1.318-1.314c.34,0,1.914.17,2.254.17,1.658,0,1.829-.636,2.041-2.5.3-2.459.34-5.639.34-5.681,0-.848-.042-1.187-.851-1.187h-4.295a15.929,15.929,0,0,1-4.041,9.54c-.425.466-2.594,2.586-3.742,2.586a1.517,1.517,0,0,1-1.36-1.484c0-.594.467-.975,1.02-1.357,1.914-1.357,4.763-3.392,5.359-9.328h-4.933Z" transform="translate(34.204 1.363)" fill="#fff"/>
    <path id="パス_519" data-name="パス 519" d="M241.455,25.21c0,4.621-.3,7.293-2.212,9.794-1.36,1.823-1.956,1.908-2.381,1.908a1.65,1.65,0,0,1-1.617-1.484c0-.382.128-.636.639-1.145,2.169-2.12,2.721-3.392,2.721-9.158V20.292c0-.509.128-1.272,1.4-1.272.936,0,1.4.339,1.4,1.272V25.21Zm2.679-5.13c0-.636.212-1.272,1.4-1.272.893,0,1.4.339,1.4,1.272V32.8c0,.339,0,.594.34.594.681,0,2.636-.933,4.041-3.731a13.245,13.245,0,0,0,.808-2.2,1.088,1.088,0,0,1,1.148-.89c.383,0,1.531.17,1.531,1.229a11.7,11.7,0,0,1-1.787,4.537A9.85,9.85,0,0,1,246,36.7a1.677,1.677,0,0,1-1.914-1.908V20.08Z" transform="translate(37.12 1.405)" fill="#fff"/>
    <path id="パス_520" data-name="パス 520" d="M143.2,17.046c-.255-.721-.6-1.823-.766-2.247l-.043-.127a.867.867,0,0,0-.851-.594H138.99a.507.507,0,0,0-.467.212.454.454,0,0,0-.043.466c.043.212.6,1.738.851,2.5a.882.882,0,0,0,.936.551h2.3a.714.714,0,0,0,.6-.212A.569.569,0,0,0,143.2,17.046Z" transform="translate(21.1 0.622)" fill="#fff"/>
    <path id="パス_521" data-name="パス 521" d="M138.082,14.63a.83.83,0,0,0-.808-.551h-2.551a.7.7,0,0,0-.469.17.59.59,0,0,0-.085.466c.085.212.6,1.738.851,2.5a.882.882,0,0,0,.936.551h2.3c.34,0,.51-.085.554-.212a.682.682,0,0,0,.042-.594C138.635,16.241,138.125,14.8,138.082,14.63Z" transform="translate(20.391 0.622)" fill="#fff"/>
    <path id="パス_522" data-name="パス 522" d="M54.515,32.307a3.1,3.1,0,1,1-3.1-3.1A3.09,3.09,0,0,1,54.515,32.307Z" transform="translate(6.186 3.127)" fill="#fff"/>
    <path id="パス_523" data-name="パス 523" d="M62.572,13.556a2.326,2.326,0,0,0-1.361-3.1,2.659,2.659,0,0,0-3.19,1.4c-1.063,1.908-6.592,12.3-7.528,14.034s-2.084,4.2-3.062,3.816c-.893-.339-1.956-4.113-2.382-5.215-.808-1.908-2.424-4.2-5.1-3.6-2.041.424-3.232,2.035-5.1,5.6a31.091,31.091,0,0,1-2.594,4.494c-1.914,2.586-2.977-1.653-3.615-3.9-.851-2.968-2.382-7.165-5.784-7.165-1.871,0-3.913,1.1-6.379,5.13-1.4,2.417-4.848,9.031-5.316,10.176a2.29,2.29,0,0,0,1.191,3.137,2.561,2.561,0,0,0,3.232-1.145c2.382-3.731,3.062-5.173,4.3-6.869,1.318-1.823,3.1-3.434,4.466.933.851,2.756,2.382,7.25,6.422,7.292,2.424,0,4.933-2.077,6.124-4.07,1.318-2.247,1.659-3.477,2.679-4.537.51-.551,1.276-.763,2,.848.723,1.569,2.169,6.487,4.763,7.547,3.615,1.484,7.06-5.893,8.251-8.268C55.555,28.184,62.147,14.531,62.572,13.556Z" transform="translate(0 0)" fill="#fff"/>
    <path id="パス_524" data-name="パス 524" d="M84.176,14.915a1.154,1.154,0,0,0-.808-.254c-1.106,0-22.285.042-22.285.042a.841.841,0,0,0-.6.254.8.8,0,0,0-.213.551v2.8a.79.79,0,0,0,.766.763h.128s15.523,0,16.246-.042h.681c.468,0,.6.085.723.212.255.339,0,.848-.043.975a13.511,13.511,0,0,1-6.8,8.649l-.17.085-.128-.17c-.808-1.145-1.446-1.908-2.169-2.841l-.085-.127a1.38,1.38,0,0,0-1.021-.594H64.655a.5.5,0,0,0-.51.339.737.737,0,0,0,.043.594,83.834,83.834,0,0,1,7.4,11.193.919.919,0,0,0,.851.509H76.52a.5.5,0,0,0,.468-.3.62.62,0,0,0,0-.551,33.94,33.94,0,0,0-2.3-3.816l-.128-.212.213-.127c4.763-3.349,9.229-7.589,9.654-17.214A1.068,1.068,0,0,0,84.176,14.915Z" transform="translate(8.166 0.719)" fill="#fff"/>
    <path id="パス_525" data-name="パス 525" d="M103.668,14.66a.746.746,0,0,0-.595-.254h-3.7A1.149,1.149,0,0,0,98.48,15c-2.126,4.833-8.251,8.48-16.671,9.879-.553.127-.808.424-.808.806v2.925a.755.755,0,0,0,.255.551.918.918,0,0,0,.68.212,32.734,32.734,0,0,0,9.7-2.459l.34-.17v10.3a.772.772,0,0,0,.808.763h3.19a.743.743,0,0,0,.723-.721V24.5l.128-.085a18.4,18.4,0,0,0,7.017-9.2A.716.716,0,0,0,103.668,14.66Z" transform="translate(11.596 0.677)" fill="#fff"/>
    <path id="パス_526" data-name="パス 526" d="M117.384,24.709v-.254h7.1a1,1,0,0,0,.552-.212.779.779,0,0,0,.213-.509v-2.8a.576.576,0,0,0-.213-.509.84.84,0,0,0-.6-.254h-7.059v-5a.769.769,0,0,0-.808-.763h-3.148a.686.686,0,0,0-.552.254.7.7,0,0,0-.212.509v5H101.988a.8.8,0,0,0-.808.806v2.8a.8.8,0,0,0,.808.763H112.62v.254c-.382,6.105-3.317,7.844-8.8,8.946-.469.127-.766.339-.766.763v2.883a.6.6,0,0,0,.255.509.718.718,0,0,0,.6.17C113.131,36.792,116.916,32.934,117.384,24.709Z" transform="translate(14.935 0.677)" fill="#fff"/>
    <path id="パス_527" data-name="パス 527" d="M145.124,20.311a.7.7,0,0,0-.51-.212h-.127l-15.438.042v-5a.729.729,0,0,0-.213-.551.84.84,0,0,0-.594-.254h-2.978a.761.761,0,0,0-.766.763l.043,16.7c0,4.155,1.658,5.893,6.208,5.893h.383l13.95-.042a.783.783,0,0,0,.723-.763V34.048a.76.76,0,0,0-.766-.763H132.323a4.393,4.393,0,0,1-2.509-.466c-.639-.509-.681-1.272-.681-2.417V24.381l15.523-.042a.761.761,0,0,0,.766-.763v-2.8A.751.751,0,0,0,145.124,20.311Z" transform="translate(18.794 0.665)" fill="#fff"/>
  </g>
</svg>
