<svg xmlns="http://www.w3.org/2000/svg" xmlns:xlink="http://www.w3.org/1999/xlink" width="449" height="233" viewBox="0 0 449 233">
  <defs>
    <clipPath id="clip-path">
      <rect id="長方形_381" data-name="長方形 381" width="449" height="233" transform="translate(639 205)" fill="#fff" stroke="#707070" stroke-width="1"/>
    </clipPath>
  </defs>
  <g id="mainvisual" transform="translate(-639 -205)">
    <g id="マスクグループ_15" data-name="マスクグループ 15" clip-path="url(#clip-path)">
      <g id="グループ_674" data-name="グループ 674" transform="translate(0 10)">
        <g id="グループ_351" data-name="グループ 351" transform="translate(657 272.19)">
          <g id="グループ_350" data-name="グループ 350" transform="translate(10.84)">
            <rect id="長方形_162" data-name="長方形 162" width="3.613" height="10.84" rx="1.807" fill="#05b3ff"/>
            <rect id="長方形_175" data-name="長方形 175" width="3.613" height="10.84" rx="1.807" transform="translate(0 16.26)" fill="#05b3ff"/>
          </g>
          <g id="グループ_349" data-name="グループ 349" transform="translate(0 11.743)">
            <rect id="長方形_165" data-name="長方形 165" width="3.613" height="9.937" rx="1.807" transform="translate(25.293) rotate(90)" fill="#05b3ff"/>
            <rect id="長方形_164" data-name="長方形 164" width="3.613" height="9.937" rx="1.807" transform="translate(9.937) rotate(90)" fill="#05b3ff"/>
          </g>
        </g>
        <g id="グループ_346" data-name="グループ 346" transform="translate(694.037 233.347)">
          <rect id="長方形_169" data-name="長方形 169" width="3.613" height="19.873" rx="1.807" transform="translate(8.13)" fill="#05b3ff"/>
          <rect id="長方形_168" data-name="長方形 168" width="4.517" height="19.873" rx="2.258" transform="translate(19.873 8.13) rotate(90)" fill="#05b3ff"/>
        </g>
        <g id="グループ_347" data-name="グループ 347" transform="translate(1001.09 355.297)">
          <rect id="長方形_169-2" data-name="長方形 169" width="3.613" height="19.873" rx="1.807" transform="translate(8.13)" fill="#05b3ff"/>
          <rect id="長方形_168-2" data-name="長方形 168" width="4.517" height="19.873" rx="2.258" transform="translate(19.873 8.13) rotate(90)" fill="#05b3ff"/>
        </g>
        <path id="パス_441" data-name="パス 441" d="M356.466,8.3h1.113a1.906,1.906,0,1,0,0-3.812h-2.586V1.907a1.906,1.906,0,1,0-3.812,0V4.493H348.6a1.906,1.906,0,0,0,0,3.812h2.585v2.586a1.906,1.906,0,1,0,3.812,0V8.3Z" transform="translate(334.55 331.312)" fill="#05b3ff"/>
        <path id="パス_436" data-name="パス 436" d="M369.486,197.542H366.9v-2.586a1.906,1.906,0,0,0-3.812,0v2.586H360.5a1.906,1.906,0,1,0,0,3.812h2.585v2.586a1.906,1.906,0,1,0,3.812,0v-2.586h2.586a1.906,1.906,0,0,0,0-3.812" transform="translate(663.272 61.902)" fill="#05b3ff"/>
        <g id="グループ_348" data-name="グループ 348" transform="translate(1039.934 305.614)">
          <path id="パス_437" data-name="パス 437" d="M421.462,79.446a1.926,1.926,0,0,0-1.348.558,1.982,1.982,0,0,0-.558,1.348V84.7a1.968,1.968,0,0,0,.558,1.348,1.907,1.907,0,0,0,2.7,0,1.98,1.98,0,0,0,.558-1.348V81.352A1.969,1.969,0,0,0,422.81,80a1.939,1.939,0,0,0-1.348-.558" transform="translate(-411.507 -79.444)" fill="#05b3ff"/>
          <path id="パス_438" data-name="パス 438" d="M421.462,96.17a1.926,1.926,0,0,0-1.348.558,1.982,1.982,0,0,0-.558,1.348v3.344a1.968,1.968,0,0,0,.558,1.348,1.907,1.907,0,0,0,2.7,0,1.98,1.98,0,0,0,.558-1.348V98.076a1.969,1.969,0,0,0-.558-1.348,1.939,1.939,0,0,0-1.348-.558" transform="translate(-411.507 -83.417)" fill="#05b3ff"/>
          <path id="パス_439" data-name="パス 439" d="M414.251,90h-3.344a1.967,1.967,0,0,0-1.348.558,1.907,1.907,0,0,0,0,2.7,1.98,1.98,0,0,0,1.348.558h3.344a1.969,1.969,0,0,0,1.348-.558,1.907,1.907,0,0,0,0-2.7A1.981,1.981,0,0,0,414.251,90" transform="translate(-408.999 -81.952)" fill="#05b3ff"/>
          <path id="パス_440" data-name="パス 440" d="M430.975,90h-3.344a1.967,1.967,0,0,0-1.348.558,1.907,1.907,0,0,0,0,2.7,1.98,1.98,0,0,0,1.348.558h3.344a1.969,1.969,0,0,0,1.348-.558,1.907,1.907,0,0,0,0-2.7A1.981,1.981,0,0,0,430.975,90" transform="translate(-412.972 -81.952)" fill="#05b3ff"/>
        </g>
        <g id="グループ_673" data-name="グループ 673" transform="translate(666.19 206.137)">
          <g id="グループ_648" data-name="グループ 648" transform="translate(19.488 -25.803)">
            <path id="パス_1136" data-name="パス 1136" d="M306.849,112.172l-27.893,28.845-9.922,74.316,2.172,59.276h53.179l12.136-17.576L360.57,261.1l10.7-60.126-33.1-58.452L322.1,127.142Z" fill="#e8e8e8"/>
            <path id="パス_1134" data-name="パス 1134" d="M97,132.378s10.039,8.31,13.668,15.962,0,32.487,0,32.487v4.812L97,145.761V132.378Z" fill="#fff"/>
            <path id="パス_1135" data-name="パス 1135" d="M182.45,206.3l5.183-16.887,33.055,11.017,28.286-37.491,5.6-11.973,5.945-16.138,5.146-2.449v21.583L262.6,195.075V206.3l-22.8,28.013s-.974,2.754-11.678,2.565-38.518-14.433-38.518-14.433L184.16,219v-8.112Z" fill="#e8e8e8"/>
            <path id="パス_1133" data-name="パス 1133" d="M2.547,274.3H99.011l9.377-44.43,30.019-6.569,1.974-29.379-45.813,5.848-9.437-44.319-7.777-17.063-23.43-25s-27.578,19.426-30.579,35.747-1.091,35.708-6.29,67A400.458,400.458,0,0,1,2.547,274.3Z" fill="#fff"/>
            <path id="パス_759" data-name="パス 759" d="M380.112,212a2.554,2.554,0,0,1-2.77,1.127l-2.612-.515a263.732,263.732,0,0,0-3.5,26.853c-.627,9-1,18.7,1.777,27.433.407-2.913.806-5.826,1.217-8.738,2.263-16.029,4.263-32.184,7.135-48.135q-.618.991-1.245,1.976" transform="translate(-105.708 -59.877)" fill="#35cae9"/>
            <path id="パス_760" data-name="パス 760" d="M377.507,185.169c-.093.1-.182.2-.275.3a2.491,2.491,0,0,1-.754.542,45.629,45.629,0,0,0-.376,14.524l2.111.416c1.565-2.494,3.081-5.024,4.443-7.634a2.44,2.44,0,0,1,.586-.739q-2.866-3.7-5.735-7.407" transform="translate(-107.106 -52.791)" fill="#35cae9"/>
            <path id="パス_761" data-name="パス 761" d="M108.606,171.027c0-.005.008-.009.012-.014-7.547-7.006-15.737-13.752-24.734-18.7q-1.264,3.112-2.529,6.225c7.838,5.975,15.721,13.078,21.088,21.414l6.163-8.925" transform="translate(-23.194 -43.424)" fill="#fff"/>
            <path id="パス_762" data-name="パス 762" d="M123.241,205.783a2.346,2.346,0,0,1-.876-.547,45.905,45.905,0,0,1-7.331-8.825,2.373,2.373,0,0,1-.691.448c.355.7.7,1.409,1.013,2.127,3.733,8.466,5.9,17.46,7.782,26.538.1-6.58.193-13.16.1-19.741" transform="translate(-32.599 -55.996)" fill="#fff"/>
            <path id="パス_763" data-name="パス 763" d="M123.191,182.334l-3.873,5.608a2.3,2.3,0,0,1,1.037,1,34.383,34.383,0,0,0,5.661,7.143l3.917-1.959a55.109,55.109,0,0,0-3.743-13.254,2.6,2.6,0,0,1-3,1.461" transform="translate(-34.017 -51.566)" fill="#35cae9"/>
            <path id="パス_764" data-name="パス 764" d="M248.033,271.065a29.294,29.294,0,0,0,.668-5.123,2.053,2.053,0,0,1-1.245-1.594c-.594-2.955-4.141-5.951-7.083-6.677-2.371-.585-5.319.581-7.5,1.408-1.561.592-4.792,1.426-5.806,2.855a2.868,2.868,0,0,0,.433,3.54c1.216,1.222,2.78.668,4.319.308A52.659,52.659,0,0,0,238.7,263.6a2.016,2.016,0,0,1,2.769,1.282,2.362,2.362,0,0,1,.439.669c1.566,3.6,3.225,7.16,4.876,10.722a22.807,22.807,0,0,0,1.25-5.213" transform="translate(-64.612 -73.416)" fill="#fff"/>
            <path id="パス_765" data-name="パス 765" d="M227.845,299.243c-2.69-.645-6.354.673-8.326,2.479a3.434,3.434,0,0,0,.27,4.711c4.026-.341,8.648-.168,11.559-3.128-.592-1.812-1.526-3.587-3.5-4.061" transform="translate(-62.352 -85.265)" fill="#fff"/>
            <path id="パス_766" data-name="パス 766" d="M388.808,179.368c2.164-3.572,5.207-6.6,8.327-9.713,5.085-5.069,10.435-9.9,15.907-14.55l-3.28-4.374a46.252,46.252,0,0,0-19.513,12.208c-2.63,2.782-4.973,5.779-7.428,8.7l5.987,7.73" transform="translate(-109.14 -42.973)" fill="#fff"/>
            <path id="パス_767" data-name="パス 767" d="M472.488,287.788c.156.4.565.512,0,0" transform="translate(-134.704 -82.047)" fill="#35cae9"/>
            <path id="パス_768" data-name="パス 768" d="M144.648,251.524c-3.045-13.888-7.439-27.557-11.835-41.094.154,13.055-.407,26.107-.2,39.162a2.359,2.359,0,0,1-.3,1.225c.305,1.235.62,2.466.956,3.689a2.415,2.415,0,0,1-2.578,3.032v.175l13.305-1.971q.321-2.076.657-4.217" transform="translate(-37.258 -59.993)" fill="#35cae9"/>
            <path id="パス_769" data-name="パス 769" d="M196.972,276.243a62.883,62.883,0,0,0-.9,8.314c-.2,4.3-.911,11.946,2.645,15.179.027.025.044.052.069.077.655-.48,1.32-.95,1.978-1.427-1.4-1.09-1.5-3.765.73-4.352l4.9-1.29a2.381,2.381,0,0,1,1.36.024,10.347,10.347,0,0,1,1.161-2.377,2.4,2.4,0,0,1,.623-.874,2.329,2.329,0,0,1,.761-.643c4.148-3.258,11.245-5.043,15.594-1.516a9.829,9.829,0,0,1,1.465,1.5c-.3-2.643,3.944-3.613,4.839-.791.487,1.536,2.679,8.2,5.418,6.279,2.126-1.491-1.376-7.129-2.115-8.741-2.05-4.475-4.159-8.923-6.142-13.429-3.625,1.4-8.219,3-11.652,1.715a7.741,7.741,0,0,1-4.455-5.458c-3.838,2.131-6.705,5.763-10.97,7.108-2.317.731-3.6-1.878-2.73-3.565h-1.464a3.89,3.89,0,0,0-.365.919c-.224,1.12-.547,2.217-.752,3.344" transform="translate(-55.844 -76.53)" fill="#fff"/>
            <path id="パス_770" data-name="パス 770" d="M393.117,125.7a2.609,2.609,0,0,1-.273-.452c-2.439.01-4.879-.036-7.316-.072a2.563,2.563,0,0,1-2.366-1.8c-1.54-3.856-1.736-10.737-6.832-10.814a2.4,2.4,0,0,1-1.232-.345,14.729,14.729,0,0,1-5.393,6.576c-2.676,1.7-5.134-2.549-2.476-4.236,2.279-1.446,3.607-4.3,4.116-6.878a7.564,7.564,0,0,0-.082-4.026c-.618-1.641-2.188-2.375-3.381-.686-1.762,2.5-5.828.229-4.347-2.28a2.629,2.629,0,0,1-.669-.609,40.68,40.68,0,0,1-4.743-7.9c-5.671-1.716-9.257-5.439-11.715-10.892a10.171,10.171,0,0,0-.9,2.366,2.346,2.346,0,0,1,.534,2.158,17.338,17.338,0,0,0-.3,4.891,23.889,23.889,0,0,1,4.81-1,2.514,2.514,0,0,1,3.018,1.714,2.471,2.471,0,0,1-1.714,3.018c-1.659.258-3.521.274-5,1.15a2.571,2.571,0,0,1-.662.272c.05.779.074,1.565.049,2.358a17.888,17.888,0,0,1-2.613,8.575c-.872,1.474-5.657,6.165-5.411,7.006.267.914,2.064,2.156,2.685,3.043a14.667,14.667,0,0,1,1.805,3.578,18.086,18.086,0,0,1,.659,2.473,20.526,20.526,0,0,0,4.876-2.6c2.67-1.708,5.128,2.54,2.476,4.237-1.872,1.2-4.132,2.794-6.354,3.164a3.145,3.145,0,0,1-.365.034c.111,1.135.22,2.26.38,3.343.56,3.783.452,6.674,4.876,7.925,3.8,1.076,7.384-.251,10.975-1.413a2.39,2.39,0,0,1,2.386.631l5.339,6.608a2.535,2.535,0,0,1,.557,1.3,96.332,96.332,0,0,1,7.26-8.173A50.653,50.653,0,0,1,393.941,126.8l-.824-1.1m-44.474-22.267c-3.162,0-3.156-4.906,0-4.906s3.157,4.906,0,4.906" transform="translate(-96.42 -23.173)" fill="#fff"/>
            <path id="パス_771" data-name="パス 771" d="M390.307,114.777c1.951.031,3.9.054,5.856.043a65.129,65.129,0,0,1,6.735-13.053c2.677-4.156,5.4-7.2,5.094-12.436-.264-4.557-2.11-9.027-4.311-12.967-9.768-17.487-34.754-18.77-48.783-5.586a2.536,2.536,0,0,1-4.207-1.619,8.5,8.5,0,0,0-1.735,1.445c.242.826.485,1.681.728,2.528.969-1.373,3.128-1.848,3.986.071a16.02,16.02,0,0,0,5.222,6.968c-.177-2.623,4.013-3.565,4.831-.735a37.808,37.808,0,0,0,6.445,12.647c.016.02.024.041.039.061,3.769-1.463,8.127.771,9.1,5.666a13.582,13.582,0,0,1,.124,4.329c7.8.137,8.793,6.561,10.877,12.64" transform="translate(-99.485 -17.654)" fill="#35cae9"/>
            <path id="パス_772" data-name="パス 772" d="M490.279,367.505l-22.649-3.964c-1.01,2.037-2.9,3.648-4.616,5.139a44.658,44.658,0,0,0-4.01,3.572c-1.076,1.192-2.68,3.2-2.618,4.866.057,1.5,1.36,2.775,2.587,3.728a55.965,55.965,0,0,0-.149-6.078c-.312-3.145,4.6-3.113,4.906,0,.443,4.455.21,8.937.622,13.394.146,1.583-.158,4.877,2.79,4.046.507-.144,1.415-1.3,1.9-1.639,1.4-1,2.7-.811,4.077-1.431,1.332-.6,1.6-2.2,2.858-3.183,1.388-1.085,2.85-.924,4.485-1.07,4.245-.38,4.559-3.066,5.388-6.749.643-2.855,1.005-5.77,1.564-8.642a2.2,2.2,0,0,1,3.392-1.429c.05-.174.094-.348.134-.523a3.17,3.17,0,0,1-.658-.037" transform="translate(-130.113 -103.644)" fill="#fff"/>
            <path id="パス_773" data-name="パス 773" d="M142.848,111.219a24.559,24.559,0,0,1-2.647-3.832,17.966,17.966,0,0,1-2.309-8.8c.006-1.458.154-2.882.3-4.3a2.309,2.309,0,0,1-1.511-.337c-1.5-.887-3.38-.9-5.059-1.165a2.472,2.472,0,0,1-1.714-3.018,2.531,2.531,0,0,1,3.018-1.713,19.755,19.755,0,0,1,5.515,1.283,14.746,14.746,0,0,0-.331-2.567,2.451,2.451,0,0,1,1.915-2.972q-.287-1.729-.576-3.458a1.909,1.909,0,0,1-1.489-.7,8.157,8.157,0,0,1-3.48,1.05,2.621,2.621,0,0,1-2.8,1.542c-3.324-.492-6.468,2.579-9.464,5.355a40.392,40.392,0,0,0-.9,4.868,2.486,2.486,0,0,1,1.516,4.164,14.77,14.77,0,0,1-2.573,2.076,9.031,9.031,0,0,1-2.371,4.592c.52,2.24-2.276,4.546-3.98,2.422-1.927-2.4-4.525-3.334-5.831.137-1.625,4.312,1.824,7.96,5.358,9.814,2.8,1.469.317,5.7-2.476,4.236a16.419,16.419,0,0,1-6.449-6.014,14.818,14.818,0,0,1-1.663,2.319,2.344,2.344,0,0,1,1.311,3.469c-1.69,2.815-3.795,5.812-7.155,6.676-2.4.618-4.893-.149-7.327-.051a2.177,2.177,0,0,1-1.657-.588l-.533,1.313c10.094,5.432,19.27,13.13,27.621,20.987a2.581,2.581,0,0,1,.2-.322l5.662-7.443a2.523,2.523,0,0,1,2.77-1.127c3.9,1.263,7.86,2.71,11.9,1.124s3.635-4.425,4.189-8.056c.124-.815.217-1.652.3-2.5a23.537,23.537,0,0,1-6.531-3.472,2.506,2.506,0,0,1-.88-3.356,2.474,2.474,0,0,1,3.356-.88,23.259,23.259,0,0,0,4.658,2.713,18.49,18.49,0,0,1,.739-2.942,15.1,15.1,0,0,1,2.154-4.071c.39-.523,2.735-2.459,2.7-2.918-.055-.734-2.933-2.885-3.485-3.549m-8.054-7.632c-3.162,0-3.157-4.906,0-4.906s3.156,4.906,0,4.906" transform="translate(-24.942 -22.707)" fill="#fff"/>
            <path id="パス_774" data-name="パス 774" d="M100.11,97.567a7.291,7.291,0,0,1,7.2-4.469c0-.037-.012-.074-.012-.111a2.53,2.53,0,0,1,2.453-2.453,9.968,9.968,0,0,0,5.819-3,2.216,2.216,0,0,1,1.952-.695,40.392,40.392,0,0,1,.9-4.868,21.43,21.43,0,0,1-4.628,3.582,22.125,22.125,0,0,1-13.254,1.808c-3.117-.463-1.784-5.189,1.3-4.731,6.476.962,11.255-1.867,15.762-6.159,3.364-3.2,6.837-5.289,11.585-4.585,1.773.262,2.1,1.9,1.491,3.188a8.155,8.155,0,0,0,3.479-1.051,2.178,2.178,0,0,1-.448-1.062c-.207-1.392-.27-3.423-1.1-4.617-1.173-1.689-4.634-1.72-6.555-2.126l-14.2-3c-4.911-1.039-9.816-2.23-14.759-3.112-3.246-.58-10.125.165-9.754,5.03.189,2.469-2.771,2.98-4.183,1.589a7,7,0,0,0-.786,1.463c.054-.013.106-.029.16-.041,3.078-.706,4.38,4.026,1.3,4.731-11.664,2.674-10.363,17.306-8.309,26.163,1.475,6.358,8.389,10.571,9.152,17.093a2.445,2.445,0,0,1,1.2-.357c1.832-.073,3.688.451,5.5.291,2.336-.205,3.662-2.687,4.742-4.486a2.3,2.3,0,0,1,2.925-.993,14.858,14.858,0,0,0,1.663-2.32,10.952,10.952,0,0,1-.607-10.7" transform="translate(-21.147 -17.089)" fill="#fff"/>
            <path id="パス_775" data-name="パス 775" d="M128.659,109.847a2.59,2.59,0,0,1,.51,1.047,9.026,9.026,0,0,0,2.371-4.591,15.36,15.36,0,0,1-4.493,1.93,10.431,10.431,0,0,1,1.611,1.615" transform="translate(-36.221 -30.306)" fill="#fff"/>
            <path id="パス_776" data-name="パス 776" d="M140.04,246.037a24.792,24.792,0,0,1,2.91-2.42c-.026-.025-.042-.051-.069-.077-3.557-3.233-2.847-10.878-2.645-15.179a62.87,62.87,0,0,1,.9-8.314c.205-1.127.528-2.225.752-3.344a3.865,3.865,0,0,1,.365-.919h0c.172-.344.238-.5-.265-.159,2.4-1.63.825-4.886-1.889-4.483l-28.31,4.194q.213-1.38.428-2.777a2.355,2.355,0,0,0,.124-.819c2.449-16.118,4.528-33.756-2.432-48.712-1.019-2.188-3.726-1.243-4.352.6a27.435,27.435,0,0,1,1.779,5.553,27.435,27.435,0,0,0-1.779-5.553,2.468,2.468,0,0,0,.116,1.879c4.668,10.032,4.736,21.755,3.533,33.161-2.905-10.779-6.394-21.439-9.829-32.021l.519-.26a2.507,2.507,0,0,0,1.127-2.77,84.329,84.329,0,0,0-3-12.444c-.739-1.088-1.461-2.17-2.137-3.251.676,1.081,1.4,2.163,2.137,3.251a40.7,40.7,0,0,0-1.618-4.026,2.322,2.322,0,0,0-.653-.851l3.3-4.334c6.523,1.9,14.389,2.751,18.889-3.545,1.737-2.431,1.431-5.179,1.842-8.005.322-2.206.582-4.413.834-6.631.392-3.458,2.058-5.32,4.252-7.912a4.875,4.875,0,0,0,.015-6.925c-3.436-3.98-6.972-6.988-7.02-12.725-.037-4.524,1.057-8.6.041-13.119a2.261,2.261,0,0,0-.668-1.2c0,1.222-.089,2.505-.089,3.881,0-1.376.09-2.659.089-3.881a2.544,2.544,0,0,0-4.062,2.5,14.762,14.762,0,0,1,.331,2.566,19.78,19.78,0,0,0-5.515-1.283,2.531,2.531,0,0,0-3.018,1.714,2.472,2.472,0,0,0,1.714,3.017c1.679.262,3.562.278,5.059,1.165a2.314,2.314,0,0,0,1.511.338c-.144,1.414-.292,2.838-.3,4.3a17.964,17.964,0,0,0,2.309,8.8,24.55,24.55,0,0,0,2.647,3.833c.552.664,3.43,2.814,3.485,3.548.034.458-2.311,2.394-2.7,2.918a15.114,15.114,0,0,0-2.154,4.072,18.482,18.482,0,0,0-.739,2.941,23.256,23.256,0,0,1-4.658-2.712,2.473,2.473,0,0,0-3.356.88,2.506,2.506,0,0,0,.88,3.356,23.557,23.557,0,0,0,6.531,3.472c-.086.846-.179,1.683-.3,2.5-.553,3.631-.137,6.466-4.189,8.056s-8.007.138-11.9-1.124a2.524,2.524,0,0,0-2.77,1.127l-5.662,7.444a2.524,2.524,0,0,0-.2.322c-8.351-7.857-17.527-15.556-27.621-20.987q.267-.657.533-1.314a2.176,2.176,0,0,0,1.657.588c2.434-.1,4.923.67,7.327.051,3.361-.864,5.465-3.861,7.155-6.676a2.343,2.343,0,0,0-1.311-3.469c-1.665,1.975-3.615,3.837-4.1,6.283.489-2.446,2.439-4.307,4.1-6.283a2.3,2.3,0,0,0-2.925.993c-1.08,1.8-2.406,4.281-4.742,4.486-1.816.16-3.672-.364-5.5-.291a2.445,2.445,0,0,0-1.2.357c-.762-6.522-7.677-10.735-9.152-17.093C52.338,93.432,51.037,78.8,62.7,76.126c3.076-.7,1.774-5.436-1.3-4.731-.054.012-.106.029-.16.041a7.763,7.763,0,0,0-.509,2.893,7.763,7.763,0,0,1,.509-2.893c-10.152,2.433-13.9,13.3-13.11,22.742.415,4.952,1.08,10.348,3.711,14.652,2.3,3.757,7.186,7.712,6.843,12.469-.038.074-.083.139-.116.22l-4.527,11.143c-1.593-.273-2.872,1.579-2.493,3.2a7.88,7.88,0,0,1,1.824-.211,7.88,7.88,0,0,0-1.824.211,2.5,2.5,0,0,0,.994,1.466C62.964,144.934,74.157,154.8,79.023,167c6.272,15.724,7.8,32.906,12.258,49.148.834,3.04,5.568,1.749,4.731-1.3-.335-1.223-.651-2.454-.956-3.689a2.352,2.352,0,0,0,.3-1.225c-.2-13.055.355-26.107.2-39.162,4.4,13.537,8.79,27.206,11.835,41.094q-.333,2.14-.656,4.217l-18.284,2.709q-3.906-7.172-7.71-14.4c-4.652-8.841-8.571-18.151-13.4-26.874-4.724-8.526-14.417-18.027-24.662-18.418a19.992,19.992,0,0,0-12.572,4.283,60.9,60.9,0,0,1,19.342-21.764,2.65,2.65,0,0,0-.515-4.548c-2.135,1.546-3.515,4.15-4.558,6.759,1.043-2.609,2.424-5.212,4.558-6.759a2.017,2.017,0,0,0-1.961.312c-8.357,5.934-15.667,13.188-20.541,22.284A65.081,65.081,0,0,0,20.546,175.8c-.009.036-.019.073-.025.109q-.9,3.912-1.475,7.9C15.858,205.974,16.45,228.5,12,250.472,8.977,265.427,4.544,280.045.117,294.632a2.652,2.652,0,0,0-.093.469H5.1c4.715-15.539,9.414-31.131,12.371-47.12,2.873-15.54,2.614-31.175,4.422-46.808.927-8.019,1.542-16.166,3.343-24.054,3.993-8.667,13.928-16.692,23.586-11.348,8.833,4.889,13.552,12.533,17.7,21.349,5.814,12.35,12.335,24.395,18.894,36.362a2.38,2.38,0,0,0,4.093.079l46.971-6.959c-.955,3.708-.949,8.243-1.105,10.881-.312,5.262-.727,13.044,2.578,17.836a12.727,12.727,0,0,0,2.9-.1,12.727,12.727,0,0,1-2.9.1,9.754,9.754,0,0,0,1.457,1.692c2.3,2.095,5.721-1.258,3.538-3.393a24.792,24.792,0,0,0-2.91,2.42M58.168,135.449l2.529-6.225c9,4.948,17.188,11.694,24.734,18.7,0,.005-.008.009-.012.014l-6.163,8.925c-5.366-8.335-13.25-15.438-21.088-21.414m32.378,54.413c-1.881-9.078-4.049-18.072-7.782-26.538-.316-.718-.658-1.426-1.013-2.127a2.373,2.373,0,0,0,.691-.448,45.9,45.9,0,0,0,7.331,8.825,2.341,2.341,0,0,0,.876.547c.089,6.581-.006,13.161-.1,19.741M92,164.854a34.406,34.406,0,0,1-5.661-7.143,2.3,2.3,0,0,0-1.036-1L89.18,151.1a2.6,2.6,0,0,0,3-1.461A55.092,55.092,0,0,1,95.922,162.9L92,164.854" transform="translate(-0.007 -20.334)" fill="#323232"/>
            <path id="パス_777" data-name="パス 777" d="M.017,384.34c-.321,2.682,3.957,3.69,4.823.834l.253-.834Z" transform="translate(0 -109.573)" fill="#323232"/>
            <path id="パス_778" data-name="パス 778" d="M142.2,295.578a8.987,8.987,0,0,0-5.523,2.08,8.987,8.987,0,0,1,5.523-2.08,2.182,2.182,0,0,0-2.661-1.07c-7.77,2.316-15.663,4.321-23.608,5.932-6.223,1.261-12.534,2.278-18.813,3.22-4.442.666-10.485,1.564-14.689-.452-5.034-2.412-9.149-9.234-12.351-13.525-5.176-6.935-10-14.133-14.7-21.4-3.75-5.792-7.45-11.627-10.938-17.581-1.6-2.723-5.837-.257-4.237,2.476A421.466,421.466,0,0,0,65.841,292.16c3.815,5.112,7.955,11.418,13.465,14.891,8.3,5.235,21.657.857,30.455-.54,3.7-.588,7.394-1.294,11.067-2.088q.157-.93.312-1.86-.155.931-.312,1.86c6.739-1.456,13.42-3.22,20.012-5.185a2.449,2.449,0,0,0,1.357-3.66" transform="translate(-11.359 -71.138)" fill="#323232"/>
            <path id="パス_779" data-name="パス 779" d="M312.752,284.326l4.129,9.289c1.28,2.88,5.508.387,4.236-2.476l-4.129-9.289c-1.28-2.879-5.508-.386-4.236,2.476" transform="translate(-89.097 -79.99)" fill="#323232"/>
            <path id="パス_780" data-name="パス 780" d="M315.383,187.991a21.615,21.615,0,0,0-5,8.056c-1.095,2.986-1.154,6.215-2.01,9.156-1.19,4.085-4.159,8.562-6.4,12.146-3.5,5.58-7.6,10.836-11.278,16.308-3.958,5.892-8.033,11.685-12.287,17.366a2.4,2.4,0,0,0-.371.731l-32.6-10.577a2.3,2.3,0,0,0-1.278-.061,15.385,15.385,0,0,0-11-8.349c-3.469-.47-7.009.736-10.177,2.022-2.65,1.076-6.394,1.994-7.848,4.678-.052.1-.091.2-.138.3a24.511,24.511,0,0,0-6.494,3.527c-1.917,1.508-3.981,3.694-6.165,4.382a2.341,2.341,0,0,0-1.426,1.167h0c-.872,1.686.413,4.294,2.73,3.564,4.264-1.345,7.131-4.976,10.97-7.108a7.741,7.741,0,0,0,4.455,5.459c3.434,1.287,8.027-.311,11.652-1.715,1.984,4.505,4.093,8.953,6.142,13.429.739,1.611,4.241,7.251,2.115,8.74-2.738,1.919-4.931-4.743-5.418-6.279-.9-2.822-5.141-1.852-4.839.791a9.857,9.857,0,0,0-1.465-1.5c-4.349-3.528-11.445-1.742-15.594,1.516a2.335,2.335,0,0,0-.761.642,2.415,2.415,0,0,0-.623.874,10.364,10.364,0,0,0-1.16,2.378,2.378,2.378,0,0,0-1.36-.024l-4.9,1.29c-2.228.586-2.132,3.262-.73,4.352a26.736,26.736,0,0,0,3.289-2.7,26.736,26.736,0,0,1-3.289,2.7,2.261,2.261,0,0,0,2.035.378l4.776-1.257a8.221,8.221,0,0,0,3,4.3c1.84,1.426,4.45.623,6.641.444a20.008,20.008,0,0,0,8.319-2.05c1.989-1.117,4.162-2.876,4.324-5.154a8.774,8.774,0,0,0,4.1,3.663,7.649,7.649,0,0,0,6.96-.546,2.484,2.484,0,0,0,1.6,3.079l32.735,11.16c5.966,2.034,12.966,4.427,19.249,2.223,4.339-1.521,7.288-7.579,9.859-11.027l11.356-15.221a1.938,1.938,0,0,0,.254-2.146,33.529,33.529,0,0,0-4.807,4.555,33.529,33.529,0,0,1,4.807-4.555,2.712,2.712,0,0,0-4.49-.33l-8.5,11.388-6.091,8.164c-.864,1.157-2.057,3.621-3.3,4.423-2.787,1.8-8.955.352-11.95-.447-1.734-.462-3.389-1.179-5.087-1.758l-17.442-5.947-15.293-5.213a2.276,2.276,0,0,0-1.235-.086c.053-.087.11-.169.159-.26,2.027-3.8-.874-8.336-2.436-11.775-.087-.19-.175-.38-.262-.57a2.406,2.406,0,0,0,1.722-1.079c1.373-2.01,1.789-4.918,2.221-7.257a41.069,41.069,0,0,0,.846-5.768l31.48,10.215a2.276,2.276,0,0,0,2.994-2.258,2.509,2.509,0,0,0,1.973-1.034c8.036-10.732,15.856-21.87,23.2-33.089a80.627,80.627,0,0,0,6.488-12.148c2.461-5.749,1.675-11.964,6.524-16.8,1.649-1.646.2-3.954-1.573-4.166a17.575,17.575,0,0,0-2.3,3.494,17.575,17.575,0,0,1,2.3-3.494,2.242,2.242,0,0,0-1.9.7M214.637,274.56a3.435,3.435,0,0,1-.27-4.712c1.971-1.805,5.635-3.123,8.326-2.479,1.976.474,2.911,2.249,3.5,4.061-2.91,2.96-7.532,2.787-11.558,3.129m25.983-23.519a22.807,22.807,0,0,1-1.25,5.213c-1.651-3.562-3.31-7.12-4.876-10.722a2.362,2.362,0,0,0-.439-.669,2.016,2.016,0,0,0-2.769-1.282,52.666,52.666,0,0,1-6.882,2.177c-1.54.36-3.1.914-4.319-.308a2.868,2.868,0,0,1-.433-3.54c1.014-1.429,4.244-2.263,5.806-2.855,2.184-.826,5.132-1.992,7.5-1.408,2.942.726,6.489,3.721,7.083,6.676a2.053,2.053,0,0,0,1.245,1.594,29.294,29.294,0,0,1-.668,5.123" transform="translate(-57.2 -53.392)" fill="#323232"/>
            <path id="パス_781" data-name="パス 781" d="M116.263,298.2l2.608-7.811c1-3-3.734-4.289-4.731-1.3l-2.608,7.811c-1,3,3.734,4.289,4.731,1.3" transform="translate(-31.758 -81.933)" fill="#323232"/>
            <path id="パス_782" data-name="パス 782" d="M141.733,69.6c-.735-4.943-2.085-8.127-7.133-9.335-7.572-1.811-15.264-3.227-22.881-4.838-5.6-1.185-13.14-4.164-18.823-1.877C89.3,55,85.417,58.979,85.73,63.08a2.431,2.431,0,0,0,.723,1.589A10.156,10.156,0,0,1,87.61,63.3a10.156,10.156,0,0,0-1.157,1.368c1.412,1.392,4.372.881,4.183-1.589-.371-4.865,6.508-5.61,9.754-5.031,4.942.882,9.847,2.074,14.759,3.112l14.2,3c1.921.407,5.382.437,6.555,2.126.828,1.195.89,3.226,1.1,4.616a2.183,2.183,0,0,0,.448,1.063,8.387,8.387,0,0,0,1.672-1.31,8.387,8.387,0,0,1-1.672,1.31,2.378,2.378,0,0,0,3.3.077,8.651,8.651,0,0,0-1.627-2.2,8.651,8.651,0,0,1,1.627,2.2,2.55,2.55,0,0,0,.983-2.444" transform="translate(-24.436 -15.028)" fill="#323232"/>
            <path id="パス_783" data-name="パス 783" d="M147.225,333.14a66.454,66.454,0,0,1-2.034,7.822,66.454,66.454,0,0,0,2.034-7.822c-1.273-.939-3.364-.773-3.8,1.2q-3.874,17.62-7.75,35.242h5.017q3.732-16.969,7.464-33.938a2.369,2.369,0,0,0-.933-2.508" transform="translate(-38.681 -94.819)" fill="#323232"/>
            <path id="パス_784" data-name="パス 784" d="M135.582,384.34q-.085.387-.17.774c-.677,3.077,4.051,4.392,4.731,1.3l.457-2.079Z" transform="translate(-38.586 -109.573)" fill="#323232"/>
            <path id="パス_785" data-name="パス 785" d="M495.178,256.5c-.192-3.326-1.267-5.969-2.57-9.033q-3.543-8.327-7.835-16.307c-7.353-13.7-16.249-26.7-27.2-37.784a2.208,2.208,0,0,0-2.1-.67A16.127,16.127,0,0,1,457,197.227a16.127,16.127,0,0,0-1.522-4.522,2.48,2.48,0,0,0-1.373,4.139,154.99,154.99,0,0,1,24.28,32.887q4.479,7.917,8.236,16.218c1.4,3.106,3.251,6.37,3.6,9.813.709,6.99-.7,14.46-1.766,21.339-1.271,8.209-2.841,16.373-4.532,24.506q-1.251,6.015-2.617,12.006l-21.091-3.691,3.331-34.278c.478-4.912,1.817-10.489,1.5-15.428-.09-1.4-.747-2.081-1.576-3.172q-3.195-4.2-6.423-8.373c-7.713-9.982-15.491-19.938-23.731-29.492-2.066-2.395-5.523,1.088-3.469,3.469,7.06,8.184,13.763,16.676,20.4,25.2q3.963,5.088,7.876,10.216a15.758,15.758,0,0,0,1.886,2.478l.009.008a30.656,30.656,0,0,0-.319,4.2q-.458,4.7-.914,9.408-1.127,11.6-2.255,23.206-.708,7.288-1.416,14.575a2.032,2.032,0,0,0,.287,1.158c-.9,1.652-3.633,3.422-4.716,4.341a23.941,23.941,0,0,0-5.2,5.691,8.9,8.9,0,0,0-1.431,6.564h0c.582,2.879,2.79,5.358,5.761,7.451a2.154,2.154,0,0,0,1.441.434,20.964,20.964,0,0,0,1.448,7.464,6.373,6.373,0,0,0,5.024,4.057c2.587.259,3.923-1.436,5.833-2.777,1.99-1.4,4.477-.71,6.232-2.716,1.372-1.568,1.188-2.311,3.723-2.422,1.223-.054,2.213.248,3.419-.213,6.243-2.384,6.431-13.595,7.46-18.89a2.469,2.469,0,0,0-1.338-2.733c-.446,1.539-1.22,3.078-.707,4.617-.513-1.539.261-3.078.707-4.617a2.2,2.2,0,0,0-3.392,1.429c-.558,2.872-.922,5.787-1.563,8.642-.829,3.683-1.143,6.37-5.388,6.749-1.636.146-3.1-.015-4.485,1.069-1.259.985-1.526,2.582-2.858,3.183-1.373.619-2.672.434-4.076,1.431-.483.342-1.391,1.5-1.9,1.639-2.948.831-2.643-2.463-2.79-4.046-.412-4.457-.179-8.939-.622-13.394-.309-3.113-5.218-3.145-4.906,0a55.963,55.963,0,0,1,.149,6.078c-1.227-.952-2.531-2.229-2.587-3.728-.062-1.664,1.541-3.674,2.618-4.866a44.634,44.634,0,0,1,4.009-3.572c1.715-1.492,3.607-3.1,4.616-5.14l22.649,3.964a3.169,3.169,0,0,0,.658.037,4.026,4.026,0,0,0-.024-2.22,4.026,4.026,0,0,1,.024,2.22,2.359,2.359,0,0,0,2.359-1.751c2.964-12.642,5.564-25.411,7.571-38.241,1.14-7.289,2.486-14.926,2.057-22.333m-35.027,4.167c.565.512.156.4,0,0" transform="translate(-122.368 -54.925)" fill="#323232"/>
            <path id="パス_786" data-name="パス 786" d="M152.714,111.178c3.157,0,3.162-4.906,0-4.906s-3.162,4.906,0,4.906" transform="translate(-42.862 -30.298)" fill="#323232"/>
            <path id="パス_787" data-name="パス 787" d="M139,76.6c-4.748-.7-8.221,1.381-11.585,4.586-4.505,4.291-9.284,7.12-15.762,6.158-3.088-.458-4.421,4.268-1.3,4.731A22.134,22.134,0,0,0,123.6,90.27a21.432,21.432,0,0,0,4.628-3.583,11.61,11.61,0,0,1,1.059-2.714,11.61,11.61,0,0,0-1.059,2.714c3-2.775,6.14-5.846,9.465-5.354a2.621,2.621,0,0,0,2.8-1.542c-.939.091-1.936.093-3.025.093,1.09,0,2.087,0,3.025-.093.611-1.284.282-2.926-1.492-3.188" transform="translate(-30.952 -21.8)" fill="#323232"/>
            <path id="パス_788" data-name="パス 788" d="M127.42,97.562a2.217,2.217,0,0,0-1.952.695,9.959,9.959,0,0,1-5.819,2.995,2.531,2.531,0,0,0-2.453,2.454c0,.036.01.074.012.111a7.291,7.291,0,0,0-7.2,4.469,10.955,10.955,0,0,0,.607,10.7,7.006,7.006,0,0,0,.775-2.027,7.006,7.006,0,0,1-.775,2.027A16.419,16.419,0,0,0,117.062,125c2.793,1.466,5.276-2.767,2.476-4.236-3.534-1.854-6.983-5.5-5.358-9.814,1.307-3.471,3.9-2.539,5.831-.137,1.705,2.125,4.5-.182,3.98-2.422A4.871,4.871,0,0,1,121.2,109.6a4.871,4.871,0,0,0,2.792-1.208,2.591,2.591,0,0,0-.51-1.047,10.468,10.468,0,0,0-1.611-1.616,15.339,15.339,0,0,0,4.493-1.929,58.555,58.555,0,0,0,1.057-6.241" transform="translate(-31.042 -27.808)" fill="#323232"/>
            <path id="パス_789" data-name="パス 789" d="M135.907,101.736a2.486,2.486,0,0,0-1.517-4.164,58.551,58.551,0,0,1-1.057,6.241,14.779,14.779,0,0,0,2.574-2.077" transform="translate(-38.013 -27.817)" fill="#323232"/>
            <path id="パス_790" data-name="パス 790" d="M373.926,384.34c.1,3.049,4.83,3.056,4.89,0Z" transform="translate(-106.604 -109.573)" fill="#323232"/>
            <path id="パス_791" data-name="パス 791" d="M378.312,309.271a2.289,2.289,0,0,0-2.015-2.332,61.479,61.479,0,0,1-1.435,6.26,61.479,61.479,0,0,0,1.435-6.26,2.354,2.354,0,0,0-2.89,2.332q.181,26.458.363,52.916c0,.027.007.049.009.076h4.891c0-.026.007-.049.007-.076q-.182-26.458-.364-52.916" transform="translate(-106.456 -87.496)" fill="#323232"/>
            <path id="パス_792" data-name="パス 792" d="M413.373,340.692a126.036,126.036,0,0,0,25.74-12.925c2.628-1.726.173-5.976-2.476-4.237a120.477,120.477,0,0,1-24.568,12.431c-2.938,1.081-1.669,5.824,1.3,4.731" transform="translate(-117.004 -92.12)" fill="#323232"/>
            <path id="パス_793" data-name="パス 793" d="M75.638,351.429A112.107,112.107,0,0,1,42.9,359.787c-3.112.31-3.144,5.22,0,4.906a119.947,119.947,0,0,0,35.214-9.029c2.9-1.23.4-5.458-2.476-4.236" transform="translate(-11.562 -100.128)" fill="#323232"/>
            <path id="パス_794" data-name="パス 794" d="M351.861,110.309c3.157,0,3.162-4.906,0-4.906s-3.162,4.906,0,4.906" transform="translate(-99.638 -30.05)" fill="#323232"/>
            <path id="パス_795" data-name="パス 795" d="M424.649,145.558l-18.043-16.928a2.3,2.3,0,0,0-2.449-.526,2.435,2.435,0,0,0-.755-1.493c-.019-.026-.029-.053-.049-.08l-8.088-10.783c-.011-.016-.025-.026-.036-.04a43.69,43.69,0,0,1,2.72-6.391c2.468-4.911,6.494-9.207,8.585-14.226,3.689-8.855-1.075-19.8-6.215-27.068-12.266-17.356-39.544-16.3-54.041-2.671a2.166,2.166,0,0,0-.739,1.849,7.941,7.941,0,0,1,1.665-.779,7.941,7.941,0,0,0-1.665.779,2.537,2.537,0,0,0,4.209,1.62c14.029-13.185,39.014-11.9,48.782,5.586,2.2,3.939,4.046,8.409,4.311,12.967.3,5.232-2.418,8.279-5.094,12.436a65.152,65.152,0,0,0-6.735,13.053c-1.952.011-3.9-.012-5.857-.043-2.084-6.079-3.075-12.5-10.876-12.639a13.628,13.628,0,0,0-.124-4.329c-.973-4.894-5.332-7.129-9.1-5.666-.015-.02-.023-.04-.038-.061a37.781,37.781,0,0,1-6.446-12.647c-.818-2.831-5.009-1.888-4.831.734a16.014,16.014,0,0,1-5.222-6.968c-.857-1.918-3.016-1.444-3.986-.07.345,1.2.691,2.388,1.037,3.424-.345-1.036-.691-2.219-1.037-3.424a2.511,2.511,0,0,0-.25,2.546c2.459,5.5,6.055,9.253,11.755,10.978a40.683,40.683,0,0,0,4.743,7.9,2.653,2.653,0,0,0,.669.609c-1.481,2.509,2.585,4.776,4.347,2.279,1.193-1.689,2.762-.954,3.381.686a7.557,7.557,0,0,1,.082,4.026c-.509,2.576-1.837,5.432-4.116,6.878-2.659,1.687-.2,5.934,2.476,4.237a14.738,14.738,0,0,0,5.392-6.576,2.409,2.409,0,0,0,1.232.346c5.1.076,5.292,6.957,6.833,10.814a2.562,2.562,0,0,0,2.365,1.8c2.437.036,4.877.082,7.316.071a2.56,2.56,0,0,0,.273.452l.824,1.1a50.649,50.649,0,0,0-18.173,11.144,96.459,96.459,0,0,0-7.26,8.172,2.535,2.535,0,0,0-.557-1.3l-5.339-6.607a2.39,2.39,0,0,0-2.386-.631c-3.591,1.163-7.173,2.489-10.974,1.413-4.423-1.251-4.316-4.142-4.875-7.925-.16-1.083-.27-2.208-.38-3.342a3.53,3.53,0,0,0,.365-.034c2.222-.37,4.481-1.967,6.353-3.165,2.652-1.7.194-5.944-2.476-4.236a20.548,20.548,0,0,1-4.876,2.594,17.949,17.949,0,0,0-.659-2.472,14.658,14.658,0,0,0-1.805-3.579c-.621-.886-2.417-2.128-2.685-3.042-.246-.841,4.539-5.533,5.411-7.006a17.883,17.883,0,0,0,2.613-8.576c.026-.794,0-1.579-.049-2.358a2.569,2.569,0,0,0,.662-.271c1.479-.877,3.341-.892,5-1.151a2.471,2.471,0,0,0,1.713-3.018,2.514,2.514,0,0,0-3.018-1.713,23.937,23.937,0,0,0-4.81,1,17.335,17.335,0,0,1,.3-4.891A2.57,2.57,0,0,0,340.4,75.48c-.221.828-.4,1.636-.55,2.389.15-.753.33-1.561.55-2.389a2.133,2.133,0,0,0-1.175,1.547c-1,4.465.064,8.52.04,12.988-.03,5.636-3.519,8.681-6.938,12.574a4.771,4.771,0,0,0-.26,6.549c2.127,2.734,4.068,4.562,4.475,8.151.213,1.885.362,3.79.655,5.665.471,3.012.17,6.252,2,8.837,4.432,6.262,12.3,5.391,18.747,3.506l4.456,5.515a2.028,2.028,0,0,0,1.519.825c-.864,1.012-1.747,2.009-2.659,2.978a2.025,2.025,0,0,0-1.835,1.137,10.454,10.454,0,0,1,5.771-.835,10.454,10.454,0,0,0-5.771.835,2.569,2.569,0,0,0-.217.62,51.707,51.707,0,0,0-.4,19.712,281.76,281.76,0,0,0-3.859,29.2c-.187,2.682-.345,5.433-.41,8.207a158.137,158.137,0,0,1-3.7-18.223c-.441-3.113-5.169-1.789-4.731,1.3a160.636,160.636,0,0,0,10.014,37.153,9.857,9.857,0,0,0,1.709-2.767,9.857,9.857,0,0,1-1.709,2.767q1.377,3.424,2.895,6.767a2.022,2.022,0,0,0,1.385,1.221,2.715,2.715,0,0,0,3.876,2.511c.056-.585.094-1.185.094-1.82,0,.636-.039,1.235-.094,1.82a1.964,1.964,0,0,0,.864-1.471q2.92-21.346,6.068-42.661c1.313-8.851,2.616-17.71,4.186-26.519a41.258,41.258,0,0,1,1.375-6.692c1.231-3.414,4.429-6.309,6.887-8.863A248.4,248.4,0,0,1,402.4,130.7a2.241,2.241,0,0,0,.739,1.4l10.614,9.958a17.461,17.461,0,0,0-16.242,3.458c-7.986,6.67-10.651,16.338-5.789,25.718,1.453,2.8,5.688.326,4.237-2.476-3.642-7.026-1.589-13.928,4.144-19.016,5.749-5.1,13.254-4.35,18.947.527a2.588,2.588,0,0,0,3.841-.568,2.676,2.676,0,0,0,1.877-.925,23.913,23.913,0,0,1-1.521-3.039,23.913,23.913,0,0,0,1.521,3.039,2.2,2.2,0,0,0-.117-3.216m-61.8,68.423c-.411,2.912-.811,5.825-1.217,8.738-2.773-8.728-2.4-18.435-1.778-27.433a263.732,263.732,0,0,1,3.5-26.853l2.612.515a2.553,2.553,0,0,0,2.77-1.127q.627-.983,1.245-1.976c-2.872,15.952-4.873,32.107-7.135,48.136m7.036-57.759c-1.363,2.609-2.879,5.139-4.444,7.634l-2.111-.417a45.624,45.624,0,0,1,.377-14.523,2.479,2.479,0,0,0,.753-.542c.094-.1.182-.2.275-.3l5.736,7.406a2.434,2.434,0,0,0-.587.74m12.444-13.842c-3.12,3.11-6.162,6.141-8.326,9.713l-5.987-7.731c2.456-2.92,4.8-5.917,7.429-8.7a46.245,46.245,0,0,1,19.513-12.208l3.28,4.374c-5.473,4.654-10.822,9.481-15.907,14.55" transform="translate(-94.334 -15.698)" fill="#323232"/>
            <path id="パス_796" data-name="パス 796" d="M415.216,364.864c-8.321-15.7-19.39-29.719-27.712-45.416-1.479-2.79-5.716-.315-4.236,2.476,7.992,15.076,18.513,28.613,26.706,43.566h5.474a2.665,2.665,0,0,0-.232-.627" transform="translate(-109.18 -90.724)" fill="#323232"/>
            <path id="パス_797" data-name="パス 797" d="M420.747,384.34c.337.616.677,1.229,1.006,1.849,1.367,2.579,5.078.659,4.468-1.849Z" transform="translate(-119.953 -109.573)" fill="#323232"/>
          </g>
        </g>
      </g>
    </g>
  </g>
</svg>
