<svg xmlns="http://www.w3.org/2000/svg" xmlns:xlink="http://www.w3.org/1999/xlink" width="387.19" height="277.884" viewBox="0 0 387.19 277.884">
  <defs>
    <clipPath id="clip-path">
      <rect id="長方形_339" data-name="長方形 339" width="387.19" height="277.884" fill="none"/>
    </clipPath>
  </defs>
  <g id="merit_illust" transform="translate(-816.895 -3271.726)">
    <g id="グループ_19" data-name="グループ 19" transform="translate(816.895 3271.726)">
      <g id="グループ_631" data-name="グループ 631" clip-path="url(#clip-path)">
        <path id="パス_1129" data-name="パス 1129" d="M-967.9,1619.794l-4.034,1.613-2.832,7.72-32.17,9.924-6.845,6.065-16.622,73.619-3.529,24.6,5.251,5.98,56.747-2.954h6.153s-3.428-6.483-2.119-12.047,7.358-10.209,7.358-10.209l7.152,3.158,8.746-4.932h21.413l2.394,3.466-9.58,4.335h-3.03l7.985,6.357,10.855-4,13.835-2.354,4.551,2.354-4.551-49.51a4.152,4.152,0,0,1,4.551-3.952c4.468,0,24.021-1.866,24.021-1.866a79.04,79.04,0,0,1-13.11-17.63c-6.005-10.9-5.154-17.25-12.318-23.106s-27.834-7.3-27.834-7.3h-4.954l4.954,7.3s2.232,20.159,2.232,40.736-2.232,41.574-2.232,41.574v3.6l-19.182-1.8s0-13.969-5.814-37.556-17.442-56.792-17.442-56.792l2.119-4.779Z" transform="translate(1035.609 -1544.041)" fill="#e7e7e7"/>
        <path id="パス_923" data-name="パス 923" d="M198.675,366.786a1.75,1.75,0,0,1,.769-2.911l26.384-4.1q4.225-.657,8.449-1.318l-2.637-2.2-5.79.9-44.128,6.852,3.438,2.871,43.263,36.137,5.79-.9,5.7-.885-.046-.039-41.193-34.407" transform="translate(-76.216 -149.418)" fill="#fff"/>
        <path id="パス_924" data-name="パス 924" d="M221.87,220.018l8.809-1.227q-.148-1.034-.3-2.068l-7.18.955a1.586,1.586,0,0,1-.773-.074q-.288,1.211-.589,2.421c.01,0,.017-.006.028-.007" transform="translate(-93.043 -90.896)" fill="#fff"/>
        <path id="パス_925" data-name="パス 925" d="M140.712,311.9c-.59.068-.363.333,0,0" transform="translate(-58.864 -130.813)" fill="#35cae9"/>
        <path id="パス_926" data-name="パス 926" d="M169.285,119.416a9.039,9.039,0,0,0,2.968,1.124,3.679,3.679,0,0,0,3.958-1.811l-6.926.687" transform="translate(-71 -49.796)" fill="#fff"/>
        <path id="パス_927" data-name="パス 927" d="M345.97,221.854a9.016,9.016,0,0,1-.8-2.188c-.022-.1-.154-.408-.168-.531-.176.008-.64-.051-.764-.037-1.687.19-3.143,1.8-4.3,3.177l6.029-.421" transform="translate(-142.575 -91.891)" fill="#fff"/>
        <path id="パス_928" data-name="パス 928" d="M355.613,220.525a1.674,1.674,0,0,1,.173,1.2l1.793-.125,1.384-.1c0-.048-.009-.09-.006-.14.037-.733.3-2.041-.72-2.019a17.815,17.815,0,0,0-2.868.619,4.307,4.307,0,0,0,.244.562" transform="translate(-149.045 -91.995)" fill="#fff"/>
        <path id="パス_929" data-name="パス 929" d="M202.546,329.187q2.212-.658,4.421-1.323c1.95-.589,4.562-.955,6.343-1.958,1.609-.906.352-1.934-1.056-2.067-1.8-.17-4.057.487-5.816.817a59.947,59.947,0,0,0-9.883,2.815c-1.3.486-2.143-.618-2.1-1.714a20.25,20.25,0,0,0-4.159.91c3.565,1.715,8.408,2.033,12.253,2.522" transform="translate(-79.811 -135.81)" fill="#fff"/>
        <path id="パス_930" data-name="パス 930" d="M99.407,112.173c1.861-1.231,3.59,1.774,1.744,3.016a26.826,26.826,0,0,0-10.888,17.765l6.963-2.311A21.167,21.167,0,0,1,99.2,123.9c1.5-2.7,4.246-3.286,7.093-3.646a51.471,51.471,0,0,1,.062-7.882,4.719,4.719,0,0,1-.979.064,4.848,4.848,0,0,1-3.762-2.094c-.158-.093-.309-.2-.463-.3a4.413,4.413,0,0,0-1.745,2.127" transform="translate(-37.857 -46.154)" fill="#fff"/>
        <path id="パス_931" data-name="パス 931" d="M160.31,49.887a74.654,74.654,0,0,0,.185-8.979c-1.613-.912-2.571-3.154-3.69-4.552-2.1-2.628-4.684-4.654-8.2-4.566a1.7,1.7,0,0,1-1.485-2.546c-.96-.024-1.931.059-2.818.059v3.484c-3.617-1.55-8.153-3.556-11.563-1.115a1.563,1.563,0,0,1-.358,2.593c-5.153,2.5-9.053,5.7-11.007,11.236-1.656,4.689-2.758,9.643-6.769,12.954a1.757,1.757,0,0,1-1.76.313c-.1.126-.194.26-.284.4.214.136.43.266.65.38,1.994,1.03.23,4.035-1.759,3.008-1.756-.907-3.633-3.646-5.566-3.853-2.978-.319-2.866,4.983-2.567,6.86a10.911,10.911,0,0,0,3.317,6.276,4.727,4.727,0,0,1,9.019,1.4,2.538,2.538,0,0,1,0,1.1,5.163,5.163,0,0,1-1.483,2.909,1.864,1.864,0,0,1,.984,1.915c-.606,4.4.33,8.851-.278,13.265a1.407,1.407,0,0,1-1.954,1.172c2.429,9.89,5.293,19.662,8.226,29.412.065.216.131.433.2.649a1.745,1.745,0,0,1,.808.025,72.845,72.845,0,0,0,17.244,2.438c4.437.066,9.415-.095,13.405-2.262a1.7,1.7,0,0,1,.993-.214,150.212,150.212,0,0,0-2.526-19.061,1.73,1.73,0,0,1,.916-1.929,12.356,12.356,0,0,0-2.884-3.559c-.044.02-.087.044-.131.064a1.987,1.987,0,0,1-.035.406l-1.622,8.515c-.42,2.2-3.777,1.265-3.359-.926q.651-3.422,1.3-6.842c-10.782,1.884-22.516-7.848-28.652-15.783-1.355-1.753,1.094-4.234,2.463-2.463,6.6,8.53,21.775,21.488,32.293,11.295a23.079,23.079,0,0,0,4.775-7.242,57.842,57.842,0,0,0,3.644-9.171c1.918-7.4.041-15.8.171-23.366a1.775,1.775,0,0,1,3.3-.809V50.83c-.888,1.221-3.261.914-3.154-.943m-15.078,3.432a1.743,1.743,0,0,1,3.007,1.759c-1.134,1.926-.575,4.484-.045,6.522a29.157,29.157,0,0,0,.884,2.8c.091.244.5,1.237.325.839.894,2.035-2.109,3.806-3.008,1.758-1.76-4.008-3.562-9.6-1.163-13.677m-.318,15.933,1.479-.3a1.785,1.785,0,0,1,2.142,1.217,1.752,1.752,0,0,1-1.216,2.142l-1.479.3a1.785,1.785,0,0,1-2.143-1.216,1.753,1.753,0,0,1,1.217-2.143m-16.6-20.681a16.447,16.447,0,0,1,9.109-1.175c2.211.359,1.267,3.715-.926,3.359a13.256,13.256,0,0,0-7.257,1.175c-2.092.819-2.991-2.551-.926-3.359m5.88,6.957a1.743,1.743,0,0,1,0,3.484,1.743,1.743,0,0,1,0-3.484M153.32,79.6c-1.261,3.024-3.431,6.532-6.98,6.95-3.858.455-7.893-2.134-10.526-4.734a1.766,1.766,0,0,1,1.232-2.973L151.64,77.4a1.4,1.4,0,0,1,1.4.614,1.342,1.342,0,0,1,.283,1.591M153.2,57.894a1.743,1.743,0,0,1,0-3.484,1.743,1.743,0,0,1,0,3.484m2.4-8.28a5.92,5.92,0,0,0-4.422-.061c-2,1.015-3.757-1.992-1.758-3.008a9.307,9.307,0,0,1,7.106-.29c2.142.652,1.223,4.013-.926,3.359" transform="translate(-43.275 -12.263)" fill="#fff"/>
        <path id="パス_932" data-name="パス 932" d="M110.448,46.231c4.574-3.777,4.784-10.033,7.387-15.016,2.394-4.584,6.541-7.512,11.093-9.719a1.753,1.753,0,0,1,2.116.415c3.41-2.442,7.946-.436,11.563,1.114V19.542c.887,0,1.858-.084,2.818-.059a1.622,1.622,0,0,1,1.485-.938,12.453,12.453,0,0,1,9.3,4.039c.247.251.484.511.716.776a22.868,22.868,0,0,0-4.538-5.656,13.487,13.487,0,0,0-12.322-.975c-2.092.819-2.991-2.551-.926-3.359a17.142,17.142,0,0,1,7.643-1.116c-5.3-5.024-12.307-7.324-19.205-5.848a17.467,17.467,0,0,1,6.8,3.868c1.634,1.543-.834,4-2.463,2.463a16.044,16.044,0,0,0-10.621-3.9,1.565,1.565,0,0,1-1.218,0,20.378,20.378,0,0,0-7.879,1.783c-3.241,1.509-4.582,4.322-6.483,7.138-1.824,2.7-4.23,5.443-5.656,8.374-2.693,5.538,1.164,13.882,3.389,19.024a1.925,1.925,0,0,1,.078.243c2.94-.167,4.984,2.506,7.346,4.007q.135-.209.285-.4c-1.129-.4-1.866-1.817-.7-2.776M107.5,20.669c5.934-7.534,17.861-6.843,26.21-4.847,2.183.522,1.253,3.88-.926,3.359-7.195-1.72-17.681-2.575-22.82,3.951-1.387,1.76-3.836-.721-2.463-2.463" transform="translate(-41.578 -2.502)" fill="#fff"/>
        <path id="パス_933" data-name="パス 933" d="M168.2,222.331c.2-8.057.221-16.276-.229-24.452-4.178,2.083-9.12,2.467-13.715,2.469a75.247,75.247,0,0,1-17.835-2.264c3.684,11.97,7.606,24.018,9.767,36.334l3.752,21.385a1.81,1.81,0,0,1-1.107,2.01,12.508,12.508,0,0,1,.119,1.609,12.165,12.165,0,0,1,1.418-.213c4.267-.357,8.665-.02,12.945.012.943.007,1.933-.023,2.92-.008.091-.423.17-.833.258-1.253a1.383,1.383,0,0,1-1.072-1.6c1.223-11.29,2.5-22.674,2.779-34.034" transform="translate(-57.215 -82.992)" fill="#fff"/>
        <path id="パス_934" data-name="パス 934" d="M79.726,395.1a1.825,1.825,0,0,1,1.279-1.679c1.481-.62,3.835-.43,5.4-.583q6.728-.657,13.459-1.278,40.535-3.8,81.084-7.456,25.486-2.324,50.974-4.636c1.518-.138,1.993,1.425,1.449,2.505l6.576-1.384-6.576,1.384a1.876,1.876,0,0,1-.233.358l81.825-6.509v-92.21l-51.026,5.328a1.891,1.891,0,0,1-1.527,2.612q-6.789.635-13.577,1.285c-1.377.134-2.755.267-4.131.409-.5.053-2,.452-.922-.027a1.869,1.869,0,0,1-.642.155q.4,4.313.8,8.628c.291,3.152,2.015,8.72-2.02,10.029a1.732,1.732,0,0,1-.649.084l-1.624.187-77.109,8.865-11.86,1.363a4.639,4.639,0,0,1-3.376-.426c-1.375-.9-1.455-2.426-1.59-3.882q-.519-5.627-1.039-11.253c-.131.05-.257.092-.379.127a4.771,4.771,0,0,1,.192,1.177c.136,3.5-3.778,4.234-6.381,5.036l-.012,0a23.153,23.153,0,0,1,4.382,1.037,5.076,5.076,0,0,1,3.042,4.712c.074,1.877-.844,3.823-2.828,4.225a32.542,32.542,0,0,1-4.226.024c-2.329.147-4.687.083-7.019.071-9.34-.048-18.664-.577-27.99-1.04-6.875-.342-13.674-.786-20.379-2.48a1.55,1.55,0,0,1-1.233-1.6c-.747.1-1.5.251-2.238.376a1.914,1.914,0,0,1-1.445,2.79q-24.246,2.6-48.528,4.868c-4.386.4-8.8.942-13.2,1.14-.276.012-.55.011-.824,0l53.016,69.3L79.726,395.1m27.811-64.361,26.384-4.1c9.032-1.4,18.06-2.829,27.1-4.207a4.2,4.2,0,0,1,3.874,1.276l4.274,3.57q7.041-1.1,14.086-2.178a4.2,4.2,0,0,1,3.874,1.276l7.866,6.571,41.193,34.407a1.407,1.407,0,0,1,.482,1.644,1.365,1.365,0,0,1-1.251,1.267l-26.384,4.1c-9.032,1.4-18.06,2.829-27.1,4.208a4.2,4.2,0,0,1-3.874-1.276l-4.274-3.571q-7.041,1.1-14.086,2.178a4.2,4.2,0,0,1-3.874-1.276l-7.866-6.571-41.193-34.407a1.75,1.75,0,0,1,.769-2.911M87,342.285c.7-1.4,1.4-3.06,3.29-3.013,1.156.029,2.425.919,3.427,1.422l1.842.925a1.94,1.94,0,0,1,1.875-.063L118.9,352.328l8.542,4.288a1.544,1.544,0,0,1,.682.375,1.432,1.432,0,0,1,.358.369l6.089,6.8,2.032,1.02a1.742,1.742,0,0,1-1.759,3.008L133,367.267l-9.14-.821c-.07-.006-.132-.028-.2-.041a2.021,2.021,0,0,1-.679-.2l-9.023-4.529L92.493,350.905a1.455,1.455,0,0,1-.874-1.443l-.154-.078-1,2L102,357.178c2.006,1.007.24,4.011-1.758,3.008l-13-6.525a1.768,1.768,0,0,1-.625-2.383l1.733-3.453-.927-.465a1.664,1.664,0,0,1-.608-.5c-1.378-1.349-.579-3.066.178-4.574" transform="translate(-6.544 -118.949)" fill="#c8ecf4"/>
        <path id="パス_935" data-name="パス 935" d="M185.107,328.22a94.544,94.544,0,0,0-10.836-1.624,1.527,1.527,0,0,1-.525-.064c-.638-.08-1.274-.163-1.906-.255-4-.585-8.819-1-12.422-2.973-2.995-1.636-5.124-4.866-8.371-6.029a1.751,1.751,0,0,1,.463-3.422c1.959-.118,3.923-.138,5.882-.268,1.543-.1,4.676.068,5.94-.976,3.32-2.742-2.379-3.147-3.7-3.16-1.694-.016-3.388-.025-5.082-.038-3.2-.024-6.471-.252-9.659-.016-3.87.286-6.706,2.944-10.115,4.477-1.916.862-4.476.309-6.547.251a1.637,1.637,0,0,1-1.558-1.106c-2.983,4.308-6.519,11.252-2.855,15.509a1.836,1.836,0,0,1,.374.671,1.55,1.55,0,0,1,.14.211c.736-.124,1.491-.272,2.238-.376a1.739,1.739,0,0,1,2.159-1.763c7.859,1.986,15.855,2.168,23.9,2.581,9.658.494,19.362,1.038,29.037.79.4-.01,4.8.218,5.025-.014,1.054-1.071-.978-2.261-1.583-2.408" transform="translate(-51.272 -129.719)" fill="#fff"/>
        <path id="パス_936" data-name="パス 936" d="M327.056,215.387c-.1-.95-1.117-2.384-2.135-1.471a5.163,5.163,0,0,0-.8,2.008c-.316,1.006-.608,2.007-.993,2.989-.235.6-.487,1.192-.751,1.779l3.838-.268a12.578,12.578,0,0,0,.844-5.038" transform="translate(-135.207 -89.596)" fill="#fff"/>
        <path id="パス_937" data-name="パス 937" d="M278.216,451.521l1.474-.311c.543-1.08.069-2.642-1.449-2.5q-25.487,2.31-50.974,4.635-40.544,3.7-81.083,7.456-6.731.63-13.459,1.278c-1.562.152-3.916-.037-5.4.582a1.825,1.825,0,0,0-1.278,1.68v0a1.684,1.684,0,0,0,.221.884l5.355-.569-5.355.569a1.8,1.8,0,0,0,2.041.718l-.057.075c-.329.137.11-.02.731-.083q1.545-.158,3.091-.312,5.533-.543,11.068-1.057,17.945-1.688,35.9-3.328,40.3-3.706,80.611-7.361,9.295-.845,18.59-1.688a1.747,1.747,0,0,0,1.449-.979Z" transform="translate(-52.866 -188.188)" fill="#323232"/>
        <path id="パス_938" data-name="パス 938" d="M172.916,100.051a1.785,1.785,0,0,0,2.142,1.216l1.48-.3a1.753,1.753,0,0,0,1.216-2.143,1.785,1.785,0,0,0-2.142-1.216l-1.48.3a1.753,1.753,0,0,0-1.216,2.142" transform="translate(-72.494 -40.92)" fill="#323232"/>
        <path id="パス_939" data-name="パス 939" d="M189.306,58.142a9.31,9.31,0,0,0-7.106.29c-2,1.016-.238,4.022,1.758,3.009a5.92,5.92,0,0,1,4.422.06c2.149.654,3.068-2.707.926-3.359" transform="translate(-76.047 -24.15)" fill="#323232"/>
        <path id="パス_940" data-name="パス 940" d="M188.126,76.078a1.743,1.743,0,0,0,0-3.484,1.743,1.743,0,0,0,0,3.484" transform="translate(-78.196 -30.447)" fill="#323232"/>
        <path id="パス_941" data-name="パス 941" d="M154.741,60.36a16.451,16.451,0,0,0-9.109,1.175c-2.065.808-1.166,4.179.926,3.359a13.256,13.256,0,0,1,7.257-1.175c2.193.356,3.137-3,.926-3.359" transform="translate(-60.589 -25.227)" fill="#323232"/>
        <path id="パス_942" data-name="パス 942" d="M155.389,74.52a1.743,1.743,0,0,0,0,3.484,1.743,1.743,0,0,0,0-3.484" transform="translate(-64.466 -31.254)" fill="#323232"/>
        <path id="パス_943" data-name="パス 943" d="M159.019,116.6c2.632,2.6,6.667,5.189,10.526,4.734,3.549-.418,5.718-3.926,6.98-6.95a1.342,1.342,0,0,0-.283-1.59,1.4,1.4,0,0,0-1.4-.614L160.25,113.63a1.765,1.765,0,0,0-1.231,2.973m8.713,1.187a9.049,9.049,0,0,1-2.969-1.124l6.927-.687a3.679,3.679,0,0,1-3.958,1.811" transform="translate(-66.479 -47.046)" fill="#323232"/>
        <path id="パス_944" data-name="パス 944" d="M31.144,303.893c-1.872,1.219-.128,4.236,1.758,3.008a15.8,15.8,0,0,1,10.179-2.57c2.235.179,2.223-3.305,0-3.484a18.945,18.945,0,0,0-11.938,3.045" transform="translate(-12.726 -126.153)" fill="#323232"/>
        <path id="パス_945" data-name="パス 945" d="M248.616,212.124q-.885-8.591-1.768-17.183c-.227-2.209-3.713-2.232-3.483,0q.884,8.591,1.768,17.183c.226,2.208,3.712,2.232,3.484,0" transform="translate(-102.065 -81.062)" fill="#323232"/>
        <path id="パス_946" data-name="パス 946" d="M112.577,186.3c1.363-1.747-1.086-4.23-2.463-2.463-3.024,3.88-9.009,3.168-12.1,7.069a6.437,6.437,0,0,0-.714,6.87c1.452,3.544,2.737,7.141,4.087,10.727a410.056,410.056,0,0,0,19.21,43.234c1.026,1.994,4.033.234,3.008-1.758a402.725,402.725,0,0,1-17.694-39.345q-1.865-4.833-3.6-9.711c-.9-2.538-3.561-6.186-1.005-8.446,3.319-2.934,8.352-2.433,11.271-6.177" transform="translate(-40.532 -76.847)" fill="#323232"/>
        <path id="パス_947" data-name="パス 947" d="M211.553,185.785c-1.606-1.661-3.967-2.7-5.92-3.875l-7.426-4.466c-1.926-1.158-3.679,1.853-1.758,3.008l7.426,4.466c2,1.205,5.711,2.483,5.633,5.219a36,36,0,0,1-1.256,6.375c-1.323,5.946-2.864,11.845-4.425,17.733-3.017,11.384-6.086,22.785-9.6,34.028-.671,2.145,2.691,3.062,3.359.926,3.866-12.365,7.233-24.914,10.5-37.449q.724-2.775,1.443-5.557a1.825,1.825,0,0,0,1.648.6l10.3-1.434c1.011-.141,1.335-1.317,1.217-2.143q-.391-2.738-.783-5.477a1.73,1.73,0,0,0-1.68-1.279l-8.645,1.15c.265-1.218.521-2.439.755-3.662.547-2.862,1.507-5.788-.79-8.164m.031,15.31,7.18-.955q.148,1.034.3,2.068l-8.809,1.227c-.01,0-.018.005-.028.006q.3-1.209.589-2.42a1.587,1.587,0,0,0,.773.074" transform="translate(-81.423 -74.312)" fill="#323232"/>
        <path id="パス_948" data-name="パス 948" d="M173.206,69.969a1.694,1.694,0,0,0-.179-.809v0a1.775,1.775,0,0,0-3.3.809c-.13,7.569,1.748,15.968-.171,23.366a57.742,57.742,0,0,1-3.644,9.171,23.074,23.074,0,0,1-4.775,7.242c-10.518,10.192-25.7-2.765-32.293-11.295-1.37-1.771-3.819.711-2.463,2.463,6.136,7.934,17.869,17.667,28.652,15.783q-.651,3.421-1.3,6.842c-.417,2.191,2.94,3.129,3.359.926q.811-4.258,1.622-8.515a1.983,1.983,0,0,0,.034-.406l.131-.064a10.984,10.984,0,0,0-.939-.711,10.984,10.984,0,0,1,.939.711,16.62,16.62,0,0,0,3.082-1.861,18.849,18.849,0,0,0,2.185-1.976c-.339-.314-.671-.626-.982-.938.311.311.643.624.982.938,3.957-4.142,6.277-10.011,8.115-15.26,2.927-8.361.8-17.754.952-26.416" transform="translate(-52.837 -28.642)" fill="#323232"/>
        <path id="パス_949" data-name="パス 949" d="M138.967,200.11a5.075,5.075,0,0,0-3.042-4.711,23.187,23.187,0,0,0-4.382-1.039l.012,0c2.6-.8,6.517-1.536,6.381-5.036a4.769,4.769,0,0,0-.192-1.177,6.523,6.523,0,0,1-1.878.171,6.523,6.523,0,0,0,1.878-.171c-.777-2.607-3.734-3.748-6.337-3.489a62.158,62.158,0,0,0-15.589,3.647,1.766,1.766,0,0,0-1.176,1.645,6.26,6.26,0,0,1,1.483.11,6.26,6.26,0,0,0-1.483-.11c-.041,1.1.8,2.2,2.1,1.714a59.94,59.94,0,0,1,9.883-2.815c1.759-.33,4.02-.986,5.816-.817,1.408.133,2.664,1.161,1.056,2.067-1.78,1-4.393,1.37-6.343,1.958q-2.209.666-4.421,1.323c-3.845-.489-8.688-.808-12.253-2.522a9.952,9.952,0,0,1-2.486.361,9.952,9.952,0,0,0,2.486-.361,11.431,11.431,0,0,1-1.133-.615,31.431,31.431,0,0,1-3.519-2.726c3.15-.081,6.369-.419,8.689-2.052,2.206-1.551,3.077-4.385,1.361-6.625-1.7-2.218-4.275-2.577-6.863-2.616a14.957,14.957,0,0,1-.44,1.641,14.957,14.957,0,0,0,.44-1.641c-.988-.015-1.976.015-2.92.008-4.28-.032-8.679-.369-12.945-.012a12.169,12.169,0,0,0-1.419.213q.008.426.008.852,0-.426-.008-.852a20.913,20.913,0,0,0-5.766,2.358c-1.035.559-2.062,1.131-3.086,1.709a7.039,7.039,0,0,0-1,.561c-1.557-.053-3.115-.089-4.672-.131a1.835,1.835,0,0,0-1.65-2.149l-37.412-3,7.767-34.489c.492-2.184-2.866-3.115-3.359-.926q-4.092,18.174-8.186,36.35a1.719,1.719,0,0,0,1.147,2.043,1.766,1.766,0,0,0,.974.373l35.6,2.857c-3.335,5.009-6.124,11.914-3.344,17.314q-17.405,1.852-34.827,3.546-6.905.668-13.815,1.293c-3.67.33-7.847,1.263-11.522.881-5.577-.58-5.143-9.072-4.94-13.036.356-6.947,1.864-13.8,3.312-20.579,1.856-8.694,3.609-17.392,5.644-26.053,2.245-9.555,4.832-19.026,6.839-28.628A81.406,81.406,0,0,1,22.65,105c1.379-3.709,3.007-5.967,6.643-7.639,4.95-2.276,10.326-2.648,15.41-4.335l14.447-4.795q-1.384,9.837-2.767,19.673c-.308,2.192,3.048,3.14,3.359.926Q61.368,97.261,62.995,85.7a1.828,1.828,0,0,0-.14-1.014,23.758,23.758,0,0,1,1.03-4.138c.832-2.236,2.322-2.67,4.525-2.956q-.043.7-.132,1.405A1.8,1.8,0,0,0,66,81.1c4.362,18.039,10.283,35.638,15.282,53.5a297.47,297.47,0,0,1,6.322,29.144l1.754,10a1.512,1.512,0,0,0,2.252,1.084,6.57,6.57,0,0,0-1.035-2.764,6.57,6.57,0,0,1,1.035,2.764,1.809,1.809,0,0,0,1.107-2.01L88.97,151.427c-2.16-12.316-6.083-24.364-9.767-36.334a75.213,75.213,0,0,0,17.835,2.264c4.594,0,9.537-.387,13.715-2.469.45,8.176.425,16.395.229,24.452-.276,11.36-1.557,22.744-2.779,34.035a1.384,1.384,0,0,0,1.073,1.6,15.258,15.258,0,0,1,.464-1.75,15.258,15.258,0,0,0-.464,1.75,1.9,1.9,0,0,0,2.411-1.6c1.242-11.468,2.557-23.04,2.79-34.58.317-15.713.031-31.939-3.115-47.391a1.58,1.58,0,0,0-2.443-1,18.233,18.233,0,0,1,1.982,6.182,18.233,18.233,0,0,0-1.982-6.182A1.73,1.73,0,0,0,108,92.328a150.242,150.242,0,0,1,2.526,19.061,1.716,1.716,0,0,0-.994.214c-3.989,2.168-8.968,2.328-13.4,2.262a72.869,72.869,0,0,1-17.244-2.437,1.745,1.745,0,0,0-.808-.025c-.066-.217-.132-.433-.2-.65-2.934-9.75-5.8-19.522-8.226-29.412a1.407,1.407,0,0,0,1.954-1.173c.608-4.414-.327-8.867.278-13.265a1.865,1.865,0,0,0-.984-1.915,5.162,5.162,0,0,0,1.483-2.909,2.547,2.547,0,0,0,0-1.1,4.727,4.727,0,0,0-9.019-1.4A10.908,10.908,0,0,1,60.049,53.3c-.3-1.877-.411-7.179,2.567-6.86,1.933.207,3.81,2.946,5.566,3.853,1.989,1.027,3.753-1.977,1.758-3.008-.22-.113-.435-.243-.65-.379a3.352,3.352,0,0,0-.192.327,3.352,3.352,0,0,1,.192-.327c-2.362-1.5-4.406-4.175-7.346-4.008a1.932,1.932,0,0,0-.078-.243c-2.224-5.142-6.082-13.486-3.388-19.024,1.425-2.931,3.831-5.673,5.656-8.374,1.9-2.815,3.241-5.629,6.483-7.138A20.4,20.4,0,0,1,78.5,6.335a1.563,1.563,0,0,0,1.217,0,16.046,16.046,0,0,1,10.621,3.9c1.63,1.539,4.1-.92,2.463-2.463A17.472,17.472,0,0,0,86,3.9c6.9-1.475,13.9.824,19.205,5.848a17.159,17.159,0,0,0-7.643,1.116c-2.064.808-1.166,4.178.926,3.359a13.487,13.487,0,0,1,12.322.975,22.864,22.864,0,0,1,4.538,5.656c-.232-.265-.47-.525-.716-.776a12.447,12.447,0,0,0-9.3-4.039,1.622,1.622,0,0,0-1.486.938,4.914,4.914,0,0,1,4.149,1.8,4.914,4.914,0,0,0-4.149-1.8,1.7,1.7,0,0,0,1.486,2.546c3.513-.089,6.094,1.937,8.2,4.565,1.119,1.4,2.077,3.641,3.69,4.553a74.882,74.882,0,0,1-.185,8.978c-.107,1.858,2.266,2.164,3.154.943v0a1.746,1.746,0,0,0,.329-.943c.3-5.272.68-11.05-1.106-16.129-1.3-3.7-3.811-6.532-6.6-9.2a1.712,1.712,0,0,0-.835-.45,15.835,15.835,0,0,0-1.96-.957,1.727,1.727,0,0,0-.39-1.525C101.885.225,89.5-2.793,78.859,2.859a24.092,24.092,0,0,0-6.837,1.017c-2.81.858-5.81,2.246-7.7,4.573-.946,1.163-1.562,2.631-2.411,3.888-2.178,3.225-4.944,6.448-6.7,9.92C53.823,25,54.221,29,54.7,31.915A53.157,53.157,0,0,0,58.8,44.283C57.2,45.87,56.6,48.5,56.461,50.658a14.678,14.678,0,0,0,6.833,13.234c.184-.136.377-.27.578-.4-.2.134-.394.268-.578.4.154.1.305.2.463.3a4.847,4.847,0,0,0,3.762,2.093,4.729,4.729,0,0,0,.98-.063,51.462,51.462,0,0,0-.062,7.882c-2.847.361-5.589.941-7.094,3.646a21.185,21.185,0,0,0-1.975,6.744L52.406,86.8A26.827,26.827,0,0,1,63.294,69.035c1.846-1.242.118-4.247-1.744-3.016a3.778,3.778,0,0,0,0,2.113,3.778,3.778,0,0,1,0-2.113l-.014.008A30.525,30.525,0,0,0,48.777,88l-3.912,1.3c-4.5,1.492-9.209,2.03-13.7,3.594-3.186,1.11-6.76,2.517-8.916,5.244-2.4,3.042-3.545,7.317-4.562,10.985-.947,3.415-1.622,6.874-2.314,10.346-1.078,5.4-2.7,10.735-4.007,16.089-2.607,10.686-4.952,21.412-7.186,32.175A210,210,0,0,0,.436,188.516c-.565,5.419-1.26,13.106,2.764,17.5a7.943,7.943,0,0,0,5.86,2.477l-1.48-3.2,1.48,3.2c.273.007.547.008.823,0,4.4-.2,8.815-.738,13.2-1.14q24.284-2.226,48.528-4.868a1.914,1.914,0,0,0,1.445-2.79,13.623,13.623,0,0,1-2.216.235,13.623,13.623,0,0,0,2.216-.235,1.438,1.438,0,0,0-.141-.211,1.821,1.821,0,0,0-.374-.672c-3.665-4.257-.128-11.2,2.855-15.509a1.636,1.636,0,0,0,1.558,1.106c2.071.058,4.631.611,6.547-.251,3.409-1.533,6.244-4.191,10.114-4.478,3.189-.236,6.464-.007,9.659.017,1.694.013,3.389.021,5.083.038,1.325.013,7.024.418,3.7,3.16-1.265,1.044-4.4.874-5.941.977-1.959.13-3.922.149-5.882.268a1.75,1.75,0,0,0-.463,3.421c3.247,1.163,5.376,4.394,8.371,6.03,3.6,1.968,8.423,2.387,12.422,2.972.632.092,1.269.176,1.907.255a1.515,1.515,0,0,0,.525.064,94.452,94.452,0,0,1,10.836,1.624c.6.146,2.636,1.337,1.582,2.408-.226.23-4.62,0-5.025.013-9.675.248-19.378-.295-29.037-.79-8.049-.413-16.045-.6-23.9-2.581a1.739,1.739,0,0,0-2.159,1.763,8.238,8.238,0,0,1,3.095.031,8.238,8.238,0,0,0-3.095-.031,1.549,1.549,0,0,0,1.233,1.6c6.7,1.694,13.5,2.138,20.379,2.48,9.326.463,18.65.993,27.99,1.04,2.333.012,4.691.076,7.019-.071a32.542,32.542,0,0,0,4.226-.024c1.984-.4,2.9-2.348,2.828-4.226M66.405,61.528a1.279,1.279,0,0,1,2.557,0,1.279,1.279,0,0,1-2.557,0M81.848,181.084c-.363.333-.59.068,0,0" transform="translate(0 0)" fill="#323232"/>
        <path id="パス_950" data-name="パス 950" d="M66.362,205.14,54.545,177.567c-.88-2.055-3.882-.282-3.008,1.758L63.354,206.9c.881,2.055,3.882.282,3.008-1.758" transform="translate(-21.549 -74.09)" fill="#323232"/>
        <path id="パス_951" data-name="パス 951" d="M153.57,393.259l18.356,9.214,1.624-3.235-18.356-9.214-1.624,3.235" transform="translate(-64.409 -163.58)" fill="#fff"/>
        <path id="パス_952" data-name="パス 952" d="M143.4,391.115l21.463,10.774,9.024,4.529a2.035,2.035,0,0,0,.679.2c.067.012.129.034.2.04l9.14.821,1.844.926a1.742,1.742,0,1,0,1.758-3.008l-2.032-1.02-6.089-6.805a1.438,1.438,0,0,0-.358-.369,1.537,1.537,0,0,0-.682-.374l-8.542-4.288L148.34,381.764a1.94,1.94,0,0,0-1.875.063l-1.842-.924c-1-.5-2.271-1.393-3.427-1.422-1.889-.047-2.586,1.609-3.29,3.013-.757,1.508-1.556,3.225-.178,4.573a1.665,1.665,0,0,0,.608.5l.927.465-1.734,3.454a1.767,1.767,0,0,0,.625,2.383l13,6.525c2,1,3.765-2,1.759-3.008l-11.544-5.794,1-2,.155.078a1.455,1.455,0,0,0,.874,1.443m32.216,8.23-1.624,3.235-5.916-2.97,1.624-3.234,5.916,2.969m2.741,2.29,1.81,2.022-2.7-.243.893-1.779m-13.388-3.584-18.357-9.214,1.624-3.235,18.356,9.214-1.623,3.235m-23.583-14.736a.522.522,0,0,1,.057-.108c.055.022.1.041.126.053l3.157,1.584-.818,1.63-3.28-1.646c.006-.012.011-.027.017-.038a12.162,12.162,0,0,0,.741-1.475" transform="translate(-57.45 -159.158)" fill="#323232"/>
        <path id="パス_953" data-name="パス 953" d="M196.455,414.785l1.624-3.235-5.916-2.969-1.623,3.234,5.916,2.97" transform="translate(-79.914 -171.363)" fill="#35cae9"/>
        <path id="パス_954" data-name="パス 954" d="M207.6,417.638l-.893,1.78,2.7.243-1.81-2.022" transform="translate(-86.696 -175.162)" fill="#fff"/>
        <path id="パス_955" data-name="パス 955" d="M146.543,389.167l.818-1.63-3.157-1.584c-.024-.012-.071-.031-.126-.053a.552.552,0,0,0-.057.108,12.245,12.245,0,0,1-.74,1.475c-.006.012-.012.026-.017.038l3.28,1.646" transform="translate(-60.086 -161.85)" fill="#35cae9"/>
        <path id="パス_956" data-name="パス 956" d="M333.236,282.522l-3.53-38.22-1.47-15.921a6.051,6.051,0,0,0-.154-1.669c0-.01-.005-.014-.01-.024a7.549,7.549,0,0,0-2.016.158L251.5,232.053l-13.066.913c-.435.031-2.236-.129-2.575.18.085-.077.149,1,.185,1.386q1.656,17.928,3.312,35.857.876,9.48,1.752,18.962c.158,1.71.236,3.45.476,5.151a9.394,9.394,0,0,0,.051.961c.038-.112.277-.2.4-.194,2.641.228,5.822-.669,8.439-.97l17.522-2.015,65.383-7.517c.193-.135-.113-1.961-.14-2.245m-3.737,1.85a1.584,1.584,0,0,1-.834.1l-1.274.142-67.842,7.587-11.141,1.246c-2.628.294-4.6-.559-4.895-3.519-1.088-10.772-1.992-21.566-2.988-32.347q-.77-8.333-1.539-16.665c-.268-2.9-1.191-6.5,2.833-7.12,2.385-.37,4.9-.357,7.3-.532L265,232.109l39.954-2.915,14.486-1.057c1.944-.142,5.269-1,6.863.52,1.933,1.843,1.472,7.073,1.692,9.454l1.731,18.748q.852,9.218,1.7,18.437c.287,3.106,1.759,7.627-1.93,9.076" transform="translate(-98.922 -95.057)" fill="#fff"/>
        <path id="パス_957" data-name="パス 957" d="M251.538,293.495a1.124,1.124,0,0,1,.021.266c.03-.082.128-.224.421-.328,2.448-.869,5.9-.66,8.464-.946l15.785-1.766,56.732-6.344a1.212,1.212,0,0,1,0-.4,10.6,10.6,0,0,0-.159-1.717q-1.563-16.92-3.126-33.841-.6-6.5-1.2-13.006c-.018-.2-.008-.489-.027-.757-.773.093-1.564.113-2.34.17l-66.1,4.822-11.423.834a12.933,12.933,0,0,0-1.936.069.259.259,0,0,1,0,.068,6.014,6.014,0,0,0,.1,1.1l2.933,31.755,1.479,16.013c.122,1.323.148,2.7.37,4.011" transform="translate(-103.446 -98.416)" fill="#fff"/>
        <path id="パス_958" data-name="パス 958" d="M245.565,290.744c.3,2.96,2.267,3.813,4.895,3.519l11.141-1.246,67.842-7.587,1.274-.142a1.578,1.578,0,0,0,.834-.1c3.689-1.45,2.217-5.971,1.93-9.076q-.851-9.218-1.7-18.437l-1.731-18.748c-.22-2.381.241-7.611-1.692-9.454-1.594-1.519-4.919-.661-6.863-.52l-14.486,1.057-39.954,2.915-15.881,1.159c-2.4.175-4.916.163-7.3.532-4.024.625-3.1,4.215-2.833,7.12q.77,8.333,1.539,16.665c1,10.781,1.9,21.575,2.988,32.347m1.653-19.82-2.933-31.755a6.012,6.012,0,0,1-.1-1.1.235.235,0,0,0,0-.067,13.026,13.026,0,0,1,1.936-.069l11.423-.833,66.1-4.822c.777-.057,1.567-.077,2.34-.171.019.268.009.561.027.757q.6,6.5,1.2,13.006,1.562,16.92,3.125,33.841a10.6,10.6,0,0,1,.158,1.717,1.232,1.232,0,0,0,0,.4l-56.731,6.344-15.785,1.766c-2.564.287-6.017.077-8.464.946a.63.63,0,0,0-.421.328,1.126,1.126,0,0,0-.021-.266c-.222-1.311-.248-2.688-.37-4.011l-1.479-16.013" transform="translate(-100.975 -95.869)" fill="#323232"/>
        <path id="パス_959" data-name="パス 959" d="M139.453,21.982c-8.349-2-20.276-2.687-26.21,4.847-1.372,1.742,1.076,4.224,2.463,2.463,5.14-6.526,15.625-5.671,22.82-3.95,2.179.521,3.109-2.837.926-3.359" transform="translate(-47.326 -8.661)" fill="#323232"/>
        <path id="パス_960" data-name="パス 960" d="M136.677,32.577c-4.552,2.207-8.7,5.135-11.093,9.719-2.6,4.983-2.812,11.239-7.387,15.016-1.162.959-.424,2.375.7,2.776.581-.733,1.265-1.285,1.265-2.177,0,.892-.684,1.444-1.265,2.177a1.758,1.758,0,0,0,1.76-.312c4.01-3.311,5.113-8.265,6.768-12.954,1.954-5.535,5.854-8.738,11.007-11.237a1.562,1.562,0,0,0,.358-2.593,6.791,6.791,0,0,0-1.21,1.114,6.791,6.791,0,0,1,1.21-1.114,1.753,1.753,0,0,0-2.116-.415" transform="translate(-49.327 -13.583)" fill="#323232"/>
        <path id="パス_961" data-name="パス 961" d="M266.719,407.612l5.791-.9,44.127-6.852L313.2,396.99l-43.263-36.137-5.791.9L220.019,368.6l3.437,2.871,43.263,36.137" transform="translate(-92.278 -151.345)" fill="#fff"/>
        <path id="パス_962" data-name="パス 962" d="M301.676,395.349l-41.193-34.407-7.866-6.571a4.2,4.2,0,0,0-3.875-1.276q-7.045,1.075-14.086,2.178l-4.274-3.571a4.2,4.2,0,0,0-3.874-1.276c-9.036,1.378-18.064,2.8-27.1,4.208l-26.384,4.1a1.75,1.75,0,0,0-.769,2.911l41.193,34.408,7.866,6.571a4.2,4.2,0,0,0,3.874,1.276q7.045-1.074,14.086-2.178l4.274,3.57a4.2,4.2,0,0,0,3.875,1.276c9.035-1.378,18.064-2.8,27.1-4.207l26.384-4.1a1.365,1.365,0,0,0,1.251-1.268,1.406,1.406,0,0,0-.482-1.643m-98.463-28.277-3.437-2.871,44.127-6.852,5.791-.9,43.263,36.137,3.437,2.872-44.127,6.852-5.791.9-43.263-36.137m26.819,32.57-5.79.9L180.979,364.4l-3.438-2.871,44.128-6.852,5.79-.9,2.637,2.2q-4.225.659-8.449,1.318l-26.384,4.1a1.75,1.75,0,0,0-.769,2.911l41.192,34.408.047.039-5.7.885" transform="translate(-72.035 -146.942)" fill="#323232"/>
        <path id="パス_963" data-name="パス 963" d="M116.932,105.081a1.279,1.279,0,0,0-2.557,0,1.279,1.279,0,0,0,2.557,0" transform="translate(-47.97 -43.553)" fill="#fff"/>
        <path id="パス_964" data-name="パス 964" d="M242.349,55.574l7.129-6.328c1.68-1.491-.791-3.947-2.463-2.463l-7.128,6.328c-1.68,1.492.791,3.948,2.463,2.463" transform="translate(-100.375 -19.429)" fill="#323232"/>
        <path id="パス_965" data-name="パス 965" d="M247.411,74.644l8.409-2.1c2.174-.543,1.253-3.9-.926-3.359l-8.409,2.1c-2.174.543-1.253,3.9.926,3.359" transform="translate(-102.858 -28.991)" fill="#323232"/>
        <path id="パス_966" data-name="パス 966" d="M247.828,90.574a1.743,1.743,0,0,0,0,3.484h9.249a1.743,1.743,0,0,0,0-3.484Z" transform="translate(-103.236 -37.988)" fill="#323232"/>
        <path id="パス_967" data-name="パス 967" d="M174.772,70.109c-2.4,4.073-.6,9.669,1.163,13.677.9,2.048,3.9.277,3.008-1.759.175.4-.234-.595-.325-.839a29.257,29.257,0,0,1-.884-2.8c-.529-2.038-1.089-4.6.046-6.522a1.743,1.743,0,0,0-3.008-1.758" transform="translate(-72.816 -29.053)" fill="#323232"/>
        <path id="パス_968" data-name="パス 968" d="M338.8,230.429l-5.348.559,5.348-.559a1.4,1.4,0,0,0-1.527-.872q-7.447.7-14.892,1.414a30.5,30.5,0,0,0-4.7.46l-.808-8.751q-.988-10.69-1.975-21.38-.338-3.652-.675-7.3a12.145,12.145,0,0,0-.444-3.3c-1.234-3.031-5.394-1.942-7.91-1.766l-11.068.773c.077-1.77-.2-3.751-1.819-4.788a4.325,4.325,0,0,0-2.794-.571c-1.211.12-2.322.738-3.546.656a1.739,1.739,0,0,0-.5.039,4.319,4.319,0,0,0-2.558-.873c-2.861-.111-5.139,1.86-6.993,3.9.3-3.507-.61-6.985-4.984-7.006-2.174-.01-3.347,1.342-4.109,3.225-.882,2.176-1.379,4.453-2.443,6.566a1.758,1.758,0,0,0-.189.938l-19.285,1.347a178.142,178.142,0,0,1-15.405-25.182c-2.9-5.949-4.331-13.01-9.13-17.85-2.947-2.972-6.906-3.154-10.83-3.809q-6.762-1.129-13.537-2.169a1.82,1.82,0,0,0-1.858.855,1.9,1.9,0,0,0-.257.219,12.306,12.306,0,0,1,2.382,3.106,12.306,12.306,0,0,0-2.382-3.106,1.455,1.455,0,0,0-.164,1.953c3.983,5.877,8.791,11.149,12.774,17.026,1.251,1.846,4.27.1,3.007-1.758-3.374-4.98-7.336-9.527-10.892-14.374,2.326.366,4.653.73,6.977,1.109s4.671.762,7,1.18c1.62.29,3.2.451,4.533,1.5,5.086,4.018,6.385,11.622,9.051,17.216a152.516,152.516,0,0,0,9.631,16.788c1.637,2.544,3.308,5.07,5.036,7.555-7.725.438-15.592.61-23.223,1.645-4.433.6-3.251,4.924-2.963,8.046q.864,9.35,1.727,18.7,1.231,13.332,2.462,26.663a6.97,6.97,0,0,0,.646-.283,6.97,6.97,0,0,1-.646.283q.52,5.627,1.039,11.253c.135,1.456.215,2.98,1.59,3.882a4.633,4.633,0,0,0,3.376.427l11.861-1.363,77.108-8.865,1.625-.187a1.745,1.745,0,0,0,.649-.084c4.035-1.309,2.312-6.877,2.02-10.029q-.4-4.314-.8-8.628a1.866,1.866,0,0,0,.641-.154c-1.083.48.422.08.922.028,1.376-.143,2.754-.276,4.131-.409q6.787-.658,13.576-1.286a1.89,1.89,0,0,0,1.527-2.611m-48.2-42.64c1.017-.023.757,1.285.72,2.018,0,.05.006.093.006.141l-1.384.1-1.793.125a1.672,1.672,0,0,0-.173-1.2,4.3,4.3,0,0,1-.244-.562,17.76,17.76,0,0,1,2.868-.619m-7.529-.142c.124-.014.588.045.763.037.014.123.146.427.168.531a9.04,9.04,0,0,0,.8,2.188l-6.029.421c1.154-1.38,2.609-2.988,4.3-3.177m-13.745,2.11c.385-.983.678-1.984.993-2.99a5.173,5.173,0,0,1,.8-2.008c1.018-.914,2.038.521,2.135,1.471a12.564,12.564,0,0,1-.844,5.037l-3.838.268c.264-.588.517-1.181.751-1.779m46.535,60.392-65.383,7.517-17.522,2.014c-2.617.3-5.8,1.2-8.439.97-.122-.01-.36.083-.4.195a9.394,9.394,0,0,1-.051-.961c-.24-1.7-.318-3.441-.476-5.151q-.876-9.481-1.752-18.963-1.656-17.928-3.312-35.856c-.036-.391-.1-1.463-.185-1.386.339-.309,2.139-.15,2.575-.18l13.066-.913,74.555-5.207a7.549,7.549,0,0,1,2.016-.158c0,.01.005.013.01.024a6.051,6.051,0,0,1,.154,1.669l1.47,15.921,3.53,38.22c.027.284.333,2.11.14,2.245" transform="translate(-81.412 -60.441)" fill="#323232"/>
        <path id="パス_969" data-name="パス 969" d="M466.287,317.693a10.068,10.068,0,0,1,8.863-9.53c1.449-.2,2.906-.363,4.358-.545l54.458-6.807c3.748-.469,7.5-1,11.254-1.473a1.768,1.768,0,0,1-.062-.525,14.2,14.2,0,0,0-1.578-7.765c-1.842-3.195-5.1-4.693-8.1-6.593a158.55,158.55,0,0,1-14.943-10.9c-1.673-1.36-3.148-2.193-3.636-4.313-.752-3.262-1.376-6.56-2.063-9.837,0-.012-.023-.089-.049-.192-.426-.038-.862-.1-1.056-.1a80.757,80.757,0,0,0-8.343.48c-7.983.83-16.324,2.54-23.406,6.455-6.1,3.372-9.076,8.542-12.641,14.245a1.8,1.8,0,0,1-3.172-.334,25.346,25.346,0,0,0-3.029,4.143c4.116-.782,8.277-1.424,12.447-1.833,2.233-.219,2.21,3.266,0,3.484a130.923,130.923,0,0,0-14.753,2.355c-5.913,1.275-13.821,2.722-18.106,7.4-3.458,3.777-4.536,9.091-5.667,13.922q-1.916,8.179-4.1,16.293c-5.138,19.058-11.245,37.814-15.782,57.035l46-2.26c.543-15.179,1.546-30.364,2.272-45.53.276-5.75.4-11.531.829-17.272m10.954-37.673c-2.14.7-3.048-2.667-.926-3.359a152.884,152.884,0,0,1,36.327-7.107c2.24-.163,2.223,3.322,0,3.484a148.983,148.983,0,0,0-35.4,6.983" transform="translate(-174.973 -108.673)" fill="#e7e7e7"/>
        <path id="パス_970" data-name="パス 970" d="M502.649,183.569a1.743,1.743,0,0,1-1.759-3.008c3.179-1.829,5.06-5.582,5.8-9.064a9.638,9.638,0,0,0-.117-5.25c-1.033-2.779-4.025-3.51-5.894-.971a1.9,1.9,0,0,1-3.291-.508,1.828,1.828,0,0,1-.6-.539,47.526,47.526,0,0,1-5.465-9.92c-7.271-2.4-12.057-8.005-14.948-14.994a1.783,1.783,0,0,1-.129-.482,9.939,9.939,0,0,0-3.333,4.352c1.251-.489,2.955.405,2.34,1.955-3.628,9.137,3.848,20.117-5.583,27.015a10.741,10.741,0,0,0-2.982,2.518c-.881,1.476.176,2.166.919,3.286,1.009,1.523,2.438,3.65,2.621,5.509.1,1.018-.436,1.743-.5,2.663-.1,1.4.893,1.546,2.026,2a6.3,6.3,0,0,1,3.924,3.315,1.783,1.783,0,0,1-.318,2.005,1.809,1.809,0,0,1-.326.477c-.512.534-1.269.9-1.741,1.448-.865,1-.637-.111-.238,1.231a15.739,15.739,0,0,1,.421,5.064c-.127,4.149,2.3,6.5,6.418,6.522,4.569.025,9.382-1.837,13.352-4.008a1.762,1.762,0,0,1,2.621,1.5q.211,4.977.422,9.954a33.858,33.858,0,0,1,7.3-4.425c7.794-3.544,16.423-5.125,24.918-5.785.606-.048,1.216-.095,1.829-.137a1.718,1.718,0,0,1-.213-.82q-.088-5.517-.175-11.033c-2.924-.042-5.849-.114-8.773-.185a1.8,1.8,0,0,1-1.68-1.279c-.932-2.762-1.52-5.616-2.354-8.4-.994-3.323-2.513-4.676-5.957-4.8a1.785,1.785,0,0,1-1.575-2.441q-.376-.026-.762-.034a15.7,15.7,0,0,1-6.2,7.27M478.03,166.7a1.743,1.743,0,0,1,0-3.484,1.743,1.743,0,0,1,0,3.484m3.539-11.522c-.893-.992-2.544-1.778-3.837-1.1-1.986,1.04-3.745-1.967-1.759-3.008a6.836,6.836,0,0,1,8.059,1.645c1.5,1.663-.96,4.133-2.464,2.463" transform="translate(-195.593 -58.228)" fill="#fff"/>
        <path id="パス_971" data-name="パス 971" d="M554.051,144.056c-2.109-7.981-6.453-16.359-13.317-21.21-14.537-10.274-36.066-8.7-49.2,3.065a1.783,1.783,0,0,1-2.654-.31,11.2,11.2,0,0,0-2.119,2.087,1.821,1.821,0,0,1,1.533,1.134c2.064,4.99,5.369,9.171,10.062,11.54-.189-.638-.37-1.277-.534-1.925-.551-2.178,2.81-3.1,3.359-.926a45.07,45.07,0,0,0,6.708,14.71c4.376-3.446,10.3-.473,11.031,5.581a17.3,17.3,0,0,1-1.509,8.929q.386.008.762.034a1.516,1.516,0,0,1,1.575-1.042c3.438.126,6.377,1.117,8.1,4.286,1.691,3.11,2.2,6.81,3.183,10.231,2.83.071,5.66.138,8.49.169a84.959,84.959,0,0,1,7.648-13.016c2.426-3.517,5.926-6.857,7.22-11,1.246-3.987.714-8.376-.334-12.341" transform="translate(-204.151 -48.661)" fill="#35cae9"/>
        <path id="パス_972" data-name="パス 972" d="M587.882,333.1a36.866,36.866,0,0,0-4.076.473l-22.081,2.76L512.7,342.464c-3.131.391-6.1,1.57-6.949,5.065a25.431,25.431,0,0,0-.332,4.694l-1.127,23.5q-.854,17.814-1.708,35.628l89.644-4.4c.724-19.949,1.44-39.9,2.04-59.852.159-5.273,1.487-14.086-6.385-13.995" transform="translate(-210.789 -139.706)" fill="#fff"/>
        <path id="パス_973" data-name="パス 973" d="M472.992,298.985c-4.169.409-8.33,1.051-12.446,1.832q-.39.636-.775,1.278.385-.642.775-1.278c-.229.044-.459.082-.687.127-6.555,1.272-13.925,2.769-19.543,6.587-8.068,5.485-8.969,17.02-11.144,25.681-2.575,10.252-5.549,20.391-8.546,30.527-3.5,11.827-6.81,23.693-9.613,35.705a1.922,1.922,0,0,0-.027.208l3.6-.176c4.537-19.221,10.645-37.977,15.782-57.035q2.187-8.111,4.1-16.293c1.132-4.831,2.21-10.145,5.667-13.922,4.285-4.681,12.194-6.128,18.107-7.4a130.916,130.916,0,0,1,14.753-2.355c2.211-.217,2.233-3.7,0-3.484" transform="translate(-172.372 -125.393)" fill="#323232"/>
        <path id="パス_974" data-name="パス 974" d="M579.629,242.715a9.991,9.991,0,0,0-10.593-6.537c-.8.077-1.6.172-2.394.26,0-.043.016-.082.017-.127.174-4.814-1.147-9.535-4.75-12.907-2.422-2.266-5.552-3.718-8.3-5.53-2.853-1.879-5.629-3.877-8.346-5.948q-2.785-2.122-5.481-4.358a9.529,9.529,0,0,0-1.375-1.214c.07-1.307-.628-2.964-.9-4.245q-.623-2.968-1.245-5.936c-.4-1.89-.785-2.876-2.857-3.017-.834-.056-1.676-.069-2.519-.057a1.753,1.753,0,0,0,.12-.678q-.093-5.854-.186-11.708a2.75,2.75,0,0,0,.323-.571c-.359.858.3-.632.4-.847.527-1.113,1.1-2.206,1.687-3.287a107.236,107.236,0,0,1,6.9-10.934c2.693-3.777,5.877-7.047,6.833-11.73a28.04,28.04,0,0,0-.71-12.705c-2.2-8.327-6.678-16.937-13.567-22.291-6.986-5.429-15.961-7.9-24.707-8.233a42.835,42.835,0,0,0-30.068,10.841,1.507,1.507,0,0,0-.191,2.153,7.56,7.56,0,0,0,2.093-2.421,7.56,7.56,0,0,1-2.093,2.421,1.783,1.783,0,0,0,2.654.31c13.138-11.762,34.666-13.338,49.2-3.065,6.864,4.851,11.208,13.229,13.317,21.21,1.047,3.965,1.58,8.354.334,12.341-1.294,4.14-4.794,7.48-7.22,11a84.935,84.935,0,0,0-7.648,13.016c-2.83-.032-5.66-.1-8.49-.17-.984-3.42-1.493-7.12-3.183-10.231-1.723-3.169-4.662-4.16-8.1-4.286a1.516,1.516,0,0,0-1.575,1.042A4.466,4.466,0,0,1,510,165.394a4.466,4.466,0,0,0-2.991-1.119,1.786,1.786,0,0,0,1.575,2.441c3.443.126,4.963,1.478,5.957,4.8.834,2.789,1.422,5.642,2.354,8.4a1.8,1.8,0,0,0,1.68,1.278c2.924.072,5.848.143,8.773.185q.088,5.517.175,11.034a1.732,1.732,0,0,0,.213.82c-.613.042-1.223.089-1.829.136-8.495.66-17.123,2.241-24.918,5.786a33.877,33.877,0,0,0-7.3,4.424q-.212-4.976-.423-9.954a1.762,1.762,0,0,0-2.621-1.5c-3.971,2.171-8.783,4.032-13.352,4.007-4.119-.022-6.545-2.372-6.418-6.522a15.718,15.718,0,0,0-.421-5.064c-.4-1.343-.626-.23.238-1.231.471-.546,1.229-.914,1.741-1.448a1.817,1.817,0,0,0,.326-.477,1.783,1.783,0,0,0,.319-2.005,6.3,6.3,0,0,0-3.925-3.316c-1.132-.452-2.128-.6-2.026-2,.067-.919.6-1.644.5-2.662-.182-1.86-1.612-3.986-2.621-5.509-.743-1.121-1.8-1.81-.919-3.287a10.757,10.757,0,0,1,2.982-2.517c9.431-6.9,1.956-17.879,5.583-27.015.615-1.55-1.089-2.444-2.339-1.955a12.436,12.436,0,0,0-.952,4.656,12.436,12.436,0,0,1,.952-4.656,1.776,1.776,0,0,0-1.02,1.029c-2.167,5.46-.593,10.635-.485,16.237.062,3.21-.324,6.168-2.944,8.3-1.672,1.36-3.68,2.4-4.893,4.256-3.132,4.785,3.78,7.3,2.968,11.76-.357,1.958-.888,3.2.769,4.861,1.244,1.247,3.239,1.44,4.509,2.491-1.155.889-2.544,1.62-2.782,3.141-.162,1.043.376,1.712.676,2.649a12.142,12.142,0,0,1,.262,4.12c-.082,4.361,2.087,7.989,6.438,9.205,5.135,1.435,11.154-.408,16.087-2.764q.2,4.671.4,9.343a1.738,1.738,0,0,0,.263.861c-.232.269-.47.534-.689.815a99.714,99.714,0,0,0-5.507,8.594,1.535,1.535,0,0,0-.165,1.424,12.09,12.09,0,0,1,2.583-2.127,12.09,12.09,0,0,0-2.583,2.127,1.8,1.8,0,0,0,3.173.334c3.565-5.7,6.542-10.873,12.641-14.245,7.082-3.915,15.424-5.625,23.406-6.455a80.786,80.786,0,0,1,8.344-.48c.193,0,.63.064,1.055.1.027.1.047.18.049.192.687,3.277,1.311,6.575,2.063,9.837.488,2.12,1.963,2.953,3.636,4.313a158.521,158.521,0,0,0,14.943,10.9c2.993,1.9,6.254,3.4,8.1,6.593a14.2,14.2,0,0,1,1.577,7.765,1.788,1.788,0,0,0,.063.525c-3.755.471-7.506,1-11.254,1.473l-54.457,6.807c-1.452.181-2.909.34-4.359.545a10.068,10.068,0,0,0-8.863,9.53c-.429,5.741-.552,11.522-.828,17.272-.728,15.167-1.73,30.351-2.273,45.53l3.582-.176,1.709-35.628q.564-11.752,1.126-23.5a25.4,25.4,0,0,1,.333-4.694c.851-3.495,3.817-4.674,6.949-5.065l49.024-6.128,22.082-2.76a36.856,36.856,0,0,1,4.076-.473c7.872-.091,6.544,8.721,6.386,13.995-.6,19.953-1.316,39.9-2.04,59.852l3.488-.171q.99-27.2,1.873-54.409.131-4.2.254-8.4c.074-2.548.427-5.267-.416-7.721" transform="translate(-192.991 -46.171)" fill="#323232"/>
        <path id="パス_975" data-name="パス 975" d="M485.252,184.313a1.743,1.743,0,0,0,0-3.484,1.743,1.743,0,0,0,0,3.484" transform="translate(-202.814 -75.842)" fill="#323232"/>
        <path id="パス_976" data-name="パス 976" d="M485.338,136.1c-1.014-.111-2.076.52-1.955,1.579a8.162,8.162,0,0,1,1.522-.862,5.517,5.517,0,0,1,.433-.717" transform="translate(-202.732 -57.079)" fill="#323232"/>
        <path id="パス_977" data-name="パス 977" d="M515.1,175.15c.3,0,.6,0,.891.008a17.3,17.3,0,0,0,1.51-8.929c-.734-6.053-6.655-9.026-11.032-5.581a45.066,45.066,0,0,1-6.707-14.71c-.55-2.172-3.91-1.252-3.359.926.163.647.345,1.288.533,1.925-4.692-2.369-8-6.55-10.062-11.54a1.82,1.82,0,0,0-1.532-1.134,5.437,5.437,0,0,0-.433.717,8.143,8.143,0,0,0-1.522.862,1.774,1.774,0,0,0,.128.481c2.891,6.99,7.678,12.6,14.948,14.995a47.537,47.537,0,0,0,5.464,9.92,1.83,1.83,0,0,0,.6.539,1.9,1.9,0,0,0,3.291.508c1.869-2.54,4.86-1.808,5.894.971a9.637,9.637,0,0,1,.117,5.249c-.738,3.482-2.62,7.235-5.8,9.064a1.743,1.743,0,0,0,1.759,3.007,15.7,15.7,0,0,0,6.2-7.27c-.3-.006-.593-.008-.891-.008" transform="translate(-202.739 -57.088)" fill="#323232"/>
        <path id="パス_978" data-name="パス 978" d="M484.054,162.421c1.293-.678,2.945.109,3.837,1.1,1.5,1.67,3.96-.8,2.463-2.463a6.835,6.835,0,0,0-8.059-1.645c-1.987,1.041-.228,4.048,1.758,3.008" transform="translate(-201.914 -66.572)" fill="#323232"/>
        <path id="パス_979" data-name="パス 979" d="M519.082,287.561a148.981,148.981,0,0,1,35.4-6.983c2.223-.162,2.24-3.647,0-3.484a152.887,152.887,0,0,0-36.327,7.107c-2.122.692-1.214,4.057.926,3.359" transform="translate(-216.814 -116.214)" fill="#323232"/>
        <path id="パス_980" data-name="パス 980" d="M339.552,276.226l.627,8.014,2.191-1.6-1.558-5.834-1.26-.579" transform="translate(-142.412 -115.852)" fill="#fff"/>
        <path id="パス_981" data-name="パス 981" d="M346.974,291.551l-2.347,1.714,6.979,3.333q-.116-1.473-.231-2.945Z" transform="translate(-144.54 -122.28)" fill="#fff"/>
        <path id="パス_982" data-name="パス 982" d="M366.705,264.795l-7.1-3.389q.079,1.017.159,2.034l5.887,2.123,1.051-.768" transform="translate(-150.823 -109.636)" fill="#fff"/>
        <path id="パス_983" data-name="パス 983" d="M348.582,263.839q-.077-.982-.154-1.964l-7.22,4.958,1.36.625Z" transform="translate(-143.106 -109.833)" fill="#fff"/>
        <path id="パス_984" data-name="パス 984" d="M270.306,261.275a1.32,1.32,0,0,0-2.639,0,1.32,1.32,0,0,0,2.639,0" transform="translate(-112.262 -109.046)" fill="#fff"/>
        <path id="パス_985" data-name="パス 985" d="M370.975,273.184l-2.117,5.215,4.617,2.123q-.34-4.334-.679-8.668l-1.821,1.33" transform="translate(-154.703 -114.018)" fill="#fff"/>
        <path id="パス_986" data-name="パス 986" d="M362.11,291.3q.145,1.855.29,3.709l6.556-4.5-4.566-2.1Z" transform="translate(-151.873 -120.96)" fill="#fff"/>
        <path id="パス_987" data-name="パス 987" d="M352.677,286.51l-4.007,2.927,4.4,2.1-.394-5.028" transform="translate(-146.236 -120.165)" fill="#35cae9"/>
        <path id="パス_988" data-name="パス 988" d="M361.559,286.344q.16,2.044.32,4.088l2.281-2.892-2.6-1.2" transform="translate(-151.642 -120.096)" fill="#35cae9"/>
        <path id="パス_989" data-name="パス 989" d="M350.084,271.88q-.26-3.311-.519-6.622l-6.013,3.619,6.532,3" transform="translate(-144.089 -111.252)" fill="#35cae9"/>
        <path id="パス_990" data-name="パス 990" d="M341.722,277.223l1.558,5.835,4.3-3.14-5.859-2.695" transform="translate(-143.322 -116.27)" fill="#35cae9"/>
        <path id="パス_991" data-name="パス 991" d="M359.882,264.909l.475,6.075,5.412-3.953Z" transform="translate(-150.938 -111.106)" fill="#35cae9"/>
        <path id="パス_992" data-name="パス 992" d="M363.548,277.943l3.083,1.417,2.116-5.214-5.2,3.8" transform="translate(-152.476 -114.98)" fill="#35cae9"/>
        <path id="パス_993" data-name="パス 993" d="M360.949,261.329a1.755,1.755,0,0,0-.863-1.5l-12.8-6.11a1.763,1.763,0,0,0-1.758,0l-6.318,4.338-3.969,2.725c-.6.415-1.658.92-2.028,1.588-.938,1.692.109,5.3.248,7.09l.62,7.926a1.756,1.756,0,0,0,.863,1.5l12.8,6.11a1.852,1.852,0,0,0,1.6.09,1.5,1.5,0,0,0,.691-.455l11.1-7.625a1.43,1.43,0,0,0,.916-1.54q-.554-7.068-1.107-14.136m-16.034-2.975q.077.982.154,1.964.26,3.311.518,6.622l-6.532-3-1.36-.626,7.22-4.958M337.36,274.7q-.313-4.007-.628-8.014l1.26.579,5.859,2.694-4.3,3.141-2.191,1.6m2.32,2.6,2.347-1.714,4.007-2.927.394,5.028q.115,1.472.23,2.945L339.68,277.3m9.331-11.107q-.237-3.037-.475-6.075-.08-1.017-.16-2.034l7.1,3.389-1.051.768-5.412,3.952m1.109,14.167q-.145-1.855-.29-3.709-.16-2.043-.32-4.087l2.6,1.2,4.566,2.1-6.556,4.5m3.628-9.664-3.083-1.417,5.2-3.8,1.822-1.33q.339,4.334.678,8.668l-4.616-2.123" transform="translate(-139.593 -106.311)" fill="#353535"/>
        <path id="パス_994" data-name="パス 994" d="M271.214,259.275a2.565,2.565,0,0,0,0-1.093,4.8,4.8,0,1,0,0,1.093m-6.064-.548a1.32,1.32,0,0,1,2.639,0,1.32,1.32,0,0,1-2.639,0" transform="translate(-109.746 -106.498)" fill="#353535"/>
        <path id="パス_995" data-name="パス 995" d="M283.655,260.076,305,258.435c2.221-.171,2.239-3.655,0-3.484l-21.341,1.641c-2.221.171-2.239,3.657,0,3.484" transform="translate(-118.266 -106.927)" fill="#353535"/>
        <path id="パス_996" data-name="パス 996" d="M300.892,287.651c2.216-.193,2.236-3.679,0-3.484L269.52,286.9c-2.217.193-2.237,3.679,0,3.484l31.372-2.736" transform="translate(-112.339 -119.179)" fill="#353535"/>
        <path id="パス_997" data-name="パス 997" d="M302.148,298.018c2.216-.193,2.236-3.679,0-3.484l-31.372,2.736c-2.217.193-2.237,3.679,0,3.484l31.372-2.736" transform="translate(-112.866 -123.527)" fill="#353535"/>
        <path id="パス_998" data-name="パス 998" d="M303.4,304.9l-31.373,2.736c-2.216.193-2.236,3.679,0,3.484l31.373-2.736c2.216-.193,2.236-3.679,0-3.483" transform="translate(-113.393 -127.875)" fill="#353535"/>
      </g>
    </g>
  </g>
</svg>
