<svg xmlns="http://www.w3.org/2000/svg" width="78" height="73" viewBox="0 0 78 73">
  <g id="pickup_03" transform="translate(-67.067 -13)">
    <g id="グループ_670" data-name="グループ 670" transform="translate(-3938.127 -845.557)">
      <path id="パス_903" data-name="パス 903" d="M758.716,469.218l8.469-18.161-5.607-2.615L753.109,466.6l5.607,2.615" transform="translate(3257.612 430.612)" fill="#fff"/>
      <path id="パス_904" data-name="パス 904" d="M856.277,451.057l8.469,18.161,5.607-2.615-8.469-18.161-5.607,2.615" transform="translate(3207.07 430.612)" fill="#fff"/>
      <path id="パス_905" data-name="パス 905" d="M797.143,489.584a1.57,1.57,0,0,1,1.53-1.53c-.422.051-.085,0,.015-.022l.052-.013c-.016,0,.148-.057.186-.079.065-.037.125-.084.19-.12l-.073.041c-.061.04-.1.058,0,0a.589.589,0,0,0,.079-.061c.055-.052.1-.109.155-.165.02-.027.055-.073.085-.123.063-.1.118-.2.173-.31a1.16,1.16,0,0,1,.086-.127,64.356,64.356,0,0,1-4.669-4.434c-1.381-1.408.782-3.573,2.164-2.164q1.422,1.449,2.9,2.844a26.266,26.266,0,0,0,2.14,1.909c.857.645,1.645.146,1.736-.944-.141-.132-.282-.265-.421-.4-1.549-1.533-3.06-3.1-4.56-4.685-1.356-1.429.805-3.6,2.164-2.164q1.3,1.373,2.627,2.73c.71.728,2.692,3.473,3.781,3.288a1.557,1.557,0,0,0,1.055-1.477c-.141-.586-1.863-1.784-2.328-2.233q-1.65-1.594-3.289-3.2c-1.409-1.382.757-3.544,2.164-2.164,1.719,1.685,3.675,3.274,5.289,5.069a1.65,1.65,0,0,1,.183.086c1.664,1,2.277-.273,1.692-1.468a13.643,13.643,0,0,0-2.2-2.6q-2.352-2.657-4.789-5.238-2.882-3.066-5.846-6.054a1.533,1.533,0,0,1,.719-2.545l-1.61-1.8c-1.835,3.305-4.771,7.558-9.2,5.651a4.791,4.791,0,0,1-2.687-4.412c.128-2.051,2.294-3.992,3.483-5.542.474-.618.963-1.276,1.509-1.867-1.138-.2-2.274-.447-3.2.223.967.829.665,2.8-.92,2.7a6.053,6.053,0,0,0-4.338,1.459,1.518,1.518,0,0,1-1.489.393l-3.69-1.535-6.656,14.274a1.625,1.625,0,0,1,.4.153l2.911,1.606a1.536,1.536,0,0,1-.678,2.836l.754.936a8.543,8.543,0,0,1,1.972-2.4,9.991,9.991,0,0,1,2.409-2.076,49.727,49.727,0,0,0,8.864,4.763,4.209,4.209,0,0,0,3.95,3.95,4.279,4.279,0,0,1,1.231,2.945,3.97,3.97,0,0,1,2.955,1.242,4.349,4.349,0,0,1-.033,6.074,1.663,1.663,0,0,0,1.973.193,1.742,1.742,0,0,1-.893-1.414" transform="translate(3248.687 428.357)" fill="#fff"/>
      <path id="パス_906" data-name="パス 906" d="M834.17,474.733l3.244-1.784-7.466-16.011a29,29,0,0,1-3.59,1.457c-3.07,1-5.038.285-8.01-.743-1.786-.618-4.87-2.247-6.59-1-1.372,1-2.418,3.033-3.434,4.359-.393.512-.937.925-.908,1.616.068,1.6,2.214,1.486,3.173.912,1.461-.874,2.258-2.812,3.041-4.232.952-1.727,3.594-.182,2.643,1.545l-.067.121,1.61,1.8a1.384,1.384,0,0,1,1.446.381c4.226,4.236,8.457,8.563,12.279,13.169a9.424,9.424,0,0,1,1.344,2.086l1.524-.958a1.516,1.516,0,0,1-.238-2.72" transform="translate(3231.008 426.814)" fill="#fff"/>
      <path id="パス_907" data-name="パス 907" d="M826.007,451.735a1.966,1.966,0,0,1-.174-.8c-.8.394-1.625.755-2.462,1.067-2.506.932-3.842.726-6.354-.16-2.207-.778-5.288-2.414-7.664-2.029a5.325,5.325,0,0,0-3.033,1.838,5.169,5.169,0,0,0,2.137.073,5.169,5.169,0,0,1-2.137-.073c-.546.591-1.035,1.249-1.509,1.867-1.19,1.551-3.356,3.492-3.483,5.542a4.791,4.791,0,0,0,2.687,4.412c4.433,1.907,7.369-2.345,9.2-5.651l-.486-.543.486.543.067-.121c.951-1.726-1.691-3.272-2.643-1.545-.783,1.42-1.58,3.357-3.041,4.232-.96.574-3.1.687-3.173-.911-.03-.691.515-1.1.908-1.617,1.016-1.326,2.062-3.361,3.434-4.359,1.72-1.251,4.8.378,6.59,1,2.971,1.028,4.939,1.74,8.01.743a29.081,29.081,0,0,0,3.59-1.458l-.954-2.046" transform="translate(3233.993 429.97)" fill="#353535"/>
      <path id="パス_908" data-name="パス 908" d="M837.468,484.666l-1.622,1.019,1.622-1.019a9.434,9.434,0,0,0-1.344-2.086c-3.822-4.606-8.053-8.933-12.28-13.169a1.383,1.383,0,0,0-1.446-.381l2.1,2.345-2.1-2.345a1.532,1.532,0,0,0-.718,2.544c1.981,1.986,3.925,4.011,5.846,6.054q2.43,2.586,4.789,5.238a13.622,13.622,0,0,1,2.2,2.6c.586,1.194-.028,2.463-1.691,1.468a1.667,1.667,0,0,0-.183-.087c-1.614-1.794-3.571-3.383-5.289-5.068-1.407-1.38-3.574.782-2.164,2.164q1.638,1.606,3.289,3.2c.465.449,2.187,1.648,2.328,2.233a1.556,1.556,0,0,1-1.055,1.477c-1.088.185-3.071-2.56-3.781-3.288q-1.322-1.357-2.627-2.73c-1.359-1.431-3.521.736-2.164,2.164,1.5,1.58,3.012,3.152,4.56,4.685.139.137.279.271.42.4-.091,1.089-.879,1.589-1.736.943a26.142,26.142,0,0,1-2.139-1.909q-1.477-1.393-2.9-2.844c-1.381-1.408-3.545.756-2.164,2.164a63.985,63.985,0,0,0,4.669,4.434,1.34,1.34,0,0,0-.086.127c-.055.106-.11.209-.172.31-.031.049-.065.1-.085.123-.05.056-.1.112-.155.165a.588.588,0,0,1-.079.06l.073-.041c-.065.036-.125.083-.19.12-.038.022-.2.076-.186.079l-.052.013c-.1.027-.437.073-.015.021a1.571,1.571,0,0,0-1.53,1.53,1.741,1.741,0,0,0,.893,1.414,16.226,16.226,0,0,1,1.849-.934,16.226,16.226,0,0,0-1.849.934,1.109,1.109,0,0,0,.637.116,4.354,4.354,0,0,0,3.5-2.366,1.67,1.67,0,0,0,.111-.272,4.081,4.081,0,0,0,4.293-2.487,3.456,3.456,0,0,0,3.019-.64,4.755,4.755,0,0,0,1.9-2.806,3.76,3.76,0,0,0,3.857-2.134,4.179,4.179,0,0,0-.153-3.54" transform="translate(3226.424 420.559)" fill="#353535"/>
      <path id="パス_909" data-name="パス 909" d="M825.6,521.3c-.1.058-.061.04,0,0" transform="translate(3222.129 394.921)" fill="#353535"/>
      <path id="パス_910" data-name="パス 910" d="M771.292,490.6l1.454,1.8a1.536,1.536,0,0,0,.678-2.836l-2.911-1.606a1.623,1.623,0,0,0-.4-.153l-1.265,2.713c.041.028.075.058.12.083l2.911,1.606a1.494,1.494,0,0,0,.867.193Z" transform="translate(3249.902 411.325)" fill="#353535"/>
      <path id="パス_911" data-name="パス 911" d="M793.895,453.194a8.975,8.975,0,0,0-5.653,1.7l-2.58-1.074-1.285,2.756,3.691,1.536a1.519,1.519,0,0,0,1.488-.394,6.055,6.055,0,0,1,4.338-1.459c1.585.092,1.887-1.874.92-2.7a2.839,2.839,0,0,0-.779.87,2.839,2.839,0,0,1,.779-.87,1.514,1.514,0,0,0-.92-.358" transform="translate(3242.294 428.291)" fill="#353535"/>
      <path id="パス_912" data-name="パス 912" d="M862.385,489.039l-3.244,1.784a1.516,1.516,0,0,0,.238,2.72l1.172-.737-1.172.737a1.43,1.43,0,0,0,1.306-.078l3-1.647-1.3-2.78" transform="translate(3206.036 410.724)" fill="#353535"/>
      <path id="パス_913" data-name="パス 913" d="M784.67,496.621c-.694.694-2.146,1.776-1.1,2.825,1.193,1.053,2.307-.576,3.077-1.347.685-.684,2.04-1.714,1.013-2.742-1.1-1.1-2.284.553-2.994,1.264" transform="translate(3242.868 407.808)" fill="#fff"/>
      <path id="パス_914" data-name="パス 914" d="M792.414,504.365c-.694.694-2.145,1.776-1.1,2.825,1.193,1.053,2.307-.576,3.078-1.347.685-.684,2.04-1.714,1.013-2.742-1.1-1.1-2.284.553-2.994,1.264" transform="translate(3239.074 404.014)" fill="#fff"/>
      <path id="パス_915" data-name="パス 915" d="M802.141,513.588c.684-.684,2.04-1.714,1.012-2.742-1.1-1.1-2.284.554-2.994,1.264-.694.694-2.146,1.776-1.1,2.826,1.192,1.053,2.307-.576,3.077-1.348" transform="translate(3235.28 400.22)" fill="#fff"/>
      <path id="パス_916" data-name="パス 916" d="M810.753,521.406c1.258,1.15,3.543-1.115,2.329-2.329s-3.534,1.123-2.329,2.329" transform="translate(3229.538 396.174)" fill="#fff"/>
      <path id="パス_917" data-name="パス 917" d="M799,502.357a3.974,3.974,0,0,0-2.955-1.242,13.088,13.088,0,0,1-5.181-6.895,4.208,4.208,0,0,1-3.95-3.95,4.324,4.324,0,0,0-4.914-.812,9.977,9.977,0,0,0-2.409,2.076,8.533,8.533,0,0,0-1.972,2.4l1.369,1.7-1.369-1.7c-.031.067-.064.133-.09.2a4.327,4.327,0,0,0,.694,4.231,1.578,1.578,0,0,0,.272.317,4.817,4.817,0,0,0,2.721,1.223,4.3,4.3,0,0,0,.956,2.411,1.6,1.6,0,0,0,.273.317,4.821,4.821,0,0,0,2.721,1.223,4.3,4.3,0,0,0,.956,2.41,1.594,1.594,0,0,0,.273.317,4.391,4.391,0,0,0,4.912.813,4.253,4.253,0,0,0,1.036,1.612c2.027,1.852,4.636,1.457,6.468-.409.055-.056.1-.116.156-.174a3.231,3.231,0,0,1-.259-.232,3.231,3.231,0,0,0,.259.232,4.349,4.349,0,0,0,.033-6.074m-18.341-5.833c-1.05-1.05.4-2.132,1.1-2.826.71-.71,1.9-2.36,2.994-1.264,1.028,1.028-.328,2.058-1.012,2.742-.771.771-1.885,2.4-3.077,1.348m3.95,3.95c-1.049-1.049.4-2.132,1.1-2.825.711-.711,1.9-2.361,2.994-1.264,1.028,1.028-.328,2.058-1.013,2.742-.771.771-1.885,2.4-3.077,1.347m7.028,2.6c-.771.771-1.885,2.4-3.077,1.348-1.05-1.05.4-2.132,1.1-2.826.711-.71,1.9-2.36,2.994-1.264,1.028,1.028-.328,2.058-1.012,2.742m2.87,3.773c-1.206-1.206,1.118-3.54,2.329-2.329s-1.071,3.478-2.329,2.329" transform="translate(3245.781 410.73)" fill="#353535"/>
      <path id="パス_918" data-name="パス 918" d="M766.595,445.611l-8.37-3.9a1.553,1.553,0,0,0-2.093.549l-9.757,20.923a1.554,1.554,0,0,0,.549,2.094l8.369,3.9a1.7,1.7,0,0,0,.374.121,1.261,1.261,0,0,0,1.72-.671l.363-.778,1.265-2.713,6.656-14.274,1.285-2.755.188-.4a1.554,1.554,0,0,0-.549-2.094m-11.267,20.22-5.607-2.615,8.469-18.161,5.607,2.615-8.469,18.161" transform="translate(3261 434)" fill="#35cae9"/>
      <path id="パス_919" data-name="パス 919" d="M860.561,442.26a1.561,1.561,0,0,0-2.093-.549l-8.369,3.9a1.337,1.337,0,0,0-.723,1.293,1.966,1.966,0,0,0,.174.8l.954,2.047,7.466,16.011,1.3,2.78.04.086a1.26,1.26,0,0,0,1.719.671,1.675,1.675,0,0,0,.375-.122l8.369-3.9a1.561,1.561,0,0,0,.549-2.093l-9.757-20.923m6.41,20.958-5.607,2.615L852.9,447.672l5.607-2.615,8.469,18.161" transform="translate(3210.451 433.997)" fill="#35cae9"/>
    </g>
    <rect id="長方形_380" data-name="長方形 380" width="78" height="73" transform="translate(67.067 13)" fill="none"/>
  </g>
</svg>
