<svg xmlns="http://www.w3.org/2000/svg" width="200" height="190" viewBox="0 0 200 190">
  <g id="pickup_text01" transform="translate(-3823.067 -612.109)">
    <rect id="長方形_385" data-name="長方形 385" width="200" height="190" rx="10" transform="translate(3823.067 612.109)" fill="none"/>
    <g id="グループ_689" data-name="グループ 689" transform="translate(0 2)">
      <path id="パス_1147" data-name="パス 1147" d="M-72.3-9.656h.629v5.491c0,.136-.068.187-.221.187a2.021,2.021,0,0,1-.34-.051,4.2,4.2,0,0,1,.34,1.7,2.219,2.219,0,0,0,.289.017c1.105,0,1.445-.34,1.445-1.462V-9.945a14.1,14.1,0,0,1,.034-1.445,7.462,7.462,0,0,1-1.19.068H-72.3v-1.343a7.951,7.951,0,0,1,.1-1.6h-1.87a9.892,9.892,0,0,1,.1,1.6v1.343h-.765a10.552,10.552,0,0,1-1.394-.068,12.159,12.159,0,0,1,.068,1.547v6c0,.612-.034,1.258-.085,1.836h1.649a14.963,14.963,0,0,1-.051-1.734V-9.656h.578V-.2a9.787,9.787,0,0,1-.1,1.632h1.853A10.17,10.17,0,0,1-72.3-.2Zm2.346-2.465a10.867,10.867,0,0,1,1.615-.085h5.95a11.056,11.056,0,0,1,1.666.085v-1.768a10.848,10.848,0,0,1-1.666.1h-5.95a10.275,10.275,0,0,1-1.615-.1Zm.867,3.315a10.441,10.441,0,0,1-.068,1.326,15.516,15.516,0,0,1,1.666-.068h4.318a14.21,14.21,0,0,1,1.649.068,10.549,10.549,0,0,1-.068-1.343V-10.1a8.024,8.024,0,0,1,.068-1.326,13.486,13.486,0,0,1-1.581.068h-4.4a14.589,14.589,0,0,1-1.649-.068,10.549,10.549,0,0,1,.068,1.343ZM-67.354-10h4v1.02h-4ZM-69.581-.561c0,.816-.034,1.394-.085,1.955h1.734V.68h5.321v.714h1.8A16.8,16.8,0,0,1-60.894-.6V-5c0-.646.017-1.19.068-1.734a16.428,16.428,0,0,1-1.751.068h-5.3a16.575,16.575,0,0,1-1.768-.068c.034.544.068,1.037.068,1.751Zm1.649-4.59h1.87v1.36h-1.87Zm3.5,0h1.9v1.36h-1.9Zm-3.5,2.822h1.87V-.85h-1.87Zm3.5,0h1.9V-.867h-1.9ZM-55.59.9C-55.4.867-55.3.85-55,.816-52.207.51-50.626.34-50.235.289-48.4.051-48.263.034-45.9-.425c.323.7.442.986.782,1.87L-43.435.357a35.573,35.573,0,0,0-3.825-6.6l-1.6.9A30.168,30.168,0,0,1-46.7-1.989a53.08,53.08,0,0,1-5.542.7,40.59,40.59,0,0,0,2.72-7.327c.119-.391.136-.476.272-.918l-2.159-.527a34.041,34.041,0,0,1-2.907,8.925c-.357.017-1,.034-1.207.034a4.148,4.148,0,0,1-.442-.017Zm4.1-13.277h-4.165a13.2,13.2,0,0,1-1.768-.085c.051.595.068,1.156.068,2.431,0,5.355-.391,7.6-1.717,9.792a9.359,9.359,0,0,1,1.5,1.6c1.632-2.771,2.125-5.576,2.142-11.951h10.081a14.229,14.229,0,0,1,1.972.085v-1.972a14.111,14.111,0,0,1-1.972.1h-4.216v-.816a3.986,3.986,0,0,1,.085-1h-2.091a4.107,4.107,0,0,1,.085.969Zm11.067-.119a8.123,8.123,0,0,1,.068,1.088c.068,4.709.374,7.174,1.071,8.874.68,1.632,1.6,2.465,2.737,2.465,1.445,0,2.431-1.377,3.315-4.692a8.392,8.392,0,0,1-1.7-1.547,12.533,12.533,0,0,1-.9,3.077c-.2.476-.442.731-.7.731-.544,0-1.088-1.088-1.377-2.856a31.813,31.813,0,0,1-.323-4.556,19.763,19.763,0,0,1,.136-2.584Zm8.585,1.615A14.839,14.839,0,0,1-29.427-6.7a17.234,17.234,0,0,1,1.088,4.913l2.108-.8a16.949,16.949,0,0,0-3.825-9.146ZM-21.76-9.5a14.665,14.665,0,0,1,1.989-.085h6.715a14.665,14.665,0,0,1,1.989.085v-2.244a10.574,10.574,0,0,1-2.006.119h-6.681a10.574,10.574,0,0,1-2.006-.119ZM-23.477-1.19a16.845,16.845,0,0,1,2.142-.085h9.826a16.845,16.845,0,0,1,2.142.085V-3.468a11.865,11.865,0,0,1-2.176.119H-21.3a11.865,11.865,0,0,1-2.176-.119ZM-6.868-5.338A18.663,18.663,0,0,1-4.1-5.423H4.93A18.662,18.662,0,0,1,7.7-5.338V-7.7a16.7,16.7,0,0,1-2.754.119H-4.114A16.7,16.7,0,0,1-6.868-7.7ZM23.375-.782a36.458,36.458,0,0,0-5.627-4.811A20.488,20.488,0,0,0,20.23-9.928a3.433,3.433,0,0,1,.544-.918l-1.258-1.513A3.683,3.683,0,0,1,18-12.172l-5.678.085h-.408a7.44,7.44,0,0,1-1.5-.1l.068,2.159a14.535,14.535,0,0,1,1.853-.119l5.1-.085.153-.017a3.154,3.154,0,0,0,.374-.017.5.5,0,0,0-.051.153L17.867-10l-.085.187a16.162,16.162,0,0,1-3.536,5.117A17.031,17.031,0,0,1,8.67-1.02,6.353,6.353,0,0,1,10.047.867a20.557,20.557,0,0,0,6.477-4.913A33.522,33.522,0,0,1,21.743,1Zm-3.417-12.58a11.474,11.474,0,0,1,1.785,2.533l1.139-.629a11.017,11.017,0,0,0-1.785-2.5Zm4.879.85a9.831,9.831,0,0,0-1.768-2.4L22-14.365A12.525,12.525,0,0,1,23.732-11.9Zm4.9,12.92c-.017-.221-.017-.357-.017-.459A13.956,13.956,0,0,1,31.229-5.2l-1.36-.612a17.338,17.338,0,0,0-.884,2.244c.017-.425.034-.561.034-.935a28.384,28.384,0,0,1,.255-3.757,23.438,23.438,0,0,1,1.071-5.083L28.1-13.583A11.124,11.124,0,0,1,27.846-12a32.636,32.636,0,0,0-.7,6.647,29.652,29.652,0,0,0,.442,5.083c.051.391.068.493.085.8ZM32.079-9.775a20.181,20.181,0,0,0,3.06.187,30.45,30.45,0,0,0,3.638-.2c.816-.1,1.071-.136,1.207-.153L39.882-12a18.747,18.747,0,0,1-4.624.459,12.257,12.257,0,0,1-3.145-.272Zm1.173,2.8a5.553,5.553,0,0,0-1.564,3.5A2.848,2.848,0,0,0,32.2-1.8c.748,1,2.108,1.479,4.216,1.479a20.964,20.964,0,0,0,3.519-.323,5.682,5.682,0,0,1,.7-.1l-.17-2.159a11.947,11.947,0,0,1-4.046.646c-1.768,0-2.7-.51-2.7-1.479a3.846,3.846,0,0,1,1.207-2.448Zm13.294-4.692H45a12.247,12.247,0,0,1-1.683-.1v1.853A10.938,10.938,0,0,1,44.9-10h3.145a16.484,16.484,0,0,1-.663,3.6c-.646-.748-.935-1.071-1.071-1.207-1-1.037-1-1.037-1.343-1.377L43.724-7.718a30.927,30.927,0,0,1,2.89,3.128A11.8,11.8,0,0,1,43.129-.425a6.084,6.084,0,0,1,1.292,1.581,16.707,16.707,0,0,0,3.383-4.2A24.417,24.417,0,0,1,49.759-.1L51.1-1.6C49.9-3.3,49.759-3.485,48.688-4.845A17.414,17.414,0,0,0,49.844-10a12.685,12.685,0,0,1,1.326.051v-1.819a9.079,9.079,0,0,1-1.632.1H48.331v-.952a13.491,13.491,0,0,1,.085-1.6H46.444a8.052,8.052,0,0,1,.1,1.6Zm8.772,2.584V-.969c0,.357-.1.408-1.02.408a17.079,17.079,0,0,1-2.057-.2,5.633,5.633,0,0,1,.527,1.887c.68.051,1.309.068,2.006.068,1.122,0,1.734-.17,2.057-.578.255-.306.306-.595.306-1.479V-9.078h.221a9.88,9.88,0,0,1,1.19.051l.391.051v-1.9a9.748,9.748,0,0,1-1.6.1h-.2v-1.343a15.308,15.308,0,0,1,.1-2.023H55.2a11.4,11.4,0,0,1,.119,2.023v1.343H53.159a10.325,10.325,0,0,1-1.615-.085v1.87a10.593,10.593,0,0,1,1.615-.085ZM50.677-7.191a15.155,15.155,0,0,1,2.38,4.114L54.6-4.1a21.348,21.348,0,0,0-2.4-3.927Zm17.748-3.774L67.116-9.809A16.356,16.356,0,0,1,71.434-6.7l1.309-1.445a21.652,21.652,0,0,0-4.25-2.822H74.12a16.452,16.452,0,0,1,1.989.085v-1.887a14.5,14.5,0,0,1-2.006.1H69.7V-13.4a3.839,3.839,0,0,1,.085-.986H67.728a4.377,4.377,0,0,1,.085.969v.748H63.478a13.672,13.672,0,0,1-1.768-.085c.051.578.068,1.156.068,2.38a47.69,47.69,0,0,1-.357,7.191,8.259,8.259,0,0,1-1.1,2.958,6.522,6.522,0,0,1,1.53,1.462C63.274-1.411,63.58-3.57,63.6-10.965ZM65.178.119A22.207,22.207,0,0,0,66.521-6.6l-1.768-.459a21.173,21.173,0,0,1-.374,3.281,10.3,10.3,0,0,1-.918,2.788Zm2.108-8.177a7.568,7.568,0,0,1,.1,1.581V-.085c0,1.02.6,1.275,2.958,1.275,1.445,0,2.142-.187,2.516-.663s.527-1.326.663-3.655a7.423,7.423,0,0,1-1.8-.6c0,3.06-.017,3.128-1.36,3.128-1.02,0-1.156-.068-1.156-.527V-6.46a12.27,12.27,0,0,1,.085-1.6Zm9.1,7A30.53,30.53,0,0,0,74.222-7.14l-1.615.8A20.41,20.41,0,0,1,74.562-.187Z" transform="translate(3921.701 773)" fill="#121212"/>
      <path id="パス_1151" data-name="パス 1151" d="M-7.123-9.639A21.336,21.336,0,0,1-4.3-9.979c3.3-.238,4.352-.34,5.729-.544A7.517,7.517,0,0,0-.935-8.806,5.92,5.92,0,0,0-2.55-4.811,4.548,4.548,0,0,0-.119-.714,10.227,10.227,0,0,0,3.859.408c.323.051.357.051.578.1L4.743-1.8c-.17.017-.323.017-.34.017A10.316,10.316,0,0,1,1.87-2.227,2.854,2.854,0,0,1-.391-5c0-1.717,1.275-3.417,3.434-4.539a7.6,7.6,0,0,1,3.366-.918,2.632,2.632,0,0,1,.357.017L6.647-12.6a9.159,9.159,0,0,1-1.751.136c-4.539.221-7.446.374-8.687.442-2.5.17-2.5.17-2.8.17-.085,0-.272,0-.646-.017Zm10.4,1.632A11.474,11.474,0,0,1,5.066-5.474L6.256-6.1A11.017,11.017,0,0,0,4.471-8.6Zm5,.8A9.831,9.831,0,0,0,6.511-9.6l-1.139.6A12.525,12.525,0,0,1,7.106-6.545Z" transform="translate(3989.803 744)" fill="#121212"/>
      <path id="パス_1150" data-name="パス 1150" d="M13.172-34.5a9.388,9.388,0,0,1,7.8,3.563q3.352,4.219,3.352,13.992,0,9.75-3.375,14.016A9.373,9.373,0,0,1,13.172.586,9.833,9.833,0,0,1,5.086-3.27q-3.07-3.855-3.07-13.746,0-9.7,3.375-13.969A9.373,9.373,0,0,1,13.172-34.5Zm0,5.461a3.29,3.29,0,0,0-2.133.762,5.114,5.114,0,0,0-1.453,2.73,37.661,37.661,0,0,0-.68,8.6,37.384,37.384,0,0,0,.609,8.309,5.842,5.842,0,0,0,1.535,3.012,3.275,3.275,0,0,0,2.121.75A3.29,3.29,0,0,0,15.3-5.637a5.114,5.114,0,0,0,1.453-2.73,37.328,37.328,0,0,0,.68-8.578,37.384,37.384,0,0,0-.609-8.309,5.923,5.923,0,0,0-1.535-3.023A3.244,3.244,0,0,0,13.172-29.039Z" transform="translate(3910.803 747)" fill="#05b3ff"/>
      <path id="パス_1149" data-name="パス 1149" d="M-11.44-8.12v2.26h-2.94a16.713,16.713,0,0,1-2.22-.1v2.24a19.944,19.944,0,0,1,2.22-.1h2.94v2.7H-16.4a20.321,20.321,0,0,1-2.56-.12V1.1a17.247,17.247,0,0,1,2.5-.14H-3.98a17.549,17.549,0,0,1,2.52.14V-1.24A21.075,21.075,0,0,1-4-1.12H-9.2v-2.7h3.24a19.8,19.8,0,0,1,2.2.1V-5.96a18.767,18.767,0,0,1-2.2.1H-9.2V-8.12h2.82a19.5,19.5,0,0,1,2.12.1V-9.48c.9.52,1.48.84,2.38,1.26A9.453,9.453,0,0,1-.6-10.52a18.123,18.123,0,0,1-4.9-2.54A14.592,14.592,0,0,1-9.06-16.6H-11.6a8.4,8.4,0,0,1-1.08,1.44,17.916,17.916,0,0,1-2.2,2.1,19.4,19.4,0,0,1-4.84,2.64A12.606,12.606,0,0,1-18.4-8.3a17.8,17.8,0,0,0,2.18-1.14v1.42a19.652,19.652,0,0,1,2.18-.1Zm-2.76-2.02c-.3,0-.48,0-.88-.02a16.055,16.055,0,0,0,4.82-4.54,17.933,17.933,0,0,0,4.92,4.54c-.38.02-.52.02-.94.02Zm23.18-.88v2.08H7.26a9.336,9.336,0,0,1-1.72-.1v1.98a9.743,9.743,0,0,1,1.72-.1H8.98v2.54H6.58a9.94,9.94,0,0,1-1.9-.12v2.08a11.839,11.839,0,0,1,1.9-.1h7.24a12.824,12.824,0,0,1,1.88.1V-4.74a10.259,10.259,0,0,1-1.96.12l1.08-.6a9.793,9.793,0,0,0-1.26-1.94,8.115,8.115,0,0,1,1.28.1V-9.04a9.2,9.2,0,0,1-1.72.1H11.06v-2.08H13.6a11.589,11.589,0,0,1,1.86.1v-2.02a11.141,11.141,0,0,1-1.86.1H6.8a10.9,10.9,0,0,1-1.82-.1v2.02a11.194,11.194,0,0,1,1.82-.1Zm2.08,3.86h1.96l-1.06.54a8.784,8.784,0,0,1,1.26,2H11.06ZM1.64-.98a18.936,18.936,0,0,1-.12,2.6H3.8V.48H16.58V1.62h2.28a16.136,16.136,0,0,1-.12-2.58V-13.8a20.608,20.608,0,0,1,.12-2.4,20.545,20.545,0,0,1-2.36.1H3.88a18.721,18.721,0,0,1-2.36-.1,23.912,23.912,0,0,1,.12,2.42ZM3.8-14.16H16.58v12.7H3.8Z" transform="translate(3863.701 744)" fill="#121212"/>
      <path id="パス_1148" data-name="パス 1148" d="M-11.1-13.8c.04-.4.06-.56.1-1.06.04-.54.1-1.12.16-1.48l-2-.24c.02.34.02.44.02.52a25.786,25.786,0,0,1-.52,4.74,16.5,16.5,0,0,1-1.28,3.9V-8.84c-.42.22-.56.28-.92.46V-11.1h.32c.46,0,.68.02,1.02.04v-2.06a7.163,7.163,0,0,1-1.02.06h-.32v-1.56a14.033,14.033,0,0,1,.1-2.04h-2.18a11.716,11.716,0,0,1,.12,2.06v1.54H-18a6.987,6.987,0,0,1-1.36-.1v2.14a10.245,10.245,0,0,1,1.38-.08h.48v3.56a11.5,11.5,0,0,1-1.9.52l-.12.02.36,2.22a2.243,2.243,0,0,0,.26-.1c.1-.04.24-.1.4-.16.44-.18.78-.32,1-.4V-.86c0,.36-.12.46-.58.46a7.215,7.215,0,0,1-1.3-.14,8.183,8.183,0,0,1,.4,2.06c.26.02.34.02.68.02.2,0,.38.02.54.02h.14c1.6,0,2.08-.46,2.08-1.96V-6.34c.22-.12.3-.16.52-.3a7.162,7.162,0,0,1,1.18,1.72,11.315,11.315,0,0,0,.88-1.62,13.859,13.859,0,0,0,.74,2.62A11.413,11.413,0,0,1-15.3-.3a6.527,6.527,0,0,1,1.24,1.82,15.4,15.4,0,0,0,2.88-3.48C-9.36.48-6.86,1.3-1.18,1.28A8.875,8.875,0,0,1-.6-.94c-.78.06-1.36.08-2.06.08a15.438,15.438,0,0,1-4.9-.66,5.85,5.85,0,0,1-2.66-2.24,23.847,23.847,0,0,0,1.74-8.82,10.839,10.839,0,0,1,.1-1.28,11.1,11.1,0,0,1-1.3.06Zm.76,2.02a20.863,20.863,0,0,1-.94,5.72A17.784,17.784,0,0,1-12-9.28c.22-.8.4-1.58.58-2.5Zm5.48-2v9.82c0,1.18.36,1.48,1.78,1.48,1.14,0,1.62-.16,1.84-.64.26-.58.32-1.12.44-4.26a3.808,3.808,0,0,1-1.44-.58v.54a26.137,26.137,0,0,1-.1,2.7c-.04.24-.12.32-.36.32-.18,0-.24-.06-.24-.26V-14a14,14,0,0,1,.08-1.78,8.437,8.437,0,0,1-1.34.08H-6.26a10.464,10.464,0,0,1-1.42-.08,19.745,19.745,0,0,1,.1,2.76c0,5.48-.4,7.72-1.74,9.52a7.411,7.411,0,0,1,1.7,1.34,10.887,10.887,0,0,0,1.44-3.7,43.458,43.458,0,0,0,.46-7.92Zm15.84,1.02h5.36a17.672,17.672,0,0,1,2.14.12v-2.2a15.488,15.488,0,0,1-2.14.12H10.98v-.32a10.534,10.534,0,0,1,.12-1.76H8.58a11.251,11.251,0,0,1,.14,1.96v4.04H5.62a17.01,17.01,0,0,1-2.26-.1,13.985,13.985,0,0,1,.08,1.66v3.76a12.247,12.247,0,0,1-.08,1.52,16.845,16.845,0,0,1,1.9-.08h9.82a18.094,18.094,0,0,1,1.94.08,11.5,11.5,0,0,1-.08-1.56V-9.24a13.349,13.349,0,0,1,.08-1.66,15.74,15.74,0,0,1-2.28.1H10.98Zm3.78,3.92v2.82H5.62V-8.84ZM2.92,1.66A13.956,13.956,0,0,0,5.26-2.96l-1.98-.7a9.2,9.2,0,0,1-.94,2.28A9.3,9.3,0,0,1,.92.54ZM9.2,1.28A30.877,30.877,0,0,0,8.68-3.2l-1.92.3A25.534,25.534,0,0,1,7.06.82c0,.18,0,.46-.02.82ZM14.04.94A31.8,31.8,0,0,0,12.46-3.4l-1.86.52a24.578,24.578,0,0,1,1.34,4.56ZM19.12.56a34.433,34.433,0,0,0-2.48-4.28l-1.88.74a23.48,23.48,0,0,1,2.3,4.6Z" transform="translate(3959.803 744)" fill="#05b3ff"/>
      <path id="パス_1152" data-name="パス 1152" d="M-7.8,0h-6.586V-24.82A22.7,22.7,0,0,1-22.9-19.828V-25.8A19.047,19.047,0,0,0-17.3-29a12.156,12.156,0,0,0,4.148-5.5H-7.8Z" transform="translate(3912.701 747)" fill="#05b3ff"/>
    </g>
    <g id="pickup_01" transform="translate(3817.701 604.109)">
      <g id="map" transform="translate(78.722 31)">
        <rect id="長方形_384" data-name="長方形 384" width="45" height="24" transform="translate(2.211 21.891)" fill="#fff"/>
        <path id="パス_1146" data-name="パス 1146" d="M24.947,31.749,13.939,16.407S12.78,1.456,24.947,1.456,35.719,16.407,35.719,16.407Z" fill="#fff"/>
        <path id="パス_469" data-name="パス 469" d="M21.524,36.668,12,23.214A12.735,12.735,0,0,1,21.524,2.25,12.641,12.641,0,0,1,34.039,14.969a12.829,12.829,0,0,1-2.816,8.025Zm0-31.289a9.5,9.5,0,0,0-9.387,9.59,9.684,9.684,0,0,0,2.331,6.258l7.056,10,7.244-10.2a9.762,9.762,0,0,0,2.143-6.055,9.5,9.5,0,0,0-9.387-9.59Z" transform="translate(3.423 -2.25)" fill="#35cae9"/>
        <path id="パス_470" data-name="パス 470" d="M22.008,11a3.129,3.129,0,1,1-3.129-3.129A3.129,3.129,0,0,1,22.008,11Z" transform="translate(6.068 -0.053)"/>
        <path id="パス_471" data-name="パス 471" d="M48.579,13.5h-6.37v3.646h5.969v20.74H6.243V17.146h5.941V13.5H5.814A3.368,3.368,0,0,0,2.25,16.629v21.9A3.368,3.368,0,0,0,5.814,41.66H48.579a3.368,3.368,0,0,0,3.564-3.129v-21.9A3.368,3.368,0,0,0,48.579,13.5Z" transform="translate(-2.25 6.838)" fill="#0a0f0f"/>
      </g>
      <rect id="長方形_264" data-name="長方形 264" width="78" height="73" transform="translate(63.933 21.891)" fill="none"/>
    </g>
  </g>
</svg>
