<svg xmlns="http://www.w3.org/2000/svg" width="200" height="190" viewBox="0 0 200 190">
  <g id="pickup_text02" transform="translate(-4060.634 -612.109)">
    <rect id="長方形_386" data-name="長方形 386" width="200" height="190" rx="10" transform="translate(4060.634 612.109)" fill="none"/>
    <g id="グループ_417" data-name="グループ 417" transform="translate(4113.634 696)">
      <path id="パス_1153" data-name="パス 1153" d="M-39.44-13.48c0,1.52-.02,1.72-.06,2.54a16.659,16.659,0,0,1-1.72,6.9A10.071,10.071,0,0,1-44.2-.46a6.593,6.593,0,0,1,1.58,1.88A16.356,16.356,0,0,0-40.48-.9a14.316,14.316,0,0,0,2.42-5.14,29.222,29.222,0,0,0,.82-7.44h2.78c-.04,3.56-.04,4.2-.12,6.22-.08,1.62-.26,3.82-.42,4.68-.22,1.36-.42,1.6-1.26,1.6a19.219,19.219,0,0,1-2.52-.22,6.548,6.548,0,0,1,.48,2.24c1.26.06,1.52.08,2.1.08A4.156,4.156,0,0,0-34.18.8,2.12,2.12,0,0,0-33.1-.64c.42-1.42.7-5.16.8-10.6a34.458,34.458,0,0,1,.14-4.28,14.031,14.031,0,0,1-1.92.1h-5.78a19.539,19.539,0,0,1-2.38-.12v2.18a18.866,18.866,0,0,1,2.38-.12Zm-5.64,7.56a18.669,18.669,0,0,0,2.42,2A7.222,7.222,0,0,1-41.54-5.6c-.64-.38-.86-.52-1.26-.8a21.694,21.694,0,0,0,2.1-2.7l-1.54-1.2a11.841,11.841,0,0,1-1.92,2.84,7.832,7.832,0,0,1-.7-.68,18.842,18.842,0,0,0,2.16-3.6,8.908,8.908,0,0,1,.44-.84l-.92-1.16a8.43,8.43,0,0,1-1.42.08H-45v-1.46a6.983,6.983,0,0,1,.12-1.66h-2.34a8.965,8.965,0,0,1,.12,1.66v1.46h-.68a11.289,11.289,0,0,1-1.86-.1v2.12a14.3,14.3,0,0,1,1.82-.1h2.88A13.032,13.032,0,0,1-47.5-8.12,14.62,14.62,0,0,1-50.42-5.8a6.379,6.379,0,0,1,1.04,2,18.119,18.119,0,0,0,2.26-1.86,3.566,3.566,0,0,1-.02.52V-.88c0,.92-.06,1.8-.12,2.46h2.34a15.284,15.284,0,0,1-.14-2.46V-5.62Zm31.04,1.28V-.9c0,.36-.14.44-.76.44a9.236,9.236,0,0,1-1.76-.2,8.586,8.586,0,0,1,.52,2.2c.98.06,1.02.06,1.26.06a5.325,5.325,0,0,0,1.98-.28c.56-.24.84-.86.84-1.84V-13.78a18.956,18.956,0,0,1,.08-2.2,19.272,19.272,0,0,1-2.16.08h-2.9a21.735,21.735,0,0,1-2.22-.08,20.487,20.487,0,0,1,.1,2.6,71.75,71.75,0,0,1-.4,9.82A6.777,6.777,0,0,1-21.18.16a12.965,12.965,0,0,1,1.7,1.62c1.4-1.8,1.9-3.26,2.2-6.42Zm0-4.72v2.82h-3.1c.06-.9.08-1.64.1-2.82Zm0-1.92h-2.98v-2.64h2.98ZM-27.9-14.56a6.484,6.484,0,0,1-1.52-.1v2.02a8.589,8.589,0,0,1,1.52-.08V-5h-.26a8.945,8.945,0,0,1-1.48-.08v2.02a9.165,9.165,0,0,1,1.54-.08h6.56a16.283,16.283,0,0,1,1.68.06v-2a7.79,7.79,0,0,1-1.2.08v-7.72a7.22,7.22,0,0,1,1.36.08v-2.02a9.006,9.006,0,0,1-1.36.1v-.34a9.909,9.909,0,0,1,.1-1.7h-2.18a9.493,9.493,0,0,1,.1,1.7v.34h-2.88v-.34a10.2,10.2,0,0,1,.1-1.7H-28a10.2,10.2,0,0,1,.1,1.7ZM-25.92-5V-6.52h2.88V-5Zm0-3.28V-9.64h2.88v1.36Zm0-3.12v-1.32h2.88v1.32Zm-.8,8.44A9.182,9.182,0,0,1-29.64.14,7.481,7.481,0,0,1-28.1,1.72a12.715,12.715,0,0,0,3.08-3.64Zm2.58,1.08A11.327,11.327,0,0,0-22.2.7,7.528,7.528,0,0,1-20.7-.78a7.559,7.559,0,0,1-1.86-2.14ZM3.22-11.26v-.7h2.7c.72,0,1.32.02,1.96.06a9.333,9.333,0,0,1-.06-1.42v-.8a10.258,10.258,0,0,1,.08-1.56,18.222,18.222,0,0,1-1.96.1H3.22a5.844,5.844,0,0,1,.1-1.26H1.14a5.517,5.517,0,0,1,.1,1.26H-1a10.339,10.339,0,0,1,.08-1.26H-3.06a7.691,7.691,0,0,1,.08,1.26h-3.3a11.813,11.813,0,0,1-1.92-.1v1.74a11.368,11.368,0,0,1,1.92-.1h3.24c0,.22-.02.22-.06.7H-5.72c-.8,0-1.28-.02-1.68-.06A12.256,12.256,0,0,1-8.56-9.76C-8-9.78-7.32-9.8-6.9-9.8h2.22c-1.06.82-2.04,1.18-4.58,1.72a4.839,4.839,0,0,1,.8,1.42l.16.36c.78-.24,1.06-.32,1.6-.52V-3.1c0,.86-.04,1.64-.08,2,.46-.04,1.26-.06,2.12-.06h.94A15.578,15.578,0,0,1-9.06.22,8.09,8.09,0,0,1-7.84,1.96,16.353,16.353,0,0,0-1.52-.34l-1-.82h5.2l-1.1.82A16.132,16.132,0,0,0,8.1,1.94,9.789,9.789,0,0,1,9.34.14a13.589,13.589,0,0,1-5.46-1.3h.96c.82,0,1.7.02,2.12.06a20.092,20.092,0,0,1-.08-2.12v-4.6C8.24-7.9,8.56-8.28,8.8-9.96c.12-1.02.12-1.02.18-1.36-.46.04-.82.06-1.7.06Zm1.7,2.44H3.22V-9.8H6.74c-.06.54-.14.62-.54.62a4.562,4.562,0,0,1-1.12-.18,2.245,2.245,0,0,1,.2.54Zm-3.68,0H-3.1a4.5,4.5,0,0,0,.9-.98H1.24Zm-4.56-3.14c-.1.3-.14.42-.24.7H-5.92a4.635,4.635,0,0,0,.24-.7Zm4.56,0v.7H-1.5c.08-.3.1-.4.18-.7Zm0-2.08v.7H-1.1c.02-.32.04-.42.04-.7Zm1.98,0H5.74v.7H3.22Zm-7.86,6.6H4.8v.7H-4.64Zm0,1.98H4.8v.74H-4.64Zm0,2.02H4.8v.74H-4.64Zm24.18-1.2v3.3a16.476,16.476,0,0,1-.12,2.36h2.36a17.562,17.562,0,0,1-.1-2.38V-4.64h4.8v3.5c0,.42-.18.5-1,.5-.64,0-1.52-.06-2.52-.16a8.089,8.089,0,0,1,.56,2.08c.6.04,1.62.08,2.24.08,2.28,0,2.88-.42,2.88-2.08V-13.86c0-1.08.02-1.58.08-2.26a22.241,22.241,0,0,1-2.3.08H15.2c-1.08,0-1.6-.02-2.3-.08a27.017,27.017,0,0,1,.1,2.9c0,2.36-.08,5.2-.18,6.88a20.236,20.236,0,0,1-.4,3.06A9.147,9.147,0,0,1,10.96.1,12.032,12.032,0,0,1,12.9,1.68a13.426,13.426,0,0,0,2.04-6.32Zm0-1.98H15.08c0-.4,0-.54.02-1.48,0-.28.02-.68.02-1.26h4.42Zm2.14,0V-9.36h4.8v2.74Zm-2.14-4.7H15.16l.02-.56v-2.06h4.36Zm2.14,0v-2.62h4.8v2.62ZM45.06-11A18.707,18.707,0,0,1,47.8-4.5l2.28-1.14a18.6,18.6,0,0,0-3-6.36Zm-5.88-4.4a4.653,4.653,0,0,1,.16-.62l-2.6-.26v.36a28.133,28.133,0,0,1-.52,4.04,41.077,41.077,0,0,1-4.26.42L32.2-9.1a8.212,8.212,0,0,1,.82-.2l1.82-.3c.64-.12.64-.12.94-.16A29.418,29.418,0,0,1,31.76-.34L34.08.94A42.939,42.939,0,0,0,38.16-9.94c.46-.04.78-.06,1.2-.06,1.54,0,2,.54,2,2.38a17.771,17.771,0,0,1-.52,4.56c-.3.98-.62,1.36-1.2,1.36a8.372,8.372,0,0,1-2.92-.8,7.512,7.512,0,0,1,.2,1.7c0,.2-.02.5-.04.88a9.272,9.272,0,0,0,3.08.6,2.533,2.533,0,0,0,2.22-.9c.96-1.1,1.54-3.84,1.54-7.28,0-1.82-.26-2.78-.94-3.54a3.874,3.874,0,0,0-2.96-1.06c-.36,0-.64.02-1.24.04.06-.26.06-.26.12-.6.2-1.08.34-1.9.44-2.48Zm4.64.14a13.5,13.5,0,0,1,2.1,2.98l1.4-.74a12.961,12.961,0,0,0-2.1-2.94Zm5.88.94a11.566,11.566,0,0,0-2.08-2.82l-1.34.7a14.736,14.736,0,0,1,2.04,2.9Z" transform="translate(51 22)" fill="#121212"/>
      <g id="グループ_413" data-name="グループ 413" transform="translate(19 17)">
        <path id="パス_1154" data-name="パス 1154" d="M-.26-51.031q7.384,0,11.544,5.27,4.958,6.24,4.958,20.7,0,14.422-4.992,20.731Q7.124.867-.26.867a14.545,14.545,0,0,1-11.96-5.7q-4.542-5.7-4.542-20.333,0-14.353,4.992-20.662Q-7.644-51.031-.26-51.031Zm0,8.078a4.866,4.866,0,0,0-3.155,1.127,7.564,7.564,0,0,0-2.149,4.039Q-6.57-34.009-6.57-25.065t.9,12.29Q-4.767-9.43-3.4-8.32A4.845,4.845,0,0,0-.26-7.211,4.866,4.866,0,0,0,2.895-8.338a7.564,7.564,0,0,0,2.149-4.039Q6.05-16.121,6.05-25.065t-.9-12.29q-.9-3.345-2.271-4.472A4.8,4.8,0,0,0-.26-42.954Z" transform="translate(22 68)" fill="#05b3ff"/>
        <path id="パス_1155" data-name="パス 1155" d="M-5.643-5.89h11.3v4.636c0,.456-.114.513-.855.513-.684,0-1.634-.076-2.888-.209A7.311,7.311,0,0,1,2.508,1.1c.741.038,1.786.076,2.527.076a4.673,4.673,0,0,0,2-.266c.551-.285.779-.817.779-1.786V-13.053a18.7,18.7,0,0,1,.076-2.071,17.418,17.418,0,0,1-2.071.076H-5.738a20.412,20.412,0,0,1-2.109-.076A16.37,16.37,0,0,1-7.771-13.3V-.874a18.048,18.048,0,0,1-.114,2.28h2.337a13.966,13.966,0,0,1-.1-2.2Zm4.5-1.995h-4.5v-5.149h4.5Zm2.052,0v-5.149h4.75v5.149Z" transform="translate(52 66)" fill="#05b3ff"/>
      </g>
    </g>
    <g id="pickup_02" transform="translate(4054.634 609)">
      <g id="グループ_669" data-name="グループ 669" transform="translate(-3203.521 -805.495)">
        <path id="パス_883" data-name="パス 883" d="M78.094,405.646c0,.021-.008.037-.013.059.024-.007.024-.03.013-.059" transform="translate(3241.872 429.868)" fill="#fff"/>
        <path id="パス_884" data-name="パス 884" d="M33.949,434.292c1.922,7.072,9.191,11.178,16.2,11.192,7.119.015,14.57-4.308,16.29-11.569,1.838-7.754-3.75-15.72-10.243-19.4a1.682,1.682,0,0,1-.886-1.213,1.707,1.707,0,0,1,.216-1.339l4.26-7.139c.309-.517.595-1.1.943-1.606-.742-.659-2.042-1.633-2.093-1.649a3.178,3.178,0,0,0-2.839.329,1.939,1.939,0,0,1-2.638,0c-2.11-1.649-3.937-1.728-6.021,0a1.932,1.932,0,0,1-2.638,0,3.516,3.516,0,0,0-3.678-.04c-.491.293-.862.982-1.283,1.316.366.509.655,1.118.972,1.65l4.26,7.139a1.891,1.891,0,0,1-.67,2.551c-6.581,3.732-12.283,11.933-10.151,19.779m10.963-4.221a1.866,1.866,0,0,1,0-3.73h2.129l-2.273-2.557c-1.591-1.79,1.039-4.435,2.638-2.637l3.184,3.581,3.184-3.581c1.6-1.8,4.228.849,2.638,2.637l-2.273,2.557h1.822a1.866,1.866,0,0,1,0,3.73H52.476q0,.526.008,1.051h3.478a1.866,1.866,0,0,1,0,3.73H52.513q.008,1.087.017,2.175c.019,2.4-3.711,2.4-3.73,0q-.009-1.087-.017-2.175h-3.87a1.866,1.866,0,0,1,0-3.73h3.841q0-.526-.008-1.051Z" transform="translate(3258.74 431.765)" fill="#fff"/>
        <path id="パス_885" data-name="パス 885" d="M42.565,405.677c-.007.129.016.183,0,0" transform="translate(3255.309 429.856)" fill="#fff"/>
        <path id="パス_886" data-name="パス 886" d="M27.6,427.028c-.693,6.844,3.062,13.249,8.819,16.787,11.847,7.282,30.632,1.112,31.791-13.951.6-7.841-4.413-15.506-10.8-19.812l1.978-3.315c.9-1.5,2.531-3.381,3-5.1.615-2.236-1.946-4.515-3.689-5.442a6.9,6.9,0,0,0-6.465-.075,7.571,7.571,0,0,0-8.747-.016A6.839,6.839,0,0,0,37.459,396c-1.863.87-4.729,3.28-4.079,5.645.45,1.637,1.993,3.406,2.847,4.835l2.136,3.58C32.684,413.873,28.3,420.167,27.6,427.028m14.238-14.749a1.89,1.89,0,0,0,.669-2.551l-4.26-7.139c-.318-.532-.606-1.141-.972-1.65.421-.334.791-1.023,1.283-1.316a3.517,3.517,0,0,1,3.678.04,1.93,1.93,0,0,0,2.638,0c2.083-1.727,3.911-1.649,6.021,0a1.937,1.937,0,0,0,2.637,0,3.181,3.181,0,0,1,2.839-.328c.052.016,1.35.99,2.093,1.649-.349.5-.635,1.089-.943,1.606l-4.26,7.139a1.706,1.706,0,0,0-.216,1.338,1.683,1.683,0,0,0,.885,1.213c6.493,3.682,12.081,11.647,10.243,19.4-1.721,7.261-9.171,11.584-16.29,11.569-7.007-.014-14.276-4.12-16.2-11.192-2.132-7.846,3.57-16.047,10.151-19.779m-4.967-10.745c.016.183-.007.13,0,0m22.08.04c0-.022.008-.038.013-.059.011.029.011.052-.013.059" transform="translate(3261 434)" fill="#323232"/>
        <path id="パス_887" data-name="パス 887" d="M50.765,443.24a1.866,1.866,0,0,0,0,3.73h3.87q.008,1.088.017,2.175c.019,2.4,3.749,2.405,3.73,0q-.008-1.087-.017-2.175h3.448a1.866,1.866,0,0,0,0-3.73H58.335q0-.526-.008-1.051h3.486a1.866,1.866,0,0,0,0-3.73H59.991l2.273-2.557c1.59-1.789-1.039-4.436-2.638-2.637l-3.184,3.582-3.184-3.582c-1.6-1.8-4.229.848-2.638,2.637l2.273,2.557H50.765a1.866,1.866,0,0,0,0,3.73H54.6q0,.526.008,1.051Z" transform="translate(3252.888 419.646)" fill="#35cae9"/>
      </g>
      <rect id="長方形_379" data-name="長方形 379" width="78" height="73" transform="translate(67 12)" fill="none"/>
    </g>
  </g>
</svg>
