<svg id="pickup_item03" xmlns="http://www.w3.org/2000/svg" width="161" height="161" viewBox="0 0 161 161">
  <ellipse id="楕円形_20" data-name="楕円形 20" cx="80.5" cy="80.5" rx="80.5" ry="80.5" fill="#e8e8e8"/>
  <path id="パス_1148" data-name="パス 1148" d="M-3.76-4.768h1.5a9.272,9.272,0,0,1,1.44.1V-6.4A10.155,10.155,0,0,1-2.4-6.3h-8.528v-.848h6.784a9.544,9.544,0,0,1,1.472.08V-8.544a10.648,10.648,0,0,1-1.472.08h-6.784v-.784h6.784a13.847,13.847,0,0,1,1.472.08v-1.456a10.993,10.993,0,0,1-1.472.08h-6.784v-.8H-3.9a13.129,13.129,0,0,1,1.84.08v-1.7a10.837,10.837,0,0,1-1.856.1h-7.168a12.846,12.846,0,0,1-1.744-.08,12.454,12.454,0,0,1,.064,1.584V-6.3H-13.6a10.332,10.332,0,0,1-1.664-.1v1.728a10.063,10.063,0,0,1,1.632-.1h.864V-.784A15.928,15.928,0,0,1-15.04-.5L-14.7,1.3c.288-.08.336-.08.72-.16A46.333,46.333,0,0,0-7.728-.4L-7.744-2a27.862,27.862,0,0,1-3.216.864V-4.768h1.392A8.506,8.506,0,0,0-7.12-1.6,13.85,13.85,0,0,0-1.36,1.184,7.821,7.821,0,0,1-.512-.656,14.118,14.118,0,0,1-4.7-2.08a10.624,10.624,0,0,0,1.536-1.1c.592-.528.784-.7.912-.8Zm-.176,0A11.621,11.621,0,0,1-6.08-2.912,5.028,5.028,0,0,1-7.76-4.768ZM9.84-13.28a7.932,7.932,0,0,1-1.168,1.328,35.862,35.862,0,0,1-3.7,3.12A9.811,9.811,0,0,0,3.568-7.68a1.869,1.869,0,0,0-.528,1.3c0,.736.288,1.168,1.344,1.984A50.747,50.747,0,0,1,8.512-.992,15.455,15.455,0,0,1,10.592,1.2L12.24-.464a3.989,3.989,0,0,1-.464-.4A53.781,53.781,0,0,0,6.736-5.04C5.328-6.1,5.3-6.128,5.3-6.368c0-.176.112-.3.608-.672C7.776-8.464,8.9-9.36,9.712-10.112a24.407,24.407,0,0,1,1.968-1.76ZM-47.808,21.672a4.636,4.636,0,0,1-2.432-2.224c.24-.752.336-1.12.416-1.44.144-.656.144-.672.224-.944l-1.776-.336a9.918,9.918,0,0,1-.32,1.728,9.473,9.473,0,0,1-2.752,4.528A4.355,4.355,0,0,1-53.072,24.3,11.335,11.335,0,0,0-50.88,21.16c1.312,1.936,3.408,2.752,7.152,2.752,1.264,0,2.1-.016,3.408-.048a6.223,6.223,0,0,1,.448-1.824c-1.632.144-2.72.192-3.648.192a18.7,18.7,0,0,1-2.608-.16V19.32H-43.1a10.8,10.8,0,0,1,1.568.08V17.688a8.207,8.207,0,0,1-1.568.1h-3.024V15.736h2.1a11.471,11.471,0,0,1,1.648.08v-1.7a11.2,11.2,0,0,1-1.648.08H-50.16a10.723,10.723,0,0,1-1.616-.08v1.7a11.39,11.39,0,0,1,1.616-.08h2.352Zm-.272-10.48h-4.176c-.64,0-1.184-.016-1.76-.064.032.368.064.768.064,1.184v1.232a7.071,7.071,0,0,1-.08,1.264h1.776v-2H-41.92v2h1.728a10.331,10.331,0,0,1-.064-1.248V12.312a8.8,8.8,0,0,1,.064-1.184c-.592.048-1.136.064-1.776.064h-4.32v-.608a4.858,4.858,0,0,1,.08-1.008h-1.968a5.178,5.178,0,0,1,.1,1.024Zm15.984,1.12v.7h-3.328a11.464,11.464,0,0,1-1.52-.064V14.28a11.939,11.939,0,0,1,1.52-.064H-32.1v.7h-4.56a10.214,10.214,0,0,1-1.616-.08v1.488a10.594,10.594,0,0,1,1.616-.08h1.488a9.184,9.184,0,0,1-1.28,3.008,8.656,8.656,0,0,1-2.192,2.336,5.675,5.675,0,0,1,1.3,1.488,10.033,10.033,0,0,0,2.432-3.152c-.016.24-.032.832-.032,1.136v1.68a11.12,11.12,0,0,1-.1,1.568h1.808V23.72H-27.1v.592h1.84a9.609,9.609,0,0,1-.1-1.632V18.36a13.658,13.658,0,0,1,.064-1.52c-.512.048-.976.064-1.5.064h-6.8c.048-.192.112-.384.176-.656h7.84a11.254,11.254,0,0,1,1.616.08V14.84a10.466,10.466,0,0,1-1.616.08h-4.8v-.7h3.6a11.939,11.939,0,0,1,1.52.064V12.952a11.464,11.464,0,0,1-1.52.064h-3.6v-.7h4.24a11.528,11.528,0,0,1,1.616.08V10.9a8.772,8.772,0,0,1-1.616.1H-28.16a10.357,10.357,0,0,0,1.04-1.312L-28.848,9.3A11.582,11.582,0,0,1-29.984,11H-32.3a14.551,14.551,0,0,0-1.152-1.7l-1.648.368A7.586,7.586,0,0,1-34.08,11h-2.032a8.684,8.684,0,0,1-1.6-.1v1.488a11.7,11.7,0,0,1,1.6-.08Zm5.008,5.872v.672h-6.144v-.672Zm0,1.792v.656h-6.144v-.656Zm0,1.776v.656h-6.144v-.656Zm7.232-11.536a7.957,7.957,0,0,1,.064,1.088c0,.224,0,.56-.016,1.04-.1,4.016-.128,5.616-.128,6.448,0,2.144.464,3.376,1.568,4.112a5.216,5.216,0,0,0,2.8.7,6.056,6.056,0,0,0,4.8-2.032,9.856,9.856,0,0,0,1.9-4.08A6.91,6.91,0,0,1-10.8,16.264a10.726,10.726,0,0,1-.736,2.688,4.117,4.117,0,0,1-3.872,2.736,2.533,2.533,0,0,1-2.144-.832c-.32-.48-.416-1.056-.416-2.576,0-1.136.1-4.384.16-5.872a14.626,14.626,0,0,1,.192-2.16ZM-6.544,13.96a23.225,23.225,0,0,1,2.656-.32c3.472-.256,4.1-.3,5.392-.5a7.052,7.052,0,0,0-2.224,1.6A5.641,5.641,0,0,0-2.24,18.52,4.281,4.281,0,0,0,.048,22.376a9.626,9.626,0,0,0,3.744,1.056,3.4,3.4,0,0,1,.544.1l.288-2.176c-.16.016-.3.016-.32.016a9.71,9.71,0,0,1-2.384-.416A2.687,2.687,0,0,1-.208,18.344c0-1.616,1.2-3.216,3.232-4.272a7.156,7.156,0,0,1,3.168-.864,2.477,2.477,0,0,1,.336.016l-.112-2.048a9.034,9.034,0,0,1-1.84.16c-4.432.208-7.088.352-7.984.4-2.352.16-2.352.16-2.64.16-.08,0-.256,0-.608-.016ZM17.44,9.72a7.932,7.932,0,0,1-1.168,1.328,35.862,35.862,0,0,1-3.7,3.12,9.812,9.812,0,0,0-1.408,1.152,1.869,1.869,0,0,0-.528,1.3c0,.736.288,1.168,1.344,1.984a50.748,50.748,0,0,1,4.128,3.408,15.455,15.455,0,0,1,2.08,2.192l1.648-1.664a3.989,3.989,0,0,1-.464-.4,53.781,53.781,0,0,0-5.04-4.176c-1.408-1.056-1.44-1.088-1.44-1.328,0-.176.112-.3.608-.672,1.872-1.424,2.992-2.32,3.808-3.072a24.408,24.408,0,0,1,1.968-1.76Zm10.976,5.744c.016-.192.032-.288.032-.288l.032-.944c.1-.128.128-.16.192-.256a1.456,1.456,0,0,1,.224-.288,2.676,2.676,0,0,1,.464-.48l-.592-.672c-.112.032-.176.064-.192.064.032-.976.048-1.1.064-1.424.032-.32.048-.528.048-.608a2.231,2.231,0,0,1,.064-.592L26.72,9.944a5.316,5.316,0,0,1,.048.9c0,.368-.016.864-.016,1.312-.016.368-.016.368-.032.608-.752.048-1.632.1-1.936.1a4.963,4.963,0,0,1-.656-.032l.1,1.808a20.616,20.616,0,0,1,2.448-.224c0,.432-.016.464-.016.832-.032.624-.032.8-.048,1.568-.3.336-.3.336-1.808,1.824a7.169,7.169,0,0,1-1.04.912l.928,1.9a9.136,9.136,0,0,1,.736-.912,12.46,12.46,0,0,0,1.136-1.344l.032-.016c-.032.432-.032.432-.032,2.144a14.044,14.044,0,0,1-.112,2.544h2.064a21.592,21.592,0,0,1-.08-2.64c-.016-1.776-.016-1.776-.016-1.9,0-.448,0-.9.032-1.616A18.189,18.189,0,0,1,31.36,15.1a3.832,3.832,0,0,1,1.984-.864c.432,0,.656.208.656.592a10.145,10.145,0,0,1-.336,2.016,16.139,16.139,0,0,0-.656,4.016,2.282,2.282,0,0,0,.832,2.016,2.377,2.377,0,0,0,1.376.416,3.1,3.1,0,0,0,2.368-1.152,7.3,7.3,0,0,0,1.12-1.584,7.778,7.778,0,0,1-1.072-1.92,7.854,7.854,0,0,1-.928,1.824,1.6,1.6,0,0,1-1.12.816c-.416,0-.656-.288-.656-.8a20.232,20.232,0,0,1,.672-3.6,11.446,11.446,0,0,0,.4-2.448A2.064,2.064,0,0,0,33.76,12.3a5.728,5.728,0,0,0-3.376,1.5,11.732,11.732,0,0,0-1.952,1.664Zm17.008.9a6.28,6.28,0,0,0,.656-.416c.32-.208,1.472-1.072,1.76-1.312.544-.464,1.712-1.5,2.512-2.24a3.43,3.43,0,0,1,.832-.656l-.992-1.408a2.358,2.358,0,0,1-.992.208c-1.552.112-3.5.192-4.864.192a14.47,14.47,0,0,1-1.888-.1l.08,1.92a5.4,5.4,0,0,1,.768-.08c2.9-.128,3.92-.192,4.528-.272l.016.016-.288.288a53.424,53.424,0,0,1-4.784,4.16,14.389,14.389,0,0,1-2.256,1.5L41.6,19.9a9.858,9.858,0,0,1,6.592-2.688c1.936,0,3.168.816,3.168,2.064,0,1.136-.576,1.824-1.9,2.32a4.3,4.3,0,0,0-.736-1.44,3.444,3.444,0,0,0-2.768-1.312c-1.6,0-2.752.96-2.752,2.288a2.284,2.284,0,0,0,.96,1.84,5.413,5.413,0,0,0,3.1.736,7.916,7.916,0,0,0,3.872-.912,3.91,3.91,0,0,0,2.176-3.536c0-2.192-1.76-3.6-4.5-3.6a7.81,7.81,0,0,0-3.36.736Zm2.3,5.7a4.331,4.331,0,0,1-.832.064c-1.184,0-1.9-.368-1.9-1.008,0-.448.368-.736.944-.736C46.832,20.376,47.44,20.952,47.728,22.056Zm-96.8,10.712a10.467,10.467,0,0,1,.064,1.344c0,3.84-.864,6.464-2.928,8.832a10.666,10.666,0,0,1-3.488,2.672,4.786,4.786,0,0,1,1.248,1.648,13.5,13.5,0,0,0,2.48-1.84,11.14,11.14,0,0,0,2.464-3.072,11.449,11.449,0,0,0,1.248-3.232,12.649,12.649,0,0,0,2.128,4.368,15.575,15.575,0,0,0,4.064,3.776,5.953,5.953,0,0,1,1.248-1.776,10.655,10.655,0,0,1-2.48-1.728,10.724,10.724,0,0,1-2.528-3.04,11.485,11.485,0,0,1-1.568-6.3,10.586,10.586,0,0,1,.112-1.648ZM-38.24,36.32a1.768,1.768,0,0,1,.256-.016c.144,0,.144,0,.448.016.352,0,1.76.032,2.016.032,0,0,.208-.016.272-.016a.783.783,0,0,0-.128.208A21.191,21.191,0,0,1-37.3,39.28a9.8,9.8,0,0,1-1.44,1.424l1.456,1.44a7.194,7.194,0,0,1,1.392-1.456,5.409,5.409,0,0,1,3.28-1.648.878.878,0,0,1,.976.864,7.827,7.827,0,0,0-3.44,2.256,2.55,2.55,0,0,0-.7,1.776A2.32,2.32,0,0,0-34.608,46a6.872,6.872,0,0,0,3.568.672,29.02,29.02,0,0,0,4.1-.288,4.714,4.714,0,0,1,.736-.064l-.16-2.064a13.9,13.9,0,0,1-4.7.672c-1.936,0-2.7-.336-2.7-1.168a1.684,1.684,0,0,1,.832-1.312,9.724,9.724,0,0,1,1.536-.832V42a12.667,12.667,0,0,1-.1,1.856l1.856-.048a6.569,6.569,0,0,1-.048-.848c0-.112,0-.256.016-.528v-.64c0-.224,0-.224-.016-.64v-.176q2.064-.72,2.4-.816a14.123,14.123,0,0,1,1.776-.432l-.752-1.84a5,5,0,0,1-1.184.48q-.6.192-2.448.864a2.105,2.105,0,0,0-2.288-1.7,3.868,3.868,0,0,0-2.256.72c-.208.16-.208.16-.32.24l-.016-.032a8.28,8.28,0,0,0,1.472-2.128c1.616-.048,3.648-.176,4.816-.32.816-.1.816-.1,1.264-.128l-.112-1.824a21.615,21.615,0,0,1-4.192.544c-.88.048-.88.048-1.008.064.032-.064.064-.112.144-.288a12.225,12.225,0,0,1,.64-1.44l-2.1-.224A6.337,6.337,0,0,1-34.5,34.7a19.335,19.335,0,0,1-3.712-.208ZM-15.5,41.632a9.334,9.334,0,0,1-3.92,3.488,5.613,5.613,0,0,1,1.056,1.472A9.919,9.919,0,0,0-14.7,42.848c-.032.576-.048.832-.048,1.216V45.68a13.784,13.784,0,0,1-.1,1.68h1.856a12.791,12.791,0,0,1-.1-1.664V44.032c0-.368-.016-.72-.048-1.2a7.727,7.727,0,0,0,1.712,2.144A14.4,14.4,0,0,0-9.2,46.56a7.3,7.3,0,0,1,.864-1.68,10.311,10.311,0,0,1-2.432-1.488,6.765,6.765,0,0,1-1.6-1.76h1.984c.544,0,1.12.032,1.584.08V40a11.863,11.863,0,0,1-1.584.1h-2.7V39.92a3.878,3.878,0,0,1,.08-.976h-1.824a4.035,4.035,0,0,1,.08.976V40.1h-2.3c-.688,0-1.072-.016-1.456-.048V38.88c-.544.256-.72.32-1.216.512v-2.3h.352a6.582,6.582,0,0,1,.88.048V35.472a4.4,4.4,0,0,1-.88.064h-.352V34.208a9.086,9.086,0,0,1,.1-1.616h-1.9a9.282,9.282,0,0,1,.1,1.632v1.312H-22.1a6.882,6.882,0,0,1-1.2-.1v1.728a10.488,10.488,0,0,1,1.168-.08h.688V40a11.856,11.856,0,0,1-1.92.464l.256,1.808c.208-.08.384-.144.64-.24.48-.144.512-.16,1.024-.336v3.472c0,.384-.1.48-.544.48a7.854,7.854,0,0,1-1.264-.1A5.506,5.506,0,0,1-22.88,47.2c.464.016.688.032.96.032,1.008,0,1.488-.08,1.776-.32.288-.224.416-.592.416-1.248V41.056c.368-.144.368-.144,1.072-.448V41.7a15.057,15.057,0,0,1,1.6-.064Zm5.168-9.072a10.168,10.168,0,0,1-2.672.832,36.951,36.951,0,0,1-5.616.48,5.119,5.119,0,0,1,.608,1.536,35.638,35.638,0,0,0,8.544-1.3A2.933,2.933,0,0,1-9.1,34ZM-15.6,38.7a12.412,12.412,0,0,0-1.3-2.88l-1.424.512a12.751,12.751,0,0,1,1.232,2.96Zm2.928-.5a11.322,11.322,0,0,0-.992-2.768l-1.52.4a9.737,9.737,0,0,1,.928,2.768Zm1.808,1.28A17.17,17.17,0,0,0-8.9,35.76l-1.632-.656A11.785,11.785,0,0,1-12.32,38.9Zm10.176,2.8v2.64a13.181,13.181,0,0,1-.1,1.888H1.1a14.05,14.05,0,0,1-.08-1.9V42.288h3.84v2.8c0,.336-.144.4-.8.4-.512,0-1.216-.048-2.016-.128A6.471,6.471,0,0,1,2.5,47.024c.48.032,1.3.064,1.792.064,1.824,0,2.3-.336,2.3-1.664V34.912c0-.864.016-1.264.064-1.808a17.793,17.793,0,0,1-1.84.064H-4.16c-.864,0-1.28-.016-1.84-.064a21.614,21.614,0,0,1,.08,2.32c0,1.888-.064,4.16-.144,5.5a16.189,16.189,0,0,1-.32,2.448,7.317,7.317,0,0,1-1.168,2.7A9.625,9.625,0,0,1-6,47.344a10.741,10.741,0,0,0,1.632-5.056Zm0-1.584H-4.256c0-.32,0-.432.016-1.184,0-.224.016-.544.016-1.008H-.688Zm1.712,0V38.512h3.84V40.7Zm-1.712-3.76h-3.5l.016-.448V34.848H-.688Zm1.712,0v-2.1h3.84v2.1Zm10.24-3.728a7.957,7.957,0,0,1,.064,1.088c0,.224,0,.56-.016,1.04-.1,4.016-.128,5.616-.128,6.448,0,2.144.464,3.376,1.568,4.112a5.216,5.216,0,0,0,2.8.7,6.056,6.056,0,0,0,4.8-2.032,9.856,9.856,0,0,0,1.9-4.08,6.91,6.91,0,0,1-1.936-1.232,10.726,10.726,0,0,1-.736,2.688,4.117,4.117,0,0,1-3.872,2.736,2.533,2.533,0,0,1-2.144-.832c-.32-.48-.416-1.056-.416-2.576,0-1.136.1-4.384.16-5.872a14.626,14.626,0,0,1,.192-2.16Zm14.224,4.016a2.389,2.389,0,0,1,.3-.016c.128,0,.352,0,.64.016.272.016.432.016.512.016h.928a1.355,1.355,0,0,0,.208-.016,34.184,34.184,0,0,1-2.864,8.608l2.016.784a54.246,54.246,0,0,0,1.792-5.3c.416-1.456.816-3.152.992-4.144a21.811,21.811,0,0,0,2.624-.336c.384-.064.384-.064.512-.08l-.08-1.84a13.28,13.28,0,0,1-2.736.48c.064-.368.08-.464.16-.912a9.092,9.092,0,0,1,.3-1.536l-2.112-.192a2.171,2.171,0,0,1,.016.288,19.42,19.42,0,0,1-.3,2.448c-.368.016-.544.016-.736.016a12.73,12.73,0,0,1-2.144-.144Zm12.688.352c-1.008-.016-1.152-.016-1.584-.016a20.533,20.533,0,0,0-4.768.512l.144,1.76a17.268,17.268,0,0,1,4.224-.464,16.657,16.657,0,0,1,2.016.112Zm-6.3,3.36a4.512,4.512,0,0,0-1.184,2.768,2.312,2.312,0,0,0,1.136,1.968,6.5,6.5,0,0,0,3.216.64,18.619,18.619,0,0,0,2.976-.256c.368-.064.5-.08.784-.112l-.144-1.968a12.245,12.245,0,0,1-3.632.592c-1.6,0-2.4-.416-2.4-1.232a2.655,2.655,0,0,1,.832-1.76Zm9.84-6.7a7.646,7.646,0,0,1,.064,1.024c.064,4.432.352,6.752,1.008,8.352.64,1.536,1.5,2.32,2.576,2.32,1.36,0,2.288-1.3,3.12-4.416a7.9,7.9,0,0,1-1.6-1.456,11.8,11.8,0,0,1-.848,2.9c-.192.448-.416.688-.656.688-.512,0-1.024-1.024-1.3-2.688a29.941,29.941,0,0,1-.3-4.288A18.6,18.6,0,0,1,43.9,34.24Zm8.08,1.52A13.966,13.966,0,0,1,52.064,39.7a16.22,16.22,0,0,1,1.024,4.624l1.984-.752a15.952,15.952,0,0,0-3.6-8.608Z" transform="translate(81 60)" fill="#272525"/>
</svg>
