<svg xmlns="http://www.w3.org/2000/svg" width="200" height="190" viewBox="0 0 200 190">
  <g id="pickup_text03" transform="translate(-4296.456 -612.109)">
    <rect id="長方形_387" data-name="長方形 387" width="200" height="190" rx="10" transform="translate(4296.456 612.109)" fill="none"/>
    <g id="グループ_690" data-name="グループ 690" transform="translate(0 5)">
      <g id="グループ_486" data-name="グループ 486" transform="translate(4292.567 604)">
        <path id="パス_1157" data-name="パス 1157" d="M-38.46-17.88h-6.192a25.944,25.944,0,0,1-2.616-.1,13.051,13.051,0,0,1,.1,1.824v1.944a13.348,13.348,0,0,1-.12,1.872h2.616v-3.192h15.624v3.192h2.592a13.424,13.424,0,0,1-.1-1.848v-1.968a12.41,12.41,0,0,1,.1-1.824c-.816.072-1.44.1-2.664.1h-6.648v-.576a8.945,8.945,0,0,1,.12-1.752H-38.6a9.211,9.211,0,0,1,.144,1.752ZM-41.34-7.128c-.072.672-.1.912-.168,1.3A5.466,5.466,0,0,1-44.34-1.824,16.084,16.084,0,0,1-47.988-.432,11.763,11.763,0,0,1-46.524,2.04C-42.66.552-41.124-.5-39.948-2.568a9.479,9.479,0,0,0,1.224-4.56h2.64v6.5c0,1.728.7,2.064,4.3,2.064,3.072,0,4.08-.144,4.752-.72.72-.6,1.008-1.656,1.1-4.056A8.305,8.305,0,0,1-28.4-4.08v.408a7.911,7.911,0,0,1-.216,2.04c-.168.5-.72.648-2.5.648-1.992,0-2.3-.1-2.3-.672V-7.128H-29a17.97,17.97,0,0,1,2.544.144V-9.6A14.152,14.152,0,0,1-29-9.456h-15.72A14.133,14.133,0,0,1-47.292-9.6v2.616a17.423,17.423,0,0,1,2.568-.144Zm-2.52-4.1a14.576,14.576,0,0,1,2.28-.12h9.408a15.107,15.107,0,0,1,2.3.12V-13.8a14.916,14.916,0,0,1-2.3.12H-41.58a14.39,14.39,0,0,1-2.28-.12Zm30.072,1.488v2.712h-3.528a20.055,20.055,0,0,1-2.664-.12v2.688a23.933,23.933,0,0,1,2.664-.12h3.528v3.24H-19.74a24.385,24.385,0,0,1-3.072-.144V1.32a20.7,20.7,0,0,1,3-.168H-4.836a21.058,21.058,0,0,1,3.024.168V-1.488a25.29,25.29,0,0,1-3.048.144H-11.1v-3.24h3.888a23.757,23.757,0,0,1,2.64.12V-7.152a22.52,22.52,0,0,1-2.64.12H-11.1V-9.744h3.384a23.4,23.4,0,0,1,2.544.12v-1.752c1.08.624,1.776,1.008,2.856,1.512A11.344,11.344,0,0,1-.78-12.624a21.748,21.748,0,0,1-5.88-3.048,17.511,17.511,0,0,1-4.272-4.248H-13.98a10.081,10.081,0,0,1-1.3,1.728,21.5,21.5,0,0,1-2.64,2.52A23.281,23.281,0,0,1-23.724-12.5,15.128,15.128,0,0,1-22.14-9.96a21.358,21.358,0,0,0,2.616-1.368v1.7a23.583,23.583,0,0,1,2.616-.12ZM-17.1-12.168c-.36,0-.576,0-1.056-.024a19.266,19.266,0,0,0,5.784-5.448,21.519,21.519,0,0,0,5.9,5.448c-.456.024-.624.024-1.128.024Zm36.408-.624A16.572,16.572,0,0,1,17-7.176a32.529,32.529,0,0,1-1.1-7.176h4.32c1.224,0,2.136.048,2.928.12v-2.64a13.376,13.376,0,0,1-2.544.144h-.72l1.248-.864a13.429,13.429,0,0,0-2.424-2.52L16.86-18.936a11.34,11.34,0,0,1,2.112,2.208H15.8v-1.1a19.807,19.807,0,0,1,.12-2.28H13.068a7.436,7.436,0,0,1,.12,1.512c.048,1.056.048,1.68.072,1.872H6.3c-1.248,0-2.232-.048-3.1-.12a23.748,23.748,0,0,1,.144,3.408,45.106,45.106,0,0,1-.72,9.48A11.22,11.22,0,0,1,.972-.168,8.81,8.81,0,0,1,3.06,1.872a12.982,12.982,0,0,0,1.968-4.68,37.087,37.087,0,0,0,.744-6.024h3.5a26.087,26.087,0,0,1-.36,4.344c-.12.6-.336.744-1.08.744a14.63,14.63,0,0,1-2.328-.192,8.982,8.982,0,0,1,.624,2.544c.768.048,1.152.072,1.824.072,1.848,0,2.712-.36,3.1-1.32.408-1.008.552-2.28.792-6.6.048-.936.1-1.608.144-2.04a10.486,10.486,0,0,1-1.7.1H5.868c.024-.864.024-.864.048-3.168h7.44a29.759,29.759,0,0,0,1.8,9.576A18.015,18.015,0,0,1,8.7-.36a7.963,7.963,0,0,1,1.824,2.088,22.086,22.086,0,0,0,5.808-4.2c1.392,2.256,3.288,3.864,4.512,3.864,1.32,0,2.16-1.416,2.712-4.656A7.157,7.157,0,0,1,21.4-4.872a13.974,13.974,0,0,1-.456,2.808c-.12.312-.216.456-.312.456a3.489,3.489,0,0,1-1.08-.864,10.34,10.34,0,0,1-1.44-2.064,26.094,26.094,0,0,0,3.24-6c.384-.912.384-.912.528-1.272ZM41.1-14.712c.024-.984.048-1.9.072-3.144a13.8,13.8,0,0,1,.144-2.136H38.388a13.008,13.008,0,0,1,.144,2.28c0,1.032-.024,1.848-.072,3H36.276a9.9,9.9,0,0,1-1.968-.12v2.616a13.8,13.8,0,0,1,2.184-.12h1.776C37.6-6.024,35.748-2.784,31.332-.12a8.052,8.052,0,0,1,1.2,1.152c.528.672.528.672.768.96a16.191,16.191,0,0,0,5.592-6.264,22.753,22.753,0,0,0,2.016-8.064h3.7a66.051,66.051,0,0,1-.7,9.816c-.24,1.272-.432,1.464-1.488,1.464a20.7,20.7,0,0,1-3.24-.312,8.754,8.754,0,0,1,.744,2.736c1.152.1,1.9.144,2.544.144a5.6,5.6,0,0,0,2.9-.552c.672-.48,1.08-1.56,1.3-3.552.216-1.776.5-6.24.6-8.448.072-2.9.1-3.216.144-3.768a20.536,20.536,0,0,1-2.448.1Zm-11.928-.72v9.744a17.872,17.872,0,0,1-3.36.84l.6,2.832a8.667,8.667,0,0,1,1.176-.456A78.169,78.169,0,0,0,34.98-5.208V-7.68c-1.464.6-1.944.768-3.24,1.2v-8.952H33.3a9.113,9.113,0,0,1,1.656.12v-2.616a13,13,0,0,1-2.112.12H28.188a12.65,12.65,0,0,1-2.112-.12v2.616a10.461,10.461,0,0,1,1.728-.12ZM-15.144,17.144a16.735,16.735,0,0,1-2.28.1h-4.512V11.984H-16.7C-16.8,13.76-16.92,14-17.664,14a17.364,17.364,0,0,1-2.472-.288,8.677,8.677,0,0,1,.528,2.256,21.217,21.217,0,0,0,2.16.12c2.64,0,2.976-.5,3.264-4.92.024-.576.048-.864.12-1.56a14.674,14.674,0,0,1-2.232.12h-5.9a16,16,0,0,1-2.256-.12,24.187,24.187,0,0,1,.12,2.448V28.112a17.251,17.251,0,0,1-.168,2.856h2.736a20.652,20.652,0,0,1-.168-2.256A15.514,15.514,0,0,1-20.592,30.8a16.318,16.318,0,0,0,2.856-3.1,20.262,20.262,0,0,0,3.264,3.12A14.586,14.586,0,0,1-13.08,28.28,11.489,11.489,0,0,1-16.392,25.5a26.957,26.957,0,0,0,2.04-5.952,5.1,5.1,0,0,1,.288-1.056Zm-6.792,2.376h.384a18.811,18.811,0,0,0,2.28,6.072,12.185,12.185,0,0,1-2.664,2.784Zm5.184,0a16.8,16.8,0,0,1-1.176,3.816,13.617,13.617,0,0,1-1.44-3.816Zm-12.1-4.32V13.352h1.416a16.019,16.019,0,0,1,1.992.1v-2.5a14.383,14.383,0,0,1-1.992.1h-1.416v-.432a13.273,13.273,0,0,1,.1-1.824h-2.592a8.995,8.995,0,0,1,.144,1.824v.432h-1.632a14.383,14.383,0,0,1-1.992-.1v2.5a16.019,16.019,0,0,1,1.992-.1H-31.2V15.2h-2.16a12.51,12.51,0,0,1-2.088-.12v2.544a11.612,11.612,0,0,1,1.728-.1,15.129,15.129,0,0,1,.624,2.664h-.264a11.339,11.339,0,0,1-2.088-.12v2.544a17.447,17.447,0,0,1,2.088-.1h2.136v1.92h-1.728a15.062,15.062,0,0,1-1.992-.1v2.52a15.774,15.774,0,0,1,1.992-.1h1.728V28.52a19.206,19.206,0,0,1-.144,2.448h2.64c-.072-.768-.12-1.656-.12-2.448V26.768h1.632a15.532,15.532,0,0,1,1.992.1v-2.52a15.062,15.062,0,0,1-1.992.1h-1.632V22.52h1.872a16.941,16.941,0,0,1,2.088.1V20.072a9.573,9.573,0,0,1-1.848.12h-.288a15.6,15.6,0,0,0,.792-2.664,10.691,10.691,0,0,1,1.344.1V15.08a12.337,12.337,0,0,1-2.088.12Zm-1.992,4.992a17.411,17.411,0,0,0-.6-2.664h2.88a15.3,15.3,0,0,1-.72,2.664ZM2.64,17.24a27.024,27.024,0,0,1,.6,4.68L4.464,21.1v5.784A16.238,16.238,0,0,1,4.32,29.7H6.672a27.152,27.152,0,0,1-.1-2.808V17.264a27.555,27.555,0,0,1,.672,4.44l1.176-.936v6.648a29.03,29.03,0,0,1-.12,3.456h2.472a32.9,32.9,0,0,1-.144-3.432V12.248a29.223,29.223,0,0,1,.144-3.192H8.3a24.935,24.935,0,0,1,.12,3.216v7.1a22.662,22.662,0,0,0-.912-3.96l-.936.648v-3.5A25.6,25.6,0,0,1,6.7,9.944H4.344a16.825,16.825,0,0,1,.12,2.616v6.984A23.775,23.775,0,0,0,3.7,15.512l-1.056.6V12.128a20.959,20.959,0,0,1,.144-2.9H.336c.144.744.144.744.168,6.96L-.864,15.44a20.109,20.109,0,0,1-.624,4.368v-3.48c0-1.224.024-1.992.072-2.736a13.409,13.409,0,0,1-2.064.1h-.312V11.72h.528a16.1,16.1,0,0,1,2.3.12v-2.5a24.771,24.771,0,0,1-2.544.12H-8.448c-1.056,0-1.824-.048-2.592-.12v2.5a18.253,18.253,0,0,1,2.472-.12h.6v1.968h-.408a15.194,15.194,0,0,1-2.136-.1,26.324,26.324,0,0,1,.12,2.976v11.16a26.813,26.813,0,0,1-.144,3.144H-8.28V29.648h4.728v.816h2.16c-.048-.48-.048-.744-.072-1.32A6.812,6.812,0,0,1,.192,31.16,12.493,12.493,0,0,0,2.28,25.4a54.969,54.969,0,0,0,.36-5.784Zm-4.128,4.224,1.032.912a23.525,23.525,0,0,0,.912-4.848,2.275,2.275,0,0,0,.048-.5v.336c0,6.888-.432,9.432-1.992,11.592V21.464Zm-4.68-9.744h.6v1.968h-.6Zm-2.184,9.744A7.106,7.106,0,0,1-7.56,23.12a10.423,10.423,0,0,0,1.392-5.9v-1.56h.6v4.7c0,1.08.264,1.272,1.7,1.272h.432v1.9h-4.92Zm0-5.808h.744c-.024,3-.216,4.32-.744,5.352Zm4.248,0h.672V19.64c-.576,0-.672-.072-.672-.5Zm-4.248,9.888h4.92v1.872h-4.92Zm27.7-11.328v2.04h-3.36a13.326,13.326,0,0,1-2.136-.12V18.7a17.206,17.206,0,0,1,2.472-.12h3.024v1.9H16.872a16.662,16.662,0,0,1-2.328-.12,20.3,20.3,0,0,1,.1,2.256v4.416a13.6,13.6,0,0,1-.12,2.352h2.616a20.062,20.062,0,0,1-.1-2.328v-4.3h2.3V28.4a15.06,15.06,0,0,1-.144,2.616h2.712a17.24,17.24,0,0,1-.12-2.592V22.76h2.16V26.6c0,.312-.144.408-.6.408-.264,0-.888-.048-1.272-.1a6.647,6.647,0,0,1,.432,2.28c.672.048.888.048,1.1.048,2.064,0,2.664-.432,2.664-1.92v-4.8c0-1.08.024-1.56.072-2.136a18.523,18.523,0,0,1-2.232.1H21.792v-1.9H24.5a13.818,13.818,0,0,1,2.3.12V16.16a19.385,19.385,0,0,1-2.208.1H21.792v-2.04h2.04a20.719,20.719,0,0,1,2.376.1V11.768a14.821,14.821,0,0,1-2.376.12h-2.04v-.72a10.792,10.792,0,0,1,.144-2.28H19.2a11.888,11.888,0,0,1,.144,2.328v.672H17.5c.12-.48.264-1.008.312-1.272a7.316,7.316,0,0,1,.264-.96L15.624,9.2a3.714,3.714,0,0,1-.12.936,13.4,13.4,0,0,1-1.9,4.752,18.764,18.764,0,0,1,2.28,1.176,19.721,19.721,0,0,0,.84-1.848Zm8.28-3.648a13.838,13.838,0,0,1,.144,2.544v9.6a15.006,15.006,0,0,1-.12,2.568h2.688a15.025,15.025,0,0,1-.12-2.544V13.064a16.572,16.572,0,0,1,.12-2.5Zm4.584-1.584a22.428,22.428,0,0,1,.144,2.976V27.632c0,.576-.216.72-1.08.72a21.782,21.782,0,0,1-3.1-.24,7.259,7.259,0,0,1,.72,2.568c1.416.048,2.16.072,2.28.072a4.8,4.8,0,0,0,2.9-.552c.576-.408.792-1.008.792-2.28V11.888a16.376,16.376,0,0,1,.168-2.9Z" transform="translate(104.067 142)" fill="#05b3ff"/>
        <path id="パス_1156" data-name="パス 1156" d="M-45.3-12.624a10.1,10.1,0,0,1,.064,1.44v4.4a11.539,11.539,0,0,1-.08,1.44h2.192a7.723,7.723,0,0,1-.064-1.408v-4.416a8.133,8.133,0,0,1,.064-1.44Zm7.216.032a8.426,8.426,0,0,1,.08,1.52v2c0,1.28-.016,1.984-.08,2.672-.176,2.112-.7,3.088-2.208,4.08a8.63,8.63,0,0,1-3.456,1.28,5.466,5.466,0,0,1,1.12,1.9A13.534,13.534,0,0,0-39.5-.368,6.128,6.128,0,0,0-36.352-4.1a18.9,18.9,0,0,0,.416-4.848V-11.1a7.589,7.589,0,0,1,.08-1.488ZM-17.792-1.136c-1.936-1.872-1.936-1.872-2.336-2.224a24.8,24.8,0,0,0-2.96-2.32,21.19,21.19,0,0,0,2.5-4.416,3.077,3.077,0,0,1,.512-.864l-1.056-1.088a3.466,3.466,0,0,1-1.424.176l-5.632.08h-.384a7,7,0,0,1-1.408-.1l.064,2.048a12.609,12.609,0,0,1,1.744-.128c5.04-.08,5.04-.08,5.3-.1l-.176.416a15.422,15.422,0,0,1-5.376,6.512,13.21,13.21,0,0,1-3.2,1.76A6.418,6.418,0,0,1-30.336.4a19.014,19.014,0,0,0,6.1-4.624A30.757,30.757,0,0,1-19.328.528ZM-3.424-11.248a2.834,2.834,0,0,1-1.168.16l-3.5.048c-.3,0-.56.016-.768.032a3.773,3.773,0,0,0,.256-.512l.208-.416a3.229,3.229,0,0,1,.208-.448,3.272,3.272,0,0,1,.272-.5l-2.192-.432a5.971,5.971,0,0,1-.816,2.112,12.308,12.308,0,0,1-4.144,4.64A4.251,4.251,0,0,1-13.52-5.184a15.661,15.661,0,0,0,3.744-4.1l4.816-.08A12.67,12.67,0,0,1-9.632-2.608a14.409,14.409,0,0,1-3.5,1.888A4.93,4.93,0,0,1-11.776.96,16.164,16.164,0,0,0-6.08-3.1,16.6,16.6,0,0,0-2.8-9.28a3.01,3.01,0,0,1,.4-.96ZM11.328-8.8A14.965,14.965,0,0,1,13.52-3.6l1.824-.912a14.881,14.881,0,0,0-2.4-5.088Zm-4.7-3.52a3.722,3.722,0,0,1,.128-.5l-2.08-.208v.288A22.506,22.506,0,0,1,4.256-9.5a32.861,32.861,0,0,1-3.408.336L1.04-7.28A6.57,6.57,0,0,1,1.7-7.44l1.456-.24c.512-.1.512-.1.752-.128A23.534,23.534,0,0,1,.688-.272L2.544.752a34.351,34.351,0,0,0,3.264-8.7c.368-.032.624-.048.96-.048,1.232,0,1.6.432,1.6,1.9a14.217,14.217,0,0,1-.416,3.648c-.24.784-.5,1.088-.96,1.088A6.7,6.7,0,0,1,4.656-2a6.01,6.01,0,0,1,.16,1.36c0,.16-.016.4-.032.7a7.418,7.418,0,0,0,2.464.48,2.026,2.026,0,0,0,1.776-.72c.768-.88,1.232-3.072,1.232-5.824A3.881,3.881,0,0,0,9.5-8.832,3.1,3.1,0,0,0,7.136-9.68c-.288,0-.512.016-.992.032.048-.208.048-.208.1-.48.16-.864.272-1.52.352-1.984Zm3.712.112a10.8,10.8,0,0,1,1.68,2.384l1.12-.592a10.369,10.369,0,0,0-1.68-2.352Zm4.7.752a9.253,9.253,0,0,0-1.664-2.256l-1.072.56a11.789,11.789,0,0,1,1.632,2.32Zm6.08-1.808a16.346,16.346,0,0,1-.48,2.784c-.352.016-.624.016-.816.016a11.109,11.109,0,0,1-2.16-.144v1.824l.848.016c.336.016.432.016.64.016.192,0,.288,0,1.008-.016a24.615,24.615,0,0,1-1.5,3.776A14.564,14.564,0,0,1,17.1-2.432l1.84,1.024c.1-.192.1-.192.3-.576.608-1.12.752-1.408,1.12-2.192a30.712,30.712,0,0,0,1.76-4.64c.992-.08,1.968-.192,2.544-.288a3.12,3.12,0,0,1,.512-.08l-.048-1.84a13.724,13.724,0,0,1-2.56.448c.176-.7.256-1.024.336-1.408a8.01,8.01,0,0,1,.256-1.072ZM31.36-9.1a25.257,25.257,0,0,0-4.512-2.144L25.888-9.7A19.583,19.583,0,0,1,30.5-7.456ZM31.3-1.888a2.865,2.865,0,0,1-.24-.224,5.9,5.9,0,0,0-.56-.432,10,10,0,0,0-2.528-1.472,16.988,16.988,0,0,1-.144-2.192,5.333,5.333,0,0,1,.192-1.616l-1.856-.1A8.487,8.487,0,0,0,26.032-6.3c0,.48.032,1.1.08,1.84a7.947,7.947,0,0,0-1.488-.144c-2.032,0-3.456,1.136-3.456,2.752,0,1.632,1.376,2.688,3.488,2.688a3.694,3.694,0,0,0,2.656-.9A2.557,2.557,0,0,0,28-1.76c0-.064-.016-.176-.032-.32A9.677,9.677,0,0,1,30.416-.1Zm-5.12-.88s.032.384.032.544c0,.9-.528,1.344-1.616,1.344-.992,0-1.568-.384-1.568-1.04,0-.672.672-1.1,1.712-1.1A4.033,4.033,0,0,1,26.176-2.768Zm8.1-8.992a7.646,7.646,0,0,1,.064,1.024c.064,4.432.352,6.752,1.008,8.352.64,1.536,1.5,2.32,2.576,2.32,1.36,0,2.288-1.3,3.12-4.416a7.9,7.9,0,0,1-1.6-1.456,11.8,11.8,0,0,1-.848,2.9c-.192.448-.416.688-.656.688-.512,0-1.024-1.024-1.3-2.688a29.942,29.942,0,0,1-.3-4.288,18.6,18.6,0,0,1,.128-2.432Zm8.08,1.52A13.966,13.966,0,0,1,44.624-6.3,16.22,16.22,0,0,1,45.648-1.68l1.984-.752a15.952,15.952,0,0,0-3.6-8.608Z" transform="translate(104.067 111)" fill="#121212"/>
      </g>
      <g id="pickup_03" transform="translate(4291.567 603)">
        <g id="グループ_670" data-name="グループ 670" transform="translate(-3938.127 -845.557)">
          <path id="パス_903" data-name="パス 903" d="M758.716,469.218l8.469-18.161-5.607-2.615L753.109,466.6l5.607,2.615" transform="translate(3257.612 430.612)" fill="#fff"/>
          <path id="パス_904" data-name="パス 904" d="M856.277,451.057l8.469,18.161,5.607-2.615-8.469-18.161-5.607,2.615" transform="translate(3207.07 430.612)" fill="#fff"/>
          <path id="パス_905" data-name="パス 905" d="M797.143,489.584a1.57,1.57,0,0,1,1.53-1.53c-.422.051-.085,0,.015-.022l.052-.013c-.016,0,.148-.057.186-.079.065-.037.125-.084.19-.12l-.073.041c-.061.04-.1.058,0,0a.589.589,0,0,0,.079-.061c.055-.052.1-.109.155-.165.02-.027.055-.073.085-.123.063-.1.118-.2.173-.31a1.16,1.16,0,0,1,.086-.127,64.356,64.356,0,0,1-4.669-4.434c-1.381-1.408.782-3.573,2.164-2.164q1.422,1.449,2.9,2.844a26.266,26.266,0,0,0,2.14,1.909c.857.645,1.645.146,1.736-.944-.141-.132-.282-.265-.421-.4-1.549-1.533-3.06-3.1-4.56-4.685-1.356-1.429.805-3.6,2.164-2.164q1.3,1.373,2.627,2.73c.71.728,2.692,3.473,3.781,3.288a1.557,1.557,0,0,0,1.055-1.477c-.141-.586-1.863-1.784-2.328-2.233q-1.65-1.594-3.289-3.2c-1.409-1.382.757-3.544,2.164-2.164,1.719,1.685,3.675,3.274,5.289,5.069a1.65,1.65,0,0,1,.183.086c1.664,1,2.277-.273,1.692-1.468a13.643,13.643,0,0,0-2.2-2.6q-2.352-2.657-4.789-5.238-2.882-3.066-5.846-6.054a1.533,1.533,0,0,1,.719-2.545l-1.61-1.8c-1.835,3.305-4.771,7.558-9.2,5.651a4.791,4.791,0,0,1-2.687-4.412c.128-2.051,2.294-3.992,3.483-5.542.474-.618.963-1.276,1.509-1.867-1.138-.2-2.274-.447-3.2.223.967.829.665,2.8-.92,2.7a6.053,6.053,0,0,0-4.338,1.459,1.518,1.518,0,0,1-1.489.393l-3.69-1.535-6.656,14.274a1.625,1.625,0,0,1,.4.153l2.911,1.606a1.536,1.536,0,0,1-.678,2.836l.754.936a8.543,8.543,0,0,1,1.972-2.4,9.991,9.991,0,0,1,2.409-2.076,49.727,49.727,0,0,0,8.864,4.763,4.209,4.209,0,0,0,3.95,3.95,4.279,4.279,0,0,1,1.231,2.945,3.97,3.97,0,0,1,2.955,1.242,4.349,4.349,0,0,1-.033,6.074,1.663,1.663,0,0,0,1.973.193,1.742,1.742,0,0,1-.893-1.414" transform="translate(3248.687 428.357)" fill="#fff"/>
          <path id="パス_906" data-name="パス 906" d="M834.17,474.733l3.244-1.784-7.466-16.011a29,29,0,0,1-3.59,1.457c-3.07,1-5.038.285-8.01-.743-1.786-.618-4.87-2.247-6.59-1-1.372,1-2.418,3.033-3.434,4.359-.393.512-.937.925-.908,1.616.068,1.6,2.214,1.486,3.173.912,1.461-.874,2.258-2.812,3.041-4.232.952-1.727,3.594-.182,2.643,1.545l-.067.121,1.61,1.8a1.384,1.384,0,0,1,1.446.381c4.226,4.236,8.457,8.563,12.279,13.169a9.424,9.424,0,0,1,1.344,2.086l1.524-.958a1.516,1.516,0,0,1-.238-2.72" transform="translate(3231.008 426.814)" fill="#fff"/>
          <path id="パス_907" data-name="パス 907" d="M826.007,451.735a1.966,1.966,0,0,1-.174-.8c-.8.394-1.625.755-2.462,1.067-2.506.932-3.842.726-6.354-.16-2.207-.778-5.288-2.414-7.664-2.029a5.325,5.325,0,0,0-3.033,1.838,5.169,5.169,0,0,0,2.137.073,5.169,5.169,0,0,1-2.137-.073c-.546.591-1.035,1.249-1.509,1.867-1.19,1.551-3.356,3.492-3.483,5.542a4.791,4.791,0,0,0,2.687,4.412c4.433,1.907,7.369-2.345,9.2-5.651l-.486-.543.486.543.067-.121c.951-1.726-1.691-3.272-2.643-1.545-.783,1.42-1.58,3.357-3.041,4.232-.96.574-3.1.687-3.173-.911-.03-.691.515-1.1.908-1.617,1.016-1.326,2.062-3.361,3.434-4.359,1.72-1.251,4.8.378,6.59,1,2.971,1.028,4.939,1.74,8.01.743a29.081,29.081,0,0,0,3.59-1.458l-.954-2.046" transform="translate(3233.993 429.97)" fill="#353535"/>
          <path id="パス_908" data-name="パス 908" d="M837.468,484.666l-1.622,1.019,1.622-1.019a9.434,9.434,0,0,0-1.344-2.086c-3.822-4.606-8.053-8.933-12.28-13.169a1.383,1.383,0,0,0-1.446-.381l2.1,2.345-2.1-2.345a1.532,1.532,0,0,0-.718,2.544c1.981,1.986,3.925,4.011,5.846,6.054q2.43,2.586,4.789,5.238a13.622,13.622,0,0,1,2.2,2.6c.586,1.194-.028,2.463-1.691,1.468a1.667,1.667,0,0,0-.183-.087c-1.614-1.794-3.571-3.383-5.289-5.068-1.407-1.38-3.574.782-2.164,2.164q1.638,1.606,3.289,3.2c.465.449,2.187,1.648,2.328,2.233a1.556,1.556,0,0,1-1.055,1.477c-1.088.185-3.071-2.56-3.781-3.288q-1.322-1.357-2.627-2.73c-1.359-1.431-3.521.736-2.164,2.164,1.5,1.58,3.012,3.152,4.56,4.685.139.137.279.271.42.4-.091,1.089-.879,1.589-1.736.943a26.142,26.142,0,0,1-2.139-1.909q-1.477-1.393-2.9-2.844c-1.381-1.408-3.545.756-2.164,2.164a63.985,63.985,0,0,0,4.669,4.434,1.34,1.34,0,0,0-.086.127c-.055.106-.11.209-.172.31-.031.049-.065.1-.085.123-.05.056-.1.112-.155.165a.588.588,0,0,1-.079.06l.073-.041c-.065.036-.125.083-.19.12-.038.022-.2.076-.186.079l-.052.013c-.1.027-.437.073-.015.021a1.571,1.571,0,0,0-1.53,1.53,1.741,1.741,0,0,0,.893,1.414,16.226,16.226,0,0,1,1.849-.934,16.226,16.226,0,0,0-1.849.934,1.109,1.109,0,0,0,.637.116,4.354,4.354,0,0,0,3.5-2.366,1.67,1.67,0,0,0,.111-.272,4.081,4.081,0,0,0,4.293-2.487,3.456,3.456,0,0,0,3.019-.64,4.755,4.755,0,0,0,1.9-2.806,3.76,3.76,0,0,0,3.857-2.134,4.179,4.179,0,0,0-.153-3.54" transform="translate(3226.424 420.559)" fill="#353535"/>
          <path id="パス_909" data-name="パス 909" d="M825.6,521.3c-.1.058-.061.04,0,0" transform="translate(3222.129 394.921)" fill="#353535"/>
          <path id="パス_910" data-name="パス 910" d="M771.292,490.6l1.454,1.8a1.536,1.536,0,0,0,.678-2.836l-2.911-1.606a1.623,1.623,0,0,0-.4-.153l-1.265,2.713c.041.028.075.058.12.083l2.911,1.606a1.494,1.494,0,0,0,.867.193Z" transform="translate(3249.902 411.325)" fill="#353535"/>
          <path id="パス_911" data-name="パス 911" d="M793.895,453.194a8.975,8.975,0,0,0-5.653,1.7l-2.58-1.074-1.285,2.756,3.691,1.536a1.519,1.519,0,0,0,1.488-.394,6.055,6.055,0,0,1,4.338-1.459c1.585.092,1.887-1.874.92-2.7a2.839,2.839,0,0,0-.779.87,2.839,2.839,0,0,1,.779-.87,1.514,1.514,0,0,0-.92-.358" transform="translate(3242.294 428.291)" fill="#353535"/>
          <path id="パス_912" data-name="パス 912" d="M862.385,489.039l-3.244,1.784a1.516,1.516,0,0,0,.238,2.72l1.172-.737-1.172.737a1.43,1.43,0,0,0,1.306-.078l3-1.647-1.3-2.78" transform="translate(3206.036 410.724)" fill="#353535"/>
          <path id="パス_913" data-name="パス 913" d="M784.67,496.621c-.694.694-2.146,1.776-1.1,2.825,1.193,1.053,2.307-.576,3.077-1.347.685-.684,2.04-1.714,1.013-2.742-1.1-1.1-2.284.553-2.994,1.264" transform="translate(3242.868 407.808)" fill="#fff"/>
          <path id="パス_914" data-name="パス 914" d="M792.414,504.365c-.694.694-2.145,1.776-1.1,2.825,1.193,1.053,2.307-.576,3.078-1.347.685-.684,2.04-1.714,1.013-2.742-1.1-1.1-2.284.553-2.994,1.264" transform="translate(3239.074 404.014)" fill="#fff"/>
          <path id="パス_915" data-name="パス 915" d="M802.141,513.588c.684-.684,2.04-1.714,1.012-2.742-1.1-1.1-2.284.554-2.994,1.264-.694.694-2.146,1.776-1.1,2.826,1.192,1.053,2.307-.576,3.077-1.348" transform="translate(3235.28 400.22)" fill="#fff"/>
          <path id="パス_916" data-name="パス 916" d="M810.753,521.406c1.258,1.15,3.543-1.115,2.329-2.329s-3.534,1.123-2.329,2.329" transform="translate(3229.538 396.174)" fill="#fff"/>
          <path id="パス_917" data-name="パス 917" d="M799,502.357a3.974,3.974,0,0,0-2.955-1.242,13.088,13.088,0,0,1-5.181-6.895,4.208,4.208,0,0,1-3.95-3.95,4.324,4.324,0,0,0-4.914-.812,9.977,9.977,0,0,0-2.409,2.076,8.533,8.533,0,0,0-1.972,2.4l1.369,1.7-1.369-1.7c-.031.067-.064.133-.09.2a4.327,4.327,0,0,0,.694,4.231,1.578,1.578,0,0,0,.272.317,4.817,4.817,0,0,0,2.721,1.223,4.3,4.3,0,0,0,.956,2.411,1.6,1.6,0,0,0,.273.317,4.821,4.821,0,0,0,2.721,1.223,4.3,4.3,0,0,0,.956,2.41,1.594,1.594,0,0,0,.273.317,4.391,4.391,0,0,0,4.912.813,4.253,4.253,0,0,0,1.036,1.612c2.027,1.852,4.636,1.457,6.468-.409.055-.056.1-.116.156-.174a3.231,3.231,0,0,1-.259-.232,3.231,3.231,0,0,0,.259.232,4.349,4.349,0,0,0,.033-6.074m-18.341-5.833c-1.05-1.05.4-2.132,1.1-2.826.71-.71,1.9-2.36,2.994-1.264,1.028,1.028-.328,2.058-1.012,2.742-.771.771-1.885,2.4-3.077,1.348m3.95,3.95c-1.049-1.049.4-2.132,1.1-2.825.711-.711,1.9-2.361,2.994-1.264,1.028,1.028-.328,2.058-1.013,2.742-.771.771-1.885,2.4-3.077,1.347m7.028,2.6c-.771.771-1.885,2.4-3.077,1.348-1.05-1.05.4-2.132,1.1-2.826.711-.71,1.9-2.36,2.994-1.264,1.028,1.028-.328,2.058-1.012,2.742m2.87,3.773c-1.206-1.206,1.118-3.54,2.329-2.329s-1.071,3.478-2.329,2.329" transform="translate(3245.781 410.73)" fill="#353535"/>
          <path id="パス_918" data-name="パス 918" d="M766.595,445.611l-8.37-3.9a1.553,1.553,0,0,0-2.093.549l-9.757,20.923a1.554,1.554,0,0,0,.549,2.094l8.369,3.9a1.7,1.7,0,0,0,.374.121,1.261,1.261,0,0,0,1.72-.671l.363-.778,1.265-2.713,6.656-14.274,1.285-2.755.188-.4a1.554,1.554,0,0,0-.549-2.094m-11.267,20.22-5.607-2.615,8.469-18.161,5.607,2.615-8.469,18.161" transform="translate(3261 434)" fill="#35cae9"/>
          <path id="パス_919" data-name="パス 919" d="M860.561,442.26a1.561,1.561,0,0,0-2.093-.549l-8.369,3.9a1.337,1.337,0,0,0-.723,1.293,1.966,1.966,0,0,0,.174.8l.954,2.047,7.466,16.011,1.3,2.78.04.086a1.26,1.26,0,0,0,1.719.671,1.675,1.675,0,0,0,.375-.122l8.369-3.9a1.561,1.561,0,0,0,.549-2.093l-9.757-20.923m6.41,20.958-5.607,2.615L852.9,447.672l5.607-2.615,8.469,18.161" transform="translate(3210.451 433.997)" fill="#35cae9"/>
        </g>
        <rect id="長方形_380" data-name="長方形 380" width="78" height="73" transform="translate(67.067 13)" fill="none"/>
      </g>
    </g>
  </g>
</svg>
