<svg id="pickup_item04" xmlns="http://www.w3.org/2000/svg" width="161" height="161" viewBox="0 0 161 161">
  <circle id="楕円形_17" data-name="楕円形 17" cx="80.5" cy="80.5" r="80.5" fill="#e8e8e8"/>
  <path id="パス_1149" data-name="パス 1149" d="M-43.12-13.264a16.346,16.346,0,0,1-.48,2.784c-.352.016-.624.016-.816.016a11.109,11.109,0,0,1-2.16-.144v1.824l.848.016c.336.016.432.016.64.016.192,0,.288,0,1.008-.016a24.615,24.615,0,0,1-1.5,3.776,14.564,14.564,0,0,1-1.552,2.56l1.84,1.024c.1-.192.1-.192.3-.576.608-1.12.752-1.408,1.12-2.192a30.712,30.712,0,0,0,1.76-4.64c.992-.08,1.968-.192,2.544-.288a3.12,3.12,0,0,1,.512-.08l-.048-1.84a13.724,13.724,0,0,1-2.56.448c.176-.7.256-1.024.336-1.408a8.009,8.009,0,0,1,.256-1.072ZM-32.88-9.1a25.257,25.257,0,0,0-4.512-2.144l-.96,1.552a19.583,19.583,0,0,1,4.608,2.24Zm-.064,7.216a2.865,2.865,0,0,1-.24-.224,5.9,5.9,0,0,0-.56-.432,10,10,0,0,0-2.528-1.472,16.988,16.988,0,0,1-.144-2.192,5.333,5.333,0,0,1,.192-1.616l-1.856-.1A8.487,8.487,0,0,0-38.208-6.3c0,.48.032,1.1.08,1.84a7.947,7.947,0,0,0-1.488-.144c-2.032,0-3.456,1.136-3.456,2.752,0,1.632,1.376,2.688,3.488,2.688a3.694,3.694,0,0,0,2.656-.9,2.557,2.557,0,0,0,.688-1.7c0-.064-.016-.176-.032-.32A9.677,9.677,0,0,1-33.824-.1Zm-5.12-.88s.032.384.032.544c0,.9-.528,1.344-1.616,1.344-.992,0-1.568-.384-1.568-1.04,0-.672.672-1.1,1.712-1.1A4.033,4.033,0,0,1-38.064-2.768ZM-25.7-6.64a6.28,6.28,0,0,0,.656-.416c.32-.208,1.472-1.072,1.76-1.312.544-.464,1.712-1.5,2.512-2.24a3.43,3.43,0,0,1,.832-.656l-.992-1.408a2.358,2.358,0,0,1-.992.208c-1.552.112-3.5.192-4.864.192a14.47,14.47,0,0,1-1.888-.1l.08,1.92a5.4,5.4,0,0,1,.768-.08c2.9-.128,3.92-.192,4.528-.272l.016.016-.288.288a53.425,53.425,0,0,1-4.784,4.16,14.39,14.39,0,0,1-2.256,1.5L-29.52-3.1a9.858,9.858,0,0,1,6.592-2.688c1.936,0,3.168.816,3.168,2.064,0,1.136-.576,1.824-1.9,2.32a4.3,4.3,0,0,0-.736-1.44A3.444,3.444,0,0,0-25.168-4.16c-1.6,0-2.752.96-2.752,2.288a2.284,2.284,0,0,0,.96,1.84,5.413,5.413,0,0,0,3.1.736,7.916,7.916,0,0,0,3.872-.912,3.91,3.91,0,0,0,2.176-3.536c0-2.192-1.76-3.6-4.5-3.6a7.81,7.81,0,0,0-3.36.736Zm2.3,5.7a4.331,4.331,0,0,1-.832.064c-1.184,0-1.9-.368-1.9-1.008,0-.448.368-.736.944-.736C-24.288-2.624-23.68-2.048-23.392-.944Zm9.312-2.08a2.509,2.509,0,0,1,.336-.448,46.813,46.813,0,0,0,3.152-3.872c.544-.72.7-.864.96-.864.3,0,.4.08,1.392,1.216A66.222,66.222,0,0,0-2.016-.64a3.127,3.127,0,0,1,.464.464l.976-2.272C-1.5-2.848-5.12-6.3-7.1-8.688A10.681,10.681,0,0,0-8.176-9.84a2.268,2.268,0,0,0-1.44-.608,2.2,2.2,0,0,0-1.28.48,4.9,4.9,0,0,0-.992,1.008,21.131,21.131,0,0,1-3.488,3.92Zm8.288-7.536a11.356,11.356,0,0,1,1.68,2.384l1.12-.592a10.889,10.889,0,0,0-1.68-2.352Zm4.7.752a9.253,9.253,0,0,0-1.664-2.256l-1.072.56a11.788,11.788,0,0,1,1.632,2.32ZM9.84-13.28a7.932,7.932,0,0,1-1.168,1.328,35.862,35.862,0,0,1-3.7,3.12A9.811,9.811,0,0,0,3.568-7.68a1.869,1.869,0,0,0-.528,1.3c0,.736.288,1.168,1.344,1.984A50.747,50.747,0,0,1,8.512-.992,15.455,15.455,0,0,1,10.592,1.2L12.24-.464a3.989,3.989,0,0,1-.464-.4A53.781,53.781,0,0,0,6.736-5.04C5.328-6.1,5.3-6.128,5.3-6.368c0-.176.112-.3.608-.672C7.776-8.464,8.9-9.36,9.712-10.112a24.407,24.407,0,0,1,1.968-1.76Zm13.1,7.472v1.584H18.8a15.068,15.068,0,0,1-1.952-.1v1.792a15.766,15.766,0,0,1,1.952-.1h4.144V-.7a16.026,16.026,0,0,1-.1,2.064h2.016A13.756,13.756,0,0,1,24.752-.7v-1.92h4.432a15.412,15.412,0,0,1,1.952.1V-4.32a15.239,15.239,0,0,1-1.952.1H24.752V-5.808h3.024c.864,0,1.248.016,1.872.064a11.243,11.243,0,0,1-.1-1.648V-11.28a9.977,9.977,0,0,1,.1-1.7,15.7,15.7,0,0,1-1.92.08h-7.52a14.852,14.852,0,0,1-1.872-.08,10.278,10.278,0,0,1,.1,1.728v3.792a10.3,10.3,0,0,1-.1,1.712c.592-.048,1.04-.064,1.872-.064Zm-2.816-5.568H27.84v1.28H20.128Zm0,2.736H27.84v1.376H20.128ZM41.84-13.28a7.932,7.932,0,0,1-1.168,1.328,35.862,35.862,0,0,1-3.7,3.12A9.811,9.811,0,0,0,35.568-7.68a1.869,1.869,0,0,0-.528,1.3c0,.736.288,1.168,1.344,1.984A50.748,50.748,0,0,1,40.512-.992,15.455,15.455,0,0,1,42.592,1.2L44.24-.464a3.989,3.989,0,0,1-.464-.4,53.781,53.781,0,0,0-5.04-4.176C37.328-6.1,37.3-6.128,37.3-6.368c0-.176.112-.3.608-.672,1.872-1.424,2.992-2.32,3.808-3.072a24.408,24.408,0,0,1,1.968-1.76ZM-31.5,18.632a9.334,9.334,0,0,1-3.92,3.488,5.613,5.613,0,0,1,1.056,1.472A9.919,9.919,0,0,0-30.7,19.848c-.032.576-.048.832-.048,1.216V22.68a13.784,13.784,0,0,1-.1,1.68h1.856a12.791,12.791,0,0,1-.1-1.664V21.032c0-.368-.016-.72-.048-1.2a7.727,7.727,0,0,0,1.712,2.144A14.4,14.4,0,0,0-25.2,23.56a7.3,7.3,0,0,1,.864-1.68,10.311,10.311,0,0,1-2.432-1.488,6.765,6.765,0,0,1-1.6-1.76h1.984c.544,0,1.12.032,1.584.08V17a11.863,11.863,0,0,1-1.584.1h-2.7V16.92a3.878,3.878,0,0,1,.08-.976h-1.824a4.035,4.035,0,0,1,.08.976V17.1h-2.3c-.688,0-1.072-.016-1.456-.048V15.88c-.544.256-.72.32-1.216.512v-2.3h.352a6.582,6.582,0,0,1,.88.048V12.472a4.4,4.4,0,0,1-.88.064h-.352V11.208a9.086,9.086,0,0,1,.1-1.616h-1.9a9.282,9.282,0,0,1,.1,1.632v1.312H-38.1a6.882,6.882,0,0,1-1.2-.1v1.728a10.488,10.488,0,0,1,1.168-.08h.688V17a11.856,11.856,0,0,1-1.92.464l.256,1.808c.208-.08.384-.144.64-.24.48-.144.512-.16,1.024-.336v3.472c0,.384-.1.48-.544.48a7.854,7.854,0,0,1-1.264-.1A5.506,5.506,0,0,1-38.88,24.2c.464.016.688.032.96.032,1.008,0,1.488-.08,1.776-.32.288-.224.416-.592.416-1.248V18.056c.368-.144.368-.144,1.072-.448V18.7a15.057,15.057,0,0,1,1.6-.064Zm5.168-9.072a10.168,10.168,0,0,1-2.672.832,36.951,36.951,0,0,1-5.616.48,5.119,5.119,0,0,1,.608,1.536,35.638,35.638,0,0,0,8.544-1.3A2.933,2.933,0,0,1-25.1,11ZM-31.6,15.7a12.412,12.412,0,0,0-1.3-2.88l-1.424.512a12.75,12.75,0,0,1,1.232,2.96Zm2.928-.5a11.322,11.322,0,0,0-.992-2.768l-1.52.4a9.736,9.736,0,0,1,.928,2.768Zm1.808,1.28A17.17,17.17,0,0,0-24.9,12.76l-1.632-.656A11.785,11.785,0,0,1-28.32,15.9Zm10.176,2.8v2.64a13.181,13.181,0,0,1-.1,1.888H-14.9a14.05,14.05,0,0,1-.08-1.9V19.288h3.84v2.8c0,.336-.144.4-.8.4-.512,0-1.216-.048-2.016-.128a6.471,6.471,0,0,1,.448,1.664c.48.032,1.3.064,1.792.064,1.824,0,2.3-.336,2.3-1.664V11.912c0-.864.016-1.264.064-1.808a17.793,17.793,0,0,1-1.84.064H-20.16c-.864,0-1.28-.016-1.84-.064a21.614,21.614,0,0,1,.08,2.32c0,1.888-.064,4.16-.144,5.5a16.189,16.189,0,0,1-.32,2.448,7.317,7.317,0,0,1-1.168,2.7A9.626,9.626,0,0,1-22,24.344a10.741,10.741,0,0,0,1.632-5.056Zm0-1.584h-3.568c0-.32,0-.432.016-1.184,0-.224.016-.544.016-1.008h3.536Zm1.712,0V15.512h3.84V17.7Zm-1.712-3.76h-3.5l.016-.448V11.848h3.488Zm1.712,0v-2.1h3.84v2.1Zm10.24-3.728A7.957,7.957,0,0,1-4.672,11.3c0,.224,0,.56-.016,1.04-.1,4.016-.128,5.616-.128,6.448,0,2.144.464,3.376,1.568,4.112a5.216,5.216,0,0,0,2.8.7,6.056,6.056,0,0,0,4.8-2.032,9.856,9.856,0,0,0,1.9-4.08A6.91,6.91,0,0,1,4.32,16.264a10.726,10.726,0,0,1-.736,2.688A4.117,4.117,0,0,1-.288,21.688a2.533,2.533,0,0,1-2.144-.832c-.32-.48-.416-1.056-.416-2.576,0-1.136.1-4.384.16-5.872a14.626,14.626,0,0,1,.192-2.16ZM9.488,14.232a2.389,2.389,0,0,1,.3-.016c.128,0,.352,0,.64.016.272.016.432.016.512.016h.928a1.355,1.355,0,0,0,.208-.016A34.184,34.184,0,0,1,9.216,22.84l2.016.784a54.246,54.246,0,0,0,1.792-5.3c.416-1.456.816-3.152.992-4.144a21.811,21.811,0,0,0,2.624-.336c.384-.064.384-.064.512-.08l-.08-1.84a13.279,13.279,0,0,1-2.736.48c.064-.368.08-.464.16-.912a9.092,9.092,0,0,1,.3-1.536l-2.112-.192a2.171,2.171,0,0,1,.016.288,19.42,19.42,0,0,1-.3,2.448c-.368.016-.544.016-.736.016a12.73,12.73,0,0,1-2.144-.144Zm12.688.352c-1.008-.016-1.152-.016-1.584-.016a20.533,20.533,0,0,0-4.768.512l.144,1.76a17.267,17.267,0,0,1,4.224-.464,16.657,16.657,0,0,1,2.016.112Zm-6.3,3.36a4.512,4.512,0,0,0-1.184,2.768,2.312,2.312,0,0,0,1.136,1.968,6.5,6.5,0,0,0,3.216.64,18.619,18.619,0,0,0,2.976-.256c.368-.064.5-.08.784-.112l-.144-1.968a12.245,12.245,0,0,1-3.632.592c-1.6,0-2.4-.416-2.4-1.232a2.655,2.655,0,0,1,.832-1.76Zm9.84-6.7a7.645,7.645,0,0,1,.064,1.024c.064,4.432.352,6.752,1.008,8.352.64,1.536,1.5,2.32,2.576,2.32,1.36,0,2.288-1.3,3.12-4.416a7.9,7.9,0,0,1-1.6-1.456,11.8,11.8,0,0,1-.848,2.9c-.192.448-.416.688-.656.688-.512,0-1.024-1.024-1.3-2.688a29.941,29.941,0,0,1-.3-4.288A18.6,18.6,0,0,1,27.9,11.24Zm8.08,1.52A13.966,13.966,0,0,1,36.064,16.7a16.22,16.22,0,0,1,1.024,4.624l1.984-.752a15.952,15.952,0,0,0-3.6-8.608Z" transform="translate(81 79)" fill="#272525"/>
</svg>
