<svg id="pickup_item01" xmlns="http://www.w3.org/2000/svg" width="161" height="161" viewBox="0 0 161 161">
  <path id="パス_462" data-name="パス 462" d="M80.5,0A80.5,80.5,0,1,1,0,80.5,80.5,80.5,0,0,1,80.5,0Z" fill="#e8e8e8"/>
  <path id="パス_1146" data-name="パス 1146" d="M-41.072-13.232a10.466,10.466,0,0,1,.064,1.344c0,3.84-.864,6.464-2.928,8.832A10.666,10.666,0,0,1-47.424-.384a4.786,4.786,0,0,1,1.248,1.648A13.5,13.5,0,0,0-43.7-.576a11.14,11.14,0,0,0,2.464-3.072A11.449,11.449,0,0,0-39.984-6.88a12.649,12.649,0,0,0,2.128,4.368,15.575,15.575,0,0,0,4.064,3.776A5.953,5.953,0,0,1-32.544-.512a10.655,10.655,0,0,1-2.48-1.728,10.724,10.724,0,0,1-2.528-3.04,11.485,11.485,0,0,1-1.568-6.3,10.586,10.586,0,0,1,.112-1.648ZM-24.992-4.7h-4.624a10.977,10.977,0,0,1-1.728-.08v1.52a11.459,11.459,0,0,1,1.76-.08h4.592v.688h-3.824a11.621,11.621,0,0,1-1.52-.064v1.488a10.906,10.906,0,0,1,1.584-.08h3.76v.768c0,.288-.128.368-.624.368A18.145,18.145,0,0,1-27.648-.32a4.554,4.554,0,0,1,.5,1.584c.512.032,1.152.064,1.536.064,1.952,0,2.352-.3,2.352-1.744v-.9h3.536v.624h1.792a12.03,12.03,0,0,1-.08-1.728v-.928a9.506,9.506,0,0,1,1.392.08v-1.52a9.04,9.04,0,0,1-1.392.08v-.56a10.827,10.827,0,0,1,.048-1.456c-.448.032-.768.048-1.712.048h-3.584V-7.28h3.68c.512,0,.928.016,1.28.048A10.111,10.111,0,0,1-18.352-8.3V-9.36a10.892,10.892,0,0,1,.048-1.12c-.384.032-.736.048-1.344.048h-3.616v-.608h4.592a15.429,15.429,0,0,1,1.872.1v-1.584a15.008,15.008,0,0,1-1.968.1h-4.5a4.52,4.52,0,0,1,.112-1.088h-1.936a5.912,5.912,0,0,1,.1,1.088H-29.28a14.841,14.841,0,0,1-1.968-.1v1.584a15.429,15.429,0,0,1,1.872-.1h4.384v.608h-3.376c-.608,0-.944-.016-1.36-.048.032.384.048.672.048,1.12V-8.3c0,.4-.016.736-.048,1.072.368-.032.768-.048,1.344-.048h3.392v.608h-3.76a11.975,11.975,0,0,1-1.5-.064v1.392a13.289,13.289,0,0,1,1.472-.064h3.792Zm1.728,0v-.7h3.536v.7Zm0,1.36h3.536v.688h-3.536Zm-1.728-5.84v.656h-2.992v-.656Zm1.728,0h3.216v.656h-3.216Zm16.512-1.072a3.5,3.5,0,0,1,1.616.48A3.964,3.964,0,0,1-3.168-6.224a4.48,4.48,0,0,1-2.224,4,8.5,8.5,0,0,1-3.184.88A5.1,5.1,0,0,1-7.6.528,10.46,10.46,0,0,0-5.088-.144,6.164,6.164,0,0,0-1.2-6.112c0-3.6-2.5-5.936-6.336-5.936a7.182,7.182,0,0,0-5.5,2.24A6.873,6.873,0,0,0-14.8-5.152c0,2.576,1.312,4.432,3.136,4.432,1.312,0,2.336-.944,3.248-3.008A23.147,23.147,0,0,0-6.752-10.256ZM-8.7-10.24a21.087,21.087,0,0,1-1.328,5.408c-.576,1.376-1.12,2.048-1.648,2.048-.7,0-1.264-1.04-1.264-2.352a5.357,5.357,0,0,1,2.176-4.32A4.073,4.073,0,0,1-8.7-10.24Zm19.28,1.232v-.56h2.16c.576,0,1.056.016,1.568.048a7.466,7.466,0,0,1-.048-1.136v-.64a8.206,8.206,0,0,1,.064-1.248,14.577,14.577,0,0,1-1.568.08H10.576a4.675,4.675,0,0,1,.08-1.008H8.912a4.414,4.414,0,0,1,.08,1.008H7.2a8.271,8.271,0,0,1,.064-1.008H5.552a6.153,6.153,0,0,1,.064,1.008H2.976a9.451,9.451,0,0,1-1.536-.08v1.392a9.094,9.094,0,0,1,1.536-.08H5.568c0,.176-.016.176-.048.56h-2.1c-.64,0-1.024-.016-1.344-.048a9.8,9.8,0,0,1-.928,2.912c.448-.016.992-.032,1.328-.032H4.256A7.966,7.966,0,0,1,.592-6.464a3.871,3.871,0,0,1,.64,1.136l.128.288c.624-.192.848-.256,1.28-.416V-2.48c0,.688-.032,1.312-.064,1.6.368-.032,1.008-.048,1.7-.048h.752A12.463,12.463,0,0,1,.752.176a6.472,6.472,0,0,1,.976,1.392A13.082,13.082,0,0,0,6.784-.272l-.8-.656h4.16l-.88.656A12.906,12.906,0,0,0,14.48,1.552a7.831,7.831,0,0,1,.992-1.44A10.871,10.871,0,0,1,11.1-.928h.768c.656,0,1.36.016,1.7.048a16.073,16.073,0,0,1-.064-1.7v-3.68c1.088-.064,1.344-.368,1.536-1.712.1-.816.1-.816.144-1.088-.368.032-.656.048-1.36.048Zm1.36,1.952h-1.36V-7.84h2.816c-.048.432-.112.5-.432.5a3.65,3.65,0,0,1-.9-.144,1.8,1.8,0,0,1,.16.432Zm-2.944,0H5.52a3.6,3.6,0,0,0,.72-.784H8.992ZM5.344-9.568c-.08.24-.112.336-.192.56H3.264a3.708,3.708,0,0,0,.192-.56Zm3.648,0v.56H6.8c.064-.24.08-.32.144-.56Zm0-1.664v.56H7.12c.016-.256.032-.336.032-.56Zm1.584,0h2.016v.56H10.576ZM4.288-5.952H11.84v.56H4.288Zm0,1.584H11.84v.592H4.288Zm0,1.616H11.84v.592H4.288Zm19.024-.96v2.64a13.181,13.181,0,0,1-.1,1.888H25.1a14.05,14.05,0,0,1-.08-1.9V-3.712h3.84v2.8c0,.336-.144.4-.8.4-.512,0-1.216-.048-2.016-.128A6.471,6.471,0,0,1,26.5,1.024c.48.032,1.3.064,1.792.064,1.824,0,2.3-.336,2.3-1.664V-11.088c0-.864.016-1.264.064-1.808a17.793,17.793,0,0,1-1.84.064H19.84c-.864,0-1.28-.016-1.84-.064a21.614,21.614,0,0,1,.08,2.32c0,1.888-.064,4.16-.144,5.5a16.189,16.189,0,0,1-.32,2.448A7.317,7.317,0,0,1,16.448.08,9.626,9.626,0,0,1,18,1.344a10.741,10.741,0,0,0,1.632-5.056Zm0-1.584H19.744c0-.32,0-.432.016-1.184,0-.224.016-.544.016-1.008h3.536Zm1.712,0V-7.488h3.84V-5.3Zm-1.712-3.76h-3.5l.016-.448v-1.648h3.488Zm1.712,0v-2.1h3.84v2.1ZM32.56-2.4a17.221,17.221,0,0,1,3.472,3.648L37.52-.144a18.7,18.7,0,0,0-3.6-3.52ZM-55.632,17.016c.032-.368.048-.56.064-.992a5.835,5.835,0,0,1,.1-.944h-1.952a3.61,3.61,0,0,1,.048.56,12.416,12.416,0,0,1-.064,1.376h-2.5a17.116,17.116,0,0,1-1.872-.08V18.7a15.167,15.167,0,0,1,1.888-.1h2.16a4.635,4.635,0,0,1-1.568,2.32,8.458,8.458,0,0,1-3.488,1.68,5.249,5.249,0,0,1,1.072,1.648A10.874,10.874,0,0,0-58.1,22.264,6.8,6.8,0,0,0-55.888,18.6h3.5a13.878,13.878,0,0,1-.336,3.072c-.16.624-.288.7-1.136.7a13.444,13.444,0,0,1-1.872-.16,6,6,0,0,1,.416,1.808c1.072.048,1.264.064,1.568.064,1.68,0,2.384-.368,2.672-1.408a22.785,22.785,0,0,0,.528-4.784,6.788,6.788,0,0,1,.08-.944c-.4.032-1.072.064-1.632.064ZM-61.3,13.032a15.384,15.384,0,0,1-1.616-.064,10.355,10.355,0,0,1,.064,1.328v1.152a7.562,7.562,0,0,1-.08,1.2h1.792V14.584h10.192v2.064h1.792a7.2,7.2,0,0,1-.08-1.2V14.28a9.778,9.778,0,0,1,.064-1.312,15.715,15.715,0,0,1-1.632.064h-1.088c.272-.416.592-.944.9-1.456.592-1.04.592-1.04.736-1.28l-1.76-.64a15.168,15.168,0,0,1-1.744,3.376h-6.272l1.488-.608a11.068,11.068,0,0,0-1.6-2.656l-1.616.608a9.379,9.379,0,0,1,1.552,2.656Zm6.576-.864A16.893,16.893,0,0,0-56.16,9.56l-1.616.5a11.109,11.109,0,0,1,1.408,2.736Zm14.88.56a20.726,20.726,0,0,1,.176-3.184h-2.128a8.421,8.421,0,0,1,.1,1.552c0,.832,0,.992-.032,1.632h-2.848a13.844,13.844,0,0,1-2.032-.112v1.92a16.9,16.9,0,0,1,1.984-.1h2.784a11.735,11.735,0,0,1-1.008,3.952,8.482,8.482,0,0,1-4.512,3.984,5.4,5.4,0,0,1,1.328,1.664,11.147,11.147,0,0,0,4.608-4.272,13.826,13.826,0,0,0,1.456-5.328h4.336A46.733,46.733,0,0,1-36,20.68c-.176,1.072-.416,1.36-1.168,1.36a14.128,14.128,0,0,1-2.752-.32,7.48,7.48,0,0,1,.448,1.936,18.447,18.447,0,0,0,2.448.176,3.16,3.16,0,0,0,1.9-.432c.5-.352.72-.912.928-2.384.16-1.056.32-3.76.368-5.952a21.64,21.64,0,0,1,.1-2.416,17.379,17.379,0,0,1-2.064.08Zm9.6.592a1.768,1.768,0,0,1,.256-.016c.144,0,.144,0,.448.016.352,0,1.76.032,2.016.032,0,0,.208-.016.272-.016a.783.783,0,0,0-.128.208A21.192,21.192,0,0,1-29.3,16.28a9.8,9.8,0,0,1-1.44,1.424l1.456,1.44a7.194,7.194,0,0,1,1.392-1.456,5.409,5.409,0,0,1,3.28-1.648.878.878,0,0,1,.976.864,7.827,7.827,0,0,0-3.44,2.256,2.55,2.55,0,0,0-.7,1.776A2.32,2.32,0,0,0-26.608,23a6.872,6.872,0,0,0,3.568.672,29.02,29.02,0,0,0,4.1-.288,4.714,4.714,0,0,1,.736-.064l-.16-2.064a13.9,13.9,0,0,1-4.7.672c-1.936,0-2.7-.336-2.7-1.168a1.684,1.684,0,0,1,.832-1.312,9.724,9.724,0,0,1,1.536-.832V19a12.667,12.667,0,0,1-.1,1.856l1.856-.048a6.569,6.569,0,0,1-.048-.848c0-.112,0-.256.016-.528v-.64c0-.224,0-.224-.016-.64v-.176q2.064-.72,2.4-.816a14.123,14.123,0,0,1,1.776-.432l-.752-1.84a5,5,0,0,1-1.184.48q-.6.192-2.448.864a2.105,2.105,0,0,0-2.288-1.7,3.868,3.868,0,0,0-2.256.72c-.208.16-.208.16-.32.24l-.016-.032a8.28,8.28,0,0,0,1.472-2.128c1.616-.048,3.648-.176,4.816-.32.816-.1.816-.1,1.264-.128l-.112-1.824a21.615,21.615,0,0,1-4.192.544c-.88.048-.88.048-1.008.064.032-.064.064-.112.144-.288a12.225,12.225,0,0,1,.64-1.44l-2.1-.224A6.337,6.337,0,0,1-26.5,11.7a19.335,19.335,0,0,1-3.712-.208Zm18.5.608h-1.7a10.777,10.777,0,0,1-1.232-.064,10.738,10.738,0,0,1,.064,1.36v7.232a13.3,13.3,0,0,1-.112,1.856h1.888a16.192,16.192,0,0,1-.1-1.872V20.76H-8.96v1.552c0,.256-.1.336-.416.336a13.457,13.457,0,0,1-1.68-.16,5.977,5.977,0,0,1,.352,1.584c.9.064,1.12.08,1.6.08A1.962,1.962,0,0,0-7.68,23.8,1.5,1.5,0,0,0-7.3,22.584V15.176a10.407,10.407,0,0,1,.064-1.312,12.751,12.751,0,0,1-1.424.064h-1.36v-3.1a7.027,7.027,0,0,1,.1-1.3h-1.92a6.98,6.98,0,0,1,.1,1.312Zm-1.184,4.192H-8.96v1.168h-3.968Zm3.968-1.488h-3.968V15.448H-8.96Zm-6.272-5.968A12.008,12.008,0,0,1-13.7,13.736l1.424-.752a15.14,15.14,0,0,0-1.536-3.1Zm7.024-.736a11.9,11.9,0,0,1-1.52,3.136l1.44.752A20.274,20.274,0,0,0-6.64,10.664Zm2.1.88a11.8,11.8,0,0,1,.08,1.7v6.384a11.121,11.121,0,0,1-.08,1.712h1.824a10.381,10.381,0,0,1-.08-1.7V12.472a11.048,11.048,0,0,1,.08-1.664Zm3.2-1.088a14.841,14.841,0,0,1,.1,1.968V22.056c0,.4-.128.48-.768.48a14.042,14.042,0,0,1-2-.16,5.959,5.959,0,0,1,.464,1.712c.88.048,1.2.064,1.584.064a3.425,3.425,0,0,0,1.84-.336c.432-.272.56-.624.56-1.5V11.656A10.917,10.917,0,0,1-1.024,9.72ZM10.32,17.368a4.652,4.652,0,0,1,.048-.8c-.256.016-.592.032-.928.032H7.648c-.528,0-.9-.016-1.1-.032a9.618,9.618,0,0,1,.048,1.088v3.216a6.939,6.939,0,0,1-.08,1.392h1.36V21.4H9.344a7.1,7.1,0,0,1,.832.032A11.95,11.95,0,0,1,7.76,23.256a5.568,5.568,0,0,1,1.264,1.168,11.4,11.4,0,0,0,2.96-2.848c.72,1.664,1.456,2.512,2.208,2.512.5,0,.912-.416,1.152-1.136a8.054,8.054,0,0,0,.352-2.176,6.41,6.41,0,0,1-1.28-.816,5.591,5.591,0,0,1-.272,2.208c-.016,0-.016,0-.032-.016l-.048-.048a7.965,7.965,0,0,1-1.072-2.192,18.534,18.534,0,0,0,1.7-4.352c.112-.416.176-.608.272-.912l-1.632-.576a11.919,11.919,0,0,1-.864,3.584,42.627,42.627,0,0,1-.352-4.688h1.3a15.132,15.132,0,0,1,1.7.064V11.32a4.329,4.329,0,0,1-.944.08l.864-.832a10.669,10.669,0,0,0-1.664-1.2l-1.024.944a9.715,9.715,0,0,1,1.488,1.1H12.1a1.7,1.7,0,0,1-.016-.24,8.719,8.719,0,0,1,.112-1.632h-1.76a12.184,12.184,0,0,1,.1,1.872H6.256a15.057,15.057,0,0,1-1.792-.08c.032.224.032.288.064.5a11.867,11.867,0,0,0-2.416-2.08L.88,10.888A11.084,11.084,0,0,1,3.3,13.048l1.232-1.216c.032.416.048,1.008.048,1.648a40.771,40.771,0,0,1-.4,6.832,6.783,6.783,0,0,1-1.12,2.9A6.353,6.353,0,0,1,4.48,24.344,8.242,8.242,0,0,0,5.68,21.1,45.957,45.957,0,0,0,6.1,12.968h4.448a31.276,31.276,0,0,0,.832,6.8,11.157,11.157,0,0,1-1.04,1.472c-.016-.224-.016-.48-.016-.848Zm-2.448.56H9.056v2.016H7.872ZM.432,14.984a12.87,12.87,0,0,1,2.544,2l1.12-1.3a12.792,12.792,0,0,0-2.512-1.9ZM2.32,18.008a16.935,16.935,0,0,1-.7,2.4,16.851,16.851,0,0,1-.784,1.824,2.819,2.819,0,0,1-.384.56l1.472,1.3c.064-.16.08-.224.144-.368a26.061,26.061,0,0,0,1.552-4.64Zm4.064-2.416a6.259,6.259,0,0,1,.88-.048H9.456a6.053,6.053,0,0,1,.9.048v-1.52a6.008,6.008,0,0,1-.912.048H7.264a6.1,6.1,0,0,1-.88-.048Zm12.88-5.376a7.957,7.957,0,0,1,.064,1.088c0,.224,0,.56-.016,1.04-.1,4.016-.128,5.616-.128,6.448,0,2.144.464,3.376,1.568,4.112a5.216,5.216,0,0,0,2.8.7,6.056,6.056,0,0,0,4.8-2.032,9.856,9.856,0,0,0,1.9-4.08,6.91,6.91,0,0,1-1.936-1.232,10.726,10.726,0,0,1-.736,2.688,4.117,4.117,0,0,1-3.872,2.736,2.533,2.533,0,0,1-2.144-.832c-.32-.48-.416-1.056-.416-2.576,0-1.136.1-4.384.16-5.872a14.626,14.626,0,0,1,.192-2.16Zm14.224,4.016a2.389,2.389,0,0,1,.3-.016c.128,0,.352,0,.64.016.272.016.432.016.512.016h.928a1.355,1.355,0,0,0,.208-.016,34.184,34.184,0,0,1-2.864,8.608l2.016.784a54.245,54.245,0,0,0,1.792-5.3c.416-1.456.816-3.152.992-4.144a21.811,21.811,0,0,0,2.624-.336c.384-.064.384-.064.512-.08l-.08-1.84a13.279,13.279,0,0,1-2.736.48c.064-.368.08-.464.16-.912a9.092,9.092,0,0,1,.3-1.536l-2.112-.192a2.171,2.171,0,0,1,.016.288,19.421,19.421,0,0,1-.3,2.448c-.368.016-.544.016-.736.016a12.73,12.73,0,0,1-2.144-.144Zm12.688.352c-1.008-.016-1.152-.016-1.584-.016a20.533,20.533,0,0,0-4.768.512l.144,1.76a17.268,17.268,0,0,1,4.224-.464,16.657,16.657,0,0,1,2.016.112Zm-6.3,3.36a4.512,4.512,0,0,0-1.184,2.768,2.312,2.312,0,0,0,1.136,1.968,6.5,6.5,0,0,0,3.216.64,18.619,18.619,0,0,0,2.976-.256c.368-.064.5-.08.784-.112l-.144-1.968a12.245,12.245,0,0,1-3.632.592c-1.6,0-2.4-.416-2.4-1.232a2.655,2.655,0,0,1,.832-1.76Zm9.84-6.7a7.646,7.646,0,0,1,.064,1.024c.064,4.432.352,6.752,1.008,8.352.64,1.536,1.5,2.32,2.576,2.32,1.36,0,2.288-1.3,3.12-4.416a7.9,7.9,0,0,1-1.6-1.456,11.8,11.8,0,0,1-.848,2.9c-.192.448-.416.688-.656.688-.512,0-1.024-1.024-1.3-2.688a29.941,29.941,0,0,1-.3-4.288A18.6,18.6,0,0,1,51.9,11.24Zm8.08,1.52A13.966,13.966,0,0,1,60.064,16.7a16.22,16.22,0,0,1,1.024,4.624l1.984-.752a15.952,15.952,0,0,0-3.6-8.608Z" transform="translate(80.818 75)" fill="#272525"/>
</svg>
