<svg xmlns="http://www.w3.org/2000/svg" width="78" height="73" viewBox="0 0 78 73">
  <g id="pickup_02" transform="translate(-67 -12)">
    <g id="グループ_669" data-name="グループ 669" transform="translate(-3203.521 -805.495)">
      <path id="パス_883" data-name="パス 883" d="M78.094,405.646c0,.021-.008.037-.013.059.024-.007.024-.03.013-.059" transform="translate(3241.872 429.868)" fill="#fff"/>
      <path id="パス_884" data-name="パス 884" d="M33.949,434.292c1.922,7.072,9.191,11.178,16.2,11.192,7.119.015,14.57-4.308,16.29-11.569,1.838-7.754-3.75-15.72-10.243-19.4a1.682,1.682,0,0,1-.886-1.213,1.707,1.707,0,0,1,.216-1.339l4.26-7.139c.309-.517.595-1.1.943-1.606-.742-.659-2.042-1.633-2.093-1.649a3.178,3.178,0,0,0-2.839.329,1.939,1.939,0,0,1-2.638,0c-2.11-1.649-3.937-1.728-6.021,0a1.932,1.932,0,0,1-2.638,0,3.516,3.516,0,0,0-3.678-.04c-.491.293-.862.982-1.283,1.316.366.509.655,1.118.972,1.65l4.26,7.139a1.891,1.891,0,0,1-.67,2.551c-6.581,3.732-12.283,11.933-10.151,19.779m10.963-4.221a1.866,1.866,0,0,1,0-3.73h2.129l-2.273-2.557c-1.591-1.79,1.039-4.435,2.638-2.637l3.184,3.581,3.184-3.581c1.6-1.8,4.228.849,2.638,2.637l-2.273,2.557h1.822a1.866,1.866,0,0,1,0,3.73H52.476q0,.526.008,1.051h3.478a1.866,1.866,0,0,1,0,3.73H52.513q.008,1.087.017,2.175c.019,2.4-3.711,2.4-3.73,0q-.009-1.087-.017-2.175h-3.87a1.866,1.866,0,0,1,0-3.73h3.841q0-.526-.008-1.051Z" transform="translate(3258.74 431.765)" fill="#fff"/>
      <path id="パス_885" data-name="パス 885" d="M42.565,405.677c-.007.129.016.183,0,0" transform="translate(3255.309 429.856)" fill="#fff"/>
      <path id="パス_886" data-name="パス 886" d="M27.6,427.028c-.693,6.844,3.062,13.249,8.819,16.787,11.847,7.282,30.632,1.112,31.791-13.951.6-7.841-4.413-15.506-10.8-19.812l1.978-3.315c.9-1.5,2.531-3.381,3-5.1.615-2.236-1.946-4.515-3.689-5.442a6.9,6.9,0,0,0-6.465-.075,7.571,7.571,0,0,0-8.747-.016A6.839,6.839,0,0,0,37.459,396c-1.863.87-4.729,3.28-4.079,5.645.45,1.637,1.993,3.406,2.847,4.835l2.136,3.58C32.684,413.873,28.3,420.167,27.6,427.028m14.238-14.749a1.89,1.89,0,0,0,.669-2.551l-4.26-7.139c-.318-.532-.606-1.141-.972-1.65.421-.334.791-1.023,1.283-1.316a3.517,3.517,0,0,1,3.678.04,1.93,1.93,0,0,0,2.638,0c2.083-1.727,3.911-1.649,6.021,0a1.937,1.937,0,0,0,2.637,0,3.181,3.181,0,0,1,2.839-.328c.052.016,1.35.99,2.093,1.649-.349.5-.635,1.089-.943,1.606l-4.26,7.139a1.706,1.706,0,0,0-.216,1.338,1.683,1.683,0,0,0,.885,1.213c6.493,3.682,12.081,11.647,10.243,19.4-1.721,7.261-9.171,11.584-16.29,11.569-7.007-.014-14.276-4.12-16.2-11.192-2.132-7.846,3.57-16.047,10.151-19.779m-4.967-10.745c.016.183-.007.13,0,0m22.08.04c0-.022.008-.038.013-.059.011.029.011.052-.013.059" transform="translate(3261 434)" fill="#323232"/>
      <path id="パス_887" data-name="パス 887" d="M50.765,443.24a1.866,1.866,0,0,0,0,3.73h3.87q.008,1.088.017,2.175c.019,2.4,3.749,2.405,3.73,0q-.008-1.087-.017-2.175h3.448a1.866,1.866,0,0,0,0-3.73H58.335q0-.526-.008-1.051h3.486a1.866,1.866,0,0,0,0-3.73H59.991l2.273-2.557c1.59-1.789-1.039-4.436-2.638-2.637l-3.184,3.582-3.184-3.582c-1.6-1.8-4.229.848-2.638,2.637l2.273,2.557H50.765a1.866,1.866,0,0,0,0,3.73H54.6q0,.526.008,1.051Z" transform="translate(3252.888 419.646)" fill="#35cae9"/>
    </g>
    <rect id="長方形_379" data-name="長方形 379" width="78" height="73" transform="translate(67 12)" fill="none"/>
  </g>
</svg>
