<svg xmlns="http://www.w3.org/2000/svg" width="161" height="161" viewBox="0 0 161 161">
  <g id="pickup_item02" transform="translate(-18.092 -18.092)">
    <ellipse id="楕円形_18" data-name="楕円形 18" cx="80.5" cy="80.5" rx="80.5" ry="80.5" transform="translate(18.092 18.092)" fill="#e8e8e8"/>
    <path id="パス_1147" data-name="パス 1147" d="M-34.736-9.216a13.825,13.825,0,0,1,1.84.1v-1.76a13.825,13.825,0,0,1-1.84.1h-1.1l.96-.72a13.579,13.579,0,0,0-1.984-1.968l-1.248.928a9.149,9.149,0,0,1,1.7,1.76h-2.72v-.9a12.837,12.837,0,0,1,.1-1.76h-1.92a12.111,12.111,0,0,1,.1,1.744v.912H-45.2a13.5,13.5,0,0,1-1.84-.1v1.76a13.409,13.409,0,0,1,1.744-.1h4.432v8.24c0,.432-.112.528-.608.528a11.579,11.579,0,0,1-2.1-.208,5.71,5.71,0,0,1,.432,1.728c.72.048,1.392.08,2.016.08,1.52,0,1.984-.352,1.984-1.52V-3.744c0-.688-.032-1.6-.064-2.336a11.834,11.834,0,0,0,2.1,3.312,15.465,15.465,0,0,0,3.328,2.9,8.044,8.044,0,0,1,1.2-1.648,12.591,12.591,0,0,1-2.752-1.888,11.019,11.019,0,0,1-1.424-1.456A23.486,23.486,0,0,0-34.7-6.672c.784-.832.784-.832.944-.992l-1.472-1.12A11.331,11.331,0,0,1-37.68-6.16a11.239,11.239,0,0,1-1.392-3.056Zm-11.056,1.44a12.813,12.813,0,0,1,2.08,2.848L-42.208-6a17.71,17.71,0,0,0-2.208-2.8Zm4.176,2.56a20.892,20.892,0,0,1-3.008,2,13.463,13.463,0,0,1-2.352,1.088l.848,1.808c.288-.208.5-.336.9-.576a34.421,34.421,0,0,0,4.192-2.72Zm16.544-8.016a10.466,10.466,0,0,1,.064,1.344c0,3.84-.864,6.464-2.928,8.832A10.666,10.666,0,0,1-31.424-.384a4.786,4.786,0,0,1,1.248,1.648A13.5,13.5,0,0,0-27.7-.576a11.14,11.14,0,0,0,2.464-3.072A11.449,11.449,0,0,0-23.984-6.88a12.649,12.649,0,0,0,2.128,4.368,15.575,15.575,0,0,0,4.064,3.776A5.953,5.953,0,0,1-16.544-.512a10.655,10.655,0,0,1-2.48-1.728,10.724,10.724,0,0,1-2.528-3.04,11.485,11.485,0,0,1-1.568-6.3,10.586,10.586,0,0,1,.112-1.648ZM-12.24.848c.176-.032.272-.048.56-.08C-9.056.48-7.568.32-7.2.272-5.472.048-5.344.032-3.12-.4c.3.656.416.928.736,1.76L-.8.336A33.481,33.481,0,0,0-4.4-5.872l-1.5.848A28.393,28.393,0,0,1-3.872-1.872a49.957,49.957,0,0,1-5.216.656,38.2,38.2,0,0,0,2.56-6.9c.112-.368.128-.448.256-.864l-2.032-.5a32.039,32.039,0,0,1-2.736,8.4c-.336.016-.944.032-1.136.032a3.9,3.9,0,0,1-.416-.016Zm3.856-12.5H-12.3a12.424,12.424,0,0,1-1.664-.08c.048.56.064,1.088.064,2.288,0,5.04-.368,7.152-1.616,9.216a8.809,8.809,0,0,1,1.408,1.5c1.536-2.608,2-5.248,2.016-11.248h9.488a13.392,13.392,0,0,1,1.856.08v-1.856a13.281,13.281,0,0,1-1.856.1H-6.576v-.768a3.751,3.751,0,0,1,.08-.944H-8.464a3.865,3.865,0,0,1,.08.912ZM7.3-9.76v2.016H2.64a13.851,13.851,0,0,1-1.76-.1v1.824a15.327,15.327,0,0,1,1.824-.1H13.376a14.491,14.491,0,0,1,1.808.1V-7.84a13.558,13.558,0,0,1-1.824.1h-4.3V-9.76H12.3a12.169,12.169,0,0,1,1.728.1v-1.808a12.111,12.111,0,0,1-1.744.1H9.056v-.544a7.9,7.9,0,0,1,.112-1.5H7.2a7.591,7.591,0,0,1,.1,1.488v.56H5.12c.08-.16.32-.64.7-1.44l-1.856-.5a5.438,5.438,0,0,1-.5,1.344A7.889,7.889,0,0,1,1.04-8.992a6.611,6.611,0,0,1,1.392,1.2A9.88,9.88,0,0,0,4.176-9.76ZM4.48,1.3v-.7h7.184v.7h1.872a12.461,12.461,0,0,1-.1-1.776V-3.456a12.1,12.1,0,0,1,.064-1.52,14.358,14.358,0,0,1-1.584.064H4.256a14.491,14.491,0,0,1-1.6-.064,12.1,12.1,0,0,1,.064,1.52V-.5a13.525,13.525,0,0,1-.1,1.792Zm0-4.608h7.2v2.288H4.48ZM17.3-9.072a20.081,20.081,0,0,1,2.656-.32c3.1-.224,4.1-.32,5.392-.512A7.075,7.075,0,0,0,23.12-8.288a5.571,5.571,0,0,0-1.52,3.76A4.281,4.281,0,0,0,23.888-.672,9.626,9.626,0,0,0,27.632.384c.3.048.336.048.544.1L28.464-1.7c-.16.016-.3.016-.32.016A9.71,9.71,0,0,1,25.76-2.1,2.687,2.687,0,0,1,23.632-4.7c0-1.616,1.2-3.216,3.232-4.272a7.156,7.156,0,0,1,3.168-.864,2.477,2.477,0,0,1,.336.016l-.112-2.032a8.62,8.62,0,0,1-1.648.128c-4.272.208-7.008.352-8.176.416-2.352.16-2.352.16-2.64.16-.08,0-.256,0-.608-.016Zm9.792,1.536a10.8,10.8,0,0,1,1.68,2.384l1.12-.592A10.369,10.369,0,0,0,28.208-8.1Zm4.7.752A9.253,9.253,0,0,0,30.128-9.04l-1.072.56a11.788,11.788,0,0,1,1.632,2.32Zm5.936-1.264a.282.282,0,0,1,.1-.016.735.735,0,0,1,.16.016,2.382,2.382,0,0,1,.272.016c.08,0,.256.016.48.016.752.064,1.392.08,1.984.08.416,0,.8-.016,1.44-.032.064,2.224.08,3.008.128,3.408a3.8,3.8,0,0,0-1.424-.224c-1.936,0-3.3,1.088-3.3,2.64,0,1.632,1.28,2.624,3.376,2.624,1.552,0,2.672-.56,3.04-1.5a2.8,2.8,0,0,0,.128-.9v-.224c.1.064.464.3,1.008.656a5.994,5.994,0,0,1,1.2,1.024L47.088-2.4a3.044,3.044,0,0,1-.448-.272,12.757,12.757,0,0,0-2.512-1.456c-.16-2.688-.16-2.72-.16-3.616V-8.1c.848-.1,1.68-.24,2.224-.352a2.765,2.765,0,0,1,.464-.08l-.064-1.808-.128.032c-.256.1-.256.1-.352.128a16.085,16.085,0,0,1-2.16.384v-.736a15.654,15.654,0,0,1,.112-2.352l-2,.048a4.476,4.476,0,0,1,.048.768c0,.656.016,1.456.016,2.4-.56.032-.912.032-1.472.032a11.531,11.531,0,0,1-2.9-.256Zm4.592,5.12V-2.5a1.343,1.343,0,0,1-.208.864,1.573,1.573,0,0,1-1.3.5c-.9,0-1.472-.4-1.472-.992,0-.656.64-1.056,1.664-1.056A3.349,3.349,0,0,1,42.32-2.928ZM36.064.48a3.135,3.135,0,0,1-.032-.432,13.35,13.35,0,0,1,1.584-4.9L36.288-5.44a3.049,3.049,0,0,1-.192.5c-.16.384-.16.384-.3.72-.08.256-.16.432-.192.544-.112.288-.112.288-.192.464h-.016a2.723,2.723,0,0,0,.016-.336v-.256c0-.256,0-.256.016-.832a25.715,25.715,0,0,1,1.28-8.032l-2.16-.224v.064a8.589,8.589,0,0,1-.176,1.184c-.352,1.808-.352,1.808-.432,2.288a28.6,28.6,0,0,0-.3,4.24,30.342,30.342,0,0,0,.432,5.088,5.84,5.84,0,0,1,.08.624ZM-49.072,9.768a10.466,10.466,0,0,1,.064,1.344c0,3.84-.864,6.464-2.928,8.832a10.666,10.666,0,0,1-3.488,2.672,4.786,4.786,0,0,1,1.248,1.648,13.5,13.5,0,0,0,2.48-1.84,11.14,11.14,0,0,0,2.464-3.072,11.449,11.449,0,0,0,1.248-3.232,12.649,12.649,0,0,0,2.128,4.368,15.575,15.575,0,0,0,4.064,3.776,5.953,5.953,0,0,1,1.248-1.776,10.655,10.655,0,0,1-2.48-1.728,10.724,10.724,0,0,1-2.528-3.04,11.485,11.485,0,0,1-1.568-6.3,10.586,10.586,0,0,1,.112-1.648Zm20.48,4.432A14.965,14.965,0,0,1-26.4,19.4l1.824-.912a14.881,14.881,0,0,0-2.4-5.088Zm-4.7-3.52a3.723,3.723,0,0,1,.128-.5l-2.08-.208v.288a22.506,22.506,0,0,1-.416,3.232,32.861,32.861,0,0,1-3.408.336l.192,1.888a6.57,6.57,0,0,1,.656-.16l1.456-.24c.512-.1.512-.1.752-.128a23.534,23.534,0,0,1-3.216,7.536l1.856,1.024a34.351,34.351,0,0,0,3.264-8.7c.368-.032.624-.048.96-.048,1.232,0,1.6.432,1.6,1.9a14.217,14.217,0,0,1-.416,3.648c-.24.784-.5,1.088-.96,1.088A6.7,6.7,0,0,1-35.264,21a6.01,6.01,0,0,1,.16,1.36c0,.16-.016.4-.032.7a7.418,7.418,0,0,0,2.464.48,2.026,2.026,0,0,0,1.776-.72c.768-.88,1.232-3.072,1.232-5.824a3.881,3.881,0,0,0-.752-2.832,3.1,3.1,0,0,0-2.368-.848c-.288,0-.512.016-.992.032.048-.208.048-.208.1-.48.16-.864.272-1.52.352-1.984Zm3.712.112a10.8,10.8,0,0,1,1.68,2.384l1.12-.592a10.369,10.369,0,0,0-1.68-2.352Zm4.7.752a9.253,9.253,0,0,0-1.664-2.256l-1.072.56a11.789,11.789,0,0,1,1.632,2.32Zm10.144,4.608h3.072a11.309,11.309,0,0,1,1.52.064V14.9a9.471,9.471,0,0,1-1.52.08h-3.072v-.768h3.072a9.308,9.308,0,0,1,1.52.064V12.968a9.471,9.471,0,0,1-1.52.08h-3.072V12.28h3.888a10.041,10.041,0,0,1,1.328.064V10.856a10.277,10.277,0,0,1-1.568.08h-3.44A15.754,15.754,0,0,0-13.7,9.544L-15.5,9.32a6.475,6.475,0,0,1-.832,1.616H-19.2a14.839,14.839,0,0,0,.88-1.344l-1.856-.3a5.19,5.19,0,0,1-.512,1.04,10.178,10.178,0,0,1-2.928,3.088,6.3,6.3,0,0,1,.832,1.568,8.83,8.83,0,0,0,1.472-1.392c-.032.448-.048.88-.048,1.392v1.984a9.717,9.717,0,0,1-.064,1.28c.384-.032.736-.048,1.36-.048H-16.9v.848h-4.5a11.8,11.8,0,0,1-1.808-.08v1.616a11.343,11.343,0,0,1,1.808-.1H-18.3a7.135,7.135,0,0,1-1.728,1.024,12.631,12.631,0,0,1-3.456,1.024,7.379,7.379,0,0,1,.9,1.6,14.785,14.785,0,0,0,2.848-.992,9.19,9.19,0,0,0,2.9-1.952c-.032.384-.048.688-.048,1.056v.944a4.545,4.545,0,0,1-.1,1.136h1.9a4.246,4.246,0,0,1-.1-1.152v-.928c0-.176-.016-.592-.048-1.056a9.534,9.534,0,0,0,2.592,1.792,15.9,15.9,0,0,0,3.2,1.168c.064-.128.112-.24.144-.3.1-.224.16-.368.176-.4a5.025,5.025,0,0,1,.592-.944,13.575,13.575,0,0,1-5.3-2.016h3.184a11.563,11.563,0,0,1,1.824.1V18.968a12.053,12.053,0,0,1-1.824.08h-4.544V18.2h4.224a9.694,9.694,0,0,1,1.536.08V16.888a12.856,12.856,0,0,1-1.552.064h-3.76Zm-1.664,0v.8h-3.3v-.8Zm0-1.168h-3.3v-.768h3.3Zm0-1.936h-3.3V12.28h3.3ZM6.384,21.3c-.224-.128-.3-.192-.576-.368A14.311,14.311,0,0,0,1.424,18.68c-.016-.384-.016-.384-.064-1.936.624-.032.864-.048,1.088-.064,1.2-.112,1.92-.192,2.16-.224.368-.048.768-.1,1.04-.112L5.6,14.584a11.841,11.841,0,0,1-1.984.352c-1.472.16-1.472.16-2.272.208-.016-.992-.016-1.184-.032-1.584,1.408-.08,2.032-.128,3.44-.32A10.008,10.008,0,0,1,6.016,13.1l-.08-1.776a21.647,21.647,0,0,1-4.608.608A9.919,9.919,0,0,1,1.44,9.976H-.592a11.416,11.416,0,0,1,.08,2.016c-.4.016-.944.032-1.2.032a21.039,21.039,0,0,1-4.3-.336l-.016,1.776h.256c.048,0,.176,0,.352.016,1.072.08,3.136.16,3.92.16.24,0,.5,0,1.008-.016.016.912.016,1.456.016,1.6-.448.016-.992.032-1.312.032a20.632,20.632,0,0,1-3.728-.272l-.032,1.728c.24,0,.4,0,.608.016,1.328.1,1.92.112,2.9.112.336,0,.832-.016,1.6-.032.016.64.016.64.032.864v.352a3.083,3.083,0,0,1,.016.384,8.359,8.359,0,0,0-1.072-.064c-2.688,0-4.272,1.024-4.272,2.768,0,1.584,1.344,2.5,3.68,2.5a4.26,4.26,0,0,0,2.64-.688,2.5,2.5,0,0,0,.9-2.16v-.176a7.12,7.12,0,0,1,.864.4A10.8,10.8,0,0,1,5.3,23.176ZM-.368,20.072v.384A2.028,2.028,0,0,1-.56,21.48a1.661,1.661,0,0,1-1.392.512c-1.136,0-1.824-.368-1.824-.96,0-.688.784-1.1,2.08-1.1A5.616,5.616,0,0,1-.368,20.072Zm12.96-8.512a28.96,28.96,0,0,0,6.24,2l.656-1.84A24,24,0,0,1,13.52,9.944Zm-1.28,1.408a6.53,6.53,0,0,1-.1.928c-.288,1.888-.544,3.664-.672,4.656-.08.608-.08.672-.128.96l2.016.064a3.483,3.483,0,0,1,.72-.688,7.282,7.282,0,0,1,3.984-1.168c1.7,0,2.7.64,2.7,1.712,0,1.36-1.568,2.3-3.824,2.3a12.917,12.917,0,0,1-4.3-.8A7.1,7.1,0,0,1,11.952,23a14.712,14.712,0,0,0,4.08.56,6.912,6.912,0,0,0,4.224-1.088A3.9,3.9,0,0,0,21.9,19.384c0-2.048-1.792-3.392-4.512-3.392a7.583,7.583,0,0,0-4.848,1.52l-.032-.032c.048-.24.048-.24.08-.464a33.856,33.856,0,0,1,.72-3.936ZM28.88,9.736a16.346,16.346,0,0,1-.48,2.784c-.352.016-.624.016-.816.016a11.109,11.109,0,0,1-2.16-.144v1.824l.848.016c.336.016.432.016.64.016.192,0,.288,0,1.008-.016a24.615,24.615,0,0,1-1.5,3.776,14.564,14.564,0,0,1-1.552,2.56l1.84,1.024c.1-.192.1-.192.3-.576.608-1.12.752-1.408,1.12-2.192a30.712,30.712,0,0,0,1.76-4.64c.992-.08,1.968-.192,2.544-.288a3.12,3.12,0,0,1,.512-.08l-.048-1.84a13.724,13.724,0,0,1-2.56.448c.176-.7.256-1.024.336-1.408a8.01,8.01,0,0,1,.256-1.072ZM39.12,13.9a25.257,25.257,0,0,0-4.512-2.144l-.96,1.552a19.583,19.583,0,0,1,4.608,2.24Zm-.064,7.216a2.864,2.864,0,0,1-.24-.224,5.9,5.9,0,0,0-.56-.432,10,10,0,0,0-2.528-1.472,16.988,16.988,0,0,1-.144-2.192,5.333,5.333,0,0,1,.192-1.616l-1.856-.1a8.487,8.487,0,0,0-.128,1.616c0,.48.032,1.1.08,1.84a7.947,7.947,0,0,0-1.488-.144c-2.032,0-3.456,1.136-3.456,2.752,0,1.632,1.376,2.688,3.488,2.688a3.694,3.694,0,0,0,2.656-.9,2.557,2.557,0,0,0,.688-1.7c0-.064-.016-.176-.032-.32A9.677,9.677,0,0,1,38.176,22.9Zm-5.12-.88s.032.384.032.544c0,.9-.528,1.344-1.616,1.344-.992,0-1.568-.384-1.568-1.04,0-.672.672-1.1,1.712-1.1A4.033,4.033,0,0,1,33.936,20.232Zm7.776-8.992a7.646,7.646,0,0,1,.064,1.024c.064,4.432.352,6.752,1.008,8.352.64,1.536,1.5,2.32,2.576,2.32,1.36,0,2.288-1.3,3.12-4.416a7.9,7.9,0,0,1-1.6-1.456,11.8,11.8,0,0,1-.848,2.9c-.192.448-.416.688-.656.688-.512,0-1.024-1.024-1.3-2.688a29.941,29.941,0,0,1-.3-4.288A18.6,18.6,0,0,1,43.9,11.24Zm8.08,1.52A13.966,13.966,0,0,1,52.064,16.7a16.22,16.22,0,0,1,1.024,4.624l1.984-.752a15.952,15.952,0,0,0-3.6-8.608Z" transform="translate(99.241 95.825)" fill="#272525"/>
  </g>
</svg>
