<svg xmlns="http://www.w3.org/2000/svg" xmlns:xlink="http://www.w3.org/1999/xlink" width="183" height="183" viewBox="0 0 183 183">
  <defs>
    <clipPath id="clip-path">
      <rect id="長方形_383" data-name="長方形 383" width="183" height="183" transform="translate(337 3820.038)" fill="#fff" stroke="#707070" stroke-width="1" opacity="0.619"/>
    </clipPath>
    <clipPath id="clip-path-2">
      <rect id="長方形_324" data-name="長方形 324" width="172.83" height="176.153" fill="none"/>
    </clipPath>
  </defs>
  <g id="step3_illust" transform="translate(-337 -3820.038)" clip-path="url(#clip-path)">
    <g id="グループ_681" data-name="グループ 681" transform="translate(-3987.088 174.934)">
      <path id="前面オブジェクトで型抜き_2" data-name="前面オブジェクトで型抜き 2" d="M8.008,74.026h0L6.189,63.716l.934-7.929.886-1.915L0,40.982l.942-29.53,2.681-6.9L16.757,0l-.486,3.593,8.892,25.769,1.709-2.252L35.645,1.215h3.143L50.14,7.69l.989,31.494-.989,3.425-6.47,10.207,2.817,13.44-5.329,7.769a13.01,13.01,0,0,0-1.73-1.82A12.448,12.448,0,0,0,34.7,69.544a15.971,15.971,0,0,0-4.25-.5,30.262,30.262,0,0,0-5.287.5,18.318,18.318,0,0,0-5.835-1.036,12.117,12.117,0,0,0-3.057.369,16.911,16.911,0,0,0-5.739,2.994,24.991,24.991,0,0,0-2.523,2.154ZM21.091,53.268a14.848,14.848,0,0,0-5.978,1.255,8.415,8.415,0,0,0-3.35,3.844l6.3,5.7L21.1,66.705l2.825.824H28.76l4.55-4.2,4.1-6.032a42.317,42.317,0,0,0-4.658-5.083,2.258,2.258,0,0,0-1.325-.547,1.235,1.235,0,0,0-1.02.547l-6.054,3.542L21.1,53.268h-.011Z" transform="translate(4429.819 3689.509)" fill="#e7e7e7"/>
      <path id="パス_1139" data-name="パス 1139" d="M-739.37,3133.076a75.652,75.652,0,0,0,2.214,18.252,100.777,100.777,0,0,0,7.394,18.645s3.226-7.785,6.017-17.01,5.146-19.888,5.146-19.888l11.752,4.527,4.68,10.626,4.292,28.25-9.784,16.973-10.94-5.263-5.146,4.22-2.368,4.006,4.155,3.007h3.359l4.3-1.2h2.621l2.418-1.8,2.412,6.306-4.1,49.671-5.813,2.147-5.2-5.1-.845-34.285v-4.334h-14.352l-1.959,2.326,1.959,34.048a15.023,15.023,0,0,1-5.148,5.2,22.277,22.277,0,0,1-7.994,2.147l-4.348-46.767,2.236-3.717-.913-2.131,1.674-2.5h9.344l1.774,1.357,3.374-1.357,1.615-4.343-3.574-1.626-3.189-4.181-11.019,4.181h-2.769l-7.575-18.949,7.575-34.777a5.909,5.909,0,0,1,4.443-3.837C-748.268,3135.364-739.37,3133.076-739.37,3133.076Z" transform="translate(5113.051 554.07)" fill="#e7e7e7"/>
      <g id="グループ_681-2" data-name="グループ 681" transform="translate(4329.396 3651.561)">
        <g id="グループ_621" data-name="グループ 621" clip-path="url(#clip-path-2)">
          <path id="パス_655" data-name="パス 655" d="M17.159,365.1a21,21,0,0,0-1.48-3.114.8.8,0,0,1,.031.7l-1.678,4.484c-.428,1.144-2.275.645-1.843-.508l1.679-4.484a1.033,1.033,0,0,1,1.787-.232c-.474-.818-.99-1.6-1.532-2.38l-2.156,3.812a.968.968,0,0,1,.173,1.1c-.629,1.346-1.251,2.7-1.875,4.044,1.466.042,2.936-.009,4.4.115a.975.975,0,0,1,.549.216l1.548-2.976a.9.9,0,0,1,.171-.33.8.8,0,0,1,.314-.218c-.027-.075-.058-.146-.086-.22" transform="translate(-6.994 -245.005)" fill="#e7e7e7"/>
          <path id="パス_656" data-name="パス 656" d="M157.587,281.346l-3.778,4.282a34.43,34.43,0,0,1,5.761.4.746.746,0,0,1,.68.653.948.948,0,0,1,.092-.056c-.928-1.759-2-3.428-2.755-5.273" transform="translate(-104.805 -191.708)" fill="#fff"/>
          <path id="パス_657" data-name="パス 657" d="M157.643,358.324a11.241,11.241,0,0,1-1.178-2.1.881.881,0,0,1-.726.359l-10.371.157a.862.862,0,0,1-.9-.719c-.406.777-.865,1.519-1.308,2.2a.914.914,0,0,1-.877.433c.006.248.014.5.021.745h2.1a.969.969,0,0,1,.7-1.6h10.477a.968.968,0,0,1,.7,1.6h.915c.129-.334.284-.663.412-.992l.032-.082" transform="translate(-96.953 -242.592)" fill="#35cae9"/>
          <path id="パス_658" data-name="パス 658" d="M204.652,488.159c-2.023.45-4.415-.433-6.416-1.673-.118,1.12-.146,2.246-.308,3.361-.063.433-.132.836-.178,1.223a.967.967,0,0,1,.739.621c1.1,2.869.095,6.026.64,8.977a4.545,4.545,0,0,0,.2.746c2.853-2.088,7.435-3.284,10.643-1.511a10.368,10.368,0,0,0-1.3-3.4c-.325-.514-.647-1.008-.954-1.506a.805.805,0,0,1-1.092.531,8.223,8.223,0,0,0-5.64.287c-1.085.583-2.049-1.068-.965-1.651a10.1,10.1,0,0,1,6.922-.541,11,11,0,0,1-.631-1.5c-.054-.161-.1-.324-.15-.487a.907.907,0,0,1-1.171.987,4.108,4.108,0,0,0-1.094-.275,7.212,7.212,0,0,0-1.448.488.962.962,0,0,1-1.176-.668.987.987,0,0,1,.668-1.176,7.6,7.6,0,0,1,1.505-.508,4.458,4.458,0,0,0-1.389.41.962.962,0,0,1-1.176-.667.986.986,0,0,1,.667-1.176,4.022,4.022,0,0,1,3.624-.054.943.943,0,0,1-.06,1.659c.129.04.258.082.386.123a.914.914,0,0,1,.55.447,18.888,18.888,0,0,1-.586-4.073.933.933,0,0,1,.076-.422,2.709,2.709,0,0,1-.324.1.879.879,0,0,1-.566,1.323" transform="translate(-134.746 -331.49)" fill="#35cae9"/>
          <path id="パス_659" data-name="パス 659" d="M101.757,493.231a.8.8,0,0,1,.788-.385c1.031.071,2.044.3,3.075.371,1.222.084,1.228,2,0,1.912-.282-.02-.563-.052-.843-.088a.95.95,0,0,1-1.089,1.375c-.537-.132-1.081-.236-1.618-.368a.856.856,0,0,1-.333-.166l-.477.877a7.54,7.54,0,0,1,6.669,1.988c.846.893-.5,2.247-1.352,1.352a5.58,5.58,0,0,0-5.683-1.279.976.976,0,0,1-.769.025l-.6,1.111c-.246.452-.505.9-.766,1.357,3.094-.149,5.757,2.186,7.747,4.548a4.07,4.07,0,0,0,1.379-2.042c.191-.67.329-1.308.483-1.932a1.01,1.01,0,0,1,.049-.195,9.819,9.819,0,0,1,.933-2.474,8.031,8.031,0,0,0,1.222-5.291,17.752,17.752,0,0,0-.951-3.636,15.181,15.181,0,0,1-6.683,2.037.825.825,0,0,1-.916-.862,3.41,3.41,0,0,1-.49-.061c-.038,1.051-1.128,1.889-1.1,2.878l.334-.613a.838.838,0,0,1,.992-.439" transform="translate(-67.291 -334.083)" fill="#35cae9"/>
          <path id="パス_660" data-name="パス 660" d="M39.806,341.663l1.114-2.09a.828.828,0,0,1,.745-.475c-.189-.367-.622-.383-1.053-.457,0,.005,0,.01,0,.015a.967.967,0,0,1-.956.956H38.118a.917.917,0,0,1-.421-.1,23.474,23.474,0,0,1,1.914,4.113l.411-.791a.921.921,0,0,1-.216-1.167" transform="translate(-25.687 -230.749)" fill="#e7e7e7"/>
          <path id="パス_661" data-name="パス 661" d="M37.4,373.121a.96.96,0,0,1-.83-.9,147.5,147.5,0,0,0-3.313-20.623.9.9,0,0,1-1.341.062l-.412.791c.245.685.463,1.378.651,2.073,0,.018,0,.034.009.052a.943.943,0,0,1,1.226.34,5.679,5.679,0,0,1,.9,3.757,1.269,1.269,0,0,1-.184.534.914.914,0,0,1,.18,1.134,32.769,32.769,0,0,1-5.449,7.4c-.862.881-2.212-.472-1.352-1.352.121-.125.238-.253.357-.379a1,1,0,0,1-.225-.361,8.962,8.962,0,0,1-.294-5.137c.006-.027.018-.047.025-.073l-1.548,2.976a1.06,1.06,0,0,1,.159,1.428v.006l.326,4.033Q27.34,382.01,28.4,395.136a60.677,60.677,0,0,0,8.05-18.046.882.882,0,0,1,1.236-.608c-.108-1.111-.26-2.253-.291-3.362" transform="translate(-17.575 -239.576)" fill="#e7e7e7"/>
          <path id="パス_662" data-name="パス 662" d="M150.655,6.971c-5.005-2.581-10.694-.124-13.073,4.78-1.241,2.558-.845,4.932-.357,7.483a7.741,7.741,0,0,0,.278-1.4.945.945,0,0,1,.435-.739,1.01,1.01,0,0,1,.294-.341c2.8-2.079,5.668-4.067,8.553-6.025.761-.517,1.885.542,1.308,1.308q-.826,1.094-1.59,2.237a11.822,11.822,0,0,0,4.936-3.14.949.949,0,0,1,1.608.579.974.974,0,0,1,.24.383,20.532,20.532,0,0,0,3.709,6.595.96.96,0,0,1,.235.618.939.939,0,0,1,.034.574,1.834,1.834,0,0,0,.021.913,22.842,22.842,0,0,0,.619-5.3c-.006-2.531-.873-7.055-4-7.453a1.055,1.055,0,0,1-.658-1.72c-.381-.106-.763-.2-1.145-.3a1,1,0,0,1-1.442.949" transform="translate(-93.184 -4.041)" fill="#35cae9"/>
          <path id="パス_663" data-name="パス 663" d="M35.854,383.7a7.014,7.014,0,0,0,.2,2.6l.161-.2a.948.948,0,0,1-.126-.314,13.489,13.489,0,0,1-.24-2.094" transform="translate(-24.402 -261.453)" fill="#35cae9"/>
          <path id="パス_664" data-name="パス 664" d="M144.675,54.336a7.233,7.233,0,0,0,5.974-2.148c2.045-1.934,2.523-4.229,2.927-6.906a.768.768,0,0,1,.977-.668,1.049,1.049,0,0,1,.218-.037c1.922-.126,3.544-4.466,1.139-4.828a1.03,1.03,0,0,1-.127-.032.85.85,0,0,1-.733-.113,3.813,3.813,0,0,1-1.749-3.825,22.954,22.954,0,0,1-3.6-6.229,13.889,13.889,0,0,1-7.056,3.216.968.968,0,0,1-1.079-1.4c.018-.032.038-.062.056-.094q-2.182,1.527-4.325,3.109c-.176,1.053-.621,2.059-.708,3.119a1.018,1.018,0,0,1-1.319.875.936.936,0,0,1-.292.015c-1.03-.113-1.316,1.537-1.229,2.334a4.948,4.948,0,0,0,1.509,2.717,1.068,1.068,0,0,1,1.684.7c.208,1.55.416,4.277,1.459,5.875,1.527,2.342,3.383,4.039,6.273,4.327m-3.165-14.89a.956.956,0,0,1,0-1.912.956.956,0,0,1,0,1.912m8.287,0a.956.956,0,0,1,0-1.912.956.956,0,0,1,0,1.912m-1.992-4.361a5.751,5.751,0,0,1,4.264.366c1.092.571.124,2.22-.965,1.651a3.768,3.768,0,0,0-2.791-.174.957.957,0,0,1-.508-1.843M144.674,44a.981.981,0,0,1,.873-.588h.265a.993.993,0,0,1,.676.28.966.966,0,0,1,.28.676.722.722,0,0,1-.083.368.861.861,0,0,1-.5.505.722.722,0,0,1-.368.082h-.265a.993.993,0,0,1-.676-.28.966.966,0,0,1-.28-.676.722.722,0,0,1,.083-.368m2.281,3.664a.98.98,0,0,1,1.308.343.963.963,0,0,1-.343,1.308,5.456,5.456,0,0,1-4.537,0,.962.962,0,0,1-.343-1.308.99.99,0,0,1,1.308-.343,3.292,3.292,0,0,0,2.607,0m-8.067-12.293a6.54,6.54,0,0,1,4.556-.285c1.172.366.669,2.211-.508,1.843a4.5,4.5,0,0,0-3.082.092.98.98,0,0,1-1.308-.343.963.963,0,0,1,.343-1.308" transform="translate(-91.127 -20.135)" fill="#fff"/>
          <path id="パス_665" data-name="パス 665" d="M92.991,531.2c-.242.477-.469.959-.663,1.45-.985,2.491.952,3.795,3.295,3.42a18.556,18.556,0,0,0,4.453-1.392q.114-.051.227-.1c-1.871-2.183-4.317-4.377-7.312-3.373" transform="translate(-62.733 -361.787)" fill="#35cae9"/>
          <path id="パス_666" data-name="パス 666" d="M12.723,422.155q-1.152-14.249-2.3-28.5-.372-.012-.745-.018.021,1.512.042,3.024l.356,25.349a.956.956,0,0,1-1.912,0q-.026-1.838-.051-3.676l-.347-24.717c-.4-.006-.791-.015-1.186-.035,0,.01,0,.018,0,.029q-.28,11.6-.559,23.2c-.045,1.859-.048,3.724-.163,5.581a3.9,3.9,0,0,0,.158,2.2c.427.687,1.283.709,2.034.715,1.647.012,3.276-.118,4.921-.1l-.247-3.049" transform="translate(-3.938 -268.187)" fill="#e7e7e7"/>
          <path id="パス_667" data-name="パス 667" d="M27.566,343.108l-1.923,3.4a15.293,15.293,0,0,1,1.233,1.576,25.2,25.2,0,0,1,1.918,3.585l1.357-2.608a22.683,22.683,0,0,0-2.585-5.952" transform="translate(-17.473 -233.793)" fill="#e7e7e7"/>
          <path id="パス_668" data-name="パス 668" d="M39.006,365.617a4.028,4.028,0,0,0-.635-2.793.967.967,0,0,1-.119-.264.917.917,0,0,1-1.308-.585c-.017-.062-.036-.124-.054-.186L35.533,364.4q.393.9.731,1.816a1.02,1.02,0,0,1,.28.095c.962.5,1.045,1.634,1.09,2.706q.877-1.3,1.629-2.7c.007-.012.015-.02.022-.032a.794.794,0,0,1-.279-.671" transform="translate(-24.212 -246.523)" fill="#e7e7e7"/>
          <path id="パス_669" data-name="パス 669" d="M199.018,110.807c-.166-.081-.334-.158-.5-.241a.878.878,0,0,1-.372-.341l.538.979a.9.9,0,0,1,.333-.4" transform="translate(-135.016 -75.107)" fill="#fff"/>
          <path id="パス_670" data-name="パス 670" d="M181.525,132.033a.969.969,0,0,1-1.651,0L178.9,130.7a13.208,13.208,0,0,1-.985,2.427,1.051,1.051,0,0,1,.042.128,90.3,90.3,0,0,1,2.139,12.235c.166-.576.327-1.155.478-1.738,1.013-3.916,1.913-7.862,2.743-11.82.306-1.46.656-2.947.944-4.442l-2.736,4.547" transform="translate(-121.229 -86.869)" fill="#fff"/>
          <path id="パス_671" data-name="パス 671" d="M164.364,161.732A73.786,73.786,0,0,0,162.28,148.6l-.9.021a36.27,36.27,0,0,0-1.931,6.826c-.538,2.319-1,4.655-1.559,6.97a.849.849,0,0,1-.426.579,55.645,55.645,0,0,0,3.761,10.088c.562-1.27,1.146-2.529,1.641-3.786.869-2.208,1.7-4.414,2.435-6.652a.939.939,0,0,1-.938-.918" transform="translate(-107.296 -101.258)" fill="#35cae9"/>
          <path id="パス_672" data-name="パス 672" d="M178.466,116.025,181,119.5l2.158-3.586a.972.972,0,0,1,1.69.087q.049-.294.092-.589a.856.856,0,0,1-.564-.447l-1.45-2.637-4.457,3.7" transform="translate(-121.606 -76.538)" fill="#fff"/>
          <path id="パス_673" data-name="パス 673" d="M157.088,110.573l5.552-4.609c0-.008-.008-.015-.011-.023-.021-.055-.035-.114-.054-.17a9.32,9.32,0,0,1-12.409-.349c0,.175-.014.35-.022.526l6.189,4.476a.979.979,0,0,1,.362.481c.039,0,.082.011.128.019a.9.9,0,0,1,.265-.351" transform="translate(-102.307 -71.834)" fill="#fff"/>
          <path id="パス_674" data-name="パス 674" d="M166.613,122.651c-.046-.008-.088-.015-.128-.019a1.079,1.079,0,0,1-.5,1.269l-1.47,1.827a.947.947,0,0,1,.34.48l.931,2.817,1.277-.03c.011-.023.017-.045.03-.068a15.372,15.372,0,0,0,1.2-3.248,1.049,1.049,0,0,1,.086-.207l-1.243-1.7a.921.921,0,0,1-.516-1.117" transform="translate(-112.098 -83.561)" fill="#35cae9"/>
          <path id="パス_675" data-name="パス 675" d="M144.682,112.363l-1.023,2.571a1.027,1.027,0,0,1-.185.3c.009.138.021.277.031.414a.933.933,0,0,1,1.45.2l2.164,3.651,2.734-3.4-5.17-3.739" transform="translate(-97.762 -76.564)" fill="#fff"/>
          <path id="パス_676" data-name="パス 676" d="M137.776,309.281a1.536,1.536,0,0,0,.231-1.057c-.141-.487-.085-.327-.614-.337a6.32,6.32,0,0,1-.716-.063,6.12,6.12,0,0,1,.2,1.412c0,1.563-1.489,2.278-2.889,2.242,0,.008-.005.017-.009.025a.974.974,0,0,1,.372.323c.755,1.091,3.166-1.924,3.428-2.545" transform="translate(-91.291 -209.751)" fill="#fff"/>
          <path id="パス_677" data-name="パス 677" d="M187.934,309.711a3.184,3.184,0,0,1-1.883-.865,1.594,1.594,0,0,0-.646.782c-.062.426.817.748,1.175.922.456.221.924.419,1.385.628a5.446,5.446,0,0,0,1.765.393,2.629,2.629,0,0,1-1.8-1.86" transform="translate(-126.332 -210.447)" fill="#fff"/>
          <path id="パス_678" data-name="パス 678" d="M150.327,134.2a1.016,1.016,0,0,1-.088-.294.989.989,0,0,1-.177-.322l-.828-2.5-1.039,1.292a.76.76,0,0,1-.763.309.877.877,0,0,1-.99-.432l-2.448-4.132a84.286,84.286,0,0,0,2.361,13.618c.338,1.3.672,2.611,1.016,3.929.79-3.853,1.415-7.888,2.956-11.464" transform="translate(-98.117 -87.296)" fill="#fff"/>
          <path id="パス_679" data-name="パス 679" d="M207.623,534.772c1.848.917,4.3,2.147,6.356,1.15A3.371,3.371,0,0,0,215.8,533.1a.989.989,0,0,1-.382-.214c-2.392-2.122-6.983-.834-9.294.945a7.212,7.212,0,0,0,1.5.94" transform="translate(-140.454 -362.356)" fill="#35cae9"/>
          <path id="パス_680" data-name="パス 680" d="M204.285,292.324a.763.763,0,0,1-.779.122.881.881,0,0,1-.8-1.163c.141-.443-.252-.7-.628-.789a2.947,2.947,0,0,0-.633.027.476.476,0,0,1-.244.068.97.97,0,0,1-1.7-.31c-.212-1.051-.908-.96-1.85-.515a.967.967,0,0,1-1.079-.15.833.833,0,0,1-.616-.654c-.393-1.645-2,.732-2.351,1.133s-3.5,3.933-1.24,3.765c.666-1.24,1.911-2.123,2.562-3.383.566-1.094,2.215-.126,1.65.965a14.766,14.766,0,0,1-1.912,2.519c-.355.426-1.223,1.34-.377,1.8.66.356,1.1-.423,1.369-.856a32.038,32.038,0,0,1,2.7-3.438c.789-.946,2.134.413,1.352,1.352-.685.821-1.383,1.639-2.021,2.5-.262.352-.5.711-.746,1.041,0,.005.006.009.008.014a1.086,1.086,0,0,0,1.177.563c.414-.108.833-.783,1.1-1.1a14,14,0,0,0,1.89-2.836c.538-1.107,2.186-.137,1.651.965a12.835,12.835,0,0,1-1.167,1.915.952.952,0,0,1-.112.528c-.239.454.4.663.769.508.614-.258,1.193-1.457,1.615-1.993a10.029,10.029,0,0,0,1.247-2.065c.328-.7-.195-1-.833-.526" transform="translate(-130.525 -196.507)" fill="#fff"/>
          <path id="パス_681" data-name="パス 681" d="M137.075,517.3a2.17,2.17,0,0,0,.9-1.794c0-.019,0-.038,0-.056-.267.618-.583,1.22-.9,1.85" transform="translate(-93.403 -351.224)" fill="#35cae9"/>
          <path id="パス_682" data-name="パス 682" d="M106.587,297.93q-.553-1.266-1.141-2.518c-.519-1.109,1.13-2.078,1.651-.965a35.816,35.816,0,0,1,1.974,4.454c1.22.065,1.083-.426.787-1.4-.175-.575-.393-1.137-.575-1.71a26.847,26.847,0,0,0-.942-2.532c-.157-.363-.377-1.041-.878-1.083-.215-.018-.775.328-.8.576a.98.98,0,0,1-.382.685.872.872,0,0,1-1.191.231c-.574-.345-1.625-.5-1.891.332a.969.969,0,0,1-1.6.422c-.642-.558-1.6.02-1.885.664a.932.932,0,0,1-.825.473,2.2,2.2,0,0,0-.782.041c-.989.415-.487,1.032-.17,1.624.368.686.817,1.362,1.243,2.013.272.415.561,1.057,1.118,1.129.617.079.6-.127.486-.648-.179-.824-1.06-1.674-1.456-2.419-.578-1.087,1.073-2.051,1.651-.965.527.992,1.782,2.45,1.925,3.781.509.083,1.54.3,1.244-.537a5.572,5.572,0,0,0-.606-.942l-1.5-2.307c-.674-1.035.982-1.992,1.651-.965.572.879,1.149,1.755,1.717,2.636a3.308,3.308,0,0,1,.767,2.161c.606.368,1.253.377,1.1-.544a7.993,7.993,0,0,0-.688-1.688" transform="translate(-66.452 -199.088)" fill="#fff"/>
          <path id="パス_683" data-name="パス 683" d="M88.454,301.276a1.109,1.109,0,0,0,.169-.088c-.061-.1-.116-.213-.169-.326Z" transform="translate(-60.272 -205.007)" fill="#323232"/>
          <path id="パス_684" data-name="パス 684" d="M70.959,196.738q-2.6-5.7-4.962-11.506a30.225,30.225,0,0,1-2.061-5.5c-.357-1.95.32-4,.667-5.908,1.406-7.725,3.048-15.412,4.331-23.159a1.047,1.047,0,0,0-1.351-1.145l-.391,1.222.391-1.222a.763.763,0,0,0-.493.637c-1.37,8.275-3,16.545-4.648,24.768a13.863,13.863,0,0,0-.388,5.193,32.757,32.757,0,0,0,2.215,5.9q2.39,5.9,5.04,11.68a.779.779,0,0,0,1.073.418v-.414a4.007,4.007,0,0,1-.313-1.034,4.007,4.007,0,0,0,.313,1.034v0c.052.113.108.222.168.326a1.011,1.011,0,0,0,.41-1.295" transform="translate(-42.2 -101.852)" fill="#323232"/>
          <path id="パス_685" data-name="パス 685" d="M76.2,233.618c-1.042.649-.083,2.3.965,1.651a6.409,6.409,0,0,1,4.811-.879c1.2.254,1.713-1.588.508-1.843a8.4,8.4,0,0,0-6.284,1.071" transform="translate(-51.616 -158.322)" fill="#323232"/>
          <path id="パス_686" data-name="パス 686" d="M100.689,183.382c-3-9.758-3.536-20.04-5.22-30.058-.2-1.211-2.046-.7-1.843.508,1.685,10.018,2.223,20.3,5.22,30.058.36,1.172,2.206.673,1.843-.508" transform="translate(-63.786 -104.003)" fill="#323232"/>
          <path id="パス_687" data-name="パス 687" d="M106.58,258.239c.413,1.149,2.261.653,1.843-.508l-4.132-11.488c-.413-1.149-2.261-.653-1.843.508l4.132,11.488" transform="translate(-69.767 -167.345)" fill="#323232"/>
          <path id="パス_688" data-name="パス 688" d="M157.883,304.476c.466,3.787,3.018,7.111,3.481,10.879.148,1.205,2.062,1.22,1.912,0-.465-3.787-3.018-7.111-3.481-10.879-.148-1.205-2.062-1.22-1.912,0" transform="translate(-107.575 -206.849)" fill="#323232"/>
          <path id="パス_689" data-name="パス 689" d="M30.652,378.653l.172-.33a.894.894,0,0,0-.172.33" transform="translate(-20.886 -257.788)" fill="#323232"/>
          <path id="パス_690" data-name="パス 690" d="M20.112,360.849c.062.642.11,1.274.11,1.882,0-.608-.048-1.24-.11-1.882a.882.882,0,0,0-1.236.608,60.676,60.676,0,0,1-8.05,18.046Q9.765,366.376,8.7,353.25q-.163-2.016-.326-4.033s0,0,0-.006a1.061,1.061,0,0,0-.159-1.428L7.6,348.965l.615-1.183a.974.974,0,0,0-.549-.216c-1.462-.124-2.932-.074-4.4-.115q.936-2.023,1.875-4.044a.968.968,0,0,0-.174-1.1l-1.026,1.813,1.026-1.813c-.015-.017-.029-.035-.046-.05a1,1,0,0,0,.179-.466c.213-1.791.345-3.589.513-5.384.518.7,1.024,1.393,1.509,2.089l1.042-1.843a10.318,10.318,0,0,1-2.459-3.746c-.342-1.366.692-2.869,2.219-2.161a6.012,6.012,0,0,1,2.087,2.385c.026.041.049.082.075.124l.29-.513-.29.513a22.69,22.69,0,0,1,2.585,5.952l1.246-2.4a23.481,23.481,0,0,0-1.914-4.112.915.915,0,0,0,.421.1h1.541a.967.967,0,0,0,.956-.956c0-.005,0-.01,0-.015a1.333,1.333,0,0,1-.758-.327,1.333,1.333,0,0,0,.758.327.971.971,0,0,0-.954-.941H12.432a.967.967,0,0,0-.956.956.086.086,0,0,1,0,.009c-.261-.393-.531-.779-.82-1.151-1.372-1.762-3.864-2.961-5.768-1.173A3.841,3.841,0,0,0,4.1,333.92a1,1,0,0,0-.177.463c-.293,2.466-.431,4.946-.724,7.412a.755.755,0,0,0,.266.721c-.861,1.844-1.707,3.7-2.569,5.541a.957.957,0,0,0-.014.815.937.937,0,0,0-.149.5Q.4,362.877.079,376.386c-.064,2.652-.657,5.885,2.754,6.487a20.7,20.7,0,0,0,4-.049c1.077-.02,2.158.017,3.233.074a.947.947,0,0,0,.75-.37.933.933,0,0,0,.585-.409,64.114,64.114,0,0,0,9.317-20.155.924.924,0,0,0-.608-1.116m-16,20.214c-.751-.006-1.607-.028-2.034-.715a3.9,3.9,0,0,1-.158-2.2c.115-1.856.119-3.722.163-5.581q.279-11.6.559-23.2c0-.01,0-.018,0-.028.4.02.79.029,1.186.035l.347,24.718.052,3.676a.956.956,0,0,0,1.912,0q-.178-12.675-.356-25.349-.021-1.512-.042-3.025.373.006.745.018,1.152,14.249,2.3,28.5.123,1.525.246,3.049c-1.645-.014-3.274.116-4.921.1" transform="translate(0 -223.942)" fill="#323232"/>
          <path id="パス_691" data-name="パス 691" d="M17.844,358.232l-1.678,4.484c-.432,1.154,1.415,1.652,1.843.508l1.679-4.484a.8.8,0,0,0-.031-.7,20.992,20.992,0,0,1,1.48,3.114l1.156-2.221a25.233,25.233,0,0,0-1.918-3.585,15.3,15.3,0,0,0-1.233-1.576L18.1,355.62c.542.778,1.059,1.562,1.532,2.38a1.033,1.033,0,0,0-1.787.232" transform="translate(-10.971 -241.063)" fill="#323232"/>
          <path id="パス_692" data-name="パス 692" d="M33.045,356.854a.917.917,0,0,0,1.308.584.977.977,0,0,0,.119.264,4.027,4.027,0,0,1,.635,2.793.8.8,0,0,0,.279.671c-.007.011-.015.02-.021.032a31.475,31.475,0,0,1-1.629,2.7c-.046-1.072-.129-2.2-1.091-2.706a1,1,0,0,0-.28-.095q-.336-.921-.731-1.816L30.479,361.5c.028.074.059.145.086.22a.788.788,0,0,0-.314.219l-.172.33c-.008.025-.019.046-.025.073a8.962,8.962,0,0,0,.294,5.137,1,1,0,0,0,.225.361c-.119.126-.236.254-.357.379-.861.88.49,2.233,1.352,1.352a32.756,32.756,0,0,0,5.449-7.4.913.913,0,0,0-.18-1.134,1.269,1.269,0,0,0,.184-.534,5.679,5.679,0,0,0-.9-3.757.943.943,0,0,0-1.226-.34c0-.017,0-.034-.009-.052-.187-.7-.406-1.388-.651-2.073l-1.246,2.4c.018.062.037.124.054.186m-1.075,9.4a7.028,7.028,0,0,1-.2-2.6,13.555,13.555,0,0,0,.24,2.094.937.937,0,0,0,.126.314l-.162.2" transform="translate(-20.313 -241.4)" fill="#323232"/>
          <path id="パス_693" data-name="パス 693" d="M47.243,342.219a.815.815,0,0,0-.468-.61l.05-.093a.992.992,0,0,0-.906-1.44,1.047,1.047,0,0,1,.1.491,1.047,1.047,0,0,0-.1-.491.828.828,0,0,0-.745.475l-1.114,2.09a.921.921,0,0,0,.216,1.167l.527-1.013-.527,1.013a.9.9,0,0,0,1.341-.062,147.46,147.46,0,0,1,3.313,20.624.959.959,0,0,0,.83.9,10.45,10.45,0,0,1,.083-1.765,10.45,10.45,0,0,0-.083,1.765.859.859,0,0,0,1.082-.9,157.764,157.764,0,0,0-3.6-22.15" transform="translate(-29.939 -231.727)" fill="#323232"/>
          <path id="パス_694" data-name="パス 694" d="M231.516,327.964a.929.929,0,0,0-.671-.868c.029.493.031.973.031,1.405,0-.432,0-.912-.031-1.405a.893.893,0,0,0-1.241.868c.864,16.316-1.9,32.4-3.676,48.555a.834.834,0,0,0,.1.518,3.928,3.928,0,0,0,.391-.745,3.928,3.928,0,0,1-.391.745,1.022,1.022,0,0,0,1.816-.518c1.778-16.158,4.54-32.239,3.676-48.555" transform="translate(-153.943 -222.847)" fill="#323232"/>
          <path id="パス_695" data-name="パス 695" d="M104.121,478.516a.91.91,0,0,0-.466-.563,21.315,21.315,0,0,0-1.255-4.5,7.319,7.319,0,0,0,2.493-5.205.82.82,0,0,0-.506-.836,1.986,1.986,0,0,1,.122,1.283,1.986,1.986,0,0,0-.122-1.283.987.987,0,0,0-1.406.836,5.378,5.378,0,0,1-1.763,3.741.894.894,0,0,0-1.036.829,12.923,12.923,0,0,1-6.06,1.952.984.984,0,0,0-.917,1.05,3.83,3.83,0,0,0,1.108-.115v0a3.83,3.83,0,0,1-1.108.115.825.825,0,0,0,.917.862,15.18,15.18,0,0,0,6.683-2.037,17.772,17.772,0,0,1,.951,3.636,8.031,8.031,0,0,1-1.222,5.291,9.834,9.834,0,0,0-.933,2.474,1.035,1.035,0,0,0-.049.195c-.155.624-.293,1.262-.483,1.932a4.07,4.07,0,0,1-1.379,2.042c-1.99-2.362-4.653-4.7-7.747-4.548.261-.453.52-.905.766-1.357l.6-1.111a.977.977,0,0,0,.769-.025,5.578,5.578,0,0,1,5.683,1.279c.847.895,2.2-.458,1.352-1.352a7.54,7.54,0,0,0-6.669-1.988l.477-.877a.858.858,0,0,0,.333.166c.537.132,1.081.236,1.618.368a.949.949,0,0,0,1.088-1.375c.28.036.561.069.843.088,1.228.085,1.223-1.827,0-1.912-1.03-.072-2.044-.3-3.075-.371a.8.8,0,0,0-.788.386.838.838,0,0,0-.992.439l-.334.613a1.348,1.348,0,0,0,.145.572,1.348,1.348,0,0,1-.145-.572L87.9,485.473c-.953,1.752-2.35,3.751-2.031,5.854.681,4.5,6.217,3.352,9.146,2.349a10.694,10.694,0,0,0,4.631-2.668,7.86,7.86,0,0,0,1.518-3.88c1.537-.6,3.122-1.375,3.642-3.072.538-1.756-.16-3.874-.686-5.542m-8.3,12.812a18.564,18.564,0,0,1-4.453,1.393c-2.342.374-4.28-.93-3.295-3.42.194-.491.421-.973.663-1.45,2.995-1,5.44,1.19,7.312,3.373-.076.035-.151.07-.227.1m6.33-6.817c.318-.63.635-1.232.9-1.85,0,.019,0,.038,0,.056a2.169,2.169,0,0,1-.9,1.794" transform="translate(-58.48 -318.438)" fill="#323232"/>
          <path id="パス_696" data-name="パス 696" d="M170.652,254.772a.956.956,0,0,0,0-1.912.956.956,0,0,0,0,1.912" transform="translate(-115.653 -172.298)" fill="#323232"/>
          <path id="パス_697" data-name="パス 697" d="M137.441,259.444a32.988,32.988,0,0,1-6.331,1.507c-1.2.159-1.218,2.072,0,1.912a35.407,35.407,0,0,0,6.839-1.575c1.158-.395.661-2.242-.508-1.843" transform="translate(-88.72 -176.747)" fill="#323232"/>
          <path id="パス_698" data-name="パス 698" d="M230.956,186.277q-.517-6.863-1.034-13.726c-.092-1.219-2-1.229-1.912,0q.517,6.863,1.034,13.726c.092,1.219,2,1.229,1.912,0" transform="translate(-155.364 -116.95)" fill="#323232"/>
          <path id="パス_699" data-name="パス 699" d="M240.42,226.968a10.762,10.762,0,0,0-5.551-1.763c-1.23-.05-1.228,1.862,0,1.912a8.835,8.835,0,0,1,4.586,1.5c1.03.679,1.989-.976.965-1.651" transform="translate(-159.411 -153.453)" fill="#323232"/>
          <path id="パス_700" data-name="パス 700" d="M209.47,251.381a26.671,26.671,0,0,0,3.879-6.466c.235-.565.454-1.136.647-1.716a7.779,7.779,0,0,1,.555-1.882c.494-.654,1.823-.529,2.562-.62l2.523-.309c1.206-.148,1.22-2.061,0-1.912a45.374,45.374,0,0,0-5.11.642,2.594,2.594,0,0,0-1.924,2.065,26.226,26.226,0,0,1-4.485,8.845c-.762.951.582,2.312,1.352,1.352" transform="translate(-141.657 -162.491)" fill="#323232"/>
          <path id="パス_701" data-name="パス 701" d="M142.823,175.121c-.113-1.7-.282-3.4-.478-5.088-.8-6.946-2-13.849-3.305-20.715-.309-1.62-.624-3.239-.959-4.854a.8.8,0,0,0-.761-.685l.811,2.505-.811-2.505a1.006,1.006,0,0,0-1.082,1.193c.846,4.069,1.6,8.158,2.3,12.253.627,3.653,1.208,7.316,1.675,10.993.215,1.695.408,3.393.557,5.1.133,1.508.548,3.3-.138,4.677-2.413,4.853-5.594,9.295-8.25,14.018a2.611,2.611,0,0,0-1.673-.329,2.635,2.635,0,0,0-1.7-1.533,4.224,4.224,0,0,0-1.845-.029c-.706-1.1-2.018-1.267-3.359-.871a2.3,2.3,0,0,0-2.527-1.2c-1.593.232-2.122,1.441-3.114,2.536-.919,1.015-2.235,2.432-2.368,3.946a5.29,5.29,0,0,0-1.214,1.054,3.041,3.041,0,0,0,.326.4,3.041,3.041,0,0,1-.326-.4,2.671,2.671,0,0,0-.731,1.835c.091,1.274,1.457,1.963,2.475,2.433.5.229,1.025.514,1.572.751a10.839,10.839,0,0,0-2.133,9.467,1.035,1.035,0,0,0-.206-.017l-10.371.156a.979.979,0,0,0-.368.076,8.675,8.675,0,0,0,.71-2.725,11.911,11.911,0,0,0-1.856-7.3,6.708,6.708,0,0,0,1.012-1.355,4.007,4.007,0,0,0,.469-3.608,1.849,1.849,0,0,0-1.584-1.127.875.875,0,0,0,.448-.282l.014-.017a32.456,32.456,0,0,1,7,.262,1.058,1.058,0,0,0,1.188-1.19c-.242.166-.382.388-.813.172.431.216.571-.006.813-.172a.746.746,0,0,0-.68-.653,34.427,34.427,0,0,0-5.761-.4l3.778-4.282c.75,1.845,1.827,3.514,2.755,5.274a.756.756,0,0,1,.368-.09.756.756,0,0,0-.368.09c.283.537.554,1.081.8,1.643a.762.762,0,0,0,1.1.4,13.21,13.21,0,0,1-.569-1.5,13.21,13.21,0,0,0,.569,1.5,1.05,1.05,0,0,0,.553-1.368c-1.141-2.653-2.968-4.925-3.8-7.713a.912.912,0,0,0-1.05-.656.8.8,0,0,0-.965.234l-5.9,6.683a.962.962,0,0,0-.438.513,1.01,1.01,0,0,0,.433,1.489c-.521-.033-1.062-.024-1.55-.1-.227-.575-.463-1.124-.659-1.607-.566-1.395-1.163-3.414-3.031-3.283a2.954,2.954,0,0,0-2.336,1.384,3.04,3.04,0,0,0-3.241.857,3.147,3.147,0,0,0-3.576,1.185A2.721,2.721,0,0,0,85.9,194.7a2.315,2.315,0,0,0-.012.42c.483.482,1.049.923,1.615,1.49-.566-.566-1.133-1.007-1.615-1.49.067,1.359,1.185,3.1,2.1,4.285l-.672.711c-.276.293-.67.61-.958.955l.058-2.328a.942.942,0,0,0-1.469-.779v0a.891.891,0,0,0-.442.779q-.571,22.894-1.142,45.787c-.075,3-.478,7.228,2.856,8.6,1.136.469,1.632-1.38.508-1.843-2.1-.865-1.491-5.214-1.445-7.1q.142-5.7.284-11.4l.2-8.168c.005.045.011.09.016.135,1.111,9.892,1.838,19.824,2.571,29.749a1,1,0,0,0,1.8.509,5.507,5.507,0,0,1-.749-.425,5.507,5.507,0,0,0,.749.425.864.864,0,0,0,.108-.509c-.667-9.028-1.332-18.059-2.279-27.062-.417-3.961-.893-7.915-1.454-11.858-.572-4.02-.311-10.177,4.352-11.737,1.161-.388.663-2.235-.508-1.843a7.463,7.463,0,0,0-2.1,1.1l-.27-.945,1.343-1.422a2.833,2.833,0,0,0,3.083.017.974.974,0,0,0,.237.07A4.786,4.786,0,0,0,95.4,200.6a2.714,2.714,0,0,0,2.765.4s0,.007.006.01c1.053,1.522,2.64,1.3,4.022.454a9.645,9.645,0,0,1,1.336,6.512,11.81,11.81,0,0,1-1.481,3.494q-.013-1.029-.016-2.059a.956.956,0,0,0-1.912,0c.022,12.025,1.279,24.009,1.3,36.034a.928.928,0,0,0,1.148.906,1.221,1.221,0,0,1,.224-.671,1.221,1.221,0,0,0-.224.671.88.88,0,0,0,.764-.906c-.019-10.236-.93-20.441-1.215-30.668h0c-.007-.248-.015-.5-.021-.745a.914.914,0,0,0,.877-.433c.443-.681.9-1.423,1.308-2.2a.861.861,0,0,0,.9.719l10.371-.156a.883.883,0,0,0,.726-.359,11.228,11.228,0,0,0,1.178,2.1l-.032.083c-.127.329-.282.658-.412.992h0a3.023,3.023,0,0,0-.254,1.26,25.186,25.186,0,0,0,.636,3.266.789.789,0,0,0,.592.661c-.079,1.043-.063,2.1-.038,3.135.105,4.231.029,8.464-.106,12.693q-.177,5.564-.494,11.122c-.065,1.172-.632,3.159.309,4.058.258.247.543.5.847.746-.288,1.9-.42,3.81-.7,5.707a5.548,5.548,0,0,0,1.315,4.5c.015.019.032.032.047.049,0,2.47-.484,5.03.664,7.286.881,1.732,2.441,2.477,4.133,3.256,1.954.9,4.141,1.668,6.3,1.06,3.837-1.081,4.1-5.238,3.335-8.5a14.776,14.776,0,0,0-2.314-4.607,13.859,13.859,0,0,1-1.888-6.834.95.95,0,0,0-1.033-.919,2.608,2.608,0,0,1-.8.5.937.937,0,0,0-.076.422,18.872,18.872,0,0,0,.586,4.073.917.917,0,0,0-.55-.448l-.386-.123a.943.943,0,0,0,.059-1.658,4.022,4.022,0,0,0-3.624.054.986.986,0,0,0-.667,1.176.962.962,0,0,0,1.176.668,4.465,4.465,0,0,1,1.389-.411,7.621,7.621,0,0,0-1.505.508.987.987,0,0,0-.667,1.176.962.962,0,0,0,1.176.667,7.189,7.189,0,0,1,1.449-.487,4.1,4.1,0,0,1,1.094.275.907.907,0,0,0,1.171-.987c.048.163.1.326.15.487a10.953,10.953,0,0,0,.631,1.5,10.1,10.1,0,0,0-6.922.541c-1.084.583-.119,2.234.965,1.651a8.225,8.225,0,0,1,5.64-.286.806.806,0,0,0,1.091-.531c.307.5.629.992.954,1.506a10.373,10.373,0,0,1,1.3,3.4c-3.209-1.773-7.79-.577-10.644,1.511a4.571,4.571,0,0,1-.2-.746c-.545-2.951.462-6.109-.64-8.977a.966.966,0,0,0-.739-.622c.047-.386.115-.79.178-1.222.162-1.115.191-2.24.308-3.36,2,1.24,4.394,2.122,6.416,1.673a.879.879,0,0,0,.566-1.323,3.42,3.42,0,0,1-1.5.01,3.42,3.42,0,0,0,1.5-.01.934.934,0,0,0-1.075-.52c-1.5.333-3.139-.573-4.39-1.3-.581-.336-1.145-.7-1.695-1.086a10.639,10.639,0,0,0-.952-.762c0-.143-.011-.288-.007-.353q.091-1.478.171-2.957c.389-7.115.7-14.253.6-21.38a27.115,27.115,0,0,1,.223-6.466,14.645,14.645,0,0,1,2.509-4.826c.7-1.019-.96-1.976-1.65-.965a21.163,21.163,0,0,0-2.222,3.794c-.034-.182-.061-.363-.089-.544a2.881,2.881,0,0,1,.163-.534c.232-.477.391-1.008.583-1.5l2.457-6.334c.445-1.148-1.4-1.645-1.843-.508l-1.7,4.374a8.781,8.781,0,0,1,1.246-9.9.97.97,0,0,0,.227-.477,2.707,2.707,0,0,0,.415-.032,2.542,2.542,0,0,0,1.866-1.512,3.069,3.069,0,0,0,3.375.485,3.581,3.581,0,0,0,.761-.619,2.4,2.4,0,0,0,1.2.8c1.941.6,2.913-1,3.947-2.338a14.926,14.926,0,0,0,1.576-2.473,3.951,3.951,0,0,0,.517-1.393c.014-.023.031-.041.044-.065.511-.944,1.046-1.874,1.59-2.8q.033,10.449.067,20.9.05,15.743.1,31.485c.011,3.463.8,9.585-4.073,9.837-1.224.063-1.232,1.975,0,1.912,4.02-.207,5.942-3.6,6-7.325.01-.634,0-1.269-.006-1.9q-.02-6.127-.039-12.253-.055-17.278-.111-34.557v-.347a.872.872,0,0,0,.545.389l.37.1c-.364,12.323.31,24.654-.1,36.976-.04,1.23,1.871,1.229,1.912,0,.414-12.567-.3-25.143.116-37.709a.968.968,0,0,0-.7-.922l-1.092-.285a.891.891,0,0,0-1.056.468q-.011-3.633-.023-7.266a.918.918,0,0,0-1.066-.915c1.9-3.152,3.893-6.25,5.661-9.479a9.234,9.234,0,0,0,1.331-2.777,12.5,12.5,0,0,0-.112-2.327M86.255,205.335v0q.027-1.082.054-2.164l0,.007.422,1.476q-.254.331-.478.686m11.158-12.007c-.521-1.113-2.169-.144-1.651.965q.586,1.252,1.141,2.518a8,8,0,0,1,.688,1.688c.15.921-.5.912-1.1.544a3.308,3.308,0,0,0-.768-2.161c-.568-.881-1.144-1.757-1.717-2.636-.669-1.027-2.325-.07-1.65.965l1.5,2.307a5.576,5.576,0,0,1,.606.942c.3.835-.735.619-1.244.536-.143-1.331-1.4-2.789-1.925-3.781-.578-1.086-2.229-.122-1.651.965.4.745,1.277,1.6,1.456,2.419.113.522.131.728-.485.649-.558-.072-.847-.715-1.118-1.129-.427-.651-.876-1.327-1.243-2.013-.317-.592-.819-1.209.17-1.624a2.2,2.2,0,0,1,.782-.041.932.932,0,0,0,.825-.473c.287-.644,1.242-1.222,1.885-.664a.969.969,0,0,0,1.6-.422c.267-.835,1.318-.676,1.892-.332a.872.872,0,0,0,1.191-.23.982.982,0,0,0,.382-.685c.029-.248.588-.595.8-.576.5.043.721.721.878,1.083a26.881,26.881,0,0,1,.942,2.533c.182.572.4,1.135.575,1.71.3.974.432,1.465-.787,1.4a35.835,35.835,0,0,0-1.974-4.455m5.841,4.171c-.263.621-2.673,3.636-3.428,2.545a.972.972,0,0,0-.372-.323c0-.008.006-.017.009-.025,1.4.036,2.892-.679,2.889-2.242a6.1,6.1,0,0,0-.2-1.412,6.31,6.31,0,0,0,.716.063c.529.01.473-.15.614.336a1.536,1.536,0,0,1-.231,1.057m28.481,71a.987.987,0,0,0,.382.214,3.372,3.372,0,0,1-1.825,2.821c-2.053,1-4.509-.233-6.356-1.149a7.229,7.229,0,0,1-1.5-.941c2.311-1.778,6.9-3.067,9.294-.944M118.4,198.7c-.461-.209-.93-.406-1.385-.628-.359-.174-1.238-.5-1.175-.922a1.6,1.6,0,0,1,.645-.782,3.186,3.186,0,0,0,1.883.865,2.628,2.628,0,0,0,1.8,1.86,5.445,5.445,0,0,1-1.765-.393m12.96-4.387a10.028,10.028,0,0,1-1.247,2.066c-.422.537-1,1.735-1.615,1.993-.37.155-1.009-.054-.769-.508a.951.951,0,0,0,.112-.528,12.816,12.816,0,0,0,1.167-1.915c.536-1.1-1.113-2.072-1.651-.965a14.012,14.012,0,0,1-1.89,2.836c-.266.318-.685.992-1.1,1.1a1.087,1.087,0,0,1-1.177-.563c0-.005-.006-.009-.008-.014.248-.33.484-.689.746-1.041.638-.858,1.336-1.676,2.021-2.5.783-.939-.562-2.3-1.351-1.352a32.042,32.042,0,0,0-2.7,3.438c-.27.433-.709,1.212-1.369.856-.846-.455.022-1.37.377-1.8a14.768,14.768,0,0,0,1.912-2.519c.564-1.091-1.085-2.059-1.65-.965-.651,1.259-1.9,2.143-2.562,3.383-2.263.168.876-3.349,1.24-3.765s1.958-2.779,2.351-1.134a.833.833,0,0,0,.616.654.967.967,0,0,0,1.079.15c.942-.445,1.638-.536,1.85.515a.97.97,0,0,0,1.7.31.472.472,0,0,0,.244-.068,2.948,2.948,0,0,1,.633-.027c.376.09.77.346.628.789a.881.881,0,0,0,.8,1.163.763.763,0,0,0,.779-.122c.639-.473,1.162-.174.833.526" transform="translate(-56.769 -97.97)" fill="#323232"/>
          <path id="パス_702" data-name="パス 702" d="M222.212,486.2a2.607,2.607,0,0,0,.8-.5.882.882,0,0,0-.8.5" transform="translate(-151.415 -330.958)" fill="#323232"/>
          <path id="パス_703" data-name="パス 703" d="M135.417,44.2l.391,1.208a.921.921,0,0,0,.229-.857,10.683,10.683,0,0,0-7.09-7.656c-3.072-1.025-6.16-1.6-9.092-3.085a1,1,0,0,0-1.384,1.225l-.58-1.054a.925.925,0,0,0-.3-.333c-.011-.009-.021-.019-.032-.028s0-.013,0-.02a3.464,3.464,0,0,1-.239-1.381,13.039,13.039,0,0,0,2.268-5.942,4.922,4.922,0,0,0,3.594-4.194c.29-1.643-.387-3.652-2.042-4.2a1,1,0,0,0,.11-.26c1.245-4.887,1.69-14.668-5.141-15.535a.766.766,0,0,0-.658.191,6.906,6.906,0,0,1,1.265.467,6.906,6.906,0,0,0-1.265-.467A1.055,1.055,0,0,0,116.1,4c3.132.4,4,4.922,4,7.453a22.877,22.877,0,0,1-.619,5.3,1.827,1.827,0,0,1-.021-.913.939.939,0,0,0-.034-.574.958.958,0,0,0-.235-.618A20.531,20.531,0,0,1,115.49,8.05a.978.978,0,0,0-.241-.383.949.949,0,0,0-1.608-.579,11.822,11.822,0,0,1-4.936,3.14q.761-1.142,1.589-2.237c.578-.766-.546-1.825-1.308-1.308-2.885,1.958-5.754,3.946-8.553,6.025a1.006,1.006,0,0,0-.294.341.945.945,0,0,0-.435.739,7.74,7.74,0,0,1-.277,1.4c-.488-2.551-.884-4.925.357-7.483,2.379-4.9,8.068-7.362,13.073-4.78a1,1,0,0,0,1.442-.949,7.311,7.311,0,0,1-1.414-.509,7.311,7.311,0,0,0,1.414.509.814.814,0,0,0-.477-.7A11.443,11.443,0,0,0,98.865,5.466a10.617,10.617,0,0,0-1.791,7.369c.2,1.28.458,2.553.695,3.828a4.508,4.508,0,0,0-1.67,3.684,6.238,6.238,0,0,0,3.39,5.16,12.784,12.784,0,0,0,1.787,5.729c.047.07.1.137.145.206,0,.021-.009.04-.011.062-.049.653-.054,1.308-.07,1.962a1.049,1.049,0,0,0-.286.377,1.061,1.061,0,0,0-.05.1l-.514,1.293a1.019,1.019,0,0,0-.142-.062.845.845,0,0,0-1.149-.762,84.144,84.144,0,0,1-9.588,3.009c-2.053.467-4.026.833-5.646,2.292a9.306,9.306,0,0,0-2.651,5.129.932.932,0,0,0,.133.736l.329-1.028-.329,1.028a.934.934,0,0,0,1.711-.227,7.121,7.121,0,0,1,2.675-4.684c1.629-1.114,3.7-1.219,5.557-1.724,1.441-.391,2.871-.831,4.293-1.3a1.073,1.073,0,0,0-.073.168l-1.441,4.469c-.379,1.173,1.467,1.676,1.843.508l1.441-4.469a.842.842,0,0,0-.531-1.093q1.081-.368,2.155-.749c.08,2.03.233,4.07.455,6.108a.935.935,0,0,0-.616.1l-5.479,2.881a.906.906,0,0,0-.093,1.54.992.992,0,0,0-.153,1.063c3.674,8.334,7.972,16.377,11.646,24.711.5,1.123,2.143.152,1.65-.965C102.81,63.581,98.512,55.537,94.838,47.2a1.021,1.021,0,0,0-.1-.169L99.749,44.4a85.666,85.666,0,0,0,2.035,10.542c1.62,6.209,3.15,12.752,6.193,18.453a.853.853,0,0,0,.5.432,23.065,23.065,0,0,0-.953,2.883,43.978,43.978,0,0,0-.805,7.657c-.086,1.228,1.826,1.222,1.912,0q.12-1.729.241-3.458c.048-.686.092-1.373.144-2.059.008-.106.012-.214.02-.321.018-.018.118-.461.146-.568a12.719,12.719,0,0,1,.835-2.6q1.243-2.928,2.421-5.883a99.64,99.64,0,0,0,3.98-11.478c1-3.813,1.886-7.661,2.71-11.517a65.275,65.275,0,0,0,1.762-10.043c0-.023,0-.043,0-.066a41.164,41.164,0,0,0,6.349,2.039,8.932,8.932,0,0,1,6.962,6.639.921.921,0,0,0,1.614.349ZM101.205,24a1.068,1.068,0,0,0-1.684-.7,4.95,4.95,0,0,1-1.509-2.717c-.087-.8.2-2.447,1.229-2.334a.946.946,0,0,0,.292-.015,1.019,1.019,0,0,0,1.319-.875c.087-1.06.531-2.066.708-3.119q2.14-1.585,4.325-3.109c-.018.032-.038.062-.056.094a.968.968,0,0,0,1.079,1.4,13.891,13.891,0,0,0,7.056-3.216,22.954,22.954,0,0,0,3.6,6.229,3.813,3.813,0,0,0,1.749,3.825.849.849,0,0,0,.733.113,1.03,1.03,0,0,0,.127.032c2.4.362.782,4.7-1.139,4.828a1.077,1.077,0,0,0-.218.037.767.767,0,0,0-.977.668c-.4,2.677-.883,4.972-2.927,6.906a7.233,7.233,0,0,1-5.974,2.148c-2.89-.288-4.746-1.985-6.273-4.327-1.042-1.6-1.251-4.325-1.459-5.875m9.771,14.748c-.26.521-.734.4-1.072.343a.921.921,0,0,0,.516,1.117l1.243,1.7a1.065,1.065,0,0,0-.086.207,15.382,15.382,0,0,1-1.2,3.248c-.013.023-.019.045-.03.068l-1.277.03-.931-2.817a.946.946,0,0,0-.34-.48l1.47-1.828a1.079,1.079,0,0,0,.5-1.269.7.7,0,0,0-.075,0,.7.7,0,0,1,.075,0,.978.978,0,0,0-.362-.481l-6.189-4.476c.008-.176.017-.351.022-.526a9.319,9.319,0,0,0,12.409.35c.019.056.033.115.054.17,0,.008.008.015.011.023l-5.552,4.609a.892.892,0,0,0-.265.351c.338.06.811.178,1.072-.343m-9.876-.079a1.027,1.027,0,0,0,.185-.3l1.023-2.571,5.17,3.739-2.734,3.4-2.164-3.651a.933.933,0,0,0-1.45-.2c-.01-.138-.022-.277-.031-.414m2.527,15.767a84.292,84.292,0,0,1-2.361-13.619l2.448,4.132a.878.878,0,0,0,.99.432.76.76,0,0,0,.763-.31l1.039-1.292.828,2.5a.989.989,0,0,0,.177.322,1.015,1.015,0,0,0,.088.294c-1.54,3.576-2.166,7.611-2.956,11.464-.344-1.318-.678-2.632-1.016-3.929m7.333,13.608c-.5,1.257-1.079,2.516-1.641,3.786a55.619,55.619,0,0,1-3.761-10.088.85.85,0,0,0,.425-.579c.556-2.315,1.021-4.651,1.559-6.97a36.3,36.3,0,0,1,1.931-6.826l.9-.021a73.806,73.806,0,0,1,2.083,13.128.939.939,0,0,0,.938.918c-.738,2.238-1.566,4.445-2.435,6.652m6.516-22.985c-.831,3.958-1.731,7.9-2.744,11.82-.151.583-.312,1.161-.478,1.738a90.338,90.338,0,0,0-2.139-12.235.984.984,0,0,0-.043-.128,13.2,13.2,0,0,0,.986-2.428l.975,1.338a.969.969,0,0,0,1.651,0l2.736-4.548c-.288,1.5-.638,2.982-.944,4.442m1.151-5.6a.971.971,0,0,0-1.69-.088L114.78,42.96l-2.531-3.472,4.457-3.7,1.45,2.637a.856.856,0,0,0,.564.447q-.044.295-.092.589m.43-3.363-.539-.979a.879.879,0,0,0,.373.341c.165.084.333.161.5.241a.891.891,0,0,0-.333.4" transform="translate(-55.389 0)" fill="#323232"/>
          <path id="パス_704" data-name="パス 704" d="M149.882,48.251a4.5,4.5,0,0,1,3.082-.092c1.177.368,1.68-1.477.508-1.843a6.539,6.539,0,0,0-4.555.285.963.963,0,0,0-.343,1.308.981.981,0,0,0,1.308.343" transform="translate(-101.156 -31.366)" fill="#323232"/>
          <path id="パス_705" data-name="パス 705" d="M156.164,54.612a.956.956,0,0,0,0,1.912.956.956,0,0,0,0-1.912" transform="translate(-105.781 -37.212)" fill="#323232"/>
          <path id="パス_706" data-name="パス 706" d="M176.965,48.243a3.77,3.77,0,0,1,2.791.174c1.089.57,2.057-1.079.965-1.65a5.752,5.752,0,0,0-4.264-.367.957.957,0,0,0,.508,1.843" transform="translate(-119.778 -31.45)" fill="#323232"/>
          <path id="パス_707" data-name="パス 707" d="M182.173,54.612a.956.956,0,0,0,0,1.912.956.956,0,0,0,0-1.912" transform="translate(-123.503 -37.212)" fill="#323232"/>
          <path id="パス_708" data-name="パス 708" d="M168.763,74.967h.265a.983.983,0,0,0,.956-.956.965.965,0,0,0-.28-.676.993.993,0,0,0-.676-.28h-.265a.722.722,0,0,0-.369.082.865.865,0,0,0-.505.505.722.722,0,0,0-.082.368.963.963,0,0,0,.28.676.992.992,0,0,0,.676.28" transform="translate(-114.343 -49.78)" fill="#323232"/>
          <path id="パス_709" data-name="パス 709" d="M162.676,86.507a.962.962,0,0,0,.343,1.308,5.457,5.457,0,0,0,4.537,0,.963.963,0,0,0,.343-1.308.98.98,0,0,0-1.308-.343,3.3,3.3,0,0,1-2.607,0,.99.99,0,0,0-1.308.343" transform="translate(-110.764 -58.637)" fill="#323232"/>
          <path id="パス_710" data-name="パス 710" d="M213.073,124l-.865-5.91c-.177-1.213-2.02-.7-1.843.508q.432,2.955.865,5.91c.177,1.213,2.02.7,1.843-.508" transform="translate(-143.334 -79.997)" fill="#323232"/>
          <path id="パス_711" data-name="パス 711" d="M175.651,171.881c4.117-9.514,9.285-18.647,14.23-27.75a.967.967,0,0,0-.571-1.4,34,34,0,0,1-4.762-1.434c-1.134-.474-1.628,1.375-.508,1.843a26.306,26.306,0,0,0,3.588,1.136c-4.76,8.738-9.677,17.515-13.628,26.644-.484,1.117,1.163,2.092,1.651.965" transform="translate(-118.503 -96.224)" fill="#323232"/>
          <path id="パス_712" data-name="パス 712" d="M158.982,488.132H148.355a.956.956,0,0,0,0,1.912h10.627a.956.956,0,0,0,0-1.912" transform="translate(-100.46 -332.612)" fill="#323232"/>
          <path id="パス_713" data-name="パス 713" d="M160.386,442.8l-11.373.033a.956.956,0,0,0,0,1.912l11.373-.033a.956.956,0,0,0,0-1.912" transform="translate(-100.908 -301.721)" fill="#323232"/>
          <path id="パス_714" data-name="パス 714" d="M173.346,262.9a40.9,40.9,0,0,1,5.476,4.069c.919.811,2.276-.536,1.352-1.351a43.9,43.9,0,0,0-5.863-4.369c-1.048-.651-2.008,1-.965,1.651" transform="translate(-117.811 -177.914)" fill="#323232"/>
          <path id="パス_715" data-name="パス 715" d="M190.22,248.212l-6.856.264c-1.226.047-1.232,1.959,0,1.912l6.856-.264c1.226-.047,1.232-1.959,0-1.912" transform="translate(-124.316 -169.131)" fill="#323232"/>
          <path id="パス_716" data-name="パス 716" d="M159.3,363.193h1.051a.968.968,0,0,0-.7-1.6H149.171a.969.969,0,0,0-.7,1.6h0a.876.876,0,0,0,.7.309h10.477a.877.877,0,0,0,.7-.309Z" transform="translate(-101.016 -246.387)" fill="#323232"/>
          <path id="パス_717" data-name="パス 717" d="M387.144,284.985a1.022,1.022,0,0,1-.091.153,15.824,15.824,0,0,1-3.931,3.457,25.652,25.652,0,0,0-4.993,4.666,26.7,26.7,0,0,0-1.8,2.058c-.246.361-.538,1.032.179.848a19.266,19.266,0,0,1,1.524-1.6c1.13-1.237,2.191-2.542,3.425-3.674.9-.829,2.24.492,1.352,1.352-.82.793-1.574,1.647-2.339,2.491-.26.3-.52.593-.785.884-.463.51-1,.968-1.446,1.495-.2.234-.315.48-.5.691l.174.279c.018.1.279.119.366.143a5.775,5.775,0,0,0,.472-.391,37.838,37.838,0,0,0,4.651-5.066c.713-.811,2.161.3,1.5,1.158l-3.749,4.859c.733.622,1.648-.556,2.244-1.253.159-.186.313-.376.468-.565a19.583,19.583,0,0,1,2.152-2.858c.706-.825,2.119.275,1.5,1.158-.431.617-1.1,1.608-1.883,2.6q-.159.215-.327.423a1.319,1.319,0,0,0-.052.364c.017.672.485.155.943-.257a20.77,20.77,0,0,0,2.277-2.474c1.663-2.083,2.739-4.571,4.515-6.548-1.19-2.073-3.487-4.449-5.851-4.385" transform="translate(-256.245 -194.187)" fill="#fff"/>
          <path id="パス_718" data-name="パス 718" d="M373.877,388.776c-.251-1.231-.531-2.459-.672-3.709a32.544,32.544,0,0,1-.014-3.333,19.7,19.7,0,0,0-1.855-7.643c-1.042-2.353-2.4-4.55-3.53-6.86a31.76,31.76,0,0,1-2.465-7.17,63.851,63.851,0,0,0-1.853-7.539c-.879-2.495-2.085-4.871-2.8-7.423a11.45,11.45,0,0,1-.01-7.431c-4.963-2.076-11.184-.509-13.939,4.214l4.782,5.562a.968.968,0,0,1,.234.514.993.993,0,0,1,.66.834c.552,4.73,1.155,9.555,3.374,13.841a70.087,70.087,0,0,0,6.209,9.082,31.463,31.463,0,0,1,5.224,9.619,19.662,19.662,0,0,1-.011,10.166c2.04,1.5,5.754,3.757,7.353.7-.258-1.13-.45-2.278-.682-3.421" transform="translate(-236.264 -229.474)" fill="#fff"/>
          <path id="パス_719" data-name="パス 719" d="M329.006,337.4c-.015-.017-.024-.035-.037-.053a.817.817,0,0,1-.4-.428,27.208,27.208,0,0,1-2.477-6.748,8.262,8.262,0,0,1-.1-1.13c-1.3,1.063-1.4,4.291-1.673,5.654q-.272,1.379-.545,2.759a11.053,11.053,0,0,0-.363,1.839c0,.788.179,1.1.908,1.173a51.17,51.17,0,0,0,6.4-.005.925.925,0,0,1,.819,1.38h1.278l-3.819-4.442" transform="translate(-220.375 -224.206)" fill="#35cae9"/>
          <path id="パス_720" data-name="パス 720" d="M386.068,331.633c-.071-.093-.139-.2-.208-.306a3.423,3.423,0,0,1-.353.174c.188.04.375.085.561.132" transform="translate(-262.683 -225.765)" fill="#35cae9"/>
          <path id="パス_721" data-name="パス 721" d="M446.377,350.862c-.321-1.211-.648-2.421-1.029-3.613-.25-.782-.575-2.3-1.307-2.907a27.908,27.908,0,0,1-5.268,6.326,1.053,1.053,0,0,1-.182.135l.128.3a.845.845,0,0,1,.759-.379l6.9.138" transform="translate(-298.854 -234.634)" fill="#35cae9"/>
          <path id="パス_722" data-name="パス 722" d="M312.606,167.271c-.041.052-.067.084-.066.084.031.019.051-.018.066-.084" transform="translate(-212.964 -113.978)" fill="#35cae9"/>
          <path id="パス_723" data-name="パス 723" d="M313.433,166.108c.017.53.023,1.06.041,1.59.028.825.066,1.648.107,2.472.075-1.738.151-3.478.253-5.214-.157.169-.306.339-.426.482a4.524,4.524,0,0,1,.025.67" transform="translate(-213.555 -112.401)" fill="#35cae9"/>
          <path id="パス_724" data-name="パス 724" d="M414.585,395.164c1.346-.531,2.164-2.938,2.925-4.077a1.039,1.039,0,0,1,.1-.12,7.83,7.83,0,0,0-.616-1.187,40.769,40.769,0,0,1-2.532-3.806,32.816,32.816,0,0,1-2.083-5.3,44.757,44.757,0,0,1-1.8-12.566c-.033-4.2.267-8.482-.687-12.6-.993-4.293-3.161-8.186-4.716-12.283-.437-1.153,1.411-1.647,1.843-.508.244.642.5,1.279.76,1.912.638-.6,1.24-1.21,1.805-1.833a.96.96,0,0,1-.2-.186,11.972,11.972,0,0,0-14.172-3.628.925.925,0,0,1-.095.03c-1.552,3.338.243,7.541,1.633,10.931a44.165,44.165,0,0,1,2.4,7.625,48.394,48.394,0,0,0,1.845,7.23c1.635,4.29,4.448,8.015,5.786,12.439a18.9,18.9,0,0,1,.869,6.129,28.765,28.765,0,0,0,.779,6.49c.166.884.316,1.8.514,2.7a.865.865,0,0,1,.675.287c.929.964,3.538,2.9,4.969,2.334" transform="translate(-268.822 -230.303)" fill="#fff"/>
          <path id="パス_725" data-name="パス 725" d="M417.328,515.687a5.055,5.055,0,0,1-3.2,1.169,8.955,8.955,0,0,1-5.332-2.137c-.072.231-.145.461-.222.69,0,.011-.009.018-.013.028a1.047,1.047,0,0,1,.076.142c.944,2.258,2.534,5.027,4.688,6.348,3.017,1.851,4.1-2.876,4.563-4.837.007-.029.018-.052.027-.078-.089-.17-.179-.339-.259-.518-.119-.266-.226-.536-.325-.807" transform="translate(-278.39 -350.728)" fill="#35cae9"/>
          <path id="パス_726" data-name="パス 726" d="M447.773,515.743c-1.509.3-3.361-.508-4.834-1.525a8.263,8.263,0,0,0,.507.9,12.016,12.016,0,0,0,4.339,3.743c2.805,1.42,3.873-3.4,3.728-5.375a13.111,13.111,0,0,0-.183-1.4c-.872,1.559-1.887,3.326-3.557,3.658" transform="translate(-301.817 -348.933)" fill="#35cae9"/>
          <path id="パス_727" data-name="パス 727" d="M505.845,364.25a45.166,45.166,0,0,0-1.24-4.774,1.03,1.03,0,0,1-.109-.234c-.529-1.689-1.1-3.364-1.756-5.006a1.368,1.368,0,0,0-1.052.12.862.862,0,0,1,.173.421q.488,3.357.977,6.713.222,1.526.444,3.051c.123.843.078,2.717,1,3.165.763.373,2.088.1,2.126-.729a12.586,12.586,0,0,0-.557-2.728" transform="translate(-341.848 -241.339)" fill="#e7e7e7"/>
          <path id="パス_728" data-name="パス 728" d="M494.129,379.954l-.412-2.831a.924.924,0,0,1-.14-.1c-.224.151-.44.312-.657.472-.665,2.154-1.3,4.321-1.818,6.509a25.446,25.446,0,0,0,2.781-3.778.989.989,0,0,1,.245-.267" transform="translate(-334.636 -256.9)" fill="#e7e7e7"/>
          <path id="パス_729" data-name="パス 729" d="M358.57,106.817V104.94q-.2-.215-.4-.44a1.011,1.011,0,0,1-.374.263,10.149,10.149,0,0,0-5.313,5.1.849.849,0,0,1-.365.4c1.589-.384,3.177-.672,4.766-1.086.311-.577.6-1.168.957-1.717a1.1,1.1,0,0,1,.727-.641" transform="translate(-239.934 -71.206)" fill="#fff"/>
          <path id="パス_730" data-name="パス 730" d="M495.082,397.368a2.914,2.914,0,0,1-3.03-2.563c-1.093,1.688-2.45,3.51-4.109,4.33a36.182,36.182,0,0,0-.559,5.559c-.045,2.6.123,5.194.317,7.781.1,1.35.217,2.7.323,4.048a14.441,14.441,0,0,0,.38,3.406c.88,2.607,6.1,1.3,8.093,1.055,1.329-.165,2.665-.293,3.992-.466,1.668-.216,2.893-.8,2.424-2.681-1.609-6.438-3.227-12.859-4.609-19.353a1,1,0,0,1,1.12-1.186c-.29-.819-.58-1.62-.824-2.438.1,1.94-1.655,2.55-3.519,2.508m-.785,1.749q-1.663,8.587-4.035,17.008a.957.957,0,0,1-1.843-.508q2.372-8.419,4.035-17.008c.234-1.208,2.076-.694,1.843.508" transform="translate(-332.098 -269.019)" fill="#e7e7e7"/>
          <path id="パス_731" data-name="パス 731" d="M363.641,285.935l-.034-.058c-.1.026-.211.049-.317.07a.885.885,0,0,1-.879,1.2c-2.253-.122-4.378,1.769-5.411,3.663a1.025,1.025,0,0,1,.117.118c1.289,1.592,3.078,2.7,4.432,4.226a14.725,14.725,0,0,1,1.012-1.154c1.108-1.234,2.111-2.55,3.271-3.74a11.893,11.893,0,0,1,1.086-.973c-.684-.379-1.388-.718-2.036-1.165a1,1,0,0,1-.212-1.439,2.4,2.4,0,0,1-.409-.3.882.882,0,0,1-.62-.446" transform="translate(-243.258 -194.796)" fill="#fff"/>
          <path id="パス_732" data-name="パス 732" d="M406.183,278.194a1.138,1.138,0,0,1-.1.07l.029.035.076-.105" transform="translate(-276.701 -189.561)" fill="#35cae9"/>
          <path id="パス_733" data-name="パス 733" d="M383.542,118.965a23.291,23.291,0,0,1-1.724-2.123l-4.843,4.517a1.051,1.051,0,0,1,.147.1L381.5,125.2c.937.8-.421,2.147-1.352,1.352l-3.666-3.134q.108,4.573.216,9.146a.956.956,0,0,1-1.912,0q-.108-4.566-.215-9.132l-4.505,3.755c-.939.782-2.3-.563-1.352-1.352l4.974-4.145c-1.806-1.415-3.656-2.772-5.47-4.175-.363.662-.683,1.35-1.107,1.974a1,1,0,0,1-1.472.19,7.434,7.434,0,0,0-.121.767.781.781,0,0,1,.977.67,71.852,71.852,0,0,0,5.582,17.732c.945,2.073,1.987,4.1,3.1,6.089,3.721-8.114,7.194-16.921,8.622-25.775a.966.966,0,0,1-.251-.2" transform="translate(-249.06 -79.616)" fill="#fff"/>
          <path id="パス_734" data-name="パス 734" d="M378.305,109.772v.962a1.029,1.029,0,0,1-.028.237c1.852,1.431,3.741,2.815,5.581,4.261l5.465-5.1q.021-.466.042-.933a8.186,8.186,0,0,1-5.453,2.34,9.914,9.914,0,0,1-5.608-1.771" transform="translate(-257.757 -74.411)" fill="#fff"/>
          <path id="パス_735" data-name="パス 735" d="M395.651,216.486c.03.049.045.063,0,0" transform="translate(-269.596 -147.513)" fill="#35cae9"/>
          <path id="パス_736" data-name="パス 736" d="M380.409,41.2a.739.739,0,0,1-.666-.581,2.133,2.133,0,0,1-1.232-.914.888.888,0,0,1-1.041-.66c-1.208-4.388-4.248-6.467-8.574-7.338a.846.846,0,0,1-.52-.3c-.342.363-.666.72-.985,1.067a1.056,1.056,0,0,1-.038.168c-.881,2.63-2.512,5.573-5.069,6.937a.909.909,0,0,1-.783.058,2.388,2.388,0,0,1-.444.541c.12.554-.17,1.169-.882,1.091-.975-.107-1.242,1.473-1.157,2.226a4.76,4.76,0,0,0,1.524,2.67c.5-.472,1.417-.462,1.53.378.263,1.957.33,4.324,1.494,5.967a8.91,8.91,0,0,0,7.215,4.112c2.292-.016,4.084-1.544,5.511-3.211,1.552-1.815,1.689-4.123,2.017-6.4a.918.918,0,0,1,.1-.3.963.963,0,0,1,.91-.9c1.826-.12,3.379-4.264,1.093-4.608M369.9,46.809a.861.861,0,0,1,.5-.505.722.722,0,0,1,.368-.082h.256a.993.993,0,0,1,.676.28.951.951,0,0,1,.246.422l.034.254a.723.723,0,0,1-.083.368.982.982,0,0,1-.873.588h-.256a.993.993,0,0,1-.676-.28.955.955,0,0,1-.246-.422q-.017-.127-.034-.254a.721.721,0,0,1,.083-.368m-3.106-3.889a.956.956,0,0,1,0-1.912.956.956,0,0,1,0,1.912m.885-3.481a2.355,2.355,0,0,0-1.91.228c-1.081.59-2.045-1.061-.965-1.651a4.334,4.334,0,0,1,3.383-.421.957.957,0,0,1-.508,1.843M372.665,52a5.873,5.873,0,0,1-3.963,0c-1.161-.392-.66-2.238.508-1.843a4.178,4.178,0,0,0,2.946,0c1.158-.425,1.654,1.423.508,1.843m1.929-9.079a.956.956,0,0,1,0-1.912.956.956,0,0,1,0,1.912m.78-3.253a2.265,2.265,0,0,0-1.867-.173A.957.957,0,0,1,373,37.651a4.242,4.242,0,0,1,3.34.366c1.082.588.116,2.238-.965,1.651" transform="translate(-244.623 -21.397)" fill="#fff"/>
          <path id="パス_737" data-name="パス 737" d="M363.875,28.769a.943.943,0,0,1-.182-1.708c2.118-1.13,3.464-3.626,4.19-5.794.37-1.1,2.051-.705,1.882.34.32-.347.644-.705.986-1.068A1.009,1.009,0,0,1,371.779,19c4.974,1,8.532,3.672,9.909,8.673a.916.916,0,0,1-.8,1.168,2.136,2.136,0,0,0,1.232.914.875.875,0,0,1-.023-.181.911.911,0,0,1-.033-.361c.326-3.229.725-6.62-1.275-9.414-2.472-3.454-7.627-6.016-11.4-3.012a.979.979,0,0,1-.888.186c-2.765-.107-5.135,3.526-5.72,5.85a13.2,13.2,0,0,0,.062,5.744,1.02,1.02,0,0,1,.592.742,2.406,2.406,0,0,0,.444-.541" transform="translate(-246.998 -10.534)" fill="#fff"/>
          <path id="パス_738" data-name="パス 738" d="M381.476,61.557a.956.956,0,0,0,0,1.912.956.956,0,0,0,0-1.912" transform="translate(-259.308 -41.945)" fill="#323232"/>
          <path id="パス_739" data-name="パス 739" d="M404.835,50.984a4.24,4.24,0,0,0-3.34-.366A.957.957,0,0,0,402,52.461a2.267,2.267,0,0,1,1.867.173c1.081.588,2.047-1.062.965-1.651" transform="translate(-273.12 -34.364)" fill="#323232"/>
          <path id="パス_740" data-name="パス 740" d="M376.2,50.9c-1.08.59-.117,2.241.965,1.651a2.353,2.353,0,0,1,1.91-.228.957.957,0,0,0,.508-1.843,4.334,4.334,0,0,0-3.383.421" transform="translate(-256.017 -34.278)" fill="#323232"/>
          <path id="パス_741" data-name="パス 741" d="M405.964,61.557a.956.956,0,0,0,0,1.912.956.956,0,0,0,0-1.912" transform="translate(-275.994 -41.945)" fill="#323232"/>
          <path id="パス_742" data-name="パス 742" d="M393.9,79.827h.255a.982.982,0,0,0,.956-.956q-.017-.127-.034-.254a.954.954,0,0,0-.246-.422.993.993,0,0,0-.676-.28H393.9a.982.982,0,0,0-.956.956c.011.085.023.17.034.254a.954.954,0,0,0,.246.422.992.992,0,0,0,.676.28" transform="translate(-267.748 -53.091)" fill="#323232"/>
          <path id="パス_743" data-name="パス 743" d="M391.491,90.132a4.178,4.178,0,0,1-2.946,0c-1.168-.394-1.67,1.451-.508,1.843a5.873,5.873,0,0,0,3.963,0c1.145-.421.651-2.269-.508-1.843" transform="translate(-263.958 -61.373)" fill="#323232"/>
          <path id="パス_744" data-name="パス 744" d="M342.861,188.141l-2.245-20.313c-.134-1.209-2.047-1.223-1.912,0l2.245,20.313c.133,1.209,2.047,1.223,1.912,0" transform="translate(-230.788 -113.735)" fill="#323232"/>
          <path id="パス_745" data-name="パス 745" d="M329.352,240.039c-1.169.369-.67,2.215.508,1.843a17.9,17.9,0,0,1,4.647-.831c1.225-.053,1.232-1.965,0-1.912a19.921,19.921,0,0,0-5.155.9" transform="translate(-223.966 -162.948)" fill="#323232"/>
          <path id="パス_746" data-name="パス 746" d="M362.873,254.963c-2.508-4.244-5.024-8.485-7.623-12.674-.648-1.043-2.3-.084-1.651.965,2.587,4.169,5.092,8.391,7.589,12.616a1.587,1.587,0,0,0,.769-.4,1.587,1.587,0,0,1-.769.4l.034.058a.882.882,0,0,0,.62.446.965.965,0,0,1-.2-.269.878.878,0,1,0,1.235-1.142" transform="translate(-240.84 -164.788)" fill="#323232"/>
          <path id="パス_747" data-name="パス 747" d="M361.212,172.37c-2.273-3.068-4.882-5.839-7.425-8.679a59.508,59.508,0,0,1-3.885-4.667c-.633-.872.1-1.157.807-1.652a12.933,12.933,0,0,0,1.1-.878c.928-.811-.428-2.159-1.352-1.352-.956.835-2.47,1.284-2.828,2.629-.442,1.662,1.417,3.3,2.368,4.454,3.106,3.775,6.647,7.175,9.562,11.109.724.978,2.384.025,1.651-.965" transform="translate(-236.83 -105.544)" fill="#323232"/>
          <path id="パス_748" data-name="パス 748" d="M389.061,220.214a.956.956,0,0,0,0,1.912.956.956,0,0,0,0-1.912" transform="translate(-264.476 -150.053)" fill="#323232"/>
          <path id="パス_749" data-name="パス 749" d="M389.061,250.272a.956.956,0,0,0,0-1.912.956.956,0,0,0,0,1.912" transform="translate(-264.476 -169.232)" fill="#323232"/>
          <path id="パス_750" data-name="パス 750" d="M444.584,131.548c-.181-3-.054-6.908-2.692-8.968-3-2.346-7.344-2.33-10.389-4.71a1.061,1.061,0,0,0-1.547.3,3.3,3.3,0,0,1,1.563,1.061,3.3,3.3,0,0,0-1.563-1.061.747.747,0,0,0,.2,1.05,13.329,13.329,0,0,0,2.188,1.373.9.9,0,0,0-.716.888q-.073,3.157-.147,6.314a.956.956,0,0,0,1.912,0q.074-3.157.147-6.314a.965.965,0,0,0-.059-.357c1.922.827,3.963,1.406,5.9,2.254,3.767,1.654,3.2,6.439,3.406,9.915a207.85,207.85,0,0,1,.457,24.753.842.842,0,0,0,.9.92,4.117,4.117,0,0,0,.445-1.184,4.117,4.117,0,0,1-.445,1.184.969.969,0,0,0,1.01-.92c.526-8.832-.031-17.682-.562-26.5" transform="translate(-292.879 -80.167)" fill="#323232"/>
          <path id="パス_751" data-name="パス 751" d="M443.23,239.827a7.8,7.8,0,0,1,4.129,1.46c1.01.707,1.966-.949.965-1.651a9.659,9.659,0,0,0-5.094-1.721c-1.23-.065-1.226,1.846,0,1.912" transform="translate(-301.388 -162.114)" fill="#323232"/>
          <path id="パス_752" data-name="パス 752" d="M355.245,163.812a16.7,16.7,0,0,1-1.329-2.049.927.927,0,0,0,.106-.032c3.415-1.408,2.925-5.821,2.849-8.875q-.175-7.037-.351-14.073-.185-7.412-.37-14.825a.941.941,0,0,0-.01-.44v0q-.257-10.326-.515-20.651l-.215-8.627a.968.968,0,0,0-1.319-.868,59.038,59.038,0,0,0,3.61-6.24.963.963,0,0,0-.321-1.242,20,20,0,0,0-1.463,2.116,20,20,0,0,1,1.463-2.116.847.847,0,0,0-1.33.277,65.2,65.2,0,0,1-10.836,15.323c-1.259-2.732-4.08-5.538-7.189-5.945l8.515-11.79c.721-1-.936-1.954-1.651-.965l-8.639,11.963a.915.915,0,0,0-.07-.754l-1.175-2.2a.937.937,0,0,0-1.687.138,6.6,6.6,0,0,0,.934.532,6.6,6.6,0,0,1-.934-.532.906.906,0,0,0,.037.827l1.175,2.2a.865.865,0,0,0,1.294.306,2.455,2.455,0,0,1-.615-1.529,2.455,2.455,0,0,0,.615,1.529,1.154,1.154,0,0,0,.1-.07l-.076.105a4.66,4.66,0,0,0,.313.348,4.66,4.66,0,0,1-.313-.348l-.507.7a.765.765,0,0,0-.042.921,17.478,17.478,0,0,1-3.522,2.9c-.891-.576-1.871-.983-2.747-1.588a.808.808,0,0,0-1.178.211,1.885,1.885,0,0,1,.98,1.028,1.885,1.885,0,0,0-.98-1.028,1,1,0,0,0,.213,1.439c.647.447,1.352.786,2.036,1.165a12,12,0,0,0-1.086.973c-1.16,1.191-2.163,2.506-3.271,3.74a14.676,14.676,0,0,0-1.012,1.155c-1.354-1.528-3.143-2.634-4.432-4.226a1.043,1.043,0,0,0-.117-.118c1.033-1.894,3.159-3.785,5.411-3.663a.885.885,0,0,0,.879-1.2,2.049,2.049,0,0,0-1.144.484,2.049,2.049,0,0,1,1.144-.484A.931.931,0,0,0,325.6,97c-2.969-.161-5.877,2.266-7.161,4.791-2.306-3.5-4.741-6.889-7.181-10.293a16.872,16.872,0,0,1-3.1-6.009c-.814-3.558-.428-7.436-.271-11.043.229-5.281.612-10.553.911-15.83.151-2.664-.175-5.831,1.621-8.021,1.722-2.1,5.2-2.387,7.654-3.261a1.021,1.021,0,0,0,.388-1.645.728.728,0,0,0,.176-.069c-.422.1-.843.209-1.265.329.422-.12.843-.227,1.265-.329a.851.851,0,0,0,.366-.4,10.149,10.149,0,0,1,5.312-5.1,1,1,0,0,0,.374-.263q.194.225.4.44v1.878a1.105,1.105,0,0,0-.727.641c-.357.549-.646,1.14-.956,1.717.22-.057.44-.115.659-.178-.22.063-.439.12-.659.178a10.628,10.628,0,0,1-.557.941.812.812,0,0,0,.179,1.155c.025-.119.05-.238.081-.362-.031.124-.056.243-.081.362a1,1,0,0,0,1.472-.191c.424-.624.745-1.312,1.108-1.974,1.814,1.4,3.664,2.76,5.47,4.175L326.1,52.786c-.946.789.413,2.134,1.352,1.352l4.506-3.755q.108,4.566.215,9.131a.956.956,0,0,0,1.912,0q-.108-4.573-.216-9.145l3.666,3.134c.93.8,2.289-.551,1.352-1.352l-4.376-3.741a1.048,1.048,0,0,0-.147-.1l4.843-4.516a23.347,23.347,0,0,0,1.725,2.123.957.957,0,0,0,.251.2c-1.428,8.855-4.9,17.661-8.622,25.776-1.112-1.988-2.155-4.017-3.1-6.089a71.854,71.854,0,0,1-5.582-17.732.782.782,0,0,0-.977-.67,6.593,6.593,0,0,0,.2,2.375,6.593,6.593,0,0,1-.2-2.375,1.027,1.027,0,0,0-.867,1.179,73.233,73.233,0,0,0,4.42,15.014,77.173,77.173,0,0,0,3.363,7.259,28.779,28.779,0,0,0,2.524,4.478l.066.084a7.2,7.2,0,0,0,.019.8V88.277c0,.254-.025.528-.012.789-.107.193-.189.435-.272.615-1.085,2.331-2.047,4.72-2.912,7.141-.415,1.16,1.432,1.66,1.843.508q.989-2.766,2.169-5.457a2,2,0,0,1-.58-.681,2,2,0,0,0,.58.681c.181-.41.362-.82.551-1.227a4.305,4.305,0,0,0,.545-1.727c.122-2.579,0-5.193,0-7.775a37.188,37.188,0,0,0,0-5.948,4.494,4.494,0,0,0-.711-1.577.814.814,0,0,0,.433-.437l.1-.216a.929.929,0,0,0,1.574.449c3.228-3.482,6.289-7.124,9.368-10.737,1.041-1.221,2.976-2.758,2.21-4.557-.511-1.2-2.226-1.954-3.246-2.648s-1.978.962-.965,1.651l1.318.9c.729.5,1.315.613.8,1.577-.73,1.373-2.265,2.662-3.278,3.845-2.363,2.758-4.721,5.529-7.18,8.2,3.658-8.092,7.023-16.8,8.353-25.564a1.02,1.02,0,0,0-.61-1.1.971.971,0,0,0-.223-.421c-.147-.165-.294-.333-.439-.5a5.82,5.82,0,0,1-.9-.342,5.82,5.82,0,0,0,.9.342,14.053,14.053,0,0,1-1.444-1.935,1.047,1.047,0,0,0-.1-.141,1.077,1.077,0,0,0-.336-.416l.107-2.352a.99.99,0,0,0-.005-.1c1.251-1.9,1.564-4,1.907-6.373a4.88,4.88,0,0,0,3.211-4.011,3.7,3.7,0,0,0-1.706-3.986c.4-4.247.307-8.2-2.9-11.458-3.369-3.423-8.458-5.035-12.58-2.2-3.269-.2-6.015,3.285-7.153,5.961a13.592,13.592,0,0,0-.43,7.883,4.538,4.538,0,0,0-1.48,3.49,6.064,6.064,0,0,0,3.308,5.023c.127.8.266,1.6.4,2.4a6.776,6.776,0,0,0,.947,2.527,12.05,12.05,0,0,0-6.232,5.882.978.978,0,0,0,.288,1.216c-.025.007-.049.009-.075.018-2.281.814-4.84,1.207-6.952,2.432a7.6,7.6,0,0,0-3.433,5.677c-.112.993-.2,1.991-.278,2.991a3.858,3.858,0,0,0-2.547,2.742,19.129,19.129,0,0,0,.131,3.29c.055,1.372.129,2.743.212,4.113q.349,5.8.865,11.58a.978.978,0,0,0,.174.482,41.614,41.614,0,0,0,.279,5.453,15.26,15.26,0,0,0,2.53,6.686c1.761,2.658,3.645,5.23,5.491,7.83a5.166,5.166,0,0,1,.148-.565,5.166,5.166,0,0,0-.148.565c1.16,1.633,2.306,3.277,3.4,4.96a.97.97,0,0,0,1.448.208,1.079,1.079,0,0,0,.074.112c1.378,1.7,3.333,2.841,4.712,4.542a.785.785,0,0,0,.639.325,2.722,2.722,0,0,0,1.746,1.655,2.2,2.2,0,0,0,.954,1.443,12.737,12.737,0,0,0-11.222,5.183,16.835,16.835,0,0,1-1.818-5.677,32.3,32.3,0,0,1,.292-3.814q.129-2.963.258-5.927a.827.827,0,0,0-.649-.885,10.761,10.761,0,0,1-.319,3.364,10.761,10.761,0,0,0,.319-3.364.976.976,0,0,0-1.263.885c-.091,2.1-.078,4.224-.274,6.312-.037.392-.082.776-.124,1.158-.013,0-.026,0-.039.005-2.418.58-2.774,3.056-3.187,5.148q-.484,2.452-.969,4.9c-.051.259-.116.53-.182.805q.018-6.17.036-12.339.021-7.285.042-14.569a.956.956,0,0,0-1.912,0q-.02,6.8-.039,13.592a.925.925,0,0,0-1.164-.778l-1.092.285a.969.969,0,0,0-.7.922c.414,12.567-.3,25.143.116,37.709.04,1.227,1.952,1.232,1.912,0-.406-12.322.268-24.653-.1-36.976l.37-.1a.85.85,0,0,0,.655-.664l-.07,24.144-.062,21.482c0,1.232-.042,2.47-.01,3.7A7.544,7.544,0,0,0,313.591,164h21.99a.915.915,0,0,0,.52-.151,23.917,23.917,0,0,1-1.318,6.892.847.847,0,0,0,.016.631.817.817,0,0,0,.048.556c1.215,2.909,3.7,7.581,7.2,8.108,3.161.477,4.59-2.5,5.357-5.131a16.027,16.027,0,0,0,2.473,2.169c1.45,1.058,3.154,2.364,5,1.382,1.56-.831,2.681-3.085,3.022-4.739a12.49,12.49,0,0,0-2.65-9.9M332.5,75.538c.045.063.03.049,0,0m5.511-33.247-5.465,5.1c-1.84-1.447-3.73-2.83-5.581-4.261a1.044,1.044,0,0,0,.028-.237v-.962A9.912,9.912,0,0,0,332.6,43.7a8.183,8.183,0,0,0,5.453-2.34q-.021.466-.042.933M322.364,31.329a4.761,4.761,0,0,1-1.524-2.67c-.084-.753.183-2.333,1.158-2.226.712.078,1-.537.882-1.091a1.107,1.107,0,0,1-.733.218,1.107,1.107,0,0,0,.733-.218,1.018,1.018,0,0,0-.592-.742,13.2,13.2,0,0,1-.062-5.745c.584-2.324,2.954-5.957,5.72-5.85a.979.979,0,0,0,.888-.186c3.775-3,8.929-.442,11.4,3.012,2,2.794,1.6,6.185,1.275,9.414a.923.923,0,0,0,.033.361.9.9,0,0,0,.023.181,2.379,2.379,0,0,0,.652.09,2.379,2.379,0,0,1-.652-.09.739.739,0,0,0,.666.581c2.285.344.733,4.488-1.093,4.608a.963.963,0,0,0-.91.9.916.916,0,0,0-.1.3c-.328,2.279-.465,4.587-2.017,6.4-1.427,1.668-3.22,3.2-5.511,3.211a8.91,8.91,0,0,1-7.215-4.112c-1.164-1.643-1.23-4.011-1.494-5.967-.113-.84-1.029-.85-1.53-.378M306.022,59.943s.025-.032.066-.084c-.015.066-.035.1-.066.084m.45,4.392c-.041-.824-.079-1.648-.107-2.472-.018-.53-.025-1.06-.041-1.59a4.534,4.534,0,0,0-.025-.67c.12-.142.268-.313.426-.482-.1,1.736-.178,3.476-.253,5.214m47.786,60.376q.316,12.7.633,25.408c.05,2,1.048,8.77-1.378,9.771a1,1,0,0,0-.391.286,39.076,39.076,0,0,1-2.641-9.906c-.075-.487-.132-.976-.181-1.464l.01-.007c.011-.009.327-.135.444-.172.247-.08.5-.145.748-.219a4.177,4.177,0,0,0,1.489-.725.962.962,0,0,0,0-1.352.978.978,0,0,0-1.352,0c-.011.009-.327.134-.444.172-.247.08-.5.145-.748.22-.1.03-.2.063-.292.1-.195-4.134.189-8.3-.271-12.425a35.474,35.474,0,0,0-2.93-9.84,1.009,1.009,0,0,0,.115.013l7.189.144m-7.948-1.676-.128-.3a1.059,1.059,0,0,0,.182-.135,27.9,27.9,0,0,0,5.268-6.326c.732.6,1.057,2.124,1.307,2.906.382,1.193.709,2.4,1.03,3.613l-6.9-.138a.846.846,0,0,0-.759.38m7.741-6.626.007.261a4.256,4.256,0,0,0-1.5-2.1c.236-.479.461-.973.675-1.485a15.42,15.42,0,0,0,.7-1.733q.063,2.527.126,5.055m-8.267-12.733c1.724-1.812,3.356-3.673,4.886-5.6q-.086-.413-.169-.829.083.416.169.829,1.48-1.866,2.828-3.823.183,7.35.366,14.7c-.062-.286-.129-.569-.186-.845-.46-2.239-.943-4.473-1.41-6.711a.813.813,0,0,0-.909-.682,8.732,8.732,0,0,0,.417.994,8.732,8.732,0,0,1-.417-.994.992.992,0,0,0-.934,1.19c.363,1.742.735,3.483,1.1,5.225a15.367,15.367,0,0,1,.633,3.223,6.973,6.973,0,0,1-.774,2.228,21.488,21.488,0,0,1-2.963,5.035,1.039,1.039,0,0,0-.067-.1,13.681,13.681,0,0,0-10.854-5.131,19.564,19.564,0,0,0,3.025-3.365c1.366-1.78,2.329-3.883,3.756-5.6a.915.915,0,0,0,1.5.263m-19.073,4.869c-.717.184-.425-.487-.179-.848a26.709,26.709,0,0,1,1.8-2.058,25.651,25.651,0,0,1,4.993-4.666,15.819,15.819,0,0,0,3.931-3.457,1.01,1.01,0,0,0,.092-.153c2.364-.064,4.661,2.312,5.851,4.385-1.775,1.977-2.852,4.465-4.515,6.548a20.768,20.768,0,0,1-2.277,2.474c-.458.412-.926.929-.943.257a1.32,1.32,0,0,1,.052-.364q.168-.208.327-.423c.787-.988,1.452-1.979,1.883-2.6.617-.883-.795-1.983-1.5-1.158a19.572,19.572,0,0,0-2.152,2.858c-.155.19-.309.379-.468.565-.6.7-1.511,1.875-2.244,1.253l3.749-4.859c.66-.856-.789-1.969-1.5-1.158a37.833,37.833,0,0,1-4.651,5.066,5.86,5.86,0,0,1-.472.391c-.088-.025-.348-.044-.366-.143l-.174-.279c.185-.21.3-.457.5-.691.442-.527.983-.984,1.446-1.495.265-.292.525-.588.785-.884.765-.845,1.519-1.7,2.339-2.491.889-.86-.448-2.181-1.352-1.352-1.235,1.133-2.3,2.438-3.425,3.674a19.262,19.262,0,0,0-1.525,1.6m3.119,3.889c-.186-.047-.373-.092-.561-.132a3.424,3.424,0,0,0,.353-.174c.068.108.137.213.208.306m5.75,49.652H315.776c-.938,0-1.886.042-2.824,0a5.565,5.565,0,0,1-5.231-5.557c-.038-1.078.006-2.167.009-3.246q.043-14.9.086-29.8c.777,1.4,2.818,1.282,4.306,1.3,1.558.02,3.119-.008,4.676-.058a.9.9,0,0,0,.819-.531h0a.925.925,0,0,0-.819-1.381,51.238,51.238,0,0,1-6.4.005c-.729-.069-.907-.386-.908-1.174a11,11,0,0,1,.363-1.839l.545-2.759c.269-1.363.37-4.591,1.673-5.654a8.271,8.271,0,0,0,.1,1.13,27.207,27.207,0,0,0,2.477,6.748.821.821,0,0,0,.4.429c.013.017.022.035.037.052L318.9,124.2h0l1.451,1.688a.9.9,0,0,0,.365.262c.5,4.255,1.021,8.566,2.68,12.551a42.459,42.459,0,0,0,5.6,9.015,1.007,1.007,0,0,0-.273-.041l-9.647-.036-5.4-.02c-1.283,0-2.791.091-3.858-.711-.984-.739-1.937.919-.965,1.651a7.232,7.232,0,0,0,4.3.969c1.766.014,3.533.013,5.3.02l10.267.039a.905.905,0,0,0,.919-1.012,38.225,38.225,0,0,1,5.317,8.6,16.3,16.3,0,0,1,1.126,5.046.923.923,0,0,0-.495-.136m-3.406-13.279a70.079,70.079,0,0,1-6.209-9.082c-2.219-4.286-2.822-9.111-3.374-13.841a.993.993,0,0,0-.66-.834.967.967,0,0,0-.234-.514l-4.782-5.562c2.755-4.722,8.976-6.289,13.939-4.214a11.453,11.453,0,0,0,.01,7.432c.719,2.552,1.924,4.928,2.8,7.423a63.859,63.859,0,0,1,1.853,7.539,31.743,31.743,0,0,0,2.465,7.17c1.129,2.31,2.489,4.507,3.53,6.86a19.7,19.7,0,0,1,1.855,7.643,32.6,32.6,0,0,0,.014,3.333c.14,1.25.421,2.478.672,3.709.233,1.143.424,2.291.682,3.421-1.6,3.059-5.312.8-7.353-.7a19.659,19.659,0,0,0,.011-10.166,31.457,31.457,0,0,0-5.224-9.619m13.766,24.122c-.46,1.961-1.546,6.687-4.563,4.837-2.154-1.321-3.745-4.09-4.688-6.348a1.094,1.094,0,0,0-.077-.142c0-.01.009-.018.012-.028q.115-.343.222-.69a8.954,8.954,0,0,0,5.333,2.137,5.052,5.052,0,0,0,3.2-1.169c.1.271.207.54.325.807.08.179.17.348.259.518-.009.027-.02.05-.027.078m1.3-3.836a.864.864,0,0,0-.675-.287c-.2-.9-.348-1.811-.514-2.7a28.749,28.749,0,0,1-.779-6.49,18.9,18.9,0,0,0-.869-6.129c-1.338-4.424-4.15-8.149-5.786-12.44a48.4,48.4,0,0,1-1.845-7.23,44.169,44.169,0,0,0-2.4-7.625c-1.389-3.39-3.185-7.592-1.633-10.93.032-.011.063-.017.095-.031a11.972,11.972,0,0,1,14.171,3.628.961.961,0,0,0,.2.186c-.566.623-1.167,1.23-1.805,1.833-.261-.633-.516-1.27-.76-1.912-.432-1.139-2.281-.645-1.843.508,1.555,4.1,3.723,7.99,4.716,12.283.953,4.12.653,8.407.687,12.6a44.75,44.75,0,0,0,1.8,12.567,32.834,32.834,0,0,0,2.083,5.3,40.833,40.833,0,0,0,2.532,3.807,7.818,7.818,0,0,1,.616,1.187,1.045,1.045,0,0,0-.1.12c-.761,1.139-1.579,3.546-2.925,4.077-1.431.565-4.04-1.371-4.969-2.334m5.174,7.4a12.019,12.019,0,0,1-4.34-3.743,8.226,8.226,0,0,1-.507-.9c1.473,1.018,3.326,1.825,4.834,1.525,1.669-.332,2.685-2.1,3.557-3.658a13.182,13.182,0,0,1,.183,1.4c.145,1.971-.923,6.794-3.728,5.375" transform="translate(-206.447 -6.565)" fill="#323232"/>
          <path id="パス_753" data-name="パス 753" d="M441.563,190.82c.42-5.836,1.2-11.639,1.615-17.475.088-1.228-1.824-1.222-1.912,0-.42,5.836-1.2,11.639-1.615,17.475-.088,1.228,1.824,1.222,1.912,0" transform="translate(-299.576 -117.491)" fill="#323232"/>
          <path id="パス_754" data-name="パス 754" d="M369.358,34.483a14.75,14.75,0,0,0,1.969-1.868c.169-1.046-1.511-1.445-1.881-.34-.726,2.168-2.072,4.665-4.19,5.794a.943.943,0,0,0,.182,1.708,3.544,3.544,0,0,1,.416-.515,3.544,3.544,0,0,0-.416.515.911.911,0,0,0,.783-.058c2.557-1.364,4.188-4.307,5.069-6.937a1.018,1.018,0,0,0,.038-.168,14.75,14.75,0,0,1-1.969,1.868" transform="translate(-248.56 -21.542)" fill="#323232"/>
          <path id="パス_755" data-name="パス 755" d="M399.006,35.2c-1.377-5-4.935-7.672-9.909-8.673a1.009,1.009,0,0,0-1.028,1.538c.178-.189.359-.378.55-.569-.19.19-.372.38-.55.569a.843.843,0,0,0,.52.3c4.326.871,7.365,2.95,8.574,7.338a.888.888,0,0,0,1.041.66,2.278,2.278,0,0,1-.346-1.226,2.278,2.278,0,0,0,.346,1.226.916.916,0,0,0,.8-1.168" transform="translate(-264.316 -18.061)" fill="#323232"/>
          <path id="パス_756" data-name="パス 756" d="M494.592,405.269q-1.663,8.587-4.035,17.008a.956.956,0,0,0,1.843.508q2.372-8.419,4.036-17.008c.233-1.2-1.61-1.717-1.843-.508" transform="translate(-334.237 -275.679)" fill="#323232"/>
          <path id="パス_757" data-name="パス 757" d="M494.96,365.633c-.663-2.385-1.253-4.79-1.828-7.2q-1.364-5.72-2.589-11.472a.8.8,0,0,0-.724-.678c.219.62.435,1.249.624,1.908-.188-.659-.4-1.289-.624-1.908a1,1,0,0,0-1.12,1.186c1.381,6.493,3,12.915,4.609,19.353.47,1.879-.755,2.464-2.423,2.681-1.327.172-2.664.3-3.993.465-1.989.247-7.213,1.553-8.093-1.054a14.468,14.468,0,0,1-.38-3.406c-.106-1.349-.222-2.7-.323-4.048-.195-2.587-.363-5.185-.317-7.781a36.152,36.152,0,0,1,.559-5.559c1.658-.82,3.016-2.642,4.108-4.33a2.913,2.913,0,0,0,3.03,2.562c1.863.042,3.617-.568,3.519-2.508a13.918,13.918,0,0,1-.463-2.026v0a13.918,13.918,0,0,0,.463,2.026,3.627,3.627,0,0,0-.048-.427,52.674,52.674,0,0,0-2.111-8.562,1.052,1.052,0,0,0-.091-.194,55.41,55.41,0,0,0-3.476-8.587,42.945,42.945,0,0,0-2.617-4.385,3.187,3.187,0,0,0-3.087-1.725c-3.691.5-1.292,5.209-.525,7.159.993,2.526,1.959,5.063,2.941,7.594q-.418,1.353-.841,2.711a19.517,19.517,0,0,0-3.619,3.7c-1.009,1.354-2.663,3.228-2.141,5.07a3.4,3.4,0,0,0,2.962,2.275,36.96,36.96,0,0,0-.463,4.723,86.084,86.084,0,0,0,.387,9.307c.116,1.469.24,2.938.349,4.409a7.654,7.654,0,0,0,.8,3.552c1.423,2.3,4.6,1.9,6.887,1.7,1.672-.148,3.328-.41,4.995-.594a15.988,15.988,0,0,0,3.675-.572c2.645-.945,2.641-3.017,1.988-5.366m-16.4-39.846c-.217-.549-.45-1.1-.642-1.654-.2-.582-1.216-2.824.5-2.157.8.313,1.812,2.573,2.242,3.314q.875,1.507,1.626,3.082c.4.832.76,1.677,1.1,2.532a1.55,1.55,0,0,1,.688.4,1.55,1.55,0,0,0-.688-.4c.657,1.641,1.227,3.317,1.756,5.006a1.025,1.025,0,0,0,.109.234,45.175,45.175,0,0,1,1.24,4.774,12.583,12.583,0,0,1,.557,2.728c-.038.83-1.362,1.1-2.126.729-.918-.448-.873-2.322-1-3.165l-.444-3.051-.977-6.713a.862.862,0,0,0-.173-.421,1.065,1.065,0,0,0-.49,1.239,1.065,1.065,0,0,1,.49-1.239,1,1,0,0,0-1.6.37L480,329.486q-.715-1.852-1.443-3.7m2.22,12.81c.217-.16.433-.321.657-.471a.927.927,0,0,0,.14.1q.205,1.416.412,2.831a.988.988,0,0,0-.245.267,25.459,25.459,0,0,1-2.781,3.778c.516-2.188,1.153-4.355,1.818-6.509m-4.1,7.99a1.519,1.519,0,0,1-.978-.346c-.782-.609-.419-1.32-.008-2.017a18.993,18.993,0,0,1,2.364-3.182c-.526,1.835-1,3.681-1.378,5.544" transform="translate(-322.492 -218.007)" fill="#323232"/>
          <path id="パス_758" data-name="パス 758" d="M351.1,123.558c-.093,2.923-1.228,5.737-1.322,8.664-.039,1.23,1.872,1.229,1.912,0,.093-2.923,1.228-5.737,1.322-8.664.039-1.23-1.872-1.229-1.912,0" transform="translate(-238.339 -83.564)" fill="#323232"/>
        </g>
      </g>
    </g>
  </g>
</svg>
