<svg xmlns="http://www.w3.org/2000/svg" xmlns:xlink="http://www.w3.org/1999/xlink" width="183" height="183" viewBox="0 0 183 183">
  <defs>
    <clipPath id="clip-path">
      <rect id="長方形_378" data-name="長方形 378" width="183" height="183" transform="translate(335 2768)" fill="#fff" stroke="#707070" stroke-width="1" opacity="0.619"/>
    </clipPath>
    <clipPath id="clip-path-2">
      <rect id="長方形_344" data-name="長方形 344" width="130.583" height="170.091" fill="none"/>
    </clipPath>
  </defs>
  <g id="step1_illust" transform="translate(-335 -2768)" clip-path="url(#clip-path)">
    <g id="グループ_678" data-name="グループ 678" transform="translate(365.203 2775.218)">
      <path id="パス_1125" data-name="パス 1125" d="M-749.421,2272.17l-17.147,5.6s-10.2.554-10.719,5.367-10.531,35.5-10.531,35.5-3.019,8.608-3.713,14.37.935,8.678.935,8.678,2.7,9.133,12.354,9.676,98.992,3.313,98.992,3.313,6.809.173,11-3.312,5.749-10.628,5.749-10.628-3.144-12.93-7.632-26.317-10.323-27.229-10.323-27.229a15.367,15.367,0,0,0-4.439-6.894c-3.331-2.823-8.883-4.4-8.883-4.4l-18.1-3.727-5.055-2.955Z" transform="translate(792.435 -2202.362)" fill="#e7e7e7"/>
      <g id="グループ_633" data-name="グループ 633" clip-path="url(#clip-path-2)">
        <path id="パス_999" data-name="パス 999" d="M111.074,160.341c.615,1.143,1.241,2.282,1.827,3.44q.131.259.261.521a37.531,37.531,0,0,1-.772-6.287,51.005,51.005,0,0,1,.26-6.2c.07-.769.143-1.539.138-2.312a4.37,4.37,0,0,0-.095-1.076c-.015-.057-.034-.113-.05-.169.052.183-.068-.061,0-.005-.089-.073-.073-.072-.146-.1a1.056,1.056,0,0,0-.711.018s-.116.063-.166.085l-.01.018a3.4,3.4,0,0,0-.185.349,10.961,10.961,0,0,0-.518,2.039c-.366,2.027-.646,4.066-.949,6.1a.777.777,0,0,1-.556.588c.53,1.013,1.133,1.993,1.672,2.993" transform="translate(-70.784 -95.818)" fill="#fff"/>
        <path id="パス_1000" data-name="パス 1000" d="M111.753,90.56A1.535,1.535,0,0,0,110.716,92c0,.178,0,.357,0,.535v3.335a4.16,4.16,0,0,1,0,.663v6.005a4.038,4.038,0,0,0,.013.63,1.546,1.546,0,0,0,1.5,1.268,1.53,1.53,0,0,0,1.512-1.512c0-.193,0-.388,0-.581V92.2a2.77,2.77,0,0,0-.036-.485c-.029.016-.057.035-.087.05.03-.016.058-.034.087-.05a1.407,1.407,0,0,0-.134-.41,1.519,1.519,0,0,0-1.818-.742" transform="translate(-71.63 -58.543)" fill="#adced5"/>
        <path id="パス_1001" data-name="パス 1001" d="M170.609,157.96A6.339,6.339,0,0,0,174.766,156l-.681.026c-2.629.1-5.261.134-7.893.148a6.264,6.264,0,0,0,4.417,1.788" transform="translate(-107.527 -100.931)" fill="#fff"/>
        <path id="パス_1002" data-name="パス 1002" d="M115.713,148.448c0-.008.007-.011.013-.023,0,.008-.009.016-.013.024h0" transform="translate(-74.867 -96.032)" fill="#adced5"/>
        <path id="パス_1003" data-name="パス 1003" d="M115.657,148.541c-.012.017-.016.028-.007.017l.01-.018h0" transform="translate(-74.823 -96.106)" fill="#adced5"/>
        <path id="パス_1004" data-name="パス 1004" d="M115.691,148.52h0l0,.006h0l0-.006" transform="translate(-74.85 -96.093)" fill="#adced5"/>
        <path id="パス_1005" data-name="パス 1005" d="M176.832,174.966c-.934-.021-1.87,0-2.8,0a7.641,7.641,0,0,0-.992.012,1.275,1.275,0,0,0,0,2.513,7.574,7.574,0,0,0,.992.012h2.8a1.268,1.268,0,0,0,0-2.537" transform="translate(-111.269 -113.197)" fill="#adced5"/>
        <path id="パス_1006" data-name="パス 1006" d="M247.173,103.593v1.837a1.893,1.893,0,0,0,1.769-1.885c.022-1.434,0-2.869,0-4.3,0-.478.013-.957,0-1.435a1.881,1.881,0,0,0-1.767-1.8Z" transform="translate(-159.922 -62.12)" fill="#fff"/>
        <path id="パス_1007" data-name="パス 1007" d="M236.625,102.645V99.029c0-2.171.006-4.342,0-6.513a1.739,1.739,0,0,0-.227-.97,1.526,1.526,0,0,0-1.871-.6c-.87.369-.926,1.178-.926,1.979v10a3.878,3.878,0,0,0,.017.6,1.514,1.514,0,0,0,3.007-.247c0-.208,0-.415,0-.623" transform="translate(-151.139 -58.765)" fill="#adced5"/>
        <line id="線_4" data-name="線 4" transform="translate(47.863 11.58)" fill="#91c8d2"/>
        <path id="パス_1008" data-name="パス 1008" d="M135.506,32.805c-.088.065-.028.022,0,0" transform="translate(-87.643 -21.225)" fill="#adced5"/>
        <path id="パス_1009" data-name="パス 1009" d="M138.589,256.626H167q.226-4.2.4-8.392c.138-3.331.254-6.665.32-10l-.848.466a.874.874,0,0,1-.336,1.516,42.015,42.015,0,0,1-5.888,1.642,43.791,43.791,0,0,1-21.954-.923.912.912,0,0,1-.413-1.441l-.764-.127q.314,4.146.563,8.3.273,4.48.5,8.962" transform="translate(-88.978 -154.139)" fill="#fff"/>
        <path id="パス_1010" data-name="パス 1010" d="M92.579,139.165a.962.962,0,0,1,.053-.971,10.329,10.329,0,0,1-1-1.835.956.956,0,0,1-.77.063,19.294,19.294,0,0,1,.905,2.416,5.509,5.509,0,0,1,.032,3.776.888.888,0,0,1-1.207.316.911.911,0,0,1-.317-1.207c-.084.191.04-.174.057-.236l.016-.058a.051.051,0,0,1,0-.013c.007-.067.012-.134.015-.2.006-.141,0-.283,0-.424,0-.089-.013-.179-.022-.268,0-.007,0-.036-.008-.059a10.691,10.691,0,0,0-.556-2.041,32.257,32.257,0,0,0-1.934-4.133c-.628-1.178-1.255-2.358-1.915-3.519a20.543,20.543,0,0,1-2.3-5.028c-.905-3.6.492-7.116,1.2-10.609a9.853,9.853,0,0,0,.044-4.926,1.151,1.151,0,0,0-.273-.463c-.007,0-.016-.023-.047.012a2.181,2.181,0,0,0-.25.287,7.762,7.762,0,0,0-.753,2.443q-1.477,6.164-2.5,12.424a.89.89,0,0,1-1.085.616.91.91,0,0,1-.616-1.086q.619-3.769,1.4-7.51.391-1.87.823-3.73a21.877,21.877,0,0,1,.874-3.364,2.773,2.773,0,0,1,1.728-1.806,1.768,1.768,0,0,1,.382-.049.7.7,0,0,1-.009-.154c.073-1.071.5-2.057.628-3.112q0-.374,0-.749c-.066-.491-.273-.985-.785-1.016-.444-.028-.723.56-.885.952-.256.619-.418,1.289-.618,1.928q-.69,2.2-1.392,4.4c-.93,2.928-1.867,5.854-2.777,8.788a.907.907,0,0,1-1.49.368c-.031.37-.05.736-.062,1.105a.843.843,0,0,1,.322.02A.91.91,0,0,1,78.1,121.6a19.783,19.783,0,0,0,.589,7.591c1.1,4.655,2.988,9.294,2.826,14.152-.178,5.318-2.81,10.18-5.292,14.745a.794.794,0,0,1-1.11.332l-1.141,2.013a10.971,10.971,0,0,0,1.16.738c4.093,2.244,9.012,1.582,13.328.116l.192-.64a.937.937,0,0,1-.807-1.336c.342-.688.674-1.38,1-2.074a55.8,55.8,0,0,0,3.166-7.533c.263-.861.471-1.742.7-2.613a25.906,25.906,0,0,0,.616-2.8,8.981,8.981,0,0,0-.745-5.129" transform="translate(-47.858 -66.609)" fill="#fff"/>
        <path id="パス_1011" data-name="パス 1011" d="M108.864,131.584a3.4,3.4,0,0,1-1.636-.444c-.047.389-.106.772-.169,1.14-.625,3.6-2.312,7.245-1.149,10.91a56.348,56.348,0,0,1,.985-5.9,4.546,4.546,0,0,1,.987-2.212,2.738,2.738,0,0,1,2.709-.477c1.842.713,1.495,3.235,1.355,4.81a56.535,56.535,0,0,0-.309,6.635,36.014,36.014,0,0,0,.868,6.643.861.861,0,0,1-.464.982,10.365,10.365,0,0,0,1,1.835.856.856,0,0,1,.264-.236.89.89,0,0,1,1.207.317c.028.06.049.12.076.179a11.251,11.251,0,0,0,.8-.8.815.815,0,0,1,.051-.765,14.6,14.6,0,0,0,2.1-7.883.977.977,0,0,1,.02-.172,30,30,0,0,1-5.928-15.2.727.727,0,0,1,.229-.588c-.024-.215-.048-.43-.075-.646a3.223,3.223,0,0,1-2.92,1.871" transform="translate(-68.266 -83.925)" fill="#fff"/>
        <path id="パス_1012" data-name="パス 1012" d="M126.966,19.263a5.523,5.523,0,0,0-.9.424q-.215.124-.422.262-.15.1-.3.209l-.038.028a9.548,9.548,0,0,0-1.481,1.5,18.858,18.858,0,0,0-3.21,8.242,31.039,31.039,0,0,0-.379,8.506.839.839,0,0,1-.537.8,3.371,3.371,0,0,1,1.18,1.192c.118-.163.234-.327.353-.489a.851.851,0,0,1-.086-1.318,20.931,20.931,0,0,0,3.922-4.921c1.148-1.827,2.183-3.723,3.351-5.537a.919.919,0,0,1,1.645.274c.471-.438.912-.913,1.368-1.359a.858.858,0,0,1-.4-.985,6,6,0,0,1,5.264-3.681,10.459,10.459,0,0,1,6.217,1.771,30.319,30.319,0,0,1,5.455,4.681c.845.846,1.7,1.687,2.612,2.458.8.673,1.627,1.3,2.4,2,1.188,1.07,2.817,2.8,4.573,2.551a.906.906,0,0,1,1.085.616.888.888,0,0,1-.616,1.086,4.773,4.773,0,0,1-1.644-.055,6.533,6.533,0,0,0,2.4,2.771,3.37,3.37,0,0,1,.975-.908.886.886,0,0,1-.059-.339,59.054,59.054,0,0,0-.714-10.617.9.9,0,0,1,.616-1.085.953.953,0,0,1,.718.117,7.236,7.236,0,0,0-.288-1.531.9.9,0,0,1-1.737.084,24.941,24.941,0,0,0-1.414-3.653,18.4,18.4,0,0,0-1.846-3.021c-2.923-3.75-7.357-5.424-12.034-5.933a16.733,16.733,0,0,0-7.144.719c-2.1.678-4.356,1.81-5.338,3.768-.51,1.017-2.032.122-1.524-.891.057-.113.121-.221.184-.33a12.352,12.352,0,0,0-1.768,1.189.854.854,0,0,1,.168.313.906.906,0,0,1-.617,1.085m1.752-.816a.905.905,0,0,1,.616,1.085,14.746,14.746,0,0,0-.109,3.358c.061,1.17.18,2.335.245,3.5a.891.891,0,0,1-.882.882.9.9,0,0,1-.882-.882c-.136-2.428-.545-4.916-.073-7.331a.89.89,0,0,1,1.085-.616" transform="translate(-77.45 -8.606)" fill="#fff"/>
        <path id="パス_1013" data-name="パス 1013" d="M111.589,33.456a1.132,1.132,0,0,1-.115-.393,29.765,29.765,0,0,1-.063-4.8,29.363,29.363,0,0,1,2.132-9.726c1.174-2.745,3.06-5.291,5.95-6.349a.849.849,0,0,1,.918.3,12.328,12.328,0,0,1,1.768-1.189c1.408-2.424,4.354-3.748,6.936-4.468a19.427,19.427,0,0,1,3.921-.671,20.228,20.228,0,0,1,4.113.251,21.39,21.39,0,0,1,7.563,2.4c4.335,2.438,6.851,6.726,8.286,11.36a.878.878,0,0,1,.035.385,7.238,7.238,0,0,1,.288,1.531.731.731,0,0,1,.368.5,61.551,61.551,0,0,1,.778,10.95,3.2,3.2,0,0,1,2.892,1.842.937.937,0,0,1,.239-.032c.112,0,.223.006.333.016l.048-.665a.884.884,0,0,1-1.331-.744v-.568q0-2.815,0-5.63a22.411,22.411,0,0,0-1.586-8.31A23.242,23.242,0,0,0,142.523,6.871a24.6,24.6,0,0,0-18.718-.048,23.261,23.261,0,0,0-12.569,12.412,22.261,22.261,0,0,0-1.673,8.5q0,2.472,0,4.943a.811.811,0,0,1-.682.831c.043.211.1.423.155.635a3.181,3.181,0,0,1,2.553-.684" transform="translate(-70.446 -3.233)" fill="#fff"/>
        <path id="パス_1014" data-name="パス 1014" d="M223.174,138.887a20.787,20.787,0,0,1-5.25,6.93c-.46.394-.939.76-1.426,1.112a7.5,7.5,0,0,1,.272,1.772.838.838,0,0,1,.608.8,29.578,29.578,0,0,0,.706,5.448l2.118.958a.877.877,0,0,1,1.293-.61,19.2,19.2,0,0,0,2.749,1.286,44.18,44.18,0,0,0,7.665,1.923c-.109-.249-.214-.495-.32-.741a.887.887,0,0,1-1.614-.193q-.546-2.1-1.076-4.2c-1.3-5.13-2.553-10.272-3.887-15.393a.883.883,0,0,1,.95-1.094c-.124-.925-.207-1.842-.31-2.79a3.271,3.271,0,0,1-.9.354,25.136,25.136,0,0,1-1.579,4.43" transform="translate(-140.075 -86.765)" fill="#fff"/>
        <path id="パス_1015" data-name="パス 1015" d="M148.086,92.323a2.869,2.869,0,0,1-.09.291,3.075,3.075,0,0,1-2.819,1.955c-1.185,0-2.372.017-3.557,0A3.033,3.033,0,1,1,141.6,88.5c.539-.009,1.078,0,1.617,0,1.461,0,3.116-.224,4.2,1a3.129,3.129,0,0,1,.648,1.186.981.981,0,0,1,.123-.054,25.655,25.655,0,0,0,5.056-2.232,20.664,20.664,0,0,0,3.364-2.447c.469-1.2.919-2.423,1.448-3.566a.885.885,0,0,1-.446-1.016,26.034,26.034,0,0,0,.834-3.891q.148-.9.278-1.8c.023-.16.046-.319.068-.479,0,.014,0-.031.034-.243-.008.058-.016.115-.024.173l-.01.071c0-.01.007-.048.012-.081a.905.905,0,0,1,.882-.882.965.965,0,0,1,.638.276c.041-.264.067-.535.083-.812a3.4,3.4,0,0,1-.09-.641c-.007-.2,0-.4,0-.6V68.976c0-2.285-.034-4.573,0-6.858a3.366,3.366,0,0,1,.642-1.93,6.534,6.534,0,0,1-2.4-2.771,9.7,9.7,0,0,1-4.253-2.6c-1.608-1.44-3.319-2.742-4.857-4.261a36.924,36.924,0,0,0-5.023-4.552,9.545,9.545,0,0,0-5.715-1.952,4.233,4.233,0,0,0-3.8,2.4.9.9,0,0,1-1.085.616.81.81,0,0,1-.215-.1c-.456.446-.9.921-1.368,1.359a.781.781,0,0,1-.121.616c-1.193,1.854-2.249,3.793-3.427,5.657a22.27,22.27,0,0,1-4.123,5.159.908.908,0,0,1-1.162.07c-.119.162-.235.327-.353.489a3.144,3.144,0,0,1,.333.795,4.6,4.6,0,0,1,.107,1.167v7.642c0,.937,0,1.873,0,2.81a3.586,3.586,0,0,1-.357,1.548c.027.216.051.431.075.646a.958.958,0,0,1,.653-.294.909.909,0,0,1,.882.882,29.847,29.847,0,0,0,2.36,8.8c2.15,4.8,5.867,9.444,10.992,11.2a12.408,12.408,0,0,0,7.774.2,14.514,14.514,0,0,0,6.6-4.438.89.89,0,0,1,1.248,0,.905.905,0,0,1,0,1.248,15.965,15.965,0,0,1-8.344,5.157c-5.517,1.284-10.978-1.177-14.814-5.073a15.032,15.032,0,0,1-2.253,7.055.872.872,0,0,1-1.575-.126,11.256,11.256,0,0,1-.8.8,11.111,11.111,0,0,1,.828,6.437c-.094.587-.222,1.167-.362,1.744.048.352.086.7.125,1.038a.873.873,0,0,1,1.361.733q.144,1.715.272,3.432l.763.127a.757.757,0,0,1,.882-.261,37,37,0,0,0,5.79,1.356,43.613,43.613,0,0,0,21.114-2.075.821.821,0,0,1,.806.186l.848-.466q.035-1.809.051-3.618c.02-2.739.059-5.514-.188-8.25a.916.916,0,0,1-1.444-.412,32.807,32.807,0,0,1-1.628-9.076.84.84,0,0,1,1.157-.8,7.5,7.5,0,0,0-.272-1.772,26.5,26.5,0,0,1-7.382,3.673.8.8,0,0,1-.569-.012m1.8-25.03a.883.883,0,0,1,0-1.765.883.883,0,0,1,0,1.765m-3.008-7.915a13.387,13.387,0,0,1,8.3.477.9.9,0,0,1,.616,1.085.889.889,0,0,1-1.085.616,12.177,12.177,0,0,0-3.639-.868,11.993,11.993,0,0,0-3.719.391.883.883,0,0,1-.469-1.7m-5.569,8.576a18.4,18.4,0,0,1,2.119-5.259c.54-1,2.064-.109,1.524.891a17.125,17.125,0,0,0-1.916,4.709,9.13,9.13,0,0,0,.466,4.78.891.891,0,0,1-.616,1.086.9.9,0,0,1-1.085-.616,10.931,10.931,0,0,1-.491-5.59m-.019,8.855a.912.912,0,0,1,.624-.258h1.352a.917.917,0,0,1,.624.258.883.883,0,0,1,0,1.248.909.909,0,0,1-.624.258h-1.352a.918.918,0,0,1-.624-.258.883.883,0,0,1,0-1.248M130.51,61.556a.889.889,0,0,1-1.085-.616.908.908,0,0,1,.616-1.085,13.387,13.387,0,0,1,8.3-.477.883.883,0,0,1-.469,1.7,11.991,11.991,0,0,0-3.719-.391,12.18,12.18,0,0,0-3.639.868m3.914,5.391a.883.883,0,0,1,0-1.765.883.883,0,0,1,0,1.765m1.161,16.362a.852.852,0,0,1,.094-1.01.777.777,0,0,1,.084-.094l.007-.006a.766.766,0,0,1,.288-.169l.023-.007a.827.827,0,0,1,.124-.028.713.713,0,0,1,.073-.007c.024,0,.045-.007.07-.007q.616,0,1.233,0,2.9-.016,5.8-.072c1.808-.038,3.635-.045,5.436-.237a.887.887,0,0,1,.762,1.328,8.907,8.907,0,0,1-6.886,4.3,8.661,8.661,0,0,1-7.111-3.983" transform="translate(-79.613 -28.498)" fill="#fff"/>
        <path id="パス_1016" data-name="パス 1016" d="M220.927,137.154A21.4,21.4,0,0,0,224,130.443a3.427,3.427,0,0,1-.492-.214,3.285,3.285,0,0,1-1.6-2.164c-.016.276-.042.548-.083.812a.719.719,0,0,1,.245.607q-.182,1.378-.407,2.75a26.457,26.457,0,0,1-.847,3.968.9.9,0,0,1-1.085.616.824.824,0,0,1-.171-.07c-.528,1.143-.979,2.364-1.447,3.566a18.5,18.5,0,0,0,2.815-3.16" transform="translate(-141.119 -82.859)" fill="#fff"/>
        <path id="パス_1017" data-name="パス 1017" d="M60.167,28.109l.189.6a.883.883,0,0,0,1.7-.469L60.74,24.035l-.189-.6a.883.883,0,0,0-1.7.469l1.319,4.209" transform="translate(-38.052 -14.737)" fill="#323232"/>
        <path id="パス_1018" data-name="パス 1018" d="M37.092,38.289l4.351,3.186.618.452a.886.886,0,0,0,1.208-.317.908.908,0,0,0-.317-1.207L38.6,37.218l-.618-.452a.885.885,0,0,0-1.207.316.908.908,0,0,0,.317,1.208" transform="translate(-23.719 -23.705)" fill="#323232"/>
        <path id="パス_1019" data-name="パス 1019" d="M29.028,59.891l4.187,1.236.609.18a.883.883,0,1,0,.469-1.7l-4.187-1.236-.609-.18a.883.883,0,1,0-.469,1.7" transform="translate(-18.366 -37.628)" fill="#323232"/>
        <line id="線_5" data-name="線 5" transform="translate(47.863 11.58)" fill="#323232"/>
        <path id="パス_1020" data-name="パス 1020" d="M103.316,25.6a17.634,17.634,0,0,0-2.683,2.781,17.634,17.634,0,0,1,2.683-2.781.848.848,0,0,0-.918-.3c-2.89,1.058-4.776,3.6-5.95,6.349a29.356,29.356,0,0,0-2.132,9.726,29.722,29.722,0,0,0,.062,4.8,1.129,1.129,0,0,0,.115.393,3.182,3.182,0,0,0-2.553.684,4.939,4.939,0,0,1,.221,1.253,4.939,4.939,0,0,0-.221-1.253,3.393,3.393,0,0,0-1.268,2.579c-.007.421-.009.842-.012,1.262a2.267,2.267,0,0,0-1.808.065,3.385,3.385,0,0,0-1.521,1.9c-.594,1.467-.979,3.047-1.456,4.556q-.83,2.622-1.664,5.241-.861,2.713-1.709,5.429a.767.767,0,0,0,.212.838,16.766,16.766,0,0,1,.269-1.914,16.766,16.766,0,0,0-.269,1.914.907.907,0,0,0,1.49-.369c.91-2.934,1.847-5.86,2.776-8.788q.7-2.2,1.392-4.4c.2-.639.362-1.309.618-1.928.163-.392.441-.979.885-.952.511.032.719.525.785,1.016q0,.375,0,.749c-.124,1.055-.555,2.042-.628,3.112a.7.7,0,0,0,.009.154,1.771,1.771,0,0,0-.383.049,2.775,2.775,0,0,0-1.728,1.805,21.932,21.932,0,0,0-.874,3.364q-.432,1.86-.823,3.73-.782,3.739-1.4,7.51a.909.909,0,0,0,.616,1.085.889.889,0,0,0,1.086-.616q1.027-6.254,2.5-12.424a7.744,7.744,0,0,1,.753-2.442,2.178,2.178,0,0,1,.249-.287c.031-.035.04-.016.047-.012a1.152,1.152,0,0,1,.273.463,9.857,9.857,0,0,1-.044,4.926c-.709,3.493-2.106,7.012-1.2,10.609a20.543,20.543,0,0,0,2.3,5.028c.66,1.161,1.287,2.341,1.915,3.519a32.3,32.3,0,0,1,1.933,4.133,10.666,10.666,0,0,1,.556,2.041c0,.024.007.052.008.059.01.089.017.178.022.267a4.143,4.143,0,0,1,0,.424c0,.067-.008.134-.015.2a.038.038,0,0,0,0,.013l-.016.057c-.017.063-.14.428-.057.237a.911.911,0,0,0,.317,1.207.889.889,0,0,0,1.208-.317,5.508,5.508,0,0,0-.033-3.776,19.237,19.237,0,0,0-.905-2.416.956.956,0,0,0,.77-.063,6.831,6.831,0,0,1-.375-1.232,6.831,6.831,0,0,0,.375,1.232.862.862,0,0,0,.464-.982,36.008,36.008,0,0,1-.868-6.643,56.452,56.452,0,0,1,.309-6.635c.14-1.575.486-4.1-1.355-4.81a2.737,2.737,0,0,0-2.708.477,4.547,4.547,0,0,0-.987,2.211,56.456,56.456,0,0,0-.985,5.9c-1.162-3.666.525-7.311,1.15-10.91.064-.368.122-.75.169-1.139A3.4,3.4,0,0,0,93.949,64a3.224,3.224,0,0,0,2.921-1.871,7.7,7.7,0,0,0-.473-1.979,7.7,7.7,0,0,1,.473,1.979,3.6,3.6,0,0,0,.356-1.548c0-.936,0-1.873,0-2.81V50.126a4.583,4.583,0,0,0-.107-1.166,3.132,3.132,0,0,0-.332-.795,4.287,4.287,0,0,1-1.361,1.343,2.8,2.8,0,0,1,.035.485V60.139c0,.193,0,.388,0,.581a1.53,1.53,0,0,1-1.512,1.512,1.546,1.546,0,0,1-1.5-1.268,4.083,4.083,0,0,1-.012-.63V54.328a4.251,4.251,0,0,0,0-.664V50.33c0-.178,0-.357,0-.535a1.535,1.535,0,0,1,1.037-1.439,1.518,1.518,0,0,1,1.818.742,1.418,1.418,0,0,1,.134.41,4.287,4.287,0,0,0,1.361-1.343,3.373,3.373,0,0,0-1.181-1.193.839.839,0,0,0,.537-.8,31.053,31.053,0,0,1,.379-8.506,18.854,18.854,0,0,1,3.21-8.242,9.56,9.56,0,0,1,1.481-1.5h0c-.028.022-.088.065,0,0h0l.038-.028c.1-.072.2-.142.3-.209q.206-.138.422-.262a5.525,5.525,0,0,1,.9-.424.906.906,0,0,0,.616-1.085.857.857,0,0,0-.167-.313M94.21,68.731l-.012.023h0c0-.008.009-.016.013-.024m-1.684,8.548c.3-2.036.582-4.075.949-6.1a10.919,10.919,0,0,1,.517-2.039,3.471,3.471,0,0,1,.185-.349c-.008.012-.005,0,.007-.017h0l0-.006h0l0,.006c.049-.022.165-.085.166-.085a1.058,1.058,0,0,1,.71-.018c.073.032.058.031.147.1-.068-.056.052.188,0,0,.017.057.036.112.05.169a4.354,4.354,0,0,1,.095,1.076c0,.773-.068,1.543-.138,2.312a50.936,50.936,0,0,0-.26,6.2,37.524,37.524,0,0,0,.771,6.287q-.129-.262-.261-.521c-.586-1.158-1.211-2.3-1.827-3.44-.539-1-1.142-1.981-1.672-2.994a.779.779,0,0,0,.557-.588" transform="translate(-53.351 -16.338)" fill="#323232"/>
        <path id="パス_1021" data-name="パス 1021" d="M115.669,148.538h0l-.01.018a.186.186,0,0,0,.011-.018" transform="translate(-74.831 -96.105)" fill="#323232"/>
        <path id="パス_1022" data-name="パス 1022" d="M153.579,147.351a.89.89,0,0,0-1.248,0,14.513,14.513,0,0,1-6.6,4.438,12.408,12.408,0,0,1-7.774-.2c-5.124-1.754-8.841-6.4-10.992-11.2a29.848,29.848,0,0,1-2.36-8.8.909.909,0,0,0-.882-.882.958.958,0,0,0-.653.294,8.435,8.435,0,0,0,.512,2.317,8.435,8.435,0,0,1-.512-2.317.727.727,0,0,0-.229.588,30,30,0,0,0,5.928,15.2.975.975,0,0,0-.02.172,14.6,14.6,0,0,1-2.1,7.883.814.814,0,0,0-.051.765,9.877,9.877,0,0,0,.871-1.111,9.877,9.877,0,0,1-.871,1.111.872.872,0,0,0,1.575.126,15.032,15.032,0,0,0,2.253-7.055c3.836,3.9,9.3,6.357,14.814,5.073a15.965,15.965,0,0,0,8.344-5.157.905.905,0,0,0,0-1.248" transform="translate(-79.475 -84.569)" fill="#323232"/>
        <path id="パス_1023" data-name="パス 1023" d="M223.593,129.861a4.083,4.083,0,0,1-.594,1.674,4.083,4.083,0,0,0,.594-1.674.965.965,0,0,0-.637-.276.9.9,0,0,0-.883.882c0,.033-.01.071-.012.08-.022.16-.044.319-.068.479q-.13.9-.278,1.8a26.025,26.025,0,0,1-.834,3.891.886.886,0,0,0,.446,1.016c.085-.185.169-.37.259-.55-.09.18-.174.365-.259.55a.821.821,0,0,0,.17.07.9.9,0,0,0,1.085-.616,26.4,26.4,0,0,0,.848-3.968q.225-1.372.407-2.75a.718.718,0,0,0-.245-.607" transform="translate(-142.888 -83.842)" fill="#323232"/>
        <path id="パス_1024" data-name="パス 1024" d="M224.324,131.624c-.03.212-.036.257-.034.243s.007-.047.01-.071c.008-.058.016-.115.024-.173" transform="translate(-145.116 -85.161)" fill="#323232"/>
        <path id="パス_1025" data-name="パス 1025" d="M176.848,22.266c-1.435-4.635-3.951-8.923-8.286-11.36A21.387,21.387,0,0,0,161,8.507a20.229,20.229,0,0,0-4.113-.252,19.436,19.436,0,0,0-3.921.671c-2.581.719-5.528,2.044-6.935,4.468.162-.09.321-.181.491-.267-.17.085-.329.177-.491.267-.063.109-.128.217-.184.33-.508,1.012,1.014,1.907,1.524.891.982-1.958,3.242-3.09,5.338-3.768a16.738,16.738,0,0,1,7.144-.719c4.676.508,9.111,2.183,12.034,5.933a18.389,18.389,0,0,1,1.846,3.021,24.972,24.972,0,0,1,1.415,3.653.9.9,0,0,0,1.737-.084,4.647,4.647,0,0,0-.711-1.4,4.647,4.647,0,0,1,.711,1.4.884.884,0,0,0-.035-.385" transform="translate(-94.296 -5.324)" fill="#323232"/>
        <path id="パス_1026" data-name="パス 1026" d="M130.609,54.664c-1.168,1.814-2.2,3.711-3.351,5.537a20.938,20.938,0,0,1-3.922,4.921.89.89,0,0,0,0,1.248.843.843,0,0,0,.086.071,3.941,3.941,0,0,1,1.376-1.295,3.941,3.941,0,0,0-1.376,1.295.908.908,0,0,0,1.162-.071,22.26,22.26,0,0,0,4.123-5.158c1.178-1.864,2.233-3.8,3.427-5.657a.783.783,0,0,0,.121-.617,5.944,5.944,0,0,1-2.161,1.383,5.944,5.944,0,0,0,2.161-1.383.919.919,0,0,0-1.645-.274" transform="translate(-79.633 -35.104)" fill="#323232"/>
        <path id="パス_1027" data-name="パス 1027" d="M143.459,28.912a.906.906,0,0,0-.616-1.085.891.891,0,0,0-1.086.616c-.472,2.416-.062,4.9.073,7.331a.9.9,0,0,0,.882.882.891.891,0,0,0,.883-.882c-.066-1.169-.185-2.335-.245-3.5a14.744,14.744,0,0,1,.109-3.358" transform="translate(-91.574 -17.985)" fill="#323232"/>
        <path id="パス_1028" data-name="パス 1028" d="M149.965,86.668a13.387,13.387,0,0,0-8.3.477.909.909,0,0,0-.616,1.086.889.889,0,0,0,1.085.616,12.169,12.169,0,0,1,3.639-.868,11.983,11.983,0,0,1,3.719.392.883.883,0,0,0,.469-1.7" transform="translate(-91.24 -55.788)" fill="#323232"/>
        <path id="パス_1029" data-name="パス 1029" d="M153.71,105.686a.883.883,0,0,0,0-1.765.883.883,0,0,0,0,1.765" transform="translate(-98.9 -67.237)" fill="#323232"/>
        <path id="パス_1030" data-name="パス 1030" d="M197.507,104.9a.883.883,0,0,0,0,1.765.883.883,0,0,0,0-1.765" transform="translate(-127.237 -67.872)" fill="#323232"/>
        <path id="パス_1031" data-name="パス 1031" d="M178.108,96.964c.54-1-.983-1.892-1.524-.891a18.385,18.385,0,0,0-2.119,5.259,10.935,10.935,0,0,0,.491,5.59.9.9,0,0,0,1.085.616.891.891,0,0,0,.616-1.085,9.131,9.131,0,0,1-.466-4.78,17.115,17.115,0,0,1,1.916-4.709" transform="translate(-112.771 -61.876)" fill="#323232"/>
        <path id="パス_1032" data-name="パス 1032" d="M174.242,137.634a.917.917,0,0,0,.624.258h1.352a.912.912,0,0,0,.624-.258.883.883,0,0,0,0-1.248.917.917,0,0,0-.624-.258h-1.352a.911.911,0,0,0-.624.258.883.883,0,0,0,0,1.248" transform="translate(-112.568 -88.075)" fill="#323232"/>
        <path id="パス_1033" data-name="パス 1033" d="M158.33,152.256a8.661,8.661,0,0,0,7.111,3.983,8.908,8.908,0,0,0,6.886-4.3.888.888,0,0,0-.762-1.328c-1.8.192-3.627.2-5.436.237q-2.9.06-5.8.072l-1.233,0c-.025,0-.046.005-.07.007s-.048,0-.073.007a.882.882,0,0,0-.124.028l-.023.007a.767.767,0,0,0-.288.169l-.007.007a.773.773,0,0,0-.084.093.852.852,0,0,0-.094,1.01m10.587.283.681-.026a6.34,6.34,0,0,1-4.157,1.962,6.264,6.264,0,0,1-4.417-1.788c2.632-.013,5.264-.049,7.893-.148" transform="translate(-102.359 -97.446)" fill="#323232"/>
        <path id="パス_1034" data-name="パス 1034" d="M128.387,202.412c-.026-.06-.048-.12-.075-.179a.89.89,0,0,0-1.208-.317.859.859,0,0,0-.264.236c.217.327.448.646.682.964a10.213,10.213,0,0,0,.865-.7" transform="translate(-82.066 -130.567)" fill="#323232"/>
        <path id="パス_1035" data-name="パス 1035" d="M119.421,203.052a10.214,10.214,0,0,1-.865.7c.138.187.275.373.415.559-.139-.186-.277-.372-.415-.559-.1.07-.194.141-.291.206.1-.065.195-.136.291-.206-.234-.318-.465-.637-.682-.964a.962.962,0,0,0-.053.971,8.982,8.982,0,0,1,.745,5.129,25.887,25.887,0,0,1-.616,2.8c-.228.871-.436,1.752-.7,2.613a55.8,55.8,0,0,1-3.166,7.533c-.329.694-.661,1.387-1,2.074a.937.937,0,0,0,.807,1.336l.5-1.675-.5,1.675a.735.735,0,0,0,.717-.445q1.42-2.856,2.694-5.785a42.815,42.815,0,0,0,1.605-4.092c.265-.838.465-1.7.689-2.55.1-.38.2-.761.291-1.143-.055-.408-.121-.828-.21-1.27.088.442.155.861.21,1.27.14-.577.269-1.157.362-1.744a11.11,11.11,0,0,0-.828-6.437" transform="translate(-73.1 -131.207)" fill="#323232"/>
        <path id="パス_1036" data-name="パス 1036" d="M79.808,161.342a19.783,19.783,0,0,1-.589-7.591.91.91,0,0,0-.616-1.085.843.843,0,0,0-.322-.019c-.02.616-.021,1.243-.021,1.923,0-.68,0-1.307.021-1.923a.841.841,0,0,0-.764.636c-.762,4.792.83,9.468,2.066,14.038A42.639,42.639,0,0,1,80.635,172l.8-.321-.8.321a20.376,20.376,0,0,1,.228,2.243,19.02,19.02,0,0,1-1.24,7.154,56.5,56.5,0,0,1-3.806,7.948.871.871,0,0,0,.414,1.223l.689-1.216-.689,1.216a.794.794,0,0,0,1.11-.332c2.483-4.566,5.115-9.427,5.293-14.745.162-4.858-1.73-9.5-2.826-14.152" transform="translate(-48.98 -98.758)" fill="#323232"/>
        <path id="パス_1037" data-name="パス 1037" d="M167.913,239.139l-2.048,1.127,2.048-1.127a.82.82,0,0,0-.806-.186,43.614,43.614,0,0,1-21.114,2.075,36.961,36.961,0,0,1-5.79-1.356.757.757,0,0,0-.882.261l4.355.726-4.355-.726a.912.912,0,0,0,.413,1.441,43.787,43.787,0,0,0,21.954.923,42.062,42.062,0,0,0,5.888-1.641.874.874,0,0,0,.336-1.516" transform="translate(-90.013 -154.578)" fill="#323232"/>
        <path id="パス_1038" data-name="パス 1038" d="M130.563,249.8a29.809,29.809,0,0,0-1.538-6.825c-1.382-4.693-2.794-9.385-4.427-14-.725-2.049-1.567-4.048-2.348-6.075-.945-2.453-1.821-4.931-2.688-7.413-1.758-5.033-3.521-10.065-5.723-14.926-.784-1.73-1.418-3.524-2.221-5.245a12.591,12.591,0,0,0-3.022-4.136c-4.688-4.167-10.789-4.921-16.762-6,.188.431.389.875.632,1.362-.243-.487-.444-.931-.632-1.362a44.2,44.2,0,0,1-7.665-1.923,19.185,19.185,0,0,1-2.749-1.286.877.877,0,0,0-1.294.61l1.188.538-1.188-.538a.793.793,0,0,0,.4.914c3.741,2.126,8.031,2.891,12.215,3.629,4.093.722,8.383,1.387,12.04,3.483a13.132,13.132,0,0,1,4.114,3.505,19.859,19.859,0,0,1,2.1,4.251c.878,2.177,1.882,4.3,2.77,6.471.987,2.417,1.888,4.867,2.759,7.327,1.705,4.817,3.387,9.627,5.28,14.374,1.6,4.02,2.874,8.18,4.136,12.316q1.161,3.8,2.261,7.628a14.641,14.641,0,0,1,.534,5.57,14.165,14.165,0,0,1-4.813,9.127,13.7,13.7,0,0,1-4.552,2.619,15.332,15.332,0,0,1-4.7.759c-1.241.025-2.482.06-3.722.1q.015-.272.03-.544.294-5.307.589-10.614.308-5.546.616-11.092.025-.455.05-.909l3.983-2.824.8-.568a.907.907,0,0,0,.316-1.207.889.889,0,0,0-1.207-.317l-3.769,2.672q.191-3.435.382-6.871.205-3.7.411-7.409c.06-1.083.13-2.166.18-3.249a5.552,5.552,0,0,0-2.724-5.107,5.717,5.717,0,0,0-2.84-.692q-1.4,0-2.8,0h-1c.281-2.012.554-4.025.778-6.044q.519-4.667.713-9.361c.045-1.136-1.72-1.134-1.765,0-.205,5.164-.772,10.291-1.486,15.406H79.79q.174-3.246.321-6.494c.208-4.674.375-9.352.437-14.031.043-3.24.092-6.507-.173-9.74q-.031-.381-.073-.76a.909.909,0,0,0-.882-.882.96.96,0,0,0-.686.331q-.421-1.349-.724-2.722l-.87-.394.87.394a29.58,29.58,0,0,1-.706-5.448.838.838,0,0,0-.608-.8,9.189,9.189,0,0,0,.592,3.758,9.189,9.189,0,0,1-.592-3.758.84.84,0,0,0-1.157.8,32.794,32.794,0,0,0,1.628,9.076.915.915,0,0,0,1.444.412c.247,2.735.209,5.511.188,8.25q-.014,1.809-.051,3.618l1.031-.567-1.031.567c-.066,3.334-.182,6.667-.32,10q-.174,4.2-.4,8.392H49.611q-.237-4.482-.5-8.962-.253-4.15-.563-8.3l-1.794-.3c.447,5.847.786,11.7,1.1,17.557H40.915q.752-2.179,1.5-4.357.493-1.422.988-2.844a.722.722,0,0,0,.027-.359.851.851,0,0,0-.027-.266.888.888,0,0,0-1.085-.616c-.561.224-1.137.438-1.724.637l-.483,1.611.483-1.611c-4.316,1.466-9.235,2.129-13.328-.116a10.974,10.974,0,0,1-1.16-.738l-.861,1.519a12.674,12.674,0,0,0,4.568,2.037,19.445,19.445,0,0,0,8.69-.265c.9-.214,1.793-.48,2.671-.78q-1.067,3.073-2.129,6.148h-20.3l2.579-5.686c.532-1.173,1.07-2.345,1.6-3.521a13.952,13.952,0,0,0,2.319,2.067l.861-1.519a11.81,11.81,0,0,1-2.512-2.477.911.911,0,0,0-1.208-.317.929.929,0,0,0-.369.449.7.7,0,0,0-.362.346l-1.492,3.289-3.339,7.362a7.786,7.786,0,0,0-1.693.15A5.485,5.485,0,0,0,11,221.69c.011.245.027.49.041.734q.141,2.546.283,5.093l.026.481L8.523,234.23c-.608,1.341-1.227,2.678-1.825,4.023l-.026.058a.909.909,0,0,0,.317,1.207A.889.889,0,0,0,8.2,239.2l1.492-3.289,1.872-4.128.243,4.369q.3,5.318.591,10.636l.615,11.087q.1,1.852.206,3.705A13.867,13.867,0,0,1,9,260.084a14.048,14.048,0,0,1-6.252-7.392,14.765,14.765,0,0,1-.624-8.65c.414-1.671.88-3.331,1.332-4.992q1.553-5.7,3.137-11.4l.066-.237a.853.853,0,0,0-.793-1.087l-1.883,7.751,1.883-7.751a.817.817,0,0,0-.909.618q-1.435,5.171-2.852,10.348c-.526,1.926-1.058,3.852-1.557,5.786a16.8,16.8,0,0,0-.085,8.176,16.438,16.438,0,0,0,5.825,9.156,15.263,15.263,0,0,0,7.024,2.968q.126,2.265.252,4.53.2,3.666.407,7.332c.058,1.045.1,2.092.174,3.135a5.533,5.533,0,0,0,3.921,4.913,6.507,6.507,0,0,0,1.923.239h84.664a5.58,5.58,0,0,0,5.527-4.991c.024-.269.032-.54.047-.81q.139-2.5.277-5,.175-3.152.35-6.3l2.911-.08a28.513,28.513,0,0,0,3.581-.235,15.411,15.411,0,0,0,5.415-1.938,16.02,16.02,0,0,0,7.034-8.715,15.462,15.462,0,0,0,.767-5.659m-20.129-7.589q-.3,5.469-.607,10.937-.293,5.281-.586,10.563-.24,4.317-.479,8.635-.145,2.6-.289,5.2c-.016.278-.026.557-.046.835a3.785,3.785,0,0,1-3.772,3.381H20.125c-.242,0-.485.006-.726-.009a3.76,3.76,0,0,1-3.488-3.389c-.063-1.058-.118-2.116-.176-3.174q-.2-3.641-.4-7.283-.273-4.919-.546-9.837-.3-5.49-.61-10.981-.294-5.289-.587-10.579-.241-4.336-.481-8.671-.146-2.629-.292-5.258c-.016-.292-.035-.585-.049-.878a3.716,3.716,0,0,1,3.131-3.991,16.751,16.751,0,0,1,2.058-.025h89.707a4.636,4.636,0,0,1,1.45.182,3.742,3.742,0,0,1,2.46,3.862c-.051,1.081-.12,2.16-.18,3.24l-.407,7.329q-.275,4.955-.55,9.91" transform="translate(0 -113.438)" fill="#323232"/>
        <path id="パス_1039" data-name="パス 1039" d="M133.513,230.1a.873.873,0,0,0-1.362-.733c.095.849.183,1.692.372,2.634-.189-.943-.277-1.785-.372-2.634a.816.816,0,0,0-.4.733c.088,1.044.164,2.089.244,3.133l1.794.3q-.13-1.717-.272-3.432" transform="translate(-85.24 -148.306)" fill="#323232"/>
        <path id="パス_1040" data-name="パス 1040" d="M41.307,207.449l-3.974,1.59,3.974-1.59a.883.883,0,0,0-1.291-.6C36,209.082,30.769,208.776,27.25,212c-2.318,2.124-3.149,5.344-4.073,8.235-1.131,3.538-2.091,7.127-3.045,10.716-1.077,4.053-2.149,8.109-3.445,12.1a.787.787,0,0,0,.567,1.037l.835-3.437-.835,3.437a.882.882,0,0,0,1.136-.568c2.26-6.962,3.831-14.122,5.961-21.123.533-1.752,1.1-3.493,1.723-5.216a10.118,10.118,0,0,1,1.838-3.34,10.578,10.578,0,0,1,5.44-2.914,33.072,33.072,0,0,0,7.554-2.553.784.784,0,0,0,.4-.927" transform="translate(-10.767 -133.757)" fill="#323232"/>
        <path id="パス_1041" data-name="パス 1041" d="M230.359,71.58a17.162,17.162,0,0,0-.024-1.892,3.675,3.675,0,0,0-3.608-3.271.94.94,0,0,0-.239.032,3.2,3.2,0,0,0-2.892-1.842,61.55,61.55,0,0,0-.778-10.95.729.729,0,0,0-.368-.5c.059.656.06,1.331.06,2.006,0-.676,0-1.351-.06-2.006a.954.954,0,0,0-.718-.117.9.9,0,0,0-.617,1.085,58.984,58.984,0,0,1,.714,10.617.892.892,0,0,0,.059.339,3.367,3.367,0,0,0-.975.908c.061.039.12.079.184.117a1.3,1.3,0,0,0,1.059-.353,1.3,1.3,0,0,1-1.059.353c-.064-.038-.123-.078-.184-.117a3.368,3.368,0,0,0-.642,1.93c-.034,2.285,0,4.573,0,6.858v3.487c0,.2-.005.4,0,.6a3.4,3.4,0,0,0,.09.641c.026-.457.029-.927.029-1.4,0,.471,0,.94-.029,1.4a3.284,3.284,0,0,0,1.6,2.164,3.382,3.382,0,0,0,.492.214,21.4,21.4,0,0,1-3.074,6.711,18.5,18.5,0,0,1-2.815,3.16c-.268.686-.543,1.364-.843,2.017a4.5,4.5,0,0,1,.273.693c.487-.353.966-.718,1.426-1.112a20.783,20.783,0,0,0,5.25-6.93,25.116,25.116,0,0,0,1.579-4.43,3.273,3.273,0,0,0,.9-.354c-.05-.461-.1-.928-.173-1.411.069.483.122.95.173,1.411a3.357,3.357,0,0,0,1.595-2.258,3.688,3.688,0,0,0,3.453-2.575,7.374,7.374,0,0,0,.158-2.207Zm-5.3,2.985v3.616c0,.208,0,.415,0,.623a1.514,1.514,0,0,1-3.007.247,3.878,3.878,0,0,1-.017-.6v-10c0-.8.056-1.61.926-1.979a1.526,1.526,0,0,1,1.871.6,1.739,1.739,0,0,1,.227.97c.006,2.171,0,4.342,0,6.513m3.534,1.161a1.893,1.893,0,0,1-1.769,1.885V68.193a1.881,1.881,0,0,1,1.767,1.8c.014.478,0,.957,0,1.435,0,1.433.022,2.869,0,4.3" transform="translate(-139.574 -34.301)" fill="#323232"/>
        <path id="パス_1042" data-name="パス 1042" d="M183.914,165.357c.094-.189.185-.381.274-.575a4.242,4.242,0,0,0-.274-.484,4.242,4.242,0,0,1,.274.484c.3-.653.575-1.331.843-2.017a20.7,20.7,0,0,1-3.364,2.447,25.657,25.657,0,0,1-5.056,2.233.961.961,0,0,0-.124.054,3.128,3.128,0,0,0-.648-1.186c-1.079-1.223-2.734-1-4.2-1-.539,0-1.078-.009-1.617,0a3.033,3.033,0,1,0,.017,6.067c1.185.017,2.372,0,3.557,0a3.075,3.075,0,0,0,2.819-1.955,2.876,2.876,0,0,0,.09-.291.8.8,0,0,0,.569.012,26.5,26.5,0,0,0,7.381-3.672,4.484,4.484,0,0,0-.273-.693c-.089.194-.18.386-.274.575M173.6,169.615h-2.8a7.636,7.636,0,0,1-.992-.012,1.275,1.275,0,0,1,0-2.513,7.581,7.581,0,0,1,.992-.012c.934,0,1.871-.021,2.8,0a1.268,1.268,0,0,1,0,2.537" transform="translate(-108.038 -105.31)" fill="#323232"/>
        <path id="パス_1043" data-name="パス 1043" d="M246.325,161.1c.322.645.571,1.215.813,1.78a.825.825,0,0,0,.089-.663c-1.334-5.121-2.589-10.263-3.887-15.393q-.532-2.1-1.076-4.2a.79.79,0,0,0-.752-.624,19.81,19.81,0,0,0,.576,2.859,19.81,19.81,0,0,1-.576-2.859.882.882,0,0,0-.95,1.094c1.334,5.122,2.588,10.263,3.886,15.393q.532,2.1,1.076,4.2a.887.887,0,0,0,1.614.193c-.242-.565-.491-1.136-.813-1.78" transform="translate(-155.624 -91.877)" fill="#323232"/>
        <path id="パス_1044" data-name="パス 1044" d="M178.72,54.233a.888.888,0,0,0,.616-1.085.906.906,0,0,0-1.085-.616c-1.757.245-3.385-1.481-4.573-2.551-.778-.7-1.606-1.328-2.4-2-.915-.771-1.767-1.611-2.612-2.457a30.29,30.29,0,0,0-5.455-4.681,10.462,10.462,0,0,0-6.217-1.771,6,6,0,0,0-5.264,3.681.858.858,0,0,0,.4.985,7.787,7.787,0,0,1,1.413-1.142,7.787,7.787,0,0,0-1.413,1.142.819.819,0,0,0,.215.1.9.9,0,0,0,1.086-.616,4.233,4.233,0,0,1,3.8-2.4,9.544,9.544,0,0,1,5.715,1.952,36.907,36.907,0,0,1,5.024,4.552c1.538,1.519,3.249,2.821,4.857,4.262a9.7,9.7,0,0,0,4.253,2.6c-.211-.424-.4-.873-.592-1.348.19.475.381.924.592,1.348a4.773,4.773,0,0,0,1.644.055" transform="translate(-98.138 -25.259)" fill="#323232"/>
        <path id="パス_1045" data-name="パス 1045" d="M197.225,88.847a.889.889,0,0,0,1.085-.616.9.9,0,0,0-.616-1.086,13.392,13.392,0,0,0-8.3-.477.883.883,0,0,0,.469,1.7,11.982,11.982,0,0,1,3.719-.391,12.155,12.155,0,0,1,3.639.868" transform="translate(-122.135 -55.789)" fill="#323232"/>
        <path id="パス_1046" data-name="パス 1046" d="M155.385,17.614A24.822,24.822,0,0,0,143.3,3.029a26.288,26.288,0,0,0-19.744-1.938,25.322,25.322,0,0,0-14.87,11.936,23.97,23.97,0,0,0-2.826,9.343c-.19,2.113-.092,4.265-.092,6.383v.687a.857.857,0,0,0,1.082.83,2.442,2.442,0,0,1,.024-1.288,2.442,2.442,0,0,0-.024,1.288.811.811,0,0,0,.683-.83q0-2.472,0-4.943A22.268,22.268,0,0,1,109.2,16,23.261,23.261,0,0,1,121.774,3.589a24.6,24.6,0,0,1,18.718.048,23.243,23.243,0,0,1,12.539,12.579,22.418,22.418,0,0,1,1.586,8.31q0,2.815,0,5.63v.568a.883.883,0,0,0,1.765,0c0-4.39.285-8.851-1-13.109" transform="translate(-68.415 0)" fill="#323232"/>
        <path id="パス_1047" data-name="パス 1047" d="M132.628,341.319q.293-5.282.586-10.563.3-5.469.607-10.937.275-4.956.55-9.911l.407-7.328c.06-1.08.129-2.16.18-3.24a3.742,3.742,0,0,0-2.46-3.861,4.639,4.639,0,0,0-1.45-.182H41.341a16.685,16.685,0,0,0-2.058.025,3.715,3.715,0,0,0-3.131,3.991c.013.293.032.585.049.878q.146,2.629.292,5.258.241,4.335.481,8.671.293,5.29.587,10.579.3,5.49.609,10.981.273,4.919.546,9.837l.4,7.283c.059,1.058.113,2.117.176,3.174a3.76,3.76,0,0,0,3.488,3.389c.241.015.485.009.726.009h84.53a3.784,3.784,0,0,0,3.772-3.381c.02-.278.031-.556.047-.834q.144-2.6.289-5.2.239-4.317.479-8.635M83.65,325.552a3.9,3.9,0,0,1,4.283-1.144,3.9,3.9,0,1,1-4.283,1.144m43.239,31.269h-.145c-1.119.021-2.241,0-3.361,0H40.645a.883.883,0,0,1,0-1.765c.048,0,.1,0,.145,0,1.119-.021,2.241,0,3.361,0h82.738a.883.883,0,0,1,0,1.765" transform="translate(-23.388 -191.045)" fill="#fff"/>
        <path id="パス_1048" data-name="パス 1048" d="M176.661,382.6c-.121.041-.038.016,0,0" transform="translate(-114.259 -247.544)" fill="#fff"/>
        <path id="パス_1049" data-name="パス 1049" d="M174.342,391.917c.027.034.069.08,0,0" transform="translate(-112.8 -253.572)" fill="#fff"/>
        <path id="パス_1050" data-name="パス 1050" d="M176.657,393.727c-.076-.036-.037-.017,0,0" transform="translate(-114.27 -254.73)" fill="#fff"/>
        <path id="パス_1051" data-name="パス 1051" d="M185.128,388.994c0,.044,0,.1,0,0" transform="translate(-119.776 -251.681)" fill="#fff"/>
        <path id="パス_1052" data-name="パス 1052" d="M173.09,384.568c0,.013.005.032.01.056.012.053.022.106.035.159a2.935,2.935,0,0,0,.108.333c.017.035.055.116.06.127.024.047.05.092.077.138.041.068.085.132.129.2l.01.012c.1.119.214.223.325.333l.028.028.009.006q.079.058.162.111a3.436,3.436,0,0,0,.339.185l.018.007c.076.025.151.053.229.074s.157.038.237.056l.036.008h.015a3.254,3.254,0,0,0,.419.011c.049,0,.1-.007.149-.011.027,0,.085-.013.108-.018a3.773,3.773,0,0,0,.389-.108l.06-.023.06-.028c.046-.026.094-.048.14-.074a2.736,2.736,0,0,0,.288-.188c.029-.026.1-.083.1-.09.038-.036.076-.072.113-.11s.089-.1.132-.145l.02-.021.011-.017c.089-.132.164-.268.243-.406l.016-.028c.027-.068.052-.137.073-.206a3.1,3.1,0,0,0,.091-.387v-.02c0-.084.009-.167.01-.251,0-.1-.006-.2-.017-.3,0-.016,0-.032-.007-.041-.039-.158-.079-.311-.13-.466-.007-.019-.01-.031-.013-.042s-.013-.021-.024-.04c-.039-.069-.073-.14-.114-.208s-.085-.132-.129-.2l-.022-.034-.035-.034c-.092-.093-.184-.185-.277-.277l-.054-.046c-.026-.019-.052-.038-.078-.055-.044-.03-.088-.058-.133-.085-.079-.047-.161-.089-.244-.131l-.023-.012-.023-.007c-.155-.052-.308-.091-.466-.131l-.045-.012h-.047c-.07,0-.139-.009-.209-.01s-.141,0-.21,0l-.131.013-.124.023c-.053.012-.105.025-.157.04-.078.022-.153.049-.229.074l-.013,0a3.23,3.23,0,0,0-.411.231l-.1.073-.092.081a3.47,3.47,0,0,0-.253.267c-.017.021-.036.046-.045.059-.036.055-.073.109-.107.166s-.075.139-.114.208l-.024.041c0,.012-.006.021-.013.041a3.955,3.955,0,0,0-.114.387c-.007.033-.013.067-.019.1a1.5,1.5,0,0,1-.016.155,3,3,0,0,0,0,.378c0,.026,0,.051.007.077" transform="translate(-111.981 -247.251)" fill="#fff"/>
        <path id="パス_1053" data-name="パス 1053" d="M172.765,384.866a3.894,3.894,0,1,0-4.125-1.829,3.934,3.934,0,0,0,4.125,1.829m-1.6-5.793c-.038.016-.121.041,0,0m-1.286,1.651c.006-.034.012-.067.019-.1a3.878,3.878,0,0,1,.114-.387c.006-.019.009-.029.013-.041l.024-.041c.039-.069.073-.14.114-.209s.071-.11.107-.166c.008-.013.028-.038.045-.058a3.356,3.356,0,0,1,.253-.267l.092-.081c.038-.028.1-.076.1-.073a3.207,3.207,0,0,1,.411-.231l.013,0c.076-.025.151-.053.229-.075.052-.014.1-.027.157-.039l.124-.023.131-.013c.07,0,.14,0,.21,0s.139.007.209.01h.047l.045.012c.158.039.312.079.466.131l.023.007.023.012c.083.041.165.083.244.131q.068.041.133.085c.027.018.053.037.079.055l.054.046.277.277.035.034c.006.01.011.018.022.034.044.066.089.13.129.2s.074.139.114.209c.011.019.018.032.024.04s.006.023.013.042c.052.155.091.308.131.466,0,.008,0,.024.007.041.01.1.015.2.017.3,0,.084-.007.167-.01.251v.02a3.167,3.167,0,0,1-.091.387c-.021.069-.046.138-.073.206l-.016.028c-.079.139-.154.274-.243.406l-.012.017-.02.021c-.043.049-.086.1-.132.145s-.074.074-.112.109l-.1.09a2.739,2.739,0,0,1-.288.188c-.046.026-.094.048-.14.074l-.06.028-.06.023a3.8,3.8,0,0,1-.389.108c-.023,0-.081.014-.108.018-.049,0-.1.009-.149.011a3.253,3.253,0,0,1-.419-.011h-.015l-.036-.008c-.079-.018-.158-.034-.237-.056s-.153-.049-.229-.074l-.018-.007a3.294,3.294,0,0,1-.339-.185q-.083-.053-.162-.111l-.009-.006-.028-.028c-.111-.11-.222-.214-.325-.333l-.01-.012c-.044-.065-.089-.13-.129-.2-.027-.045-.053-.091-.078-.138-.006-.011-.043-.092-.06-.126a2.849,2.849,0,0,1-.108-.334c-.013-.053-.023-.106-.035-.159l-.01-.056c0-.025-.005-.051-.007-.077a3,3,0,0,1,0-.378c0-.019.026-.2.016-.155m4.236.606c0,.1,0,.044,0,0m-2.964,1.684h0m-.845-.652c.069.081.027.034,0,0" transform="translate(-108.764 -244.016)" fill="#323232"/>
        <path id="パス_1054" data-name="パス 1054" d="M133.569,464.609H50.831c-1.12,0-2.241-.021-3.361,0-.048,0-.1,0-.145,0a.883.883,0,0,0,0,1.765h82.738c1.119,0,2.241.021,3.361,0h.145a.883.883,0,0,0,0-1.765" transform="translate(-30.068 -300.598)" fill="#323232"/>
      </g>
    </g>
  </g>
</svg>
