<svg xmlns="http://www.w3.org/2000/svg" xmlns:xlink="http://www.w3.org/1999/xlink" width="163" height="163" viewBox="0 0 163 163">
  <defs>
    <clipPath id="clip-path">
      <rect id="長方形_230" data-name="長方形 230" width="163" height="163" rx="16" transform="translate(341 5808.038)" fill="#eef5f8"/>
    </clipPath>
  </defs>
  <g id="step4_illust" transform="translate(-341 -5808.038)">
    <g id="マスクグループ_13" data-name="マスクグループ 13" clip-path="url(#clip-path)">
      <g id="グループ_674" data-name="グループ 674" transform="translate(310.453 5840.058)">
        <rect id="長方形_169" data-name="長方形 169" width="1.898" height="10.437" rx="0.949" transform="translate(184.969 72.092)" fill="#05b3ff"/>
        <rect id="長方形_168" data-name="長方形 168" width="2.372" height="10.437" rx="1.186" transform="translate(191.136 76.362) rotate(90)" fill="#05b3ff"/>
        <path id="パス_1136" data-name="パス 1136" d="M288.892,112.172,274.244,127.32l-5.211,39.027,1.14,40.129H298.1l6.373-18.23,12.63,2.136,5.619-31.575-17.384-30.7-8.436-8.076Z" transform="translate(-112.689 -73.055)" fill="#e8e8e8"/>
        <path id="パス_1134" data-name="パス 1134" d="M97,132.378s5.272,4.364,7.178,8.382,0,17.061,0,17.061v2.527L97,139.406v-7.028Z" transform="translate(-30.998 -82.649)" fill="#fff"/>
        <path id="パス_1135" data-name="パス 1135" d="M182.45,171.194l2.722-8.868,17.359,5.786,14.854-19.688,2.94-6.288,3.122-8.475,2.7-1.286v11.334L224.542,165.3v5.892l-11.973,14.711s-.511,1.446-6.133,1.347-20.228-7.58-20.228-7.58l-2.86-1.808V173.6Z" transform="translate(-71.575 -82.647)" fill="#e8e8e8"/>
        <path id="パス_1133" data-name="パス 1133" d="M2.547,206.886H53.205l4.924-32.333,15.765-3.45,1.037-15.428-24.059,3.071-4.956-23.274-4.084-8.961-12.3-13.13s-14.483,10.2-16.059,18.773-.573,18.752-3.3,35.185S2.547,206.886,2.547,206.886Z" transform="translate(13.851 -73.629)" fill="#fff"/>
        <path id="パス_759" data-name="パス 759" d="M375.682,211.062a1.341,1.341,0,0,1-1.455.592l-1.371-.271a138.5,138.5,0,0,0-1.84,14.1c-.329,4.726-.523,9.823.933,14.407.214-1.53.423-3.059.639-4.589,1.188-8.418,2.239-16.9,3.747-25.278q-.324.52-.654,1.038" transform="translate(-216.517 -150.964)" fill="#35cae9"/>
        <path id="パス_760" data-name="パス 760" d="M376.643,185.169c-.049.052-.1.105-.145.157a1.308,1.308,0,0,1-.4.285,23.963,23.963,0,0,0-.2,7.627l1.109.218c.822-1.31,1.618-2.639,2.333-4.009a1.282,1.282,0,0,1,.308-.388l-3.012-3.89" transform="translate(-219.581 -135.44)" fill="#35cae9"/>
        <path id="パス_761" data-name="パス 761" d="M95.666,162.141l.006-.007a67.137,67.137,0,0,0-12.989-9.82l-1.328,3.269c4.116,3.138,8.256,6.868,11.075,11.245l3.237-4.687" transform="translate(-35.751 -114.92)" fill="#fff"/>
        <path id="パス_762" data-name="パス 762" d="M119.016,201.333a1.232,1.232,0,0,1-.46-.287,24.107,24.107,0,0,1-3.85-4.634,1.246,1.246,0,0,1-.363.235c.187.368.366.74.532,1.117a68.859,68.859,0,0,1,4.087,13.936c.051-3.456.1-6.911.054-10.367" transform="translate(-56.354 -142.461)" fill="#fff"/>
        <path id="パス_763" data-name="パス 763" d="M121.352,181.64l-2.034,2.945a1.21,1.21,0,0,1,.544.526,18.056,18.056,0,0,0,2.973,3.751l2.057-1.029a28.94,28.94,0,0,0-1.965-6.961,1.365,1.365,0,0,1-1.575.767" transform="translate(-59.461 -132.757)" fill="#35cae9"/>
        <path id="パス_764" data-name="パス 764" d="M237.871,264.63a15.383,15.383,0,0,0,.351-2.69,1.078,1.078,0,0,1-.654-.837,5.448,5.448,0,0,0-3.72-3.506c-1.245-.307-2.793.305-3.94.739-.82.311-2.517.749-3.049,1.5a1.506,1.506,0,0,0,.227,1.859c.639.642,1.46.351,2.268.162a27.659,27.659,0,0,0,3.614-1.143,1.059,1.059,0,0,1,1.454.673,1.239,1.239,0,0,1,.231.351c.823,1.891,1.694,3.76,2.561,5.631a11.977,11.977,0,0,0,.657-2.738" transform="translate(-126.487 -180.624)" fill="#fff"/>
        <path id="パス_765" data-name="パス 765" d="M223.505,299.164a5.425,5.425,0,0,0-4.372,1.3,1.8,1.8,0,0,0,.142,2.474c2.114-.179,4.541-.088,6.07-1.643a2.808,2.808,0,0,0-1.84-2.133" transform="translate(-121.536 -206.583)" fill="#fff"/>
        <path id="パス_766" data-name="パス 766" d="M385.965,165.77a28.025,28.025,0,0,1,4.373-5.1c2.67-2.662,5.48-5.2,8.354-7.641l-1.723-2.3a24.289,24.289,0,0,0-10.247,6.411c-1.381,1.461-2.612,3.035-3.9,4.568l3.144,4.06" transform="translate(-224.037 -113.932)" fill="#fff"/>
        <path id="パス_767" data-name="パス 767" d="M472.488,287.788c.082.212.3.269,0,0" transform="translate(-280.04 -199.533)" fill="#35cae9"/>
        <path id="パス_768" data-name="パス 768" d="M138.018,232.011c-1.6-7.293-3.907-14.472-6.215-21.581.081,6.856-.214,13.71-.106,20.566a1.239,1.239,0,0,1-.159.643c.16.648.326,1.295.5,1.937a1.268,1.268,0,0,1-1.354,1.592v.092l6.987-1.035q.168-1.09.345-2.215" transform="translate(-66.562 -151.217)" fill="#35cae9"/>
        <path id="パス_769" data-name="パス 769" d="M196.452,272.536a33.025,33.025,0,0,0-.472,4.366c-.106,2.259-.479,6.274,1.389,7.971.014.013.023.027.036.041.344-.252.693-.5,1.039-.749a1.291,1.291,0,0,1,.383-2.285l2.575-.678a1.251,1.251,0,0,1,.714.012,5.434,5.434,0,0,1,.61-1.248,1.26,1.26,0,0,1,.327-.459,1.223,1.223,0,0,1,.4-.338c2.178-1.711,5.905-2.648,8.189-.8a5.163,5.163,0,0,1,.769.789,1.3,1.3,0,0,1,2.541-.415c.256.806,1.407,4.305,2.845,3.3,1.117-.783-.723-3.744-1.111-4.59-1.076-2.35-2.184-4.686-3.226-7.052-1.9.738-4.316,1.576-6.119.9a4.065,4.065,0,0,1-2.34-2.866c-2.016,1.119-3.521,3.026-5.761,3.733a1.276,1.276,0,0,1-1.434-1.872h-.769a2.042,2.042,0,0,0-.192.483c-.118.588-.287,1.164-.395,1.756" transform="translate(-107.278 -187.446)" fill="#fff"/>
        <path id="パス_770" data-name="パス 770" d="M367.042,104.608a1.367,1.367,0,0,1-.143-.237c-1.281.005-2.562-.019-3.842-.038a1.346,1.346,0,0,1-1.242-.946c-.809-2.025-.912-5.639-3.588-5.679a1.261,1.261,0,0,1-.647-.181,7.735,7.735,0,0,1-2.832,3.453c-1.405.892-2.7-1.339-1.3-2.224a5.566,5.566,0,0,0,2.162-3.612,3.973,3.973,0,0,0-.043-2.114c-.325-.862-1.149-1.247-1.775-.36-.925,1.311-3.061.121-2.283-1.2a1.381,1.381,0,0,1-.351-.32A21.363,21.363,0,0,1,348.665,87a9.58,9.58,0,0,1-6.152-5.72,5.34,5.34,0,0,0-.475,1.242,1.232,1.232,0,0,1,.28,1.133,9.107,9.107,0,0,0-.158,2.569,12.546,12.546,0,0,1,2.526-.525,1.32,1.32,0,0,1,1.585.9,1.3,1.3,0,0,1-.9,1.585,7.231,7.231,0,0,0-2.626.6,1.35,1.35,0,0,1-.348.143c.026.409.039.822.026,1.239a9.394,9.394,0,0,1-1.372,4.5c-.458.774-2.971,3.238-2.842,3.679.14.48,1.084,1.132,1.41,1.6a7.7,7.7,0,0,1,.948,1.879,9.5,9.5,0,0,1,.346,1.3,10.779,10.779,0,0,0,2.56-1.363c1.4-.9,2.693,1.334,1.3,2.225a9.936,9.936,0,0,1-3.337,1.662,1.65,1.65,0,0,1-.191.018c.058.6.116,1.187.2,1.756.294,1.986.237,3.5,2.56,4.162,2,.565,3.878-.132,5.763-.742a1.255,1.255,0,0,1,1.253.331l2.8,3.47a1.331,1.331,0,0,1,.292.681,50.592,50.592,0,0,1,3.813-4.292,26.6,26.6,0,0,1,9.544-5.852l-.433-.577M343.686,92.915a1.289,1.289,0,0,1,0-2.576,1.289,1.289,0,0,1,0,2.576" transform="translate(-196.17 -70.557)" fill="#fff"/>
        <path id="パス_771" data-name="パス 771" d="M370.671,89.68c1.025.016,2.05.029,3.075.023a34.2,34.2,0,0,1,3.537-6.855c1.406-2.183,2.835-3.783,2.675-6.531a16.288,16.288,0,0,0-2.264-6.81c-5.13-9.183-18.251-9.857-25.618-2.933a1.332,1.332,0,0,1-2.209-.85,4.467,4.467,0,0,0-.911.759c.127.434.255.883.382,1.328a1.169,1.169,0,0,1,2.093.037,8.413,8.413,0,0,0,2.742,3.659,1.3,1.3,0,0,1,2.537-.386,19.856,19.856,0,0,0,3.385,6.642c.008.011.012.021.02.032a3.594,3.594,0,0,1,4.779,2.975,7.132,7.132,0,0,1,.065,2.273c4.1.072,4.617,3.445,5.712,6.638" transform="translate(-202.885 -58.466)" fill="#35cae9"/>
        <path id="パス_772" data-name="パス 772" d="M474.184,365.623l-11.894-2.082a9.485,9.485,0,0,1-2.424,2.7,23.444,23.444,0,0,0-2.106,1.876,4.477,4.477,0,0,0-1.375,2.555,2.953,2.953,0,0,0,1.359,1.958,29.4,29.4,0,0,0-.078-3.192c-.164-1.652,2.414-1.635,2.577,0,.232,2.339.11,4.693.327,7.034.077.831-.083,2.561,1.465,2.125.266-.075.743-.681,1-.861.738-.523,1.42-.426,2.141-.751.7-.315.839-1.154,1.5-1.671a3.929,3.929,0,0,1,2.355-.562c2.229-.2,2.394-1.61,2.829-3.544.338-1.5.528-3.03.821-4.538a1.155,1.155,0,0,1,1.781-.75c.026-.092.05-.183.071-.274a1.666,1.666,0,0,1-.346-.02" transform="translate(-269.982 -246.845)" fill="#fff"/>
        <path id="パス_773" data-name="パス 773" d="M116.56,96.227a12.9,12.9,0,0,1-1.39-2.012,9.435,9.435,0,0,1-1.213-4.621c0-.766.081-1.514.157-2.257a1.213,1.213,0,0,1-.793-.177,7.317,7.317,0,0,0-2.657-.612,1.3,1.3,0,0,1-.9-1.585,1.329,1.329,0,0,1,1.585-.9,10.374,10.374,0,0,1,2.9.674,7.743,7.743,0,0,0-.174-1.348,1.287,1.287,0,0,1,1.005-1.561q-.151-.908-.3-1.816a1,1,0,0,1-.782-.365,4.283,4.283,0,0,1-1.828.552,1.376,1.376,0,0,1-1.468.81c-1.746-.258-3.4,1.354-4.97,2.812a21.21,21.21,0,0,0-.472,2.556,1.305,1.305,0,0,1,.8,2.187,7.756,7.756,0,0,1-1.351,1.09,4.743,4.743,0,0,1-1.245,2.411c.273,1.176-1.2,2.387-2.09,1.272-1.012-1.261-2.376-1.751-3.062.072-.853,2.265.958,4.18,2.814,5.154,1.47.772.166,2.994-1.3,2.224a8.623,8.623,0,0,1-3.387-3.159,7.782,7.782,0,0,1-.873,1.218,1.231,1.231,0,0,1,.689,1.822c-.888,1.478-1.993,3.052-3.758,3.506-1.263.325-2.569-.078-3.848-.027a1.143,1.143,0,0,1-.87-.309l-.28.69a70.834,70.834,0,0,1,14.505,11.022,1.357,1.357,0,0,1,.1-.169l2.973-3.909a1.325,1.325,0,0,1,1.455-.592c2.047.663,4.128,1.423,6.252.59s1.909-2.324,2.2-4.23c.065-.428.114-.868.159-1.312a12.36,12.36,0,0,1-3.43-1.823,1.316,1.316,0,0,1-.462-1.763,1.3,1.3,0,0,1,1.763-.462,12.214,12.214,0,0,0,2.446,1.425,9.711,9.711,0,0,1,.388-1.545,7.929,7.929,0,0,1,1.131-2.138c.2-.275,1.436-1.291,1.418-1.532-.029-.386-1.54-1.515-1.83-1.864m-4.23-4.008a1.289,1.289,0,0,1,0-2.576,1.289,1.289,0,0,1,0,2.576" transform="translate(-39.582 -69.535)" fill="#fff"/>
        <path id="パス_774" data-name="パス 774" d="M87.8,79.7a3.829,3.829,0,0,1,3.782-2.347c0-.02-.006-.039-.006-.058a1.329,1.329,0,0,1,1.288-1.288,5.235,5.235,0,0,0,3.056-1.573,1.164,1.164,0,0,1,1.025-.365,21.212,21.212,0,0,1,.472-2.556,11.254,11.254,0,0,1-2.431,1.881,11.619,11.619,0,0,1-6.96.949c-1.637-.243-.937-2.725.685-2.484,3.4.5,5.911-.981,8.277-3.234,1.767-1.683,3.59-2.777,6.084-2.408a1.092,1.092,0,0,1,.783,1.674,4.283,4.283,0,0,0,1.827-.552,1.144,1.144,0,0,1-.235-.558,6.133,6.133,0,0,0-.576-2.425c-.616-.887-2.434-.9-3.442-1.117l-7.458-1.577c-2.579-.546-5.155-1.171-7.75-1.634-1.7-.3-5.317.087-5.122,2.642.1,1.3-1.455,1.565-2.2.835a3.678,3.678,0,0,0-.413.768c.029-.007.056-.015.084-.022,1.617-.371,2.3,2.114.685,2.484-6.126,1.4-5.442,9.088-4.364,13.739.775,3.339,4.406,5.551,4.806,8.976a1.284,1.284,0,0,1,.63-.188c.962-.038,1.937.237,2.89.153,1.227-.108,1.923-1.411,2.49-2.356a1.21,1.21,0,0,1,1.536-.521,7.8,7.8,0,0,0,.873-1.218A5.751,5.751,0,0,1,87.8,79.7" transform="translate(-31.267 -57.228)" fill="#fff"/>
        <path id="パス_775" data-name="パス 775" d="M127.894,108.163a1.361,1.361,0,0,1,.268.55,4.74,4.74,0,0,0,1.245-2.411,8.066,8.066,0,0,1-2.36,1.013,5.478,5.478,0,0,1,.846.848" transform="translate(-64.29 -86.183)" fill="#fff"/>
        <path id="パス_776" data-name="パス 776" d="M73.554,163.075a13.019,13.019,0,0,1,1.528-1.271c-.014-.013-.022-.027-.036-.04-1.868-1.7-1.5-5.713-1.389-7.971a33.017,33.017,0,0,1,.472-4.366c.108-.592.277-1.168.395-1.756a2.03,2.03,0,0,1,.192-.483h0c.09-.181.125-.263-.139-.083a1.3,1.3,0,0,0-.992-2.354l-14.867,2.2q.112-.725.225-1.458a1.237,1.237,0,0,0,.065-.43c1.286-8.464,2.378-17.727-1.277-25.581-.535-1.149-1.957-.653-2.286.313a14.407,14.407,0,0,1,.934,2.916,14.407,14.407,0,0,0-.934-2.916,1.3,1.3,0,0,0,.061.987c2.452,5.268,2.487,11.425,1.855,17.415-1.526-5.66-3.358-11.259-5.162-16.816l.273-.136a1.316,1.316,0,0,0,.592-1.455,44.286,44.286,0,0,0-1.574-6.535c-.388-.571-.767-1.139-1.122-1.707.355.568.734,1.136,1.122,1.707a21.374,21.374,0,0,0-.85-2.114,1.22,1.22,0,0,0-.343-.447l1.731-2.276c3.425,1,7.556,1.445,9.919-1.862.912-1.277.751-2.72.967-4.2.169-1.159.306-2.318.438-3.482.206-1.816,1.081-2.794,2.233-4.155a2.56,2.56,0,0,0,.008-3.636c-1.8-2.09-3.661-3.67-3.686-6.683-.02-2.376.555-4.514.022-6.889a1.187,1.187,0,0,0-.351-.63c0,.642-.047,1.316-.047,2.038,0-.723.047-1.4.047-2.038a1.336,1.336,0,0,0-2.133,1.315,7.752,7.752,0,0,1,.174,1.348,10.388,10.388,0,0,0-2.9-.674,1.329,1.329,0,0,0-1.585.9,1.3,1.3,0,0,0,.9,1.584,7.317,7.317,0,0,1,2.657.612,1.216,1.216,0,0,0,.793.178c-.076.743-.154,1.49-.157,2.256a9.434,9.434,0,0,0,1.213,4.621,12.892,12.892,0,0,0,1.39,2.013c.29.349,1.8,1.478,1.83,1.863.018.241-1.213,1.257-1.418,1.532a7.937,7.937,0,0,0-1.131,2.138,9.706,9.706,0,0,0-.388,1.545,12.213,12.213,0,0,1-2.446-1.424,1.3,1.3,0,0,0-1.763.462,1.316,1.316,0,0,0,.462,1.762,12.371,12.371,0,0,0,3.43,1.823c-.045.444-.094.884-.159,1.312-.291,1.907-.072,3.4-2.2,4.23s-4.2.072-6.252-.59a1.326,1.326,0,0,0-1.455.592l-2.973,3.909a1.326,1.326,0,0,0-.1.169A70.833,70.833,0,0,0,32.861,99.331l.28-.69a1.143,1.143,0,0,0,.87.309c1.278-.051,2.585.352,3.848.027,1.765-.454,2.87-2.028,3.758-3.506a1.231,1.231,0,0,0-.689-1.822c-.874,1.037-1.9,2.015-2.155,3.3.257-1.284,1.281-2.262,2.155-3.3a1.21,1.21,0,0,0-1.536.521c-.567.945-1.264,2.248-2.49,2.356-.954.084-1.929-.191-2.89-.153a1.284,1.284,0,0,0-.63.188c-.4-3.425-4.031-5.638-4.806-8.976C27.5,82.934,26.813,75.25,32.939,73.846c1.615-.37.932-2.855-.685-2.484-.029.006-.056.015-.084.022A4.076,4.076,0,0,0,31.9,72.9a4.076,4.076,0,0,1,.267-1.519c-5.332,1.278-7.3,6.986-6.885,11.943.218,2.6.567,5.434,1.949,7.695,1.206,1.973,3.774,4.05,3.594,6.548-.02.039-.044.073-.061.116l-2.377,5.852c-.836-.143-1.508.829-1.309,1.681a4.138,4.138,0,0,1,.958-.111,4.138,4.138,0,0,0-.958.111,1.314,1.314,0,0,0,.522.77c5.474,3.993,11.352,9.176,13.908,15.583,3.294,8.258,4.1,17.28,6.438,25.81a1.289,1.289,0,0,0,2.484-.685c-.176-.642-.342-1.289-.5-1.937a1.235,1.235,0,0,0,.159-.643c-.107-6.856.187-13.71.106-20.566,2.309,7.109,4.616,14.288,6.215,21.581q-.175,1.124-.345,2.215l-9.6,1.423q-2.051-3.766-4.049-7.562c-2.443-4.643-4.5-9.532-7.039-14.113-2.481-4.477-7.571-9.467-12.951-9.672a10.5,10.5,0,0,0-6.6,2.249A31.984,31.984,0,0,1,25.98,108.24a1.392,1.392,0,0,0-.271-2.389,7.9,7.9,0,0,0-2.394,3.549,7.9,7.9,0,0,1,2.394-3.549,1.059,1.059,0,0,0-1.03.164,34.636,34.636,0,0,0-10.787,11.7,34.178,34.178,0,0,0-3.091,8.474c0,.019-.01.038-.013.057q-.474,2.054-.775,4.15c-1.674,11.637-1.364,23.467-3.7,35.005C4.726,173.258,2.4,180.934.073,188.595a1.393,1.393,0,0,0-.049.246H2.69a229.14,229.14,0,0,0,6.5-24.745c1.509-8.161,1.373-16.372,2.322-24.582a116.97,116.97,0,0,1,1.756-12.632c2.1-4.551,7.315-8.766,12.386-5.959,4.639,2.567,7.117,6.582,9.3,11.212,3.053,6.486,6.478,12.811,9.922,19.1a1.25,1.25,0,0,0,2.149.041l24.667-3.654a30.358,30.358,0,0,0-.58,5.714c-.164,2.764-.382,6.85,1.354,9.367a6.685,6.685,0,0,0,1.525-.052,6.685,6.685,0,0,1-1.525.052,5.122,5.122,0,0,0,.765.889c1.21,1.1,3-.661,1.858-1.782a13.019,13.019,0,0,0-1.528,1.271M30.558,105l1.328-3.269a67.126,67.126,0,0,1,12.989,9.82l-.006.007-3.237,4.687c-2.818-4.377-6.958-8.107-11.074-11.245m17,28.575a68.861,68.861,0,0,0-4.087-13.937c-.166-.377-.345-.749-.532-1.117a1.246,1.246,0,0,0,.363-.235,24.107,24.107,0,0,0,3.85,4.634,1.229,1.229,0,0,0,.46.287c.047,3.456,0,6.911-.054,10.367m.766-13.133a18.068,18.068,0,0,1-2.973-3.751,1.207,1.207,0,0,0-.544-.526l2.033-2.945a1.365,1.365,0,0,0,1.575-.767,28.932,28.932,0,0,1,1.966,6.961l-2.057,1.029" transform="translate(15.045 -64.336)" fill="#323232"/>
        <path id="パス_777" data-name="パス 777" d="M.009,384.34a1.3,1.3,0,0,0,2.533.438l.133-.438Z" transform="translate(15.061 -259.836)" fill="#323232"/>
        <path id="パス_778" data-name="パス 778" d="M93.6,273.71a4.719,4.719,0,0,0-2.9,1.092,4.719,4.719,0,0,1,2.9-1.092,1.146,1.146,0,0,0-1.4-.562c-4.08,1.216-8.225,2.269-12.4,3.115-3.268.662-6.582,1.2-9.88,1.691-2.333.35-5.506.821-7.714-.237-2.644-1.267-4.8-4.849-6.486-7.1C53,266.972,50.468,263.192,48,259.378c-1.969-3.042-3.912-6.106-5.744-9.233a1.289,1.289,0,0,0-2.225,1.3A221.339,221.339,0,0,0,53.5,271.915c2,2.685,4.177,6,7.071,7.82,4.361,2.749,11.373.45,15.993-.284,1.945-.309,3.883-.68,5.812-1.1q.082-.488.164-.977-.082.489-.164.977c3.539-.764,7.048-1.691,10.51-2.723a1.286,1.286,0,0,0,.713-1.922" transform="translate(-9.825 -175.634)" fill="#323232"/>
        <path id="パス_779" data-name="パス 779" d="M312.64,282.543l2.168,4.878c.672,1.512,2.893.2,2.224-1.3l-2.168-4.878c-.672-1.512-2.893-.2-2.224,1.3" transform="translate(-180.126 -195.025)" fill="#323232"/>
        <path id="パス_780" data-name="パス 780" d="M260.9,187.652a11.351,11.351,0,0,0-2.624,4.231c-.575,1.568-.606,3.264-1.056,4.808a28.383,28.383,0,0,1-3.363,6.378c-1.836,2.93-3.992,5.69-5.922,8.564-2.078,3.094-4.218,6.136-6.453,9.12a1.259,1.259,0,0,0-.195.384l-17.119-5.555a1.207,1.207,0,0,0-.671-.032,8.08,8.08,0,0,0-5.778-4.385,10.755,10.755,0,0,0-5.345,1.062c-1.392.565-3.358,1.047-4.121,2.457-.027.05-.048.1-.072.157a12.871,12.871,0,0,0-3.41,1.852c-1.007.792-2.091,1.94-3.238,2.3a1.229,1.229,0,0,0-.749.613h0a1.276,1.276,0,0,0,1.434,1.872c2.239-.706,3.745-2.613,5.761-3.733a4.065,4.065,0,0,0,2.34,2.867c1.8.676,4.215-.163,6.119-.9,1.042,2.366,2.149,4.7,3.226,7.052.388.846,2.227,3.808,1.111,4.59-1.438,1.008-2.589-2.491-2.845-3.3a1.3,1.3,0,0,0-2.541.415,5.176,5.176,0,0,0-.769-.788c-2.284-1.853-6.01-.915-8.189.8a1.227,1.227,0,0,0-.4.337,1.268,1.268,0,0,0-.327.459,5.443,5.443,0,0,0-.609,1.249,1.249,1.249,0,0,0-.714-.012l-2.575.677a1.291,1.291,0,0,0-.383,2.286,14.042,14.042,0,0,0,1.727-1.415,14.042,14.042,0,0,1-1.727,1.415,1.187,1.187,0,0,0,1.068.2l2.508-.66a4.317,4.317,0,0,0,1.577,2.257c.966.749,2.337.327,3.488.233a10.507,10.507,0,0,0,4.369-1.076c1.044-.586,2.186-1.51,2.271-2.707a4.608,4.608,0,0,0,2.153,1.924,4.017,4.017,0,0,0,3.655-.287,1.3,1.3,0,0,0,.838,1.617l17.191,5.861c3.133,1.068,6.809,2.325,10.109,1.167,2.279-.8,3.827-3.98,5.178-5.791l5.964-7.993a1.017,1.017,0,0,0,.133-1.127,17.608,17.608,0,0,0-2.524,2.392,17.608,17.608,0,0,1,2.524-2.392,1.424,1.424,0,0,0-2.358-.173L255.1,232.9l-3.2,4.287a10.368,10.368,0,0,1-1.733,2.323c-1.464.944-4.7.185-6.275-.235-.911-.243-1.78-.619-2.672-.923l-9.16-3.123-8.031-2.738a1.2,1.2,0,0,0-.648-.045c.028-.046.058-.089.083-.137,1.064-2-.459-4.378-1.279-6.183-.045-.1-.092-.2-.137-.3a1.263,1.263,0,0,0,.9-.567,10.229,10.229,0,0,0,1.166-3.811,21.569,21.569,0,0,0,.444-3.029l16.532,5.364a1.2,1.2,0,0,0,1.572-1.186,1.318,1.318,0,0,0,1.036-.543c4.22-5.636,8.327-11.485,12.181-17.377a42.341,42.341,0,0,0,3.407-6.38c1.293-3.019.88-6.283,3.426-8.823a1.3,1.3,0,0,0-.826-2.188,9.231,9.231,0,0,0-1.21,1.835,9.231,9.231,0,0,1,1.21-1.835,1.178,1.178,0,0,0-1,.366m-52.907,45.462a1.8,1.8,0,0,1-.142-2.474,5.424,5.424,0,0,1,4.372-1.3,2.807,2.807,0,0,1,1.839,2.133c-1.528,1.555-3.956,1.464-6.07,1.643m13.645-12.351a11.978,11.978,0,0,1-.657,2.738c-.867-1.871-1.738-3.739-2.561-5.631a1.24,1.24,0,0,0-.231-.351,1.059,1.059,0,0,0-1.454-.673,27.655,27.655,0,0,1-3.614,1.143c-.809.189-1.63.48-2.268-.162a1.506,1.506,0,0,1-.227-1.859c.532-.751,2.229-1.188,3.049-1.5,1.147-.434,2.7-1.046,3.94-.739a5.448,5.448,0,0,1,3.72,3.506,1.078,1.078,0,0,0,.654.837,15.383,15.383,0,0,1-.351,2.69" transform="translate(-110.25 -136.757)" fill="#323232"/>
        <path id="パス_781" data-name="パス 781" d="M113.951,293.064l1.37-4.1c.526-1.576-1.961-2.253-2.484-.685l-1.37,4.1c-.526,1.576,1.961,2.253,2.484.685" transform="translate(-54.513 -199.282)" fill="#323232"/>
        <path id="パス_782" data-name="パス 782" d="M115.131,61.582c-.386-2.6-1.095-4.268-3.746-4.9-3.977-.951-8.016-1.695-12.016-2.541-2.943-.622-6.9-2.187-9.885-.986-1.888.76-3.928,2.85-3.763,5a1.277,1.277,0,0,0,.38.834,5.333,5.333,0,0,1,.608-.718,5.333,5.333,0,0,0-.608.718c.741.731,2.3.463,2.2-.834-.195-2.555,3.418-2.946,5.122-2.642,2.6.463,5.171,1.089,7.75,1.634l7.458,1.577c1.009.214,2.826.229,3.442,1.117a6.136,6.136,0,0,1,.576,2.424,1.147,1.147,0,0,0,.235.558,4.4,4.4,0,0,0,.878-.688,4.4,4.4,0,0,1-.878.688,1.249,1.249,0,0,0,1.733.041,4.543,4.543,0,0,0-.854-1.158,4.543,4.543,0,0,1,.854,1.158,1.339,1.339,0,0,0,.516-1.284" transform="translate(-38.472 -52.712)" fill="#323232"/>
        <path id="パス_783" data-name="パス 783" d="M141.741,332.878a34.9,34.9,0,0,1-1.068,4.108,34.9,34.9,0,0,0,1.068-4.108,1.215,1.215,0,0,0-1.995.632l-4.07,18.507h2.635q1.96-8.911,3.92-17.823a1.244,1.244,0,0,0-.49-1.317" transform="translate(-69.678 -227.513)" fill="#323232"/>
        <path id="パス_784" data-name="パス 784" d="M135.47,384.34l-.089.407c-.356,1.616,2.128,2.306,2.484.685l.24-1.092Z" transform="translate(-69.472 -259.836)" fill="#323232"/>
        <path id="パス_785" data-name="パス 785" d="M463.856,226.182a13.654,13.654,0,0,0-1.35-4.744q-1.861-4.373-4.114-8.564a85.785,85.785,0,0,0-14.283-19.842,1.16,1.16,0,0,0-1.1-.352,8.469,8.469,0,0,1,.8,2.375,8.469,8.469,0,0,0-.8-2.375,1.3,1.3,0,0,0-.721,2.174,81.394,81.394,0,0,1,12.751,17.271q2.352,4.158,4.325,8.517a17.4,17.4,0,0,1,1.89,5.153c.372,3.671-.368,7.594-.927,11.206-.667,4.311-1.492,8.6-2.38,12.869q-.657,3.159-1.374,6.305L445.5,254.237l1.749-18c.251-2.58.954-5.508.787-8.1a2.82,2.82,0,0,0-.828-1.666q-1.678-2.205-3.373-4.4c-4.051-5.242-8.135-10.47-12.462-15.488-1.085-1.258-2.9.571-1.822,1.822,3.707,4.3,7.227,8.757,10.715,13.234q2.081,2.672,4.136,5.365a8.277,8.277,0,0,0,.99,1.3l0,0a16.1,16.1,0,0,0-.167,2.205q-.24,2.471-.48,4.941-.592,6.093-1.184,12.187-.372,3.827-.744,7.654a1.067,1.067,0,0,0,.151.608,10.929,10.929,0,0,1-2.476,2.28,12.573,12.573,0,0,0-2.732,2.989,4.675,4.675,0,0,0-.751,3.447h0a6.754,6.754,0,0,0,3.026,3.913,1.131,1.131,0,0,0,.757.228,11.009,11.009,0,0,0,.761,3.92,3.347,3.347,0,0,0,2.638,2.131c1.359.136,2.06-.754,3.063-1.458,1.045-.734,2.351-.373,3.273-1.426.72-.823.624-1.213,1.955-1.272a5.079,5.079,0,0,0,1.8-.112c3.278-1.252,3.377-7.139,3.918-9.92a1.3,1.3,0,0,0-.7-1.435,4.119,4.119,0,0,0-.371,2.425,4.119,4.119,0,0,1,.371-2.425,1.155,1.155,0,0,0-1.781.75c-.293,1.508-.484,3.039-.821,4.538-.435,1.934-.6,3.345-2.829,3.544a3.931,3.931,0,0,0-2.355.562c-.661.517-.8,1.356-1.5,1.671-.721.325-1.4.228-2.141.751-.253.18-.73.785-1,.861-1.548.437-1.388-1.293-1.465-2.125-.216-2.34-.094-4.694-.327-7.034-.162-1.635-2.74-1.652-2.576,0a29.388,29.388,0,0,1,.078,3.192,2.951,2.951,0,0,1-1.358-1.957,4.476,4.476,0,0,1,1.375-2.555,23.437,23.437,0,0,1,2.105-1.876,9.486,9.486,0,0,0,2.424-2.7l11.894,2.082a1.664,1.664,0,0,0,.346.02,2.114,2.114,0,0,0-.013-1.166,2.114,2.114,0,0,1,.013,1.166,1.239,1.239,0,0,0,1.239-.919c1.557-6.639,2.922-13.344,3.976-20.082a56.118,56.118,0,0,0,1.08-11.728m-18.394,2.188c.3.269.082.212,0,0" transform="translate(-253.014 -140.115)" fill="#323232"/>
        <path id="パス_786" data-name="パス 786" d="M151.589,108.848a1.289,1.289,0,0,0,0-2.576,1.289,1.289,0,0,0,0,2.576" transform="translate(-78.839 -86.164)" fill="#323232"/>
        <path id="パス_787" data-name="パス 787" d="M124.547,76.538c-2.494-.369-4.317.725-6.084,2.408-2.366,2.253-4.876,3.739-8.277,3.234-1.622-.241-2.322,2.241-.685,2.485a11.624,11.624,0,0,0,6.961-.949,11.255,11.255,0,0,0,2.43-1.882,6.1,6.1,0,0,1,.556-1.426,6.1,6.1,0,0,0-.556,1.426c1.573-1.457,3.224-3.07,4.97-2.812a1.377,1.377,0,0,0,1.468-.81c-.493.048-1.017.049-1.589.049.572,0,1.1,0,1.589-.049a1.092,1.092,0,0,0-.784-1.674" transform="translate(-52.748 -67.548)" fill="#323232"/>
        <path id="パス_788" data-name="パス 788" d="M118.619,97.551a1.164,1.164,0,0,0-1.025.365,5.23,5.23,0,0,1-3.056,1.573,1.329,1.329,0,0,0-1.288,1.288c0,.019.005.039.006.058a3.829,3.829,0,0,0-3.782,2.347,5.753,5.753,0,0,0,.319,5.621,3.679,3.679,0,0,0,.407-1.065,3.679,3.679,0,0,1-.407,1.065,8.623,8.623,0,0,0,3.387,3.159c1.467.77,2.771-1.453,1.3-2.224-1.856-.974-3.667-2.889-2.814-5.154.686-1.823,2.051-1.333,3.062-.072.9,1.116,2.363-.1,2.09-1.272a2.558,2.558,0,0,1-1.466.634,2.558,2.558,0,0,0,1.466-.634,1.36,1.36,0,0,0-.268-.55,5.5,5.5,0,0,0-.846-.848,8.055,8.055,0,0,0,2.36-1.013,30.751,30.751,0,0,0,.555-3.278" transform="translate(-52.945 -80.709)" fill="#323232"/>
        <path id="パス_789" data-name="パス 789" d="M134.685,99.759a1.306,1.306,0,0,0-.8-2.187,30.751,30.751,0,0,1-.555,3.278,7.762,7.762,0,0,0,1.352-1.091" transform="translate(-68.215 -80.73)" fill="#323232"/>
        <path id="パス_791" data-name="パス 791" d="M375.913,307.958a1.081,1.081,0,0,0-1.03-1.04,24.472,24.472,0,0,1-.733,2.791,24.472,24.472,0,0,0,.733-2.791c-.695-.1-1.483.247-1.477,1.04.062,7.863.124,22.517.186,30.381,0,.012,0,.022,0,.034h2.5c0-.012,0-.022,0-.034-.062-7.863-.124-22.517-.186-30.381" transform="translate(-218.454 -208.398)" fill="#323232"/>
        <path id="パス_792" data-name="パス 792" d="M411.963,332.348a66.191,66.191,0,0,0,13.518-6.787c1.38-.906.091-3.138-1.3-2.225a63.27,63.27,0,0,1-12.9,6.528c-1.543.568-.876,3.059.685,2.484" transform="translate(-241.263 -221.6)" fill="#323232"/>
        <path id="パス_793" data-name="パス 793" d="M58.979,351.324a58.874,58.874,0,0,1-17.192,4.39c-1.634.163-1.651,2.741,0,2.577a62.992,62.992,0,0,0,18.493-4.742c1.521-.646.209-2.866-1.3-2.224" transform="translate(-10.269 -239.144)" fill="#323232"/>
        <path id="パス_794" data-name="パス 794" d="M350.736,107.979a1.289,1.289,0,0,0,0-2.576,1.289,1.289,0,0,0,0,2.576" transform="translate(-203.22 -85.621)" fill="#323232"/>
        <path id="パス_795" data-name="パス 795" d="M380.126,102.586l-9.475-8.89a1.209,1.209,0,0,0-1.286-.276,1.279,1.279,0,0,0-.4-.784c-.01-.014-.015-.028-.026-.042L364.7,86.931c-.006-.008-.013-.014-.019-.021a22.942,22.942,0,0,1,1.429-3.356c1.3-2.579,3.41-4.835,4.508-7.471,1.937-4.65-.565-10.4-3.264-14.215-6.442-9.115-20.766-8.558-28.38-1.4a1.137,1.137,0,0,0-.388.971,4.171,4.171,0,0,1,.874-.409,4.171,4.171,0,0,0-.874.409,1.332,1.332,0,0,0,2.21.851c7.367-6.924,20.488-6.25,25.618,2.933a16.284,16.284,0,0,1,2.264,6.81c.16,2.748-1.27,4.348-2.675,6.531a34.213,34.213,0,0,0-3.537,6.855c-1.025.006-2.05-.006-3.076-.023-1.094-3.192-1.615-6.566-5.711-6.637a7.156,7.156,0,0,0-.065-2.274,3.594,3.594,0,0,0-4.779-2.975c-.008-.011-.012-.021-.02-.032a19.841,19.841,0,0,1-3.385-6.641,1.3,1.3,0,0,0-2.537.386,8.41,8.41,0,0,1-2.742-3.659,1.169,1.169,0,0,0-2.093-.037c.181.633.363,1.254.544,1.8-.181-.544-.363-1.165-.544-1.8a1.319,1.319,0,0,0-.131,1.337,9.6,9.6,0,0,0,6.173,5.765,21.366,21.366,0,0,0,2.491,4.15,1.394,1.394,0,0,0,.351.32c-.778,1.317,1.358,2.508,2.283,1.2.626-.887,1.451-.5,1.775.36a3.968,3.968,0,0,1,.043,2.114,5.565,5.565,0,0,1-2.162,3.612c-1.4.886-.105,3.116,1.3,2.225a7.74,7.74,0,0,0,2.832-3.454,1.265,1.265,0,0,0,.647.182c2.677.04,2.779,3.653,3.588,5.679a1.346,1.346,0,0,0,1.242.946c1.28.019,2.561.043,3.842.038a1.343,1.343,0,0,0,.143.237l.433.577a26.6,26.6,0,0,0-9.544,5.852,50.658,50.658,0,0,0-3.813,4.292,1.331,1.331,0,0,0-.292-.681l-2.8-3.47a1.255,1.255,0,0,0-1.253-.332c-1.886.611-3.767,1.307-5.763.742-2.323-.657-2.266-2.175-2.56-4.162-.084-.569-.142-1.159-.2-1.755a1.857,1.857,0,0,0,.191-.018,9.929,9.929,0,0,0,3.336-1.662c1.392-.891.1-3.122-1.3-2.224a10.791,10.791,0,0,1-2.56,1.362,9.428,9.428,0,0,0-.346-1.3,7.7,7.7,0,0,0-.948-1.879c-.326-.466-1.269-1.118-1.41-1.6-.129-.442,2.384-2.905,2.842-3.679a9.391,9.391,0,0,0,1.372-4.5c.014-.417,0-.829-.026-1.239a1.348,1.348,0,0,0,.348-.142,7.231,7.231,0,0,1,2.626-.6,1.3,1.3,0,0,0,.9-1.585,1.32,1.32,0,0,0-1.585-.9,12.571,12.571,0,0,0-2.526.525,9.1,9.1,0,0,1,.158-2.569,1.35,1.35,0,0,0-1.867-1.5c-.116.435-.21.859-.289,1.255.079-.4.173-.82.289-1.255a1.12,1.12,0,0,0-.617.812c-.527,2.345.033,4.474.021,6.821-.016,2.96-1.848,4.559-3.644,6.6a2.506,2.506,0,0,0-.136,3.439c1.117,1.436,2.136,2.4,2.35,4.28.112.99.19,1.991.344,2.975.247,1.582.089,3.283,1.051,4.641,2.328,3.288,6.457,2.831,9.845,1.841l2.34,2.9a1.065,1.065,0,0,0,.8.433c-.454.532-.917,1.055-1.4,1.564a1.063,1.063,0,0,0-.964.6,5.49,5.49,0,0,1,3.031-.439,5.49,5.49,0,0,0-3.031.439,1.347,1.347,0,0,0-.114.325,27.155,27.155,0,0,0-.209,10.352,147.972,147.972,0,0,0-2.027,15.335c-.1,1.409-.181,2.853-.215,4.31a83.038,83.038,0,0,1-1.941-9.57c-.232-1.635-2.714-.939-2.485.685a84.357,84.357,0,0,0,5.259,19.511,5.176,5.176,0,0,0,.9-1.453,5.176,5.176,0,0,1-.9,1.453q.723,1.8,1.52,3.554a1.062,1.062,0,0,0,.728.641,1.426,1.426,0,0,0,2.036,1.319c.029-.307.05-.622.05-.956,0,.334-.02.648-.05.956a1.031,1.031,0,0,0,.454-.772q1.533-11.21,3.187-22.4c.689-4.648,1.374-9.3,2.2-13.927a21.662,21.662,0,0,1,.722-3.514c.646-1.793,2.326-3.313,3.617-4.655a130.45,130.45,0,0,1,9.841-9.1,1.177,1.177,0,0,0,.388.735l5.574,5.229a9.169,9.169,0,0,0-8.529,1.816c-4.194,3.5-5.593,8.58-3.04,13.506.763,1.472,2.987.171,2.225-1.3-1.913-3.69-.835-7.315,2.176-9.987s6.961-2.285,9.95.277a1.359,1.359,0,0,0,2.017-.3,1.405,1.405,0,0,0,.986-.486,12.561,12.561,0,0,1-.8-1.6,12.561,12.561,0,0,0,.8,1.6,1.156,1.156,0,0,0-.062-1.689m-32.455,35.932c-.216,1.529-.426,3.059-.639,4.589-1.456-4.584-1.263-9.681-.934-14.407a138.5,138.5,0,0,1,1.84-14.1l1.371.271a1.341,1.341,0,0,0,1.455-.592q.329-.516.654-1.038c-1.508,8.377-2.559,16.861-3.747,25.279m3.7-30.332c-.716,1.37-1.512,2.7-2.334,4.009l-1.109-.219a23.959,23.959,0,0,1,.2-7.627,1.3,1.3,0,0,0,.4-.285c.049-.051.1-.1.145-.157l3.013,3.889a1.278,1.278,0,0,0-.308.389m6.535-7.269a28,28,0,0,0-4.373,5.1l-3.144-4.06c1.29-1.533,2.52-3.107,3.9-4.568a24.285,24.285,0,0,1,10.247-6.411l1.723,2.3c-2.874,2.444-5.683,4.979-8.354,7.641" transform="translate(-191.6 -54.18)" fill="#323232"/>
        <path id="パス_796" data-name="パス 796" d="M399.9,342.717c-4.37-8.243-10.183-15.607-14.553-23.85-.777-1.465-3-.165-2.224,1.3,4.2,7.917,9.722,15.026,14.025,22.879h2.875a1.4,1.4,0,0,0-.122-.329" transform="translate(-224.123 -218.542)" fill="#323232"/>
        <path id="パス_797" data-name="パス 797" d="M420.747,384.34c.177.323.355.645.528.971.718,1.354,2.667.346,2.346-.971Z" transform="translate(-247.724 -259.836)" fill="#323232"/>
        <path id="パス_1140" data-name="パス 1140" d="M245.983,7.421,243.9.771c-.424-1.354-2.56-.776-2.133.588l2.084,6.65c.424,1.354,2.561.776,2.133-.588" transform="translate(-179.557 -83.963) rotate(16)" fill="#35cae9"/>
        <path id="パス_1141" data-name="パス 1141" d="M195.561,43.787,188.7,38.76c-1.15-.842-2.255,1.077-1.116,1.91l6.865,5.027c1.15.842,2.255-1.077,1.116-1.91" transform="translate(-130.4 -101.101) rotate(16)" fill="#35cae9"/>
        <path id="パス_1142" data-name="パス 1142" d="M167.937,100.77l-6.626-1.956a1.107,1.107,0,0,0-.588,2.133l6.626,1.956a1.107,1.107,0,0,0,.588-2.133" transform="translate(-97.146 -140.347) rotate(16)" fill="#35cae9"/>
        <path id="パス_1143" data-name="パス 1143" d="M4.273,1.359,2.189,8.009c-.424,1.354-2.56.776-2.133-.588L2.14.771C2.564-.583,4.7-.005,4.273,1.359" transform="translate(169.808 -8.899) rotate(164)" fill="#35cae9"/>
        <path id="パス_1144" data-name="パス 1144" d="M8.46,2.119,1.595,7.146C.445,7.988-.66,6.069.478,5.236L7.343.209C8.493-.633,9.6,1.286,8.46,2.119" transform="translate(183.378 -5.401) rotate(164)" fill="#35cae9"/>
        <path id="パス_1145" data-name="パス 1145" d="M7.991,2.184,1.364,4.14A1.107,1.107,0,0,1,.776,2.007L7.4.051a1.107,1.107,0,0,1,.588,2.133" transform="translate(191.951 2.705) rotate(164)" fill="#35cae9"/>
      </g>
    </g>
  </g>
</svg>
