<svg xmlns="http://www.w3.org/2000/svg" xmlns:xlink="http://www.w3.org/1999/xlink" width="183" height="183" viewBox="0 0 183 183">
  <defs>
    <clipPath id="clip-path">
      <rect id="長方形_382" data-name="長方形 382" width="183" height="183" transform="translate(337 3461.419)" fill="#fff" stroke="#707070" stroke-width="1" opacity="0.619"/>
    </clipPath>
  </defs>
  <g id="step2_illust" transform="translate(-337 -3461.419)" clip-path="url(#clip-path)">
    <g id="グループ_685" data-name="グループ 685">
      <g id="グループ_684" data-name="グループ 684">
        <rect id="長方形_312" data-name="長方形 312" width="27.156" height="22.995" transform="translate(417.47 3532.122)" fill="#fff"/>
      </g>
      <g id="グループ_683" data-name="グループ 683" transform="translate(334.452 3470.681)">
        <path id="パス_545" data-name="パス 545" d="M371.4,297.953h27.156a1.122,1.122,0,0,0,1.106-1.106V273.852a1.122,1.122,0,0,0-1.106-1.106H371.4a1.122,1.122,0,0,0-1.106,1.106v22.995a1.107,1.107,0,0,0,2.212,0V273.852l-1.106,1.106h27.156l-1.106-1.106v22.995l1.106-1.106H371.4a1.107,1.107,0,0,0,0,2.212" transform="translate(-290.38 -212.412)" fill="#323232"/>
        <path id="パス_546" data-name="パス 546" d="M371.632,343.545c-10.95,0-15.111-7.884-15.111-7.884l-3.5,4.38,14.454,66.794,11.388.657,12.7-64.385-4.6-7.446s-4.38,7.884-15.33,7.884" transform="translate(-276.926 -261.409)" fill="#fff"/>
        <path id="パス_547" data-name="パス 547" d="M261.167,365.725c-4.555-2.737-11.506-4.774-14.57-6.16-3.506-1.585-8.1-3.013-11.607-4.6l-1.419,0-3,9.956-15.731,52.235-.723.213-1.454-4.969-5.541,1.62L187.01,378.5s.985-.2,2.418-.567l-1.154-4.746,2.529-16.188-.14-.309a118.2,118.2,0,0,1-15.853,5.924,41.276,41.276,0,0,0-8.479,3.057,11.308,11.308,0,0,0-5.738,6.655l-9.04,55.352H269.495l-2.969-53.217c-.366-2.8-2.939-7.277-5.359-8.731" transform="translate(-120.027 -276.444)" fill="#e7e7e7"/>
        <path id="パス_548" data-name="パス 548" d="M372.367,140.484v0a2.383,2.383,0,0,0-.348.026l-3.132-2.33c-5.541-2.65-1.927-12.286-6.66-13.961l-3.635-.729a7.835,7.835,0,0,0-9.185.412c-1.811,1.507-2,2.065-3.011,4.113a40.97,40.97,0,0,1-4.008,6.736c-1.421,1.877-3.3,3.679-5.641,3.9l-3.362,1.255a1.939,1.939,0,0,0-.339.031c-1.669.294-2.886,2.694-3.145,4.133-.609,3.381,1.575,7.965,5.276,8.453l.826-.1c.594,4.643,1.02,8.539,3.546,12.248a20.341,20.341,0,0,0,4.242,4.439c4.437,3.524,10.913,3.922,16.026,1.638a13.614,13.614,0,0,0,5.192-4c2.731-3.416,3.975-8.123,4.857-13.42l.878-.611c2.913.547,5.527-5.344,4.916-8.74-.274-1.52-1.494-3.513-3.294-3.489m-26.814,2.876a1.1,1.1,0,0,1,0-2.19,1.1,1.1,0,0,1,0,2.19m3.239,15.439H357c-.928,5.508-7.06,5.727-8.206,0M360.6,143.359a1.1,1.1,0,0,1,0-2.19,1.1,1.1,0,0,1,0,2.19" transform="translate(-258.845 -95.169)" fill="#fff"/>
        <path id="パス_549" data-name="パス 549" d="M365.326,71.157c-1.281-3.869-3.854-7.468-7.183-7.349l-2.9-1.071c-2.987-4.754-9.331-6.787-14.8-5.492a21.454,21.454,0,0,0-11.281,7.168c-2.81,3.171-4.531,7.387-8.885,8.431l3.613,2.409c-1.686,3.373-.241,9.154,1.2,11.563l.534,2.234a1.942,1.942,0,0,1,.34-.031l3.361-1.255c2.343-.217,4.22-2.019,5.642-3.9a40.968,40.968,0,0,0,4.008-6.737c1.007-2.048,1.2-2.606,3.011-4.113a7.835,7.835,0,0,1,9.185-.412l3.635.729c4.733,1.675,1.119,11.311,6.66,13.961l3.132,2.33a2.351,2.351,0,0,1,.348-.026v0l-.107-3.024c1.607-3.747,1.763-11.548.482-15.418" transform="translate(-251.429 -44.283)" fill="#7f7f7f"/>
        <path id="パス_550" data-name="パス 550" d="M461.5,208.118a1.3,1.3,0,0,0,0,2.588,1.295,1.295,0,0,0,0-2.588" transform="translate(-359.716 -162.338)" fill="#363636"/>
        <path id="パス_551" data-name="パス 551" d="M326.3,441.621l-5.035,1.474a45.609,45.609,0,0,1-6.866,2.284c-.048.013-.094.024-.14.035-1.432.368-2.418.567-2.418.567l20.115,35.53,5.541-1.62-5.052-17.266Z" transform="translate(-244.86 -343.93)" fill="#e7e7e7"/>
        <path id="パス_552" data-name="パス 552" d="M393.479,208.118a1.3,1.3,0,0,0,0,2.588,1.295,1.295,0,0,0,0-2.588" transform="translate(-306.712 -162.338)" fill="#363636"/>
        <path id="パス_553" data-name="パス 553" d="M325.143,354.986l-1.669.026q-1.751.874-3.53,1.688l.14.309-2.53,16.188,1.154,4.746c.046-.011.092-.022.14-.035a45.614,45.614,0,0,0,6.866-2.284l5.035-1.474-2.915-9.962Z" transform="translate(-249.309 -276.46)" fill="#e7e7e7"/>
        <path id="パス_554" data-name="パス 554" d="M351.956,247.524c.574,4.2.57,8.659,2.3,12.592a17.935,17.935,0,0,0,8.38,8.517c7.058,3.3,16.644.838,21.146-5.582,2.637-3.76,3.642-8.465,4.393-12.914.235-1.392-1.9-1.991-2.133-.588a34.877,34.877,0,0,1-3.073,10.582,14.575,14.575,0,0,1-8.2,6.834,14.978,14.978,0,0,1-10.347.041,15.878,15.878,0,0,1-7.867-7.2c-2.008-3.861-1.888-8.655-2.465-12.873-.192-1.4-2.324-.806-2.133.588" transform="translate(-276.09 -191.688)" fill="#323232"/>
        <path id="パス_555" data-name="パス 555" d="M415.751,224.712a16.949,16.949,0,0,1-2.3,5.413,1.122,1.122,0,0,0,.4,1.513c.959.606,1.855,1.3,2.814,1.907,1.207.763,2.318-1.151,1.117-1.91-.959-.606-1.855-1.3-2.814-1.907l.4,1.513a18.754,18.754,0,0,0,2.518-5.942,1.107,1.107,0,0,0-2.133-.588" transform="translate(-323.873 -174.391)" fill="#323232"/>
        <path id="パス_556" data-name="パス 556" d="M329.889,197.29c-3.657-.271-5.277,4.62-4.907,7.525.419,3.291,2.638,6.684,6.108,7.242,1.393.224,1.992-1.907.588-2.133-2.439-.392-3.955-2.557-4.427-4.865a5.725,5.725,0,0,1,.19-3.181c.39-1.036,1.173-2.47,2.447-2.375,1.42.105,1.413-2.107,0-2.212" transform="translate(-255.053 -153.639)" fill="#323232"/>
        <path id="パス_557" data-name="パス 557" d="M512.31,202.089l.348-.026a1.129,1.129,0,0,0,1.106-1.106v0l-1.106,1.106c1.2.054,1.939,1.385,2.176,2.433a6.8,6.8,0,0,1-.192,3.145,9.439,9.439,0,0,1-1.4,3.125c-.389.545-1.134,1.463-1.916,1.353-1.392-.194-1.994,1.937-.588,2.133,3.455.483,5.443-3.469,6.1-6.3.738-3.167-.143-7.923-4.185-8.105a1.119,1.119,0,0,0-1.106,1.106v0l1.106-1.106-.348.026c-1.411.106-1.422,2.319,0,2.212" transform="translate(-399.136 -155.639)" fill="#323232"/>
        <path id="パス_558" data-name="パス 558" d="M372.118,342.753c-4.419-2.052-9.143-4.345-12.828-7.569a1.124,1.124,0,0,0-1.849.488l-1.04,2.688c-.514,1.329,1.624,1.9,2.133.588l1.041-2.688-1.849.488c3.841,3.361,8.669,5.776,13.275,7.915,1.283.6,2.408-1.31,1.116-1.91" transform="translate(-279.5 -260.796)" fill="#323232"/>
        <path id="パス_559" data-name="パス 559" d="M359.4,376.385l8.848,7.742a1.123,1.123,0,0,0,1.849-.488l.9-2.4.607-1.612c.059-.156.445-1.112.191-.536.7-1.578,1.446-3.134,2.169-4.7.592-1.284-1.314-2.409-1.91-1.116-1.492,3.234-2.838,6.443-4.093,9.776l1.849-.488-8.848-7.742c-1.067-.934-2.638.624-1.564,1.564" transform="translate(-281.619 -290.257)" fill="#323232"/>
        <path id="パス_560" data-name="パス 560" d="M346.862,351.509l4.86,16.612c1.573,5.375,3.317,10.7,5,16.039l2.549,8.078c.427,1.353,2.563.775,2.133-.588l-5.64-17.874c-1.432-4.539-2.75-9.109-4.086-13.677L349,350.921a1.107,1.107,0,0,0-2.133.588" transform="translate(-272.094 -272.689)" fill="#323232"/>
        <path id="パス_561" data-name="パス 561" d="M315.209,359.984q-1.265,8.094-2.53,16.188c-.217,1.393,1.914,1.993,2.133.588l2.53-16.188c.217-1.392-1.914-1.993-2.133-.588" transform="translate(-245.5 -279.729)" fill="#323232"/>
        <path id="パス_562" data-name="パス 562" d="M316.856,443.6a45.7,45.7,0,0,1-9.159,2.775,1.116,1.116,0,0,0-.661,1.625l6.789,11.992,10.829,19.128,2.5,4.41a1.107,1.107,0,0,0,1.91-1.116l-6.789-11.992-10.829-19.128-2.5-4.41-.661,1.625a48.188,48.188,0,0,0,9.688-3c1.3-.571.176-2.478-1.116-1.91" transform="translate(-241.008 -345.389)" fill="#323232"/>
        <path id="パス_563" data-name="パス 563" d="M447.905,341.747c4.395-2.523,9.058-5.465,12.416-9.3h-1.564l1.867,2.31c.9,1.108,2.451-.466,1.564-1.564l-1.867-2.31a1.11,1.11,0,0,0-1.564,0c-3.244,3.7-7.724,6.518-11.968,8.954a1.107,1.107,0,0,0,1.116,1.91" transform="translate(-349.536 -257.437)" fill="#323232"/>
        <path id="パス_564" data-name="パス 564" d="M456.673,377.055l-9.07,7.521,1.737.224c-1.782-2.766-3.455-5.549-5.088-8.406a1.107,1.107,0,0,0-1.91,1.116c1.633,2.857,3.306,5.64,5.088,8.406a1.126,1.126,0,0,0,1.737.224l9.07-7.521c1.1-.91-.476-2.467-1.564-1.564" transform="translate(-346.371 -292.713)" fill="#323232"/>
        <path id="パス_565" data-name="パス 565" d="M476.069,350.929c-1.278,4.245-2.572,8.485-3.805,12.743l-6.1,21.072L464.349,391a1.107,1.107,0,0,0,2.133.588l4.638-16.012c1.4-4.833,2.755-9.681,4.2-14.5q1.438-4.781,2.879-9.561a1.107,1.107,0,0,0-2.133-.588" transform="translate(-363.592 -272.697)" fill="#323232"/>
        <path id="パス_566" data-name="パス 566" d="M411.9,426.058a212.006,212.006,0,0,0-4.288,24.276l6.067,21.514,7.15-21a221.3,221.3,0,0,0-4.461-24.788Z" transform="translate(-319.447 -331.81)" fill="#35cae9"/>
        <path id="パス_567" data-name="パス 567" d="M406.954,421.869q-2.04,8.634-3.37,17.414-.312,2.072-.584,4.15a12.453,12.453,0,0,0-.327,3.325,13.172,13.172,0,0,0,.383,1.36l4.32,15.321,1.356,4.809a1.116,1.116,0,0,0,2.133,0l4.106-12.061,2.481-7.288a15,15,0,0,0,.53-1.557,4.789,4.789,0,0,0-.076-1.619q-.276-2.217-.6-4.427c-.958-6.527-2.234-13.007-3.751-19.427a1.122,1.122,0,0,0-1.067-.812H408.02a1.107,1.107,0,0,0,0,2.212h4.468l-1.066-.812c1.324,5.6,2.461,11.245,3.368,16.927q.331,2.076.62,4.159.15,1.089.285,2.18a8.259,8.259,0,0,1,.18.959,6.433,6.433,0,0,1-.476,1.4L410.319,463l-1.586,4.66h2.133l-3.332-11.817-2.08-7.378a15.417,15.417,0,0,1-.563-2c-.014-.105-.086-.213-.09-.319a13.953,13.953,0,0,1,.3-1.856q.146-1.141.3-2.28,1.38-9.858,3.681-19.555c.327-1.384-1.806-1.975-2.133-.588" transform="translate(-315.563 -327.915)" fill="#323232"/>
        <path id="パス_568" data-name="パス 568" d="M540.32,360.574l2.529,16.188c.219,1.4,2.351.807,2.133-.588l-2.529-16.188c-.219-1.4-2.351-.807-2.133.588" transform="translate(-422.784 -279.73)" fill="#323232"/>
        <path id="パス_569" data-name="パス 569" d="M487.034,445.508a48.07,48.07,0,0,0,9.688,3l-.661-1.625-5.894,11.659-9.405,18.606-2.175,4.3c-.641,1.268,1.267,2.389,1.91,1.116l5.893-11.659L495.8,452.3l2.175-4.3a1.119,1.119,0,0,0-.661-1.625,45.546,45.546,0,0,1-9.159-2.775c-1.291-.568-2.418,1.337-1.116,1.91" transform="translate(-374.618 -345.388)" fill="#323232"/>
        <path id="パス_570" data-name="パス 570" d="M379.9,118.742a9.21,9.21,0,0,0-12.5,2.663,25.7,25.7,0,0,0-1.555,2.961c-.678,1.343-1.4,2.664-2.207,3.935-1.387,2.187-3.322,5.093-6.137,5.446-1.394.175-1.411,2.389,0,2.212,5.365-.673,8.373-6.676,10.517-11,.96-1.938,1.893-3.619,3.886-4.684a6.8,6.8,0,0,1,6.884.38c1.194.783,2.3-1.132,1.116-1.91" transform="translate(-279.6 -91.374)" fill="#323232"/>
        <path id="パス_571" data-name="パス 571" d="M352.394,58.327c-3.156-4.869-9.181-7.079-14.818-6.234-6.086.913-11.111,4.992-14.681,9.806-1.83,2.467-3.557,5.2-6.711,6.027a1.107,1.107,0,0,0,.588,2.133c5.26-1.372,7.419-6.975,11.051-10.469,4.039-3.887,9.7-6.454,15.356-5.1a11.887,11.887,0,0,1,7.3,4.95c.772,1.191,2.687.083,1.91-1.116" transform="translate(-247.629 -40.432)" fill="#323232"/>
        <path id="パス_572" data-name="パス 572" d="M472.439,128.37c2.217.853,2.092,4.753,2.364,6.659.407,2.851,1.271,5.795,4.031,7.19,1.268.641,2.389-1.267,1.117-1.91-5.363-2.711-.941-11.77-6.924-14.073-1.329-.512-1.905,1.626-.588,2.133" transform="translate(-369.351 -98.251)" fill="#323232"/>
        <path id="パス_573" data-name="パス 573" d="M487.688,85.472c4.261-.017,6.3,5.962,6.727,9.4.482,3.853.412,8.333-1.093,11.969-.544,1.314,1.6,1.887,2.133.588a20.89,20.89,0,0,0,1.3-6.538,31.213,31.213,0,0,0-.323-7.421c-.74-4.3-3.679-10.229-8.74-10.209a1.107,1.107,0,0,0,0,2.212" transform="translate(-380.975 -64.842)" fill="#323232"/>
        <path id="パス_574" data-name="パス 574" d="M328.935,135.466c-1.8,3.828-.865,9.113,1.2,12.68a1.107,1.107,0,0,0,1.91-1.116c-1.635-2.818-2.644-7.38-1.2-10.447.6-1.281-1.3-2.405-1.91-1.116" transform="translate(-257.428 -105.056)" fill="#323232"/>
        <path id="パス_575" data-name="パス 575" d="M419.861,287.814h-8.206c1.145,5.727,7.277,5.508,8.206,0" transform="translate(-322.593 -224.147)" fill="#fff"/>
        <path id="パス_576" data-name="パス 576" d="M416,282.814H407.8a1.12,1.12,0,0,0-1.067,1.4c.558,2.548,2.395,5.067,5.251,5.024,2.8-.042,4.609-2.476,5.088-5.024.262-1.391-1.87-1.988-2.133-.588-.29,1.541-1.149,3.355-2.955,3.4-1.856.046-2.779-1.852-3.118-3.4l-1.066,1.4H416a1.107,1.107,0,0,0,0-2.212" transform="translate(-318.737 -220.253)" fill="#323232"/>
        <path id="パス_577" data-name="パス 577" d="M189.813,350.3a117.319,117.319,0,0,1-18.723,7.384c-5.289,1.574-11.4,3.051-14.384,8.2a10.919,10.919,0,0,0-1.266,4.021l-.909,5.566-6.156,37.7-1.71,10.469a1.124,1.124,0,0,0,1.067,1.4h103.48c4.743,0,9.526.182,14.266,0,.065,0,.131,0,.2,0a1.117,1.117,0,0,0,1.106-1.106q-.8-14.3-1.6-28.591l-1.028-18.426-.288-5.163a13.417,13.417,0,0,0-1.645-5.627,13.217,13.217,0,0,0-5.432-5.726,64.768,64.768,0,0,0-8.091-3.48c-2.454-.916-4.868-1.882-7.291-2.872-3.207-1.31-6.517-2.363-9.682-3.777-1.289-.576-2.415,1.33-1.116,1.91,2.762,1.234,5.622,2.222,8.444,3.3,2.158.827,4.256,1.789,6.423,2.594,2.394.889,4.8,1.742,7.146,2.764,2.265.989,4.569,1.985,6.133,3.97a12.445,12.445,0,0,1,2.879,6.574q.13,2.334.26,4.668l2.067,37.044.6,10.834,1.106-1.106H152.512a32.492,32.492,0,0,0-4.585,0,1.393,1.393,0,0,1-.2,0l1.066,1.4,4.4-26.913,3.075-18.831c.517-3.165.889-6.4,1.557-9.535,1.19-5.584,8.039-7.442,12.7-8.793a122.48,122.48,0,0,0,20.4-7.943c1.275-.633.156-2.542-1.116-1.91" transform="translate(-116.206 -272.704)" fill="#323232"/>
        <path id="パス_578" data-name="パス 578" d="M414.753,376.814l-1.548,5.751,2.563,5.4h5.037l1.533-4.38-.727-6.553Z" transform="translate(-323.8 -293.459)" fill="#35cae9"/>
        <path id="パス_579" data-name="パス 579" d="M409.8,372.623,409,375.6c-.246.915-.9,2.242-.766,3.212a11.541,11.541,0,0,0,1.319,2.915l1.375,2.9a1.091,1.091,0,0,0,.955.548h5.037a1.139,1.139,0,0,0,1.066-.812l1.014-2.9a5.344,5.344,0,0,0,.523-2.1c-.128-2.079-.462-4.164-.692-6.234a1.137,1.137,0,0,0-1.106-1.106l-6.857-.221c-1.424-.046-1.422,2.166,0,2.212l6.857.221-1.106-1.106c.226,2.033.342,4.11.68,6.126.02.12.031.245.04.366.016.191.122-.39.008-.125-.19.443-.322.921-.482,1.375l-1.014,2.9,1.067-.812h-5.037l.955.548-2.563-5.4.112.852,1.548-5.751a1.107,1.107,0,0,0-2.133-.588" transform="translate(-319.916 -289.562)" fill="#323232"/>
        <path id="パス_580" data-name="パス 580" d="M73.606,441.692l34.889,57.994,44.878-.531-34.889-57.993Z" transform="translate(-59.324 -343.572)" fill="#fff"/>
        <path id="パス_581" data-name="パス 581" d="M68.706,438.367,77.448,452.9,93.935,480.3l6.581,10.94c1,1.66,1.9,3.483,3.038,5.05.5.684,1.059.613,1.785.6l4.02-.048,14.22-.168,25.373-.3.476-.006a1.116,1.116,0,0,0,.955-1.664l-8.743-14.533-16.487-27.405-6.581-10.94c-1-1.66-1.9-3.483-3.038-5.05-.5-.684-1.059-.613-1.785-.6l-4.02.048-14.22.168-25.373.3-.476.006a1.107,1.107,0,0,0,0,2.212l15.164-.179,24.168-.286,5.546-.066-.955-.548,11.779,19.58,18.785,31.225,4.324,7.188.955-1.664-15.164.179-24.168.286-5.545.066.955.548-11.779-19.58L74.94,444.439l-4.324-7.188a1.107,1.107,0,0,0-1.91,1.116" transform="translate(-55.378 -339.689)" fill="#323232"/>
        <path id="パス_582" data-name="パス 582" d="M141.714,440.85l1.848,3.928a1.085,1.085,0,0,0,.955.548l11.552-.231a1.119,1.119,0,0,0,.955-1.664l-2.08-4.159c-.637-1.273-2.545-.154-1.91,1.116l2.079,4.159.955-1.664-11.552.231.955.548-1.848-3.928c-.606-1.287-2.513-.166-1.91,1.116" transform="translate(-112.275 -341.663)" fill="#323232"/>
        <path id="パス_583" data-name="パス 583" d="M144.507,606l-1.971-3.066-3.285-5.913-2.758,6.464-1.839,5.866a25.454,25.454,0,0,0-1.4,11.167c.675,4.644,5.071,11.218,10.337,11.019a13.938,13.938,0,0,0,3.891-.878c7.712-2.613,16.361-7.668,23.1-12.2L158.105,600.9Z" transform="translate(-105.646 -464.954)" fill="#e7e7e7"/>
        <path id="パス_584" data-name="パス 584" d="M131.531,610.456c-1.548,4.939-3.555,9.985-3.443,15.241a16.086,16.086,0,0,0,6.259,12.381,8.648,8.648,0,0,0,6.836,1.659,30.17,30.17,0,0,0,6.425-2.2c4.069-1.739,8.018-3.76,11.925-5.832,2.512-1.331,5.011-2.689,7.48-4.1a1.117,1.117,0,0,0,.4-1.513L156.293,609.31l-1.59-2.4a1.126,1.126,0,0,0-1.249-.508c-5.6,2.2-11.186,4.345-16.669,6.812-1.3.583-.173,2.49,1.116,1.91,1.455-.655,2.917-1.3,4.365-1.964.475-.219-.095.031.066-.033l.455-.178,2.051-.8,9.2-3.609-1.249-.508,11.118,16.778,1.59,2.4.4-1.513c-5.3,3.028-10.7,5.911-16.228,8.5-1.761.826-3.539,1.624-5.363,2.3-2.12.79-4.448,1.656-6.69.874-3.894-1.358-6.687-6.084-7.2-10-.732-5.572,1.614-11.105,3.25-16.323.427-1.362-1.708-1.944-2.133-.588" transform="translate(-101.75 -472.219)" fill="#323232"/>
        <path id="パス_585" data-name="パス 585" d="M668.106,306.84a1.959,1.959,0,0,0-2.816.027l-.015.015-.1.087c.314-.45,1.7-2.6.368-3.551a2.534,2.534,0,0,0-2.485-.174c-1.037.447-2.572,2.26-3.568,2.693a3.507,3.507,0,0,0-.977-1.257c-1.914-.957-4.46,1.143-5.741,2.391-1.414,1.38-6.754,6.142-10.484,9.645l-.464-.1c.674-3.273.844-6.725-.766-7.779a2.417,2.417,0,0,0-3.118.118c-1.431,1.7-1.064,3.031-1.192,4.093-.553,4.593-.981,5.112-2.869,7.892a19.819,19.819,0,0,0-2.77,4.325,12.311,12.311,0,0,0,.1,9.729v9.555c4.808,1.571,6.476,1.562,11.25,1.114a23.589,23.589,0,0,0,5.429-1.114v-2.417l.169-5.315s13.488-15.618,17.82-20.849c.551-.662,1.131-2.045.135-2.736a2.464,2.464,0,0,0-.36-.213l.1-.193c1.192-.993.179-.474,1.2-1.5.916-.918,2.69-3.164,1.151-4.484" transform="translate(-492.758 -235.974)" fill="#fff"/>
        <path id="パス_586" data-name="パス 586" d="M638.675,487.486a35.8,35.8,0,0,1-6.722,1.288,35.2,35.2,0,0,1-14.361-1.685l.012.5c-.247,7.29-.493,17.968-.742,25.26-.128,3.843-.319,7.479-.073,11.221.4,5.988,1.451,14.02,13.053,14.02a18.2,18.2,0,0,0,3.827-.365c6.055-1.3,7.776-5.995,7.776-12.93,0-6.043-.242-26.348-.529-38.033q-1.12.4-2.241.728" transform="translate(-482.256 -379.082)" fill="#e7e7e7"/>
        <path id="パス_587" data-name="パス 587" d="M634.483,482.474a35,35,0,0,1-20.5-.4,1.115,1.115,0,0,0-1.4,1.066c.109,4.479-.245,9.015-.368,13.494q-.2,7.4-.451,14.8a64.817,64.817,0,0,0,.445,12.7,13.708,13.708,0,0,0,3.515,7.64c2.729,2.716,6.706,3.506,10.428,3.473,3.948-.035,8.007-1.1,10.3-4.554,2-3.012,2.2-6.906,2.192-10.406-.006-3.036-.037-6.071-.07-9.107-.1-9.455-.228-18.912-.459-28.365a1.116,1.116,0,0,0-1.4-1.066q-1.112.393-2.241.728a1.107,1.107,0,0,0,.588,2.133q1.131-.335,2.241-.728l-1.4-1.067c.2,7.98.31,15.962.408,23.944q.064,5.21.1,10.421c.021,2.993.2,6.072-.486,9.007a8.026,8.026,0,0,1-6.177,6.461c-3.637.867-8.4.631-11.532-1.633a10.363,10.363,0,0,1-3.717-6.569,49.02,49.02,0,0,1-.591-11.136c.142-5.25.34-10.5.485-15.748.132-4.785.51-9.632.394-14.416l-1.4,1.067a37.154,37.154,0,0,0,21.671.4,1.107,1.107,0,0,0-.588-2.133" transform="translate(-478.359 -375.137)" fill="#7cc6e2"/>
        <path id="パス_588" data-name="パス 588" d="M634.483,482.474a35,35,0,0,1-20.5-.4,1.115,1.115,0,0,0-1.4,1.066c.109,4.479-.245,9.015-.368,13.494q-.2,7.4-.451,14.8a64.817,64.817,0,0,0,.445,12.7,13.708,13.708,0,0,0,3.515,7.64c2.729,2.716,6.706,3.506,10.428,3.473,3.948-.035,8.007-1.1,10.3-4.554,2-3.012,2.2-6.906,2.192-10.406-.006-3.036-.037-6.071-.07-9.107-.1-9.455-.228-18.912-.459-28.365a1.116,1.116,0,0,0-1.4-1.066q-1.112.393-2.241.728a1.107,1.107,0,0,0,.588,2.133q1.131-.335,2.241-.728l-1.4-1.067c.2,7.98.31,15.962.408,23.944q.064,5.21.1,10.421c.021,2.993.2,6.072-.486,9.007a8.026,8.026,0,0,1-6.177,6.461c-3.637.867-8.4.631-11.532-1.633a10.363,10.363,0,0,1-3.717-6.569,49.02,49.02,0,0,1-.591-11.136c.142-5.25.34-10.5.485-15.748.132-4.785.51-9.632.394-14.416l-1.4,1.067a37.154,37.154,0,0,0,21.671.4,1.107,1.107,0,0,0-.588-2.133" transform="translate(-478.359 -375.137)" fill="#323232"/>
        <path id="パス_589" data-name="パス 589" d="M707.511,372.628l.169-5.315-.324.782q5.022-5.815,10.02-11.652,3.323-3.881,6.62-7.784c.984-1.172,2.277-2.4,2.169-4.062-.123-1.877-2.257-2.669-3.871-2.384-2.7.477-4.451,3.133-6.289,4.915-1.638,1.588-3.429,3-5.125,4.527-1.061.954.508,2.514,1.564,1.564,1.583-1.423,3.253-2.746,4.8-4.212,1.018-.967,1.945-2.016,2.936-3.008.746-.747,1.81-1.736,2.961-1.642,1.918.156-.425,2.4-.951,3.03q-1.667,1.98-3.348,3.948c-4.236,4.972-8.532,9.892-12.764,14.868a3.108,3.108,0,0,0-.643,2.24q-.067,2.093-.133,4.186c-.045,1.424,2.167,1.422,2.212,0" transform="translate(-551.279 -266.469)" fill="#323232"/>
        <path id="パス_590" data-name="パス 590" d="M670.043,384.177c-3.461-.13-6.984,1.138-10.071,2.588s-6.37,3.429-8.182,6.4c-.744,1.218,1.169,2.331,1.91,1.116,1.606-2.631,4.678-4.333,7.388-5.605a20.09,20.09,0,0,1,8.955-2.285c1.424.053,1.421-2.159,0-2.212" transform="translate(-509.477 -299.186)" fill="#323232"/>
        <path id="パス_591" data-name="パス 591" d="M692.693,303.544c1.184-1.583,1.85-4.18-.25-5.319-2.966-1.608-4.636,1.569-6.888,2.689l1.513.4c-2.463-5.2-8.1.613-10.5,2.813-2,1.829-4.008,3.646-6,5.48a71.524,71.524,0,0,0-5.94,5.736c-.924,1.074.634,2.645,1.564,1.564a61.232,61.232,0,0,1,4.935-4.808c1.825-1.69,3.667-3.362,5.506-5.037q1.873-1.706,3.72-3.44a9.761,9.761,0,0,1,2.507-1.82c1.049-.486,1.789-.446,2.3.63a1.125,1.125,0,0,0,1.513.4,9.237,9.237,0,0,0,1.88-1.415c.588-.515,1.255-1.279,2.085-1.362,1.721-.173.684,1.663.147,2.381-.853,1.14,1.066,2.244,1.91,1.116" transform="translate(-519.385 -231.907)" fill="#323232"/>
        <path id="パス_592" data-name="パス 592" d="M786.215,321.231a3.963,3.963,0,0,0,.941-1.193c.027-.048-.059.047.146-.189.184-.211.39-.4.572-.618a5.806,5.806,0,0,0,1.609-3.267,3.031,3.031,0,0,0-2.038-2.985,3.142,3.142,0,0,0-3.257.726c-1.073.94.5,2.5,1.564,1.564a.922.922,0,0,1,1.527.37c.153.55-.432,1.323-.731,1.727-.378.511-.908.911-1.25,1.447-.115.18-.162.387-.262.569q-.049.2.07-.126-.218.216-.457.41c-1.08.931.49,2.49,1.564,1.564" transform="translate(-612.439 -243.596)" fill="#323232"/>
        <path id="パス_593" data-name="パス 593" d="M638.945,332.041c.659-3.2,1.681-9.944-3.423-9.946-2.136,0-3.42,2.1-3.665,4.019a34.586,34.586,0,0,1-.736,5.348c-.912,3.156-3.727,5.363-4.971,8.381a12.991,12.991,0,0,0-.931,6.172,25.086,25.086,0,0,0,.869,3.742,2.97,2.97,0,0,1,.122.816v7.4a1.107,1.107,0,0,0,2.212,0V352.3c0-.777.07-1.591,0-2.366a13.492,13.492,0,0,0-.649-2.15,11.462,11.462,0,0,1-.394-3.352,11.144,11.144,0,0,1,1.627-5.373c.755-1.258,1.729-2.37,2.544-3.588A15.321,15.321,0,0,0,634,327.294a3.975,3.975,0,0,1,.691-2.486,1.339,1.339,0,0,1,2.144.106,4.841,4.841,0,0,1,.476,2.864,21.429,21.429,0,0,1-.5,3.674c-.286,1.389,1.846,1.984,2.133.588" transform="translate(-488.869 -250.844)" fill="#323232"/>
        <path id="パス_594" data-name="パス 594" d="M747.022,315.918c-3.615,2.84-7.065,5.916-10.59,8.867-1.093.915.479,2.472,1.564,1.564,3.525-2.951,6.975-6.027,10.59-8.867,1.119-.879-.457-2.435-1.564-1.564" transform="translate(-575.238 -245.834)" fill="#323232"/>
        <path id="パス_595" data-name="パス 595" d="M723.6,311.939c-3.272,2.86-6.565,5.7-9.838,8.555-1.074.938.5,2.5,1.564,1.564,3.273-2.858,6.566-5.695,9.838-8.555,1.074-.939-.5-2.5-1.564-1.564" transform="translate(-557.587 -242.711)" fill="#323232"/>
        <path id="パス_597" data-name="パス 597" d="M245.983,7.421,243.9.771c-.424-1.354-2.56-.776-2.133.588l2.084,6.65c.424,1.354,2.561.776,2.133-.588" transform="translate(-190.242 0)" fill="#35cae9"/>
        <path id="パス_598" data-name="パス 598" d="M195.561,43.787,188.7,38.76c-1.15-.842-2.255,1.077-1.116,1.91l6.865,5.027c1.15.842,2.255-1.077,1.116-1.91" transform="translate(-147.713 -30.023)" fill="#35cae9"/>
        <path id="パス_599" data-name="パス 599" d="M167.937,100.77l-6.626-1.956a1.107,1.107,0,0,0-.588,2.133l6.626,1.956a1.107,1.107,0,0,0,.588-2.133" transform="translate(-126.565 -76.916)" fill="#35cae9"/>
        <path id="パス_601" data-name="パス 601" d="M291.06,518.808c.115-.083,2.44-1.77,1.139-4.094-.836-1.493-3.048-1.047-3.048-1.047a9.662,9.662,0,0,0,.381-2.858c-.182-.753-.973-2.394-2-2.572-.762-.129-1.922-.363-2.53.118,1.292-1,2.53-2.592,1.694-4.307a2.187,2.187,0,0,0-1.992-1.5,6.424,6.424,0,0,0-2.791,1.024c-2.627,1.444-4.637,3.572-6.971,5.469a44.01,44.01,0,0,1-4.66,2.273,2.927,2.927,0,0,1,.088-2.135,11.355,11.355,0,0,0,1.257-6.846,4.593,4.593,0,0,0-.566-2.186,2.273,2.273,0,0,0-2.158-.837c-1.19.206-1.652,1.627-1.975,2.789a19.573,19.573,0,0,1-3.872,7.777c-1.5,1.825-1.724,3.413-1.848,5.776-.1,1.811-.677,5.94-.677,5.94L258.2,524.2l9.935,14.787c.2-.127,15.192-8.242,20.111-11.527,1.118-.749,2.19-1.449,3.189-2.082,1.183-.749,3.512-3.251,3.047-4.57-1.088-3.094-3.306-2.061-3.424-2" transform="translate(-203.085 -388.837)" fill="#fff"/>
        <path id="パス_602" data-name="パス 602" d="M264.909,536.054c3.874-2.327,7.942-4.364,11.87-6.6,2.489-1.417,4.983-2.839,7.4-4.379,2.667-1.7,6.177-3.43,7.416-6.562a3.663,3.663,0,0,0-4.879-4.55l1.116,1.91a4.345,4.345,0,0,0,1.853-4.9c-.7-1.966-2.685-2.627-4.613-2.265l1.361,1.36c.448-1.707.689-3.269-.206-4.866a4.16,4.16,0,0,0-5.568-1.695l1.34,1.737c2.057-1.667,3.23-4.471,1.172-6.681-2.029-2.179-5.149-.254-7.079,1.081a39.281,39.281,0,0,0-3.5,2.824,15.6,15.6,0,0,1-2.657,2.132c-1.287.7-2.647,1.285-3.992,1.866l1.625.661a2.42,2.42,0,0,1,.323-1.966,11.079,11.079,0,0,0,.869-2.558,13.762,13.762,0,0,0,0-5.593,3.346,3.346,0,0,0-3.384-2.725c-1.583.032-2.494,1.309-3,2.662a46.213,46.213,0,0,1-1.846,5.117c-.831,1.633-2.109,2.921-3.008,4.492-1.507,2.633-1.233,6.049-1.6,8.983a7.837,7.837,0,0,0-.216,1.649c.061.554.046-.389.242-.256-.008-.006-.334.374-.352.394l-1.963,2.2c-.945,1.059.614,2.629,1.564,1.564l1.452-1.627a4.552,4.552,0,0,0,1.172-1.56,19.506,19.506,0,0,0,.362-2.758c.153-1.249.283-2.5.363-3.752a8.021,8.021,0,0,1,1.244-4.282,32.687,32.687,0,0,0,2.728-4.082,28.315,28.315,0,0,0,1.728-4.665c.154-.525.33-1.424.836-1.744.67-.425,1.3.173,1.492.795a10.412,10.412,0,0,1-.252,5.737c-.522,1.592-1.479,2.81-.893,4.562a1.129,1.129,0,0,0,1.625.661c.95-.411,1.894-.835,2.827-1.282a17.106,17.106,0,0,0,3.979-2.808,23.363,23.363,0,0,1,5.923-4.218c.976-.42,1.817-.429,2.2.72.4,1.2-.713,2.212-1.549,2.89-.985.8.284,2.38,1.34,1.737,1.219-.741,2.512.4,2.825,1.52a5.216,5.216,0,0,1-.3,2.542,1.12,1.12,0,0,0,1.36,1.361c.23-.043-.3.012.1-.01a3.765,3.765,0,0,1,.713,0,1.256,1.256,0,0,1,1.173,1.014,1.816,1.816,0,0,1-.4,1.57,4.181,4.181,0,0,1-.422.443,1.237,1.237,0,1,0-.1.1,1.107,1.107,0,0,0,1.116,1.91c-.272.128.2-.054.326-.058a1.167,1.167,0,0,1,1.014.511c.991,1.256-.147,2.424-1.074,3.354a25.8,25.8,0,0,1-4.194,2.939c-.836.553-1.688,1.082-2.545,1.6-4.543,2.751-9.2,5.319-13.849,7.882-1.235.681-2.507,1.317-3.716,2.043a1.107,1.107,0,0,0,1.116,1.91" transform="translate(-199.299 -384.946)" fill="#323232"/>
        <rect id="長方形_313" data-name="長方形 313" width="199.097" height="167.659" transform="translate(-2)" fill="none"/>
      </g>
    </g>
    <g id="グループ_680" data-name="グループ 680" transform="translate(-3136.049 2998.581)">
      <path id="パス_798" data-name="パス 798" d="M257.865,216.862a12.408,12.408,0,1,0-12.4,12.4,1.045,1.045,0,0,1,.858,1.578,6.651,6.651,0,0,0,.82-.106v-5.061a4.88,4.88,0,0,1,.525-2.8c1.069-1.67,2.95-1.5,4.674-1.5a.928.928,0,0,1,.869.512h.874a4.854,4.854,0,0,1,.149-1.6,2.671,2.671,0,0,1,2.485-1.794,2.726,2.726,0,0,1,2.45,1.3c.01.017.018.035.027.052a5.578,5.578,0,0,0,.721-2.951,1.027,1.027,0,0,1-2.051-.029m-10.954.407a1.041,1.041,0,0,1-1.027,1.027h-7.1a1.027,1.027,0,0,1,0-2.053h6.073v-7.707a1.027,1.027,0,0,1,2.053,0Z" transform="translate(3366.706 277.537)" fill="#fff"/>
      <path id="パス_799" data-name="パス 799" d="M311.615,253.634a1,1,0,0,1,.05-.1h-1.3c0,.034,0,.068.005.1Z" transform="translate(3315.867 245.265)" fill="#fff"/>
      <path id="パス_800" data-name="パス 800" d="M297.059,253.634H295.87a1.019,1.019,0,0,1-.9,1.466h-2.384a1.018,1.018,0,0,1-.9-1.466h-1.249c.005.27,0,.541,0,.81a8.51,8.51,0,0,1-.1,2.2,2.629,2.629,0,0,1-2.224,1.884,1.071,1.071,0,0,1-.3.045,1.037,1.037,0,0,1-.3-.018,2.658,2.658,0,0,1-2.271-1.531,5.3,5.3,0,0,1-.241-2.246c0-.2-.007-.414-.012-.627h-.874a1.027,1.027,0,0,1-.869,1.542c-1.383,0-2.977-.252-3.146,1.542-.1,1.055,0,2.168,0,3.227v1.36c.014-.018.03-.034.043-.052-.014.018-.029.034-.043.052v13.367c0,.67-.178,1.789.361,2.328.482.482,1.346.361,1.95.361h21.737c1.43,0,3.845.517,4.1-1.414a53.978,53.978,0,0,0,0-6.823v-9.7a22.585,22.585,0,0,0,0-2.752c-.2-1.581-1.457-1.495-2.748-1.495a1.033,1.033,0,0,1-.816-1.629h-2.128c0,.125,0,.25,0,.375a8.51,8.51,0,0,1-.1,2.2,2.629,2.629,0,0,1-2.224,1.884,1.071,1.071,0,0,1-.3.045,1.036,1.036,0,0,1-.3-.018,2.658,2.658,0,0,1-2.271-1.531,5.3,5.3,0,0,1-.241-2.246c0-.4-.026-.83-.012-1.251H295.82a1.126,1.126,0,0,1,.05.1Zm-11.65,20.236a1.059,1.059,0,1,1,1.059-1.059,1.059,1.059,0,0,1-1.059,1.059m0-5.059a1.059,1.059,0,1,1,1.059-1.059,1.059,1.059,0,0,1-1.059,1.059m0-5.059a1.059,1.059,0,1,1,1.059-1.059,1.059,1.059,0,0,1-1.059,1.059m4.547,10.118a1.059,1.059,0,1,1,1.059-1.059,1.059,1.059,0,0,1-1.059,1.059m0-5.059a1.059,1.059,0,1,1,1.059-1.059,1.059,1.059,0,0,1-1.059,1.059m0-5.059a1.059,1.059,0,1,1,1.059-1.059,1.059,1.059,0,0,1-1.059,1.059M294.5,273.87a1.059,1.059,0,1,1,1.059-1.059,1.058,1.058,0,0,1-1.059,1.059m0-5.059a1.059,1.059,0,1,1,1.059-1.059,1.058,1.058,0,0,1-1.059,1.059m0-5.059a1.059,1.059,0,1,1,1.059-1.059,1.058,1.058,0,0,1-1.059,1.059m9.092-2.117a1.059,1.059,0,1,1-1.059,1.059,1.058,1.058,0,0,1,1.059-1.059m0,5.059a1.059,1.059,0,1,1-1.059,1.059,1.058,1.058,0,0,1,1.059-1.059m0,5.059a1.059,1.059,0,1,1-1.059,1.059,1.058,1.058,0,0,1,1.059-1.059m-4.546-10.118a1.059,1.059,0,1,1-1.059,1.059,1.059,1.059,0,0,1,1.059-1.059m0,5.059a1.059,1.059,0,1,1-1.059,1.059,1.059,1.059,0,0,1,1.059-1.059m0,5.059a1.059,1.059,0,1,1-1.059,1.059,1.059,1.059,0,0,1,1.059-1.059" transform="translate(3335.801 245.265)" fill="#fff"/>
      <path id="パス_801" data-name="パス 801" d="M237.6,199a14.457,14.457,0,0,0,3.991,28.352.911.911,0,0,0,.858-.476c-.408.029-.812.03-1.19.03.378,0,.782,0,1.19-.03a1.045,1.045,0,0,0-.858-1.577,12.408,12.408,0,1,1,12.4-12.4,1.027,1.027,0,0,0,2.051.029,3.042,3.042,0,0,0-.068-.394,3.042,3.042,0,0,1,.068.394c0-.01,0-.019,0-.029-.166-9.417-9.232-16.546-18.446-13.9" transform="translate(3370.578 281.503)" fill="#323232"/>
      <path id="パス_802" data-name="パス 802" d="M279.369,254.362h.881a.928.928,0,0,0-.868-.512c-1.725,0-3.605-.168-4.674,1.5a4.883,4.883,0,0,0-.525,2.8v5.061a3.3,3.3,0,0,0,2.053-1.181v-1.36c0-1.059-.1-2.172,0-3.227.168-1.794,1.763-1.542,3.146-1.542a1.027,1.027,0,0,0,.868-1.541Z" transform="translate(3339.664 245.059)" fill="#323232"/>
      <path id="パス_803" data-name="パス 803" d="M306.335,271.755v-12.2a19.5,19.5,0,0,0-.046-2.866c-.383-2.544-2.65-2.825-4.756-2.825a.929.929,0,0,0-.816.425h0a1.033,1.033,0,0,0,.816,1.629c1.291,0,2.549-.087,2.748,1.495a22.584,22.584,0,0,1,0,2.752v9.7a54.036,54.036,0,0,1,0,6.823c-.254,1.931-2.668,1.414-4.1,1.414H278.446c-.6,0-1.469.121-1.95-.361-.539-.539-.361-1.658-.361-2.328V262.041a3.306,3.306,0,0,1-2.053,1.18v4.971c0,2.821-.12,5.671,0,8.49.122,2.859,2.316,3.467,4.679,3.467h20.6c2.013,0,4.893.513,6.292-1.3,1.306-1.689.687-5.139.687-7.1" transform="translate(3339.766 245.05)" fill="#323232"/>
      <path id="パス_804" data-name="パス 804" d="M301.175,255.125c.858-.077.568-1.619.568-2.191s.164-1.648-.756-1.517c-.845.12-.568,1.488-.568,2.079,0,.668-.188,1.629.756,1.629" transform="translate(3322.434 246.664)" fill="#fff"/>
      <path id="パス_805" data-name="パス 805" d="M299.9,248.308h0a3.192,3.192,0,0,0-.333-1.52c-.12.254-.247.508-.374.761.127-.254.254-.508.374-.761-.01-.017-.017-.035-.027-.052a2.725,2.725,0,0,0-2.45-1.3,2.67,2.67,0,0,0-2.485,1.794,4.855,4.855,0,0,0-.149,1.6h0c.005.213.012.423.012.627a5.3,5.3,0,0,0,.241,2.246,2.658,2.658,0,0,0,2.271,1.531,1.035,1.035,0,0,0,.3.018,1.071,1.071,0,0,0,.3-.044,2.629,2.629,0,0,0,2.224-1.884,8.511,8.511,0,0,0,.1-2.2c0-.269.007-.54,0-.81m-2.623,2.889c-.943,0-.756-.961-.756-1.629,0-.592-.277-1.959.568-2.079.92-.131.756.957.756,1.517s.289,2.114-.568,2.191" transform="translate(3326.331 250.591)" fill="#323232"/>
      <path id="パス_806" data-name="パス 806" d="M336.589,255.125c.858-.077.568-1.619.568-2.191s.164-1.648-.756-1.517c-.845.12-.568,1.488-.568,2.079,0,.668-.188,1.629.756,1.629" transform="translate(3299.14 246.664)" fill="#fff"/>
      <path id="パス_807" data-name="パス 807" d="M335.317,248.743h0a3.744,3.744,0,0,0-.361-2.007,2.726,2.726,0,0,0-2.45-1.3,2.67,2.67,0,0,0-2.485,1.794,7.333,7.333,0,0,0-.137,2.227,5.305,5.305,0,0,0,.24,2.246,2.658,2.658,0,0,0,2.271,1.531,1.035,1.035,0,0,0,.3.018,1.071,1.071,0,0,0,.3-.044,2.629,2.629,0,0,0,2.224-1.884,8.511,8.511,0,0,0,.1-2.2c0-.125,0-.25,0-.375m-2.625,2.455c-.943,0-.756-.961-.756-1.629,0-.592-.277-1.959.568-2.079.92-.131.756.957.756,1.517s.289,2.114-.568,2.191" transform="translate(3303.037 250.591)" fill="#323232"/>
      <path id="パス_808" data-name="パス 808" d="M317.312,252.113h-2.384a.929.929,0,0,0-.9.588h4.189a.929.929,0,0,0-.9-.588" transform="translate(3313.456 246.199)" fill="#323232"/>
      <path id="パス_809" data-name="パス 809" d="M313.859,253.83a1.018,1.018,0,0,0,.9,1.466h2.384a1.019,1.019,0,0,0,.9-1.466Z" transform="translate(3313.623 245.069)" fill="#323232"/>
      <path id="パス_810" data-name="パス 810" d="M253.932,214.441v7.707H247.86a1.027,1.027,0,0,0,0,2.053h7.1a1.041,1.041,0,0,0,1.027-1.027v-8.734a1.027,1.027,0,0,0-2.053,0" transform="translate(3357.63 271.63)" fill="#35cae9"/>
      <path id="パス_811" data-name="パス 811" d="M293.665,277.208a1.059,1.059,0,1,0,1.059,1.059,1.059,1.059,0,0,0-1.059-1.059" transform="translate(3327.546 229.692)" fill="#35cae9"/>
      <path id="パス_812" data-name="パス 812" d="M293.665,291.99a1.059,1.059,0,1,0,1.059,1.059,1.059,1.059,0,0,0-1.059-1.059" transform="translate(3327.546 219.969)" fill="#35cae9"/>
      <path id="パス_813" data-name="パス 813" d="M293.665,306.773a1.059,1.059,0,1,0,1.059,1.059,1.059,1.059,0,0,0-1.059-1.059" transform="translate(3327.546 210.245)" fill="#35cae9"/>
      <path id="パス_814" data-name="パス 814" d="M306.949,277.208a1.059,1.059,0,1,0,1.059,1.059,1.059,1.059,0,0,0-1.059-1.059" transform="translate(3318.808 229.692)" fill="#323232"/>
      <path id="パス_815" data-name="パス 815" d="M320.234,277.208a1.059,1.059,0,1,0,1.059,1.059,1.059,1.059,0,0,0-1.059-1.059" transform="translate(3310.069 229.692)" fill="#323232"/>
      <path id="パス_816" data-name="パス 816" d="M333.518,277.208a1.059,1.059,0,1,0,1.059,1.059,1.059,1.059,0,0,0-1.059-1.059" transform="translate(3301.332 229.692)" fill="#323232"/>
      <path id="パス_817" data-name="パス 817" d="M346.8,277.208a1.059,1.059,0,1,0,1.059,1.059,1.059,1.059,0,0,0-1.059-1.059" transform="translate(3292.594 229.692)" fill="#323232"/>
      <path id="パス_818" data-name="パス 818" d="M306.949,291.99a1.059,1.059,0,1,0,1.059,1.059,1.059,1.059,0,0,0-1.059-1.059" transform="translate(3318.808 219.969)" fill="#323232"/>
      <path id="パス_819" data-name="パス 819" d="M320.234,291.99a1.059,1.059,0,1,0,1.059,1.059,1.059,1.059,0,0,0-1.059-1.059" transform="translate(3310.069 219.969)" fill="#323232"/>
      <path id="パス_820" data-name="パス 820" d="M333.518,291.99a1.059,1.059,0,1,0,1.059,1.059,1.059,1.059,0,0,0-1.059-1.059" transform="translate(3301.332 219.969)" fill="#323232"/>
      <path id="パス_821" data-name="パス 821" d="M346.8,291.99a1.059,1.059,0,1,0,1.059,1.059,1.059,1.059,0,0,0-1.059-1.059" transform="translate(3292.594 219.969)" fill="#323232"/>
      <path id="パス_822" data-name="パス 822" d="M306.949,306.773a1.059,1.059,0,1,0,1.059,1.059,1.059,1.059,0,0,0-1.059-1.059" transform="translate(3318.808 210.245)" fill="#323232"/>
      <path id="パス_823" data-name="パス 823" d="M320.234,306.773a1.059,1.059,0,1,0,1.059,1.059,1.059,1.059,0,0,0-1.059-1.059" transform="translate(3310.069 210.245)" fill="#323232"/>
      <path id="パス_824" data-name="パス 824" d="M333.518,306.773a1.059,1.059,0,1,0,1.059,1.059,1.059,1.059,0,0,0-1.059-1.059" transform="translate(3301.332 210.245)" fill="#323232"/>
      <path id="パス_825" data-name="パス 825" d="M346.8,306.773a1.059,1.059,0,1,0,1.059,1.059,1.059,1.059,0,0,0-1.059-1.059" transform="translate(3292.594 210.245)" fill="#323232"/>
    </g>
  </g>
</svg>
