<svg xmlns="http://www.w3.org/2000/svg" width="13.858" height="13.858" viewBox="0 0 13.858 13.858">
  <path id="t_blank" d="M12.126,10.394H5.2A1.732,1.732,0,0,1,3.465,8.661V1.732A1.67,1.67,0,0,1,3.972.507,1.667,1.667,0,0,1,5.2,0h6.929a1.67,1.67,0,0,1,1.225.507,1.667,1.667,0,0,1,.507,1.225V8.661a1.732,1.732,0,0,1-1.732,1.732Zm0-7.8a.855.855,0,0,0-.866-.866h-5.2a.838.838,0,0,0-.616.25.827.827,0,0,0-.25.609.854.854,0,0,0,.25.616.825.825,0,0,0,.616.257H9.2L5.427,7.241A.832.832,0,0,0,6.6,8.418l3.79-3.79V7.8a.826.826,0,0,0,.257.616.85.85,0,0,0,.616.25.854.854,0,0,0,.859-.866ZM11.26,13a.854.854,0,0,1-.866.859H1.732a1.67,1.67,0,0,1-1.225-.507A1.667,1.667,0,0,1,0,12.126V3.465a.838.838,0,0,1,.25-.616A.827.827,0,0,1,.859,2.6a.854.854,0,0,1,.616.25.825.825,0,0,1,.257.616v7.8a.855.855,0,0,0,.866.866h7.8A.878.878,0,0,1,11.26,13Z"/>
</svg>
