<svg xmlns="http://www.w3.org/2000/svg" width="33.546" height="33.551" viewBox="0 0 33.546 33.551">
  <path id="tel_icon" d="M27.832,34.174c-1.391,0-3.344-.5-6.271-2.137a40.767,40.767,0,0,1-9.849-7.367,37.4,37.4,0,0,1-7.4-9.846C1.691,10.05,2.138,7.547,2.639,6.477a6.665,6.665,0,0,1,2.612-2.8A12.563,12.563,0,0,1,7.292,2.592l.2-.086a1.906,1.906,0,0,1,1.564-.143A4.578,4.578,0,0,1,10.539,3.5,24.687,24.687,0,0,1,14.255,9.02a5.492,5.492,0,0,1,.729,2.26,3.573,3.573,0,0,1-.908,2.124c-.093.128-.186.249-.276.368-.542.712-.661.918-.583,1.286a13.515,13.515,0,0,0,3.292,4.882,12.965,12.965,0,0,0,4.826,3.212c.383.082.594-.042,1.329-.6.105-.08.214-.164.327-.247a3.59,3.59,0,0,1,2.157-.965h0a5.167,5.167,0,0,1,2.27.8,27.2,27.2,0,0,1,5.5,3.69A4.6,4.6,0,0,1,34.063,27.3a1.921,1.921,0,0,1-.143,1.568c-.026.059-.056.124-.086.2a12.576,12.576,0,0,1-1.089,2.037,6.659,6.659,0,0,1-2.806,2.607,4.8,4.8,0,0,1-2.107.462Z" transform="translate(-0.465 -2.365) rotate(3)" fill="#05b3ff"/>
</svg>
