<svg xmlns="http://www.w3.org/2000/svg" viewBox="0 0 10.99 18.96"><defs><style>.cls-1{fill:#fff;}</style></defs><g id="レイヤー_2" data-name="レイヤー 2"><g id="レイヤー_1-2" data-name="レイヤー 1"><path class="cls-1" d="M5.13,19C2.2,18.91.08,17.82,0,15.33a1.32,1.32,0,0,1,1.3-1.47c1.41,0,1.31,1.31,1.09,2.31a.91.91,0,0,0,.35,1.08,3.6,3.6,0,0,0,2.36.68c2.09-.08,3.72-2.09,3.72-4.75a3.86,3.86,0,0,0-1.17-2.76,5.11,5.11,0,0,0-3.8-1.06.52.52,0,0,1,0-1,8.72,8.72,0,0,0,2.66-.44c1.38-.57,2.06-1.73,2.06-3.55a3,3,0,0,0-3.2-3.28,1.88,1.88,0,0,0-2.12,2C3.31,4,3,4.83,2,4.83c-.51,0-1-.38-1-1.28C1,1.17,3.47,0,5.54,0c3.39,0,5.07,2,5.07,4.31S9,8,7.16,8.74a4.91,4.91,0,0,1,3.83,5C11,17.72,7,19,5.13,19Z"/></g></g></svg>