<svg xmlns="http://www.w3.org/2000/svg" viewBox="0 0 11.19 18.66"><defs><style>.cls-1{fill:#fff;}</style></defs><g id="レイヤー_2" data-name="レイヤー 2"><g id="レイヤー_1-2" data-name="レイヤー 1"><path class="cls-1" d="M10,18.28a.48.48,0,0,1-.54.38h-9A.44.44,0,0,1,0,18.15c0-1.85,2.47-4.42,4.88-7A20,20,0,0,0,8.41,6.56a3.94,3.94,0,0,0,0-4.25c-1-1.52-3.58-1.55-5-.6-.46.32-1,1-.68,1.57A2.18,2.18,0,0,1,3,5.37,1.15,1.15,0,0,1,1.93,6,1.37,1.37,0,0,1,.54,4.48,4.82,4.82,0,0,1,3.17.65c2.55-1.3,6.19-.6,7.46,1.66a5.08,5.08,0,0,1-.08,4.77,20.47,20.47,0,0,1-4.5,4.83,16.86,16.86,0,0,0-4.12,4.94H6.51a3.28,3.28,0,0,0,3.5-2.5.51.51,0,0,1,1,.3Z"/></g></g></svg>