<svg xmlns="http://www.w3.org/2000/svg" viewBox="0 0 220.36 64.93"><defs><style>.cls-1{font-size:16px;fill:#cbcbcb;stroke:#d7d7d7;font-family:KinutaMaruminOldStdN-R-90ms-RKSJ-H, Kinuta MaruminOld StdN;letter-spacing:0.06em;}.cls-1,.cls-2{stroke-miterlimit:10;stroke-width:0.5px;}.cls-2{stroke:#000;}.cls-3{fill:#0c3470;}.cls-4{fill:#fff;}</style></defs><g id="レイヤー_2" data-name="レイヤー 2"><g id="レイヤー_1-2" data-name="レイヤー 1"><text class="cls-1" transform="translate(51.23 14.33)">WORK STYLE</text><path class="cls-2" d="M8.47,33.17C7.69,35,6.91,36.65,6.14,38.1a1,1,0,0,1,.47.91V59.76a1.09,1.09,0,0,1-1.08,1.11,1.12,1.12,0,0,1-1.11-1.11V41a39.78,39.78,0,0,1-3.21,4.55.54.54,0,0,1-.88-.64A121,121,0,0,0,6.61,31.55a1.37,1.37,0,0,1,2.56-.3A1.39,1.39,0,0,1,8.47,33.17Zm11.94,4.76H15.58v2.33h2.67a1,1,0,0,1,1.92.54v7.86a1.05,1.05,0,0,1-2,.47h-2.6v2.66h3.07A1.09,1.09,0,0,1,19.7,51a1.12,1.12,0,0,1,0,2.23H15.58v2.06c1.42-.17,2.94-.37,4.25-.61a.54.54,0,0,1,.24,1.05c-2,.57-6.34,1.79-8.8,2.36a1.36,1.36,0,0,1-2,.37,1.46,1.46,0,0,1,.81-2.63c.94-.07,2.63-.24,3.41-.3v-2.3H9.14a.69.69,0,0,1-.71-.71.73.73,0,0,1,.71-.74h4.39V49.13H10.86a1,1,0,0,1-1,1,1.05,1.05,0,0,1-1-1V40.8a1,1,0,0,1,1.93-.54h2.8V37.93H8.8a.67.67,0,0,1-.71-.68.73.73,0,0,1,.71-.74h4.73V34.05c-1,.17-2.1.34-3.24.5a.55.55,0,1,1-.21-1.08c3.72-.94,6.69-1.78,8.17-2.25a1.39,1.39,0,1,1,2.56,1.07,1.53,1.53,0,0,1-1.31.85c-1,.17-3,.47-3.92.61v2.8H19.4a1.14,1.14,0,0,1,1.08-.85,1.12,1.12,0,1,1-.07,2.23ZM10.86,44h2.67V41.57H10.86Zm0,3.81h2.67V45.25H10.86ZM15.58,44h2.5V41.57h-2.5Zm0,3.81h2.5V45.25h-2.5Zm15.49-7.05c.2,11.81-.17,16.37-2.53,18.79-.95,1-2.67,1.42-3.31.31a1.3,1.3,0,0,1,.07-1.35l-.81-.07a.56.56,0,0,1,.1-1.11l2.63.27c1.69-2.57,1.59-9.18,1.59-16.94V39.45H26.38v2.06c0,11.13-2.67,16.42-8,19.16a.51.51,0,0,1-.57-.85c4.69-3.77,6.38-9,6.38-19.4v-.94h-2.9a.65.65,0,0,1-.65-.67.68.68,0,0,1,.65-.71h2.9V31.76a1.25,1.25,0,1,1,2.19.8V38.1h2.53a1.15,1.15,0,0,1,2.13.57Z"/><path class="cls-2" d="M52.46,52.13a26.05,26.05,0,0,0-4.38-.5,3.58,3.58,0,0,0-3.14,1.58,1.34,1.34,0,0,0,0,1.42c.64.91,2.73,1.72,7.05,1.28a1.05,1.05,0,0,1,1.45,1A1,1,0,0,1,52.36,58c-5.09.54-7.82-.51-8.9-2.13a2.85,2.85,0,0,1,0-3.17,5.63,5.63,0,0,1,5.26-2.43c.71,0,1.42.07,2.06.14,2.12.2,4.11.34,4.65-.37.27-.38.41-1.35-.64-3.61l-.87-1.93a19.15,19.15,0,0,1-3.75,1.22c-2.33.34-3.91,0-4.79-.91a3.32,3.32,0,0,1-.57-3.21,8.46,8.46,0,0,1,1.92-3.07A4.73,4.73,0,0,1,43.42,37a.67.67,0,0,1,.95-.94c1.31,1.18,2.6,1,4.38.06A6.58,6.58,0,0,0,47,34.76a.64.64,0,0,1,.2-1.25A3.83,3.83,0,0,1,50.47,35c.71-.58,1.69-.34,1.69.77a1,1,0,0,1-.47.85A49.16,49.16,0,0,1,54.56,42l.87-.51a1.1,1.1,0,0,1,2,.64,1,1,0,0,1-.64,1c-.16.1-.67.34-1.35.64L56.55,46c1.48,3,1.78,4.65,1,5.66S54.83,52.57,52.46,52.13Zm-2.32-14.4c-1.72,1.08-3.71,3-4.09,4.28a1.64,1.64,0,0,0,.17,1.59c.61.7,2.87.37,3.75.2a12.91,12.91,0,0,0,3.1-1.08A43.91,43.91,0,0,0,50.14,37.73Z"/><path class="cls-2" d="M97.27,37.63H83.71a1.4,1.4,0,0,1,.44,2c-.13,1.28-.3,2.46-.51,3.61h8.44a1.24,1.24,0,0,1,2.29.71C93.73,53.31,93.29,60.3,88,60.6a1.35,1.35,0,0,1-1.08-2.29l-1.21-.21a.51.51,0,0,1-.44-.6.54.54,0,0,1,.61-.48l3.27.54c2-1.78,2.33-7.05,2.73-12.88h-8.5C82.19,51.9,78.15,58.2,71,60.6c-.68.24-1-.61-.41-1C76.49,56.05,80.88,50,81.62,38.81a1.35,1.35,0,0,1,.67-1.18H70a.75.75,0,0,1-.77-.75.84.84,0,0,1,.77-.81H82.06v-5a1.36,1.36,0,0,1,1.31-1.28,1.33,1.33,0,0,1,1.29,1.28v5h11.2a1.42,1.42,0,0,1,2.83.1A1.38,1.38,0,0,1,97.27,37.63Z"/><path class="cls-2" d="M134.49,45.62c-1,.24-2.16.47-3.2.74a21.24,21.24,0,0,0-5.16,1.82,3,3,0,0,0-1.45,3.75c.54,1.79,2.59,3.71,6.54,3.44a1.11,1.11,0,0,1,1.45,1.08c0,.71-.5,1-1.15,1.11A7.47,7.47,0,0,1,123,52.67a4.73,4.73,0,0,1,.71-4.38c-.37.13-.74.23-1.12.37-1.48.47-2.46.67-3,0-.68-.78.06-2.09,1.85-4.93.51-.8,1.11-1.68,1.69-2.73,2.26-4,2.73-5.19,2.46-5.46-1.25,0-2.16,1.38-3.17,1.11-.54-.17-.84-.78-1.25-1.69a.65.65,0,1,1,1.18-.54c.2.41.2.41,1.66-.13,1-.37,2.93-1.38,3.74-.24.67.91.37,2.6-3.24,8-1.79,2.7-3.47,4.79-3,4.86a5,5,0,0,0,1.15-.17c3.81-.91,7.39-2.33,11.17-3.27a1.1,1.1,0,0,1,1.51,1A1.15,1.15,0,0,1,134.49,45.62Z"/><path class="cls-2" d="M156.33,56.15a.68.68,0,1,1,0-1.35c5.33-.1,10-2.53,12-6.21a6.12,6.12,0,0,0,0-6.38,9.62,9.62,0,0,0-7.09-4.42c.64,5-2.77,8.64-9.78,14.31a.67.67,0,0,1-.95-.1c-1.92-2.2-4.32-8.07,1.49-13.06a12.49,12.49,0,0,1,9.65-2.77,12.17,12.17,0,0,1,8.6,5,7.55,7.55,0,0,1,.47,8.13C168.54,53.55,163.08,56.15,156.33,56.15Zm-3.24-15.69a7.58,7.58,0,0,0-1.69,9.07c6.68-5.43,8.77-7.79,8.5-11.8A10,10,0,0,0,153.09,40.46Z"/><circle class="cls-3" cx="200.78" cy="45.35" r="19.58"/><path class="cls-4" d="M200.41,54.83c-2.93,0-5-1.14-5.13-3.63a1.33,1.33,0,0,1,1.31-1.47c1.41,0,1.3,1.3,1.08,2.31a.92.92,0,0,0,.35,1.08,3.6,3.6,0,0,0,2.36.68c2.09-.08,3.72-2.09,3.72-4.75a3.83,3.83,0,0,0-1.16-2.76,5.13,5.13,0,0,0-3.8-1.06.52.52,0,0,1,0-1,8.72,8.72,0,0,0,2.66-.44c1.38-.57,2.06-1.73,2.06-3.55a3,3,0,0,0-3.2-3.28,1.88,1.88,0,0,0-2.12,2c.08,1-.21,1.77-1.27,1.77-.52,0-1-.38-1-1.28,0-2.39,2.53-3.55,4.59-3.55,3.39,0,5.07,2,5.07,4.31a4.85,4.85,0,0,1-3.44,4.42,4.91,4.91,0,0,1,3.82,5C206.27,53.58,202.28,54.86,200.41,54.83Z"/></g></g></svg>