<svg xmlns="http://www.w3.org/2000/svg" width="240" height="96.7" viewBox="0 0 240 96.7"><g transform="translate(-534 -999.3)"><path d="M11.838-17.757V0h-6.6V-43.727h7.477a33.722,33.722,0,0,1,8.3.765A11.128,11.128,0,0,1,26-40.073a12.444,12.444,0,0,1,3.767,9.289,11.987,11.987,0,0,1-4.021,9.516Q21.722-17.757,14.9-17.757Zm0-6.117H14.3q9.091,0,9.091-7,0-6.769-9.374-6.769H11.838Zm22.543,1.813a21.416,21.416,0,0,1,6.769-15.859,22.278,22.278,0,0,1,16.2-6.627,21.863,21.863,0,0,1,16.029,6.684A21.85,21.85,0,0,1,80.09-21.807a21.5,21.5,0,0,1-6.74,16A22.558,22.558,0,0,1,57.009.793,22.562,22.562,0,0,1,41.8-5.069Q34.381-11.555,34.381-22.062Zm6.655.085a15.8,15.8,0,0,0,4.871,11.923A15.634,15.634,0,0,0,57.094-5.381a15.738,15.738,0,0,0,11.611-4.758,16.1,16.1,0,0,0,4.729-11.725,16.022,16.022,0,0,0-4.673-11.725,15.426,15.426,0,0,0-11.5-4.758,15.578,15.578,0,0,0-11.526,4.758A15.774,15.774,0,0,0,41.036-21.977Zm53.95-21.75V0h-6.6V-43.727ZM105.493,0V-46.7l31.889,33.361V-43.727h6.6V2.662L112.092-30.614V0Zm61.03-37.524V0h-6.6V-37.524H149.871v-6.2h26.678v6.2Z" transform="translate(566 1046)" fill="#fff" opacity="0.2"/><text transform="translate(654 1045)" fill="#231815" font-size="30" font-family="NotoSansCJKjp-Medium, Noto Sans CJK JP" font-weight="500"><tspan x="-120" y="0">美容</tspan><tspan y="0">クリニックで</tspan><tspan x="-105" y="41">働</tspan><tspan y="41">く</tspan><tspan y="41">魅力</tspan><tspan y="41">とは？</tspan></text></g></svg>