<svg xmlns="http://www.w3.org/2000/svg" width="364.45" height="144.099" viewBox="0 0 364.45 144.099"><g transform="translate(-299 -1053.901)"><path d="M15.032-35.434v22.926a24.156,24.156,0,0,1-.574,6.127A9.206,9.206,0,0,1,12.507-2.5,8.892,8.892,0,0,1,5.393.643,11.991,11.991,0,0,1-.872-1.1L1.744-5.668A6.65,6.65,0,0,0,5.393-4.36,3.373,3.373,0,0,0,8.7-6.173q.964-1.813.964-6.334V-35.434Zm6.724,17.556a17.355,17.355,0,0,1,5.485-12.852A18.053,18.053,0,0,1,40.368-36.1a17.717,17.717,0,0,1,12.989,5.416A17.706,17.706,0,0,1,58.8-17.671,17.423,17.423,0,0,1,53.334-4.7,18.28,18.28,0,0,1,40.092.643a18.283,18.283,0,0,1-12.324-4.75A17.411,17.411,0,0,1,21.756-17.877Zm5.393.069A12.806,12.806,0,0,0,31.1-8.147,12.669,12.669,0,0,0,40.161-4.36,12.753,12.753,0,0,0,49.57-8.216a13.049,13.049,0,0,0,3.833-9.5,12.983,12.983,0,0,0-3.787-9.5A12.5,12.5,0,0,0,40.3-31.073a12.624,12.624,0,0,0-9.34,3.855A12.783,12.783,0,0,0,27.149-17.809ZM65.52,0V-35.434h5.324a23.311,23.311,0,0,1,5.668.551,8.517,8.517,0,0,1,3.6,1.859,9.646,9.646,0,0,1,2.364,3.374,10.207,10.207,0,0,1,.9,4.131,8.372,8.372,0,0,1-2.915,6.449A8.563,8.563,0,0,1,84.912-15.7a9.515,9.515,0,0,1,1.652,5.554,9.438,9.438,0,0,1-2.937,7.022,9.642,9.642,0,0,1-3.97,2.456A23.093,23.093,0,0,1,73.621,0Zm5.347-20.218h1.675a6.175,6.175,0,0,0,4.372-1.32,5.118,5.118,0,0,0,1.388-3.89,4.88,4.88,0,0,0-1.423-3.8,5.931,5.931,0,0,0-4.131-1.3H70.867Zm0,15.192h3.3q3.626,0,5.324-1.423a4.919,4.919,0,0,0,1.79-3.9,5,5,0,0,0-1.721-3.855q-1.675-1.538-5.99-1.538H70.867ZM9.593,9.566V45H4.246V9.566ZM18.107,45V7.157L43.948,34.191V9.566h5.347V47.157L23.454,20.192V45ZM67.563,14.592V45H62.215V14.592H54.068V9.566H75.687v5.026ZM92.462,29.9,103.432,45H96.892L86.771,30.5h-.964V45H80.46V9.566h6.265q7.022,0,10.144,2.639a9.7,9.7,0,0,1,3.442,7.757,10.068,10.068,0,0,1-2.157,6.472A9.616,9.616,0,0,1,92.462,29.9Zm-6.655-4.062h1.7q7.6,0,7.6-5.806,0-5.439-7.39-5.439h-1.9Zm20.379,1.285a17.355,17.355,0,0,1,5.485-12.852A18.053,18.053,0,0,1,124.8,8.9a17.717,17.717,0,0,1,12.989,5.416,17.706,17.706,0,0,1,5.439,13.012A17.423,17.423,0,0,1,137.764,40.3a18.724,18.724,0,0,1-25.565.6A17.411,17.411,0,0,1,106.186,27.123Zm5.393.069a12.806,12.806,0,0,0,3.947,9.662A13.074,13.074,0,0,0,134,36.784a13.049,13.049,0,0,0,3.833-9.5,12.983,12.983,0,0,0-3.787-9.5,13.214,13.214,0,0,0-18.658,0A12.783,12.783,0,0,0,111.579,27.191ZM149.95,45V9.566h7.436a27.06,27.06,0,0,1,8.445,1.056,15.807,15.807,0,0,1,6.036,3.511,16.955,16.955,0,0,1,5.485,13.15A16.8,16.8,0,0,1,171.637,40.5a16.687,16.687,0,0,1-6.013,3.511,27.365,27.365,0,0,1-8.331.987Zm5.347-5.026h2.41a20.107,20.107,0,0,0,5.99-.757,12.163,12.163,0,0,0,8.262-11.934,12.312,12.312,0,0,0-3.9-9.455q-3.511-3.236-10.35-3.236H155.3ZM189.423,9.566V30.909q0,4.567,1.492,6.678a7.98,7.98,0,0,0,12.553,0q1.492-2.042,1.492-6.678V9.566h5.347V32.378a12.764,12.764,0,0,1-3.488,9.226,13.493,13.493,0,0,1-19.254,0,12.764,12.764,0,0,1-3.488-9.226V9.566Zm55.56,1.9v6.334a14.828,14.828,0,0,0-9.593-3.878,12.215,12.215,0,0,0-9.2,3.924,13.231,13.231,0,0,0-3.764,9.547,12.913,12.913,0,0,0,3.764,9.409,12.431,12.431,0,0,0,9.226,3.833,11.318,11.318,0,0,0,4.8-.918,13.832,13.832,0,0,0,2.283-1.239,26.99,26.99,0,0,0,2.49-1.882v6.449a19.314,19.314,0,0,1-9.639,2.593,17.784,17.784,0,0,1-12.966-5.3,17.577,17.577,0,0,1-5.347-12.9,18.2,18.2,0,0,1,4.475-12.071,17.818,17.818,0,0,1,14.251-6.495A18.09,18.09,0,0,1,244.983,11.471Zm16.523,3.121V45h-5.347V14.592h-8.147V9.566H269.63v5.026Zm18.245-5.026V45H274.4V9.566ZM286.5,27.123a17.354,17.354,0,0,1,5.485-12.852A18.053,18.053,0,0,1,305.11,8.9,17.717,17.717,0,0,1,318.1,14.317a17.706,17.706,0,0,1,5.439,13.012A17.423,17.423,0,0,1,318.076,40.3a18.724,18.724,0,0,1-25.565.6A17.411,17.411,0,0,1,286.5,27.123Zm5.393.069a12.806,12.806,0,0,0,3.947,9.662,13.074,13.074,0,0,0,18.474-.069,13.049,13.049,0,0,0,3.833-9.5,12.983,12.983,0,0,0-3.787-9.5,13.214,13.214,0,0,0-18.658,0A12.783,12.783,0,0,0,291.891,27.191ZM330.262,45V7.157L356.1,34.191V9.566h5.347V47.157L335.609,20.192V45Z" transform="translate(302 1090)" fill="#fff" opacity="0.2"/><text transform="translate(479 1147)" fill="#231815" font-size="30" font-family="NotoSansCJKjp-Medium, Noto Sans CJK JP" font-weight="500"><tspan x="-179.7" y="0">マイナビコメディカルでは</tspan><tspan x="-135" y="41">こんな</tspan><tspan y="41">求人</tspan><tspan y="41">をご</tspan><tspan y="41">紹介</tspan></text></g></svg>