<svg xmlns="http://www.w3.org/2000/svg" width="390" height="71.143" viewBox="0 0 390 71.143"><g transform="translate(-435 -998.777)"><path d="M4.989,0,17.367-63.223l20.186,45.7,20.909-45.7L69.583,0h-9.1L54.806-35.5,37.4,2.7,20.49-35.534,14.168,0Zm109.5-50.464H90.911v14.13H113.8v8.341H90.911V-8.341h23.575V0H82.037V-58.8h32.449Zm31.573,25.4L164.265,0H153.41l-16.8-24.07h-1.6V0h-8.874V-58.8h10.4q11.654,0,16.834,4.38a16.091,16.091,0,0,1,5.713,12.873,16.708,16.708,0,0,1-3.58,10.74A15.958,15.958,0,0,1,146.06-25.061ZM135.015-31.8h2.818q12.606,0,12.606-9.636,0-9.026-12.264-9.026h-3.161Zm46.96-27V0H173.1V-58.8Zm30.354,8.341V0h-8.874V-50.464H189.935V-58.8h35.877v8.341Z" transform="translate(517 1062)" opacity="0.07"/><text transform="translate(630 1059.921)" fill="#231815" font-size="30" font-family="NotoSansCJKjp-Medium, Noto Sans CJK JP" font-weight="500"><tspan x="-194.7" y="0">マイナビコメディカルの</tspan><tspan y="0">強</tspan><tspan y="0">み</tspan></text></g></svg>