<svg xmlns="http://www.w3.org/2000/svg" width="450" height="72.804" viewBox="0 0 450 72.804"><g transform="translate(-458 -1027.196)"><path d="M15.92-23.88V0H7.046V-58.8H17.1A45.351,45.351,0,0,1,28.26-57.776a14.965,14.965,0,0,1,6.7,3.885A16.735,16.735,0,0,1,40.028-41.4q0,8.074-5.408,12.8T20.033-23.88Zm0-8.227h3.313q12.226,0,12.226-9.407,0-9.1-12.606-9.1H15.92Zm30.316,2.438A28.8,28.8,0,0,1,55.339-51a29.961,29.961,0,0,1,21.785-8.912,29.4,29.4,0,0,1,21.557,8.988,29.385,29.385,0,0,1,9.026,21.595A28.915,28.915,0,0,1,98.643-7.808,30.336,30.336,0,0,1,76.667,1.066,30.342,30.342,0,0,1,56.215-6.817Q46.236-15.539,46.236-29.669Zm8.95.114a21.253,21.253,0,0,0,6.551,16.034A21.025,21.025,0,0,0,76.781-7.236a21.165,21.165,0,0,0,15.615-6.4A21.656,21.656,0,0,0,98.757-29.4,21.547,21.547,0,0,0,92.473-45.17a20.746,20.746,0,0,0-15.463-6.4,20.95,20.95,0,0,0-15.5,6.4A21.214,21.214,0,0,0,55.187-29.555ZM127.74-58.8V0h-8.874V-58.8ZM141.87,0V-62.8l42.885,44.865V-58.8h8.874V3.58L150.744-41.171V0Zm82.075-50.464V0h-8.874V-50.464H201.551V-58.8h35.877v8.341Z" transform="translate(565 1090)" fill="#fff" opacity="0.2"/><text transform="translate(683 1090)" fill="#231815" font-size="30" font-family="NotoSansCJKjp-Medium, Noto Sans CJK JP" font-weight="500"><tspan x="-225" y="0">美容</tspan><tspan y="0">クリニックで</tspan><tspan y="0">働</tspan><tspan y="0">く</tspan><tspan y="0">魅力</tspan><tspan y="0">とは？</tspan></text></g></svg>