<svg xmlns="http://www.w3.org/2000/svg" width="773.183" height="77.804" viewBox="0 0 773.183 77.804"><g transform="translate(-300.553 -1027.196)"><path d="M24.946-58.8v38.048a40.089,40.089,0,0,1-.952,10.169,15.278,15.278,0,0,1-3.237,6.437A14.757,14.757,0,0,1,8.95,1.066a19.9,19.9,0,0,1-10.4-2.895L2.895-9.407A11.036,11.036,0,0,0,8.95-7.236q3.961,0,5.484-3.009,1.6-3.009,1.6-10.512V-58.8ZM36.105-29.669A28.8,28.8,0,0,1,45.208-51a29.961,29.961,0,0,1,21.785-8.912A29.4,29.4,0,0,1,88.55-50.921a29.385,29.385,0,0,1,9.026,21.595A28.915,28.915,0,0,1,88.512-7.808,30.336,30.336,0,0,1,66.536,1.066,30.342,30.342,0,0,1,46.084-6.817Q36.105-15.539,36.105-29.669Zm8.95.114a21.253,21.253,0,0,0,6.551,16.034A21.025,21.025,0,0,0,66.65-7.236a21.165,21.165,0,0,0,15.615-6.4A21.656,21.656,0,0,0,88.626-29.4,21.547,21.547,0,0,0,82.342-45.17a20.746,20.746,0,0,0-15.463-6.4,20.95,20.95,0,0,0-15.5,6.4A21.214,21.214,0,0,0,45.056-29.555ZM108.735,0V-58.8h8.836a38.686,38.686,0,0,1,9.407.914,14.134,14.134,0,0,1,5.979,3.085,16.008,16.008,0,0,1,3.923,5.6,16.94,16.94,0,0,1,1.485,6.855,13.893,13.893,0,0,1-4.837,10.7,14.211,14.211,0,0,1,7.389,5.6,15.79,15.79,0,0,1,2.742,9.217A15.663,15.663,0,0,1,138.785-5.18,16,16,0,0,1,132.2-1.1,38.325,38.325,0,0,1,122.18,0Zm8.874-33.554h2.78q4.951,0,7.255-2.19t2.3-6.456q0-4.151-2.361-6.3t-6.855-2.152h-3.123Zm0,25.213h5.484q6.018,0,8.836-2.361a8.164,8.164,0,0,0,2.971-6.475,8.294,8.294,0,0,0-2.856-6.4q-2.78-2.552-9.94-2.552h-4.494ZM187.8-58.8V0h-8.874V-58.8ZM201.932,0V-62.8l42.885,44.865V-58.8h8.874V3.58L210.806-41.171V0Zm82.075-50.464V0h-8.874V-50.464H261.612V-58.8h35.877v8.341Zm41.323,25.4L343.535,0H332.681l-16.8-24.07h-1.6V0h-8.874V-58.8h10.4q11.654,0,16.834,4.38a16.091,16.091,0,0,1,5.713,12.873,16.708,16.708,0,0,1-3.58,10.74A15.958,15.958,0,0,1,325.33-25.061ZM314.285-31.8H317.1q12.606,0,12.606-9.636,0-9.026-12.264-9.026h-3.161Zm33.82,2.133A28.8,28.8,0,0,1,357.208-51a29.961,29.961,0,0,1,21.785-8.912,29.4,29.4,0,0,1,21.557,8.988,29.385,29.385,0,0,1,9.026,21.595,28.915,28.915,0,0,1-9.064,21.519,30.336,30.336,0,0,1-21.976,8.874,30.342,30.342,0,0,1-20.452-7.884Q348.105-15.539,348.105-29.669Zm8.95.114a21.253,21.253,0,0,0,6.551,16.034A21.025,21.025,0,0,0,378.65-7.236a21.165,21.165,0,0,0,15.615-6.4,21.656,21.656,0,0,0,6.36-15.768,21.547,21.547,0,0,0-6.284-15.768,20.746,20.746,0,0,0-15.463-6.4,20.95,20.95,0,0,0-15.5,6.4A21.214,21.214,0,0,0,357.056-29.555ZM420.735,0V-58.8h12.34q8.874,0,14.016,1.752a26.233,26.233,0,0,1,10.017,5.827q9.1,8.3,9.1,21.823,0,13.559-9.483,21.938a27.694,27.694,0,0,1-9.979,5.827Q441.873,0,432.923,0Zm8.874-8.341h4a33.368,33.368,0,0,0,9.94-1.257,20.176,20.176,0,0,0,7.16-4.228Q457.26-19.8,457.26-29.4q0-9.674-6.475-15.691-5.827-5.37-17.177-5.37h-4ZM486.243-58.8v35.42q0,7.579,2.476,11.083a12.121,12.121,0,0,0,10.4,5.065A12.158,12.158,0,0,0,509.552-12.3q2.476-3.39,2.476-11.083V-58.8H520.9v37.857q0,9.293-5.789,15.311a21.434,21.434,0,0,1-16,6.7,21.311,21.311,0,0,1-15.958-6.7q-5.789-6.018-5.789-15.311V-58.8Zm92.206,3.161v10.512q-7.693-6.437-15.92-6.437a20.271,20.271,0,0,0-15.272,6.513,21.958,21.958,0,0,0-6.246,15.844A21.43,21.43,0,0,0,547.257-13.6a20.63,20.63,0,0,0,15.311,6.36,18.784,18.784,0,0,0,7.96-1.523,22.956,22.956,0,0,0,3.79-2.057,44.791,44.791,0,0,0,4.132-3.123v10.7a32.052,32.052,0,0,1-16,4.3,29.513,29.513,0,0,1-21.519-8.8,29.17,29.17,0,0,1-8.874-21.4,30.2,30.2,0,0,1,7.427-20.033q9.141-10.778,23.651-10.778A30.021,30.021,0,0,1,578.449-55.644Zm27.422,5.18V0H597V-50.464H583.477V-58.8h35.877v8.341ZM636.149-58.8V0h-8.874V-58.8Zm11.2,29.136A28.8,28.8,0,0,1,656.449-51a29.961,29.961,0,0,1,21.785-8.912,29.4,29.4,0,0,1,21.557,8.988,29.385,29.385,0,0,1,9.026,21.595,28.915,28.915,0,0,1-9.064,21.519,30.336,30.336,0,0,1-21.976,8.874,30.342,30.342,0,0,1-20.452-7.884Q647.347-15.539,647.347-29.669Zm8.95.114a21.253,21.253,0,0,0,6.551,16.034,21.025,21.025,0,0,0,15.044,6.284,21.165,21.165,0,0,0,15.615-6.4,21.656,21.656,0,0,0,6.36-15.768,21.547,21.547,0,0,0-6.284-15.768,20.746,20.746,0,0,0-15.463-6.4,20.95,20.95,0,0,0-15.5,6.4A21.214,21.214,0,0,0,656.3-29.555ZM719.977,0V-62.8l42.885,44.865V-58.8h8.874V3.58L728.851-41.171V0Z" transform="translate(302 1090)" fill="#fff" opacity="0.2"/><text transform="translate(683 1095)" fill="#231815" font-size="30" font-family="NotoSansCJKjp-Medium, Noto Sans CJK JP" font-weight="500"><tspan x="-314.7" y="0">マイナビコメディカルではこんな</tspan><tspan y="0">求人</tspan><tspan y="0">をご</tspan><tspan y="0">紹介</tspan></text></g></svg>