<svg xmlns="http://www.w3.org/2000/svg" width="336.668" height="106.646" viewBox="0 0 336.668 106.646"><g transform="translate(-452.364 -615)"><text transform="translate(598 675)" fill="#fff" font-size="58" font-family="Futura-Medium, Futura" font-weight="500" opacity="0.2"><tspan x="-99.787" y="0">ABOUT</tspan></text><g transform="translate(0 26)"><g transform="translate(-528.245 -1.098)"><g transform="translate(62.506 -13.473)"><path d="M1197.552,654.781a2.68,2.68,0,0,1-1.911-.765,2.767,2.767,0,0,1,0-3.905,2.685,2.685,0,0,1,1.911-.765h8.321a.8.8,0,0,0,.849-.678l3.4-18.851c.112-.452-.085-.68-.595-.68h-7.642a2.718,2.718,0,1,1,0-5.434h8.575a.831.831,0,0,0,.85-.764l1.952-10.783a3.669,3.669,0,0,1,1.274-2.208,3.607,3.607,0,0,1,2.379-.848,2.411,2.411,0,0,1,1.952.933,2.632,2.632,0,0,1,.595,2.123l-1.869,10.783a.514.514,0,0,0,.128.51.6.6,0,0,0,.467.254h15.454a.832.832,0,0,0,.85-.764l1.952-10.783a3.669,3.669,0,0,1,1.274-2.208,3.607,3.607,0,0,1,2.378-.848,2.412,2.412,0,0,1,1.953.933,2.632,2.632,0,0,1,.594,2.123l-1.868,10.783a.512.512,0,0,0,.128.51.6.6,0,0,0,.467.254h7.132a2.688,2.688,0,0,1,1.911.764,2.766,2.766,0,0,1,0,3.906,2.684,2.684,0,0,1-1.911.764h-8.151a.759.759,0,0,0-.765.68l-3.4,18.851c-.114.452.085.678.594.678h7.387a2.718,2.718,0,1,1,0,5.435h-8.321a.829.829,0,0,0-.849.763l-2.207,12.483a3.651,3.651,0,0,1-1.274,2.207,3.6,3.6,0,0,1-2.378.849,2.532,2.532,0,0,1-2-.934,2.559,2.559,0,0,1-.637-2.122l2.208-12.483a.514.514,0,0,0-.127-.509.607.607,0,0,0-.468-.255h-15.538a.829.829,0,0,0-.85.763l-2.207,12.483a3.655,3.655,0,0,1-1.273,2.207,3.6,3.6,0,0,1-2.378.849,2.408,2.408,0,0,1-1.952-.934,2.625,2.625,0,0,1-.595-2.122l2.207-12.483a.515.515,0,0,0-.126-.509.61.61,0,0,0-.468-.255Zm18.765-24.964-3.311,18.851q-.171.678.595.678h15.539a.8.8,0,0,0,.849-.678l3.311-18.851c.113-.452-.084-.68-.594-.68h-15.539A.8.8,0,0,0,1216.317,629.817Z" transform="translate(0 0)" fill="#fff"/></g><g opacity="0.5" style="mix-blend-mode:multiply;isolation:isolate"><path d="M1235.452,675.234q38.094-9.852,77.654-16.306,2.149,11.035,4.171,22.083-39.187,5.831-77.043,15.154Q1237.89,685.692,1235.452,675.234Z" fill="#302729"/></g><path d="M1230.25,674.429l78.924-16.818,4.986,21.877-78.924,16.818Z" fill="#231815"/><path d="M1244.775,690.655l-2.847-12.5,1.878-.428a8.416,8.416,0,0,1,2.043-.26,3.052,3.052,0,0,1,1.42.366,3.474,3.474,0,0,1,1.1,1,3.7,3.7,0,0,1,.648,1.385,3.019,3.019,0,0,1-.51,2.508,3.1,3.1,0,0,1,1.842.833,3.614,3.614,0,0,1,.557,4.538,3.5,3.5,0,0,1-1.2,1.185,8.336,8.336,0,0,1-2.074.72Zm.262-7.559.591-.135a2.229,2.229,0,0,0,1.435-.816,1.851,1.851,0,0,0,.177-1.484,1.766,1.766,0,0,0-.806-1.225,2.141,2.141,0,0,0-1.562-.125l-.663.151Zm1.221,5.357,1.165-.265a2.98,2.98,0,0,0,1.764-.929,1.782,1.782,0,0,0,.317-1.521,1.81,1.81,0,0,0-.917-1.221,3.23,3.23,0,0,0-2.235-.061l-.956.218Z" fill="#fff"/><path d="M1259.027,676.127l-5.009,1.142.684,3,4.865-1.108.405,1.773-4.866,1.108.952,4.176,5.009-1.142.405,1.773-6.9,1.571-2.847-12.5,6.9-1.572Z" fill="#fff"/><path d="M1270.6,681.578l-5.348,1.22-.7,3.351-2.032.463,3.157-14.689,8.991,11.921-2.063.47Zm-1.173-1.6-2.821-3.827-.974,4.693Z" fill="#fff"/><path d="M1275.265,670.563l1.714,7.526a4.254,4.254,0,0,0,1.064,2.236,2.888,2.888,0,0,0,4.427-1.009,4.182,4.182,0,0,0-.011-2.475l-1.715-7.528,1.886-.429,1.833,8.045a4.622,4.622,0,0,1-.489,3.534,4.881,4.881,0,0,1-6.791,1.547,4.614,4.614,0,0,1-1.971-2.973l-1.833-8.045Z" fill="#fff"/><path d="M1289.476,669.188l2.444,10.724-1.887.43-2.444-10.724-2.873.654-.4-1.772,7.623-1.737.4,1.772Z" fill="#fff"/><path d="M1297.762,672.9l-5.7-6.169,2.169-.494,3.995,4.343,1.728-5.646,2.169-.495-2.479,8.032,1.231,5.4-1.886.43Z" fill="#fff"/><g transform="translate(225 -38)"><path d="M770.989,686.908a14.34,14.34,0,0,0,6.634,5.018,26.257,26.257,0,0,0,8.317,1.484c.132,0,.132.33,0,.363a2.9,2.9,0,0,0-1.915,2.179.507.507,0,0,1-.527.363,8.562,8.562,0,0,1-1.618-.3,24.045,24.045,0,0,1-5.71-2.443,15.643,15.643,0,0,1-5.775-6.369,10.179,10.179,0,0,1-3.6,5.314c-2.541,2.112-5.908,3.366-10.958,3.96-.231.033-.33-.495-.1-.561,4.39-1.023,7.558-2.641,9.737-4.983a11.394,11.394,0,0,0,2.442-4.028h-9.043a17.289,17.289,0,0,0-2.542.2l-.33-1.253a17.313,17.313,0,0,0,2.839.231h9.307a14.343,14.343,0,0,0,.4-3.334c3.268.462,3.631.562,3.631.99,0,.3-.2.562-1.156.859a13.109,13.109,0,0,1-.3,1.485h10.033c1.353-1.617,1.584-1.75,1.783-1.75.23,0,.461.133,1.98,1.32.627.495.759.727.759.957,0,.2-.1.3-.429.3Zm9.7-5.61c1.386-1.617,1.65-1.782,1.849-1.782s.461.165,1.914,1.353c.627.527.792.726.792.924,0,.231-.132.33-.462.33H758.777a14.174,14.174,0,0,0-2.574.2l-.33-1.287a14.726,14.726,0,0,0,2.838.264h10.3V677.14h-7.063a11.306,11.306,0,0,0-2.31.2l-.33-1.287a12.389,12.389,0,0,0,2.574.264h7.129v-3.862h-8.944a11.621,11.621,0,0,0-2.343.2l-.363-1.287a12.494,12.494,0,0,0,2.64.265h12.839a29.651,29.651,0,0,0,1.815-3.5,9.67,9.67,0,0,0,.627-1.881c2.575,1.023,3.367,1.452,3.367,1.815s-.2.495-1.419.561a22.542,22.542,0,0,1-3.235,3h5.776c1.386-1.519,1.617-1.684,1.815-1.684.231,0,.462.165,1.849,1.221.66.562.825.76.825.957,0,.232-.132.33-.463.33H771.451v3.862h6.271c1.287-1.485,1.551-1.65,1.749-1.65s.462.165,1.848,1.221c.594.495.726.726.726.925s-.1.33-.429.33H771.451V681.3Zm-15.578-10.99a7.31,7.31,0,0,0-2.047-3.533c-.1-.1.067-.3.2-.263,2.8.593,4.389,2.013,4.389,3.4a1.326,1.326,0,0,1-1.452,1.419C765.576,671.33,765.345,671.1,765.114,670.308Z" fill="#231815"/><path d="M802.667,695.556c0,.726-.495,1.056-1.418,1.056-.793,0-1.057-.3-1.057-.957,0-.726.132-1.848.132-6.073,0-1.419,0-2.344-.033-3.069a29.563,29.563,0,0,1-5.842,2.475c-.231.066-.4-.4-.2-.495a32.772,32.772,0,0,0,11.288-8.977,12.58,12.58,0,0,0,1.914-3.466c2.641.99,3.169,1.255,3.169,1.585,0,.263-.231.428-1.023.56a19.025,19.025,0,0,0,5.841,5.017,21.546,21.546,0,0,0,8.351,2.574c.165,0,.131.33-.034.363-.693.2-1.056.661-1.385,1.684-.133.528-.3.66-.628.66a5.9,5.9,0,0,1-1.947-.66c-.693-.3-1.419-.66-2.079-1.023a2.016,2.016,0,0,1-.694.461v2.146c0,3.631.1,5.347.1,5.875,0,.792-.43,1.122-1.453,1.122-.792,0-1.056-.264-1.056-.99v-.891H802.667Zm-4.29-24.126c-.066,2.508-1.221,4.191-2.707,4.191a1.354,1.354,0,0,1-1.386-1.387c0-.593.231-.923.924-1.352a4.247,4.247,0,0,0,2.476-3.961c0-.2.4-.231.429-.033a11.193,11.193,0,0,1,.231,1.716h9.043v-1.683a20.969,20.969,0,0,0-.1-2.508c3.334.362,3.73.66,3.73,1.056,0,.263-.231.495-1.122.858V670.6h9.175c1.188-1.353,1.353-1.452,1.584-1.452.264,0,.594.2,2.079,1.618.792.792.925.957.925,1.187,0,.4-.33.6-1.222.6a1.606,1.606,0,0,0-1.485.462,13.772,13.772,0,0,1-2.541,1.914c-.132.1-.363-.1-.3-.231a25.833,25.833,0,0,0,1.353-3.267Zm-2.872,9.306a21.145,21.145,0,0,0,5.744-5.082,12.463,12.463,0,0,0,1.649-2.772c2.146.89,3.1,1.386,3.1,1.716,0,.363-.363.495-1.287.528a21.359,21.359,0,0,1-8.978,6.105C795.505,681.3,795.308,680.869,795.505,680.736Zm19.11,5.05c.231-.264.4-.462.561-.627a11.513,11.513,0,0,1-1.023-.759,21.528,21.528,0,0,1-5.083-5.908,25.6,25.6,0,0,1-6.9,6.832c.3.165.495.3.76.462Zm0,.825H802.667v7.1h11.948Zm2.707-7.294a23.158,23.158,0,0,0-6.04-5.643c-.165-.1-.033-.495.165-.429,5.446,1.617,8.515,3.861,8.515,5.974a1.2,1.2,0,0,1-1.122,1.352C818.345,680.571,817.982,680.274,817.322,679.317Z" fill="#231815"/><path d="M833.456,685.357a24.275,24.275,0,0,0,4.225-4.918,30.493,30.493,0,0,0,3.267-6.567A15.616,15.616,0,0,0,842,669.944c0-.363-.165-.528-.66-.792a.309.309,0,0,1-.2-.264c0-.132.132-.3.429-.495a2.249,2.249,0,0,1,1.056-.264,2.844,2.844,0,0,1,1.683.66,1.888,1.888,0,0,1,.925,1.32c0,.264-.133.4-.4.661-.3.263-.364.395-.66,1.122a17.379,17.379,0,0,1-1.09,2.672c.99-.065,1.518-.131,2.839-.263,1.551-.165,2.211-.264,2.871-.33a2.02,2.02,0,0,0,1.122-.429,1.253,1.253,0,0,1,.6-.2,2.918,2.918,0,0,1,1.649,1.023,2.544,2.544,0,0,1,.826,1.452,1.017,1.017,0,0,1-.4.693c-.3.264-.4.429-.627,1.155a30.977,30.977,0,0,1-5.677,10.892,22.66,22.66,0,0,1-11.156,7c-.165.033-.264-.132-.1-.231a27.223,27.223,0,0,0,9.7-8.284,29.743,29.743,0,0,0,4.818-10.231,4.061,4.061,0,0,0,.165-.925c0-.231-.165-.3-.594-.3-.66,0-1.419.066-3.2.231-1.518.165-2.542.264-3.5.4a21.835,21.835,0,0,1-3.894,5.611,17.436,17.436,0,0,1-4.984,3.73C833.423,685.589,833.357,685.456,833.456,685.357Z" fill="#231815"/><path d="M870.945,671.1a1.614,1.614,0,0,1,.891,1.22.994.994,0,0,1-.2.627c-.2.232-.2.33-.2,1.782,0,1.75.066,3.236.1,5.018.033,1.386.132,2.8.132,3.366,0,1.089-.594,1.881-1.353,1.881-.793.033-1.255-.56-1.255-1.65,0-.462,0-.957.034-2.343.032-1.749.066-3.1.066-4.621a24.136,24.136,0,0,0-.2-3.73c-.066-.495-.231-.627-.792-.857-.165-.066-.264-.133-.264-.265a1.294,1.294,0,0,1,.4-.528,1.743,1.743,0,0,1,1.154-.495A2.666,2.666,0,0,1,870.945,671.1Zm10.2,2.342c.032,1.189,0,2.047,0,3.1-.067,7.69-1.09,11.353-3.994,14.391-2.08,2.112-4.72,3.5-8.582,4.488-.2,0-.231-.132-.131-.232a18.768,18.768,0,0,0,7.063-5.148c2.343-2.938,3.168-6.9,3.168-13.268,0-2.343,0-3.334-.1-4.951-.066-1.551-.1-1.65-.627-1.815-.3-.1-.429-.165-.429-.264,0-.2.264-.495.594-.725a1.827,1.827,0,0,1,1.056-.4,2.989,2.989,0,0,1,1.816.792,1.692,1.692,0,0,1,.692,1.254.915.915,0,0,1-.264.693c-.231.232-.263.3-.263,1.321Z" fill="#231815"/><path d="M895.529,686.975a2.342,2.342,0,0,0,1.749.561c.825,0,1.683-.066,2.673-.165,2.872-.231,5.248-.43,7.757-.595,2.375-.165,4.488-.33,7.194-.495a6.764,6.764,0,0,0,2.014-.3,2.4,2.4,0,0,1,.924-.2,3.14,3.14,0,0,1,1.782.727c.66.462.957.858.957,1.385,0,.562-.363.892-1.056.892a9.857,9.857,0,0,1-1.122-.132,24.118,24.118,0,0,0-4.786-.363c-2.574,0-5.611.132-8.284.4a53.828,53.828,0,0,0-6.4.957,7.04,7.04,0,0,1-1.485.264,2.2,2.2,0,0,1-2.079-2.344,4.346,4.346,0,0,1,.032-.593C895.43,686.908,895.462,686.908,895.529,686.975Zm4.785-11.09a4.007,4.007,0,0,0,1.815.3c.628,0,1.882-.132,3.3-.3,1.485-.2,3.036-.4,4.39-.66a7.228,7.228,0,0,0,2.508-.792,1.63,1.63,0,0,1,.792-.165c1.32,0,2.673.891,2.673,1.75,0,.659-.5.957-1.683.957a38.429,38.429,0,0,0-4.851.263c-1.42.132-2.806.364-4.753.66a15.928,15.928,0,0,1-1.981.3c-1.023,0-1.914-.858-2.31-2.277C900.215,675.853,900.215,675.853,900.314,675.885Z" fill="#231815"/><path d="M930.839,678.592a6.848,6.848,0,0,1,3.169,1.287,2.642,2.642,0,0,1,1.188,2.178,1.494,1.494,0,0,1-1.419,1.585c-.66,0-.924-.3-1.09-1.354a6.234,6.234,0,0,0-1.914-3.6C930.708,678.624,930.773,678.592,930.839,678.592Zm2.839,16.04a20.338,20.338,0,0,0,8.449-7.162,25.5,25.5,0,0,0,3.367-8.713,7.26,7.26,0,0,0,.2-1.387.612.612,0,0,0-.462-.66c-.23-.065-.33-.132-.33-.231,0-.132.165-.33.4-.461a1.952,1.952,0,0,1,.859-.232,2.745,2.745,0,0,1,1.65.792,1.921,1.921,0,0,1,.693,1.155.585.585,0,0,1-.264.5c-.231.2-.3.363-.429.923a23.66,23.66,0,0,1-4.159,9.539,18.1,18.1,0,0,1-9.868,6.139C933.612,694.863,933.513,694.7,933.678,694.632Zm2.475-17.955a6.448,6.448,0,0,1,3.466,1.221,2.734,2.734,0,0,1,1.056,2.046,1.31,1.31,0,0,1-1.255,1.452c-.692,0-.858-.165-1.154-1.352a5.737,5.737,0,0,0-2.146-3.268C936.054,676.71,936.087,676.677,936.153,676.677Z" fill="#231815"/><path d="M959.516,685.357a24.212,24.212,0,0,0,4.225-4.918,30.493,30.493,0,0,0,3.267-6.567,15.571,15.571,0,0,0,1.056-3.928c0-.363-.165-.528-.66-.792a.309.309,0,0,1-.2-.264c0-.132.132-.3.43-.495a2.245,2.245,0,0,1,1.055-.264,2.847,2.847,0,0,1,1.684.66,1.889,1.889,0,0,1,.924,1.32c0,.264-.132.4-.4.661-.3.263-.362.395-.659,1.122a17.379,17.379,0,0,1-1.09,2.672c.991-.065,1.519-.131,2.839-.263,1.551-.165,2.211-.264,2.871-.33a2.014,2.014,0,0,0,1.122-.429,1.259,1.259,0,0,1,.6-.2,2.918,2.918,0,0,1,1.649,1.023,2.538,2.538,0,0,1,.826,1.452,1.017,1.017,0,0,1-.4.693c-.3.264-.4.429-.627,1.155a30.961,30.961,0,0,1-5.677,10.892,22.66,22.66,0,0,1-11.156,7c-.165.033-.264-.132-.1-.231a27.229,27.229,0,0,0,9.7-8.284,29.743,29.743,0,0,0,4.818-10.231,4,4,0,0,0,.165-.925c0-.231-.165-.3-.594-.3-.66,0-1.419.066-3.2.231-1.518.165-2.542.264-3.5.4a21.809,21.809,0,0,1-3.894,5.611,17.408,17.408,0,0,1-4.984,3.73C959.483,685.589,959.417,685.456,959.516,685.357Z" fill="#231815"/><path d="M989.4,677.348a.969.969,0,0,0,1.037.727,11.674,11.674,0,0,0,1.792-.252c3.78-.727,7.475-1.483,11.2-2.324a11.832,11.832,0,0,0,2.716-.756,1.741,1.741,0,0,1,.7-.168c1.343,0,2.743.756,2.743,1.456,0,.588-.476.981-1.232.981a16.339,16.339,0,0,1-1.792-.2,11.358,11.358,0,0,0-1.484-.084c-2.184,0-3.611.449-4.227,1.316-.812,1.064-1.373,3.837-1.373,6.8,0,2.744.365,4.563,1.233,5.879a6.063,6.063,0,0,0,3.331,2.3,4.851,4.851,0,0,1,1.484.7,1.285,1.285,0,0,1,.308.839c0,.617-.447,1.008-1.232,1.008a5.924,5.924,0,0,1-3.051-1.147c-2.437-1.513-3.556-4.061-3.556-8.036,0-3.725.812-6.832,2.268-8.905a60.934,60.934,0,0,0-7.224,2.128,6.112,6.112,0,0,1-2.185.561,1.962,1.962,0,0,1-1.96-1.821,1.392,1.392,0,0,1,.393-1.007C989.345,677.291,989.373,677.291,989.4,677.348Zm15.317,2.744a6.732,6.732,0,0,1,1.035.168c1.708.42,2.772,1.315,2.772,2.38a.936.936,0,0,1-.839,1.036c-.477,0-.533-.084-1.092-1.177a5.61,5.61,0,0,0-1.905-2.3C1004.632,680.147,1004.66,680.092,1004.717,680.092Zm2.995-1.261a4.4,4.4,0,0,1,.532.028c1.876.168,3.332,1.176,3.332,2.3a.876.876,0,0,1-.784.924c-.392,0-.56-.168-1.063-1.008a6.288,6.288,0,0,0-2.044-2.156C1007.628,678.859,1007.656,678.831,1007.712,678.831Z" fill="#231815"/><path d="M1028.292,695.491a15.364,15.364,0,0,0,5.516-2.24,9.448,9.448,0,0,0,4.4-8.288c0-5.292-3.444-8.932-8.428-8.932a5.953,5.953,0,0,0-.924.056,8.523,8.523,0,0,1,1.68,5.152,13.236,13.236,0,0,1-4.732,10.08,5.437,5.437,0,0,1-3.052,1.288,1.18,1.18,0,0,1-1.288-1.036c-.2-.756-.252-.784-1.288-1.2-1.008-.391-1.68-2.128-1.68-4.256a11.155,11.155,0,0,1,11.34-10.92c6.132,0,10.64,4.256,10.64,10.024,0,5.908-4.592,9.912-11.06,10.416-.336.028-.7.057-1.092.084C1028.152,695.715,1028.124,695.52,1028.292,695.491Zm-7.924-9.408c0,2.521,1.064,4.34,2.548,4.34.924,0,2.016-.756,3.164-2.155a13.3,13.3,0,0,0,3.136-8.317,7.27,7.27,0,0,0-.9-3.807C1023.672,676.9,1020.368,681.043,1020.368,686.083Z" fill="#231815"/></g><path d="M1052.765,682.915c0,7.921.065,11.585.065,12.707,0,.726-.495,1.122-1.452,1.122-.759,0-.99-.33-.99-1.023,0-.66.1-3.036.165-10.792.033-2.113.033-4.225.066-6.337a30.488,30.488,0,0,1-3.069,4.191c-.165.165-.562-.132-.43-.33a41.215,41.215,0,0,0,4.786-12.047,25.467,25.467,0,0,0,.627-3.993c2.409.561,3.5.99,3.5,1.419,0,.33-.2.462-1.221.726a39.9,39.9,0,0,1-3.07,7.987c1.551.265,1.914.43,1.914.792,0,.231-.033.3-.89.726Zm4.521,2.046c0,.628-.363.892-1.122.892-.627,0-.892-.232-.892-.759,0-.562.1-1.519.1-4.985,0-2.012-.033-3.168-.133-4.653a11.409,11.409,0,0,1,2.377,1.189h2.706v-2.576h-3.7a11.835,11.835,0,0,0-2.014.2l-.33-1.288a7.655,7.655,0,0,0,2.278.265h3.762v-2.839c-1.287.165-2.772.3-4.686.429-.2,0-.232-.4-.033-.429a31.069,31.069,0,0,0,7.393-2.244,8.832,8.832,0,0,0,2.211-1.452c1.749,1.386,2.211,1.848,2.211,2.178,0,.2-.165.33-.495.33a3.7,3.7,0,0,1-.891-.165,28.426,28.426,0,0,1-3.729,1.023v3.169h2.97c1.023-1.32,1.254-1.485,1.453-1.485.23,0,.462.165,1.584,1.122.495.429.66.693.66.89s-.1.3-.462.3H1062.3v2.576h2.937c.792-.892.99-1.024,1.189-1.024s.428.132,1.287.825c.462.364.594.594.594.792,0,.264-.2.429-.826.825v1.551c0,3.169.067,4.655.067,5.116,0,.627-.363.924-1.189.924-.561,0-.825-.2-.825-.693v-.1H1062.3v2.74h2.211c.957-1.221,1.188-1.353,1.386-1.353.231,0,.462.132,1.486,1.056.428.363.593.627.593.825s-.1.3-.4.3h-5.28v3.1c1.518-.231,3.069-.528,4.653-.858.2-.032.33.363.132.43a48.337,48.337,0,0,1-10.891,3.267c-.231.858-.4,1.089-.66,1.089-.4,0-.495-.165-1.32-3.268a13.855,13.855,0,0,0,1.682,0c1.387-.066,2.872-.165,4.423-.363v-3.4h-3.531a11.105,11.105,0,0,0-1.947.2l-.33-1.254a8.84,8.84,0,0,0,2.244.231h3.564v-2.74h-3.036Zm0-7.491v2.772h3.036V677.47Zm3.036,6.567v-2.971h-3.036v2.971Zm5.215-6.567H1062.3v2.772h3.234Zm0,3.6H1062.3v2.971h3.234Zm9.6-5.775c.99-1.089,1.155-1.188,1.353-1.188.231,0,.429.1,1.452,1.023.462.495.594.66.594.858s-.132.363-.825.891a87.669,87.669,0,0,1-1.056,14.621c-.363,1.947-.825,3.268-1.683,4.026a2.771,2.771,0,0,1-1.948.694c-.495,0-.627-.1-.66-.561-.1-.925-.66-1.42-2.674-2.013-.2-.067-.2-.529,0-.5a17.99,17.99,0,0,0,3.3.4c.825,0,1.089-.727,1.519-2.674.56-2.541.89-7.062,1.022-14.753h-2.508c-.263,5.182-.726,8.483-1.617,11.09a16.848,16.848,0,0,1-7.724,9.175c-.2.132-.527-.264-.362-.429,5.479-4.786,7.162-8.746,7.525-19.836h-.1a10.123,10.123,0,0,0-2.311.231l-.33-1.287a15.175,15.175,0,0,0,2.575.231h.2c.033-1.584.066-3.268.066-5.148a21.419,21.419,0,0,0-.165-3.268c2.97.4,3.433.561,3.433.99,0,.3-.232.528-.99.825-.034,2.475-.1,4.654-.165,6.6Z" fill="#231815"/><path d="M1095.128,679.476a9.708,9.708,0,0,0,3.473,1.259,2.092,2.092,0,0,0,.559-.084,1.721,1.721,0,0,1,.364-.028.823.823,0,0,1,.924.784c0,.924-1.316,1.905-3.723,2.828a15.607,15.607,0,0,0,.839,1.512c1.289,1.988,1.428,2.324,1.428,3.248a2.344,2.344,0,0,1-2.1,2.408c-.309,0-.449-.112-.7-.643-.224-.393-.364-.532-1.036-.841a17.217,17.217,0,0,0-2.1-.84c-.084-.027-.057-.111.027-.111,1.12.111,2.185.307,2.94.307.644,0,.98-.252.98-.812,0-.447-.111-.7-.644-1.819-.308-.588-.728-1.485-.952-1.989a19.947,19.947,0,0,1-5.292.868c-2.24,0-3.78-1.091-4-2.8,0-.084.056-.084.113-.029a3.265,3.265,0,0,0,3.051,1.344,18.973,18.973,0,0,0,5.544-1.008,26.5,26.5,0,0,1-.98-3.639,8.562,8.562,0,0,1-2.716.5,3.224,3.224,0,0,1-3.416-2.3c0-.057.028-.084.084-.057a3.4,3.4,0,0,0,2.3.98,9.528,9.528,0,0,0,3.416-.9c-.056-.56-.084-.728-.336-2.212-.224-1.344-.616-1.876-1.512-1.876a1.355,1.355,0,0,0-.84.309c-.056.055-.112.027-.084-.057a2.048,2.048,0,0,1,1.989-1.26c1.315,0,1.987.868,2.044,2.773,0,.475,0,.84.055,1.708a2.079,2.079,0,0,1,1.428-.5c.7,0,1.065.223,1.065.756,0,.727-.869,1.147-2.269,1.708Zm-4.788,9.771c-1.484.813-2.016,1.54-2.016,2.716,0,1.54,1.233,2.549,3.109,2.549a4.817,4.817,0,0,0,1.792-.309,1.655,1.655,0,0,1,.727-.168c.729,0,1.4.532,1.4,1.065,0,.811-1.569,1.4-3.5,1.4-2.941,0-4.985-1.54-4.985-3.779,0-1.821,1.176-3.025,3.445-3.584C1090.4,689.136,1090.424,689.191,1090.34,689.247Zm7.532-7.531a31.315,31.315,0,0,0-2.687-1.933,15.308,15.308,0,0,0,.839,2.857A6.005,6.005,0,0,0,1097.872,681.716Z" fill="#231815"/><path d="M1120.236,673.9c-.1,1.849-.2,3.7-.462,5.513h9.275c1.122-1.123,1.287-1.255,1.485-1.255.232,0,.462.033,1.651,1.122.528.495.627.694.627.892s-.166.363-1.024.89c-.462,5.842-1.155,9.671-2.013,11.75a4.695,4.695,0,0,1-4.489,3.433c-.362,0-.495-.132-.56-.561-.2-1.089-.892-1.65-3.995-2.673-.23-.067-.1-.562.133-.529a27.5,27.5,0,0,0,4.819.727c1.023,0,1.518-.462,2.079-2.146a49.609,49.609,0,0,0,1.584-10.825h-9.7a23.859,23.859,0,0,1-1.783,6.237c-1.98,4.457-5.346,7.559-10.561,9.836-.2.1-.495-.33-.3-.462,4.323-2.872,7.2-6.139,8.878-10.5a37.409,37.409,0,0,0,1.782-11.453h-7.822a14.568,14.568,0,0,0-2.31.2l-.363-1.254a15.968,15.968,0,0,0,2.673.231h10.5v-3.763a21.24,21.24,0,0,0-.2-2.673c3.466.33,3.861.594,3.861.99,0,.231-.23.5-1.122.891v4.555h8.944c1.651-1.815,1.914-1.947,2.113-1.947.231,0,.462.132,2.013,1.419.726.627.891.858.891,1.055s-.1.3-.429.3Z" fill="#231815"/><path d="M1146.28,672.447c.308.42.365.449,1.316.868,1.96.869,2.465,1.6,2.465,3.613,0,.223-.029.867-.057,1.6-.056,1.121-.056,2.044-.056,2.577,0,2.239.252,2.883,1.12,2.883a3.716,3.716,0,0,0,1.9-.755,2.01,2.01,0,0,1,1.176-.477,1.389,1.389,0,0,1,1.428,1.232c0,.476-.28.812-1.008,1.037a14.383,14.383,0,0,1-1.624.419,10.406,10.406,0,0,0-1.932.644,11.664,11.664,0,0,0-4.06,2.576,3.59,3.59,0,0,0-1.2,2.6c0,1.819,1.484,2.827,4.172,2.827a15.279,15.279,0,0,0,4-.588,4.233,4.233,0,0,1,1.148-.2c.7,0,1.232.363,1.232.9,0,1.036-2.268,1.792-5.264,1.792-4.088,0-6.355-1.651-6.355-4.592,0-2.351,1.511-4.284,4.983-6.467-1.092-.588-1.483-1.344-1.483-2.884,0-.477.027-1.288.111-2.353.141-1.511.2-2.156.2-2.884a3.17,3.17,0,0,0-.168-1.316c-.139-.308-.42-.5-.9-.867-.728-.505-1.036-.841-1.176-1.4a2.414,2.414,0,0,1-.056-.784Q1146.238,672.365,1146.28,672.447Z" fill="#231815"/><path d="M1168.456,673.483a4.857,4.857,0,0,1,2.268,3.781,11.113,11.113,0,0,1-.785,3.611c-1.119,3.473-1.651,5.1-1.651,7.477a6.9,6.9,0,0,0,1.008,4.031,24.581,24.581,0,0,0,1.624-2.743c.784-1.54,1.12-2.1,1.456-2.773.056-.084.14-.028.112.056q-.714,2.4-1.344,4.368a6.2,6.2,0,0,0-.448,2.044,2.911,2.911,0,0,0,.252,1.064,2.455,2.455,0,0,1,.224.84.809.809,0,0,1-.84.84c-1.82,0-3.472-3.7-3.472-7.7a35.086,35.086,0,0,1,1.148-7.98,19.334,19.334,0,0,0,.784-4.536,5.181,5.181,0,0,0-.448-2.3C1168.315,673.483,1168.372,673.428,1168.456,673.483Zm6.664,5.88a4.291,4.291,0,0,0,3.024,1.036,10.269,10.269,0,0,0,2.52-.391c0-1.4.027-3.361.027-4.229,0-.84-.111-.952-.923-1.147-.28-.057-.308-.084-.308-.169a.726.726,0,0,1,.252-.476,1.4,1.4,0,0,1,.979-.391c1.037,0,1.876.588,1.876,1.4a4.382,4.382,0,0,1-.084.7c-.027.2-.055.42-.084.645,1.372,1.035,2.073,1.428,2.745,1.455.2,0,.335-.056.476-.056a.929.929,0,0,1,.867.952c0,.533-.336.98-1.259,1.485a11.428,11.428,0,0,1-3.052,1.344,47.226,47.226,0,0,0,.7,7.952c2.939,1.035,4.9,2.575,4.9,3.836a.9.9,0,0,1-.839.979c-.308,0-.42-.084-1.289-1.008a9.39,9.39,0,0,0-2.715-2.015,1.6,1.6,0,0,1,.028.336c0,2.744-1.6,3.947-3.836,3.947a3.765,3.765,0,0,1-2.716-.84,1.912,1.912,0,0,1-.5-1.008,1.009,1.009,0,0,0-.392-.672,1.055,1.055,0,0,1-.308-.756c0-1.82,1.987-3.192,4.564-3.192a10.391,10.391,0,0,1,1.316.057c-.252-2.689-.28-4.7-.364-7.365a7.313,7.313,0,0,1-1.708.224,4.009,4.009,0,0,1-4-2.576C1175.008,679.335,1175.063,679.308,1175.12,679.363Zm4.2,11.144c-1.847,0-3.079.757-3.079,1.876,0,.98.951,1.6,2.323,1.6,1.792,0,2.633-.784,2.633-2.547a4.416,4.416,0,0,0-.056-.7A7.04,7.04,0,0,0,1179.319,690.507Zm4.956-11.844a20.727,20.727,0,0,0-1.931-2.016c-.084.98-.113,1.932-.168,3A6.072,6.072,0,0,0,1184.275,678.663Z" fill="#231815"/><path d="M1211.26,674.136c0,3.7-2.938,5.578-5.05,7.36a5.627,5.627,0,0,0-2.244,5.545c0,.362-.3.594-.99.594-.2,0-.3-.132-.3-.4a9.719,9.719,0,0,1,2.079-6.765c1.517-1.914,3.4-3.631,3.4-6.469,0-2.739-1.32-4.983-4.224-4.983a3.684,3.684,0,0,0-3.433,1.814,5.356,5.356,0,0,0-.528,2.839c0,.957-1.254,1.65-2.343,1.65-.66,0-1.122-.264-1.122-1.32,0-2.277,2.838-6.04,7.557-6.04C1208.718,667.964,1211.26,670.638,1211.26,674.136Zm-5.942,18.812a2.063,2.063,0,1,1-2.046-2.112A2.051,2.051,0,0,1,1205.318,692.948Z" fill="#231815"/></g></g></g></svg>