<svg xmlns="http://www.w3.org/2000/svg" width="261.009" height="109.987" viewBox="0 0 261.009 109.987"><g transform="translate(-493 -958.5)"><path d="M10.017-58.8,26.279-18.053,42.771-58.8h9.712L26.089,4.418.3-58.8ZM54.272-29.669A28.8,28.8,0,0,1,63.375-51,29.961,29.961,0,0,1,85.16-59.909a29.4,29.4,0,0,1,21.557,8.988,29.385,29.385,0,0,1,9.026,21.595,28.915,28.915,0,0,1-9.064,21.519A30.336,30.336,0,0,1,84.7,1.066,30.342,30.342,0,0,1,64.251-6.817Q54.272-15.539,54.272-29.669Zm8.95.114a21.253,21.253,0,0,0,6.551,16.034A21.025,21.025,0,0,0,84.817-7.236a21.165,21.165,0,0,0,15.615-6.4,21.656,21.656,0,0,0,6.36-15.768,21.547,21.547,0,0,0-6.284-15.768,20.746,20.746,0,0,0-15.463-6.4,20.95,20.95,0,0,0-15.5,6.4A21.214,21.214,0,0,0,63.223-29.555ZM135.776-58.8V0H126.9V-58.8Zm57.586,3.161v10.512q-7.693-6.437-15.92-6.437a20.271,20.271,0,0,0-15.272,6.513,21.958,21.958,0,0,0-6.246,15.844A21.43,21.43,0,0,0,162.17-13.6a20.63,20.63,0,0,0,15.311,6.36,18.784,18.784,0,0,0,7.96-1.523,22.956,22.956,0,0,0,3.79-2.057,44.791,44.791,0,0,0,4.132-3.123v10.7a32.052,32.052,0,0,1-16,4.3,29.513,29.513,0,0,1-21.519-8.8,29.17,29.17,0,0,1-8.874-21.4A30.2,30.2,0,0,1,154.4-49.169q9.141-10.778,23.651-10.778A30.021,30.021,0,0,1,193.362-55.644Zm43.646,5.18H213.434v14.13h22.89v8.341h-22.89V-8.341h23.575V0H204.56V-58.8h32.449Z" transform="translate(517 1064.069)" opacity="0.07"/><text transform="translate(493 979.5)" fill="#231815" font-size="18" font-family="NotoSansCJKjp-Bold, Noto Sans CJK JP" font-weight="700"><tspan x="0" y="0">マイナビコメディカルを</tspan><tspan x="0" y="26">利用</tspan><tspan y="26">された</tspan><tspan y="26">方</tspan><tspan y="26">の</tspan><tspan y="26">声</tspan></text></g></svg>