<svg xmlns="http://www.w3.org/2000/svg" width="360" height="76.661" viewBox="0 0 360 76.661"><g transform="translate(-503 -1028.339)"><path d="M36.41-50.464H15.92v14.13H35.687v8.341H15.92V0H7.046V-58.8H36.41ZM55.567-58.8V-8.341H72.858V0H46.693V-58.8ZM75.943-29.669A28.8,28.8,0,0,1,85.046-51a29.961,29.961,0,0,1,21.785-8.912,29.4,29.4,0,0,1,21.557,8.988,29.385,29.385,0,0,1,9.026,21.595A28.915,28.915,0,0,1,128.35-7.808a30.336,30.336,0,0,1-21.976,8.874A30.342,30.342,0,0,1,85.922-6.817Q75.943-15.539,75.943-29.669Zm8.95.114a21.253,21.253,0,0,0,6.551,16.034,21.025,21.025,0,0,0,15.044,6.284,21.165,21.165,0,0,0,15.615-6.4,21.656,21.656,0,0,0,6.36-15.768A21.547,21.547,0,0,0,122.18-45.17a20.746,20.746,0,0,0-15.463-6.4,20.95,20.95,0,0,0-15.5,6.4A21.214,21.214,0,0,0,84.894-29.555ZM148.954-58.8l15.311,39.3,16-42.161L195.571-19.5l16.263-39.3h9.636L195.19,3.732,180.07-37.934,164.3,3.771,139.318-58.8Z" transform="translate(572 1090)" opacity="0.07"/><text transform="translate(683 1095)" fill="#231815" font-size="30" font-family="NotoSansCJKjp-Medium, Noto Sans CJK JP" font-weight="500"><tspan x="-180" y="0">ご</tspan><tspan y="0">利用</tspan><tspan y="0">から</tspan><tspan y="0">入職</tspan><tspan y="0">までの</tspan><tspan y="0">流</tspan><tspan y="0">れ</tspan></text></g></svg>