<svg xmlns="http://www.w3.org/2000/svg" xmlns:xlink="http://www.w3.org/1999/xlink" width="41" height="84" viewBox="0 0 41 84"><defs><clipPath id="a"><rect width="41" height="84" transform="translate(625 2180)" fill="#fff"/></clipPath><filter id="b" x="5.633" y="52.449" width="36.434" height="33.597" filterUnits="userSpaceOnUse"><feOffset dx="5" dy="3" input="SourceAlpha"/><feGaussianBlur stdDeviation="1" result="c"/><feFlood flood-color="#7e3030" flood-opacity="0.29"/><feComposite operator="in" in2="c"/><feComposite in="SourceGraphic"/></filter></defs><g transform="translate(-625 -2180)" clip-path="url(#a)"><g transform="translate(-38 1637.171)"><line y2="71.736" transform="translate(683.953 542.329)" fill="none" stroke="#fff" stroke-miterlimit="10" stroke-width="1"/><g transform="matrix(1, 0, 0, 1, 663, 542.83)" filter="url(#b)"><path d="M982.4,588.065s-1.378-3.982-.377-5.388a3.272,3.272,0,0,1,4.47-.934c1.532,1.013,2.037,4.984,2.037,4.984s1.814-4.958,4.876-4.05,1.556,4.642,1.556,4.642,3.742-1.128,5.2,1.192-.7,4.827-.7,4.827,1.921,2.393,1.6,4.606-.772,3.783-2.875,4.244-5.409-1.672-5.409-1.672,1.746,2.978,1.746,5.031-.138,2.8-1.746,3.18-2.9-.481-4.249-1.666a3.866,3.866,0,0,1-1.144-3.072,17.7,17.7,0,0,1-2.673,2.506,3.356,3.356,0,0,1-2.312.906,25.665,25.665,0,0,1-2.661,0,5.447,5.447,0,0,1-1.535-1.855,7.872,7.872,0,0,1-.576-2.637l3.467-3.683-5.07,1.288a20.979,20.979,0,0,1-1.969-1.288,10.2,10.2,0,0,1-1.392-1.284,10.3,10.3,0,0,1,.5-1.691,15.32,15.32,0,0,1,.887-1.78l7.039-1.519-6.427-2.8a11.219,11.219,0,0,1-.612-2.833,1.934,1.934,0,0,1,.612-1.552,7.5,7.5,0,0,1,2.377-.422,11.185,11.185,0,0,1,2.694.422Z" transform="translate(-967.03 -528.77)" fill="#fff"/></g><path d="M1000.812,600.541l-.271.25a16.391,16.391,0,0,1-1.67,1.653.939.939,0,0,1-.267.128,1.134,1.134,0,0,1-.838-.136,12.288,12.288,0,0,1-2.224-2.4c-.184-.219-.412-.458-.211-.745s.445.01.67.048c.09.015.183.038.254-.141-.356-.414-1.393-.209-1.235-1.173a.261.261,0,0,1,.208-.134c.217.035.451-.08.632-.047,1.02.186,1.327-.4,1.384-1.235s.72-.8,1.263-.964c.3-.024.6-.254.886-.13.358.153.437.129.556-.288.132-.457.487-.082.744,0,.291.154.464.472.792.578.14.486.743.882.286,1.483.1.745-.453,1.382-.349,2.128A2.7,2.7,0,0,1,1000.812,600.541Z" transform="translate(-304.033 14.056)" fill="#f0ded3"/><path d="M976.041,584.743a3.942,3.942,0,0,1,3.29.448c.252.5.833.656,1.157,1.083.435.254.705.807,1.324.73.449.144.483.442.3.818a.408.408,0,0,1-.435-.051c-.342-.3-.2.124-.3.19a3.515,3.515,0,0,1-3.075.586c.134.387.959.515.655,1.168-.189.406-.635.308-.985.387-.7-.455-1.66-.514-2.043-1.267.334.271.45.993,1.284.84.245-.045.655.4.477.845-.163.407-.538.365-.879.249a2.22,2.22,0,0,1-.844-.715,11.691,11.691,0,0,1-1.123-1.418c-.146-.269.021-.574-.1-.848a.969.969,0,0,1-.007-.252,2.227,2.227,0,0,1,.862-1.3c.4-.32.889-.586.21-1.134C975.622,584.947,975.834,584.787,976.041,584.743Z" transform="translate(-304.033 14.056)" fill="#e8bcb5"/><path d="M995.587,602.242a1.078,1.078,0,0,1-.768-.352,4.575,4.575,0,0,0-2.378-1.316c-.751-.342-1.127-1.066-1.662-1.628a5.475,5.475,0,0,1-.793-1.081c-.1-.37.1-.427.394-.372.323.061.61.244.929.316-.319-.407-.292-.742.132-1.03a6.576,6.576,0,0,1,1.616.206,1.908,1.908,0,0,0,.8.184c.084,0,.167,0,.251.006a5.155,5.155,0,0,0,1-.106c.4-.045.741.039.783.537a.838.838,0,0,1-.729.313h0a5.843,5.843,0,0,1-2.528-.05c.733.361.958,1.21,1.8,1.284a.333.333,0,0,1,.231.278c.121,1.3,1.14,1.848,2.046,2.5a.359.359,0,0,1,.1.157c-.027.389-.309.3-.529.256S995.842,602.117,995.587,602.242Z" transform="translate(-304.033 14.056)" fill="#efd3c7"/><path d="M992.081,608.858l-.8-.049a1.22,1.22,0,0,1-.228-.3,1.811,1.811,0,0,0-1.233-1.551,2.639,2.639,0,0,1-.452-2.028c.567.033.284-.377.32-.621.539-.748.229-1.5.018-2.256-.08-.286-.283-.688.108-.808.353-.108.476.317.6.6.264.621.308,1.347.887,1.813a30.8,30.8,0,0,0,1.654,3.045.612.612,0,0,1-.06.784c-.34.46-.67.012-1.045,0,.4.3.862.541.832,1.124C992.556,608.885,992.29,608.8,992.081,608.858Z" transform="translate(-304.033 14.056)" fill="#eec6bc"/><path d="M980.776,583.437a.734.734,0,0,1,.227-.643c.224-.094.41-.3.691-.223.292.156.366.464.51.724.4.351.32.988.79,1.3a1.441,1.441,0,0,1,.257.591c.079.443.481.7.651,1.1.115-.156.02-.34.065-.5a2.547,2.547,0,0,1,.041-.537c.348-.712.591-.4.819.083.089.929.854,1.735.5,2.743-.067.088-.273.017-.262.169.018.259.284.288.451.409a1.226,1.226,0,0,1,.28.959c-.021.219-.189.568-.334.475-.576-.366-.438.431-.765.412-.253-.086-.339-.319-.461-.52-.3-.612-.671-1.185-.923-1.82a18.611,18.611,0,0,0-1.993-3.752A6.394,6.394,0,0,0,980.776,583.437Z" transform="translate(-304.033 14.056)" fill="#e7bab1"/><path d="M992.625,608.643c-.261-.333-.325-.92-1.013-.691-.13.043-.36-.328-.226-.521a.519.519,0,0,1,.792-.185c.17.127.285.49.565.1a.465.465,0,0,0-.044-.665,9.523,9.523,0,0,1-1.509-2.971c-.232-.281-.5-.549-.37-.968a.274.274,0,0,1,.409-.032,2.378,2.378,0,0,1,.566.613c.523.779.929,1.7,2.1,1.672.669.692,1.319,1.392,1.065,2.48-.049.315-.429.442-.442.778l-.553.237c-.367.142-.579.537-.991.6l-.252-.037C992.744,608.906,992.559,608.8,992.625,608.643Z" transform="translate(-304.033 14.056)" fill="#eecfc2"/><path d="M977.975,590a.883.883,0,0,1,.494-.234c.671-.049.413-.387.165-.653-.536-.573-.547-.563-.27-1.346.367.189-.042.536.177.738.2.1.271-.23.307-.2.644.571,1.157-.464,1.8-.132.227.117.348-.483.714-.28a4.223,4.223,0,0,0,1.206,1.857.584.584,0,0,1,.12.238c-.077.281-.323.527-.527.321-.487-.49-1-.229-1.5-.167-1,.123-1.2.581-.542,1.339a1.679,1.679,0,0,1,.439,1.186c0,.464-.228.61-.636.609a.333.333,0,0,1-.327-.186l-.522-.349c-.141-.274-.5-.4-.519-.755.177-.252.382-.479.033-.784-.226-.2-.357-.494-.576-.711A.412.412,0,0,1,977.975,590Z" transform="translate(-304.033 14.056)" fill="#ebbfb8"/><path d="M999.207,586.914c.935.051.866,1.1,1.466,1.479.263.347-.086.373-.255.5-.059.044-.2-.084-.146.016.122.255.209.521-.118.6-.285.068-.342-.3-.472-.413-.084-.171-.2.022-.108-.059.028-.023.043,0,.08.049.173.212.259.426.061.669a.341.341,0,0,1-.245.022c-.526-.154-.439.505-.827.611a4.676,4.676,0,0,1-1.834.085c-.528-.3-.989-.646-.953-1.345.464-.694,1.293-.893,1.907-1.388a2.791,2.791,0,0,0,.681-.592A.844.844,0,0,1,999.207,586.914Z" transform="translate(-304.033 14.056)" fill="#e5beb6"/><path d="M997.37,586.51a1.062,1.062,0,0,1,.672-.1c.392.38.025.488-.222.662-.359.254-.72.518-.707,1.033a1.535,1.535,0,0,1-.736.575,1.564,1.564,0,0,1-.512.159c-.337-.056-.506-.338-.733-.543-.374-.339-.534-.1-.65.245a.465.465,0,0,1-.208.138,1.357,1.357,0,0,1-.5-.087,2.317,2.317,0,0,1-.809-.584c.018-.667.569-.991.924-1.441.376-.334.633-.3.733.236.013.069-.006.221.041.194.107-.06.057-.21.064-.326a3.553,3.553,0,0,0,.683-2.055c.149-.138.3-.232.432.014a3.715,3.715,0,0,1-.188,2.26l.9-.226A.69.69,0,0,0,997.37,586.51Z" transform="translate(-304.033 14.056)" fill="#e8c2b4"/><path d="M973.1,594.785c.017-.243.192-.37.366-.5a20.391,20.391,0,0,1,2.424-.471.477.477,0,0,1,.24-.011.815.815,0,0,0,.677.061.562.562,0,0,1,.237.068c.535.327.361.708.088,1.1.021.324.387.739-.214.9-.52.142-1.052.531-1.558-.057-.07-.082-.031.059-.057.09-.08.1-.011-.027-.043.077-.128.424-.813-.634-.727.282-.5-.065-1.015.289-1.511-.039a.533.533,0,0,1-.261-.473l.01.005C972.963,595.5,973.616,595.327,973.1,594.785Z" transform="translate(-304.033 14.056)" fill="#eac2b9"/><path d="M972.765,595.816l.393.44a.233.233,0,0,1,.115.316c-.308.518,0,.672.429.77a.334.334,0,0,1,.036.223c.059.422.56.017.666.351.17.626.834.949.978,1.591.018.2.007.4.013.6a.5.5,0,0,1-.058.228c-1.366-.289-2.084-1.463-3.08-2.257a.526.526,0,0,1-.2-.585A5.831,5.831,0,0,1,972.765,595.816Z" transform="translate(-304.033 14.056)" fill="#ebc4b6"/><path d="M981.42,584.167a11.213,11.213,0,0,1,2.061,3.919c.018.574.468.983.579,1.52a.214.214,0,0,1-.141.1c-.332.029-.483-.183-.588-.452-.107.161.218.549-.267.51a.426.426,0,0,1-.167-.067,2.684,2.684,0,0,1-.862-1.873c0-.287.121-.631-.337-.7q-.1-.009-.123-.078c-.016-.045-.018-.073-.005-.084.388-.243-.048-.53.042-.789.343-.4-.107-.672-.175-1S981.022,584.512,981.42,584.167Z" transform="translate(-304.033 14.056)" fill="#e5aaa0"/><path d="M994.667,603.49c.255.6.765,1.1.8,1.8-.166.185-.068.7-.578.46a9.544,9.544,0,0,0-1.728-1.488c-.511-.446-.553-1.173-1-1.658a13.433,13.433,0,0,0-1.191-2.006,1.4,1.4,0,0,1-.266-.491c-.06-.2-.2-.446,0-.611.218-.179.425.023.559.169a26.138,26.138,0,0,1,1.959,2.254,5.448,5.448,0,0,1,.824,1.459C994.235,603.948,994.421,603.69,994.667,603.49Z" transform="translate(-304.033 14.056)" fill="#eec8bc"/><path d="M994.667,603.49c-.422.224.311.708-.121.809-.608.142-.495-.49-.666-.814a15.626,15.626,0,0,0-3.11-3.827l1.594,2.821c-.533.28-.74-.187-.934-.481a6.679,6.679,0,0,1-1.173-2.215,1.915,1.915,0,0,0-.681-1.084c-.123-.25-.21-.491.156-.617a2.32,2.32,0,0,1,1.106.825c.941,1.156,2.205,2.019,3.005,3.3A3.574,3.574,0,0,1,994.667,603.49Z" transform="translate(-304.033 14.056)" fill="#e9beb0"/><path d="M988.675,585.2l.15-.116c.136.085.129.211.1.344a6.394,6.394,0,0,0-.182,2.08,2.485,2.485,0,0,1-.187,1.071.329.329,0,0,1-.234.093,1.759,1.759,0,0,1-.87-1.225c-.028-.28-.257-.4-.455-.544a.8.8,0,0,1-.241-.3c-.08-.245-.084-.505-.144-.755a.948.948,0,0,1,.058-.752c.133-.109.364.061.445-.288.234-1.009.3-1.006,1.054-.241C988.373,584.752,988.332,585.129,988.675,585.2Z" transform="translate(-304.033 14.056)" fill="#edc9be"/><path d="M977.975,590l.1.41a.684.684,0,0,1,.029.22.772.772,0,0,0,.228.609.929.929,0,0,1,.279.685c.165.268.515.43.468.819a12.449,12.449,0,0,1-2.173-1.115c-.071-.461-.675-.347-.806-.744a1.145,1.145,0,0,1-.07-.781.221.221,0,0,1,.214-.121c.216.219.347.539.672.626.232.061.528.163.641-.163s-.136-.7-.351-.644c-1.041.277-1.08-.729-1.573-1.137a.385.385,0,0,1-.111-.293C976.282,589.01,977.17,589.441,977.975,590Z" transform="translate(-304.033 14.056)" fill="#e8baaf"/><path d="M984.082,581.163c2.292-.4,3.452.264,4.218,2.413-.193.006-.2.383-.473.235a4.4,4.4,0,0,1-1.359-1.684c-.33.6-.709.563-1,.03s-1-.3-1.334-.736A.381.381,0,0,1,984.082,581.163Z" transform="translate(-304.033 14.056)" fill="#e6bcac"/><path d="M999.619,589.767c.2-.322-.051-.577-.148-.875.35.008.354.49.8.458-.681-.712.312-.6.4-.957.605.279.945.69.7,1.4a1.4,1.4,0,0,0-.1,1.141c.063.342.051.732-.51.5C1000.286,590.938,999.682,590.538,999.619,589.767Z" transform="translate(-304.033 14.056)" fill="#e5c9bb"/><path d="M1000.854,592.674c.181.846-.731.875-1.022,1.368-.084.209-.266.23-.455.237a.972.972,0,0,1-.612-.273,1.6,1.6,0,0,1-.238-.312c-.179-.375-.631-.582-.659-1.052a2.345,2.345,0,0,1,2.747-.046A.612.612,0,0,1,1000.854,592.674Z" transform="translate(-304.033 14.056)" fill="#e4bcb2"/><path d="M989.572,583.688c.963-1.529,2.126-2,3.513-1.423a.288.288,0,0,1,.263.241,2.894,2.894,0,0,1-.953,1.161c-.472.123-.973.385-1.293-.254-.138-.278-.236-.55.187-.667a4.739,4.739,0,0,0-1.063.8A.793.793,0,0,1,989.572,583.688Z" transform="translate(-304.033 14.056)" fill="#e4b7a6"/><path d="M976.041,584.743c-.07.088-.219.206-.088.294.669.447.718.766.037,1.2a2.94,2.94,0,0,0-1.153,1.487c-.586-.307-.51-.8-.323-1.285a5.637,5.637,0,0,1,.629-1.067c-.168.162-.307.364-.5.066A2.144,2.144,0,0,1,976.041,584.743Z" transform="translate(-304.033 14.056)" fill="#e7c5b8"/><path d="M980.416,607.838c-1.05-.23-1.569-1.267-2.536-1.668-.346-.143-.1-.813-.162-1.238l.129.007c.168.051.193.243.324.329a.4.4,0,0,1,.044-.575c.377-.1.8-.45,1.054.177.045.571-.4,1.227.292,1.686.233.414.7.595.969.972C980.571,607.661,980.587,607.784,980.416,607.838Z" transform="translate(-304.033 14.056)" fill="#eac2b2"/><path d="M979.6,593.1l.233.023c.407.174.864-.034,1.268.167a.317.317,0,0,1,.08.553,5.922,5.922,0,0,1-2.389.114c-.649-.129-1.313.282-1.958-.045h0c-.284.2-.539.066-.795-.067h0a.271.271,0,0,1-.358-.137c-.04-.093.039-.148.123-.179a11.166,11.166,0,0,1,2.636-.219C978.827,593.254,979.244,593.344,979.6,593.1Z" transform="translate(-304.033 14.056)" fill="#e6b5a3"/><path d="M974.642,585.441l.58-.049c-.139.785-1.086,1.441-.385,2.335-.075.382-.41.416-.693.52a.7.7,0,0,1-.379-.087A2.521,2.521,0,0,1,974.642,585.441Z" transform="translate(-304.033 14.056)" fill="#ead2bf"/><path d="M979.664,599.627c-.515,0-.731.626-1.26.594a.927.927,0,0,1-.012-.36c-.1-.328-.177-.621-.648-.574-.411.041-.584-.226-.517-.634a2.723,2.723,0,0,1,1.348-.75,2.881,2.881,0,0,0,1.44-.762.724.724,0,0,1,.374-.169.562.562,0,0,1,.269.091.824.824,0,0,1,.2.21.5.5,0,0,1,0,.543,3.48,3.48,0,0,1-1.613.694c-.2.095-.547.044-.526.384.016.263.25.308.487.262a.436.436,0,0,1,.244.04A.412.412,0,0,1,979.664,599.627Z" transform="translate(-304.033 14.056)" fill="#eab7aa"/><path d="M980.213,599.686a.473.473,0,0,1,.079-.127,1.089,1.089,0,0,1,.444-.667c.162-.144.329-.282.493-.425,1.117-.749,1.943-1.881,3.2-2.443.534.426.1.717-.143,1.035-.6.636-1.377,1.066-1.956,1.723a1.444,1.444,0,0,1-.189.2c-.5.291-.841.827-1.47.921C980.451,599.938,980.236,600.037,980.213,599.686Z" transform="translate(-304.033 14.056)" fill="#dd9480"/><path d="M993.287,604.162c.923.2,1.279,1.041,1.857,1.631.553.171.126.673.325.963l-.2.65c-.149-.018-.254.165-.415.088A3.879,3.879,0,0,0,993.745,605c-.286-.022-.259-.316-.4-.46A.49.49,0,0,1,993.287,604.162Z" transform="translate(-304.033 14.056)" fill="#eed5c6"/><path d="M973.765,588.16l.232.024a1.022,1.022,0,0,1,.227.044.637.637,0,0,0,.451.017l.117.011,1.449,1.73-.144.121c-.2.034-.409-.054-.6.066a.769.769,0,0,1-.474.1A5.28,5.28,0,0,1,973.765,588.16Z" transform="translate(-304.033 14.056)" fill="#e6baad"/><path d="M993.743,582.162c.537.125.714.556.861,1.014a1.76,1.76,0,0,0-.825,1.1c-.259.393-.5.808-1.005.937a.512.512,0,0,1-.3-.238c-.126-.643.327-1.081.583-1.581a3.352,3.352,0,0,0,.419-.8A.775.775,0,0,1,993.743,582.162Z" transform="translate(-304.033 14.056)" fill="#e6bdaf"/><path d="M980.416,607.838l.024-.269c.158-1.157.977-1.986,1.493-2.964.192-.366.448-.228.624.075a1.233,1.233,0,0,1-.107.664c-.047.589-.522.983-.692,1.517a1.914,1.914,0,0,1-.81,1.012Z" transform="translate(-304.033 14.056)" fill="#eecdbd"/><path d="M984.082,581.163l.124.177a9.042,9.042,0,0,0-1.548.778c-.27.126-.28.352-.268.612.014.29.09.639-.366.691l-.462-.844c-.225-.09-.109-.261-.1-.407.544-.712,1.438-.848,2.148-1.29C983.825,580.749,984.023,580.9,984.082,581.163Z" transform="translate(-304.033 14.056)" fill="#e3b6a4"/><path d="M984.869,607.286c-.505.144-.841.639-1.4.672-.275-.274.009-.483.08-.718a9.972,9.972,0,0,0,.457-.949c.145-.228.269-.48.576-.533a2.123,2.123,0,0,1,.741.739C985.459,606.926,985.034,607.03,984.869,607.286Z" transform="translate(-304.033 14.056)" fill="#eecbbc"/><path d="M997.109,587.948c-.368-.294-.223-.209-.085-.445.268-.456.909-.525,1.018-1.089a1.66,1.66,0,0,1,1.165.5l-.7.355A1.775,1.775,0,0,1,997.109,587.948Z" transform="translate(-304.033 14.056)" fill="#e9cbbb"/><path d="M975.8,593.524c-.1.237.13.23.235.316-.245.521-.651.357-1.076.3-.348-.045-.6.317-.967.386-.309.057-.375-.112-.524-.241A2.919,2.919,0,0,1,975.8,593.524Z" transform="translate(-304.033 14.056)" fill="#e7bfac"/><path d="M980.213,599.686c.824.257,1.143-.635,1.788-.785a.323.323,0,0,1,.1.4,5.442,5.442,0,0,1-1.72,1.38,1.688,1.688,0,0,0-.907.411c-.207.158-.41.136-.449-.189A4.348,4.348,0,0,1,980.213,599.686Z" transform="translate(-304.033 14.056)" fill="#e3aa9b"/><path d="M988.705,607.779c-1.071-.332-1.575-1.2-1.648-2.826.011-.186-.229-.387.034-.557a1,1,0,0,1,.579.229.694.694,0,0,1,.245.294.7.7,0,0,1,.024.254c-.047.522-.335,1.072.18,1.528a5.61,5.61,0,0,1,.513.657A.587.587,0,0,1,988.705,607.779Z" transform="translate(-304.033 14.056)" fill="#e8bcaa"/><path d="M993.843,602.21c-.6-.072-.665-.69-1.015-1.021-.746-.7-1.443-1.461-2.16-2.2a.252.252,0,0,1,.285-.24,7.9,7.9,0,0,0,1.72,1.749c.332.136.634.3.617.728Z" transform="translate(-304.033 14.056)" fill="#e4b19c"/><path d="M989.972,606.941c1.122-.037,1.015.951,1.328,1.591-.141.231-.345.186-.551.125-.151-.045-.171-.016-.145.212-.392-.016-.512-.387-.762-.587a1.6,1.6,0,0,0,.081-1.09A.569.569,0,0,1,989.972,606.941Z" transform="translate(-304.033 14.056)" fill="#ebc0b2"/><path d="M990.089,607.084c.061.429.455.926-.247,1.2-.483.067-.784-.277-1.137-.5l-.248-.306c.187-.2.9.019.5-.652a.3.3,0,0,1,.172-.457.4.4,0,0,1,.473.2C989.743,606.761,989.8,607.027,990.089,607.084Z" transform="translate(-304.033 14.056)" fill="#eccab7"/><path d="M977.718,604.932c-.83-1.145-.32-2.1.427-3.024a.385.385,0,0,1,.311.216c.181.534-.155.951-.367,1.367a.852.852,0,0,0,.073,1.008.385.385,0,0,1-.408.435Z" transform="translate(-304.033 14.056)" fill="#eac4b0"/><path d="M975.224,600.173a.611.611,0,0,1,.037-.532.553.553,0,0,1,.735-.2,2.35,2.35,0,0,0,1.87.609c.131.213-.082.31-.153.455a3.49,3.49,0,0,1-2,0A.6.6,0,0,0,975.224,600.173Z" transform="translate(-304.033 14.056)" fill="#e6b8a4"/><path d="M981.42,584.167c-.127.672.421,1.175.454,1.807.011.2.117.509-.261.2-.14-.956-1.058-1.674-.837-2.74C981.276,583.428,981.324,583.818,981.42,584.167Z" transform="translate(-304.033 14.056)" fill="#de9883"/><path d="M995.587,602.242c.385-.536.812.2,1.207-.04a1.658,1.658,0,0,1,1.062.1l.651.167c-.02.315-.318.436-.464.663C997.267,602.721,996.329,602.75,995.587,602.242Z" transform="translate(-304.033 14.056)" fill="#e3b9a0"/><path d="M978.375,602.185l-.23-.277a3.1,3.1,0,0,1,.875-1c.244.259.331.012.476-.131.208-.2.423-.482.752-.162-.313.1-.184.252-.05.407A3.048,3.048,0,0,1,978.375,602.185Z" transform="translate(-304.033 14.056)" fill="#e9b8aa"/><path d="M1000.854,592.674l-.163.122c-.274-.553.167-.891.389-1.294.146-.312,0-.607-.05-.909-.051-.334-.108-.68.342-.8a3.84,3.84,0,0,0,.173,1.159A1.431,1.431,0,0,1,1000.854,592.674Z" transform="translate(-304.033 14.056)" fill="#e2b79f"/><path d="M980.948,607.873a3.493,3.493,0,0,1,.764-1.123l.132,0a1.557,1.557,0,0,1,.872.746c.055.348-.22.405-.447.505Z" transform="translate(-304.033 14.056)" fill="#f0d5c7"/><path d="M989.572,583.688c.185-.1.328-.311.585-.222a.742.742,0,0,1-.094.494,1.6,1.6,0,0,1-.137.218,1.079,1.079,0,0,0-.2,1.024c.071.421-.074.725-.576.709a.539.539,0,0,1-.351-.547l.028-.278A5.423,5.423,0,0,1,989.572,583.688Z" transform="translate(-304.033 14.056)" fill="#e0a08e"/><path d="M999.364,594.155l.468-.113c.593.548,1.493.809,1.653,1.763-.54.293-.607-.287-.883-.479C1000.315,594.8,999.415,594.927,999.364,594.155Z" transform="translate(-304.033 14.056)" fill="#e7c2ae"/><path d="M993.29,601.23q-.309-.363-.617-.728a2.39,2.39,0,0,1,2.146,1.388A6.879,6.879,0,0,0,993.29,601.23Z" transform="translate(-304.033 14.056)" fill="#edcaba"/><path d="M975.025,590.27l.422-.354c.459.1.6.478.725.861s.794.308.731.855A8.338,8.338,0,0,1,975.025,590.27Z" transform="translate(-304.033 14.056)" fill="#e7baaa"/><path d="M984.869,607.286c-.07-.335.412-.425.337-.762a4.172,4.172,0,0,1,.78-.882c.168-.076.338-.176.471.052A2.569,2.569,0,0,1,984.869,607.286Z" transform="translate(-304.033 14.056)" fill="#e2ab90"/><path d="M995.842,584.633a.408.408,0,0,0-.45.093l-.129-.015c-.546-.285-.064-.9-.4-1.252a.476.476,0,0,1-.01-.254C995.769,583.274,995.813,583.949,995.842,584.633Z" transform="translate(-304.033 14.056)" fill="#eccfbc"/><path d="M999.207,602.391l-.436.1c-.07.023-.113.014-.128-.027s-.016-.073,0-.086l1.9-1.588A4.353,4.353,0,0,1,999.207,602.391Z" transform="translate(-304.033 14.056)" fill="#eaccb7"/><path d="M994.852,583.205l.123.149c-.022.217-.1.557-.3.466-.394-.179-.23.2-.359.265a.462.462,0,0,1-.612.092c-.108-.7.235-1,.9-1Z" transform="translate(-304.033 14.056)" fill="#e9cabd"/><path d="M988,583.81c.14-.028-.179-.644.3-.234l.375,1.626c-.571.351-.4-.323-.625-.452C988.046,584.436,987.843,584.132,988,583.81Z" transform="translate(-304.033 14.056)" fill="#e4b19e"/><path d="M973.1,594.785c.279,0,.729.123.623.313a1.2,1.2,0,0,1-.951.723A.957.957,0,0,1,973.1,594.785Z" transform="translate(-304.033 14.056)" fill="#e8beac"/><path d="M980.419,586.477c-.332-.455-1.094-.546-1.088-1.287.394.229.863.35,1.123.774C980.4,586.133,980.774,586.329,980.419,586.477Z" transform="translate(-304.033 14.056)" fill="#e2a592"/><path d="M980.419,586.477l.035-.513,1.116,1,.128.162C981.159,587.134,980.831,586.722,980.419,586.477Z" transform="translate(-304.033 14.056)" fill="#e6b3a2"/><path d="M995.469,606.756c-.435-.21.034-.726-.325-.963.136-.15-.189-.594.322-.505A1.875,1.875,0,0,1,995.469,606.756Z" transform="translate(-304.033 14.056)" fill="#e8c1ab"/><path d="M982.269,608.005c0-.292.329-.2.433-.368l.087-.076a3.274,3.274,0,0,1,.646-.251.46.46,0,0,1,.23.011l-.2.637A2.4,2.4,0,0,1,982.269,608.005Z" transform="translate(-304.033 14.056)" fill="#e8bda8"/><path d="M986.457,605.694a.4.4,0,0,0-.4.1c-.276-.363.075-.653.111-.981.149-.262.213-.633.658-.52.16.219.042.424-.033.631Z" transform="translate(-304.033 14.056)" fill="#e7b4a1"/><path d="M980.9,599.049l-.612.51-.628.068-.359-.43c.382-.332.894-.126,1.312-.316a.448.448,0,0,1,.249.045Z" transform="translate(-304.033 14.056)" fill="#ecbeb1"/><path d="M994.856,607.494a.4.4,0,0,1,.415-.088,1.59,1.59,0,0,1-.753.849C994.251,607.832,994.678,607.718,994.856,607.494Z" transform="translate(-304.033 14.056)" fill="#e7c7ae"/><path d="M990.6,608.869l-.2-.4c.118,0,.235-.008.352,0,.182.014.363.039.545.06l-.024.277A.576.576,0,0,1,990.6,608.869Z" transform="translate(-304.033 14.056)" fill="#e5b09c"/><path d="M1001.294,599.394l.268.017c.054.579-.369.84-.75,1.13Z" transform="translate(-304.033 14.056)" fill="#e5bba1"/><path d="M992.974,609.093c.324-.21.442-.762.991-.6A.812.812,0,0,1,992.974,609.093Z" transform="translate(-304.033 14.056)" fill="#e8c9b0"/><path d="M997.37,586.51c-.2.41-.438.655-.816.157C996.8,586.479,997.095,586.548,997.37,586.51Z" transform="translate(-304.033 14.056)" fill="#e4b69e"/><path d="M977.713,600.5l.172-.367c.223-.284.459-.509.823-.193l-.3.28Z" transform="translate(-304.033 14.056)" fill="#e5af9a"/><path d="M981.466,582.17l.1.407c-.1.284-.28.381-.559.217C981,582.467,981.252,582.333,981.466,582.17Z" transform="translate(-304.033 14.056)" fill="#e3b7a3"/><path d="M975.224,600.173c.38-.21.543-.1.492.332l-.379-.167Z" transform="translate(-304.033 14.056)" fill="#e3ae96"/><path d="M993.743,582.162a.4.4,0,0,1-.166.406.228.228,0,0,1-.266-.028l-.226-.275Z" transform="translate(-304.033 14.056)" fill="#e3ae98"/><path d="M986.795,604.924l.042-.525a.175.175,0,0,1,.155-.153.213.213,0,0,1,.136.179q-.035.264-.071.528Z" transform="translate(-304.033 14.056)" fill="#f3ddd7"/><path d="M992.625,608.643a.375.375,0,0,1,.1.413l-.641-.2Z" transform="translate(-304.033 14.056)" fill="#e5b9a2"/><path d="M997.856,602.306a1.244,1.244,0,0,1-1.062-.1,5.554,5.554,0,0,1-1.87-1.461c-.217-.271-.811-.469-.369-1.062.112-.151-.19-.451-.516-.505-.859-.142-1.032-1-1.524-1.268l2.652.014c-.085.571.257.858.737.8a.605.605,0,0,1,.715.422c.088.2-.07.383-.206.487-.294.225-.5-.029-.714-.2-.066-.051-.145-.083-.461-.261A17.94,17.94,0,0,0,997.856,602.306Z" transform="translate(-304.033 14.056)" fill="#f0d9cf"/><path d="M999.364,594.155c.288.522,1.161.425,1.237,1.171l-.511-.151c-.234.272.479.469.055.768-.339.239-.463-.112-.69-.182a2.531,2.531,0,0,0-.9.054,1.563,1.563,0,0,1-.939-.408.9.9,0,0,1-.134-.516,1.416,1.416,0,0,1,.459-.963,1.225,1.225,0,0,1,.931-.073Z" transform="translate(-304.033 14.056)" fill="#efd7cb"/><path d="M997.662,595.336c.32.118.7.126.893.479-1.131-.041-.988.973-1.3,1.6-.045.091.09.245-.065.4a2.4,2.4,0,0,1-2.023.109,1.269,1.269,0,0,1,.7-.338c.034-.215.376-.143.362-.4-.607-.706-.405-1.568.452-1.73C996.99,595.393,997.294,594.941,997.662,595.336Z" transform="translate(-304.033 14.056)" fill="#f0d9cf"/><path d="M982.035,587.824l1.038,1.828c.015.113.065.229-.02.337-.222.167-.345-.109-.527-.119a1.81,1.81,0,0,1-1.163-1.971l-.1-.6Z" transform="translate(-304.033 14.056)" fill="#edc6bc"/><path d="M974.119,588.328l-.122-.144.84-.457c.141.19.443.393-.045.529h0C974.563,588.248,974.352,588.387,974.119,588.328Z" transform="translate(-304.033 14.056)" fill="#e7c5b8"/><path d="M993.094,597.2c-.493-.246-1.12.036-1.566-.4l.024-.133a3.156,3.156,0,0,1,2.886-.384.729.729,0,0,1,.263.288c.042.6-.718.258-.812.7h0C993.616,597.333,993.368,597.127,993.094,597.2Z" transform="translate(-304.033 14.056)" fill="#e3c2b4"/><path d="M991.528,596.807a.7.7,0,0,0,.015,1.108c-.639.239-1.026-.323-1.547-.316-.4-.129-.524-.556-.121-.542.578.021.334-.213.33-.45,0-.087.083-.161.153-.224a.543.543,0,0,1,.529-.035c.226.128.536.14.64.445Z" transform="translate(-304.033 14.056)" fill="#e5c0b2"/><path d="M990.491,596.445c-.027.162-.454.572-.637.73-.217.187.079.284.142.424l.957,1.154-.285.24-.993-.872a.358.358,0,0,1-.379-.086.268.268,0,0,1,.04-.249c.385-.257.489.092.709.367-.234-.5-.818-.6-.924-1.1.069-.566.757-.395.96-.8C990.26,596.227,990.43,596.22,990.491,596.445Z" transform="translate(-304.033 14.056)" fill="#dca895"/><path d="M993.889,597.275c-.082-.585.537-.34.722-.609.349-.358.683-.123.988.056s.642.346.962.52c.12.173.167.384-.126.28-.235-.083-.379.108-.571.059a.659.659,0,0,0-.86-.28A1.043,1.043,0,0,1,993.889,597.275Z" transform="translate(-304.033 14.056)" fill="#e9ccbd"/><path d="M993.094,597.2c.288-.229.536-.025.794.073C993.6,597.507,993.352,597.3,993.094,597.2Z" transform="translate(-304.033 14.056)" fill="#e9ccbd"/><path d="M993.287,604.162l.239.288c-.486.3-.684-.147-.866-.4-.635-.9-1.47-1.627-2.078-2.545.3.371.682.717.292,1.248-.009.358.388.583.316.962-.637-.073-.587-.664-.752-1.059a4.732,4.732,0,0,0-.711-1.5c.15,1.225,1.034,2.239.069,3.241-.4-.112-.4-.415-.357-.736.14-.253.022-.44-.16-.611-.232-.455-.28-1.034-.856-1.256-.28-.288-.391-.513.084-.765s.9-.62.723-1.282c.232-.287.575-.532.373-.985.009-.04.019-.079.029-.119.453.1.63.344.8.831.394,1.135.756,2.355,1.934,3.013C992.868,602.932,992.849,603.673,993.287,604.162Z" transform="translate(-304.033 14.056)" fill="#edc2b8"/><path d="M990.089,607.084c-.441.034-.492-.533-.945-.582-.093.452.554.792.322,1.131-.322.469-.642-.231-1.009-.16l-.6-.722c.077-.435-.37-1.014.349-1.274-.207-.082-.365-.2-.337-.455h0a5.015,5.015,0,0,1,.011-.949.711.711,0,0,1,.067-.239c.343-.222.2-1.393,1.09-.559.1.553.738.961.447,1.622a4.726,4.726,0,0,0,.486,2.045Z" transform="translate(-304.033 14.056)" fill="#f0d4c7"/><path d="M989.486,604.9l-.658-1.659a1.989,1.989,0,0,1-.267-1.492c.828.068.68.762.818,1.273.152.153.4.268.219.553a1.029,1.029,0,0,0,.2.818.626.626,0,0,1,.046.776Z" transform="translate(-304.033 14.056)" fill="#ebbaae"/><path d="M988,583.81a.913.913,0,0,1,.051.94c-.2-.176-.287-.472-.6-.556-.249.424-.092.9-.174,1.342-.378.138-.242-.513-.6-.375-.168.117-.1.286-.1.442-.163.612-.467.219-.725.079-.27.883.931.245.878.89a15.507,15.507,0,0,1,.447,3.15.451.451,0,0,1-.269.431c-.975-.467-.58-1.455-.832-2.333-.251.249-.324.615-.664.6a.313.313,0,0,1-.2-.316c.183-.984-.594-1.768-.565-2.719-.054-.212.054-.558-.3-.548-.266.008-.26.282-.234.5l.1.409c-.575.268-.886-.07-1.157-.5-.073-.184-.145-.368-.218-.553.01-.1-.081-.243-.066-.255.781-.634.2-1.168-.116-1.724a.81.81,0,0,1-.116-.716c.5-.344.914-.921,1.658-.656.722.144,1.524.154,1.676,1.12.381-.176.273-.415.289-.621.014-.17.109-.315.3-.269.1.024.239.15.244.236C986.759,582.725,987.565,583.147,988,583.81Z" transform="translate(-304.033 14.056)" fill="#e8c5ba"/><path d="M985.456,588.392c.284-.289.3-.616-.077-1.162.833.429,1.344.651,1.022,1.544-.154.427.2.943.506,1.347a11.606,11.606,0,0,1-.279,1.862,1.373,1.373,0,0,1-.629.248.532.532,0,0,1-.27-.071c-.368-.254-.475-.7-.747-1.024a.846.846,0,0,1-.226-.673c.2-.194-.169-1.076.659-.532.088.058.22-.207.2-.355-.039-.309-.119-.613-.181-.919C985.285,588.557,985.3,588.469,985.456,588.392Z" transform="translate(-304.033 14.056)" fill="#ecccbe"/><path d="M982.548,582c.182.683.879,1.1.916,1.88.02.411.426.97-.463.481-.161-.088-.062.235-.155.334l-.822-1.271c.285-.255.2-.523.09-.841C982,582.244,982.085,581.953,982.548,582Z" transform="translate(-304.033 14.056)" fill="#e7bfb6"/><path d="M983.064,585.245q.577.252,1.157.5c-.047.293-.094.586-.16,1.005C983.7,586.17,983.117,585.9,983.064,585.245Z" transform="translate(-304.033 14.056)" fill="#e7bfb6"/><path d="M984.014,589.6a1.691,1.691,0,0,1-.533-1.519q.517.912,1.033,1.825c-.17.224-.306.083-.443-.043A.465.465,0,0,1,984.014,589.6Z" transform="translate(-304.033 14.056)" fill="#e3a397"/><path d="M985.456,588.392l-.02.265c-.781.235-.67-.411-.591-.734.058-.238.238.112.374.181Z" transform="translate(-304.033 14.056)" fill="#e6b1a6"/><path d="M984.132,589.747a.4.4,0,0,0,.383.164q.12.276.241.552l.464.577C984.377,591.014,984.021,590.591,984.132,589.747Z" transform="translate(-304.033 14.056)" fill="#e5aaa0"/><path d="M984.124,585.338c-.209-.32-.051-.59.244-.6.464-.018.382.342.286.647l-.3-.393Z" transform="translate(-304.033 14.056)" fill="#e7bfb6"/><path d="M990.874,602.749c.14-.753-.687-1.15-.713-2.071.818,1.217,1.865,1.983,2.555,3.073.185.292.363.674.81.7l.219.553c-.539-.043-1.243.682-1.5-.584A2.551,2.551,0,0,0,990.874,602.749Z" transform="translate(-304.033 14.056)" fill="#eecbbf"/><path d="M981.018,593.344a1.417,1.417,0,0,1-1.187-.225c.564-.159.654-.769.278-1.3-.218-.3-.7-.423-.649-.935.069-.7.242-1,.975-.961.628.034,1.416-.675,1.9.291l.308-.2a1.077,1.077,0,0,1,.557.3c.167.166.416.326.235.617-.16.255-.4.231-.655.149-.442-.143-.954-.534-1.142.3-.294.373-.59.326-.931-.051a1.973,1.973,0,0,0,1.264.971c.287.119.624.258.569.646s-.443.251-.69.323A2.1,2.1,0,0,1,981.018,593.344Z" transform="translate(-304.033 14.056)" fill="#edc6bc"/><path d="M981.592,591.39c-.149-.2-.368-.407-.084-.634a1.038,1.038,0,0,1,1.051-.066c.237.094.395.389.786.207-.1-.4-.521-.558-.7-.883l-.12-.144.527.048a1.19,1.19,0,0,1,.772.507c.214.278.446.541.657.821a5.873,5.873,0,0,1,.415.694c.252.481.13.748-.447.729a5.058,5.058,0,0,1-2.765-1.044A.283.283,0,0,1,981.592,591.39Z" transform="translate(-304.033 14.056)" fill="#edcfc0"/><path d="M978.608,591.928l-.6-.72c.1-.238-.076-.446-.074-.674l.143-.12c.6.174.761.744.977,1.205C979.238,592.021,978.668,591.685,978.608,591.928Z" transform="translate(-304.033 14.056)" fill="#e8bcb5"/><path d="M995.835,588.768a.391.391,0,0,1,.409-.1c.011.239-.339.258-.31.508a2.417,2.417,0,0,0,.967,1.153c.236.177.069.3-.054.437-.99.209-.99.209-.973-.865-.367.512-.068.929.333,1.338.129.132.235.353.122.513-.14.2-.314.018-.486-.041-.241-.082-.025.087-.036.129-.107.4-.808.265-.727.819-.08.508-.6.553-.887.836a2.033,2.033,0,0,1-.488.181,1.552,1.552,0,0,1-1.125-.219c.025-.652-.3-.868-.9-.712-.509.131-.751-.123-.859-.581a1.5,1.5,0,0,1,.287-.6,1.435,1.435,0,0,1,1.068-.5c.246-.016.533.037.688-.2.436-.674.677-.128.926,0-.125-.2-.645-.495-.241-.9.289-.288.212-.779.634-.951.213-.087-.014-.27.069-.391l.142-.12c.062,0,.162.033.176.012.071-.1.322.4.288-.1-.012-.171.236-.117.37-.043C995.435,588.5,995.588,588.707,995.835,588.768Z" transform="translate(-304.033 14.056)" fill="#e6b8b0"/><path d="M1001.08,591.5c.152.516-.355.834-.389,1.294-.116.025-.3.109-.338.066-.765-.891-1.636-.2-2.458-.179a.4.4,0,0,1-.234-.083c-.226-.262-.116-.429.14-.589a2.243,2.243,0,0,1,.95-.334c.332-.146.122-.351.059-.54-.1-.3-.183-.582.314-.353,0,0,.056.1.028,0-.061-.2-.078-.43.131-.468.28-.051.4.235.537.416-.077-.367-.849-.549-.322-1.111l.121.143Z" transform="translate(-304.033 14.056)" fill="#e8cbc0"/><path d="M999.5,589.624c-.2.761.721.966.861,1.667-.52-.16-.609-.688-1.023-.85-.327.442.49.438.277.866-.346.062-.363-.432-.708-.47.027.386,1.091.966-.147,1.125-.34-.4-.971-.18-1.3-.6-.067-.087-.086-.093-.067.007.082.455-.115.615-.46.322-.264-.223-.644-.546-.2-.972a.389.389,0,0,0,.169-.384,3.968,3.968,0,0,1,1.409-.167c.678.126.583-.4.685-.586C999.274,589.055,999.344,589.547,999.5,589.624Z" transform="translate(-304.033 14.056)" fill="#e7c5bc"/><path d="M995.934,589.178c-.154-.327.218-.332.31-.508l.865-.722,1.394-.679c-.341.853-1.289.934-1.881,1.471A4.675,4.675,0,0,1,995.934,589.178Z" transform="translate(-304.033 14.056)" fill="#e2aea1"/><path d="M994.248,588.629c.133.228.422.359.431.657-.226.23-.373-.161-.575-.047.526.674-.476.551-.5.965-.034.527.483.687.633,1.1-.153.165-.25-.034-.349-.09-.268-.15-.495-1-.8-.024-.294-.095-.461.32-.849.137-.35-.165-.761.112-1.071.386-.2.272-.349.6-.771.568-.167-.481.266-.85.24-1.3.5-1.077,1.781-1.279,2.436-2.183a7.618,7.618,0,0,1,.786-.327A.4.4,0,0,1,994.248,588.629Z" transform="translate(-304.033 14.056)" fill="#ecc3ba"/><path d="M993.7,584.177l.554-.218c.293.534-.2.886-.321,1.323a10.082,10.082,0,0,0-.349,1.134c-.054.37.253-.014.33.129l.109.063c-.151.605-.907.838-.936,1.519.284.457-.148.577-.371.794-.214.13-.459.192-.681.308s-.477.41-.738.095c-.2-.245-.09-.537.024-.8a1.591,1.591,0,0,1,.4-.629,1.423,1.423,0,0,0,.531-1.877c-.111-.245-.088-.621.381-.318.029-.188-.142-.445.181-.533Z" transform="translate(-304.033 14.056)" fill="#edcdbf"/><path d="M995.392,584.726a1.561,1.561,0,0,1-.574,1.951c-.268-.04-.341-.321-.544-.44a1.327,1.327,0,0,1,1.114-1.512Z" transform="translate(-304.033 14.056)" fill="#eccfbc"/><path d="M995.835,588.768c-.332.048-.557-.221-.918-.313l.364.611-.106.091-.785-.648c-.244-.4.143-.508.337-.67.258-.216.374.078.507.22C995.445,588.285,995.635,588.531,995.835,588.768Z" transform="translate(-304.033 14.056)" fill="#ecc3ba"/><path d="M994.335,586.1l.483.576c.566.6-.357.536-.243.871-.669-.15.426-.989-.551-.94h0c-.167-.037-.277-.152-.209-.306C993.906,586.088,994.119,586.064,994.335,586.1Z" transform="translate(-304.033 14.056)" fill="#edcdbf"/><path d="M992.489,588.874c.215-.236.6-.337.6-.747.427-.279.443.388.772.335-.075.3-.381.328-.579.482-.3-.169-.423.1-.614.239s-.437.46-.625-.022C992.168,589.029,992.282,588.879,992.489,588.874Z" transform="translate(-304.033 14.056)" fill="#e7baa9"/><path d="M973.714,597.505c-.236-.557-.907.521-.952-.212a3.513,3.513,0,0,1,.4-1.037c.423.11.77-.266,1.268-.121.276.081-.132-.393-.057-.643.314.043.343.5.7.487.262-.2-.1-.374-.009-.714.267.722.811.712,1.306.677.546-.039.755-.408.642-.946.424.022.615.362.858.629a1.3,1.3,0,0,1,.274.513c.022.422-.3.55-.6.561-1.035.039-2,.553-3.068.387C974.157,597.038,973.809,597.088,973.714,597.505Z" transform="translate(-304.033 14.056)" fill="#efcbc2"/><path d="M977.729,595.856,977,595c-.084-.147-.317-.28-.171-.463.247-.309.268-.292,0-.625l2.021-.218c.05.453.579.561.7.967.02.418-.305.327-.541.369A1.279,1.279,0,0,0,977.729,595.856Z" transform="translate(-304.033 14.056)" fill="#e9beb4"/><path d="M976.037,593.84l.795.067C976.5,594.653,976.285,594.062,976.037,593.84Z" transform="translate(-304.033 14.056)" fill="#e9beb4"/><path d="M975.935,599.569l-.674.073c-.049-.7-1.1-.856-.92-1.682.391-.566,1.026-.313,1.542-.462.958-.4,2.1-.291,2.923-1.052.073-.369.229-.616.618-.316a1.458,1.458,0,0,1,.717,1.138,2.186,2.186,0,0,1-1.393.809c-.507.116-.9.457-1.4.547C976.928,599.011,976.685,599.671,975.935,599.569Z" transform="translate(-304.033 14.056)" fill="#efc8be"/><path d="M978.984,596.766a4.945,4.945,0,0,1-2.047.7c-.382.048-.706.328-1.1.229-.26-.126-.44-.3-.833-.17a1.711,1.711,0,0,1-1.429.1l.143-.12c.106-.251-.155-.391-.179-.564a16.98,16.98,0,0,0,4.558-.651.539.539,0,0,1,.395-.137A.6.6,0,0,1,978.984,596.766Z" transform="translate(-304.033 14.056)" fill="#edc0b6"/><path d="M973.571,597.625c.55-.131,1.1-.267,1.652-.391.37-.082.4.314.61.457l-1.492.269c-.266-.258-.5.191-.77.029C973.365,597.863,973.033,597.747,973.571,597.625Z" transform="translate(-304.033 14.056)" fill="#e8b3a6"/><path d="M983.665,590.638l-.612-.72.02-.266c.328-.145-.051-.415.125-.61.344.069.394.6.816.563.04.047.079.094.118.142a1.733,1.733,0,0,0,1.088,1.293l.7,1.116c-.481,1.056-1.183,1.309-1.946.7.028-.276.22-.373.458-.418.334.12.567.136.317-.319-.117-.212-.245-.418-.368-.626A1.47,1.47,0,0,0,983.665,590.638Z" transform="translate(-304.033 14.056)" fill="#e5b9a7"/><path d="M989.412,598.082l.263.039-.043.514h0c.1.773-.564.369-.848.552-.521.279-.5.8-.558,1.276-.049.384.012.818-.487.977a.544.544,0,0,1-.314-.246,9.1,9.1,0,0,1,.137-3C988.143,597.6,988.8,598.157,989.412,598.082Z" transform="translate(-304.033 14.056)" fill="#e4b5a9"/><path d="M988.8,585.364l.477.56c0,.041-.006.081-.008.122a1.2,1.2,0,0,0,0,.6c-.044.55-.065,1.1-.064,1.652,0,.4.081.9-.478,1.072-.376-.208-.191-.574-.245-.872C988.669,587.465,988.249,586.365,988.8,585.364Z" transform="translate(-304.033 14.056)" fill="#d88577"/><path d="M987.068,586.8c.347.111.736.156.629.706s.646.622.65,1.123a.363.363,0,0,1-.129.5c-.463.122-.675-.258-.967-.481A2.072,2.072,0,0,1,987.068,586.8Z" transform="translate(-304.033 14.056)" fill="#efd2c7"/><path d="M986.677,586.632c-.353-.478-.579-.353-.736.261-.118-.66-.667-1.146-.308-1.76.461-.127.207,1,.871.413a.268.268,0,0,1,.249.292.575.575,0,0,1,.076.67A.121.121,0,0,1,986.677,586.632Z" transform="translate(-304.033 14.056)" fill="#e7b6aa"/><path d="M986.677,586.632l.152-.124.239.289.237,1.757a1.242,1.242,0,0,1,0,1.1.345.345,0,0,1-.234.081A11.578,11.578,0,0,1,986.677,586.632Z" transform="translate(-304.033 14.056)" fill="#e7b6a9"/><path d="M988.252,589.024l.1-.4.069-.056.059-.067c.277.225.144.569.242.846.146.111.111.236.031.365a.375.375,0,0,1-.51.083C987.994,589.536,988.077,589.279,988.252,589.024Z" transform="translate(-304.033 14.056)" fill="#d88271"/><path d="M986.753,585.838l-.249-.292c-.09-.138-.292-.263-.182-.444s.243-.016.354.059C986.7,585.387,986.727,585.612,986.753,585.838Z" transform="translate(-304.033 14.056)" fill="#e7b6a9"/><path d="M976.172,590.777l-.725-.861c.3-.231.477-.02.65.191Z" transform="translate(-304.033 14.056)" fill="#e8bcb5"/><path d="M977.929,590.534c.021.225.733.374.074.674A.566.566,0,0,1,977.929,590.534Z" transform="translate(-304.033 14.056)" fill="#ebbfb8"/><path d="M997.774,592.545l.121.138a2.14,2.14,0,0,1,.726.868.348.348,0,0,1-.458.193,9.582,9.582,0,0,0-2.98-.081c-.385.016-.814.224-1.088-.246.136-.421.633-.411.862-.721A14.75,14.75,0,0,1,997.774,592.545Z" transform="translate(-304.033 14.056)" fill="#e3b1a6"/><path d="M995.154,593.509a5.4,5.4,0,0,1,2.917.037,1.533,1.533,0,0,0,.55.005l.251.3c-.244.21-.556.092-.826.174a6,6,0,0,1-2.82-.271A.379.379,0,0,1,995.154,593.509Z" transform="translate(-304.033 14.056)" fill="#e1a999"/><path d="M1000.163,593.133c-.346-.068-.643-.12-.553-.381.123-.358.249,0,.355.073C1000.032,592.873,1000.063,592.972,1000.163,593.133Z" transform="translate(-304.033 14.056)" fill="#e8cbc0"/><path d="M989.986,583.853a.407.407,0,0,1,.171-.387c.149-.529.6-.688,1.05-.81.207-.055.432.119.41.282-.064.455-.2-.053-.32-.007-.172.063-.178.2-.093.27.181.153.345.69.533.4.292-.445.487.056.688-.071.325.513,0,.853-.34,1.155-.357.317-.6,0-.857-.21-.074-.061-.167.022-.252.044C990.513,584.495,990.277,584.134,989.986,583.853Z" transform="translate(-304.033 14.056)" fill="#e7c1b3"/><path d="M991.006,584.474c.111-.073-.073-.473.24-.281.9.554.9.564,1.179-.661.337-.294.308-.914.886-.992l.266.028c.331.617-.393.8-.516,1.239a7.155,7.155,0,0,1-.49,1.072c-.085.456-.271.813-.811.821a.536.536,0,0,1-.323-.231c-.129-.211-.093-.492-.287-.677-.027-.03-.052-.062-.078-.092A.366.366,0,0,1,991.006,584.474Z" transform="translate(-304.033 14.056)" fill="#e9c9bd"/><path d="M978.375,602.185,980.082,601c.177-.339.577-.424.8-.721.358-.473.615-.236.815.124.03.161.173-.094.081-.009-.417-.554.065-.675.411-.861.238-.009.286-.221.391-.374a14.145,14.145,0,0,1,1.387-.936c.491-.413.806-.411.963.282a5.225,5.225,0,0,1,.21.713,3.642,3.642,0,0,1-1.029,1.774c-.23.193-.53.36-.263.733.307.547.024.607-.432.526a.775.775,0,0,1-.63-.736c0-.027,0-.058,0-.089s-.012-.06-.018-.09c-.412.553-.963,1.051-.748,1.856.04.941-.729,1.543-1,2.362-.167.505-.842.88-1.575,1.13-.923-.467-.48-1.126-.246-1.755l.126-.012c.593.056.737-.523,1.063-.813.239-.213.048-.471-.371-.449-.253.013-.375-.544-.682-.131a3.67,3.67,0,0,1-.706.6,1.823,1.823,0,0,1-.489.255l-.1.049c-.607-.1-.478-.5-.267-.813A9.988,9.988,0,0,0,978.375,602.185Z" transform="translate(-304.033 14.056)" fill="#efccc0"/><path d="M979.449,606.684c.182-.259.675-.41.173-.871.5-.005.548.426.833.534.295-1.145,1.148-2.038,1.441-3.184a1.038,1.038,0,0,1,.506-.774.433.433,0,0,1,.495.115.768.768,0,0,1,.029.511c.039.6.344-.106.463.092.255.1.451.316.292.556-.287.429-.387,1.036-1.005,1.191l-.128-.033c-.155-.092-.225-.542-.491-.027-.491.95-1.073,1.853-1.617,2.775A1.757,1.757,0,0,1,979.449,606.684Z" transform="translate(-304.033 14.056)" fill="#f0d5c7"/><path d="M978.479,604.064c.1-.364.52-.355.719-.605.278.033.552.246.483.449-.117.348-.12.779-.478,1.022h0c-.185-.589-.685.175-.916-.213a.733.733,0,0,1,.022-.229A1.8,1.8,0,0,0,978.479,604.064Z" transform="translate(-304.033 14.056)" fill="#e9b8ac"/><path d="M978.432,604.593l-.145.123c-.2.246.061.516-.034.814l-.5-.6c.137-.146.334-.258.294-.507h0C978.3,604.189,978.382,604.356,978.432,604.593Z" transform="translate(-304.033 14.056)" fill="#e7b6a4"/><path d="M981.592,591.39l.12.144c.5.289.972.627,1.477.909a1.067,1.067,0,0,1,.492,1.537,2.771,2.771,0,0,1-2.418-.366l-.245-.27c.4-.365.927-.288,1.669-.379-.985-.6-2.114-.722-2.3-1.908C980.832,590.856,981.069,591.766,981.592,591.39Z" transform="translate(-304.033 14.056)" fill="#edcdbf"/><path d="M981.263,593.614l2.237.351c.315-.086.574-.2.4-.615-.076-.184-.171-.408.1-.543.9.56,1.349-.231,1.921-.65l.016.04c.236.335-.073.492-.225.7a1.128,1.128,0,0,0-.443,1.172,1.171,1.171,0,0,1-.416.6c-.166.218-.051.467-.073.7a.6.6,0,0,1-.092.226,4.206,4.206,0,0,1-.687.5.578.578,0,0,1-.491.01c-.141-.175-.285-.419-.234-.593.287-.979-.291-1.133-1.037-1.158-.4-.156-.912-.1-1.127-.6Z" transform="translate(-304.033 14.056)" fill="#e0a88f"/><path d="M981.114,593.752l1.162.49c0,.043,0,.085-.005.128-.145.252-.327.491-.644.3-.383-.23-.632.189-.966.148a.6.6,0,0,1-.255-.018c-.136.052-.2-.51-.422-.027-.108.229-.365-.034-.549-.1-.331-.246-.729-.452-.582-.981A15.241,15.241,0,0,0,981.114,593.752Z" transform="translate(-304.033 14.056)" fill="#e9c5b9"/><path d="M979.435,594.671c.321.016.732.143.383-.714l.676.806c.329.262.162.862.775.992.261.055.3.54-.106.716a2.681,2.681,0,0,0-.734.561l-.288.236c-.313-.373-.626-.745-.948-1.13-.268.154-.036.461-.209.628-.188-.181-.291-.479-.628-.455-.38-.629-.207-1.027.669-1.541C979.176,594.8,979.374,595.02,979.435,594.671Z" transform="translate(-304.033 14.056)" fill="#efcbc2"/><path d="M980.429,597.032c-.123-.443.2-.639.505-.744.223-.078.485-.031.267-.354-.082-.122-.219-.631-.475-.09a.229.229,0,0,1-.375.111c-.148-.1-.177-.341-.042-.4.476-.194.091-.543.185-.8l.144-.118a9.865,9.865,0,0,0,1.094.081c1.046.039,1.2.187,1.07,1.212a.982.982,0,0,1-.326.636,1.6,1.6,0,0,1-.741.343c-.4.056-.76.308-1.184.251C980.511,597.122,980.47,597.077,980.429,597.032Z" transform="translate(-304.033 14.056)" fill="#f0d3c7"/><path d="M975.935,599.569c.574-.162.772-.888,1.417-.944a.413.413,0,0,0,.179.477c.217.157.246-.178.3-.168a1.079,1.079,0,0,1,.88,1.007l-.823.193C977.126,600.323,976.4,600.408,975.935,599.569Z" transform="translate(-304.033 14.056)" fill="#ebbeb4"/><path d="M981.657,596.731a1.251,1.251,0,0,0,.7-.336,1.012,1.012,0,0,0,.284-1.44c-.169-.213-.394-.389-.363-.7l0-.012c1.219-.138,1.211-.119,1.173,1.091-.007.222.176.486.133.76A5.853,5.853,0,0,1,981,597.9a.2.2,0,0,1-.227-.177.39.39,0,0,0-.1-.411A3.344,3.344,0,0,1,981.657,596.731Z" transform="translate(-304.033 14.056)" fill="#e9c5b9"/><path d="M980.769,597.725l.12.142c-.722.292.007.711-.092,1.057-.436.43-.976.284-1.492.273h0c-.446-.182-.375-.486-.192-.816Z" transform="translate(-304.033 14.056)" fill="#edc7ba"/><path d="M979.113,598.382c.081.268-.037.583.192.816-.111.155-.154.5-.433.295-.234-.171-.538-.47-.528-.7C978.36,598.417,978.783,598.4,979.113,598.382Z" transform="translate(-304.033 14.056)" fill="#ecbeb1"/><path d="M981.657,596.731a1.911,1.911,0,0,1-.984.583l-.122-.146A1.824,1.824,0,0,1,981.657,596.731Z" transform="translate(-304.033 14.056)" fill="#edc7ba"/><path d="M980.8,598.924c-.477-.4-.559-.759.092-1.057l2.693-1.774.413-.112a.7.7,0,0,1-.406.447,3.516,3.516,0,0,0,.978-.88l.149-.194a.179.179,0,0,1,.249-.059.37.37,0,0,1,.065.524.546.546,0,0,1-.5.259l-3.18,2.626c-.379-.417-.32.265-.551.22Z" transform="translate(-304.033 14.056)" fill="#f0d7ca"/><path d="M984.527,596.078l.449-.388a.338.338,0,0,1,.21.141c.062.387-.109.9.646.807.4-.049.574.376.68.739a.427.427,0,0,1,.03.252.464.464,0,0,1-.185.177.882.882,0,0,1-.712-.235c-.342-.412-.638.117-.964.051a.657.657,0,0,1-.643-.662C984.292,596.716,984.648,596.529,984.527,596.078Z" transform="translate(-304.033 14.056)" fill="#dc9986"/><path d="M984.038,596.96a1.6,1.6,0,0,0,.751.577l-.012.127a.516.516,0,0,1-.164.189,4.688,4.688,0,0,1-1.155.447c-.48.054-.8.552-1.324.48C982.519,597.911,983.5,597.666,984.038,596.96Z" transform="translate(-304.033 14.056)" fill="#e3aa9b"/><path d="M982.134,598.78c.4-.233.689-.714,1.26-.56.18.526-.341.586-.578.8-.121.11-.26.138-.194.333-.083.092-.056.314-.282.238a.407.407,0,0,1-.364-.426L982,598.9Z" transform="translate(-304.033 14.056)" fill="#e6b2a7"/><path d="M980.8,598.924c.121-.232.095-.829.551-.22l-.442.345C980.867,599.009,980.831,598.967,980.8,598.924Z" transform="translate(-304.033 14.056)" fill="#edc7ba"/><path d="M974.119,588.328a.572.572,0,0,1,.672-.072C974.591,588.507,974.4,588.8,974.119,588.328Z" transform="translate(-304.033 14.056)" fill="#e8bcb5"/><path d="M991.709,585.6c.483-.009.534-.532.862-.725l.243.288c-.2.327.045.582.156.866-.283.058-.3-.341-.717-.312,1.505,1.655-1.071,2.207-.852,3.584.423-.075.648-.543,1.088-.431l-.431.367a5.352,5.352,0,0,1-1.642,1.742.493.493,0,0,1-.506-.292,5.627,5.627,0,0,1,1.021-2.893c.113-.312.556-.529.276-.957a.382.382,0,0,1,.316-.447c.12.006-.04-.016.085,0a.226.226,0,0,1-.052-.007C991.191,586.038,991.578,585.847,991.709,585.6Z" transform="translate(-304.033 14.056)" fill="#e9c4b6"/><path d="M981.712,606.75c-.189-.609.649-.838.526-1.422l.127.009c.364.21.537.483.283.889-.216.343-.383.778-.935.524Z" transform="translate(-304.033 14.056)" fill="#f0d5c7"/><path d="M982.238,605.328c-.039-.256.157-.369.31-.507h0c.295.069.579.26.443.547-.207.437-.5,0-.753-.04Z" transform="translate(-304.033 14.056)" fill="#f0d5c7"/><path d="M984.6,605.8l-.456.626a.237.237,0,0,1-.193-.146c-.141-.651.189-1.263.159-1.906.066-.216.149-.419.4-.481.085-.147.148.437.314-.018.207-.562.043-1.335.8-1.632.692.648.4,1.507.492,2.284-.222.336-.291.824-.938.619C984.687,604.991,984.995,605.752,984.6,605.8Z" transform="translate(-304.033 14.056)" fill="#ecbcaf"/><path d="M984.6,605.8c.066-.379.133-.759.239-1.358.474.941.818.283,1.2.151.161.029.174.185.248.288.165.364-.239.587-.227.913-.235.3-.373.715-.853.729A1.688,1.688,0,0,1,984.6,605.8Z" transform="translate(-304.033 14.056)" fill="#eec2b7"/><path d="M984.024,606.286c.04.047.079.095.119.141-.116.322-.125.7-.478.894l-.148.12a.474.474,0,0,1-.414-.421.886.886,0,0,1,.33-.538A.721.721,0,0,1,984.024,606.286Z" transform="translate(-304.033 14.056)" fill="#eec2b7"/><path d="M981.976,599.168l.364.426c-.6.439-.6.439-.269,1.223-.257.1-.313-.148-.384-.26-.321-.5-.719-.42-.887.012-.162.416-.519.237-.718.431-.223-.249-.049-.326.166-.386Z" transform="translate(-304.033 14.056)" fill="#e9c6b6"/><path d="M987.543,601.121l.242.289a.58.58,0,0,1,.1.361,3.55,3.55,0,0,0,.038,1.819.645.645,0,0,1,.034.371h0a.883.883,0,0,1-.331.772c-.253.038-.366-.153-.5-.308l-.113-.161a4.067,4.067,0,0,1-.293-1.595c.074-.355-.066-.746.173-1.075C987.174,601.524,987.2,601.1,987.543,601.121Z" transform="translate(-304.033 14.056)" fill="#e6ae9f"/><path d="M987.871,605.022c.418.579.139,1.154-.012,1.729C987.3,606.171,987.592,605.6,987.871,605.022Z" transform="translate(-304.033 14.056)" fill="#edcabc"/><path d="M987.628,604.733c-.189-.386.278-.49.331-.772.324.383.038.715-.088,1.06Z" transform="translate(-304.033 14.056)" fill="#ecc7bc"/><path d="M983.588,606.648l-.427.363c-.033.3-.087.579-.458.629v0l-.989-.887c.845-.255,1.021-.731.526-1.422.21-.083.467.238.6.013s-.194-.34-.291-.52c.283-.549,1.112-.831.813-1.664a.292.292,0,0,1-.276-.219.335.335,0,0,1,.073-.227c.221-.093.463-.175.277-.5l.021-.114c.119-.005.31.032.342-.022.09-.157-.105-.241-.171-.362a.33.33,0,0,1,.129-.217c.831.2,1.035.519.773,1.259a8.516,8.516,0,0,0-.4,1.761A5.005,5.005,0,0,1,983.588,606.648Z" transform="translate(-304.033 14.056)" fill="#f2d7cc"/><path d="M988.692,589.61l.026-.261a2.259,2.259,0,0,0,.241-1.592,7.463,7.463,0,0,1,.13-1.182c.274-.157.245-.4.184-.652h0c.13-.259.431-.462.234-.824-.264-.486-.02-.828.351-1.124.148.685.707,1.314.287,2.076-.13.236.01.49-.057.729-.157,1.8-.976,3.419-1.42,5.141a.325.325,0,0,1-.246.093C987.756,591.128,988.363,590.385,988.692,589.61Z" transform="translate(-304.033 14.056)" fill="#e5b4a7"/><path d="M990,586.788c.042-.275-.37-.5-.045-.83.173-.174.527-.42-.059-.692-.175-.081-.034-.841-.038-1.29.041-.042.084-.083.127-.123.54-.121.606.537,1.02.621l.121.144c-.121.667-.5,1.3-.166,2.023a.47.47,0,0,1-.4.686C990.231,587.293,990.006,587.154,990,586.788Z" transform="translate(-304.033 14.056)" fill="#e9c4b6"/><path d="M994.335,586.1c-.1.173-.6.1-.315.506-.31,0-.456.252-.686.5-.1-1.221.569-2.141.921-3.151-.02-.511.654-.2.72-.6.622.311-.157,1.044.413,1.371A2.183,2.183,0,0,0,994.335,586.1Z" transform="translate(-304.033 14.056)" fill="#eed8c9"/><path d="M982.7,607.64c.153-.209.3-.419.458-.629l.356.43A1.037,1.037,0,0,1,982.7,607.64Z" transform="translate(-304.033 14.056)" fill="#eecbbc"/><path d="M986.883,602.665c-.04.54.406,1.04.132,1.6l-.178.135c-.4-.09-.318.379-.551.483-.243.041-.179-.181-.248-.288-.355-.73-.06-1.591-.466-2.31-.284-.407-.145-.706.239-.944.583.2.432.765.578,1.175C986.5,602.84,986.607,602.975,986.883,602.665Z" transform="translate(-304.033 14.056)" fill="#eec9bb"/><path d="M995.287,593.685c.9.272,1.875-.061,2.759.343q-.242.45-.481.9a.822.822,0,0,1-.908.293c-.914-.407-1.593.167-2.324.5-.457.208.25.428.035.665l-1.052-.092c-.508-.318-1.6.032-1.336-1.168a1.479,1.479,0,0,1-.454-.116c-.4-.2-.954-.152-1.156-.688a.453.453,0,0,1,.23-.323,16,16,0,0,1,3.145-.379C994.261,593.607,994.772,593.693,995.287,593.685Z" transform="translate(-304.033 14.056)" fill="#eecec3"/><path d="M994.368,596.385c-.166-.137-.329-.277-.5-.412a.33.33,0,0,1-.123-.408c.085-.21.326-.05.359-.081.216-.2.751.194.779-.513.01-.267.962-.167,1.322-.081a8.1,8.1,0,0,0,1.357.037.389.389,0,0,1,.1.409,3.5,3.5,0,0,1-1.395.378c-.267.242.9.947-.443.727l.737.8c-.725.063-1.212-.685-1.95-.576Z" transform="translate(-304.033 14.056)" fill="#f0d4c8"/><path d="M990.405,594.291c.2.286.567.215.826.374.333.2.832.1.838.819,0,.491.9.4,1.247.808a3.051,3.051,0,0,0-1.789.5l-.645-.215c.43-.664.189-1.076-.493-1.334-.286-.109-.594-.2-.712-.538a.488.488,0,0,1,.141-.376.816.816,0,0,1,.232-.156C990.194,594.135,990.326,594.132,990.405,594.291Z" transform="translate(-304.033 14.056)" fill="#daab99"/><path d="M989.726,594.641c.315.387.857.31,1.221.6.77.618.761.851-.066,1.337l-.39-.134-.386-.156c0-.042,0-.085,0-.128.121-.26.192-.5-.125-.693a.785.785,0,0,1-.418-.654A.216.216,0,0,1,989.726,594.641Z" transform="translate(-304.033 14.056)" fill="#ce8d7b"/><path d="M989.141,596.862l1.113,1.327c-.416.019-.56-.583-.964-.256-.667.191-1.281-.185-1.93-.181-.122-.342.1-.494.346-.636.428-.124.928.123,1.31-.251C989.057,596.863,989.1,596.863,989.141,596.862Z" transform="translate(-304.033 14.056)" fill="#d48e7b"/><path d="M987.443,597.779c.658-.455,1.237.039,1.847.154l.122.149c-.24.283-.529.228-.835.135s-.652-.217-.924.111a.284.284,0,0,1-.214-.093A.377.377,0,0,1,987.443,597.779Z" transform="translate(-304.033 14.056)" fill="#dda797"/><path d="M990.1,596.289c-.064.625-.477.662-.964.573l-.028-.006c-.425-.25-.267-.473.057-.634.183-.091.42,0,.622-.079.129-.027.249-.028.314.117Z" transform="translate(-304.033 14.056)" fill="#d48e7b"/><path d="M987.768,601.672l.017-.262c.376-.607.086-1.354.41-1.967.116-.22.1-.741.595-.348a.522.522,0,0,1,.484.577,1.1,1.1,0,0,1-.728,1.561c-.488.153-.037.341.015.512a3.964,3.964,0,0,1,.267,1.492c-.253-.27-.35-.051-.427.149-.091.24-.08.547-.443.575l-.234-.289C987.536,603,988.149,602.348,987.768,601.672Z" transform="translate(-304.033 14.056)" fill="#ecc7bc"/><path d="M989.274,599.672q-.242-.289-.484-.577c.117-.093.057-.5.377-.226.367.317.34-.1.465-.233C990.151,599.527,990.109,599.648,989.274,599.672Z" transform="translate(-304.033 14.056)" fill="#e9beb0"/><path d="M989.6,603.571l-.219-.553a.429.429,0,0,1,.482.419C989.875,603.575,989.727,603.6,989.6,603.571Z" transform="translate(-304.033 14.056)" fill="#eec6bc"/><path d="M987.074,589.736l.153-.121a3.958,3.958,0,0,1,.364,2.219c-.345.233-.685.536-1.089.1.018-.024.058-.059.052-.072-.333-.671.04-1.2.353-1.736Z" transform="translate(-304.033 14.056)" fill="#e8c6b3"/><path d="M986.5,591.929a2.41,2.41,0,0,0,1.057-.155.25.25,0,0,1,.141.2.553.553,0,0,1-.328.516,1.1,1.1,0,0,1-.256.012c-.589-.148-1,.649-1.626.309.15-.2.462-.286.449-.609C986.095,592.041,986.248,591.879,986.5,591.929Z" transform="translate(-304.033 14.056)" fill="#dca044"/><path d="M984,592.807c0,.122-.042.286.02.359.733.869.088.819-.522.8a1.144,1.144,0,0,0-.547-1.5,3.489,3.489,0,0,1-1.241-.927c.921.263,1.677,1.02,2.723.907Z" transform="translate(-304.033 14.056)" fill="#e8c5b2"/><path d="M983.665,590.638a.852.852,0,0,1,.719.858Z" transform="translate(-304.033 14.056)" fill="#e1b098"/><path d="M997.774,592.545a4.794,4.794,0,0,1-2.817.151c-.141-.22-.3-.514.061-.6.712-.174.522-.573.214-1.066.527.06.472.7.977.588-.171-.238-.361-.487-.535-.747-.147-.22-.115-.423.063-.728s-.313-.355-.252-.624c.479.251.451.254.511.936.047.534.511.108.736.262-.1.465.193.7.488,1,.209-.38-.252-.545-.046-1.035.176,1.012,1.354.414,1.584,1.281C998.318,591.968,997.855,591.935,997.774,592.545Z" transform="translate(-304.033 14.056)" fill="#e7beb6"/><path d="M990.867,592.205c.237.516.772.382,1.087.317,1-.206.93.245.673.9-.111.385-.362.334-.637.206-.13-.653-.431-.064-.647-.085a3.49,3.49,0,0,1-.771.293c-.322.023-.6-.023-.664-.415C990.154,592.959,990.241,592.37,990.867,592.205Z" transform="translate(-304.033 14.056)" fill="#e0b2a2"/><path d="M990.6,593.639l.694-.323c.16.268.4.238.655.181a.564.564,0,0,0,.673-.074l1.057.1a.136.136,0,0,1,.126.083c.017.047.02.076.008.086a22.679,22.679,0,0,1-3.114.42A.486.486,0,0,1,990.6,593.639Z" transform="translate(-304.033 14.056)" fill="#dc9682"/><path d="M990.867,592.205c-.434.315-.331,1.019-.9,1.239a.163.163,0,0,1-.133.17.351.351,0,0,1-.2-.125c-.1-.26-.479-.334-.453-.679a1.885,1.885,0,0,1,.5-.426.851.851,0,0,1,.644-.217c.388.045.572-.285.84-.459C991.219,591.965,991.007,592.063,990.867,592.205Z" transform="translate(-304.033 14.056)" fill="#d99d83"/><path d="M993.818,593.687l-.134-.169a.4.4,0,0,1,.411-.1c.338.2.708.032,1.059.092l.133.176A2.274,2.274,0,0,1,993.818,593.687Z" transform="translate(-304.033 14.056)" fill="#df9d89"/><path d="M989.756,592.635l-.544.214a.826.826,0,0,1-.708-.552.529.529,0,0,1-.023-.31l.139-.112a.707.707,0,0,1,.246-.033c.642-.034.915-.669,1.444-.887.679-.472,1.037-1.274,1.748-1.714.367.068.548-.228.773-.415s.366-.176.45.118c-.746.769-1.781,1.191-2.448,2.053C990.687,591.683,989.754,591.851,989.756,592.635Z" transform="translate(-304.033 14.056)" fill="#e4b299"/><path d="M989.756,592.635c-.449-.2-.3-.457-.041-.691.364-.325.744-.632,1.118-.947a1.187,1.187,0,0,1-.5,1.17Z" transform="translate(-304.033 14.056)" fill="#ebd1bd"/><path d="M979.025,594.77a1.809,1.809,0,0,0-.669,1.541l-.263-.021-.364-.434C977.685,594.926,978.364,594.859,979.025,594.77Z" transform="translate(-304.033 14.056)" fill="#efc8be"/><path d="M987.522,598.181l.131.147q-.055,1.4-.11,2.793c-.346-.021.04.839-.583.484-.292-.188-.235-.488-.205-.751a18.866,18.866,0,0,1,.306-2.824C987.268,597.918,987.367,598.133,987.522,598.181Z" transform="translate(-304.033 14.056)" fill="#dd9882"/><path d="M989.273,585.923c.417.352.1.5-.184.652C988.874,586.279,988.831,586.033,989.273,585.923Z" transform="translate(-304.033 14.056)" fill="#e0a08e"/><path d="M987.684,591.9a.48.48,0,0,0-.125-.129,6.516,6.516,0,0,1-.332-2.159c.057-.351-.1-.718.078-1.061.425-.063.5.577.947.47,0,.227.009.454.014.68.233.713-.146,1.339-.28,2a.574.574,0,0,1-.172.191Z" transform="translate(-304.033 14.056)" fill="#efdcce"/><path d="M987.834,591.8l.432-2.094a.4.4,0,0,0,.426-.094c.029.8-.646,1.539-.211,2.377.034.052.067.1.1.157C988.179,592.359,987.982,592.133,987.834,591.8Z" transform="translate(-304.033 14.056)" fill="#d8907c"/><path d="M990.628,587.244c.564-.564-.46-1.149-.022-1.621.291-.314-.066-.9.521-1.005h0a.921.921,0,0,1,.34.7l.242.288c.4.3-.4.5-.071.794h0c-.153.139-.348.252-.311.507a3.053,3.053,0,0,1-.566,1.133.453.453,0,0,1-.4.142C989.915,587.713,990.251,587.473,990.628,587.244Z" transform="translate(-304.033 14.056)" fill="#eac9be"/><path d="M991.467,585.316a1.275,1.275,0,0,1-.34-.7C991.638,584.657,991.578,584.974,991.467,585.316Z" transform="translate(-304.033 14.056)" fill="#e9c4b6"/><path d="M984.041,604.552a2.22,2.22,0,0,1,.22-1.713c.344-.691.158-1.025-.495-1.248-.27-.315-.013-.475.191-.651a10.675,10.675,0,0,0,1.078-1.642c.02-.253-.154-.635.279-.655s.464.356.444.67a7.522,7.522,0,0,1-.373,1.63,2.248,2.248,0,0,0-.136,1.005,3.5,3.5,0,0,1-.754,1.976l-.308.507C984.2,604.542,984.145,604.579,984.041,604.552Z" transform="translate(-304.033 14.056)" fill="#f0d1c4"/><path d="M985.065,601.971c-.193-.936.434-1.718.491-2.609.014-.222.078-.516-.153-.572-.4-.1-.205.36-.368.508l-.547-1.215c-.448.633-1.29.746-1.865,1.273.018-.131-.484-.237.008-.408a1.2,1.2,0,0,0,.763-.728c.29-.472.909-.195,1.25-.55.449.394,1.253.219,1.5.934a5.8,5.8,0,0,1-.36,2.274C985.526,601.229,985.558,601.775,985.065,601.971Z" transform="translate(-304.033 14.056)" fill="#e9c6b6"/><path d="M979.2,604.93c.03-.491.611-.983-.005-1.471.247-.519.247-.519.869.012.043-.259-.338-.374-.225-.657,1.136.524,1.226.989.345,1.716-.081.067-.1.215-.134.329C979.827,605.592,979.525,605.373,979.2,604.93Z" transform="translate(-304.033 14.056)" fill="#edc4b8"/><path d="M982.494,602.417a1.6,1.6,0,0,1-.6.746c-.077-.032-.22-.058-.223-.1a2.6,2.6,0,0,1,1.211-1.987c.111-.035.245-.147.277.043.036.21-.183.2-.309.255a3.585,3.585,0,0,0,.018.595A.527.527,0,0,1,982.494,602.417Z" transform="translate(-304.033 14.056)" fill="#edc2b5"/><path d="M982.8,601.906a.343.343,0,0,1,.048-.529c.176.262.2.651.6.721h0c.145.367-.276.491-.333.771v0c-.09.229-.208.341-.409.1l.161-.385A1.4,1.4,0,0,1,982.8,601.906Z" transform="translate(-304.033 14.056)" fill="#eec3b4"/><path d="M983.957,600.94c-.064.217-.127.434-.191.651-.047.04-.093.081-.139.123C983.337,601.4,983.421,601.206,983.957,600.94Z" transform="translate(-304.033 14.056)" fill="#edc3b4"/><path d="M978.432,604.593a.385.385,0,0,0-.385-.166c-.051-.353.255-.281.432-.363A.345.345,0,0,1,978.432,604.593Z" transform="translate(-304.033 14.056)" fill="#eac2b2"/><path d="M981.066,602.183c.1.138.293.37.268.4-.158.172-.192-.068-.275-.135-.058-.047-.078-.143-.114-.218Z" transform="translate(-304.033 14.056)" fill="#edc2b5"/><path d="M982.716,602.966a.393.393,0,0,0,.409-.1l.237.286-.547.6A.688.688,0,0,1,982.716,602.966Z" transform="translate(-304.033 14.056)" fill="#efccc0"/><path d="M982.8,601.906a.561.561,0,0,1,.073.675l-.383-.164C982.6,602.247,982.7,602.077,982.8,601.906Z" transform="translate(-304.033 14.056)" fill="#efccc0"/><path d="M985.49,592.806c.627-.039,1.042-.806,1.765-.515a.6.6,0,0,1-.323.7c-.3.153-.65.185-.656.712-.008.625-.584.568-1.034.592a.172.172,0,0,1-.134-.189C984.964,593.593,984.87,593.095,985.49,592.806Z" transform="translate(-304.033 14.056)" fill="#e7b92c"/><path d="M985.108,594.107c.04.041.082.082.124.123.209.167.495.222.665.45a.8.8,0,0,1,.03.386,1.041,1.041,0,0,1-.337.591.569.569,0,0,1-.519.153,1.093,1.093,0,0,1-.095-.12.378.378,0,0,0-.1-.4,1.011,1.011,0,0,1-.2-.75Z" transform="translate(-304.033 14.056)" fill="#db9941"/><path d="M984.567,595.548c-.14.572-.72.685-1.116,1.241.071-.525.391-.6.544-.808C984.089,595.71,984.346,595.652,984.567,595.548Z" transform="translate(-304.033 14.056)" fill="#f1e7d6"/><path d="M984.674,594.545a.879.879,0,0,1,.2.75.383.383,0,0,0-.16.059C984.551,595.092,984.317,594.834,984.674,594.545Z" transform="translate(-304.033 14.056)" fill="#c9340f"/><path d="M982.274,594.254c.379.441.818.843.708,1.524-.062.386-.181.653-.629.617.615-1.057.381-1.49-.746-1.57-.306-.021-.741.325-.969-.18C981.111,594.215,981.829,594.8,982.274,594.254Z" transform="translate(-304.033 14.056)" fill="#edc7ba"/><path d="M987.161,598.023l-.2,3.582c-.059.35.1.718-.077,1.06-.5.639-.707.161-.809-.26-.085-.347.044-.746-.276-1.034a.469.469,0,0,1-.085-.378,10.721,10.721,0,0,0,.46-2.618,1.173,1.173,0,0,1,.237-.688,1.651,1.651,0,0,0,.111-.125c.175-.271.38-.179.588-.05A.431.431,0,0,1,987.161,598.023Z" transform="translate(-304.033 14.056)" fill="#f1d9cc"/><path d="M985.071,595.81l.436-.342a.2.2,0,0,1,.142.073c.034.044.047.069.04.076.042.508.448.494.8.565.24.049.616-.039.5.432-.194.27-.227.657-.588.8-.34-.514-.691-1-1.353-.38A2.915,2.915,0,0,1,985.071,595.81Z" transform="translate(-304.033 14.056)" fill="#d78775"/><path d="M986.41,597.687a12.437,12.437,0,0,1-.594,3.421.26.26,0,0,1-.246-.293l.447-2.1a3.071,3.071,0,0,0-.308-1.1c.006-.043.013-.086.02-.129Z" transform="translate(-304.033 14.056)" fill="#e2aa94"/><path d="M986.4,597.418c.124-.316.12-.7.478-.891a.309.309,0,0,1,.224.132c.13.322.382.651-.042.95l-.538-.047Z" transform="translate(-304.033 14.056)" fill="#dfb6a1"/><path d="M984.789,597.537c.306-.162.585-.825.94-.049l0,.007c-.3.243-.607.36-.936.049Z" transform="translate(-304.033 14.056)" fill="#e3aa9b"/><path d="M984.789,597.544l.936-.049a.979.979,0,0,1,.292,1.224c-.281-.581-1-.585-1.373-1.05Z" transform="translate(-304.033 14.056)" fill="#e3b9a8"/><path d="M990.416,588.16l.287-.242c.092-.225.2-.377.412-.1-.558.828-.656,1.855-1.172,2.7a.375.375,0,0,1-.133.231c-.241.134-.466.324-.776.224C989.281,589.933,989.432,588.842,990.416,588.16Z" transform="translate(-304.033 14.056)" fill="#e5b4a7"/><path d="M989.792,590.641l.151-.12.367.434c-.378.562-.663,1.259-1.559,1.055a1.11,1.11,0,0,1,.205-.656C989.236,591.118,989.494,590.856,989.792,590.641Z" transform="translate(-304.033 14.056)" fill="#ebcebb"/><path d="M991.115,587.82a.4.4,0,0,0-.412.1,1.791,1.791,0,0,1,.623-1.013c.235.056.586.048.186.409A3.527,3.527,0,0,0,991.115,587.82Z" transform="translate(-304.033 14.056)" fill="#e8beb1"/><path d="M991.638,586.4c.208-.134.405-.178.5.117a.254.254,0,0,1-.093.229c-.342.144-.236-.268-.409-.346Z" transform="translate(-304.033 14.056)" fill="#e8beb1"/><path d="M985.57,600.815l.246.293-.018.263c-.075.3-.151.608-.226.913-.2.564-.421,1.123-.6,1.693-.264.821-.318-.024-.473-.053,0-.705.574-1.245.57-1.953Q985.317,601.393,985.57,600.815Z" transform="translate(-304.033 14.056)" fill="#e8b1a1"/><path d="M984.041,604.552l.146-.121c.306.65-.147,1.233-.163,1.855l-.436.362C983.539,605.906,984.007,605.276,984.041,604.552Z" transform="translate(-304.033 14.056)" fill="#eecbbc"/><path d="M987.768,601.673c.7.2.4.807.25,1.073-.172.311-.116.65-.294.926A2.693,2.693,0,0,1,987.768,601.673Z" transform="translate(-304.033 14.056)" fill="#e9beb3"/><path d="M983.124,602.869l.333-.771c.149.216.406.375.367.722C983.613,603,983.328,602.58,983.124,602.869Z" transform="translate(-304.033 14.056)" fill="#efccc0"/><path d="M989.056,591.5l-.305.508-.131-.135a9.31,9.31,0,0,1,.826-3.067,2.914,2.914,0,0,0,.224-1.665c-.064-.253.158-.294.331-.355a1.29,1.29,0,0,0,.627.456c-.044.312-.5.527-.212.916a12.7,12.7,0,0,0-1.311,2.821C989.421,591.185,989.02,591.323,989.056,591.5Z" transform="translate(-304.033 14.056)" fill="#e7bcb2"/><path d="M989.813,593.574l.158-.13a.51.51,0,0,0,.634.2.469.469,0,0,1,.1.468l-.3.184-.29-.021c-.2-.1-.245-.287-.313-.468A.412.412,0,0,1,989.813,593.574Z" transform="translate(-304.033 14.056)" fill="#d17464"/><path d="M989.726,594.641a.828.828,0,0,0-.137.12l-.12-.043c-.17-.308-.338-.616.189-.747a3.216,3.216,0,0,1,.339.388Z" transform="translate(-304.033 14.056)" fill="#c1735c"/><path d="M990,594.359c-.121-.056-.325-.029-.268-.265-.008-.151-.014-.3.192-.324a.56.56,0,0,1,.194.5A.731.731,0,0,1,990,594.359Z" transform="translate(-304.033 14.056)" fill="#a93c11"/><path d="M990.106,596.26l-.267-.01a.636.636,0,0,1-.545-.264,2.775,2.775,0,0,1,.062-1.118.237.237,0,0,1,.21-.11l.022,0c.163.184.293.471.494.535C991.091,595.619,990.53,595.932,990.106,596.26Z" transform="translate(-304.033 14.056)" fill="#c1735c"/><path d="M989.351,595.96l.488.29c-.109.107-.024.449-.391.237-.482-.277-.51-.018-.335.369-.254.734-.734.525-1.221.294a.555.555,0,0,1-.622-.234.659.659,0,0,1-.035-.552.558.558,0,0,1,.6-.246c.262.1.552.4.723-.111a.592.592,0,0,1,.191-.168A.573.573,0,0,1,989.351,595.96Z" transform="translate(-304.033 14.056)" fill="#c8725c"/><path d="M987.382,596.831l.51.319c-.182.186-.485.287-.449.629.027.134.053.268.079.4a.349.349,0,0,1-.361-.158l-.1-.414c.221-.335-.137-.618-.084-.937C987.155,596.612,987.228,596.824,987.382,596.831Z" transform="translate(-304.033 14.056)" fill="#d38670"/><path d="M985.841,594.7c-.228-.124-.616-.04-.609-.468.345-.291,1.121-.156.916-1.011-.045-.187.351-.356.649-.31-.066-.106.094.162-.013.1-.005,0-.039.042-.059.065.263-.022.523.062.805.015.031-.239-.26-.408-.16-.661q.156-.261.314-.522l.005,0c.7.487,1.6.8,1.634,1.879-.128.381-.157.787-.315,1.16-.382.9-.8,1.06-1.739.671a5.629,5.629,0,0,1-.311-1.4c0,.181-.064.048-.06.064.078.313.169.681-.316.613C986.35,594.861,986.009,595.03,985.841,594.7Z" transform="translate(-304.033 14.056)" fill="#e4a919"/><path d="M987.37,592.425c.155.3.684.51.4.888a.93.93,0,0,1-1.05-.075c-.046-.044-.258.078-.128-.138a1,1,0,0,1,.2-.191,1.221,1.221,0,0,0,.458-.618Z" transform="translate(-304.033 14.056)" fill="#e29813"/><path d="M991.954,593.5c-.348.406-.5.1-.655-.181.26-.265.651-.06.908-.366C992.286,593.3,992.071,593.367,991.954,593.5Z" transform="translate(-304.033 14.056)" fill="#dfa695"/><path d="M987.241,595.49c1.2.2,1.4.061,1.7-1.128.059-.236.128-.469.192-.7.113-.248.207-.542.549-.223l.128.139.108.2c-.063.109-.127.217-.191.325-.5.112-.136.436-.164.664l-.132.117c-.182.355-.163.834-.628,1.013l-.145.115a.912.912,0,0,1-.812.211l-.56.208c-.287-.164-.673-.2-.795-.585a.6.6,0,0,1,.359-.462C987.007,595.328,987.151,595.317,987.241,595.49Z" transform="translate(-304.033 14.056)" fill="#d78025"/><path d="M989.685,593.435c-.244-.077-.392.085-.549.223-.1-.685-.645-1.012-1.137-1.351a.645.645,0,0,1-.31-.4.949.949,0,0,1,.145-.107l.747.346.631.705C989.166,593.21,990.143,592.743,989.685,593.435Z" transform="translate(-304.033 14.056)" fill="#dca044"/><path d="M987.241,595.49l-.271-.024c-.482.056-1.019.239-1.157-.5l.028-.267c.245.184.318-.311.532-.146.128.1.17.392.4.184.121-.11.04-.286-.041-.424-.072-.123-.22-.228-.1-.4.2.178.377.08.6.031.2-.042.091.216.016.334C986.992,594.682,987.635,595.089,987.241,595.49Z" transform="translate(-304.033 14.056)" fill="#e8b521"/><path d="M985.813,594.965c.258.461.769.339,1.157.5l-.427.372c-.411.346-.68.085-.938-.22-.033-.05-.066-.1-.1-.15Z" transform="translate(-304.033 14.056)" fill="#dc922c"/><path d="M985.6,595.618c.34-.041.571.377.938.22l.746.584.093.409c-.177.052-.291-.057-.407-.16a.815.815,0,0,0-.1-.144c-.373-.1-.743-.207-1.119-.287C985.254,596.133,985.36,595.9,985.6,595.618Z" transform="translate(-304.033 14.056)" fill="#c66743"/><path d="M989.056,591.5c.017-.174.033-.347.049-.521.212-.148.361-.422.687-.34A1.769,1.769,0,0,1,989.056,591.5Z" transform="translate(-304.033 14.056)" fill="#e2af9a"/><path d="M988.806,595.888c.168-.363.244-.784.628-1.013,0,.364.187.742-.083,1.085Z" transform="translate(-304.033 14.056)" fill="#a34e1a"/><path d="M987.849,596.214a1.032,1.032,0,0,1,.812-.211,1.291,1.291,0,0,1-.233.764C988.132,596.675,988.028,596.4,987.849,596.214Z" transform="translate(-304.033 14.056)" fill="#b34e2f"/></g></g></svg>