<svg xmlns="http://www.w3.org/2000/svg" width="344" height="163.097" viewBox="0 0 344 163.097"><g transform="translate(-761 -331.484)"><path d="M-116.258-5.039V-7.09h5.352v2.051ZM-103.148,0V-1.6l1.533-.293v-10.42l-1.533-.293v-1.611h5.723v1.611l-1.533.293v4.277h6.006v-4.277l-1.533-.293v-1.611h5.723v1.611l-1.533.293v10.42l1.533.293V0h-5.723V-1.6l1.533-.293V-5.986h-6.006v4.092l1.533.293V0Zm21.105.205A4.946,4.946,0,0,1-84.7-.479a4.52,4.52,0,0,1-1.7-1.9,6.282,6.282,0,0,1-.6-2.8v-.205a6.227,6.227,0,0,1,.6-2.783,4.592,4.592,0,0,1,1.7-1.9,4.854,4.854,0,0,1,2.637-.693,4.9,4.9,0,0,1,2.646.688,4.526,4.526,0,0,1,1.694,1.9,6.294,6.294,0,0,1,.591,2.793v.205a6.325,6.325,0,0,1-.591,2.8,4.488,4.488,0,0,1-1.694,1.9A4.889,4.889,0,0,1-82.043.205Zm0-2.041a1.921,1.921,0,0,0,1.274-.42,2.478,2.478,0,0,0,.747-1.177,5.679,5.679,0,0,0,.244-1.743v-.205a5.6,5.6,0,0,0-.244-1.729,2.492,2.492,0,0,0-.752-1.177,1.941,1.941,0,0,0-1.289-.425,1.921,1.921,0,0,0-1.284.425,2.51,2.51,0,0,0-.747,1.177,5.6,5.6,0,0,0-.244,1.729v.205a5.668,5.668,0,0,0,.244,1.748,2.461,2.461,0,0,0,.752,1.172A1.97,1.97,0,0,0-82.043-1.836ZM-70.84.205A10.082,10.082,0,0,1-73-.015a10.01,10.01,0,0,1-1.958-.649l-.029-2.891h1.875l.371,1.523a4.147,4.147,0,0,0,.8.273,4.2,4.2,0,0,0,.947.1A2.292,2.292,0,0,0-69.575-2a1.045,1.045,0,0,0,.415-.845,1.06,1.06,0,0,0-.439-.845,4.306,4.306,0,0,0-1.7-.62,5.955,5.955,0,0,1-2.773-1.206,2.663,2.663,0,0,1-.889-2.065,2.9,2.9,0,0,1,.454-1.592,3.2,3.2,0,0,1,1.362-1.147,5.262,5.262,0,0,1,2.275-.435,8.807,8.807,0,0,1,2.163.244,6.472,6.472,0,0,1,1.626.625l.049,2.793H-68.9l-.3-1.387a2.166,2.166,0,0,0-.664-.317,3.037,3.037,0,0,0-.859-.112,1.963,1.963,0,0,0-1.216.332,1.016,1.016,0,0,0-.435.84,1.024,1.024,0,0,0,.146.537,1.334,1.334,0,0,0,.571.454,5.867,5.867,0,0,0,1.245.4A6.918,6.918,0,0,1-67.5-5.127a2.579,2.579,0,0,1,.894,2.07A2.967,2.967,0,0,1-67.661-.7,4.756,4.756,0,0,1-70.84.205Zm5.969,3.857V2.451l1.406-.293V-8.662l-1.543-.293v-1.611h3.955l.146,1.24a3.347,3.347,0,0,1,1.162-1.064,3.35,3.35,0,0,1,1.621-.371,3.5,3.5,0,0,1,2.192.7,4.388,4.388,0,0,1,1.4,1.958,8.078,8.078,0,0,1,.488,2.93v.205a7.006,7.006,0,0,1-.488,2.72,4.078,4.078,0,0,1-1.4,1.812,3.72,3.72,0,0,1-2.2.645,3.587,3.587,0,0,1-1.543-.312,3.159,3.159,0,0,1-1.143-.918V2.158l1.445.293V4.063Zm5.938-5.9a1.853,1.853,0,0,0,1.689-.85,4.24,4.24,0,0,0,.537-2.285v-.205a6.307,6.307,0,0,0-.239-1.831,2.629,2.629,0,0,0-.737-1.23,1.836,1.836,0,0,0-1.27-.444,2.091,2.091,0,0,0-1.108.288,2.1,2.1,0,0,0-.757.806v4.736a1.975,1.975,0,0,0,.757.752A2.284,2.284,0,0,0-58.934-1.836ZM-52.457,0V-1.6l1.416-.293V-8.662l-1.533-.293v-1.611h4.189v8.672l1.416.293V0Zm1.318-12.881v-2.354h2.754v2.354ZM-41.381.2a2.93,2.93,0,0,1-2.183-.786,3.441,3.441,0,0,1-.776-2.5v-5.6h-1.494v-1.885h1.494v-2.578h2.646v2.578h2.021v1.885h-2.021v5.6a1.306,1.306,0,0,0,.273.928.971.971,0,0,0,.732.283,4.375,4.375,0,0,0,.557-.039q.3-.039.508-.078l.254,1.885a8.505,8.505,0,0,1-.972.215A6.378,6.378,0,0,1-41.381.2Zm7.121.01a3.572,3.572,0,0,1-2.5-.835,2.948,2.948,0,0,1-.913-2.29,2.933,2.933,0,0,1,.542-1.753,3.51,3.51,0,0,1,1.6-1.182,6.954,6.954,0,0,1,2.583-.425h1.5v-.83A1.773,1.773,0,0,0-31.921-8.4a1.853,1.853,0,0,0-1.392-.488,3.026,3.026,0,0,0-.894.122,2.432,2.432,0,0,0-.708.347L-35.139-7h-1.934l-.02-2.676a7.8,7.8,0,0,1,1.763-.786,7.229,7.229,0,0,1,2.144-.3,4.974,4.974,0,0,1,3.218.952A3.308,3.308,0,0,1-28.791-7.08v4.5q0,.215,0,.42a3.213,3.213,0,0,0,.034.4l1.084.156V0h-3.369q-.107-.3-.2-.62a3.986,3.986,0,0,1-.132-.64A4.187,4.187,0,0,1-32.6-.2,3.309,3.309,0,0,1-34.26.205Zm.654-2a2.665,2.665,0,0,0,1.265-.312,2.294,2.294,0,0,0,.894-.791V-4.619h-1.514a2.235,2.235,0,0,0-1.548.474,1.463,1.463,0,0,0-.522,1.118,1.138,1.138,0,0,0,.371.908A1.56,1.56,0,0,0-33.605-1.8ZM-26.2,0V-1.6l1.426-.293V-13.33l-1.533-.293v-1.611h4.189v13.34l1.426.293V0ZM-13.59,0V-1.6l1.416-.293V-8.662L-13.7-8.955v-1.611h3.984L-9.6-9.248l.02.225a3.355,3.355,0,0,1,1-1.294,2.286,2.286,0,0,1,1.406-.444,4.057,4.057,0,0,1,.571.044,3.277,3.277,0,0,1,.522.112l-.3,2.451-1.4-.078A1.723,1.723,0,0,0-8.819-8a2.264,2.264,0,0,0-.7.752v5.352L-8.1-1.6V0ZM.143.205A5.01,5.01,0,0,1-2.479-.464,4.577,4.577,0,0,1-4.213-2.31,5.721,5.721,0,0,1-4.828-5v-.4a6.255,6.255,0,0,1,.591-2.769,4.612,4.612,0,0,1,1.655-1.9,4.43,4.43,0,0,1,2.461-.688,4.708,4.708,0,0,1,2.412.571A3.622,3.622,0,0,1,3.766-8.555,6,6,0,0,1,4.264-6v1.475H-2.074l-.02.059A3.3,3.3,0,0,0-1.752-3.11a2.329,2.329,0,0,0,.85.933,2.457,2.457,0,0,0,1.328.342,5.08,5.08,0,0,0,1.519-.215,5.039,5.039,0,0,0,1.313-.635l.762,1.65a5.4,5.4,0,0,1-1.611.884A6.594,6.594,0,0,1,.143.205ZM-2.045-6.328H1.764v-.254a3.133,3.133,0,0,0-.2-1.157,1.613,1.613,0,0,0-.6-.767,1.842,1.842,0,0,0-1.05-.273,1.62,1.62,0,0,0-1.006.317,2.166,2.166,0,0,0-.664.859,4.1,4.1,0,0,0-.322,1.226ZM11.131.205a4.852,4.852,0,0,1-2.6-.679,4.517,4.517,0,0,1-1.694-1.88,6.142,6.142,0,0,1-.6-2.764v-.322a6.055,6.055,0,0,1,.6-2.744,4.628,4.628,0,0,1,1.694-1.89,4.738,4.738,0,0,1,2.578-.688,6.081,6.081,0,0,1,2.417.439,5.444,5.444,0,0,1,1.655,1.055v2.93H13.172L12.8-8.223a1.89,1.89,0,0,0-.645-.41,2.214,2.214,0,0,0-.83-.156,2.128,2.128,0,0,0-1.333.415,2.533,2.533,0,0,0-.82,1.162,5.078,5.078,0,0,0-.278,1.772v.322a4.937,4.937,0,0,0,.293,1.831A2.367,2.367,0,0,0,9.993-2.2a1.945,1.945,0,0,0,1.147.361,1.932,1.932,0,0,0,1.3-.425,2.093,2.093,0,0,0,.664-1.2h2.275l.029.059a4.771,4.771,0,0,1-.63,1.89A3.326,3.326,0,0,1,13.392-.244,5.019,5.019,0,0,1,11.131.205ZM17.4,0V-1.6l1.416-.293V-8.662l-1.523-.293v-1.611h3.984L21.4-9.248l.02.225a3.355,3.355,0,0,1,1-1.294,2.286,2.286,0,0,1,1.406-.444,4.057,4.057,0,0,1,.571.044,3.277,3.277,0,0,1,.522.112l-.3,2.451-1.4-.078A1.723,1.723,0,0,0,22.173-8a2.265,2.265,0,0,0-.7.752v5.352l1.416.293V0ZM30.842.205A3.354,3.354,0,0,1,28.2-.864a4.9,4.9,0,0,1-.952-3.325V-8.662l-1.172-.293v-1.611H29.9v6.4A2.9,2.9,0,0,0,30.319-2.4a1.529,1.529,0,0,0,1.274.522,2.584,2.584,0,0,0,1.24-.283,2.206,2.206,0,0,0,.85-.811V-8.662l-1.289-.293v-1.611H36.34v8.672L37.6-1.6V0H34L33.82-1.387A3.427,3.427,0,0,1,32.565-.205,3.559,3.559,0,0,1,30.842.205ZM39.125,0V-1.6l1.416-.293V-8.662l-1.533-.293v-1.611H43.2v8.672l1.416.293V0Zm1.318-12.881v-2.354H43.2v2.354ZM50.2.2a2.93,2.93,0,0,1-2.183-.786,3.441,3.441,0,0,1-.776-2.5v-5.6H45.748v-1.885h1.494v-2.578h2.646v2.578H51.91v1.885H49.889v5.6a1.306,1.306,0,0,0,.273.928.971.971,0,0,0,.732.283,4.375,4.375,0,0,0,.557-.039q.3-.039.508-.078l.254,1.885a8.505,8.505,0,0,1-.972.215A6.378,6.378,0,0,1,50.2.2ZM53.9,0V-1.6l1.426-.293V-8.662L53.8-8.955v-1.611h3.984L57.9-9.18a3.65,3.65,0,0,1,1.289-1.167,3.715,3.715,0,0,1,1.787-.415,3.243,3.243,0,0,1,1.758.459,2.8,2.8,0,0,1,1.1,1.377,3.693,3.693,0,0,1,1.279-1.348,3.442,3.442,0,0,1,1.846-.488,3.088,3.088,0,0,1,2.49,1.074,4.962,4.962,0,0,1,.908,3.262v4.531l1.426.293V0H66.395V-1.6L67.7-1.895V-6.436a2.781,2.781,0,0,0-.415-1.753,1.511,1.511,0,0,0-1.226-.493,1.734,1.734,0,0,0-1.221.449,2.335,2.335,0,0,0-.674,1.152v5.186l1.24.293V0H60.281V-1.6l1.24-.293V-6.436a2.77,2.77,0,0,0-.42-1.729,1.492,1.492,0,0,0-1.23-.518,2.244,2.244,0,0,0-1.133.269,2.074,2.074,0,0,0-.762.767v5.752l1.309.293V0ZM78.242.205A5.01,5.01,0,0,1,75.62-.464,4.577,4.577,0,0,1,73.887-2.31,5.721,5.721,0,0,1,73.271-5v-.4a6.255,6.255,0,0,1,.591-2.769,4.612,4.612,0,0,1,1.655-1.9,4.43,4.43,0,0,1,2.461-.688,4.708,4.708,0,0,1,2.412.571,3.622,3.622,0,0,1,1.475,1.636A6,6,0,0,1,82.363-6v1.475H76.025l-.02.059a3.3,3.3,0,0,0,.342,1.353,2.329,2.329,0,0,0,.85.933,2.457,2.457,0,0,0,1.328.342,5.08,5.08,0,0,0,1.519-.215,5.039,5.039,0,0,0,1.313-.635l.762,1.65a5.4,5.4,0,0,1-1.611.884A6.594,6.594,0,0,1,78.242.205ZM76.055-6.328h3.809v-.254a3.133,3.133,0,0,0-.2-1.157,1.613,1.613,0,0,0-.6-.767,1.842,1.842,0,0,0-1.05-.273,1.62,1.62,0,0,0-1.006.317,2.166,2.166,0,0,0-.664.859,4.1,4.1,0,0,0-.322,1.226ZM84.133,0V-1.6l1.416-.293V-8.662l-1.523-.293v-1.611H88.01l.127,1.523a3.864,3.864,0,0,1,1.313-1.265,3.5,3.5,0,0,1,1.782-.454,3.19,3.19,0,0,1,2.5,1,4.59,4.59,0,0,1,.9,3.14v4.727l1.416.293V0H90.666V-1.6l1.3-.293V-6.6a2.306,2.306,0,0,0-.449-1.606,1.759,1.759,0,0,0-1.338-.474,2.253,2.253,0,0,0-1.157.288,2.328,2.328,0,0,0-.815.815v5.684l1.25.293V0Zm17.141.2a2.93,2.93,0,0,1-2.183-.786,3.441,3.441,0,0,1-.776-2.5v-5.6H96.82v-1.885h1.494v-2.578h2.646v2.578h2.021v1.885h-2.021v5.6a1.306,1.306,0,0,0,.273.928.971.971,0,0,0,.732.283,4.375,4.375,0,0,0,.557-.039q.3-.039.508-.078l.254,1.885a8.5,8.5,0,0,1-.972.215A6.378,6.378,0,0,1,101.273.2Zm9.721-5.234V-7.09h5.352v2.051Z" transform="translate(933 490.519)" fill="#01bbc0"/><text transform="translate(933 442.484)" fill="#171717" font-size="54" font-family="MidashiGoPr6N-MB31, A-OTF Midashi Go MB31 Pr6N" letter-spacing="0.07em"><tspan x="-171.45" y="0">病院求人特集</tspan></text><text transform="translate(933 366.484)" fill="#01bbc0" font-size="30" font-family="MidashiGoPr6N-MB31, A-OTF Midashi Go MB31 Pr6N" letter-spacing="0.03em"><tspan x="-138.6" y="0">セラピストのための</tspan></text></g></svg>