<svg xmlns="http://www.w3.org/2000/svg" viewBox="0 0 209.67 29.83"><defs><style>.cls-1{isolation:isolate;}.cls-2{fill:#eaf1ff;stroke:#fff;stroke-miterlimit:10;stroke-width:0.5px;}</style></defs><g id="レイヤー_2" data-name="レイヤー 2"><g id="レイヤー_1-2" data-name="レイヤー 1"><g class="cls-1"><path class="cls-2" d="M2.83,9.11a1.4,1.4,0,0,1-1,.44A1.43,1.43,0,0,1,.44,8.42a2.62,2.62,0,0,1-.19-1A4,4,0,0,1,.94,5.19a4.25,4.25,0,0,1,1.6-1.58.33.33,0,0,1,.19,0c.22,0,.35.13.35.41a.51.51,0,0,1-.16.38A3.25,3.25,0,0,0,1.6,6.44l.28-.06a1.33,1.33,0,0,1,1,.47A1.46,1.46,0,0,1,3.27,8,1.62,1.62,0,0,1,2.83,9.11Zm4.43,0a1.4,1.4,0,0,1-1,.44A1.43,1.43,0,0,1,4.84,8.42a3.33,3.33,0,0,1-.16-1,4,4,0,0,1,.69-2.23A4.72,4.72,0,0,1,7,3.61s.09,0,.18,0,.35.13.35.41a.51.51,0,0,1-.16.38A3.29,3.29,0,0,0,6,6.44l.29-.06a1.32,1.32,0,0,1,1,.47A1.46,1.46,0,0,1,7.67,8,1.55,1.55,0,0,1,7.26,9.11Z"/><path class="cls-2" d="M23.17,3.8H20.06V9.43H21.5a1.07,1.07,0,0,1,1.86.72v7.73a1.07,1.07,0,0,1-2.08.35H20.06V25h1.6a1.12,1.12,0,0,1,2.23.09,1.19,1.19,0,0,1-1.19,1.16h-7v1.51a1.07,1.07,0,0,1-2.14,0V3a1.06,1.06,0,0,1,2-.44H22A1.18,1.18,0,1,1,23.17,3.8ZM15.66,9.43H18V3.77H15.66Zm0,7.57h5.56V10.65H15.66Zm0,8H18V18.23H15.66ZM38.13,6.19H27.73a18.84,18.84,0,0,1-2.43,3.3c-.59.57-1.13,0-.91-.47A54,54,0,0,0,27.1,2a1.38,1.38,0,0,1,2.42-.66,1.3,1.3,0,0,1-.44,2c-.19.51-.44,1-.66,1.51H37a1.14,1.14,0,0,1,1.16-1.1,1.2,1.2,0,0,1,0,2.39ZM30.68,26.87a1,1,0,1,1-2,0v-.5h-2.2v1.32a1,1,0,1,1-2,0v-8.9a1,1,0,0,1,1.88-.53h2.45a1,1,0,0,1,1.89.53Zm-4.24-1.63h2.23V19.39H26.44Zm9.77-9.87a1.09,1.09,0,0,1-2.14.28H29.74a1,1,0,0,1-2.08-.06V9.46a1,1,0,0,1,1.92-.57H34.2a1.09,1.09,0,0,1,2,.57Zm-6.47-.91H34V10.09h-4.3Zm9.33,13.17a1,1,0,1,1-2.07,0V26.4H34v1.07a1,1,0,1,1-2,0V18.79a1,1,0,0,1,1.86-.56h3.27a1,1,0,0,1,1.91.56Zm-5-2.45h3V19.42H34Z"/><path class="cls-2" d="M68.88,6.1H48.38V9.21c0,7.73.19,14.11-4.05,18.14a.5.5,0,0,1-.79-.6c2.71-4.69,2.64-8.71,2.64-17.61V5.47a1.17,1.17,0,0,1,2.14-.63H56.4V1.38A1.1,1.1,0,0,1,57.5.25a1.15,1.15,0,0,1,1.16,1.13V4.84h9a1.27,1.27,0,0,1,1.26-1.26,1.24,1.24,0,0,1,1.23,1.26A1.27,1.27,0,0,1,68.88,6.1Zm2,18.45c-.22-.1-.47-.16-.69-.25a1.17,1.17,0,0,1-1.82,1.16c-3.21-1.73-6.54-5.72-8.4-10.31V28.48A1.09,1.09,0,0,1,59,29.58a1.12,1.12,0,0,1-1.1-1.1V16.19A25.3,25.3,0,0,1,49,26.69a.52.52,0,0,1-.63-.82,44.15,44.15,0,0,0,8.4-12.42H49.83a.64.64,0,0,1-.66-.66.67.67,0,0,1,.66-.69h8V8.2A1.15,1.15,0,0,1,59,7.1a1.12,1.12,0,0,1,1.1,1.1v3.93h8.23a1.26,1.26,0,1,1,1.23,1.32h-9A20.5,20.5,0,0,0,71.27,23.61a.52.52,0,0,1,.28.66A.49.49,0,0,1,70.92,24.55Z"/><path class="cls-2" d="M84.48,8.3h-3v3.39c1.91.66,3.52,2.27,3.68,3.21a1.08,1.08,0,0,1-1.42,1.25,1.06,1.06,0,0,1-.78-.91A15.08,15.08,0,0,0,81.43,13V28.54a1,1,0,0,1-2.08,0v-14A24.83,24.83,0,0,1,75.2,21.4c-.37.44-1.16,0-.84-.56A57.87,57.87,0,0,0,79.29,8.3H75.52a.67.67,0,0,1-.66-.69A.64.64,0,0,1,75.52,7h3.77V2a1.1,1.1,0,0,1,1.1-1,1,1,0,0,1,1,1V7H83.5a1,1,0,0,1,1-.79,1.06,1.06,0,0,1,1.07,1.07A1,1,0,0,1,84.48,8.3ZM102.8,27.6c-.31-.07-.59-.16-.88-.25a1.14,1.14,0,0,1-1.66,1.25,13.49,13.49,0,0,1-6.92-8.08,11.6,11.6,0,0,1-8.83,8.74.5.5,0,1,1-.25-1,12,12,0,0,0,7-8H88.22a1,1,0,0,1-1,1,1.05,1.05,0,0,1-1-1V14.11a1,1,0,0,1,1.89-.59H92V10.65h-3a.66.66,0,1,1,0-1.32h6.76a1.08,1.08,0,0,1,1.07-.88,1.12,1.12,0,0,1,1.1,1.1,1.09,1.09,0,0,1-1.17,1.1H94v2.87h4a1,1,0,0,1,2,.5v6.16a1.06,1.06,0,0,1-1.06,1.07,1,1,0,0,1-1-1H94.38c1.26,2.89,4.43,5.31,8.67,6.35a.51.51,0,0,1,.38.63A.52.52,0,0,1,102.8,27.6Zm.73-17.8a5.57,5.57,0,0,1-.79-.25,1.1,1.1,0,0,1-1.6,1.17,17.8,17.8,0,0,1-7.58-7.89.62.62,0,0,1-.25.09,27.58,27.58,0,0,1-8.24,8.83.49.49,0,0,1-.62-.75,45.19,45.19,0,0,0,7.38-9.87,1.33,1.33,0,0,1,1.86-.6A1.3,1.3,0,0,1,94.28,2a18,18,0,0,0,9.53,6.88.51.51,0,0,1,.34.63A.48.48,0,0,1,103.53,9.8ZM92,14.83H88.25v4.09h3.36A17.34,17.34,0,0,0,92,15.4Zm5.91,4.09V14.83H94v.92a19.32,19.32,0,0,1-.25,3.17Z"/><path class="cls-2" d="M135.15,14.33l-1.07-.19a1.17,1.17,0,0,1-1.44,1.61,20,20,0,0,1-11-8.74v6.16a1.1,1.1,0,0,1-1.13,1.1,1.07,1.07,0,0,1-1.1-1.1V7a27.16,27.16,0,0,1-12.51,9.84.5.5,0,0,1-.41-.91A34.75,34.75,0,0,0,117.17,6.1h-8.7a.66.66,0,1,1,0-1.32h10.91V1.51a1.12,1.12,0,0,1,1.16-1.1,1.15,1.15,0,0,1,1.19,1.1v3.3h8.68a1.24,1.24,0,0,1,1.22-1.2,1.26,1.26,0,0,1,1.26,1.26,1.24,1.24,0,0,1-1.26,1.23h-9.21a20.26,20.26,0,0,0,12.86,7.23.5.5,0,1,1-.13,1ZM132.8,28.45H107.43a.65.65,0,0,1-.66-.66.68.68,0,0,1,.66-.7H114V15.28a1.06,1.06,0,0,1,2-.6h9.21a1.07,1.07,0,0,1,2,.6V27.12h4.46a1.24,1.24,0,0,1,1.23-1.19,1.26,1.26,0,0,1,1.25,1.26A1.28,1.28,0,0,1,132.8,28.45Zm-16.63-9.78H125V15.94h-8.83Zm0,4H125V19.93h-8.83Zm0,4.46H125v-3.2h-8.83Z"/><path class="cls-2" d="M147.7,9h-2.89v5.59c.79-.41,2.11-1.16,2.77-1.54a.51.51,0,1,1,.56.85c-.78.63-2.42,1.95-3.33,2.64V27.75a1.35,1.35,0,0,1-1.35,1.48,1.37,1.37,0,0,1-1.26-1.88h-1a.51.51,0,0,1-.51-.51.5.5,0,0,1,.51-.5h1.57V17.85c-.82.57-1.7,1.13-2.61,1.64a1.3,1.3,0,0,1-2.49-.63,1.37,1.37,0,0,1,.79-1c1.1-.56,2.92-1.51,4.31-2.26V9h-3.9a.64.64,0,0,1-.66-.66.67.67,0,0,1,.66-.69h3.83V1.57a1.11,1.11,0,0,1,1.1-1,1,1,0,0,1,1,1v6.1h1.79a1.17,1.17,0,0,1,1.17-1,1.14,1.14,0,0,1,1.16,1.17A1.16,1.16,0,0,1,147.7,9Zm18.55,18.48a9.63,9.63,0,0,1-1-.22,1.22,1.22,0,0,1-1.63,1.48,17.8,17.8,0,0,1-6.82-4.37,18.56,18.56,0,0,1-8.68,5.09.52.52,0,1,1-.35-1,21.76,21.76,0,0,0,7.71-5.72,16.36,16.36,0,0,1-3.08-8.37h-1.89a.66.66,0,1,1,0-1.32h5.06V7.51h-5.28a.64.64,0,0,1-.66-.66.67.67,0,0,1,.66-.69h5.25V1.7A1.08,1.08,0,0,1,156.6.63a1.06,1.06,0,0,1,1.07,1.07V6.19h6a1.28,1.28,0,0,1,2.55.06,1.25,1.25,0,0,1-1.29,1.26h-7.23v5.56h3.52a1.19,1.19,0,0,1,.72-.56,1.45,1.45,0,0,1,1.73,1.07,1.38,1.38,0,0,1-.91,1.66,30.68,30.68,0,0,1-4.5,7.52,16.64,16.64,0,0,0,8.21,3.74.47.47,0,0,1,.37.59A.45.45,0,0,1,166.25,27.47ZM153.61,14.39a15.93,15.93,0,0,0,3.11,6.82,29.11,29.11,0,0,0,4-6.82Z"/><path class="cls-2" d="M179.46,25.33a1,1,0,1,1-2.08,0v-.78h-4.33v2.32a1.05,1.05,0,0,1-1,1,1.07,1.07,0,0,1-1.07-1V5.69a1,1,0,0,1,2-.47h.79L174.59,2a1.35,1.35,0,0,1,2.67.32,1.38,1.38,0,0,1-1.1,1.35c-.38.5-.85,1.07-1.23,1.51h2.7a1,1,0,0,1,1.83.66v6.63a1,1,0,0,1-2,.22H173v3.71h4.59a1,1,0,0,1,1.86.63ZM173,11.5h4.37V6.44H173Zm0,11.82h4.37V17.66H173ZM196.12,4.65H189.8V9.37h4.34a1.09,1.09,0,0,1,1.82.78V24.2a1.31,1.31,0,0,1-1.32,1.39,1.33,1.33,0,0,1-1.19-1.86h-.88a.5.5,0,0,1-.51-.5.51.51,0,0,1,.51-.51h1.25V10.59h-4v17.7a1.07,1.07,0,1,1-2.14,0V10.59H184.3V25.46a1,1,0,1,1-2.08,0V10a1,1,0,0,1,1.86-.62h3.58V4.68h-6.28a.67.67,0,0,1-.67-.69.65.65,0,0,1,.67-.66H195a1.2,1.2,0,0,1,1.2-1.07,1.17,1.17,0,0,1,1.16,1.2A1.17,1.17,0,0,1,196.12,4.65Z"/><path class="cls-2" d="M204.3,7.89a4.75,4.75,0,0,1-1.57,1.57.33.33,0,0,1-.19,0c-.22,0-.35-.12-.35-.41a.49.49,0,0,1,.16-.37,3.25,3.25,0,0,0,1.32-2.08l-.28.06a1.25,1.25,0,0,1-1-.47,1.46,1.46,0,0,1-.41-1.1A1.55,1.55,0,0,1,202.41,4a1.44,1.44,0,0,1,1-.44,1.46,1.46,0,0,1,1.38,1.13,3.34,3.34,0,0,1,.16,1A4,4,0,0,1,204.3,7.89Zm4.43,0a4.09,4.09,0,0,1-1.6,1.57.33.33,0,0,1-.19,0c-.22,0-.35-.12-.35-.41a.53.53,0,0,1,.16-.37,3.25,3.25,0,0,0,1.32-2.08l-.28.06a1.25,1.25,0,0,1-1-.47,1.46,1.46,0,0,1-.41-1.1A1.62,1.62,0,0,1,206.84,4a1.44,1.44,0,0,1,1-.44,1.46,1.46,0,0,1,1.38,1.13,2.63,2.63,0,0,1,.19,1A4,4,0,0,1,208.73,7.89Z"/></g></g></g></svg>