<svg xmlns="http://www.w3.org/2000/svg" viewBox="0 0 208.49 28.76"><defs><style>.cls-1{fill:#eaf1ff;stroke:#fff;stroke-miterlimit:10;stroke-width:0.5px;}</style></defs><g id="レイヤー_2" data-name="レイヤー 2"><g id="レイヤー_1-2" data-name="レイヤー 1"><path class="cls-1" d="M2.71,8.71a1.34,1.34,0,0,1-1,.42A1.38,1.38,0,0,1,.43,8.05a2.6,2.6,0,0,1-.18-1A3.78,3.78,0,0,1,.91,5a4.07,4.07,0,0,1,1.53-1.5s.09,0,.18,0,.33.12.33.39a.5.5,0,0,1-.15.36,3.09,3.09,0,0,0-1.26,2l.27-.06a1.25,1.25,0,0,1,.93.45,1.38,1.38,0,0,1,.39,1A1.54,1.54,0,0,1,2.71,8.71Zm4.23,0a1.36,1.36,0,0,1-1,.42A1.38,1.38,0,0,1,4.63,8.05a3.07,3.07,0,0,1-.15-1A3.78,3.78,0,0,1,5.14,5a4.44,4.44,0,0,1,1.5-1.5s.09,0,.18,0,.33.12.33.39A.5.5,0,0,1,7,4.18a3.09,3.09,0,0,0-1.26,2L6,6.1a1.25,1.25,0,0,1,.93.45,1.38,1.38,0,0,1,.39,1A1.48,1.48,0,0,1,6.94,8.71Z"/><path class="cls-1" d="M23.32,3.64h-3V9h1.38a1,1,0,0,1,1.77.69v7.38a1,1,0,0,1-2,.33H20.35v6.45h1.53A1.07,1.07,0,0,1,24,24a1.13,1.13,0,0,1-1.14,1.11H16.15V26.5a1,1,0,1,1-2,0V2.86A1,1,0,0,1,16,2.44h6.18a1.12,1.12,0,0,1,1.11-1.08,1.14,1.14,0,1,1,0,2.28ZM16.15,9H18.4V3.61H16.15Zm0,7.23h5.31V10.18H16.15Zm0,7.62h2.28V17.41H16.15ZM37.6,5.92H27.67a17.87,17.87,0,0,1-2.31,3.15c-.57.54-1.08,0-.87-.45A50.7,50.7,0,0,0,27.07,2a1.31,1.31,0,0,1,2.31-.63A1.24,1.24,0,0,1,29,3.25c-.18.48-.42,1-.63,1.44h8.16A1.1,1.1,0,0,1,37.6,3.64a1.14,1.14,0,1,1,0,2.28ZM30.49,25.66a1,1,0,0,1-1.92,0v-.48h-2.1v1.26a1,1,0,0,1-1.92,0V18a1,1,0,0,1,1.8-.51h2.34a1,1,0,0,1,1.8.51Zm-4-1.56h2.13V18.52H26.44Zm9.33-9.42a1,1,0,0,1-2,.27H29.59a1,1,0,0,1-2-.06V9a1,1,0,0,1,1.83-.54h4.41A1,1,0,0,1,35.77,9Zm-6.18-.87H33.7V9.64H29.59ZM38.5,26.38a1,1,0,0,1-2,0V25.21H33.7v1a1,1,0,1,1-1.92,0V18a1,1,0,0,1,1.77-.54h3.12A1,1,0,0,1,38.5,18ZM33.7,24h2.82V18.55H33.7Z"/><path class="cls-1" d="M68.14,5.83H48.58v3c0,7.38.18,13.47-3.87,17.31a.48.48,0,0,1-.75-.57c2.58-4.47,2.52-8.31,2.52-16.8V5.23a1.12,1.12,0,0,1,2-.6h7.71V1.33A1.05,1.05,0,0,1,57.28.25a1.1,1.1,0,0,1,1.11,1.08v3.3H67a1.2,1.2,0,0,1,1.2-1.2,1.18,1.18,0,0,1,1.17,1.2A1.2,1.2,0,0,1,68.14,5.83Zm2,17.61c-.21-.09-.45-.15-.66-.24a1.12,1.12,0,0,1-1.74,1.11c-3.06-1.65-6.24-5.46-8-9.84V27.19a1,1,0,0,1-1,1,1.06,1.06,0,0,1-1-1V15.46a24,24,0,0,1-8.46,10,.49.49,0,0,1-.6-.78,42.11,42.11,0,0,0,8-11.85H50a.62.62,0,0,1-.63-.63.64.64,0,0,1,.63-.66h7.62V7.84a1.09,1.09,0,0,1,1.08-1,1.06,1.06,0,0,1,1.05,1v3.75h7.86a1.2,1.2,0,1,1,1.17,1.26H60.13a19.56,19.56,0,0,0,10.29,9.69.5.5,0,0,1,.27.63A.47.47,0,0,1,70.09,23.44Z"/><path class="cls-1" d="M100.75,25.69H76a.69.69,0,1,1,0-1.38H87.52V5.89H77.83a.75.75,0,0,1-.69-.72.72.72,0,0,1,.69-.69h20a1.26,1.26,0,0,1,2.52.09,1.3,1.3,0,0,1-1.29,1.29h-9.3V24.34h9.78a1.25,1.25,0,0,1,2.49.09A1.34,1.34,0,0,1,100.75,25.69Z"/><path class="cls-1" d="M132,19.6H120.94v7.53a1.36,1.36,0,1,1-2.61-.54h-1.56a.47.47,0,0,1-.48-.48.53.53,0,0,1,.48-.54h2v-6H107.23a.69.69,0,1,1,0-1.38h11.58v-2a1.06,1.06,0,0,1,1.83-.75c.75-.69,2-1.89,2.73-2.76H112.3a.63.63,0,0,1,0-1.26h12.3a1.55,1.55,0,0,1,1.47-.6,1.4,1.4,0,0,1-.51,2.76,28,28,0,0,1-4.62,2.85v1.77h9.75a1.24,1.24,0,0,1,1.23-1.14A1.25,1.25,0,0,1,132,19.6Zm-1-10c-.48.42-1.17,1-1.71,1.44a.5.5,0,0,1-.75-.63l.9-2H110.38c-.09,2.28-.57,3.63-1.5,4.44a1.36,1.36,0,0,1-1.89-.12,1.33,1.33,0,0,1,.57-2.13,9.79,9.79,0,0,0,1.77-3.75.53.53,0,0,1,1,0v.33H123.1c.63-1.35,1.8-4,2.25-5.19a1.53,1.53,0,0,1,.9-.93,1.41,1.41,0,0,1,1.8.87A1.44,1.44,0,0,1,127,3.82a41.06,41.06,0,0,1-2.64,3.39H130a1.52,1.52,0,1,1,1,2.43ZM113.86,6a1.21,1.21,0,0,1-1.14-1.41A13.24,13.24,0,0,0,111.19,2c-.36-.45,0-1.08.63-.75,2.13,1.08,3.24,2.43,3.33,3.36A1.22,1.22,0,0,1,113.86,6ZM120,5.68a1.22,1.22,0,0,1-1.23-1.26,15.8,15.8,0,0,0-1.71-2.73c-.39-.51.06-1,.63-.75a6.66,6.66,0,0,1,3.42,3A1.24,1.24,0,0,1,120,5.68Z"/><path class="cls-1" d="M147,8.59h-2.76v5.34c.75-.39,2-1.11,2.64-1.47a.49.49,0,1,1,.54.81c-.75.6-2.31,1.86-3.18,2.52V26.5a1.3,1.3,0,1,1-2.49-.39h-1a.48.48,0,0,1,0-1h1.5v-8.1a29.19,29.19,0,0,1-2.49,1.56,1.24,1.24,0,0,1-2.37-.6,1.29,1.29,0,0,1,.75-1c1.05-.54,2.79-1.44,4.11-2.16V8.59h-3.72a.62.62,0,0,1-.63-.63.64.64,0,0,1,.63-.66h3.66V1.51a1.05,1.05,0,0,1,1-1,1,1,0,0,1,1,1V7.33h1.71a1.11,1.11,0,0,1,1.11-1,1.09,1.09,0,0,1,1.11,1.11A1.1,1.1,0,0,1,147,8.59Zm17.7,17.64c-.33-.06-.66-.12-1-.21a1.16,1.16,0,0,1-1.56,1.41,16.93,16.93,0,0,1-6.51-4.17,17.62,17.62,0,0,1-8.28,4.86.49.49,0,1,1-.33-.93,20.69,20.69,0,0,0,7.35-5.46,15.69,15.69,0,0,1-2.94-8h-1.8a.63.63,0,1,1,0-1.26h4.83V7.18h-5a.62.62,0,0,1-.63-.63.64.64,0,0,1,.63-.66h5V1.63a1,1,0,0,1,1.05-1,1,1,0,0,1,1,1V5.92h5.7a1.22,1.22,0,0,1,2.43.06,1.19,1.19,0,0,1-1.23,1.2h-6.9v5.31h3.36a1.16,1.16,0,0,1,.69-.54,1.39,1.39,0,0,1,1.65,1,1.33,1.33,0,0,1-.87,1.59A29.33,29.33,0,0,1,157,21.73a15.81,15.81,0,0,0,7.83,3.57.46.46,0,0,1,.36.57A.43.43,0,0,1,164.65,26.23ZM152.59,13.75a15.13,15.13,0,0,0,3,6.51,27.89,27.89,0,0,0,3.78-6.51Z"/><path class="cls-1" d="M194.08,12.67H183.31V25.36h8.1a1.18,1.18,0,0,1,1.2-1.08,1.23,1.23,0,0,1,1.2,1.23,1.25,1.25,0,0,1-1.23,1.2h-21a.69.69,0,0,1,0-1.38h9.57V12.67H169.66A.69.69,0,0,1,169,12a.75.75,0,0,1,.66-.75h11.43V2.32a1.13,1.13,0,0,1,1.11-1.11,1.15,1.15,0,0,1,1.14,1.11v9h9.54a1.26,1.26,0,0,1,2.52.09A1.33,1.33,0,0,1,194.08,12.67Z"/><path class="cls-1" d="M203.35,7.54a4.44,4.44,0,0,1-1.5,1.5s-.09,0-.18,0-.33-.12-.33-.39a.5.5,0,0,1,.15-.36,3.09,3.09,0,0,0,1.26-2l-.27.06a1.21,1.21,0,0,1-.93-.45,1.38,1.38,0,0,1-.39-1,1.48,1.48,0,0,1,.39-1.11,1.36,1.36,0,0,1,1-.42,1.4,1.4,0,0,1,1.32,1.08,3.38,3.38,0,0,1,.15,1A3.78,3.78,0,0,1,203.35,7.54Zm4.23,0A3.87,3.87,0,0,1,206.05,9s-.09,0-.18,0-.33-.12-.33-.39a.5.5,0,0,1,.15-.36,3.09,3.09,0,0,0,1.26-2l-.27.06a1.21,1.21,0,0,1-.93-.45,1.38,1.38,0,0,1-.39-1,1.54,1.54,0,0,1,.42-1.11,1.34,1.34,0,0,1,1-.42,1.4,1.4,0,0,1,1.32,1.08,2.6,2.6,0,0,1,.18,1A3.78,3.78,0,0,1,207.58,7.54Z"/></g></g></svg>