<svg xmlns="http://www.w3.org/2000/svg" viewBox="0 0 215.89 26.05"><defs><style>.cls-1{fill:#eaf1ff;stroke:#fff;stroke-miterlimit:10;stroke-width:0.5px;}</style></defs><g id="レイヤー_2" data-name="レイヤー 2"><g id="レイヤー_1-2" data-name="レイヤー 1"><path class="cls-1" d="M2.46,8a1.22,1.22,0,0,1-.86.38c-.57,0-.94-.33-1.19-1a2.32,2.32,0,0,1-.16-.87A3.48,3.48,0,0,1,.84,4.62,3.71,3.71,0,0,1,2.22,3.27a.32.32,0,0,1,.16,0c.19,0,.3.11.3.35a.44.44,0,0,1-.13.32A2.76,2.76,0,0,0,1.41,5.71l.24-.06a1.13,1.13,0,0,1,.84.41A1.24,1.24,0,0,1,2.84,7,1.35,1.35,0,0,1,2.46,8ZM6.27,8a1.23,1.23,0,0,1-.89.38c-.57,0-.94-.33-1.19-1a2.84,2.84,0,0,1-.13-.87,3.48,3.48,0,0,1,.59-1.92A4.11,4.11,0,0,1,6,3.27a.35.35,0,0,1,.17,0c.18,0,.29.11.29.35a.44.44,0,0,1-.13.32A2.8,2.8,0,0,0,5.19,5.71l.25-.06a1.13,1.13,0,0,1,.83.41A1.21,1.21,0,0,1,6.62,7,1.3,1.3,0,0,1,6.27,8Z"/><path class="cls-1" d="M21.32,7.16H12.16a.57.57,0,0,1-.56-.59A.56.56,0,0,1,12.16,6h8.16a1,1,0,0,1,1-.92,1,1,0,0,1,1,1A1,1,0,0,1,21.32,7.16Zm-1.38,3.62H13.22a.57.57,0,1,1,0-1.13H19A1,1,0,0,1,20,8.81a1,1,0,0,1,1,1A1,1,0,0,1,19.94,10.78ZM20,14.54h-6.8a.57.57,0,1,1,0-1.14H19.1A1,1,0,1,1,20,14.54Zm.65,9.13a.89.89,0,0,1-1.78,0H14.57v.76a.93.93,0,0,1-1,.91.91.91,0,0,1-.92-.91V17.37a.92.92,0,0,1,1.76-.4H19a.88.88,0,0,1,1.67.4ZM20.29,3.38H13.62a.56.56,0,0,1-.57-.56.58.58,0,0,1,.57-.6h5.62a1,1,0,1,1,1.05,1.16ZM14.57,22.67h4.32V18H14.57Zm19.71-4.24a21.68,21.68,0,0,1-11.77,7.34.44.44,0,0,1-.22-.84,27.45,27.45,0,0,0,10.94-8.42,1.16,1.16,0,1,1,1.05,1.92Zm2.06-8.67-.63-.19a1,1,0,0,1-1.43,1.13A14.26,14.26,0,0,1,28.07,4a20.53,20.53,0,0,1-5.21,7.13.44.44,0,0,1-.65-.57,49.75,49.75,0,0,0,4.67-8.69A1.13,1.13,0,0,1,29,1.68,1.1,1.1,0,0,1,28.64,3a14.66,14.66,0,0,0,7.91,5.89.44.44,0,0,1,.3.54A.42.42,0,0,1,36.34,9.76ZM29.21,11.7a17.09,17.09,0,0,1-5.89,5,.44.44,0,0,1-.49-.73,27.27,27.27,0,0,0,5.05-5.89,1.16,1.16,0,0,1,2.16.38A1.22,1.22,0,0,1,29.21,11.7Zm1.94,3.51a21.23,21.23,0,0,1-7.81,6.05c-.51.24-.78-.46-.43-.73a37.48,37.48,0,0,0,7.27-7.18,1.11,1.11,0,0,1,2,.54A1.15,1.15,0,0,1,31.15,15.21Z"/><path class="cls-1" d="M62.06,4.46l-16.8,0,0,2.54c-.08,8.4,0,13.53-4.43,17.28-.49.41-1,0-.7-.56a16.89,16.89,0,0,0,3.13-9.35c-.65.46-1.27.84-1.67,1.08a1.14,1.14,0,0,1-1.57.81,1.12,1.12,0,0,1,.16-2.08c1-.27,2.51-.78,3.14-1,.1-2.38.13-5.32.13-9.29a1,1,0,0,1,1.86-.57h6.24V1.2a.95.95,0,1,1,1.89,0V3.38H61a1,1,0,0,1,2,.08A1,1,0,0,1,62.06,4.46ZM41.91,11a1,1,0,0,1-1-1.27c-.19-.38-.79-1.4-1.11-1.89s.19-.81.54-.65c1.84.92,2.57,1.89,2.54,2.79A1,1,0,0,1,41.91,11Zm7.4,11.35a19.26,19.26,0,0,1-4,2.32c-.64.24-.91-.41-.54-.7a44.44,44.44,0,0,0,3.76-3.46,1.13,1.13,0,1,1,.81,1.84Zm14.18-8.76a4.63,4.63,0,0,1-.68-.1.87.87,0,0,1-1.16,1,12.18,12.18,0,0,1-2.75-1.38V18.4a.87.87,0,0,1-1.68.32h-2.4v5.35a1.09,1.09,0,0,1-1.11,1.16,1.12,1.12,0,0,1-1-1.59h-.91a.45.45,0,0,1-.44-.46.43.43,0,0,1,.44-.43H53v-4h-2.3a.86.86,0,0,1-1.7-.21V13a15.82,15.82,0,0,1-2.75,2.32c-.57.35-.95-.27-.63-.62a31,31,0,0,0,2.95-3.46.85.85,0,0,1-1-.86l-.76-.86a.42.42,0,0,1,.38-.71c.73.17,2,.49,2.11,1.41.54-.78,1-1.51,1.35-2.14H46.53A.56.56,0,0,1,46,7.49.54.54,0,0,1,46.53,7h4.72L51.9,5.6A1.07,1.07,0,0,1,54,5.6a1,1,0,0,1-.7,1.29l0,.06h7.32a1,1,0,0,1,1.92.11,1,1,0,0,1-1,1H55.79a10.69,10.69,0,0,0,2.08,2.22c.3-.3,1.13-1.16,1.48-1.62a1,1,0,1,1,.54,1.59c-.45.25-.91.49-1.21.62a12.54,12.54,0,0,0,4.94,1.84.43.43,0,0,1,.35.51A.4.4,0,0,1,63.49,13.56Zm-6.38-1.94a12.56,12.56,0,0,1-2.37-3.57H52.68a22.84,22.84,0,0,1-2.18,3.33,1.67,1.67,0,0,1,.16.24Zm-6.37,3h6.43V12.67H50.74Zm0,3.08h6.43v-2H50.74Zm10.53,6.91a1.11,1.11,0,0,1-1.35-1.16,16.71,16.71,0,0,0-2.24-2.35.44.44,0,0,1,.49-.73c2.16.68,3.72,1.7,3.94,3A1.07,1.07,0,0,1,61.27,24.58Z"/><path class="cls-1" d="M78.57,7.24h-5c0,1.27,0,2.44-.11,3.54h2.62a.91.91,0,0,1,1.62.57,45.79,45.79,0,0,1-.78,10.29c-.52,2-1.35,3.21-2.65,3.35a1.08,1.08,0,0,1-.94-1.76l-.68-.11a.43.43,0,0,1-.35-.51.41.41,0,0,1,.49-.35l1.91.3c.71-1.35,1.16-3.59,1.19-10.72H73.38c-.43,4.86-1.81,10.31-4.81,13a.43.43,0,0,1-.67-.54c2.75-4.4,3.75-10.8,3.75-17H68.33a.55.55,0,0,1-.57-.56.58.58,0,0,1,.57-.6H72V1.49A.91.91,0,0,1,73,.55a1,1,0,0,1,1,.94V6.11h3.62a1,1,0,0,1,1-.86,1,1,0,0,1,0,2ZM92.15,23.58a6.87,6.87,0,0,1-.84-.21,1,1,0,0,1-1.4,1.16,12.77,12.77,0,0,1-5.29-4.08,12.87,12.87,0,0,1-6.87,4.62c-.75.19-.86-.54-.48-.76a17.83,17.83,0,0,0,6.21-5.4,20.3,20.3,0,0,1-2.54-8.86,17.79,17.79,0,0,1-1.56,2.78.44.44,0,0,1-.76-.43A46.65,46.65,0,0,0,81.48,1.9a1.22,1.22,0,0,1,2-.79A1.22,1.22,0,0,1,83.4,3a35.6,35.6,0,0,1-1.11,3.81H89.8a1.07,1.07,0,0,1,1-1,1.06,1.06,0,1,1-.08,2.11H88.5A22.76,22.76,0,0,1,85.72,18.8a11.65,11.65,0,0,0,6.62,3.92.41.41,0,0,1,.32.51A.42.42,0,0,1,92.15,23.58ZM81.89,7.87l-.08.24a20.43,20.43,0,0,0,2.7,9,22.25,22.25,0,0,0,2-9.26Z"/><path class="cls-1" d="M106.15,24.48A1.15,1.15,0,0,1,105,25.72a1.12,1.12,0,0,1-1-1.62h-.94a.48.48,0,0,1-.46-.46.45.45,0,0,1,.46-.43h1.35V18a28.36,28.36,0,0,1-7.59,6.32.44.44,0,0,1-.54-.7,49.81,49.81,0,0,0,7.45-7.51c-1.53.41-4.7,1.05-6,1.32a1.11,1.11,0,0,1-1.4.6,1.07,1.07,0,0,1-.65-1.38,1,1,0,0,1,.92-.7l1.13-.16V5a.86.86,0,0,1,1.65-.38h.87l.86-2.92a1.14,1.14,0,0,1,1.08-.84A1.15,1.15,0,0,1,103.29,2a1.11,1.11,0,0,1-1,1.1L101.23,4.6h3.22a.87.87,0,0,1,1.7.27V14a1.09,1.09,0,0,1,0,2.1ZM99.4,8h5V5.65h-5Zm0,3.46h5V9h-5Zm0,4.13,5-.57V12.51h-5Zm20.31-5.75h-3V24.67a1.08,1.08,0,0,1-1.14,1.13,1.11,1.11,0,0,1-1-1.57h-1a.43.43,0,0,1,0-.86h1.35V9.84h-7.21a.56.56,0,0,1-.57-.57.57.57,0,0,1,.57-.59h7.18V2.33a.94.94,0,0,1,.95-.92.92.92,0,0,1,.92.92v6.4h1.89a1.09,1.09,0,0,1,1.08-1,1.06,1.06,0,0,1,1.05,1.08A1,1,0,0,1,119.71,9.84Zm-8.21,8.05a1.12,1.12,0,0,1-1.14-1.33,10.72,10.72,0,0,0-1.46-3.13.42.42,0,0,1,.54-.62,5.8,5.8,0,0,1,3.08,3.7A1.1,1.1,0,0,1,111.5,17.89Z"/><path class="cls-1" d="M133.25,14.24a1,1,0,0,1-.76-1.22l-.08-.19a9.46,9.46,0,0,1-2,.49V24.67a.93.93,0,0,1-.92.89.91.91,0,0,1-.89-.89v-11c-.65.1-2,.35-2.81.43a1.12,1.12,0,1,1-.75-1.92l3.13,0a66.87,66.87,0,0,0,3.7-7,1.21,1.21,0,0,1,2.3.67,1.25,1.25,0,0,1-.89,1c-1.11,1.59-2.6,3.53-4,5.29.89,0,1.83-.05,2.78-.11-.14-.32-.43-.94-.59-1.24a.44.44,0,0,1,.62-.57,5,5,0,0,1,2.48,2.7A1,1,0,0,1,133.25,14.24Zm-6,3.43a20.76,20.76,0,0,1-2.54,5.86.42.42,0,0,1-.75-.38,46.08,46.08,0,0,0,1.57-6.64,1.15,1.15,0,1,1,1.72,1.16Zm2.81-14c-.62,1-1.51,2.29-2.05,3a2.59,2.59,0,0,1,1,1.27,1.08,1.08,0,0,1-.84,1.51A1.11,1.11,0,0,1,127,8.19c-.38-.49-1.4-1.67-1.81-2.13a.44.44,0,0,1,.44-.73,12.2,12.2,0,0,1,1.72.78,31.39,31.39,0,0,0,1.19-3.78,1.2,1.2,0,1,1,1.62,1.3Zm2.73,16.07a1,1,0,0,1-.81-1.19c-.22-.52-.76-1.62-1-2a.43.43,0,0,1,.59-.59,6.08,6.08,0,0,1,2.3,2.4A1,1,0,0,1,132.84,19.7ZM138.57,17a14.45,14.45,0,0,1-5.16,6.81c-.41.3-.92-.3-.57-.68a20.55,20.55,0,0,0,3.89-6.83h-2.57a.49.49,0,0,1-.51-.51.52.52,0,0,1,.51-.54h3.06a1.11,1.11,0,0,1,1.86.81A1.15,1.15,0,0,1,138.57,17Zm10.15,5.84a6,6,0,0,1-.78-.27c.27.92-.68,1.51-1.54,1-1.87-1.16-3.54-3.54-4.73-7.16v7.72a1.13,1.13,0,1,1-2.19-.35h-1a.43.43,0,1,1,0-.86h1.44v-10h-2.25a.9.9,0,0,1-1.8-.11V4.6a.9.9,0,0,1,1.64-.52h1.87l.4-2.16a1.13,1.13,0,0,1,1.11-1,1.11,1.11,0,0,1,.3,2.18l-.79,1h4a1,1,0,0,1,1.73.52v8a1,1,0,0,1-1.84.3h-2.65a15,15,0,0,0,1.63,4.24l1.51-2.06a1.11,1.11,0,1,1,.65,1.73l-1.73,1.11A9.76,9.76,0,0,0,149,22a.46.46,0,0,1,.27.57A.41.41,0,0,1,148.72,22.83ZM137.7,8h6.54V5.17H137.7Zm0,3.83h6.54V9.11H137.7Z"/><path class="cls-1" d="M160.45,7.89H158V12.7c.67-.35,1.81-1,2.37-1.32a.44.44,0,1,1,.49.73c-.68.54-2.08,1.67-2.86,2.27V24a1.17,1.17,0,1,1-2.25-.35h-.89a.44.44,0,0,1,0-.87h1.35V15.51a25,25,0,0,1-2.24,1.4,1.11,1.11,0,0,1-1.16.68,1.1,1.1,0,0,1-1-1.22,1.15,1.15,0,0,1,.67-.89c1-.48,2.52-1.29,3.7-1.94V7.89h-3.35a.55.55,0,0,1-.56-.56.58.58,0,0,1,.56-.6h3.3V1.52a.94.94,0,0,1,.94-.89.9.9,0,0,1,.9.89V6.76h1.53a1,1,0,0,1,1-.87,1,1,0,1,1-.05,2Zm15.94,15.88a7.21,7.21,0,0,1-.9-.19,1,1,0,0,1-1.4,1.27,15.15,15.15,0,0,1-5.86-3.75,15.84,15.84,0,0,1-7.46,4.37.44.44,0,1,1-.29-.83,18.58,18.58,0,0,0,6.61-4.92,14.12,14.12,0,0,1-2.64-7.18h-1.62a.57.57,0,0,1,0-1.14h4.35V6.62h-4.54a.55.55,0,0,1-.57-.56.58.58,0,0,1,.57-.6h4.51V1.63a.93.93,0,0,1,.94-.92.91.91,0,0,1,.92.92V5.49h5.13a1.1,1.1,0,0,1,2.19,0,1.07,1.07,0,0,1-1.11,1.08H169V11.4h3a1,1,0,0,1,.62-.48,1.25,1.25,0,0,1,1.48.92,1.18,1.18,0,0,1-.78,1.43,26.16,26.16,0,0,1-3.86,6.45,14.2,14.2,0,0,0,7.05,3.22.41.41,0,0,1,.32.51A.38.38,0,0,1,176.39,23.77ZM165.53,12.54a13.63,13.63,0,0,0,2.67,5.86,24.71,24.71,0,0,0,3.4-5.86Z"/><path class="cls-1" d="M188.82,21.94a.9.9,0,0,1-1.79,0v-.68h-3.72v2a.9.9,0,0,1-.89.89.92.92,0,0,1-.92-.89V5.06a.9.9,0,0,1,1.7-.41h.67l.76-2.73a1.17,1.17,0,0,1,2.3.27,1.2,1.2,0,0,1-1,1.17c-.32.43-.73.91-1,1.29h2.32a.88.88,0,0,1,1.57.57v5.7a.89.89,0,0,1-1.76.19h-3.78v3.18h3.94a.9.9,0,0,1,1.6.54Zm-5.54-11.89H187V5.71h-3.75Zm0,10.16H187V15.35h-3.75Zm19.85-16H197.7V8.22h3.73a.94.94,0,0,1,1.57.67V21a1.13,1.13,0,1,1-2.16-.4h-.76a.43.43,0,0,1-.43-.43.42.42,0,0,1,.43-.43h1.08V9.27H197.7V24.48a.92.92,0,0,1-1.83,0V9.27H193V22a.9.9,0,1,1-1.79,0V8.76a.89.89,0,0,1,1.6-.54h3.08v-4h-5.41a.57.57,0,0,1-.56-.59.55.55,0,0,1,.56-.57h11.67a1,1,0,0,1,1-.92,1,1,0,0,1,1,1A1,1,0,0,1,203.13,4.17Z"/><path class="cls-1" d="M211.24,7a4,4,0,0,1-1.35,1.35s-.08,0-.16,0-.3-.11-.3-.36a.45.45,0,0,1,.14-.32,2.76,2.76,0,0,0,1.13-1.78l-.24,0a1.07,1.07,0,0,1-.84-.4,1.27,1.27,0,0,1-.35-.95,1.34,1.34,0,0,1,.35-1,1.23,1.23,0,0,1,.89-.38,1.27,1.27,0,0,1,1.19,1,3,3,0,0,1,.14.86A3.37,3.37,0,0,1,211.24,7Zm3.81,0a3.51,3.51,0,0,1-1.38,1.35s-.08,0-.16,0-.3-.11-.3-.36a.45.45,0,0,1,.14-.32,2.76,2.76,0,0,0,1.13-1.78l-.24,0a1.1,1.1,0,0,1-.84-.4,1.27,1.27,0,0,1-.35-.95,1.41,1.41,0,0,1,.38-1,1.22,1.22,0,0,1,.86-.38,1.27,1.27,0,0,1,1.19,1,2.27,2.27,0,0,1,.16.86A3.36,3.36,0,0,1,215.05,7Z"/></g></g></svg>