<svg xmlns="http://www.w3.org/2000/svg" viewBox="0 0 212.93 23.39"><defs><style>.cls-1{fill:#eaf1ff;stroke:#fff;stroke-miterlimit:10;stroke-width:0.5px;}</style></defs><g id="レイヤー_2" data-name="レイヤー 2"><g id="レイヤー_1-2" data-name="レイヤー 1"><path class="cls-1" d="M2.77,5.71a1.38,1.38,0,0,1-1,.43A1.41,1.41,0,0,1,.43,5a2.74,2.74,0,0,1-.18-1A3.79,3.79,0,0,1,.93,1.88,4.11,4.11,0,0,1,2.49.34s.09,0,.19,0S3,.43,3,.71a.52.52,0,0,1-.15.37,3.14,3.14,0,0,0-1.29,2L1.85,3a1.32,1.32,0,0,1,.95.46,1.46,1.46,0,0,1,.4,1.08A1.58,1.58,0,0,1,2.77,5.71Zm4.33,0A1.39,1.39,0,0,1,4.73,5a3.2,3.2,0,0,1-.15-1,3.85,3.85,0,0,1,.67-2.18A4.67,4.67,0,0,1,6.79.34s.09,0,.18,0,.34.12.34.4a.52.52,0,0,1-.15.37,3.14,3.14,0,0,0-1.29,2L6.14,3a1.33,1.33,0,0,1,1,.46,1.46,1.46,0,0,1,.4,1.08A1.51,1.51,0,0,1,7.1,5.71Z"/><path class="cls-1" d="M37.49,23H31.11c-.4,0-.59-.18-.59-.58a.52.52,0,0,1,.59-.59c1.72,0,2-.52,2-1.59V4.36L26,22.69a.62.62,0,0,1-1.2,0L17.69,3.78V20.27c0,1.13.4,1.59,2,1.59a.51.51,0,0,1,.58.59.51.51,0,0,1-.58.58H14.34c-.4,0-.58-.18-.58-.58s.18-.59.58-.59c1.57,0,2-.4,2-1.59V5c0-1.08-.34-1.6-2.06-1.6-.4,0-.58-.18-.58-.58s.18-.58.58-.58H19a.52.52,0,0,1,.52.36l6.33,17,6.54-17A.53.53,0,0,1,33,2.25h4.51c.4,0,.59.18.59.58s-.19.58-.59.58c-1.72,0-2.18.65-2.18,1.63V20.36c0,.95.37,1.5,2.18,1.5a.52.52,0,0,1,.59.59C38.08,22.85,37.89,23,37.49,23Z"/><path class="cls-1" d="M61.51,6.91a.58.58,0,0,1-1,.46c-1.32-2.45-1.84-4-5-4h-.74C53,3.41,53,3.69,53,5.1V20.48c0,1,.8,1.48,2.77,1.48a.58.58,0,1,1,0,1.16H48.06c-.4,0-.58-.18-.58-.58s.18-.58.58-.58c2,0,2.76-.47,2.76-1.45V5.13c0-1.35,0-1.72-2-1.72h-.4c-3.16,0-3.69,1.41-5,4a.58.58,0,0,1-1.07-.46l1.5-4.27a.54.54,0,0,1,.56-.39h15a.52.52,0,0,1,.55.39Z"/><path class="cls-1" d="M73.11,13.6a2.36,2.36,0,1,1,2.37-2.36A2.34,2.34,0,0,1,73.11,13.6Z"/><path class="cls-1" d="M109.84,23h-6.39c-.4,0-.58-.18-.58-.58s.18-.59.58-.59c1.72,0,2-.52,2-1.59V4.36L98.39,22.69a.62.62,0,0,1-1.2,0L90,3.78V20.27c0,1.13.39,1.59,2,1.59.4,0,.58.19.58.59S92.4,23,92,23H86.69c-.4,0-.58-.18-.58-.58s.18-.59.58-.59c1.56,0,2-.4,2-1.59V5c0-1.08-.34-1.6-2.06-1.6-.4,0-.58-.18-.58-.58s.18-.58.58-.58h4.73a.52.52,0,0,1,.52.36l6.32,17,6.54-17a.54.54,0,0,1,.55-.36h4.52c.4,0,.58.18.58.58s-.18.58-.58.58c-1.72,0-2.18.65-2.18,1.63V20.36c0,.95.37,1.5,2.18,1.5.4,0,.58.19.58.59S110.24,23,109.84,23Z"/><path class="cls-1" d="M132.22,22.63a.52.52,0,0,1-.55.4H116.81c-.4,0-.58-.18-.58-.58s.18-.59.58-.59c1.72,0,2.37-.49,2.37-1.56V5c0-1-.56-1.57-2.4-1.57-.4,0-.58-.18-.58-.58s.18-.58.58-.58h14.4a.52.52,0,0,1,.55.4l1.48,3.92a.52.52,0,0,1-.31.74.54.54,0,0,1-.77-.24c-1.38-2.61-2.58-3.66-5-3.66h-3.6c-2.21,0-2.21,0-2.21,1.57v6.72l3.57,0c1.72,0,2.48-1,2.48-2.88a.52.52,0,0,1,.59-.59c.4,0,.58.19.58.59v6.93c0,.4-.18.59-.58.59a.52.52,0,0,1-.59-.59c0-2.11-1.07-2.91-2.39-2.91h-3.66v7.4c0,1.56,0,1.56,2.21,1.56h3.63c2.3,0,4.14-1.35,5.59-4.08a.57.57,0,0,1,.73-.28.61.61,0,0,1,.31.74Z"/><path class="cls-1" d="M146.81,13.6a2.36,2.36,0,1,1,2.36-2.36A2.34,2.34,0,0,1,146.81,13.6Z"/><path class="cls-1" d="M177.12,23h-3.44a.48.48,0,0,1-.52-.31L167.72,13h-3V20.3c0,1.13.53,1.56,2.25,1.56A.59.59,0,1,1,167,23h-6.67c-.4,0-.58-.18-.58-.58s.18-.59.58-.59c1.63,0,2.31-.37,2.31-1.56V5c0-1-.37-1.57-2.25-1.57a.51.51,0,0,1-.58-.58.51.51,0,0,1,.58-.58h9.52c2.49,0,6,1.53,6,4.91s-2.73,5.34-5.77,5.68l2.36,4.23a26.43,26.43,0,0,0,2.85,4.46,3.41,3.41,0,0,0,1.79.33.6.6,0,0,1,.58.49A.59.59,0,0,1,177.12,23ZM169.78,3.44h-2.89c-2.18,0-2.18.16-2.18,1.54v6.78h4.15a4.32,4.32,0,0,0,4.54-4.6A3.87,3.87,0,0,0,169.78,3.44Z"/><path class="cls-1" d="M200.58,6.91a.58.58,0,0,1-1.05.46c-1.32-2.45-1.84-4-5-4h-.74c-1.69,0-1.69.28-1.69,1.69V20.48c0,1,.8,1.48,2.77,1.48a.58.58,0,1,1,0,1.16h-7.74c-.4,0-.58-.18-.58-.58s.18-.58.58-.58c2,0,2.76-.47,2.76-1.45V5.13c0-1.35,0-1.72-2-1.72h-.4c-3.16,0-3.69,1.41-5,4a.58.58,0,0,1-1.07-.46L183,2.64a.54.54,0,0,1,.56-.39h15a.52.52,0,0,1,.55.39Z"/><path class="cls-1" d="M207.67,4.52a4.52,4.52,0,0,1-1.53,1.53s-.09,0-.19,0-.33-.12-.33-.4a.5.5,0,0,1,.15-.36,3.18,3.18,0,0,0,1.29-2l-.28.06a1.23,1.23,0,0,1-.95-.46,1.4,1.4,0,0,1-.4-1.07,1.5,1.5,0,0,1,.4-1.14,1.38,1.38,0,0,1,1-.43,1.43,1.43,0,0,1,1.35,1.1,3.26,3.26,0,0,1,.16,1A3.91,3.91,0,0,1,207.67,4.52Zm4.33,0a4,4,0,0,1-1.56,1.53.33.33,0,0,1-.19,0c-.21,0-.34-.12-.34-.4a.5.5,0,0,1,.16-.36,3.18,3.18,0,0,0,1.29-2l-.28.06a1.21,1.21,0,0,1-1-.46,1.4,1.4,0,0,1-.4-1.07,1.56,1.56,0,0,1,.43-1.14,1.36,1.36,0,0,1,1-.43,1.43,1.43,0,0,1,1.35,1.1,2.57,2.57,0,0,1,.19,1A3.91,3.91,0,0,1,212,4.52Z"/></g></g></svg>